<?xml version="1.0" encoding="utf-8"?>
<!-- Generator: Adobe Illustrator 21.1.0, SVG Export Plug-In . SVG Version: 6.00 Build 0)  -->
<svg version="1.1" id="Layer_1" xmlns="http://www.w3.org/2000/svg" xmlns:xlink="http://www.w3.org/1999/xlink" x="0px" y="0px"
	 width="200px" height="284.4px" viewBox="0 0 200 284.4" style="enable-background:new 0 0 200 284.4;" xml:space="preserve">
<style type="text/css">
	.st0{fill:#BBBBBB;}
</style>
<g id="sunburn-lady">
	<path class="st0" d="M0,9c4.4-0.6,8.9-1.4,13.3-1.7s9,0.4,13.5,0.3C32.2,7.4,37.6,6.7,43,6.5c4.9-0.3,9.9-0.3,14.8-0.4
		c4-0.3,7.9-0.6,11.9-1.1c4.2-0.4,8.2-1.2,12.3-1.7c2.8-0.3,5.5,0.3,8.3,0c2.9-0.3,6-0.7,8.9-1.4c6.4-1.2,12.8-2.4,19.3-1.7
		c2.9,0.3,5.7,1.7,8.5,2.8c1.9,0.8,3.1,2.4,3.7,4.4c0.6,1.2,1.4,2.5,2.4,3.6c1.5,1.8,3.2,3.6,4.7,5.3c0.8,0.8,1.4,1.9,2.4,2.5
		c2.9,2.1,4.3,5.1,6.1,7.9c0.4,0.7,0.8,1.4,1.4,2.1c1,1.4,1.4,2.6,0.7,4.3c-0.7,1.5-1.1,3.2-1.5,4.9c-0.1,0.3,0.1,0.7,0.3,1.1
		c1.8,4.7,3.5,9.4,4,14.4c0.3,3.1,0.4,6.2,0.6,9.3c0.1,6.1,0.4,12.2,0.3,18.3c-0.1,2.2-1.1,4.6-2.1,6.8c-1.5,3.6-3.3,7.1-5.1,10.4
		c-2.4,4.3-2.6,8.9-2.8,13.5c0,1.7,1.5,3.1,3.2,3.1c1.2,0,2.4,0.1,3.6,0.3c2.6,0.4,4.7-1.1,7.1-1.7c2.1-0.4,3.9-1.4,6-1.8
		c1.4-0.3,2.8-0.1,4.2-0.4c4-0.8,7.4,0.8,10.5,2.9c5.1,3.3,10,7.1,14.2,11.8c2.2,2.5,5,4.3,7.6,6.4c1.4,1,1.9,2.2,1.4,4.3
		c-4.6-4.2-9.2-8-13.3-12.3c-4.4-4.4-9.7-7.8-15.1-10.8c-1.2-0.7-3.2-0.3-4.9-0.3c-5.4,0-10.1,2.8-15.1,4c-4.4,1.2-8.3,3.3-12.5,5.1
		c-1,0.4-2.2,0.6-3.6,1c0.8,1,1.7,1.8,2.5,2.8c2.6,3.5,5.4,6.9,7.9,10.5c3.7,5.3,8,10,13.2,13.9c0.6,0.4,1.2,1,1.7,1.5
		c4.3,5,9,9.7,10.8,16.2c0.8,2.8,1.9,5.5,3.1,8.7c0.7-1.5,1.2-2.9,1.9-4.2c0.7-1.4,1.4-2.6-0.6-3.6c-0.3-0.1-0.4-0.4-0.6-0.7
		c-1.1-2.6-2.1-5.1-3.2-7.8c-0.6-1.4-0.4-2.6,1.1-3.6c1.1,2.6,2.5,5.1,3.5,7.8c0.7,2.1,1.7,3.7,3.5,5.1c5.7,4.2,11,8.7,15.7,14
		c0.6,0.7,1.2,1.4,1.9,1.8c1.9,1.2,2.5,2.8,1.8,5.5c-1.7-1.8-3.2-3.3-4.7-4.9c-2.8-3.1-5.5-6.2-8.6-9c-1.2-1.2-3.1-1.8-4.6-2.6
		c-0.6-0.3-1-1-1.4-1.4c-1.1-0.8-1.9-0.6-2.4,0.7c-0.4,1.1-1,2.2-1.4,3.3c-0.6,1.7-1.1,3.5-1.7,5.1c-0.4,1.7-0.6,3.3-1.2,4.9
		c-1.9,4.6-2.8,9.7-5.7,14c-1.9,2.9-1.8,6-1.2,9.4c1,5.1,1.4,10.5,1.8,15.8c1,12.5,2.8,24.7,7.8,36.4c2.6,6.2,5.8,12.5,8.7,18.6
		c0.4,0.8,0.7,1.7,1.1,2.5c-1.4,0.6-1.9,0-2.5-1.1c-2.5-5.5-5.3-10.8-7.8-16.4c-3.5-8-6.5-16.2-7.5-25.1c-1-8.3-1.7-16.8-2.4-25.1
		c-0.1-1.5-0.4-2.9-0.6-4.4c-0.4-2.6-0.7-5.1-1.1-7.8c-0.1-0.6-0.3-1.4-0.7-1.7c-2.1-1.2-4.2-2.6-6.4-3.5c-5.3-1.8-10.5-3.6-16-5
		c-3.9-1-7.9-1.2-11.9-1.7c-10.5-1.1-21.1-1.8-31.6-1.8c-1.7,0-3.3,0.7-4.9,0.8c-11.8,1.7-23.3,4.6-34.4,9.2
		c-1.2,0.6-2.4,1.2-3.3,2.1c-2.9,2.5-5.8,4.9-7.8,8.3c-0.3,0.6-0.6,1.4-0.3,1.8c3.9,7.2,5.3,15.4,7.6,23.2
		c1.5,5.1,2.4,10.3,3.6,15.5c0.1,0.7,0.3,1.4,0.4,2.1c0.3,1.8,0.7,3.5-0.4,5.1c-0.4,0.6-0.4,1.4-0.6,2.1c-0.7,7.2-4,13.5-7.2,19.6
		c-0.4,0.8-1,1.7-1.4,2.5c-0.6,1.2-1.2,1.8-2.8,1.2c0.8-1.5,1.7-3.2,2.5-4.7c2.5-4.6,5-9.3,6.4-14.4c1.4-5.5,1.7-11.1,0.7-16.8
		c-1.4-7.4-4-14.4-5.7-21.6c-1.8-7.5-5-14.3-9-20.7c-4.9-7.9-8.9-16.4-10.8-25.5c-0.6-2.5-0.8-5.1-1.4-7.6c-1-4-2.2-7.9-3.3-11.8
		c-0.4-1.4-0.6-2.9-1-4.3c-0.6-1.7-1.1-3.3-1.8-5c-1.2-2.8-2.2-5.8-3.7-8.3c-2.4-3.6-4.3-7.5-6.5-11.2c-4-6-6.7-12.1-9.2-18.3
		c-1-2.5-2.4-4.9-3.5-7.4c0-1,0-1.9,0-3.1c0.7,1.1,1.5,2.1,1.9,3.2c1.8,3.7,3.2,7.6,5,11.2c4.2,8.3,8,16.6,13.3,24.3
		c0.3,0.3,0.4,0.7,0.6,1c1.5,3.5,3.2,6.8,4.4,10.4c1.2,3.5,1.8,7.2,2.8,10.8c0.6,2.4,1.4,4.7,1.9,7.1c1.2,5.3,2.4,10.4,3.7,15.7
		c0.6,2.2,1.7,4.2,2.5,6.2c0.3-1.5,0.3-3.1,0-4.4c-1.7-9,0.1-17.3,5.1-25c2.2-3.3,4.7-6.5,6.7-10c2.6-4.9,4.9-9.9,7.4-14.8
		c2.4-4.6,5-8.9,8.9-12.2c-1.5-2.4-2.8-4.9-4.4-7.1c-3.5-4.6-8-7.9-12.8-11.1c-1.9-1.2-3.7-3.1-4.9-5.1c-1.8-3.1-2.9-6.5-4.6-9.7
		c-3.3-6-6.9-11.7-10.1-17.8c-2.4-4.6-4.3-9.4-6.4-14.3c-1.2-2.9-2.4-6-3.5-9c-1.4-3.9-2.8-7.8-3.9-11.8c-0.8-2.9-1.1-5.8-2.8-8.5
		c-0.3-0.3,0.1-1.1,0.1-1.5c0.4,0.3,1,0.4,1.2,0.7c0.6,0.8,1,1.7,1.4,2.6c0.6,1.4,0.8,2.8,1.2,4.2c0.8,2.9,1.8,3.5,4.7,2.8
		c1.4-0.3,2.6-0.8,3.9-1.2c6.9-2.2,13.9-4.3,20.7-6.9c6.9-2.6,13.6-5.7,20.4-8.6c3.5-1.5,6.4-3.6,9.2-6.1c1.9-1.9,4.6-3.3,7.1-4.4
		c3.6-1.7,7.5-1.9,11.5-1.9c6.1,0.1,12.2-0.7,18.3,0.7c1.9,0.4,2.5-0.4,1.9-2.4c-0.4-1.4-0.8-2.9-1.1-4.3c-0.1-0.4,0.1-0.8,0.3-1.7
		c0.3,0.7,0.6,0.8,0.6,1.1c0.6,1.5,1.1,3.2,1.5,4.7c0.4,1.4,1.2,2.4,2.6,2.8c1.9,0.7,3.9,1.5,6,2.1c0.4,0.1,1.4-0.6,1.5-1
		c0.4-1.4-0.6-2.8-2.1-3.3c-1-0.4-1.9-0.7-2.6-1.4c-1.1-1-2.2-2.1-1.8-4.2c1.2,1.2,1.5,3.3,3.6,3.1c0.3-0.6,0.6-1.1,1-1.9
		c0.4,1.4,0.3,2.6,1,3.2c1.5,1.2,1.9,2.8,2.1,4.6c0.3,2.9,2.2,3.9,4.7,4.7c0.8-2.4-1.9-4.4-0.4-7.1c0.7,2.4,1.4,4.3,1.7,6.2
		c0.4,2.6,0.7,5.1,3.3,6.5c0.6,0.3,0.8,1.1,1.2,1.7c0.4,0.6,1,1,1.4,1.4c0.1-0.1,0.3-0.1,0.4-0.3c-1-3.1-1.8-6.2-2.8-9.3
		c0.1,0,0.3-0.1,0.6-0.1c0.1,0.1,0.4,0.3,0.4,0.4c1.1,3.3,2.2,6.7,3.1,10.1c0.4,1.8,1.7,2.4,3.1,3.1c0.1-0.1,0.4-0.1,0.6-0.3
		c-0.8-2.6-1.8-5.1-2.6-7.8c0.1,0,0.3-0.1,0.6-0.1c0.3,0.4,0.4,0.7,0.7,1.1c1,2.1,1.8,4.2,2.6,6.2c0.7,1.5,1.2,1.7,3.1,0.8
		c-0.6-1.1-1.1-2.4-1.8-3.5c-1.4-2.1-2.8-4.3-4.4-6.2c-1.4-1.8-3.2-3.2-4.7-4.9c-1.1-1.1-2.2-2.4-3.2-3.6c-1.2-1.5-2.4-3.1-3.5-4.6
		c-0.7-0.8-0.8-2.2-1.7-2.8c-2.8-2.2-6.1-3.3-9.6-3.7c-2.2-0.3-4.4-0.1-6.7,0c-3.3,0.3-6.9,0.3-10.1,1.1c-3.3,0.8-6.7,1.7-10,1.8
		c-1,0-2.1,0.6-2.8,0.3c-2.4-1.1-4.6-0.4-6.8-0.1c-6,0.8-12.1,1.9-18,2.5C57.9,8.1,52.3,8,46.8,8.1c-0.8,0-1.5,0-2.4,0.1
		C39.7,8.7,35,9.4,30.2,9.5c-4.3,0.3-8.6,0.1-12.8,0C11.4,9.1,5.7,9.1,0,10.9C0,10.2,0,9.5,0,9z M118.9,189.5
		c-0.3-1.4-0.6-2.8-0.7-4c-0.1-3.7-0.1-7.5,0-11.2c0.3-8,2.6-15.4,8.2-21.5c1.5-1.7,3.1-3.3,4.3-5.1c3.1-4.3,4.2-8.9,2.2-14.2
		c-1-2.6-3.2-4-5-6c-0.3-0.3-1.1,0-1.7,0.1c-2.1,0.8-3.9,2.2-6,2.8c-5.4,1.2-9.7,4.6-14.2,7.6c-0.4,0.3-1.1,0.3-1.7,0.6
		c0.3-0.6,0.3-1.4,0.7-1.7c3.6-2.8,7.2-5.5,11.7-7.1c1.5-0.6,3.2-1.1,4.7-1.7c1.1-0.4,1.4-1.2,0.8-2.5c-0.4-1-1-1.9-1-2.9
		c-0.3-3.9-0.8-7.6-0.6-11.5c0.3-5.1,1.2-10.3,1.8-15.5c0-0.6,0-1.1,0-2.4c-14.4,12.3-29,12.8-43.4,1.7c0,2.6,0,5.5,0,8.3
		c0.1,5.4,0.7,10.8-0.6,16.1c-0.6,2.2-1.5,4.3-2.6,6.4c-1.1,2.1-1,2.6,1.4,3.5c0.6,0.1,1.1,0.4,1.7,0.7c3.6,1.5,7.1,3.1,10.7,4.7
		c2.1,1,4.2,2.4,6.1,3.6c0.4,0.3,0.4,1.1,0.7,1.7c-0.6-0.1-1.1-0.1-1.5-0.4c-2.6-1.2-5.1-2.8-7.8-4c-1.8-0.8-3.6-1.5-5.5-2.4
		c-1.9-0.8-4-1.5-6.1-2.2c-1.2-0.4-2.2-0.1-2.8,1.2c-0.6,1.7-1.4,3.3-1.8,5c-0.3,1.1-0.3,2.5,0.1,3.6c1.7,5,5.1,8.6,9.3,11.4
		c3.1,2.1,5.4,4.7,7.2,7.6c5.4,8.3,8.5,17.3,8.5,27.3c0,1.5,0.6,1.9,2.1,1.9c5.1,0.1,10.3,0.3,15.3,0.4
		C115.2,189.5,117,189.5,118.9,189.5z M130.4,70c-0.1-0.7-0.3-1.4-0.3-1.8c0.1-1.8,0.6-3.6,0.4-5.4c-0.1-4,0-8.2-1-12.2
		c-1.4-6-4.6-11.2-8-16.2c-4-5.8-10.1-8.6-16.6-10.5c-2.2-0.7-4.6-0.8-6.7-1.5c-3.6-1.4-6.8-0.7-9.6,1.5c-2.6,2.1-5.3,4.4-7.5,6.9
		c-3.2,3.6-5.8,7.8-6.5,12.6c-0.6,3.6-0.7,7.2-1,10.7c-0.3,3.3-0.7,6.7-1,10c-0.1,1.2-0.1,2.5-0.3,3.9c-2.8-0.4-4.4,0.8-4.4,3.3
		c0,1.2,0.4,2.6,0.7,3.9c0.4,1.7,1,3.5,1.2,5.1c0.3,1.7,1.1,2.5,2.5,2.2c1.1-0.3,1.7-1.4,1.5-2.9c-0.1-0.6,0-1.1,0-1.7
		c0.3,0,0.4,0,0.7,0c0.3,1.2,0.3,2.5,0.7,3.7c0.8,2.9,1.9,5.8,2.6,8.7c0.4,1.8,1.7,3.2,3.1,4.2c4.6,3.6,9.6,6.2,15.5,6.4
		c0.7,0,1.2,0.3,1.9,0.3c1.8,0,3.5,0.1,5.3,0c4.4-0.4,8.2-2.9,12.1-4.9c4.4-2.2,7.8-5.3,9.3-10.3c0.7-2.4,1.8-4.6,2.8-6.8
		c0.1-0.3,0.7-0.6,1.1-0.7c0.1,0.6,0.4,1.1,0.3,1.5c-1,1.7-0.3,3.2,0.6,4.6c0.3,0.6,1.1,1.1,1.5,1c0.7-0.3,1.5-1,1.7-1.5
		c0.3-1.4,0.1-2.9,0.1-4.4c-1.9-0.3-2.4-0.8-1.9-2.8c0.3-1.1,1.5-2.1,0.3-3.2c0,0,0.3-0.6,0.4-0.8c0.4-0.4,0.8-0.7,1.2-1.1
		c0.8-0.8,1.5-1.9,0.6-2.9c-1-1-1.8,0.1-2.5,0.8C131,69.7,130.8,69.7,130.4,70z M46.1,209.4c0.7-1.1,1.2-2.1,1.9-2.6
		c1.5-1.2,1-2.5,0-3.6c-0.4-0.4-0.8-0.7-1.1-1.2c-1.4-1.9-2.9-4-4.3-6.1c0,0,0.1-0.3,0.3-0.6c2.5,2.9,5,5.8,7.6,9
		c6.8-7.5,16.4-9.2,25.5-11.7c-1.5-1.5-2.9-3.1-4.2-4.6c0.1-0.1,0.3-0.4,0.4-0.6c0.6,0.3,1.2,0.4,1.5,0.8c1,1,1.8,2.2,2.6,3.2
		c0.3,0.3,0.8,0.8,1.1,0.8c1.5-0.1,2.9-0.4,4.4-0.7c1-0.3,1.5-0.8,1.2-1.9c-0.4-2.1-0.7-4.2-1.1-6.1c-0.8-3.7-2.1-7.5-4.9-10.4
		c-1.2-1.2-2.4-2.5-3.5-3.7c0.7,0.1,1.4,0.4,1.8,0.8c5.7,4.7,7.9,11.1,8.9,18.2c0.3,2.4,0.1,2.2,2.5,2.1c1.2-0.1,1.9-0.6,1.8-1.9
		c-0.3-2.9-0.6-5.8-0.7-8.7c0-0.7-0.1-1.2-0.1-1.9c0.1,0,0.4,0,0.6,0c1.7,3.7,1.9,7.9,1.8,12.1c1.1-0.1,1.9-0.4,2.9-0.4
		c1.1,0,1.5-0.4,1.4-1.5c-0.1-1.7,0-3.5-0.1-5.1c-1-7.1-3.1-13.7-6.7-20c-2.2-3.9-5.1-6.9-8.6-9.6c-3.9-3.1-7.5-6.2-9.4-11
		c-0.8-1.9-1.1-3.9-0.6-6c0.7-2.5,1.2-5,1.9-7.5c0-0.3,0.3-0.6,0.4-0.7c2.1-1.1,2.6-3.3,3.9-5.7c-1.4,0.7-2.2,1.1-3.2,1.7
		c-3.2,1.5-6.2,3.2-8.7,5.8c-4.4,4.6-7.1,10.3-10,15.8c-3.1,5.7-5.7,11.7-9.7,16.9c-4.6,6.2-7.4,13.3-6.7,21.2c0.4,5,1.1,10,2.6,15
		C41.2,202.9,43.6,206,46.1,209.4z M68.3,27.7c-2.2,0.4-4.3,0.4-6.1,1.1c-4.7,1.7-9.4,3.3-14.2,5.3c-9.6,3.9-19.3,7.8-29.6,9.6
		c-1.4,0.3-1.8,0.8-1.2,2.1c1.2,3.3,2.2,6.7,3.6,10c2.5,6,4.6,12.1,7.6,17.6c5.3,9.6,11,18.9,15.4,28.9c0.7,1.5,2.1,2.9,3.5,4
		c2.6,1.9,5.5,3.6,8.3,5.3c1.8,1.1,3.6,0.8,4.4-1.1c0.8-1.8,1.8-3.7,1.9-5.5c0.4-6.1-0.4-12.2-1.8-18.2c-1.1-5.1-1.5-10.5-2.2-15.8
		c-0.6-5.1,0.7-10,1.5-15c0.4-2.5,1.5-4.9,1.7-7.2c0.3-4.2,1.5-7.9,3.1-11.7C65.5,34.1,66.7,31,68.3,27.7z M125.3,121.5
		c0.4,0.7,0.6,1.4,1,1.9c1.4,1.4,2.8,2.8,4.2,4.2c2.9,2.9,5.3,6.2,5.1,10.8c-0.1,4.6-1.9,8.2-4.9,11.7c-2.9,3.5-6.7,6.2-7.5,11.1
		c0,0.3-0.3,0.4-0.4,0.7c-0.6,1-1.2,1.9-1.5,3.1c-0.6,2.9-1.2,5.7-1.4,8.6c-0.4,5-0.6,10.1,0.7,15c0.1,0.6,0.4,1.2,0.7,1.4
		c1.9,0.3,3.9,0.4,6,0.6c-0.1-7.9-0.3-15.4,3.3-22.3c0.1,0.6,0.3,1.1,0.1,1.7c-0.6,2.1-1.4,4.2-1.5,6.2c-0.4,4.4-0.6,8.9-0.7,13.2
		c0,1.1,0.6,1.4,1.7,1.5c1.1,0,1.2-0.6,1.4-1.4c0.7-6,1.8-11.9,4-17.5c0.1-0.4,0.6-0.7,0.8-1c0.1,0.4,0.4,1,0.3,1.4
		c-0.6,2.2-1.4,4.4-1.8,6.7c-0.8,3.5-1.4,6.9-2.1,10.4c-0.1,0.8-0.1,1.7,1.1,1.8c1.1,0.1,1.5-0.1,1.8-1.2c1-3.3,2.2-6.5,3.3-9.7
		c0.1-0.3,0.4-0.4,0.7-0.6c0.1,0,0.3,0.1,0.4,0.1c-0.7,3.9-3.3,7.4-3.2,11c4.4,1.2,8.7,2.2,12.8,3.5c4.2,1.2,8.3,2.9,12.8,4.6
		c2.2-2.2,3.9-5.5,5.5-8.7c0,4.2-2.5,7.1-4.9,10.1c1.1,0.7,2.2,1.7,3.1,0.1c1-1.5,1.8-3.3,2.5-5c0.8-1.9,1.4-4,2.1-6.1
		c0.7-2.2,1.4-4.4,1.8-6.7c0.7-5-1.2-9.6-2.8-14.2c-0.8-2.4-1.9-5-3.7-6.8c-3.2-3.3-5.4-7.6-9.4-10.4c-2.5-1.7-4.4-4.2-6.5-6.4
		c-1.9-2.1-3.9-4.4-5.7-6.7c-3.2-4-6.1-8.2-9.3-12.2C132.6,122.7,129.2,122,125.3,121.5z"/>
	<path class="st0" d="M123.9,261c0,2.5-1.1,3.9-3.2,3.9c-1.9,0-3.2-1.4-3.2-3.5c0-1.8,1.7-3.7,3.1-3.7
		C122.6,257.6,123.9,258.8,123.9,261z"/>
	<path class="st0" d="M86,80.1c2.6-1.4,5-3.3,7.5-3.9c2.6-0.4,5.8-1.4,8.5,0.6c2.1,1.5,4.3,2.9,6.2,4.4c0.1,0.1,0.1,1.1-0.1,1.4
		c-2.6,1.9-5.7,3.3-9.3,3.1C93.1,85.4,90.6,84.3,86,80.1z M88,80.1c6.4,0.4,12.6-1,18.9,1.5C102.4,75.7,94.8,74.6,88,80.1z
		 M106.4,82.6c-3.3-1.4-12.6-2.1-17.3-1.2C91.7,85.4,101.8,86.1,106.4,82.6z"/>
	<path class="st0" d="M121.4,58.5c-5.4,1-10.5-0.3-15.7-1c4.7-3.6,9.6-4,14.4,0.1c-1.7-4.6-6.7-5-14.4-1.7c0.6-1.8,3.9-3.3,7.2-3.5
		C117.2,52.2,119.7,54.2,121.4,58.5z M112.2,57.5c-0.3-0.7-0.4-1.2-0.6-1.9c-1.2,0.3-2.4,0.6-3.5,0.8c0,0.3,0.1,0.6,0.1,0.8
		C109.5,57.4,110.7,57.5,112.2,57.5z M115.3,57.8c0.4,0,0.8,0.1,1.2,0.1c0.6,0,1.1,0,1.8-0.1c-0.6-0.4-1-1-1.5-1.4
		c-0.1-0.1-0.6-0.1-0.8-0.3c-0.1,0.3-0.4,0.4-0.4,0.7C115.3,57.1,115.3,57.4,115.3,57.8z"/>
	<path class="st0" d="M92.8,57.5c0-0.3,0-0.4,0-0.6c-4.3,0-8.6,0-13.5,0c3.9-3.6,7.9-4.2,12.5-2.9c-4.4-2.6-8.6-1.7-12.3,1.5
		c-0.1-0.1-0.1-0.3-0.3-0.6c0.8-0.7,1.4-1.7,2.4-1.9c3.3-1.4,6.8-2.5,10.1-0.1c1,0.7,1.7,1.8,2.2,2.8c0.3,0.4-0.3,1.2-0.4,1.8
		C93.2,57.5,93,57.5,92.8,57.5z M86.2,56.3c-0.4-1.7-1.7-1.7-3.2,0.1C83.9,56.3,85,56.3,86.2,56.3z"/>
	<path class="st0" d="M124.3,49.6c-1.4-0.6-2.8-1.1-4.2-1.4c-1.2-0.3-2.6-0.4-3.9-0.1c-1.8,0.3-3.5,1.1-5.3,1.4
		c-1.2,0.3-2.6,0.1-3.9,0c-0.3,0-0.7-0.4-0.7-0.7s0.3-0.7,0.7-0.8c5.5-2.2,11.2-2.8,16.8,0.1c0.4,0.1,0.6,0.7,0.8,1.1
		C124.5,49.3,124.3,49.5,124.3,49.6z"/>
	<path class="st0" d="M75.9,48.1c1-0.4,1.8-1,2.8-1.4c3.3-1.1,6.8-1,10.4-0.8c0.3,0,0.4,0,0.6,0.1c0.6,0.4,1.5,0.8,1.5,1.2
		c-0.3,1.2-1.1,0.3-1.7,0.3c-4-0.1-8.2-1-12.1,0.8c-0.4,0.1-0.8,0.1-1.4,0.1C76,48.4,75.9,48.2,75.9,48.1z"/>
	<path class="st0" d="M72,76.1c-1.9,0.1-1.9-1.1-2.2-1.9c-0.4-1.7-0.7-3.3,1.5-4.7C71.6,71.8,71.9,74,72,76.1z"/>
	<path class="st0" d="M99.8,70.8c0.4,0.3,0.8,0.7,1.2,0.7c1,0,2.4,0.3,2.8-0.3c0.6-0.6,0.7-1.9,0.4-2.9c-0.3-1.5-1.1-3.1-1.7-4.6
		c-0.1-0.3,0-0.4,0.1-1.2c0.4,0.7,0.7,1.1,0.8,1.4c0.6,1.4,1,2.8,1.5,4.2c0.6,1.4,0.1,3.3-1,4.3c-1,0.8-2.9,0.7-4-0.3
		c-0.3-0.3-0.4-0.6-0.7-1C99.6,71,99.6,70.8,99.8,70.8z"/>
	<path class="st0" d="M94.3,62.8c-0.4,1.2-0.8,2.5-1.5,3.6c-1.2,2.2-1.1,4.3,2.5,4.9c0.1,0,0.3,0.1,0.4,0.3
		c-1.5,0.8-4.2-0.4-4.2-2.2c0-0.8,0.1-1.7,0.4-2.5c0.3-0.7,0.8-1.4,1.1-2.2c0.3-0.7,0.6-1.4,0.7-2.1C94.1,62.6,94.2,62.8,94.3,62.8z
		"/>
	<path class="st0" d="M102.8,69.4c-0.8,0.7-1.1,1-1.5,1.4c-0.4-0.6-1-1.1-1.2-1.7c0-0.1,0.8-1,1-0.8C101.4,68.3,102,68.9,102.8,69.4
		z"/>
	<path class="st0" d="M96.8,69.4c-0.6,0.3-1.1,0.7-1.7,0.6c-0.3,0-1-0.7-1-1c0.1-0.4,0.6-1,1.1-1.2c0.1-0.1,0.7,0.4,1,0.7
		C96.6,68.9,96.7,69.2,96.8,69.4z"/>
</g>
</svg>
