<?xml version="1.0" encoding="utf-8"?>
<!-- Generator: Adobe Illustrator 21.1.0, SVG Export Plug-In . SVG Version: 6.00 Build 0)  -->
<svg version="1.1" id="Layer_1" xmlns="http://www.w3.org/2000/svg" xmlns:xlink="http://www.w3.org/1999/xlink" x="0px" y="0px"
	 width="200px" height="189.8px" viewBox="0 0 200 189.8" style="enable-background:new 0 0 200 189.8;" xml:space="preserve">
<style type="text/css">
	.st0{fill:#BBBBBB;}
	.st1{fill:#A0DAEA;}
</style>
<g id="warts-hand">
	<path class="st0" d="M200,177c-6.3-5-12.6-9.8-18.8-15.1c-5.2-4.3-9.8-9.1-14.6-13.8c-5-4.8-10.1-9.5-15.1-14.3
		c-2.8-2.7-5.7-5.7-8.5-8.3c-4.7-4.5-9.5-8.8-14-13.5c-2.7-2.7-4.8-6-7-9c-1.8-2.5-3.3-5-5.5-8c-0.8,1.5-1.3,2.7-2,3.7
		c-0.3,0.5-1.2,0.8-1.7,1.3c0-0.7-0.5-1.7-0.2-2.2c1-1.8,2-3.8,1.5-6c-0.5-1.7-1.2-3.3-1.8-5.2c-1.3-3.8-2.7-7.7-4-11.5
		c-1-3.2-2-6.5-3.2-9.6c-4.8-13.3-9.3-26.6-12-40.6c-0.2-1.2-1.5-2.7-2.8-3.2c-6.8-3.2-13.8-6.3-20.6-9.3c-3.2-1.3-6.3-2.3-9.5-3.8
		C55.5,6.5,50.8,4,46,2c-1.2-0.5-3-0.3-4.3,0.2C33.3,4.3,25.8,8.3,18.2,12c-1.3,0.7-2.5,2-3.7,3.2c-3.2,3.2-6.2,6.3-9.3,9.5
		c-3,3-3.3,6-0.7,8c2.2,1.7,4.5,0.7,7,0.3c-0.3-0.8-0.5-1.5-0.7-2.2c-1.5-3.8-1.3-7.5,1.7-10.5c4-3.8,9.3-6,14.1-2.2
		c1.5,1.2,2.8,2.3,4.2,3.7c0.8,0.8,1.5,0.8,2.5,0.3c2.2-1.2,4.7-2,6.5-3.5c1.7-1.3,2.7-3.3,3.8-5.2c0.3-0.7,0.7-1.3,1-2.3
		c1.5,2.3,0.7,4.2-0.3,5.7c-1.2,1.8-0.5,2.8,1.2,3.7c3.2,1.7,6.3,3.2,9.6,4.7c0.2,0.2,0.5,0.2,0.5,0.3c1.7,2.8,3.5,1.7,5.5,0.3
		c1.2-0.8,2.7-1.2,4-1.7c0.3-0.2,1,0.3,1.5,0.5c-0.3,0.3-0.7,1-1,1.2c-0.7,0.3-1.3,0.5-2,0.8c-3.2,1.8-3.2,1.8-1.3,4.8
		c0.2,0.3,0.5,0.8,0.5,1.2c0,0.5-0.2,1-0.3,1.7c-0.5-0.2-1.2-0.3-1.5-0.7c-1-1-1.7-2.5-2.8-3.3c-2.2-1.7-4.7-2.7-7.7-1.8
		c-2.8,0.8-5.8,1.3-8.8,2c1.3,2.8,11.1,10.5,14.8,11.5c1.2-1.5-0.7-4.5,2.3-5.2c0,1,0,2,0,2.8c0,3.3,1,5,4.2,6
		c0.5,0.2,1.3-0.2,1.5-0.7c1.8-3.7,5.2-6,8.2-8.6c1.5-1.3,3.2-2.3,4.8-3.5c0.5-0.3,1.5-0.3,2.2-0.5c-0.3,0.7-0.7,1.3-1.2,1.8
		c-2.5,1.8-5.2,3.5-7.3,5.5c-2.2,2.2-4,4.7-6,7.2c1,2,2,2.3,3.8,1.2c0.7-0.5,1.5-0.8,2.3-1c0.3-0.2,0.8,0.3,1.3,0.5
		c-0.3,0.3-0.5,0.8-0.8,1.2c-1,0.5-2,1-3.7,2.3c0.8,0.5,1.7,1,2.3,1.7c0.3,0.3,0.2,1.2,0.3,1.7c-0.7-0.2-1.2-0.2-1.7-0.3
		c-0.3-0.2-0.5-0.5-0.8-0.7c-3.3-3.7-7.5-6-11.8-8.5c-5-2.8-9.6-6.3-14.8-9.6c-2.2,3.3-4.7,6.8-8.5,9.1c-0.2-0.2-0.5-0.3-0.7-0.5
		c0.3-0.5,0.7-1.2,1.2-1.7c1.8-2.2,3.8-4.5,5.7-6.7c1.2-1.5,1-2.7-0.7-3.8c-1.3-1-2.8-2-4-3.2c-2.2-1.8-4.2-3.8-6.3-5.8
		c-1-1-2.2-1.8-3.5-2.5c1.3,1.7,2.5,3.3,3.8,4.8c1.2,1.3,1.2,2.8,0,4.2c-1.5,1.7-3,3.5-5,4.7c-1,0.7-3.3,0.7-4.3-0.2
		c-2.3-1.8-4.3-4-6.5-6.2c-0.5-0.5-0.7-1-1.2-1.7c-0.7,1.8,0.3,4.7,1.7,6.5c3,4.2,7.5,6.5,10.8,10.1c5.2,5.8,11.6,9.6,17.8,14.3
		c4.2,3.2,7.3,7.5,10.6,11.6c1.5,1.8,3,2.5,5.2,2.7c0.7,0,1.2-0.2,1.8,0.2c0.3,0.2,0.7,0.7,1,1c-0.3,0.3-0.8,0.7-1.2,0.7
		c-1.5,0.2-3,0-4.3,0c0,0.2-0.2,0.3-0.2,0.5c0.7,1.5,0.8,3.5,2,4.2c1.3,0.8,3.3,0.3,5,0.7c1.5,0.2,2.8,0.5,4.2,0.8
		c0,0.3-0.2,0.8-0.2,1.2c-2.8-0.3-5.7-0.5-9.1-0.8c1,2.7,1.8,5,2.8,7.2c3.2,6.8,8.3,12.1,13.5,17.6c2.8,3,6.5,2.3,10,2.2
		c1.2-0.2,2.5-0.5,3.7-0.7c0.3,0,0.8,0.3,1.2,0.7c-0.2,0.3-0.5,0.8-0.7,1c-2,0.5-4.2,0.8-6.2,1.3c-0.5,0.2-1.2,0.3-1.5,0.7
		c-0.2,0.2,0,1,0.3,1.3c1.2,1.5,2.5,3.2,3.7,4.7c-1.3,1.7-2.5,1.5-3.8,0.2c-3-3.2-6-6.3-9-9.5c-0.7-0.7-1-1.7-1.7-2.3
		c-0.3,0.2-0.5,0.3-0.8,0.7c0.2,0.8,0.3,1.7,0.5,2.5c0.7,3,1.5,6.2,2.3,9.1c1.3,5.5,5,9.3,9.8,11.8c0.3,0.2,0.7,0.3,1,0.5
		c3.8,2.2,3.8,2,7.2-0.7c0.5-0.3,1.3-0.3,2.2-0.3c-0.2,0.7-0.2,1.3-0.5,2c-0.7,1-1.5,1.8-2.5,3c6.3,2.5,10.5,7,14.1,12
		c5.8,8,11.3,16.1,17.1,24c5,6.7,10.5,12.8,15.8,19.3c0.7,0.7,1,1.5,1.7,2.3c-1.2,0-2.3,0-3.5,0c-3.2-4-6.5-8-9.6-12
		c-3.5-4.5-6.8-9.1-10.1-13.8c-4-5.5-7.8-11.1-12.1-16.5c-4.3-5.3-9.3-10-15.8-13.1c-4.7-2.3-8.8-6-12.8-9.5
		c-3.8-3.5-4.3-8.8-5.3-13.6c-0.8-4-1.8-8-3.2-11.8c-0.8-2.2-2.5-4-3.8-6.3c-3.2,3.7-6.3,2.3-9.1,0.5c-2.2-1.3-4-3.2-6.2-4.7
		c-0.7-0.5-1.8-0.8-2.7-0.7c-3.8,0.8-4.7,0.5-7-2.5c-1.5-2.2-3.3-4.2-5.3-6c-3.2-3-5.8-6.7-7.2-10.8c-0.8-2.5-0.7-5.3-0.3-8
		c0.5-4.3,1.5-8.5,1.8-12.8c0.2-1-0.7-2.5-1.5-3.2c-3.3-3-6.7-5.8-10.1-8.5c-0.7-0.5-1.8-0.3-2.7-0.3c-1.2,0-2.5,0.2-3.7,0.3
		c-2.8,0.2-4.7-1.5-5.8-3.8s-1.3-4.7,0.3-6.7c2-2.3,4.3-4.5,6.3-6.7c1.2-1.2,2.5-2.3,3.5-3.7c2.3-3.7,6-5.5,9.8-7.2
		c3-1.3,5.8-3,8.8-4.5c1.3-0.7,2.8-0.8,4.2-1.3c2.8-0.8,5.7-2,8.6-2.7c1.3-0.3,3-0.2,4.3,0.5c5.8,2.7,11.5,5.5,17.3,8.2
		c3.7,1.7,7.5,2.7,11.1,4.2c4.2,1.7,8.3,3.7,12.5,5.5c4.5,2,7.5,4.8,8.5,10.1c2.5,13.5,7,26.4,12.1,39.1c1.7,4.5,2.5,9.1,4.2,13.6
		c1.7,4.7,3.7,9.1,6,13.5c2.2,4.2,5,8,7.8,11.6c2.2,2.8,4.7,5.3,7.3,7.7c10.6,10.1,21.3,20.1,31.9,30.3c5.7,5.3,11,11.1,17,16.1
		c5.5,4.7,11.5,8.8,17.3,13.3C200,174.3,200,175.7,200,177z M41.5,85.7c2-0.7,3.3-1.8,3.3-3.7c0-2.5,0-5-0.8-7.3c-1-3-2.8-5.7-4-8.5
		c-1-2.3-2.5-3.2-4.8-3.7c-0.7-0.2-1.2-0.3-2.2-0.7c2.5-2,4.7-0.7,7.3-0.2c-0.3-1.5-0.2-3.2-0.8-3.8c-3.7-3-7.7-5.7-11.6-8.6
		c-0.3,1-0.5,1.8-0.7,2.8c-0.3,2.3-0.3,4.8-1,7c-2,6.3,0.7,11.1,4.2,16c0.3,0.5,1.5,0.8,2,0.7c4.5-1.5,6.8-0.5,8.2,4
		C40.8,81.3,41,83.3,41.5,85.7z M22.7,32.9c1.7-1.5,3.2-2.8,4.7-4.2c1.2-1,1.3-2.2,0.2-3.5c-2.2-2.3-4.2-4.7-6.3-7
		C21,18,20.4,17.8,20,18c-2.5,0.8-5,1.7-6.5,4.2c-0.3,0.5-0.5,1.3-0.2,1.7c1.8,2.3,3.8,4.7,5.8,6.8C19.9,31.6,21.2,31.9,22.7,32.9z
		 M56.6,83.3c-0.3-1-0.8-1.8-1-2.8c-0.7-2.2-1.7-4-4-4.8c-2.3-0.8-4-2.5-5-4.8c-0.5-1.2-0.5-1.8,0.8-1.8c2.3-0.2,2.7-0.7,1.2-2.5
		c-1.7-2-3.5-3.8-5.3-5.7c-0.3-0.3-0.8-0.7-1.3-1c-0.2,0.5-0.8,1.2-0.7,1.7c0.5,2.3,1,4.7,2,6.8c1.7,3.8,3.8,7.5,3.7,11.8
		c0,1.5-0.2,3.2-0.3,5.5C50,82.2,52.8,79.8,56.6,83.3z M33.5,24c0,0.3,0,0.5-0.2,0.8c2.3,1.3,4.5,3.8,6.8,3.8
		c3.7,0,7.5-1.5,11.1-2.3c-3-2.3-6-4-9-5.7c-0.7-0.3-1.7-0.3-2.3,0C37.8,21.6,35.7,22.8,33.5,24z M58.9,90.2c-1.7-2-3.2-4-4.8-5.7
		c-1.5-1.5-2.7-1-4.5,1c-1.2,1.3-0.8,2.3,0.3,3.3c1.2,0.8,2.7,1.5,3.8,2.5C55.8,92.5,57.4,92.3,58.9,90.2z M38.8,84.5
		c0.7-3.3-0.5-7.2-2.3-7.7c-1-0.3-2.3,0.2-3.5,0.2c0,0.2,0,0.5,0,0.7C34.8,80,36.8,82.2,38.8,84.5z M53.3,74.2
		c0.2-0.2,0.3-0.3,0.5-0.5c-0.5-1.2-1-2.3-1.7-3.7c-1,0.8-1.8,1.3-2.8,2.2C50.8,72.9,52,73.5,53.3,74.2z"/>
	<path class="st1" d="M37.3,33.3c0,1.8-1.7,3.8-3.5,3.8c-1.2,0-4-2-3.5-2.8c0.7-1.5,1.7-3.7,2.8-3.8C36,29.9,37.2,31.1,37.3,33.3z"
		/>
	<path class="st1" d="M30.7,12.5c-1.5,0-2.7-0.2-2.7-2s1.7-2.5,3-2.7c2.7-0.2,4,0.7,4,2.3C35,11.5,33,12.5,30.7,12.5z"/>
</g>
</svg>
