<?xml version="1.0" encoding="utf-8"?>
<!-- Generator: Adobe Illustrator 21.1.0, SVG Export Plug-In . SVG Version: 6.00 Build 0)  -->
<svg version="1.1" id="Layer_1" xmlns="http://www.w3.org/2000/svg" xmlns:xlink="http://www.w3.org/1999/xlink" x="0px" y="0px"
	 width="250px" height="203.7px" viewBox="0 0 250 203.7" style="enable-background:new 0 0 250 203.7;" xml:space="preserve">
<style type="text/css">
	.st0{fill:#BBBBBB;}
</style>
<g id="swimear-lady-main">
	<g>
		<path class="st0" d="M192.9,91.5L192.9,91.5L192.9,91.5L192.9,91.5z"/>
		<path class="st0" d="M243.2,183.3c-2-3-6-4.3-8.5-7.3c-4.3-5.2-10-7-16-8.7c-7.5-2-15-4.7-22.4-7.3c-8.2-3-16.4-6.5-24.7-10
			c0.8-1.3,1-1.7,1-2.2c4.2-8.5,11.5-14.4,17.5-21.5c2.7-3.2,5.7-6.5,6.8-10.2c1.8-6,2.3-12.7,3.5-19.2c0.2-1.5,0.8-3.5,2-4.3
			c4.3-2.7,6.3-6.8,7.3-11.7c0.8-4.2,1-8.8,2.7-12.5c4.2-9.5,3.2-19-1-27.9c-2.7-6-6.8-11.3-10.2-16.9c-4.3-7-9.8-12.7-18-15
			c-2-0.7-4-1.8-5.8-3c-6.7-3.2-13.4-6.5-21-5.3c-8.2,1.3-16.7,2.3-24.2,5.3c-11.5,4.7-19.9,13.4-23.4,25.4
			c-3.3,11-5.7,22.5-11.7,32.5c-1,1.7-1.3,3.7-1.5,5.7c-0.3,7.2,0.8,13.7,4.7,20c1,1.7,1.3,4.2,0.8,5.8
			c-3.5,12.5-7.3,24.9-13.4,36.5c-1.5,2.7-2.5,6-2.3,9c0.3,7.5-3.3,11.5-9.7,14.2c-0.3,0.2-1,0.7-1.5,0.8c-13.7,8-28.4,14-43.6,18.7
			c-6,1.8-12.3,3.7-18.2,6.7C5,184.7,0.8,191.2,0,199.7c0,1,0.7,2.2,1.3,3.2c0.3,0,0.8-0.2,1.3-0.2c0.2-1.7,0.3-3.5,0.8-5.2
			c0.3-2,1-4,2-5.8c3.7-6.8,10-10.3,17.4-12.3c19-5,37-12,54.1-22c2.7-1.7,5.3-3.3,8.3-5c2.7,8.2,2.5,16,2.3,24.2
			c0,3.3-1.7,4.2-4.3,3.5c-3.2-0.8-6-1.7-9-2.7c-2-0.8-4.3-1.5-6.5-2.3c-0.2,0.3-0.2,0.8-0.3,1.3c6.3,2,12.7,4.2,19.4,6.3
			c0.2,6-2.3,12.3-1.5,18.7c0.7-0.2,1-0.3,1-0.8c0.2-1.3,0.7-2.5,0.8-3.7c1.8-15,3.5-30.2,0.3-45.4c-0.8-4.3-0.7-9.3,0.3-13.7
			c1-4.8,3.7-9.2,5.3-13.7c3.2-9,6.3-18.2,9.3-27c0.8-1.8,1-5.3,4-4.7c1.2,0.3,2.5,4,2.3,6c-0.3,5.3-1.7,10.7-2.5,16
			c-0.8,6.3-1.7,12.3-2.2,18.5c-0.3,4,0.7,4.3,4.3,3.2c3.7-1.2,7.3-2.3,11-3.2c2.5-0.3,4.7,1.8,4.8,4.8c0.2,3.2-2,2-3.7,2.3
			c-3.3,0.3-6.7,0.8-10,1.3c0.2,0.3,0.2,0.8,0.2,1.3c1.3,0,2.5-0.2,3.7-0.2c5.3,0,10.7-0.2,15.9,0.3c3.3,0.2,5.7,3.5,5.8,7
			c0,2.7,0,5.2-0.3,7.7c-0.8,5.2-4.2,9.2-9,10c0.7-3.7,1.5-7.3,2-10.8c2,0.5,3.3,0.7,4.7,0.8c0-0.2,0.2-0.7,0.2-0.8
			c-1.3-0.3-2.3-1-3.7-1.8c1.3-1,2.3-1.8,3.3-2.7c-3.5-1.5-6.5,0.8-6.7,4.8c-0.3,6-0.3,12-1,18.2c-0.7,7.7-3.3,14.9-6.8,21.7
			c-0.7,1-1,2.3-1.5,3.3c0.2,0,0.7,0.2,1,0.3c1-2,2.7-4.2,3.3-6.5c1.7-5.7,3.2-11.3,4.3-17c0.8-4.2,0.8-8.3,5.8-10.2
			c1-0.3,1.7-1.8,2.5-3c3-4,3-8.3,3-13c0-5-2.7-8.5-7.5-9.8c-2.7-0.8-4.7-1.5-4.7-5c0-2.5-2-4.7-5.2-4.8c-0.7,0-1.5-0.2-1.3-0.2
			c-1.3-3.7-2-6.8-3.5-9.7c-0.3-0.8-2.3-1.7-3.5-1.7c-0.8,0-2.3,1.5-2.5,2.5c-0.3,3.2-0.2,6.5-0.7,9.8c-0.2,0.8-1,1.7-1.7,2.5
			c-0.3-0.7-1.5-1.5-1.5-2c1.3-9.3,2.5-18.7,3.7-28.2h1c1,2,2.3,4.2,3.3,6c5.8,10.2,12.7,19.9,20.7,28.5c6.7,7.3,13.7,14,24.2,15.7
			c0.7,0.2,1.8,1.7,1.8,2.5c0,3.2-0.3,6.5-0.7,9.7c0.2,0,0.7,0.2,0.8,0.2c0.3-1.5,1-3.2,1.3-4.8c0.3-1.7,0.2-3.5,0.2-5.2
			c0.2-3.7,5.3-6.5,8.5-4.8c5.3,3,10.3,6,16,8.2c9.7,3.5,19.2,6.7,29,9.2c8.5,2.3,15.2,7,21.7,12.3c5.7,4.3,6.8,11.5,9.3,17.7
			c0.7,1.5,1.5,2.7,2.3,4.2l1.3-0.7C249.7,195.5,247,189.2,243.2,183.3z M111.1,122.1c1.3-2,2.7-1.8,3.5-0.2c1.3,2.5,2.3,5.3,2,8.2
			c0,1.3-3.2,2.3-5.2,4C109.8,129.2,109,125.9,111.1,122.1z M199.6,92.7c-2.5-0.5-4.7-0.8-6.7-1.2c0.2,0.2,0.7,0.7,0.8,1
			c-0.2,1.7-0.3,3.2-0.8,5c-2.3-0.2-4.7-0.7-4.3-3.2c0-1.2,2.8-1.8,4.3-2.8c-1.2-0.2-2.3-0.3-3.5-0.7c0.3-4.3,2.5-6,6.7-5.3
			c1.8,0.3,4-0.2,6-0.5c1.3,0,2.5,0.2,3.7,0.2c0.2,0.3,0.3,0.7,0.7,1C203.9,88.5,201.3,91,199.6,92.7z M106.1,56.1
			c1.7-0.5,3-0.2,3.8,0.7c0.3,0.5,0.8,1,1.2,1.5l0,0c0.3,0.5,0.5,1.2,0.8,1.7c0.8,2.2,1.5,4.3,2.3,6.5C110.3,61,106,58,100,64
			C99.6,60.8,103,57,106.1,56.1z M108.1,89.9c-3.8-1-7-2.3-8-6c-1.3-4.8-2-9.8-1.7-14.9c0-2.3,3-4.8,5.2-6.2c3-2.2,5.7,0,7.7,4.8
			c0,0,0.2,0,0.2,0.2c-3.8,1.2-7.5,5.2-7.7,8.8c-0.2,3.2,1.8,5.8,6.7,7.3c2.7,0.8,2.5,2.5,1.8,4.3C111.8,90,110.5,90.4,108.1,89.9z
			 M149.2,149.1c-12.3-8.3-21-20.2-29.2-32.4c-2.5-3.7-5-7.5-6.8-11.7c-1.2-3.2-1.8-6.8-2.3-10.3c-0.2-1,0.8-2.5,1.7-3.3
			c3.2-3.5,2.5-6.8-1.8-8.7c-6-2.5-6.8-6.7-2.2-11.5c1.2-1.2,2.2-2.2,3.2-3.3c8.8,5.8,9,5.8,17.5-1.5c4.2-3.5,8.5-7.3,13.2-10.7
			c2.3-1.7,5.2-2.5,8-3.3c0.8-0.2,1.7-0.5,2.5-0.7c0.3,0,0.8,0,1.3-0.2c0.3-0.2,0.7-0.3,1-0.5c4.3-1.2,8.7-2.3,12.9-3.2
			c0.3-0.2,0.7-0.2,1.2-0.2c0.5,0.2,1,0.2,1.7-0.2c0.2,0,0.2-0.2,0.3-0.2c4.3-0.8,8.8-1.5,13.2-2.2c0.5-0.2,1,0,1.7,0
			c0.2,0.3,0.5,0.7,0.8,1c2.8,1.5,5.5,1.2,8.3,0.8c2.2,0.5,4.5,0.8,6.7,1.3c1.8,0.3,4.2,1,5.3,2.3c5,4.8,6.7,10.3,3.7,17.4
			c-1.7,4.2-2,9-3.3,13.7c-7.3-1.3-14.7-0.3-18.4,6.7c-3.2,5.8-4.3,12.7-1,19.2c-0.3-3.2-0.7-6.5-1-9.8c4.2,0.7,7.5,1.3,11.3,1.8
			c0.2,0.8,0.7,2.3,0.3,3.5c-1.3,8.3-4,16-9.8,22.5c-6,6.8-12,14-18,21C165.6,152.9,156.5,154.1,149.2,149.1z"/>
	</g>
	<path class="st0" d="M142.5,175.8c2.7,0,5.3-0.2,8,0c7.7,1,14.7-0.8,21.5-4c2.3-1,5-1,7.5-0.8c-6,2-11.8,5-18.2,6
		c-6,1-12.5,0.2-18.7,0.2C142.5,176.8,142.5,176.3,142.5,175.8z"/>
	<path class="st0" d="M168.9,82.5c-1.8-1-3.7-1.8-5.3-3c3-0.8,7.5,1.8,8,4.7c0.3,2-0.7,3.3-2.5,4c-3.8,1.7-9.3,0.3-12.5-2.7
		c-1.7-1.7-3.2-3.5-4.8-5.3c1.7-2,3.3-1.5,5.2-0.7c1,0.3,1.8,1.3,3.2,1.7c3,0.8,5.7,1.5,8.5,2.3C168.7,83.2,168.9,82.7,168.9,82.5z"
		/>
	<path class="st0" d="M174.9,135.1c-3.5,3.8-7.3,4-10.7,0.2c-3.3-3.7-6.7-7.5-10-11.3c0.2-0.2,0.2-0.7,0.3-0.8c2.3,0,4.8-0.2,7,0
		c4.3,0.3,9.2,0.3,13.2,1.8c5.2,1.8,5.2,5,1.3,8.5C175.7,134.1,175.4,134.6,174.9,135.1c0.3-2.7-1.3-4-3.5-4.3
		c-3.5-0.8-7.3-1.5-11.7-2.3c1.8,2.3,3.2,4,4.3,5.3c3,3.3,5,3.5,9.2,1.7C173.9,135.1,174.6,135.1,174.9,135.1z M177.4,130.7
		c1.3-2.3-0.3-4-2.7-4.7c-5.7-1.7-11.5-2.3-17.4-1.2c0,0.3-0.2,0.8-0.2,1C163.9,127.6,170.6,129.1,177.4,130.7z"/>
	<path class="st0" d="M153.9,70c1.5-0.8,2.7-1.8,4.2-2.3c4.7-0.8,8.7,0.8,12.7,3c2.5,1.5,5.2,3.2,7.5,4.8c0.7,0.3,0.8,1.7,1,2.5
		c-1,0.2-1.8,0.7-3,0.2c-1-0.2-1.8-0.8-2.5-1.7c-3.5-3.7-8-5.7-12.7-6c-2.3-0.2-4.7,0.2-6.8,0.3C154,70.7,154,70.3,153.9,70z"/>
	<path class="st0" d="M188.3,107c0,3,0.8,6.3,0,9c-0.7,3.2-4.7,4-6.5,1.5c-2.5-3.3-5.7-3-8.7-3.3c-1.7-0.2-4-1.5-4.7-2.7
		c-0.7-1.7,0.3-3.7,0.8-5.8c0.3,0.2,0.8,0.2,1.3,0.3c-0.2,0.3-0.7,0.8-0.8,1.5c-0.2,1.5-0.7,3.5,0,4.3c0.7,1,3.2,1.7,4.2,1.3
		c3.5-1.5,5.8-0.7,7.7,3c0.7,1,2.7,1.8,3.7,1.5c1.3-0.3,2.5-2,2.7-3.5C188.6,111.7,188.3,109.4,188.3,107L188.3,107z"/>
</g>
</svg>
