<?xml version="1.0" encoding="utf-8"?>
<!-- Generator: Adobe Illustrator 21.1.0, SVG Export Plug-In . SVG Version: 6.00 Build 0)  -->
<svg version="1.1" id="Layer_1" xmlns="http://www.w3.org/2000/svg" xmlns:xlink="http://www.w3.org/1999/xlink" x="0px" y="0px"
	 width="300px" height="291.1px" viewBox="0 0 300 291.1" enable-background="new 0 0 300 291.1" xml:space="preserve">
<g>
	<path fill="#BBBBBB" d="M30.4,0c1,5.3,2.1,10.5,3.1,15.8c0.3,1.4,0.3,2.8,0.5,4.1c0.8,7.8,1.6,15.6,2.4,23.4
		c0.8,8.2,1.6,16.4,2.4,24.6c0.6,6.3,1.1,12.7,2,18.9c1.3,8.9,1.6,17.8,1.6,26.8c0,1.2,0.3,2.4,0.4,3.5c0.7,7.8-0.9,15.3-3,22.8
		c-2.8,10-5.3,20.1-8,30.2c-2,7.5-3.9,14.9-5.9,22.4c-1.7,6.6-3.5,13.1-5.1,19.7c-1.8,7.1-3.5,14.3-5.3,21.4
		c-1.7,6.7-3.5,13.4-5.2,20.2c-1.8,7-3.6,14-5,21c-0.9,4.1-1.2,8.3-1.7,12.6c-1.2,0-2.2,0-3.6,0c0.1-2,0.1-4,0.5-6
		c1.1-6.3,2.2-12.6,3.6-18.8c1.2-5.2,3-10.2,4.3-15.3c1.6-6.1,2.8-12.3,4.4-18.3c1.8-6.9,3.9-13.7,5.7-20.6c1-3.8,1.5-7.7,2.3-11.5
		c0.7-3.3,1.7-6.5,2.5-9.7c3.4-12.6,6.9-25.2,10.2-37.9c1.9-7.3,3.8-14.6,5.2-22c0.7-3.3,0.2-6.9,0.2-10.3c0-1.3-0.2-2.5-0.3-3.8
		c-0.2-5.5-0.1-10.9-0.5-16.4c-0.3-4.4-1-8.8-1.5-13.2c-0.3-3.3-0.5-6.6-0.9-9.9c-0.6-5.2-1.2-10.5-1.9-15.7
		c-0.1-1.2-0.4-2.3-0.5-3.5c-0.3-3.6-0.5-7.3-0.8-10.9c-0.5-4.9-1-9.7-1.5-14.6c-0.2-2.1-0.3-4.2-0.6-6.3C29.9,17,29.1,11,28.3,4.9
		C28,3.3,27.8,1.7,27.6,0C28.5,0,29.5,0,30.4,0z"/>
	<path fill="#BBBBBB" d="M159.7,0c1.1,6.2,1.8,12.4,1.7,18.8c-0.1,4.3-0.2,8.5-0.4,12.8c0,0.7-0.9,1.7-1.5,1.8
		c-1.1,0.1-1.4-0.8-1.4-1.9c0.2-5,0.4-10.1,0.4-15.2c-0.1-4.6-0.6-9.3-0.8-13.9c0-0.8,0.1-1.6,0.1-2.3C158.3,0,159,0,159.7,0z"/>
	<path fill="#BBBBBB" d="M300,286.9c-0.4-4.4-0.5-8.7-1.1-12.9c-0.6-4.6-1.3-9.2-2.4-13.7c-1.1-4.2-2.9-8.2-4.3-12.4
		c-1.6-4.7-3-9.5-4.4-14.2c-0.6-1.9-1.6-3.8-1.9-5.7c-1.2-7.3-2.1-14.7-3.3-22c-0.8-5.3-1.7-10.6-2.8-15.9c-0.5-2.5-2.1-5-2.2-7.5
		s-1-4.5-1.8-6.6c-2.5-6.1-4.2-12.4-5.5-18.8c-0.7-3.1-1.3-6.3-2-9.4c-0.8-3.9-1.4-7.8-2.5-11.7c-0.8-3-2.1-5.6-1.3-9
		c1.1-4.9,0.9-10.1,1.4-15.1c0.4-3.6,1-7.1,1.5-10.7c0.5-3.7,0.9-7.4,1.3-11.2c0.4-3.1,0.7-6.1,1.1-9.2c0.6-4.3,1.7-8.5,2-12.8
		c0.5-7.1,0.6-14.2,0.9-21.3c0.2-5,0.1-10,0.5-14.9c0.3-5,1-10,1.5-14.9c0.3-2.5,0.5-5,0.8-7.4c0.3-2.5,0.6-5,0.8-7.5
		c0-0.5-0.9-1.1-1.3-1.6c-0.5,0.5-1.2,0.9-1.3,1.4c-0.5,2.4-0.9,4.8-1.2,7.2c-0.5,3.8-0.9,7.6-1.3,11.4c-0.7,6.3-1.6,12.6-1.9,18.9
		c-0.4,7.8-0.3,15.7-0.5,23.5c-0.1,2.3-0.3,4.6-0.7,6.9c-0.5,3.4-1.2,6.8-1.7,10.3c-0.6,4.5-1,9-1.6,13.5c-1,8.3-2.1,16.6-3.2,24.9
		c-0.3,2.6-0.5,3.6-1.6,3.9c-0.1,1.2-0.2,2.5-0.3,3.7c0.4,0,0.8,0,1.2,0c0.2,1.8,0.1,3.9,0.6,6c0.7,3.1,1.9,6.1,2.6,9.3
		c0.9,4.2,1.3,8.4,2,12.7c0.3,2,0.8,4.1,1.1,6.1c0,0.3-0.4,0.6-0.4,0.6c0.8,2.4,1.7,4.6,2.4,6.9c0.9,2.6,1.7,5.2,2.4,7.9
		c0.5,1.9,0.6,3.8,0.8,5.7c0.1,0,0.4-0.2,0.9-0.4c1.9,7.6,5,14.8,5,22.6c-0.2,0-0.3,0-0.5,0c0.4,1.2,0.6,2.4,0.7,3.8
		c0.3,0,0.5,0,0.8,0c0.3,2,0.5,4.1,0.8,6.2c0.5,3.8,0.7,7.6,1.5,11.4c1.1,5.2,2.6,10.3,4.1,15.4c1.2,3.9,2.5,7.8,4.1,11.5
		c4.5,10.1,6.1,20.7,6.2,31.7c0,1.2,0,2.3,0,3.5C297.2,286.9,298.4,286.9,300,286.9z"/>
	<path fill="#BBBBBB" d="M276.5,203.4c0.5,1.3,0.9,2.5,1.2,3.8c0.2,0,0.3,0,0.5,0c0-1.4-0.3-2.6-0.7-3.8
		C277.2,203.4,276.9,203.4,276.5,203.4z"/>
	<path fill="#F8BBD0" d="M201.7,207.2c25.5,0,50.7,0,76,0c-0.3-1.3-0.7-2.5-1.2-3.8c-24.9,0-49.8,0-74.9,0c0-25.9,0-51.4,0-77.3
		c19.2,0,38.4,0,57.8,0c0.1-1.2,0.3-2.5,0.3-3.7c-0.7,0.2-1.7,0.2-3.4,0.2c-17.4,0-34.8,0-52.2,0c-0.8,0-1.6,0-2.4,0
		c-0.1-0.7-0.2-1.1-0.2-1.6c0-11.1,0.1-22.2,0.1-33.4c0-14.6-0.2-29.2-0.3-43.8c0-1.2-0.1-2.4-0.3-3.6c-0.2-0.7-0.8-1.2-1.3-1.8
		c-0.4,0.7-1,1.3-1.1,2.1c-0.2,2.2-0.2,4.4-0.2,6.6c-0.2,8.8-0.4,17.6-0.5,26.4c0,4,0.2,8,0.2,11.9c0,11.6-0.1,23.2,0,34.8
		c0,2.1-0.6,2.4-2.4,2.4c-13.9,0-27.7,0.2-41.6,0.2c-12.9,0.1-25.9,0-38.8,0.2c-1.9,0-2.3-0.6-2.3-2.4c0.1-8.9,0.1-17.7,0-26.6
		c0-17.6-0.1-35.2-0.2-52.8c0-0.8-0.8-1.5-1.3-2.3c-0.5,0.8-1,1.5-1.4,2.3c-0.1,0.3,0,0.7,0,1c0,26.1,0,52.1,0,78.2
		c0,2.6,0,2.6-2.5,2.6c-19.3,0-38.5,0-57.8,0c-0.6,0-1.3-0.1-1.8,0.1s-0.9,0.8-1.4,1.2c0.4,0.4,0.8,1,1.3,1.2
		c0.6,0.3,1.4,0.3,2.1,0.3c19.2,0,38.4,0,57.6,0c1.8,0,2.5,0.4,2.5,2.3c-0.1,23.3-0.1,46.7-0.1,70c0,2,0,4,0,6.1c-1.4,0-2.2,0-3,0
		c-19.5,0-38.9,0-58.4,0c-0.5,0-1-0.2-1.4,0c-0.6,0.3-1.1,0.8-1.6,1.3c0.5,0.4,1,1,1.5,1.1c2.5,0.2,5.1,0.3,7.6,0.3
		c17.5,0.1,35.1,0.1,52.6,0.1c0.7,0,1.4,0,2.3,0c0.1,0.8,0.2,1.4,0.2,2.1c-0.1,8.5-0.1,16.9-0.2,25.4c-0.1,6.5-0.4,13-0.4,19.4
		c0.1,6.6,0.6,13.2,0.8,19.8c0.1,1.7,0.3,2.9,2.7,3.2c0.9-23.2,0.3-46.5,0.5-69.6c28.3,0,56.3,0,84.5,0c0,3.8,0,7.1,0,10.5
		c0,12.1,0,24.2,0,36.3c0,2,0.1,4,0.2,5.9c0.1,3.4,0.4,6.8,0.4,10.2c0,3.4-0.2,6.8-0.4,10.2c-0.1,1.3,0.6,2.2,1.8,2.1
		c0.5-0.1,1.4-1.2,1.4-1.9c0.2-5.4,0.4-10.8,0.4-16.2c0-17.9,0-35.7,0-53.6C201.7,209.6,201.7,208.5,201.7,207.2z M198,200.8
		c0,2.7-0.1,2.7-2.9,2.8c-8.7,0.2-17.5,0.4-26.2,0.5c-17.7,0.1-35.5,0.1-53.2,0.1c-0.8,0-1.6,0-2.6,0c0-26.2,0-52.2,0-78.4
		c8.3,0,16.3,0,24.3,0c14.3,0,28.7,0,43,0.1c5.4,0,10.8,0.2,16.2,0.4c0.5,0,1.4,0.8,1.4,1.3c0.1,17,0.1,34,0.1,51
		C198.1,185.9,198.1,193.4,198,200.8z"/>
	<path fill="#BBBBBB" d="M104.9,278.8c-2.6-4.9-5.3-9.8-7.8-14.7c-0.2-0.4-0.4-0.8-0.6-1.3c-0.6,1-1.4,1.9-2.4,2.6
		c1,2.1,2,4.2,3,6.3c2.2,4.7,4.6,9.3,6.6,14c1.2,2.9,1.8,3.4,4.6,1.7c0.2-0.1,0.4-0.2,0.6-0.3C107.5,284.3,106.3,281.5,104.9,278.8z
		"/>
	<path fill="#BBBBBB" d="M222.8,264.9c-1.5,3.4-3.1,6.8-4.6,10.1c-1.8,3.9-3.7,7.8-5.5,11.6c0.2,0.2,0.4,0.5,0.5,0.7
		c1-0.5,2.5-0.7,2.9-1.5c2.3-4.5,4.4-9.2,6.5-13.8c0.6-1.4,1.3-2.9,1.9-4.3C223.7,266.9,223.1,266,222.8,264.9z"/>
</g>
<text transform="matrix(1 0 0 1 58.2646 14.8203)" font-family="'BradleyHandITCTT-Bold'" font-size="19.2097px">RIGHT</text>
<text transform="matrix(1 0 0 1 200.7602 14.8203)" font-family="'BradleyHandITCTT-Bold'" font-size="19.2097px">LEFT</text>
<polygon fill="#FFF176" points="81.8,219.9 94.1,195.2 100.1,222.1 126.3,213.4 111.5,236.7 136.2,249 109.3,255 118,281.2 
	94.7,266.4 82.4,291.1 76.4,264.2 50.2,272.9 65,249.6 40.3,237.3 67.2,231.3 58.5,205.1 "/>
<ellipse fill="#BBBBBB" cx="158.4" cy="160.7" rx="6.7" ry="7.2"/>
</svg>
