<?xml version="1.0" encoding="utf-8"?>
<!-- Generator: Adobe Illustrator 21.1.0, SVG Export Plug-In . SVG Version: 6.00 Build 0)  -->
<svg version="1.1" id="Layer_1" xmlns="http://www.w3.org/2000/svg" xmlns:xlink="http://www.w3.org/1999/xlink" x="0px" y="0px"
	 viewBox="0 0 299.9 316.5" style="enable-background:new 0 0 299.9 316.5;" xml:space="preserve">
<style type="text/css">
	.st0{fill:#CCCCCC;}
	.st1{fill:#2196F3;}
</style>
<g id="about-compare">
	<g>
		<path class="st0" d="M101.8,182.8c-1.6,0.3-2.8,0.6-3.9,0.8c-7.5,2.1-14.7,4.5-22.2,6.6c-5.7,1.5-11.1,3-16.5,4.5
			c-8.1,2.1-15.9,4.5-24,6.9c-8.7,2.7-17.7,5.4-26.4,8.1c-3,0.9-5.7,0.9-8.7,1.5c0,1.5,0,2.7,0,4.2c11.5-3.6,22.9-7.2,34.6-10.8
			c9.3-2.7,18.9-5.4,28.5-8.1c1.2-0.6,2.4-0.9,3.6-0.9c6.6-0.6,12.3-3.6,18.3-5.4s12.3-3,18.6-4.2c0.1,0,0.2,0,0.2,0
			C103.4,184.8,102.8,183.7,101.8,182.8z"/>
		<path class="st0" d="M152.8,179.9c0-3.3-0.3-6.3-0.3-9.3c0-5.7-0.3-11.1-0.3-16.8c0-8.1,0.6-16.2,0.6-24.3
			c0-7.2-0.3-14.7-0.3-21.9c0-13.6-0.3-26.8-0.3-40.3c0-5.1,0.3-9.9,0.3-15c0-13.9-0.3-28-0.3-41.8c0-3.6,0-6.9,0-10.5
			c-0.9,0-2.1,0-3,0c2.1,10.9,0.6,22,0.9,33.1c0.3,13.3,0,26.2,0,39.4c0,16.8,0,34,0,51.1c0,8.4,0,16.5,0,24.9
			c0,9.9-0.3,19.8-0.3,29.7c0,0.5-0.2,1.2-0.4,2.2c1.1,0.5,2.3,1,3.4,1.5C152.8,181.2,152.8,180.5,152.8,179.9z"/>
		<path class="st0" d="M119.1,150.1c-0.3-3.6-0.6-6.9-0.9-10.5c-0.3-2.4-1.2-4.5-1.5-6.9c-0.9-6.3-1.8-12.9-2.7-19.2
			c-0.3-1.8,0.3-2.1,2.1-2.4c7.2-0.9,14.4-1.8,21.9-2.7c0,4.8,0,9.6,0.3,14.7c0,8.7,0,17.4,0,26.1c0,1.8-0.6,2.4-2.4,2.7
			c-3.3,0.3-6.6,1.2-9.9,1.8c-1.7,0.6-3.4,1.1-5.4,1.4c0.8,0.9,1.7,1.8,2.7,2.6c4.9-1.1,9.6-2.2,14.3-3.3c0,6.1,0,11.6,0,17.4
			c1.1,1.3,2.3,2.5,3.6,3.6c-0.6-5.2-1.1-10.6-1.1-15.8c0-20.4,0-41.2,0-61.6c0-7.5,0.3-14.7,0.3-22.2c0-11.5-0.3-22.6-0.3-34
			c-0.3-13-0.3-25.6-0.3-38.5c0-1.2-0.3-2.1-0.3-3.3c-0.3,0-0.9,0-1.2,0c0,0.6-0.3,1.5-0.9,3.3c0,12.4,0,24.7,0,37
			c0,11.8,0.3,23.2,0.3,34.9c0,9.9-0.3,20.1-0.6,30.3c0,0.6,0,1.2,0,1.5c-4.2,0.6-8.1,1.2-12.3,1.8c-3.9,0.3-7.8,0.9-11.7,0.9
			c-1.8-0.3-2.1,0.3-2.1,1.8c0.6,5.7,0.9,11.4,1.8,17.1c1.1,6.5,2.5,13.4,2.9,20.2c0.9,1.5,1.9,2.9,3,4.3
			C118.9,152,119.1,151.2,119.1,150.1z"/>
		<path class="st0" d="M153.4,233.6c0,4.2,0,8.4,0,12.6c0,1.5-0.6,3-0.6,4.5s0.3,3,0.3,4.5c0,12.7,0,25.3,0,37.9
			c0.3,7.8,0.3,15.6,0.3,23.4c0.6,0,1.5,0,2.4,0c-0.3-5.4-0.3-10.5-0.3-15.9c-0.3-15.4-0.3-30.7-0.3-46c0-7.2,0-14.1,0-21.3
			c0-0.4,0.1-0.7,0.2-1.1c-0.7-0.6-1.6-1.1-2.4-1.5C153.2,231.6,153.4,232.6,153.4,233.6z"/>
		<path class="st0" d="M135,217.8c0.2-0.2,0.4-0.5,0.5-0.6c-0.6-0.3-1.2-0.9-1.8-0.9c-0.1,0-0.1,0-0.2,0
			C134,216.8,134.5,217.3,135,217.8z"/>
		<path class="st0" d="M138.5,222.9c0,3.3,0.3,6.6,0.6,9.9c0.3,2.1-0.3,3-2.4,3.6c-4.2,0.9-7.8,2.4-12,3.6c0-0.3-0.6-0.9-0.6-1.2
			c-1.2-5.1-2.7-9.9-2.4-15.3c0.3-0.6,0.6-1.2,1.2-1.5c3.9-1.2,7.5-2.4,11.4-3.6c0.3-0.1,0.5-0.4,0.7-0.6c-0.5-0.5-1-1-1.5-1.5
			c-2.3,0.3-4.4,1.2-6.7,1.8c-5.7,1.8-11.4,3.6-17.1,5.4c-2.7,0.9-5.1,1.8-7.8,2.4c-1.2,0.3-1.8-0.3-2.1-1.5c-0.3-1.5-0.6-3-0.9-4.5
			c-0.6-3-3-4.8-6-3.6c-4.5,1.8-9,3.6-14.1,4.2c-1.5,0-2.7,1.2-4.5,1.8c-0.3-0.9-0.3-1.8-0.3-2.4c0-4.5,0.3-9.3,0.6-13.8
			c0.3-2.1-0.3-2.4-2.4-1.8c-6.9,1.8-13.8,3.6-20.7,5.4c-2.7,0.6-5.4,1.8-8.4,0.9c-0.3,0-1.2,1.2-1.2,1.8c0,3.3,0.3,6.6,0.6,9.9
			c0,0.3,0,0.6,0,0.9c0.3,4.2,0.3,3.9-3.6,5.1c-5.4,1.8-10.5,3.6-15.9,5.1c-1.5,0.6-3.3,0.9-4.8,0.9c-1.8,0-2.1,0.6-1.8,2.1
			c0,9.6,0,19.2,0,28.8c0,3.3,0,6.6,0,9.9c0,1.5-0.3,2.4-1.8,2.7c-4.8,1.5-9.3,3-14.1,4.5c0,0.9,0,2.1,0,3c3.9-1.2,7.8-2.4,11.7-3.6
			c6.9-2.4,13.8-4.5,20.7-6.9c6.3-2.1,12.6-4.8,18.9-7.2c7.2-2.4,14.1-5.1,21.3-7.5c0.6-0.3,1.2,0,1.8,0c0.6,0,1.2,0,1.5-0.3
			c1.2-0.6,2.1-1.5,3.3-1.8c13-3.9,25.9-7.8,38.5-11.7c6-2.1,11.7-4.2,17.7-6.3c0.9-0.3,1.8-0.3,3-0.6c0,0.9,0.3,1.5,0.3,2.1
			c0,3,0,6.3,0,9.3c0,0.9-0.3,1.5-1.5,2.1c-6,2.4-11.7,5.1-17.4,7.8c-2.7,1.2-5.4,2.1-8.1,3c-6.9,2.1-13.5,4.2-20.4,6.3
			c-5.7,1.8-11.4,3.9-17.1,6c-1.2,0.3-2.1,0.9-3.3,1.5c-1.2,0.3-2.1,1.2-3,1.2c-5.7,0.3-10.2,3-15.3,4.8c-8.7,2.7-17.1,5.4-25.5,8.1
			c-6.9,2.1-14.1,4.5-21,6.6c-1.8,0.6-3.9,0.9-6,1.5c0,1.5,0,2.7,0,4.2c1.2-0.6,2.4-1.5,3.9-1.8c11.5-3.6,23.2-7.2,34.6-10.8
			c9.3-3,18.3-5.7,27.6-8.7c2.4-0.6,4.5-1.8,6.6-2.7c3-1.2,5.7-2.1,8.4-3c6.6-2.1,13.5-5.1,20.4-6.6c7.8-1.5,14.7-5.1,21.9-7.8
			c3.9-1.5,7.8-3.9,12-5.7c0.9-0.3,1.5-0.6,2.7-0.9c0,0.9,0.3,1.5,0.3,2.1c0,12.1,0,23.8,0,35.5c0,6.6,0,12.9,0,19.2
			c0,1.2-0.3,2.4-0.3,3.6c1.2,0,2.1,0,3.3,0c0-1.8-0.3-3.9-0.3-5.7c0-17.4-0.3-34.6,0-52c0-11.2-0.6-22-0.3-33.1
			c0-0.6,0.3-1.2,0.3-1.8c-1.1-0.9-2.2-1.8-3.3-2.7C138.5,221.6,138.6,222.2,138.5,222.9z M42.5,263.8c0,2.4-0.6,3.9-3,4.8
			c-6,2.4-12.3,4.5-18.3,6.9c-1.8,0.6-2.4-0.3-2.4-1.8c0-12.1-0.3-23.8-0.3-35.8c0-1.2,0.6-1.5,1.8-1.5c5.7-1.5,11.4-3.3,17.1-5.1
			c1.5-0.6,3-0.9,5.1-1.5c-0.3,2.7-0.9,4.8-0.9,6.7C41.9,245.8,42.2,254.8,42.5,263.8z M72.5,257.1c-7.8,2.7-15.3,5.4-23.1,8.1
			c-1.2,0.3-2.1,0.9-3.3,1.2c-0.3,0.3-0.9,0.3-1.2,0.3c-0.3-4.5-0.9-8.7-0.9-12.9c0-5.7-0.3-11.4,0-17.1c0.3-3,1.2-6,1.2-9
			c0-3.9-0.6-7.8-0.9-11.7c-0.3-2.4,0-2.7,2.4-3c2.7-0.6,5.4-1.2,8.1-1.8c6-1.5,11.7-3,17.4-4.2c0,5.1-0.3,10.2,0,15.6
			c0.3,5.4,1.2,11.1,1.5,16.5s0.6,10.8,0.6,16.2C74.3,255.9,73.4,256.8,72.5,257.1z M97.8,248.7c-6,1.8-12.3,3.9-18.6,6
			c-2.4,0.6-2.7,0.6-2.7-2.1c-0.3-2.1,0-4.2-0.3-6.3c-0.6-6.9-1.2-13.8-1.8-20.7c0-0.6,0.3-1.2,0.6-1.5c1.8-0.9,3.3-1.5,5.1-2.1
			c3.9-1.2,8.1-2.4,12.3-3.6c0.9-0.3,1.8-0.6,2.7-0.3c0.9,0,1.8,0.9,1.8,1.5c1.2,8.7,2.4,17.4,3.3,26.1
			C100.2,247.5,99.6,248.4,97.8,248.7z M120.9,241.8c-5.7,1.8-11.1,3.6-16.8,5.4c-0.6,0.3-0.9,0.3-1.8,0.3
			c-0.6-6.6-1.2-12.9-1.5-18.9c6.3-1.8,12.6-3.6,18.6-5.1c0.9,5.4,1.8,10.8,2.7,15.9C122.4,240.3,122.4,241.5,120.9,241.8z"/>
		<path class="st0" d="M86.3,166c-1.9,0.7-3.8,0.8-5.5,1.3c-7.2,2.1-14.7,4.2-21.9,6.3c-4.5,1.2-9,2.1-13.5,3.3
			c-1.5,0.3-2.1-0.3-2.1-1.8c-0.3-3.9-0.9-7.5-1.2-11.4c-0.6-8.4-1.5-16.5-2.1-24.9c-0.3-3.3-0.6-3.6-3.6-3
			c-7.2,1.2-14.7,2.4-21.9,3.6c-0.9,0-1.8,0.9-1.8,1.5c0,6-0.3,12.3,0,18.3c0.3,7.5,0.6,14.7,0.9,22.2c0.3,1.5-0.6,2.4-2.1,2.7
			c-3.6,0.9-7.5,2.1-11.1,3c0,0.9,0,1.8-0.4,3.1c11.5-2.7,22.6-5.1,34-7.5c9.3-2.1,18.3-4.2,27.6-6.6c3.6-0.9,6.9-2.1,10.5-3
			c6-1.5,11.7-2.7,17.6-3.9C88.7,167.9,87.6,166.7,86.3,166z M37.7,178.1c-6,1.5-12.3,3-18.6,4.5c-2.7,0.3-3,0.3-3-2.4
			c0-5.7,0-11.1-0.3-16.8c-0.3-6.3-0.6-12.6-0.9-18.9c0-2.1,0.6-3.3,3-3.6c6.3-0.9,12.3-2.1,18.6-3c0.3,0,0.6,0,1.2,0
			c0.3,2.7,0.3,5.1,0.3,7.5c0.9,9.3,1.8,18.9,2.7,28.5C41,177.2,40.7,177.2,37.7,178.1z"/>
	</g>
	<g>
		<path class="st1" d="M299.5,149.9c0-5.1-1.5-10.5-1.2-15.9c0.6-10.2,0.6-20.4-3.3-30.3c-2.7-6.6-5.1-13.5-9.9-18.9
			c-3.3-3.9-5.1-8.4-5.4-13.8c0-2.1,0-4.2-0.3-6.3c-0.3-3-1.2-6-2.1-9c-1.8-5.7-3.3-11.7-5.7-17.1c-2.4-5.4-5.7-10.5-10.2-14.4
			c-2.1-1.8-4.8-3.6-7.2-6.3c-6-5.4-12.9-8.1-21-7.2c-2.4,0.3-4.8,0.3-7.2,0.9c-2.7,0.9-5.1,2.1-7.8,3c-3.9,1.5-7.8,3-11.1,6
			c-0.9,0.9-2.1,1.5-3.3,2.4c-2.1,1.8-4.5,3.3-6.6,5.1c-2.7,2.7-3,5.1-1.5,8.4c0.3,0.6,0,1.5,0,2.4c-0.6,2.7-1.5,5.4-1.8,8.1
			c-0.6,6.3,0.6,12,2.7,17.7c0,0.6,0.3,1.5,0,2.1c-1.2,3.9-2.4,7.8-3.3,11.7c-0.3,1.2-0.6,2.1-0.6,3.3c0,1.8,0.9,2.7,3,2.7
			c4.8-0.3,4.5-1.2,4.5,4.5c0,1.2,0.6,2.1,1.8,2.4c1.8,0.3,2.1,1.2,1.5,2.7c-0.6,1.5-0.3,2.7,1.5,3s2.4,1.5,2.7,3
			c0,1.5,0.3,3,0.6,4.5c0.9,3,2.7,4.2,5.4,3.3c4.5-1.5,9-3,13.5-4.2c0.6,0,1.8,0,2.1,0.3c2.4,2.7,5.1,5.4,3.9,9.6
			c-0.3,0.6-1.2,1.5-1.8,1.8c-2.7,0.6-5.1,1.2-7.8,1.8c-3.9,0.6-7.5,2.1-10.2,4.8c-2.4,2.7-4.5,5.4-6.6,8.1
			c-6.6,8.7-12.6,18-17.7,27.9c-0.9,2.1-2.7,3.9-4.5,5.1c-2.7,1.8-4.8,3.9-6,6.9c-0.6,1.8-1.5,3.9-2.7,5.4
			c-3.3,4.8-6.9,9.3-10.5,14.1c-1.2,1.8-2.4,1.8-4.2,0.6c-2.4-1.5-4.8-3.3-7.2-5.1c-0.6-0.3-1.2-1.2-1.8-1.8
			c0.3-0.3,0.3-0.3,0.6-0.3c0-0.3,0-0.7,0-1c-1.2-0.5-2.3-1-3.4-1.5c-0.1,0.3-0.1,0.5-0.2,0.8c-2.7-1.2-5.1-2.7-7.2-3.9
			c-0.3-0.3-0.6-0.9-0.6-1.2c0-0.2-0.1-0.5-0.1-0.7c-1.3-1.1-2.5-2.3-3.6-3.6c0,0.2,0,0.4,0,0.6c-7.5-2.4-10.5-9-15.6-14.4
			c0.4-0.1,0.8-0.2,1.3-0.3c-1-0.8-1.9-1.7-2.7-2.6c-0.1,0-0.2,0-0.3,0.1c-0.3,0-1.5-1.2-1.5-1.8c0-0.1,0-0.2,0-0.4
			c-1.1-1.4-2.1-2.8-3-4.3c0,0.4,0.1,0.7,0.1,1.1c0,0.6-0.3,0.9-0.3,1.8c-2.1-2.7-4.2-5.1-4.8-8.4c-0.3-1.5-1.2-3-2.1-4.2
			c-1.2-1.5-2.4-3-3.6-4.5c-1.8-2.4-3.9-4.2-6.6-5.4c-2.1-0.9-3.9-2.1-5.4-3.6c-2.1-1.8-4.2-4.2-6.3-6c-0.9-0.6-2.7-0.9-3.9-1.2
			c-0.6-0.3-1.5-0.3-2.1-0.6c-1.5-1.2-3-1.2-4.5-0.3c-2.4,1.5-4.8,3-6.9,5.1c-0.9,1.2-1.8,3-1.8,4.5c0,1.2,0,2.4-0.6,3.6
			c-1.2,2.4-0.9,6.3,0.9,7.2c3,1.5,3,3.6,2.4,6.3c0,0.3,0,0.3,0,0.6c0.6,2.7,1.2,5.7,1.8,8.7c0.3,1.5,1.2,3,2.1,4.5
			c0.6,1.2,1.8,2.7,3,3.6c1.8,1.2,3.6,1.5,5.4,2.1c1.5,0.6,2.7,1.5,4.2,2.1c-0.2,0.1-0.3,0.1-0.5,0.2c1.3,0.7,2.4,1.9,3.4,3.2
			c0,0,0,0,0.1,0c0.6,0,1.8,0.3,2.1,0.9c2.1,2.4,3.9,4.8,6,7.2c1.5,1.8,2.7,3.3,4.2,5.4c-0.1,0-0.2,0-0.3,0.1c1,1,1.6,2.1,2.1,3.3
			c0.6,0.2,1.3,0.9,1.9,1.5c1.8,2.7,3.6,5.4,5.1,8.1c0.3,0.3,0.3,1.2,0,1.8c-0.3,1.8-0.3,3.3,1.2,5.1c2.1,3,5.1,3.3,8.1,3.9
			c5.7,0.9,9.9,4.2,13.8,8.4c0.9,0.9,1.5,1.8,2.4,2.7c0.8,1.1,1.7,2.1,2,3.5c1.1,0.9,2.2,1.8,3.3,2.7c0,0,0,0,0,0
			c2.4,0.6,4.8,0.9,6.9,1.2c0.3,0,0.9,0.3,1.2,0.6c1.4,1.6,2.6,3.3,3.2,5.2c0.9,0.4,1.7,0.8,2.4,1.5c0.1-0.2,0.1-0.5,0.1-0.7
			c1.5,0.6,3,1.8,4.5,1.8c2.1,0,4.2-0.6,6-1.5c1.8-0.6,3.6-1.8,5.4-3c1.5-0.9,3.3-0.9,5.1-0.3c5.4,2.1,5.7,2.1,5.1,7.8
			c-0.6,4.8-1.8,9.9-2.7,14.7c-0.6,3-1.2,6-1.8,9c-1.5,7.8-3,15.9-4.8,23.7c-1.5,5.7-2.1,11.4-3,17.1c-0.9,5.1-2.4,10.5-3.6,15.6
			c0.9,0,2.1,0,3,0c1.8-7.5,3.3-15.3,4.5-23.1c1.5-9.9,3.9-19.5,6-29.1c2.1-8.7,4.2-17.7,6-26.4c0.3-1.5,0.3-3,0.6-5.1
			c3.3,1.8,6.3,3.6,9.3,5.4c3.3,1.8,6,4.5,9.6,6.3c4.2,2.1,7.5,5.1,11.4,7.5c2.1,1.2,4.2,2.1,6.3,3.3c2.4,1.2,4.8,2.4,6.9,4.2
			c0.9,0.6,1.2,2.4,1.2,3.6c0,6.9-0.3,13.5-0.6,20.4c-0.3,4.8-0.3,9.9-0.3,15c0,6,0,12,0,18c0.6,0,1.5,0,2.4,0c0-4.5,0-9.3,0-13.8
			c0-6,0-11.7,0-17.7c0.3-7.5,0.6-15.3,0.9-22.8c0-0.6,0.3-0.9,0.3-1.5c1.5,0.6,3,0.9,4.2,1.8c2.7,2.1,6.3,2.1,9.6,3.3
			c4.2,1.5,8.4,3.6,12.6,4.8c6.3,2.1,6.6,7.5,6.6,12.3c0.3,7.8,0.9,15.3,3.3,22.8c1.2,3.6,2.1,7.2,3.3,10.8c0.6,0,1.5,0,2.4,0
			c-0.9-3.9-2.1-7.8-3.3-11.7c-1.8-6.9-3-13.5-3-20.4c0-3.3-0.9-6.3-1.5-9.6c-0.3-1.5-0.3-2.4,0.6-3.6c1.8-1.8,3.3-3.6,4.8-5.7
			c1.8-2.7,4.2-5.4,5.4-8.4c2.1-4.8,3.6-9.9,5.4-15c1.5-4.2,2.7-8.1,3.9-12.3c1.2-4.8,1.8-9.6,3-14.4c1.2-5.7,3-11.1,4.5-16.8
			c0.6-2.1,1.2-4.2,1.5-6.6c1.2-6.3,3-12.6,3.3-19.2C300.1,165.2,299.8,157.4,299.5,149.9z M203.2,89.5c2.1-0.3,3.6-0.6,5.4-1.2
			C206.5,90.7,204.7,91,203.2,89.5z M232.4,121.8c0.3-0.3,0.3-0.6,0.6-0.6c4.8-3.3,4.8-8.1,4.2-12.9c0-0.6-0.3-1.2-0.6-1.8
			c-1.8-2.4-3.3-4.5-5.1-6.9c1.2-3,2.7-5.7,3.9-8.7c1.2-2.7,2.1-5.7,3.3-8.7c-0.3-0.3-0.6-0.3-0.9-0.6c-0.6,0.6-1.2,1.2-1.5,2.1
			c-1.2,2.7-2.4,5.4-3.3,8.1c-2.1,7.5-7.8,10.8-15,12c-0.6,0-0.9,0.3-1.5,0.3c-3.3,0.9-4.5,0.9-5.1-3.6c-0.3-2.7-0.9-4.8-3.3-6
			c1.5-2.4,2.7-4.5,4.2-6.9c0.3-0.3,0.3-0.9,0.6-1.2c-0.6-0.3-0.9-0.6-1.5-0.6c-2.1,0.3-3.9,0.6-5.7,0.9c-0.9,0.3-1.5,0-2.4-0.3
			c0.3-1.2,0.3-2.7,0.9-3.3c3.3-2.7,3.6-4.5,0.9-7.8c-0.3-0.3-0.9-0.3-1.2-0.6c-0.3,0.3-0.3,0.9-0.3,1.2c0.3,0.9,0.9,1.8,1.2,2.7
			c0,0.6-0.3,1.5-0.6,2.1c-0.3,0.3-1.2,0.3-1.8,0c-1.8-0.9-3,0.3-4.5,1.2c-1.8-0.9-1.2-2.4-0.9-3.9c1.2-3.3,1.8-6.3,3-9.6
			c0.6-2.4,0.3-4.5-0.3-6.9c-0.6-1.5-0.6-3-0.3-4.5c0.3-1.8,1.8-3.3,3.9-3.3c0.6,0,1.5,0,2.1,0c0.3-0.3,0.9-0.6,1.2-0.9
			c-0.3-0.3-0.9-0.9-1.2-0.9c-3-0.3-5.7,0-8.1,2.7c0-6-0.3-11.4,2.7-16.2c0.3-0.3,1.5-0.6,2.1-0.6c4.5,0.9,8.7,3,12.3,6
			c3.3,2.7,6.9,5.4,10.5,7.8c2.7,1.8,5.4,1.2,8.1-1.5c0,0.3,0,0.6,0,0.9c0.3,0.6,0.6,1.2,0.9,1.8c0.3-0.6,0.9-1.2,0.9-1.8
			c0.6-2.7,0.9-5.1,1.5-7.8c0.6-2.7,5.4-4.2,7.8-2.1c3.3,3,4.5,9.3,2.4,13.5c-1.5,3.3-3,6.9-4.5,10.5c-0.3,0.9-1.2,1.5-2.1,1.8
			c-0.3,0-1.2-0.9-1.5-1.5c-0.6-1.2-1.2-2.1-1.5-2.7c1.5-1.8,2.4-3,3.6-4.2c0.6-0.6,1.2-1.2,1.8-1.8c3.3-2.7,4.8-8.4,2.7-12.3
			c-0.9-2.1-3-2.7-4.8-1.5c-2.1,1.2-3.3,3-3,5.7c0.3,0.9,0.6,1.5,1.5,2.4c-0.6-2.1-0.3-4.2,1.5-5.7c0.6-0.6,1.5-1.2,2.4-1.2
			c0.3,0,0.9,1.2,1.2,2.1c1.2,3.9,0.6,7.2-3.3,9.6c-0.6,0.3-0.9,0.9-1.5,1.2c-0.6-0.6-1.2-0.9-1.8-1.5c-0.6,1.8-1.2,3.3-1.8,4.8
			c-0.9,2.4,0.6,6.6,2.7,7.8c2.4,1.5,4.8,0,5.7-2.7c0.6-2.1,1.5-4.5,2.4-6.6c0.3,0.3,0.3,0.3,0.6,0.3c1.2,3.9,2.1,7.9,3.6,11.1
			c1.8,5.4,3.9,11.1,6,16.5c1.2,3.3,3,6.6,5.1,9.9c2.1,3.3,5.1,5.7,9.3,6.6c0.9,0.3,2.1,1.2,3,1.8c-3.9,1.5-7.5,3-11.1,4.2
			c-4.2,1.8-7.5,4.2-10.2,7.8c-4.8,6.3-10.5,11.4-15.9,17.1c-3.9,3.9-6.9,9-10.5,13.2c-1.8,2.7-4.5,4.8-6.9,6.9
			c-3.6,3-7.2,5.7-10.8,8.1c-4.2,2.7-8.7,5.1-12.9,7.8l-0.3-0.3c0.3-0.6,0.3-0.9,0.6-1.5c3.6-6.6,7.8-12.9,13.2-18.3
			c4.2-4.2,7.8-9.3,11.7-14.1C224.6,131.1,228.5,126.6,232.4,121.8z M199.4,146.8c4.5-6,8.7-12.3,13.2-18.3c3.3-5.1,7.8-8.1,13.8-9
			c0.3,0,0.3,0,0.6,0c-10.2,11.5-20.5,22.6-30.6,33.6l-0.3-0.3C197.3,150.7,198.2,148.6,199.4,146.8z M180.9,177.1
			c0.6-0.9,0.6-2.1,0.9-3.3c0.6-3.3,2.7-5.4,5.4-7.5c3-2.4,5.4-5.1,8.1-7.8c6.6-7.2,13.2-14.4,19.8-21.6c4.2-4.8,8.4-9.3,12.6-13.8
			c0.6-0.3,1.5-0.9,2.1-1.2c0.3,0.3,0.3,0.3,0.6,0.6c-0.6,0.9-0.9,1.8-1.5,2.7c-6,6.6-12,13.2-18,19.8c-4.2,4.5-8.1,9-11.7,13.8
			c-3.3,4.2-5.4,9-7.2,14.4c1.8,0.3,3.3,0.6,4.8-0.6c1.8-1.5,4.2-2.4,6.3-3.6c3.9-2.7,7.8-5.1,11.4-7.8c3.3-2.4,6.9-4.8,9.9-7.8
			c3.6-3.9,6.6-8.4,9.9-12.3c3-3.3,6-6.3,9-9.6s6.3-6.3,9-9.9c5.7-7.5,12.9-11.7,22.2-13.2c5.4-0.9,6.6,3,9.3,5.1
			c-6.3-0.9-12.3-0.3-17.4,3.3c-4.8,2.7-9.3,5.7-12.3,10.8c-3.6,5.7-7.8,10.8-11.7,16.5c-2.4,3.6-4.5,7.2-6.6,10.8
			c-2.1,3.6-3,7.8-2.4,11.7c0.9,4.5,2.1,9.3,4.2,13.5c1.2,2.7,3.9,4.5,6,6.6c1.2,1.2,1.8,2.1,2.1,3.9c0.6,6.6,1.8,13.5,2.4,20.4
			c0.3,4.8,0,9.3,0,14.1c0,2.1-0.9,2.7-3,2.4c-3.6-0.6-7.2-0.6-10.5-1.5c-3.3-0.9-6.6-2.4-9.9-3.6c-6.3-2.4-12.3-4.8-18.6-7.2
			c-4.8-1.8-9.6-3.6-14.4-5.4c-0.9-0.3-1.8-1.2-2.4-2.1c-4.5-6-7.2-12.9-9.3-19.8C179.1,184.3,179.1,180.7,180.9,177.1z M168.4,191
			c2.1-2.7,4.5-5.4,6.9-8.7c1.2,6.9,3,13.6,6.3,19.8c0.3,0.3,0.6,0.6,0.6,1.2c0,0.6,0.3,1.5,0.3,2.1c-0.9-0.3-1.5-0.3-2.1-0.6
			c-4.2-3.6-8.1-7.2-12-10.8C167.5,193.1,167.5,191.9,168.4,191z M153.4,186.5c0,0.3-0.3,0.3-0.3,0.6c-2.7,0.6-10.9-4.5-12.3-7.8
			C145.3,181.7,149.2,184.1,153.4,186.5z M110.7,148.1c3.6,5.7,8.1,11.1,12.9,15.9c0.6,0.3,0.9,0.9,1.2,1.2c1.8,2.4,3.6,4.8,5.4,7.5
			c-2.4,2.1-5.4,4.2-8.7,6.9c-3.6-4.8-7.2-9.6-10.8-14.4c-3-3.9-5.4-8.1-8.4-12.6c1.8-1.5,3.9-3.3,5.7-5.1
			C108.9,146.9,109.8,146.9,110.7,148.1z M85.8,120.8c2.7,2.1,5.4,4.5,8.1,6.9c-0.3,0.3-0.6,0.6-0.9,0.9c-3.9-0.6-6.3-3.7-8.7-6.6
			c-0.3-0.6-0.3-1.2-0.3-1.8C84.6,120.5,85.5,120.5,85.8,120.8z M74.4,121.7c1.2-0.6,2.1-1.5,3-2.1c1.2-0.9,2.1-0.9,3,0.3
			c2.7,3.3,5.4,6.6,8.1,9.9c-3.3,2.4-7,5.4-11.1,8.1c-0.3-1.2-0.9-2.1-0.9-3.3c0-2.1-0.6-3.6-2.4-5.1
			C69.6,126.2,69.6,124.7,74.4,121.7z M74.3,134.6c-0.3,0.9-1.8,1.2-2.7,1.5c-0.6,0-1.8-0.9-1.8-1.2c0-1.5-0.6-3.6,1.2-5.1
			c0.9,0.6,1.8,1.2,2.7,1.8C74.3,132.5,74.6,134,74.3,134.6z M86.1,161.3c-2.1-0.6-4.3-1.5-6-1.5c-1.8-0.6-2.4-1.5-2.4-3.6
			c0-1.2-0.6-2.7-1.2-3.9c-0.6-0.9-1.2-1.8-0.6-3c0.3-0.9,0.3-2.1-0.3-2.7c-1.5-1.5-1.2-3.3-0.9-4.8c0-1.8,1.2-2.1,2.7-1.2
			c0.9,0.6,2.1,1.2,3,2.1c1.8,1.8,1.5,3.9-0.9,5.1c-0.6,0.3-1.2,0.3-2.4,0.9c1.5,0.9,2.7,2.1,3.9,2.7c1.8,1.2,2.4,1.8,1.8,4.8
			C85.8,158,86.7,159.2,86.1,161.3z M113.4,192.8c-1.2-1.5-2.1-3.6-3.3-5.1c-2.7-3.9-5.4-7.8-8.4-11.4c-3.6-4.2-7.2-8.4-10.8-12.6
			c-0.9-0.9-1.5-2.4-1.8-3.9c-0.3-1.8-0.6-3.6-2.7-4.8c-0.3-0.3-0.3-0.6-0.6-0.9c-1.2-1.5-2.1-3.3-3.3-5.4c2.4-5.1,0.9-5.7-3-9.9
			c3-2.1,6-4.2,8.7-6.6c2.4-1.8,3.9-1.5,6.6-0.3c5.1,2.1,8.7,6.3,12.6,10.2c0.3,0.3,0.6,0.9,0.9,1.2c0.3,0.6,0.3,0.9,1.5,1.2
			c-2.7,2.1-5.1,4.2-7.8,6.3c-2.4,1.8-2.1,1.8-0.3,3.9c2.1,2.4,4.2,5.1,6,7.8c3,4.8,5.7,9.9,9.9,13.8c1.2,1.2,1.8,2.4,2.7,3.6
			s1.8,1.8,3.3,0.6c3-2.4,6-4.5,9.3-7.2c1.5,1.8,2.7,3.6,4.2,5.4c0,0.3,0,0.3,0,0.3c-1.8,2.4-0.6,5.7-3,7.8
			c-3.3,2.7-6.9,5.7-10.2,8.4c0,0-0.3,0.3-0.6,0.3c-2.4,0-4.8,0-6.9-0.6C115.2,194.6,114,193.7,113.4,192.8z M145.2,195.9
			c0.6,0.3,0.9,0.9,0.9,1.5c0,0.3-0.6,0.9-1.2,0.9c-1.8,0.6-3.3,1.2-4.8,1.2c-1.8,0-3.6-0.3-5.4-0.9c-2.1-0.6-4.2-1.2-6.6-2.1
			c3-2.1,6-4.5,8.7-6.6C139.8,192,142.5,194.1,145.2,195.9z M154.9,225.3c5.1,0,9.9,0,14.7,0C163.6,231.3,161.2,233.7,154.9,225.3z
			 M297.3,175.8c-1.2,6-2.4,12.3-3.6,18.6c0,0.3,0,0.9-0.3,1.5c-3.3,9.6-4.5,19.8-7.2,29.7c-2.4,9.6-6,18.9-9.3,28.2
			c-2.1,5.1-5.4,9.6-9.3,13.8c-1.5,1.8-3.3,1.2-5.1,0.6c-10.2-4.2-20.4-8.1-30.3-12.6c-6.6-3-13.2-6.3-18.9-10.8
			c-2.4-1.8-5.4-2.7-7.8-4.2c-2.1-1.2-4.5-2.4-6.3-4.2c-3.3-3-7.5-4.5-11.1-6.6c-4.2-2.1-8.1-4.8-12-7.2c-1.2-0.6-2.7-1.2-3.9-1.2
			c-4.5,0-9,0.3-13.5,0.6c-3.6,0.3-7.5,0.3-11.4,0.3c-0.9,0-2.1-0.3-2.7-0.9c-2.1-1.8-3.9-3.9-6-6c0-0.3,0.3-0.3,0.3-0.6
			c1.2,0.3,2.7,0.6,4.5,0.5c0.3,0,0.9-0.9,1.5-1.2c-0.3-0.6-0.9-1.5-1.2-1.5c-5.7-0.6-10.2-3.9-14.7-6.9c-2.7-1.8-5.4-2.7-8.4-2.7
			c-3.3,0-4.8-1.8-6.6-4.8c1.8-0.3,3.6-0.9,5.1-0.9c5.4,0.3,10.8,1.5,15.9,3.6c2.1,0.9,5.1,0,7.8,0c1.2,0,2.1-0.3,3.3-0.6
			c1.8-0.3,3-2.1,2.1-3.9c-0.3-0.9-1.2-2.1-2.1-2.7c-2.1-1.8-4.5-3.3-6.6-5.1c-2.1-1.5-2.7-3.6-1.8-6.3c0.3-1.5,0.9-1.5,1.8-0.6
			c3,2.4,6,4.8,9.3,6.9c1.2,0.9,3,0.9,4.5,0.9c2.1,0,4.2,0.6,5.7,2.1c0.3,0.3,0.9,0.9,1.2,0.9c5.4,1.8,8.4,6.6,12.6,9.9
			c4.8,3.6,9.6,7.8,15.6,9.6c1.2,0.3,2.4,1.2,3.9,1.8c3.6,1.5,7.5,2.7,11.1,4.2c7.2,2.7,14.4,5.7,21.9,8.1c3.3,1.2,6.6,1.8,9.9,2.4
			c4.5,0.9,8.7,1.8,12.9,2.7c0.9,0.3,1.5,0.9,2.1,1.5c1.5-0.3,1.8-1.5,1.2-2.7c-1.2-2.1-0.9-4.2-0.6-6.3c0.6-5.1,0.6-10.5-0.6-15.6
			c-0.9-5.1-1.5-10.2-1.8-15.3c-0.6-6.9-0.9-14.1-1.2-21c0-2.7,0.9-5.1,1.2-7.5c0.3-2.7,0.6-5.4,0.6-8.1c0-0.6-0.6-1.2-0.9-1.8
			c-0.3,0-0.3,0-0.6,0c-0.3,0.9-0.9,1.5-1.2,2.4c-0.6,3-1.5,6-1.8,9c-0.6,5.4-0.6,10.5-0.9,15.6c0,0.6,0,1.5,0,2.4
			c-2.4-1.2-4.2-3-5.4-5.1c-3.3-6.6-5.1-13.5-2.7-20.7c0.9-2.4,2.1-4.8,3.6-6.9c3.9-6,7.5-11.7,11.4-17.4c2.4-3.6,4.5-6.9,7.5-9.9
			c4.2-4.2,9.3-7.5,15.3-8.1c1.5,0,2.7,0,3.9-0.3c3.6-0.6,6.9,0.6,9,3.9c0.3,0.6,0.6,0.9,0.9,1.2c6.3,4.5,8.1,10.8,9,17.7
			c1.8,10.9,1.8,22,1.8,33.1C297.9,172.8,297.6,174.3,297.3,175.8z"/>
		<path class="st1" d="M205,67.6c-1.2-0.9-2.4-2.1-3.9-3.3c1.5-2.1,3.9-2.7,6.3-4.2c-2.1-0.9-3.6-0.6-5.4,0.3c-0.6,0.3-1.2,0-1.5,0
			c0.3-0.6,0.3-1.2,0.9-1.8c2.1-1.5,7.5-1.2,9.3,0.3c0,0.6,0,1.2,0,1.8c0,3.9-2.1,6.6-4.8,8.7c-0.3,0.3-0.9,0-1.5,0
			C204.7,69.1,204.7,68.2,205,67.6z M209.6,61.5c-0.3-0.3-0.3-0.3-0.6-0.6c-0.6,0.3-1.5,0.9-2.4,1.2c0.6,0.6,0.9,1.2,1.8,2.1
			C209,63.3,209.3,62.4,209.6,61.5z"/>
	</g>
</g>
</svg>
