<?xml version="1.0" encoding="utf-8"?>
<!-- Generator: Adobe Illustrator 21.1.0, SVG Export Plug-In . SVG Version: 6.00 Build 0)  -->
<svg version="1.1" id="Layer_1" xmlns="http://www.w3.org/2000/svg" xmlns:xlink="http://www.w3.org/1999/xlink" x="0px" y="0px"
	 viewBox="0 0 367.3 500" style="enable-background:new 0 0 367.3 500;" xml:space="preserve">
<style type="text/css">
	.st0{fill:#FFC107;}
</style>
<path class="st0" d="M0.2,184.2c-1-79.6,53.7-153.9,130.1-176.3C220.8-18.7,313,23.5,351.9,109.5C364.8,138,369,168,367,199.1
	c-3.7,58.3-24,110.8-54.5,159.8c-33.4,53.5-75.5,99.3-124.3,139c-3.2,2.6-5.2,2.7-8.4,0c-58-47.5-106.7-102.7-141.6-169.4
	C19.5,292.8,6.9,254.9,2.2,214.6C1.1,204.5,0.9,194.3,0.2,184.2z M181.7,38.4C103.2,38,38.9,102,38.6,180.7
	c-0.3,79.5,63.4,143.6,143,144c77.6,0.4,142.8-63.9,143.1-140.9C325.1,102.6,262.1,38.7,181.7,38.4z"/>
<path d="M224.1,166.5c-9.6,0.1-17.3,8-17.2,17.6c0.1,8.2,5.9,15.3,14,16.9v24c0,15.5-12.6,28.1-28.1,28.1s-28.1-12.6-28.1-28.1
	v-43.5c18-1.8,31.7-17,31.7-35V110h-19.8v6.8h13v29.8c-1.2,15.7-14.9,27.4-30.6,26.2c-14-1.1-25.1-12.2-26.2-26.2v-29.8h13V110H126
	v36.6c0,18.1,13.8,33.3,31.8,35v43.5c0,19.3,15.6,34.9,34.9,34.9c19.3,0,34.9-15.6,34.9-34.9c0,0,0,0,0,0v-24
	c9.4-1.9,15.6-11.1,13.7-20.5C239.7,172.4,232.4,166.5,224.1,166.5z M224.1,194.6c-5.9,0-10.7-4.8-10.7-10.7s4.8-10.7,10.7-10.7
	c5.9,0,10.7,4.8,10.7,10.7S230,194.6,224.1,194.6C224.1,194.6,224.1,194.6,224.1,194.6z"/>
</svg>
