<?xml version="1.0" encoding="utf-8"?>
<!-- Generator: Adobe Illustrator 21.1.0, SVG Export Plug-In . SVG Version: 6.00 Build 0)  -->
<svg version="1.1" id="Layer_1" xmlns="http://www.w3.org/2000/svg" xmlns:xlink="http://www.w3.org/1999/xlink" x="0px" y="0px"
	 viewBox="0 0 360.1 336.2" style="enable-background:new 0 0 360.1 336.2;" xml:space="preserve">
<style type="text/css">
	.st0{fill:#ffb300;}
	.st1{fill:#F20606;}
</style>
<g>
	<path class="st0" d="M164.6,79.8c-1.1,1.3-2.2,2.6-3.3,3.9c2,0.3,4.1,0.7,6.1,0.7c1.6,0,2.8-1,3.9-2.1c0.2-0.2,0.3-0.6,0.5-0.6
		c0.4-0.1,0.9-0.1,1.4-0.2c0,0.4,0.2,1,0,1.3c-1.3,1.8-4.2,3.8-7.2,3.4c-2.4-0.4-4.8-0.2-7.2-0.3c-0.3,0-0.9-0.3-0.9-0.5
		c-0.1-0.4-0.1-1.1,0.1-1.2c2.5-1.7,4.2-4.1,5.9-6.5c1.9-2.7,4.4-4.8,7.9-5.4c1-0.2,1.9-0.8,2.9-1.3c0.3-0.1,0.5-0.4,0.7-0.4
		c0.4,0,0.9,0.1,1.3,0.2c-0.1,0.4-0.2,1.1-0.5,1.3c-1.6,1-3,2.2-5,2.3c-0.3,0-0.7,0.2-1.1,0.4c1.2,0.8,1.4,2,1.5,3.1
		c0.1,1.8-2.1,4.4-3.8,4.7c-1.1,0.2-2.2-0.4-2.6-1.5C164.9,80.7,164.8,80.3,164.6,79.8z"/>
	<path class="st0" d="M168.3,53c1.5,0.2,2.5,0.5,2.9,1.6c0.3,0.9-0.1,2.2-1.2,2.7c-2.2,1.3-4.5,2.6-6.8,3.6c-2.9,1.3-4.5,3.6-6,6.1
		c-1.1,1.9-2.7,3.5-4.1,5.3c-0.5,0.7-1.1,1.4-1.6,2.1c-0.4,0.6-1,1.2-1.6,0.6c-0.3-0.3-0.4-1.3-0.1-1.8c0.6-1,1.4-1.9,2.2-2.8
		c1.6-1.9,3.1-4,4.4-6.1c2.3-3.6,4.6-7.5,8.7-9.6C166.1,54,167.4,53.4,168.3,53z"/>
	<path class="st0" d="M117.6,146.2c-1.4-1.4-2.7-2.4-3.8-3.6c-0.6-0.6-1-1.2-1.4-1.9s-0.4-1.3,0.2-1.9c0.4-0.4,0.4-1.1,0.7-1.6
		c0.2-0.4,0.6-1,1-1.1c0.7-0.2,0.9,0.5,0.9,1.1c0,0.5,0.1,1.1,0,1.5c-0.7,1.8,0.6,2.6,1.6,3.5c0.9,0.8,1.7,1.5,2.5,2.3
		c0.6,0.7,1.2,1.4,0.7,2.5s-1.4,1.7-2.6,1.8c-1.8,0.1-3.7,0.1-5.5,0c-2.8-0.1-3.8,0.6-4.3,4c-0.2,1.5-0.6,2-1.7,1.7
		c-0.3-0.1-0.7-0.5-0.7-0.7c-0.6-4,2-7.7,6.1-7.5c1.8,0.1,3.5,0,5.3,0C116.6,146.4,116.9,146.3,117.6,146.2z"/>
	<path class="st0" d="M120.2,162c-0.9-0.3-1.8-0.5-2.7-0.9c-0.3-0.1-0.6-0.4-0.8-0.7c-1.5-2.1-0.6-6.3,1.7-7.6
		c2.4-1.3,6.7-0.4,6.8,3.1C125.3,159,123.9,161.9,120.2,162z"/>
	<path class="st0" d="M105.8,138.2c-0.1,1-0.2,2.1-0.4,3.1c-0.1,0.7-0.5,1.4-1.4,1.3c-0.9-0.1-1-0.8-0.9-1.5
		c0.1-1.5,0.3-3.1,0.1-4.6c-0.5-4.3-2.9-7.5-6.2-10.2c-1.7-1.3-3.1-1.7-4.9-0.6c-0.4,0.2-0.9,0.5-1.3,0.5s-0.9-0.2-1.2-0.4
		c-0.1-0.1,0-0.9,0.3-1c1.7-0.7,3.5-1.5,5.3-2c0.5-0.1,1.3,0.5,1.9,0.9c1,0.6,1.8,1.4,3.1,1.6c0.7,0.1,1.3,1.2,1.9,1.9
		c0.8,1.1,1.6,2.3,2.2,3.5c0.6,1.3,1,2.7,1.3,4.1C105.7,135.8,105.7,137,105.8,138.2z"/>
	<path class="st0" d="M190.7,85.7c0.2-1,0.4-2,0.7-3c0.1-0.2,0.5-0.4,0.7-0.6c0.1,0.3,0.4,0.7,0.4,1c-0.1,1.2-0.3,2.4-0.4,3.6
		c0,1.2,1.1,2.4,2.3,2.6c2.7,0.6,4.7-0.4,6.1-2.8c0.6-1.1,1.3-2.2,2-3.2c0.3-0.4,0.6-0.8,1-1c0.3-0.1,0.9,0,1.1,0.2
		c0.2,0.2,0.2,0.7,0.1,1c-0.6,2-1.9,3.7-3.5,4.9c-2.1,1.5-4.3,2.9-7.1,2c-2-0.6-3.3-2.1-3.3-4.2c0-0.2,0-0.5,0-0.7
		C190.9,85.7,190.8,85.7,190.7,85.7z"/>
	<path class="st0" d="M218.3,157.2c0.6-2.6,1-5.3-0.8-7.6c-0.7-0.9-1.4-1.7-2.1-2.6c-1.7-2.2-3.3-4.5-5.2-6.5
		c-2.1-2.1-3.2-4.7-4.6-7.2c-0.2-0.3-0.2-0.8-0.3-1.1c-0.5-6.2,1.3-12,3.6-17.7c0.6-1.4,1.6-2.7,2.5-4c1.4-1.9,1.5-5.4-0.4-7.8
		c-2.1-2.6-3.1-5.8-4.9-8.5c-0.7-1-0.5-2-0.1-2.9c0.6-1.2,1.2-2.5,1.9-3.7c1-1.6,1.1-3.3,0.9-5c-0.1-0.9-0.2-1.7-0.4-2.6
		c-0.4-2.3-1-4.5-3.3-5.5c-2.2-1-4.5-1.8-6.8-2.6c-3.2-1.1-6.6-1.4-9.5-3.3c-0.6-0.4-1.3-0.7-1.9-0.9c-1.7-0.4-3.3-1.2-4.5-2.5
		c-1.6-1.6-3.2-3.3-3.2-5.8c0-0.9,0.1-1.8-0.1-2.6c-0.6-2.6-1.2-5.3-1.9-7.8c-0.6-1.8-1.4-3.5-2.3-5.2c-1.9-3.7-3.7-7.3-5.8-10.9
		c-1.6-2.7-3.9-5-5.3-7.7c-1.4-2.8-3.4-4.8-5.8-6.5c-2.7-1.9-5.7-3.4-8.6-5.1c-1.5-0.9-3.1-1.8-4.4-3c-1.2-1.1-1.9-2.7-3-4
		c-0.4-0.5-0.9-1-1.5-1.2c-1.3-0.4-2.6-0.7-4-1c-3.8-0.8-7.5-1.4-11.3-2.2c-5.2-1.1-10.4-1.5-15.6-1.6c-4.3-0.1-8.6-0.1-12.9-0.2
		c-2.3,0-4.7-0.6-6.9-0.2c-4.1,0.7-8.3,1.7-12.3,3c-4.1,1.4-7.9,3.4-11.9,5c-6.2,2.5-11.9,6-17.4,9.7c-3.3,2.3-6.3,4.9-9.4,7.6
		c-2.6,2.2-5,4.6-7.4,7.1c-1.7,1.8-3.1,4.1-4.8,5.9c-3.6,3.9-6.9,7.9-10.3,12c-0.6,0.8-1.2,1.5-1.8,2.3c-0.6,0.7-1.2,1.5-1.7,2.4
		c-1.3,2-2.6,4-4,5.9c-0.9,1.4-1.9,2.8-2.4,4.4C5.2,70,4.1,74.7,2.7,79.3c-1.2,4.3-2,8.7-2.3,13.1c-0.4,5-0.8,10,0.4,14.9v0.1
		c-0.7,10.9,1.7,21.7,6,31.9c1.4,3.3,3,6.6,4.8,9.7c2.1,5.6,4.5,11.2,7.2,16.6c4.3,8.7,8.6,18.1,15.2,25.2c2.8,3,6,5.6,9.6,7.6
		c0.3,0.5,0.5,1,0.8,1.4c4.3,7.2,11.2,11.7,19,12.5c1.1,0.2,2.2,0.3,3.3,0.5c0.8,0.1,1.6,0,2.6,0c-0.2,0.5-0.3,0.8-0.5,1
		c-3.3,6.6-7.2,12.9-11.5,18.9c-3.9,5.4-5.9,11.7-7.8,18c-1.4,4.8-2.7,9.7-4.4,14.4c-2.1,5.8-4.6,11.4-7,17c-0.3,0.7-0.7,1.4-1,2
		c-0.2,0.4-0.3,0.8-0.3,1.1c-1,2.5-2.1,5-3.8,7.2c-3.3,4.3-6.9,8.3-8.5,13.6c-0.1,0.3-0.1,0.7-0.2,1c-0.5,0.6-0.9,1.2-1.4,1.8
		c-1.2,1.6,0.5,3.7,2.2,3.8c1.4,0.1,2.8,0.1,4.2,0c0.7,0.7,1.7,1,2.8,0.2c2-1.5,3.9-2.1,6.4-1.9c0.1,0,0.1,0,0.2,0
		c0,0,0.1,0.1,0.1,0.1c0.1-0.1,0.2-0.1,0.3-0.2c1.4-0.2,2.1-1.7,1.9-3c0-0.1,0-0.1,0-0.2c0.2-2.9,1.4-5.5,2.6-8.2
		c2-4.6,3.9-9.2,5.9-13.8c1.4-3.2,3.1-6.3,5.3-9.1c3.1-4.1,4.4-9,6.7-13.5c1.7-3.3,3.9-6.2,7.3-7.8c3.1-1.5,6.3-2.7,9.4-4.1
		c2.2-1,4.2-2.4,6.5-3.3c2.7-1,5.5-2,8.3-2.4c5.3-0.7,10.6-0.8,15.7,1.3c2.8,1.1,5.5,2.3,7.2,4.9c2.3,3.4,5.5,5.7,9.2,7.3
		c0.5,0.2,1,0.8,1.2,1.3c1,2.3,2.4,4.3,4.1,6.1c0.6,0.9,1.3,1.8,2.1,2.7l0.9,0.9c0.4,5.5,2,10.4,5.7,14.6c1,1.1,1.7,2.3,1.7,3.8
		c0,1.7,0.3,3.4,1,4.9c0.4,2.6,1.2,5.2,2.4,7.6c0.1,0.8,0.2,1.6,0.3,2.5v0.4c-1.5,1.7-1.8,4.3,0.1,6.1c3.4,3.2,7.7,4.9,12.2,4.6
		c5.7,0.6,11.5-0.4,17.1-0.8c7.3-0.6,14.7-1.1,22-1.7c1.1,0,2.1-0.1,3.2-0.2c2.8-0.3,3.2-3.7,1.1-4.7c-0.6-0.9-1.4-1.6-2-2.5
		c-1.1-1.9-2.2-3.9-3.1-5.9c-1.1-2.4-1.8-4.9-2.9-7.3c-2.2-4.8-4.1-9.6-5-14.8c-0.4-2.5-1.1-5-1.5-7.6c-0.8-4.7-1.9-9.3-4.2-13.5
		c-0.6-1.1-1-2.4-1.4-3.7c-1.6-5.2-3.1-10.3-6-14.9c-0.9-1.4-1.3-3.1-1.9-4.7c-0.3-1-0.4-2.2-0.7-3.2c-1.2-4.5-3.1-8.9-2.4-13.7
		c0.3-2.1,0.6-4.3,1.2-6.4c1.8-6.1,5.7-11,9.8-15.8c1-1.2,2.3-1.7,3.9-1.7c2.3,0,4.5-0.1,6.8-0.2c1.7-0.1,3.3-0.4,5-0.4
		c1.8,0,3.5-0.3,5.3-0.7c2.4-0.6,4.9-0.8,7.4-1.2c1.3-0.2,2.7-0.3,3.7-1.4c1.6-1.8,3.1-3.5,4.6-5.3c0.3-0.3,0.4-0.9,0.4-1.3
		c0-1.4,0.2-2.8,0-4.2c-0.7-3.9-0.7-7.8-0.7-11.8c0.2-0.4,0.2-0.8,0.3-1.2C217.2,161.5,217.9,159.4,218.3,157.2z M203.6,124.5
		c-0.4,3-0.7,6.2,0,9c0.7,2.7,2.3,5.3,4.3,7.4c1.8,1.9,3.3,3.9,4.8,6c-1.5-0.5-3-0.9-4.4-1.4c-2.8-1.2-5.1-3.3-7.5-5.1
		c-0.4-0.3-0.7-1-1-1.5c-0.4-1-0.7-2-1.2-3c-1.8-3.8-1.3-7.7-0.5-11.6c0.6-3,3-4.5,4.9-6.4c0.8-0.8,1.8-1.3,2.9-2.1
		C205.1,118.9,204,121.7,203.6,124.5z M208.8,110.2c-2.8,2.6-5.5,5.4-8.2,8.1c-0.1-0.1-0.2-0.2-0.3-0.3c1.8-5.4,6.7-8.9,8.6-14.3
		C210.8,106.2,210.7,108.5,208.8,110.2z M215.6,159.8c-0.5,1.9-1,3.8-1.1,5.8c-0.3,3.9-0.1,7.8,0.7,11.7c0.6,2.8-0.8,4.9-2.6,6.9
		c-1.9,2.2-4.4,2.7-7,2.8c-0.3,0-0.7-0.1-1,0c-1.8,0.8-2.9-0.1-3.8-1.6c-0.8-1.2-1.7-2.2-2.5-3.3c-0.2-0.2-0.3-0.6-0.5-0.6
		c-0.5-0.1-1-0.1-1.5-0.2c0,0.5-0.2,1,0.1,1.4c1.2,1.8,2.5,3.5,3.9,5.4c-1.1,0.2-2.1,0.5-3,0.6c-5,0.3-10,0.4-15,0.8
		c-1,0.1-2,0.8-2.7,1.5c-1.4,1.4-2.5,3.1-3.9,4.5c-3.5,3.8-5.9,8.2-7.3,13c-1.5,5.3-2.2,10.8-0.1,16.3c1,2.7,1.4,5.7,2.2,8.5
		c0.5,1.7,1,3.4,1.9,4.8c3,4.6,4.5,9.7,6,14.9c0.3,1.2,0.8,2.4,1.4,3.5c2.3,4.2,3.3,8.8,4.1,13.4c0.3,1.8,0.9,3.6,1.2,5.4
		c0.5,3.6,1.4,7,2.7,10.4c0.5,1.4,1.1,2.7,1.7,4c1.4,3.5,2.7,7,4.1,10.5c0.4,1,0.9,1.8,1.4,2.8c0.4,0.8,0.9,1.6,1.3,2.4
		c-0.1,0.1-0.1,0.1-0.2,0.2c-0.8-0.4-1.6-0.9-2.3-1.3c-1.9-1.2-3.7-2.6-5.8-3.6c-3.9-1.9-6.9-4.8-9.8-8c-3.2-3.5-5.4-7.6-8.1-11.5
		c-2-2.9-4.6-4.9-7.3-6.9c-0.8-0.5-1.4-1.3-2.1-1.9c-1-1-2-2-3.2-2.8c-1.3-0.9-2.1-1.9-2.9-3.2c-0.7-1.1-1.7-2-2.5-3.1
		c-0.2-0.2-0.3-0.6-0.3-0.8c0-1.2-0.1-2.3,0-3.5c0.3-3-1-5.5-2.4-8.1c-1.9-3.3-4.7-5.1-8.2-6.3c-0.6-0.2-1.1-0.6-1.7-0.8
		c-1.5-0.5-2.3-1.6-2.5-3.1c-0.3-2-1.6-3.5-2.8-5c-1.4-1.7-2.9-3.4-4.6-4.7c-1.4-1.1-3.3-1.7-5-2.4c-0.8-0.3-1-0.7-1.2-1.5
		c-0.7-2.1-1.6-4.1-2.8-6c-1.1-1.7-2.5-3.2-3.9-4.7c-1.9-1.9-4-3.6-6.6-4.6c-0.3-0.1-0.7-0.6-0.8-1c-0.3-1-0.3-2-0.6-2.9
		c-1.1-4.2-4.4-6.3-7.7-8.5c-0.9-0.6-1.6-1.4-2.5-2c-2.2-1.5-4.5-2.7-7.2-2.1c-0.3-2.6-0.2-5.2-0.8-7.5c-0.9-3.6-1.8-7.3-3.4-10.7
		c-3.4-7.3-6.3-14.7-7.6-22.7c-0.4-2.5-0.2-5-0.2-7.5c0-2.4,0.2-4.9,0.3-7.3c0-0.5,0.2-0.9,0.3-1.7c0.4,0.4,0.7,0.5,0.8,0.7
		c1.4,2.8,2.7,5.6,4.4,8.2c1.4,2.2,3.2,4.3,5,6.2c1.5,1.6,3.3,3.1,5.1,4.4c1.6,1.2,3.3,2.2,5.1,3.1c4.3,2,8.6,4.1,13.1,5.6
		c2.5,0.9,5.4,0.8,8.1,1c1.5,0.1,3-0.4,4-1.8c1.2-1.6,2.4-3.2,3.5-4.9c0.8-1.3,0.7-2.8,0.3-4.3c-0.1-0.3-0.8-0.8-1-0.8
		c-0.4,0.2-0.9,0.8-0.9,1.1c0.8,3.4-1.8,5.1-3.5,7.1c-0.5,0.7-1.8,1.1-2.7,1c-2.6-0.1-5.3-0.3-7.8-0.9c-2-0.5-3.8-1.5-5.7-2.3
		c-1.5-0.6-3-1.3-4.4-1.9c-0.6-0.3-1.2-0.5-1.8-0.9c-1.7-1-3.4-2.1-5.1-3.1c-2.1-1.2-3.6-3.1-5.3-4.8c-3.1-3.3-5.2-7.1-7.3-11.1
		c-0.4-0.7-0.5-1.6-0.8-2.4c-0.4-1.1-1-2.1-1.4-3.2c-0.3-1.1-0.8-2.3-0.5-3.3c0.6-2.2,1.5-4.3,2.5-6.3c1.1-2.3,3.3-3.6,5.1-5.2
		c0.2-0.2,0.5-0.3,0.7-0.5c1.6-1.5,3.2-1.8,5.2-0.8c2.3,1.1,4.6,2.3,6.9,3.4c1.3,0.6,2.7,0.9,3.9,1.7c2.2,1.4,4.5,2.2,7.1,2.6
		c2.3,0.4,4.6,1.2,6.9,1.8c2.7,0.7,5.4,1.4,8.1,2.2c1.9,0.5,3.6,1.4,5,2.8c1,1,2.3,1.7,3.5,2.5c0.8,0.6,1.7,1.1,2.3,1.9
		c1.6,2,4.1,3.3,5.2,5.8c0,0.1,0.1,0.2,0.1,0.3c0.1,0.3,0.2,0.5,0.3,0.7c0.5,1.2,1,2.4,1.1,3.6c0.3,2.8,1.1,5.8-0.4,8.5
		c-1,1.8-2.4,3.4-3.7,5.1c-0.6,0.9-1.4,1.7-2,2.6c-0.4,0.6-0.4,1.3,0.3,1.7c0.7,0.4,1.2,0,1.6-0.6c1.1-1.4,2.2-2.8,3.4-4.1
		c1.9-2.1,2.8-4.6,3.6-7.3c1-3.5,0.9-7,0.6-10.6c-0.3-3.5-0.8-7.1-3.7-9.5c-2.8-2.4-5.9-4.5-8.9-6.7c-3.5-2.5-6.8-5.1-9.1-8.8
		c-1.8-3-3.3-6.1-4.1-9.4c0-0.2-0.1-0.3-0.1-0.5c0.1-3.9,0.2-7.7,0.5-11.6c0.1-1.7,1-3.2,1.5-4.9c1.5-5.2,1.4-10.2-1.4-15.1
		c-2.9-5.1-5.3-10.4-6.8-16.1c-0.8-2.8-1.6-5.5-2.5-8.3c-1.1-3.4-1.5-6.9-1.3-10.5c0.2-4.3,0.5-8.7,0.8-13c0-0.4,0.1-0.8,0.3-1.2
		c1-2.7,2.4-5.2,4.3-7.2c1.7-1,3.4-2,5.2-2.8c0.8-0.4,1.8-0.9,2.9-1.4c0.1,0,0.2-0.1,0.3-0.1c3-0.9,6.1-1.5,9.1-2.2
		c0.5-0.1,0.9-0.3,1.4-0.4h0.1c1.6,0.5,2.8-0.1,3.6-1.1c0.1,0,0.2-0.1,0.3-0.1c0.7-0.2,1.4-0.2,1.9-0.1c1.9,1.3,3.7,2.6,5.6,3.7
		c2.4,1.4,4.9,2.6,7.2,4.1c2.6,1.7,5.1,3.5,6.3,6.6c0.3,0.7,0.7,1.3,1.2,1.8c3.3,3.9,6,8.2,8.2,12.8c1.4,2.9,2.8,5.8,3.9,8.8
		c0.9,2.6,1.5,5.3,2.1,8c0.3,1.4,0.2,2.8,0.3,4.3c0,0.3,0.1,0.6,0.3,0.9c2.3,2.9,4.4,5.9,8.3,6.9c0.5,0.1,0.9,0.3,1.3,0.5
		c3.2,2.2,7,2.8,10.6,3.9c2,0.6,4,1.4,6,2.2c1.5,0.6,2.2,1.8,2.4,3.3c0.2,1.9,1.1,3.8,0.4,5.7c-0.2,0.7-0.6,1.4-1,2
		c-0.6,1.2-1.3,2.4-1.7,3.6c-0.5,1.5-0.5,3.1,0.4,4.6c1.3,2.2,2.5,4.4,3.5,6.7c0.2,0.4-0.2,1.3-0.5,1.8c-1.4,2.2-2.8,4.4-4.3,6.4
		c-3.8,5-6,10.7-7.1,16.9c-0.7,3.7,0.2,7,1.6,10.3c0.9,2.2,2,4,3.9,5.6c1.8,1.5,3.1,3.5,4.7,5.2c1.7,1.8,3.4,3.6,5.2,5.3
		c1.2,1.1,2.4,2.2,3.6,3.2C216,157.7,215.9,158.7,215.6,159.8z M206.9,147.3c0.1-0.1,0.2-0.2,0.3-0.3c1.8,0.7,3.7,1.4,5.5,2
		c0.1,0.1,0.3,0.2,0.4,0.1c2-0.1,2.8,1.4,3.4,2.9c0.6,1.2,0.4,2.7,0,4.2C213.3,153.1,210.1,150.2,206.9,147.3z"/>
</g>
<g>
	<path class="st0" d="M357.9,76.4c0.3,1.1-0.4,1.2-1.1,1.3c-1.7,0.1-3.4,0.3-5.1,0.3c-5,0.2-9.9-0.6-14.6-2.3
		c-2.3-0.8-4.6-1.5-7-2.3c-0.7-0.2-1.4-0.3-2.3-0.5c-0.4,0.9-0.9,1.7-1.3,2.6c-0.2,0.5-0.4,1.1-1,0.8c-0.3-0.1-0.4-0.9-0.3-1.3
		c0.2-0.8,0.6-1.4,1-2.4c-1.8-0.3-3.4-0.6-5.1-0.8c-2.1-0.3-4.2-0.2-6.3-0.7c-2.2-0.5-4.4-0.7-6.6-0.8c-3.1-0.1-6-1.2-8.6-2.9
		c-1.2,2.2-0.6,4.9,1.3,6.3c0.7,0.5,1.1,1,1.6,1.7c0.5,0.9,1,1.9,2.1,2.4c0.3,0.2,0.6,0.5,0.8,0.9c0.6,1.1,1.5,1.8,2.5,2.5
		c3.6,2.1,7,4.5,11.3,5.1c1.4,0.2,2.7,0.9,4,1.3c2.4,0.8,4.9,1.5,7.3,2.3c3.2,1,6.4,1.9,9.6,3.1c1,0.4,1.9,1.2,2.8,1.8
		c1,0.7,2,1.5,3.1,2.2c0.1,0.1,0.3,0.2,0.4,0.3c0.4,0.3,1.1,0.5,0.8,1.1c-0.3,0.7-1,0.5-1.5,0.2c-1.3-0.8-2.6-1.5-3.7-2.5
		c-1.5-1.5-3.3-2.2-5.2-2.8c-3.1-1-6.4-1.8-9.5-2.6c-0.4-0.1-0.8-0.1-1.2-0.1c-7.9,0-15.8,0-23.8-0.1c-2.3,0-4.6-0.3-7.1-0.4
		c-0.4,1.1-0.8,2.1-1.2,3.1c-0.1,0.3-0.1,0.6-0.3,0.8c-0.1,0.2-0.5,0.4-0.7,0.3s-0.4-0.5-0.4-0.6c0.1-0.6,0.4-1.2,0.6-1.8
		c0.1-0.4,0.3-0.7,0.4-1.1c-1.2,0.2-17.5,8.3-20,10c2.3,0.3,4.4,0.6,6.5,0.9c3.4,0.5,6.7,1.2,10.1,1.6c4.2,0.5,8.4,0.8,12.6,1.3
		c2.7,0.3,5.4,0.8,8.2,1.2c0.7-1.3,0.8-3,2.2-3.9c0.6,0.3,0.5,0.8,0.4,1.2c-0.5,1.3-1.2,2.5-1,4.1c0.1,0.5-0.6,1.2-0.8,1.6
		c-3-0.1-5.7-0.3-8.5-0.3c-7.1,0.1-14.2-1-21.3-1.7c-3.2-0.3-6.3-0.8-9.5-1.2c-0.8-0.1-1.6-0.5-2.5-0.7c-1.7-0.5-3.5-0.6-5.1,0.4
		c-0.4,0.3-0.9,0.5-1.4,0.7c-2.3,0.8-2.7,2.7-3.1,4.7c-0.2,0.9,0.2,1.6,0.8,2.1c0.6,0.5,1.3,0.9,1.9,1.4c3.4-2,7.1-2,11.2,0.6
		c0.4-1.3,0.8-2.4,1.1-3.7c0.9,0.2,0.9,0.8,0.8,1.3c-0.1,0.7-0.3,1.5-0.5,2.2c-0.2,0.6-0.1,1.1,0.5,1.4c2.8,1.8,5.8,2.6,9.1,2.7
		c0.4-1.2,0.7-2.3,1.1-3.5c1.3,1.3,0,2.5,0.6,3.8c5.3,0.5,10.9,1.5,16.6,1.7c0.3-1,0.5-2,0.8-3.1c1.6,0.9,0.3,2.2,0.7,3.3
		c0.5,0.2,1.1,0.3,1.7,0.5c0.2,0.1,0.5,0.5,0.4,0.6c-0.1,0.3-0.4,0.5-0.7,0.6c-0.2,0.1-0.4,0-0.7,0c-2.8-0.3-5.7-0.6-8.5-0.9
		c-4.9-0.5-9.8-1.1-14.8-1.7c-3.2-0.4-6.1-1.8-8.8-3.4c-0.6-0.4-1.3-0.8-1.9-1.2c-1.5-1.1-3.2-1.3-5-1.3c-3.5-0.1-4.9,4.3-3.7,6.5
		c0.8,1.3,1.8,2.5,2.7,3.7c0.5,0.7,1.2,0.5,1.9,0.2c1.6-0.6,3.2-1.2,5-1.1c2.1,0,4,0.9,5.8,1.8c1.6,0.8,3.2,1.8,4.8,2.6
		c0.4,0.2,0.8,0.4,1.3,0.4c4.3,0.2,8.4,1.3,12.6,2.3c0.9,0.2,1.8,0.4,2.6,0.5c1.1-1,0.9-2.7,2.2-3.6c0.7,1.5-0.5,2.6-0.5,3.9
		c0.8,0.3,1.5,0.5,2.2,0.8c0.3,0.1,0.6,0.6,0.6,0.9c-0.1,0.6-0.5,0.6-1.1,0.5c-3.7-0.9-7.4-1.8-11.1-2.6c-2.3-0.5-4.7-0.7-7.1-1
		c-0.7-0.1-1.5-0.2-2.1-0.5c-1.6-0.8-3.2-1.7-4.8-2.6c-3.2-1.8-6.4-2.2-9.8-0.8c-2.5,1-2.7,2.9-1.4,4.8c1.5,2.1,3.3,3.9,5.9,4.8
		c2.6,0.9,5.1,2.2,7.5,3.6c1.1,0.7,2.4,1,3.6,1.5c2,0.8,4,1.5,6.1,2.3c1.3-1.1,2.7-2.3,4-3.4c0.8,0.4,0.6,0.9,0.2,1.3
		c-0.8,0.9-1.7,1.8-2.5,2.7c1.7,0.6,3.3,1.2,5,1.9c4.4,1.8,8.9,3.5,13.3,5.4c2.2,0.9,4.2,2.4,6.3,3.3c3.8,1.7,7.7,3.6,11.7,4.7
		c5.9,1.7,12,3,18.1,4.4c2.2,0.5,4.5,0.6,6.7,1c1.4,0.2,2.8,0.7,4.1,1c0.2,0.1,0.3,0.3,0.5,0.4c-0.2,0.7-0.7,0.9-1.3,0.7
		c-4.6-1.3-9.3-1.2-13.9-2.5c-3.6-1.1-7.2-2.1-10.9-2.8c-5.8-1.1-11.2-3.4-16.4-6.1c-3.6-1.9-7.3-3.7-11.1-5.3
		c-1.1-0.5-2.3-0.6-3.4-1c-1.4-0.5-2.8-1.3-4.2-1.8c-4.2-1.6-8.4-3.1-12.6-4.7c-2.4-0.9-4.9-1.9-7.1-3.3c-1.1-0.7-2.3-1.2-3.6-1.6
		c-2.8-1-5.1-2.7-6.9-5.1c-1.4-1.8-1.8-3.8-0.7-5.9c-0.8-1-1.5-2-2.3-2.9c-2-2.4-2.5-4.9-1.1-7.6c-1-1.1-2.4-1.9-2.9-3.1
		c-0.5-1.1-0.1-2.6-0.1-4.1c-0.4,0.1-0.8,0.2-1.1,0.4c-18.3,9.7-36.6,19.5-54.9,29.2c-0.7,0.4-1.5,0.6-2.3,1c-1.5-2.5-3-5-4.6-7.5
		c20.3-10.7,40.6-21.3,61-32c-0.8-0.9-1.5-1.6-2.2-2.4c-1.4-1.8-1.9-3.7-1.1-5.9c0.9-2.3,2.7-3.5,5.1-3.8c1.6-0.2,3.3,0.1,4.9,0.2
		c2.7,0.2,5.3,0.5,8,0.7c2.3,0.1,4.7,0.2,7,0.2c0.5,0,1-0.1,1.5-0.3c6.5-3.3,12.9-6.7,19.4-10.1c0.1-0.1,0.3-0.2,0.5-0.4
		c-0.2-1.4-0.2-2.6-1.4-3.8c-1.9-1.8-2-5.6-0.5-8.2s2-2.8,4.7-1.4c1.3,0.7,2.5,1.5,3.8,2.3c3.9,2.2,8.1,3.5,12.6,3.8
		c5.2,0.3,10.3,1.4,15.3,3.2c3.6,1.3,7.2,2.6,11.1,2.8c2.7,0.2,5.3,0,8,0C355.4,76.4,356.6,76.4,357.9,76.4z M268.3,102.4
		c11.9-6,23.6-12,35.3-18c-1.1-1.9-2.1-3.7-3.2-5.6c-11.5,6-23,12-34.8,18.1C266.6,98.8,267.4,100.5,268.3,102.4z M248,105.5
		c-2.1,1.1-4.2,2.2-6.3,3.2c-0.8,0.4-0.9,1-0.6,1.7c0.2,0.4,0.4,0.9,0.7,1.5c-1.5-0.1-1.3-1.5-2-2.1c-2.6,1.4-5.2,2.7-7.9,4.1
		c-1.2,0.7-1.4,1-1,2.3c0.6,1.8,1.6,3.3,3.1,4.6c8-4.3,16-8.5,24.1-12.9c-0.7-1-1.4-1.9-1.9-2.9c-0.6-1-0.3-2.4-1.5-3.1
		c-1.6,0.8-3.1,1.6-4.7,2.5c-1,0.6-1.2,1.2-0.8,2.2c0.2,0.4,0.4,0.8,0.8,1.5C248.6,107.7,248.5,106.5,248,105.5z M276.7,90.3
		c0-0.1,0-0.2-0.1-0.4c-0.9-0.1-1.8-0.1-2.7-0.2c-4.6-0.4-9.2-0.8-13.7-1.2c-2-0.2-3.4,0.9-4.4,2.4s-0.8,3.2,0.2,4.7
		c0.8,1.1,1.8,2.1,2.8,3.1c0.9-0.5,1.6-0.9,2.3-1.2c0.8-0.3,1.2-0.8,1.3-1.8c0-0.8,0.4-1.6,0.6-2.4c1.5,0,1.5,0,2.9,2.4
		C269.5,94,273.1,92.1,276.7,90.3z M307.8,82.6c0,0.8,0,1.4,0,1.9c0,0.7,0.4,1.6-0.4,1.8c-0.5,0.2-1.3-0.3-1.7-0.7
		c-0.8-0.7-1.5-0.7-2.3-0.2c-1.9,1-3.8,1.9-5.6,2.8c-0.3,0.2-0.6,0.4-1.2,0.8c8.9,0.1,17.4,0.8,26.3,0.1c-0.6-0.4-0.9-0.6-1.2-0.6
		c-1.5-0.5-3-1-4.6-1.4c-2.3-0.6-4.5-1.5-6.5-3C309.8,83.6,308.9,83.2,307.8,82.6z M307.5,107.2c0-0.2,0-0.3,0-0.5
		c-3.9-0.4-7.9-0.8-11.8-1.3c-3.7-0.4-7.5-0.6-11.1-1.4c-4.1-0.9-8.2-1.6-12.4-2.3c-0.2,0-0.5,0-0.7,0.1c-0.9,0.4-1.8,0.9-2.9,1.6
		c1.9,0.8,3.5,1.3,5.2,1.4c5,0.6,10,1.1,15.1,1.6c3.8,0.4,7.6,0.7,11.4,0.9C302.6,107.4,305.1,107.2,307.5,107.2z M266.1,103.8
		c-1.3-2.2-2.4-4-3.6-6c-1.7,0.9-3.2,1.6-4.7,2.4c-1.1,0.6-1.5,1.4-1,2.5c0.7,1.6,1.5,3.2,2.9,4.4C261.9,106,263.9,105,266.1,103.8z
		 M307.9,68.7c-2.3-1.4-4.4-3.1-7-4c-0.3,0.5-0.5,0.9-0.8,1.5C302.4,67.8,305,68.7,307.9,68.7z M214,128c-0.6-1.3-1.1-2.5-1.8-4.1
		c-1,1.6,0,2.7,0.3,3.8C212.8,128.4,213.3,128.5,214,128z M206.2,132.3c-0.6-1.2-1.3-2.5-2-3.8C203.7,130.1,204.3,131.5,206.2,132.3
		z M222,123.6c-0.3-1.5-1-2.6-1.4-3.9C219.8,121.4,220.2,122.5,222,123.6z"/>
	<path class="st0" d="M325.9,112.5c0-0.9,0.5-1,0.9-1c1.2-0.2,2.4-0.5,3.7-0.6c0.5,0,1,0.1,1.4,0.3c1.1,0.7,2.1,1.4,3.1,2.2
		c2.2,1.6,4.3,3.1,6.5,4.7c1.4,1,2.7,2.3,3.7,3.7c0.9,1.3,2,2.5,3.2,4c0-0.5,0.1-0.7,0-0.9c-1.8-3.6-2.4-7.6-3.4-11.4
		c-0.7-2.7-1.2-5.5-2.7-7.9c-0.2-0.4-0.2-0.4,0.2-1.2c1,0.9,1.8,1.9,2.1,3.2c0.9,3,1.8,6,2.5,9c0.7,3.2,1.7,6.4,3.4,9.2
		c0.7,1.1,1.6,2.1,2.3,3.2c0.3,0.5,0.5,1,0.7,1.5c0.1,0.2-0.1,0.6-0.2,0.7c-0.2,0.1-0.6,0.1-0.8-0.1c-3-2.7-6.2-5.1-8.4-8.6
		c-1.1-1.7-2.6-2.9-4.1-4c-2.3-1.7-4.7-3.4-7-5.2c-1.1-0.8-2-1.4-3.5-1C328.4,112.8,327.1,112.5,325.9,112.5z"/>
</g>
<g>
	<path class="st1" d="M301.6,255.2c-0.1-0.5-0.7-0.8-1.2-0.7c-6.1,1.7-12,1.4-18.2,1c-2.8-0.2-5.5-0.4-8.3-0.6
		c-2.8-0.2-7.3,0.3-9.7-1.4c-0.3-0.9-1.7-1.1-1.9,0c-0.4,3.2-3.2,10.5-0.4,12.9c1.3,1.1,5.1,1.1,6.9,1.3c3.6,0.3,7.1,0.2,10.7,0
		c3.7-0.2,7.4-0.5,11.2-0.7c2.9-0.2,7.1,0.4,9.7-0.6C304,265.1,302.2,258.2,301.6,255.2z"/>
	<polyline class="st1" points="229.2,114.4 196,131.7 200.6,139.2 233,121.8 	"/>
</g>
<g>
	<path class="st0" d="M359.9,273.8c-2.8-0.6-5.6-1.1-8.4-1.9c-4.5-1.2-9-2.7-13.5-3.9c-1.3-0.4-2.7-0.6-4.1-0.5
		c-2.3,0-4.2,1.2-6,2.5c-0.5,0.4-1,0.5-1.7,0.2c-1.7-0.8-3.3-1.6-5.1-2.2c-3-1.1-6.2-1.4-9.4-1.7c-2.7-0.2-5.4-0.5-8.1-0.7
		c-0.1-0.7-0.2-1.2-0.2-1.8c0.2-4-0.5-7.9-1.3-11.8c-0.5-2.5-1.6-4.7-3-6.8c-1.5-2.2-3-4.5-4.6-6.7c-0.9-1.1-1.5-2.1-1.3-3.6
		c0.2-1.3-1.1-1.9-2.1-2.6c-1.7-1.3-2-3.5-0.4-5c1-0.9,0.8-2,0.7-3c-0.2-2.2-0.6-4.4-0.8-6.6c-0.1-1.2-0.3-1.6-1.5-1.6
		c-3.3,0.1-6.6,0.4-9.9,0.5c-2.4,0.1-4.7,0-7.1-0.2c-1.3-0.1-1.7,0.2-1.8,1.5c0,1.5-0.1,2.9-0.2,4.4c-0.1,1.6-0.2,3.1-0.3,4.6
		c-0.1,0.7,0.2,1.3,0.8,1.7c1.2,0.8,1.3,2.8,0.3,3.8c-0.4,0.4-0.8,0.7-1.1,1.1c-1,1.4-1.5,1.8-0.7,3c-0.1,0.2-0.3,0.3-0.4,0.5
		c-1.4,2.3-2.7,4.6-4.1,6.8c-1.9,3.1-3.1,6.4-3.9,9.9c-0.8,3.5-0.9,7-0.9,10.5c0,0.4,0,0.8,0,1.2c-0.6-0.1-1-0.2-1.4-0.4
		c-0.4-0.1-1-0.2-1.3-0.5c-1-0.8-3.5-1.1-4.3,0.5c-0.1,0.2-0.3,0.4-0.5,0.6c-0.9,1.1-1.8,2.2-2,3.7c-0.3,1.6-0.5,3.2-0.6,4.8
		c-0.1,1.3-0.1,2.6,0.5,3.7s1.3,2.2,1.9,3.4c-0.4,0.2-0.8,0.3-1.2,0.5c-2.5,1.3-4.1,3.2-4.2,6.2c-0.1,3.4,1.2,6.4,2.7,9.3
		c0.7,1.3,0.8,1.3-0.3,2.3c-1.8,1.7-2.7,4.8-0.5,7.5c1.5,1.9,2.4,4.1,2.6,6.6c0.1,0.7,0.3,1.5,0.6,2.1c0.5,0.8,1.1,1.5,1.9,2.1
		c2,1.6,3.8,3.5,6.3,4.4c0.1,0,0.2,0.2,0.3,0.3c-0.9,0.5-1.7,0.9-2.4,1.4c-0.8,0.5-1.3,1.2-1.6,2.1c-0.9,2.4,0.4,4.3,1.5,6
		c1.1,1.6,2.9,2.7,4.5,3.9c0.2,0.2,1,0.2,1.2-0.1c0.2-0.2,0.2-0.9,0-1.2c-0.8-0.9-1.6-1.8-2.5-2.5c-1.3-0.9-2.1-2-2.7-3.3
		c-0.7-1.5-0.3-2.9,1.1-3.7c0.7-0.4,1.3-0.8,2.1-1c1.1-0.2,2.3-0.4,3.1,0.8c0.2,0.3,0.6,0.4,1,0.5c0.9,0.3,1.8,0.5,2.7,0.7
		c2.2,0.5,4.4,1,6.7,1.6h0.1c2.4,0.1,4.7,0.3,7.1-0.3c3.8-0.9,7.7-1.3,11.6-2c2.3-0.4,4.5-0.3,6.7,0.2c1.9,0.4,3.7,1.1,5.6,1.6
		c0.6,0.2,1.2,0.1,1.4-0.6c0.2-0.7-0.3-1.1-0.9-1.2c-0.4-0.1-0.9-0.1-1.3-0.2c-1.4-0.4-2.7-1-4.1-1.3c-3.8-0.8-7.6-0.6-11.4-0.3
		c-3,0.2-6,0.6-9,0.6c-2.8,0-5.5-0.4-8.3-0.5c-2.2-0.1-2.1,0-2.2-2.2c-0.1-1.4-0.3-2.8-0.5-4.3c0-0.3-0.5-0.5-0.7-0.7
		c-0.2,0.2-0.5,0.5-0.6,0.8s0,0.7,0,1.1c0.1,1.6,0.2,3.2,0.3,4.9c-0.4-0.1-0.5-0.1-0.7-0.1c-4-1.1-7.8-2.6-11.1-5.2
		c-1.2-1-2.6-1.7-3.2-3.3c-0.3-0.9-0.5-1.8-0.7-2.7c-0.3-2.2-1.4-4-2.6-5.8c-0.5-0.8-0.9-1.6-1-2.5c-0.2-1.5,0.9-2.4,1.9-3.4
		c0.3,0.4,0.6,0.7,0.8,1.1c1,2.3,3.1,3.5,4.9,4.8c1.6,1.2,3.7,1.8,5.6,2.3c3,0.7,6,1.2,9.1,1.6c2.1,0.3,4.3,0.3,6.4,0.2
		c2.7-0.1,5.4-0.2,8.1-0.5c3.5-0.3,6.8,0.1,9.9,1.8c0.4,0.2,0.9,0.5,1.3,0.6c0.4,0,1-0.2,1.2-0.5c0.3-0.5,0.1-1-0.5-1.3
		c-0.4-0.2-0.9-0.3-1.2-0.6c-2.3-1.4-4.9-1.9-7.5-2c-2.3-0.1-4.5,0.2-6.8,0.2c-2.7,0-5.3,0-8-0.2c-2.9-0.2-5.8-0.4-8.7-0.8
		c-1.5-0.2-2.9-0.7-4.5-1c0.3-2.2,0.7-4.3,0.9-6.3c0-0.3-0.4-0.7-0.6-1c-0.3,0.2-0.7,0.4-0.8,0.7c-0.3,0.9-0.6,1.9-0.7,2.9
		c-0.2,1-0.3,1.9-0.4,3.1c-1.1-0.8-1.9-1.6-2.9-2c-2.3-0.9-3.3-3-4.5-4.8c-1.6-2.4-2.7-5-3.3-7.8c-0.9-4-0.2-6.3,3.7-8
		c0.4-0.2,1-0.2,1.3,0c1.9,1.2,3.8,2.5,5.6,3.7c1.2,0.8,2.2,1.9,3.5,2.5c1.4,0.6,3,1.1,4.5,1.1c4.8,0,9.6-0.2,14.4-0.4
		c2.2-0.1,4.3-0.3,6.5-0.5c1.4-0.2,2.9-0.6,4.2-1c0.3-0.1,0.4-0.7,0.7-1.1c-0.4-0.2-0.8-0.6-1.2-0.6c-0.6,0-1.2,0.2-1.8,0.3
		c-2.5,0.3-5,0.5-7.6,0.8c-1.2,0.1-2.5,0.2-3.7,0.1c-3.4-0.2-6.7-0.4-10.1-0.7c-1.7-0.2-3.5-0.6-5.2-0.9c-0.2,0-0.6-0.3-0.6-0.5
		c-0.1-2.1-0.1-4.2,1.2-6c0.2-0.3,0.6-0.7,0.7-1c0.1-0.2,0.1-0.6,0-0.8c-0.1-0.2-0.6-0.3-0.8-0.2c-0.3,0.1-0.6,0.3-0.8,0.6
		c-1,1.3-1.8,2.8-1.9,4.6c-0.1,0.8-0.1,1.6-0.2,2.5c-0.5-0.3-0.9-0.5-1.3-0.7c-1.6-1-3.2-1.9-4.7-3c-1.9-1.3-3.6-3.1-3.8-5.4
		c-0.3-3.5-0.4-7.1,2.3-10c0.7-0.7,1-0.8,1.9-0.5c0.8,0.4,1.7,0.6,2.6,0.9c0.7,0.2,1.4,0.3,2.1,0.6c2.3,1.1,4.8,1.2,7.3,1.4
		c2.7,0.2,5.4,0.3,8.2,0.2c3.9,0,7.8-0.2,11.7-0.4c1.9-0.1,3.7-0.4,5.5-0.5c2.8-0.2,5.6-0.2,8.3-0.4c1.5-0.1,2.8-0.6,4.4-0.2
		c2.6,0.5,5.3,0.6,7.9,0.8c3.6,0.3,6.9,1.2,10.1,2.7c3.9,1.9,7.9,3.7,11.8,5.6c1.5,0.7,3.2,0.7,4.8,0.6c0.3,0,0.7-0.3,0.7-0.6
		c0.1-0.3-0.1-0.8-0.3-1c-0.3-0.2-0.7-0.3-1.1-0.3c-1.5,0.1-2.9-0.2-4.2-0.8c-2.1-1-4.2-2-6.2-2.9c-0.2-0.1-0.4-0.2-0.8-0.4
		c1.3-0.7,2.5-1.4,3.7-1.7c1-0.3,2.3-0.5,3.3-0.2c3,0.7,6,1.5,8.9,2.5c4.1,1.3,8.2,2.5,12.4,3.4c1.1,0.2,2.1,0.4,3.1,0.7
		C360.1,275.1,360,274.5,359.9,273.8z M271.5,226.9c0.2-2.8,0.5-5.6,0.7-8.5c0.1,0,0.3-0.1,0.5,0c3.2,0.9,6.5,0.6,9.6,0
		c1.8-0.3,3.5-0.1,5.2-0.2c0.9-0.1,1.1,0.4,1.1,1.7c0,0.8-0.6,0.6-1.1,0.6c-0.9,0.1-1.8,0.1-2.7,0.1c-0.6,0-1.1,0.4-0.9,1
		c0.1,0.3,0.6,0.6,1,0.7c1.2,0.1,2.3,0,3.5,0c0.2,0,0.4,0.2,0.7,0.3c-0.2,0.2-0.4,0.4-0.6,0.5c-0.8,0.2-1.6,0.2-2.3,0.3
		c-0.3,0-0.7,0-1,0.1c-0.3,0.2-0.5,0.5-0.8,0.7c0.3,0.2,0.6,0.6,0.9,0.6c1.2,0,2.4-0.1,3.5-0.2c0.4,0,0.9-0.4,1,0.4
		c0.1,0.7-0.3,1.1-0.9,1.2c-1.4,0.3-2.8,0.6-4.2,0.6c-2.5,0.1-5,0-7.6,0c-1.6,0-3.2,0-4.9,0C272,227,271.9,226.9,271.5,226.9z
		 M273.3,228.9c0.8,0,1.7-0.1,2.5,0c3.2,0.4,6.3,0.3,9.5-0.2c0.2,0,0.5-0.1,0.7-0.1c1.6-0.1,2,0.3,1.9,1.9c0,0.2-0.3,0.6-0.5,0.6
		c-1.3,0.2-2.7,0.4-4,0.4c-2.2,0-4.4-0.2-6.6-0.3c-0.9,0-1.8,0-2.7,0.1c-0.6,0.1-0.9-0.2-0.9-0.8
		C273.3,229.9,273.3,229.4,273.3,228.9z M271.1,234.8c1-1.3,2.1-2.1,3.9-1.9c2.3,0.3,4.7,0.4,7,0.4c2,0,3.9-0.3,5.9-0.5
		c0.6-0.1,1.2-0.1,1.7,0.4c0.5,0.4,1.1,0.7,1.5,1.2c0.3,0.3,0.4,0.8,0.4,1.2c0,0.2-0.6,0.5-0.9,0.5c-1.8,0.1-3.6,0.2-5.5,0.3
		c0-0.1,0-0.2,0-0.3c-3.5,0-7.1,0-10.6,0c-1,0-1.9-0.1-2.9-0.2c-0.3,0-0.6-0.2-0.7-0.4S271,235,271.1,234.8z M265.8,245.4
		c1.4-2.2,2.7-4.5,4-6.7c0.5-0.9,1.1-1.2,2.2-1.2c5.6,0.2,11.1,0.3,16.7,0.4c0.6,0,1.2-0.1,1.7-0.1c1.1-0.2,1.9,0.3,2.6,1.4
		c1.6,2.4,3.4,4.8,5,7.3c0.9,1.4,1.6,3,2.4,4.5c-2.7-0.4-5.2-0.8-7.7-1.2c-1.1-0.2-2.3-0.2-3.5-0.2c-1.6-0.1-3.2-0.1-4.9-0.2
		c-3.1-0.1-6.2-0.3-9.2-0.3s-6,0.4-8.8,1.5c-0.9,0.3-1.8,0.7-3,1.1C263.9,249.2,264.6,247.3,265.8,245.4z M299.7,253.3
		c-1.5,0.3-3,0.9-4.5,1c-3.9,0.1-7.8,0.1-11.7,0c-3.7-0.1-7.3-0.1-11-0.4c-2-0.1-3.9-0.6-5.9-1c-0.3-0.1-0.6-0.3-1.1-0.4
		c0.3-0.2,0.5-0.3,0.7-0.3c2.4-0.4,4.8-1,7.3-1.2c2.4-0.2,4.9,0.1,7.3,0c3.2,0,6.5,0.2,9.7,0.7c2,0.3,4.1,0.2,6.1,0.5
		c1.1,0.1,2.1,0.5,3.1,0.7C299.7,253,299.7,253.1,299.7,253.3z M300.3,265.7c-3.1,0.2-6.3,0.5-9.4,0.8c-2.4,0.2-4.9,0.3-7.3,0.4
		c-3.8,0.1-7.6,0.3-11.4,0.2c-2.9-0.1-5.9-0.4-8.8-0.8c-1.6-0.2-1.8-0.5-1.7-2.1c0.1-2.1,0-4.3,0.2-6.4c0.1-1.4,0.5-2.9,0.7-4.4
		c1.4,0.4,2.6,0.9,3.8,1.2c5.7,1.4,11.4,1.8,17.2,1.6c3-0.1,6.1,0,9.1,0c2.4,0.1,4.7,0,6.9-1.1c0.3-0.2,0.7-0.3,1.3-0.4
		c0.2,1.5,0.5,2.9,0.6,4.3c0.1,1.8,0.1,3.5,0.2,5.3C301.7,265.5,301.4,265.6,300.3,265.7z"/>
</g>
</svg>
