<?xml version="1.0" encoding="utf-8"?>
<!-- Generator: Adobe Illustrator 21.1.0, SVG Export Plug-In . SVG Version: 6.00 Build 0)  -->
<svg version="1.1" id="Layer_1" xmlns="http://www.w3.org/2000/svg" xmlns:xlink="http://www.w3.org/1999/xlink" x="0px" y="0px"
	 viewBox="0 0 367.3 500" style="enable-background:new 0 0 367.3 500;" xml:space="preserve">
<style type="text/css">
	.st0{fill:#FFC107;}
	.st1{fill:#03A9F4;}
</style>
<g>
	<path class="st0" d="M0,184.2C-1,104.6,53.7,30.3,130.1,7.9c90.5-26.6,182.7,15.6,221.6,101.6c12.9,28.5,17.1,58.5,15.2,89.7
		c-3.7,58.3-24,110.8-54.5,159.8C279,412.5,236.8,458.3,188,498c-3.2,2.6-5.2,2.7-8.4,0C121.6,450.6,72.9,395.4,38,328.7
		C19.3,292.8,6.7,254.9,2.1,214.6C0.9,204.5,0.7,194.3,0,184.2z M181.5,38.4C103,38,38.7,102,38.4,180.7
		c-0.3,79.5,63.4,143.6,143,144c77.6,0.4,142.8-63.9,143.1-140.9C324.9,102.6,261.9,38.7,181.5,38.4z"/>
	<g id="hospital-icon">
		<path class="st1" d="M245.6,173.1c0,15.2,0,30.4,0,45.7c0,11.1-8,19.2-19.2,19.2c-27.2,0-54.6,0-81.8,0
			c-10.1-0.2-17.7-6.6-19.1-16.2c-0.2-0.8-0.2-1.7-0.2-2.4c0-30.8,0-61.8,0-92.6c0-9.2,6.2-16.7,15-18.5c1.4-0.3,2.7-0.3,4.1-0.3
			c27.4,0,54.7,0,81.9,0c11.3,0,19.2,8.1,19.2,19.1C245.6,142.4,245.6,157.7,245.6,173.1z M242.8,172.9c0-15.5,0-30.8,0-46.3
			c0-8.7-7.1-15.6-15.6-15.6c-27.7,0-55.5,0-83.1,0c-0.9,0-1.8,0-2.7,0.3c-7.7,1.5-12.9,7.8-12.9,15.8c0,30.7,0,61.2,0,91.8
			c0,9.5,6.8,16.4,16.2,16.4c27.2,0,54.3,0,81.5,0c10.1,0,16.7-6.6,16.7-16.8C242.8,203.1,242.8,187.9,242.8,172.9z"/>
		<path class="st1" d="M239.3,172.9c0,15.2,0,30.4,0,45.7c0,7.8-5.3,12.9-12.9,12.9c-27.2,0-54.3,0-81.5,0
			c-8.1,0-13.2-5.1-13.2-13.2c0-30.2,0-60.4,0-90.6c0-8.3,5.1-13.4,13.4-13.4c27.1,0,54,0,81,0c8.1,0,13.2,5.1,13.2,13.2
			c0,0.5,0,0.9,0,1.4C239.3,143.5,239.3,158.2,239.3,172.9z M169.7,179.4c4.5,0,9,0,13.4,0c5.4,0,10.8,0.2,16.2,0
			c1.7,0,2.1,0.3,2.1,2.1c-0.2,10.5,0,21,0,31.6c0,2.3,0,2.3,2.3,2.3c5,0,9.9,0,14.9,0c2.3,0,2.3,0,2.3-2.3c0-15.3,0-30.5,0-45.8
			c0-11.6,0-23.3,0-34.9c0-1.4-0.3-2-1.8-2c-5.1,0.2-10.4,0.2-15.5,0c-1.5,0-2.1,0.5-2,2c0,9.5,0,18.8,0,28.3c0,0.8,0,1.4,0,2
			c-10.7,0-21,0-31.6,0c0-0.8,0-1.4,0-2.1c0-9.5,0-18.9,0-28.4c0-1.4-0.3-1.8-1.7-1.8c-5.1,0.2-10.4,0-15.5,0c-2.1,0-2.1,0-2.1,2.1
			c0,15.8,0,31.6,0,47.3c0,11.1,0,22.4,0,33.5c0,1.4,0.5,1.8,1.8,1.8c5.3,0,10.4-0.2,15.6,0c1.7,0,2-0.5,2-2c0-10.5,0-21.2,0-31.7
			C169.7,180.9,169.7,180.3,169.7,179.4z"/>
	</g>
</g>
</svg>
