<?xml version="1.0" encoding="utf-8"?>
<!-- Generator: Adobe Illustrator 21.1.0, SVG Export Plug-In . SVG Version: 6.00 Build 0)  -->
<svg version="1.1" id="Layer_1" xmlns="http://www.w3.org/2000/svg" xmlns:xlink="http://www.w3.org/1999/xlink" x="0px" y="0px"
	 viewBox="0 0 367.3 500" style="enable-background:new 0 0 367.3 500;" xml:space="preserve">
<style type="text/css">
	.st0{fill:#FFC107;}
	.st1{fill:#673AB7;}
</style>
<g>
	<path class="st0" d="M0,184.2C-1,104.6,53.7,30.3,130.1,7.9c90.5-26.6,182.7,15.6,221.6,101.6c12.9,28.5,17.1,58.5,15.2,89.7
		c-3.7,58.3-24,110.8-54.5,159.8C279,412.5,236.8,458.3,188,498c-3.2,2.6-5.2,2.7-8.4,0C121.6,450.6,72.9,395.4,38,328.7
		C19.3,292.8,6.7,254.9,2.1,214.6C0.9,204.5,0.7,194.3,0,184.2z M181.5,38.4C103,38,38.7,102,38.4,180.7
		c-0.3,79.5,63.4,143.6,143,144c77.6,0.4,142.8-63.9,143.1-140.9C324.9,102.6,261.9,38.7,181.5,38.4z"/>
	<g>
		<path class="st1" d="M210.6,175.4c5.6,5.7,10.5,10.8,15.5,15.8c3.9,3.9,7.9,4.3,11,1.3c3.1-3,2.8-7.2-1-11
			c-8.6-8.6-17.2-17.2-25.8-25.8c-3.2-3.3-6.9-5-11.6-5c-7.1,0.1-14.2,0.1-21.3,0c-4.6-0.1-8.4,1.5-11.7,4.8
			c-8.2,8.2-16.4,16.4-24.6,24.6c-5,5-5.8,9-2.6,12.3c3.4,3.5,7.4,2.7,12.6-2.5c4.6-4.7,9.3-9.3,14.5-14.5
			c0.6,8.4,0.5,15.5-2.7,22.5c-3.1,6.8-5.3,13.9-8,21.3c22.4,0,43.9,0,65.7,0C217.3,204.6,207.2,192.1,210.6,175.4z"/>
		<path class="st1" d="M207.8,259.5c-0.1,5.7-3.6,9.4-8.6,9.5c-5,0.1-8.7-3.6-8.8-9.3c-0.1-7.6-0.1-27.9-0.1-35.6h17.4
			c0,2.2,0,17.1,0,19.3h0C207.9,248.8,207.9,254.1,207.8,259.5z"/>
		<path class="st1" d="M185.2,261.6c-0.1,4.2-4.1,7.3-8.3,7.4c-4.3,0.1-8.5-3.2-8.6-7.6c-0.2-8.2-0.2-29.1-0.2-37.3h17.1
			C185.3,232.5,185.4,253.4,185.2,261.6z"/>
		<path class="st1" d="M204.5,121.7c0,0,2.7-1.9,4.6,0.2c2.2,2.5,1.3,6.7,1.5,10.1c0.3,5.8,1.4,11.3,7.5,13.6
			c6.3,2.4,10.9-1,15.1-5.4c-6.6-3.5-6.5-3.5-6.9-10.7c-0.1-2.5-0.4-5.1-0.9-7.5c-2.6-12.6-10.7-16.2-21.8-9.9l-4.8,3l-0.3-0.1
			c-0.1,0-0.2-0.1-0.3-0.1c-2.9-1.9-6.5-3-10.3-3c-3.7,0-7.2,1.1-10.1,2.9c-0.1,0.1-0.3,0.2-0.4,0.3c-6.5,4.5-8.2,13.4-4,20.1
			c0.7,1.1,1.5,2.2,2.3,3.2c5,5.9,14.9,16.5,26.9-3.5C205.1,130.6,206.8,126,204.5,121.7C204.5,121.7,204.5,121.7,204.5,121.7
			L204.5,121.7"/>
	</g>
</g>
</svg>
