<?xml version="1.0" encoding="utf-8"?>
<!-- Generator: Adobe Illustrator 21.1.0, SVG Export Plug-In . SVG Version: 6.00 Build 0)  -->
<svg version="1.1" id="Layer_1" xmlns="http://www.w3.org/2000/svg" xmlns:xlink="http://www.w3.org/1999/xlink" x="0px" y="0px"
	 width="180px" height="115.6px" viewBox="0 0 180 115.6" style="enable-background:new 0 0 180 115.6;" xml:space="preserve">
<style type="text/css">
	.st0{fill:#F44336;}
	.st1{fill:#BBBBBB;}
</style>
<g>
	<path class="st0" d="M100.3,10.2c0,0.1,0,0.1,0,0.2c-1.1,0.5-2.1,1.1-3,1.8c-0.2-0.3-0.5-0.5-0.7-0.8c-0.2,0.4-0.4,0.9-0.9,1.1
		c2.6,2.3,5,4.8,7.3,7.4c0.9,0.1,1.7-0.2,2.5-0.2c-0.1-0.1-0.1-0.2-0.2-0.3c2.6,0.9,5.4-1.9,5.2-4.6c-0.2-2.8-2.9-4.9-5.6-5.2
		c-1.2-0.1-2.5,0-3.6,0.4c0,0,0-0.1,0-0.1c-0.3,0.1-0.7,0.1-1,0.2C100.3,10.1,100.3,10.2,100.3,10.2z M104.1,11.2
		c1.7-0.6,3.8,0.2,4.8,1.7c0.4,1.2,0.4,2.6,0,3.9c-1,1.1-2.4,1.7-3.8,2.2c-0.2,0.1-0.4,0.2-0.6,0.1c-0.2,0-0.4-0.2-0.5-0.3
		c-2.1-2-4.2-4.1-6.3-6.2C99.9,12.4,102,11.9,104.1,11.2z"/>
	<path class="st0" d="M69.1,28.9c0.3-0.1,0.6-0.2,0.9-0.3c4-0.9,8-1.9,12-2.8c0.1,0,0.1,0.1,0.2,0.1c0.5-0.3,1-0.5,1.5-0.6
		c-2.7-3.2-4.9-7-5.3-10.9c-0.5,0-0.8,0.2-1.1,0.5c0,0.1,0,0.2,0,0.4c0,0.1-0.1,0.2-0.1,0.2c-0.3,0.1-0.5,0.1-0.8,0.2
		c-0.2,0.1-0.4,0.2-0.7,0.1c-0.5,0.1-0.9,0.2-1.4,0.3c-1.2,0.2-2.4,0.5-3.6,0.7c-1.3,0.3-2.6,0.5-4.1,0.9c0-0.1-0.1-0.2-0.1-0.2
		c-0.3,0.1-0.6,0.1-1,0.1c0.1,0.1,0.3,0.2,0.4,0.2c-10.5,2.4-21,4.8-31.5,7.2c-2.1,0.5-4.2,1-5.9,2.2c-7.3,5.1-17.1,5.1-25.4,8.4
		c-1.6,0.7-3.4,2-3,3.6c9.6,2.6,19.5-5,29.3-3.2c4.6,0.8,9.2-0.2,13.7-1.2c8-1.8,15.9-3.6,23.8-5.3c0,0.1,0,0.1-0.1,0.2
		c-0.1,0-0.2,0.1-0.2,0.1c0.7-0.2,1.5-0.3,2.2-0.5C68.8,29.2,68.9,29,69.1,28.9z M15.7,33c2-0.4,4.1-0.9,6.1-1.3
		c1.8-0.4,3.7-0.8,5.3-1.8c1.2-0.8,2.2-1.9,3.5-2.6c0.8-0.4,1.7-0.6,2.5-0.8c14.8-3.3,29.7-6.7,44.6-10.1c0.6,1.5,1.1,2.9,1.7,4.3
		c-0.6-0.1-1.3,0.1-1.8,0.5c-0.2-0.2-0.5-0.2-0.7,0c-0.1,0-0.1,0.1-0.2,0.1c0-0.3,0.1-0.6,0.2-0.9c0,0,0,0,0-0.1
		c0-0.1,0.1-0.1,0.1-0.2c-0.2-0.4-0.4-0.8-0.5-1.2c-0.2-0.1-0.5,0-0.6,0.2c-0.3,0.4-0.3,1.1-0.1,1.6c-0.1,0.3-0.1,0.7-0.1,1
		c-0.2,0-0.5-0.1-0.7-0.1c-0.3,0-0.5,0-0.8,0.1c-0.1-0.1-0.2-0.1-0.4-0.1c-0.4,0.1-0.9,0.3-1.3,0.4c0.1-0.4,0.2-0.7,0.3-1.1
		c0,0,0,0,0.1-0.1c0,0,0-0.1,0-0.1c0.1-0.2,0-0.4-0.1-0.5c-0.1-0.2-0.2-0.4-0.3-0.5c-0.2,0-0.4,0-0.6,0.1v1
		c-0.2,0.5-0.3,0.9-0.4,1.4c0,0-0.1,0-0.1,0c-0.4-0.1-0.8-0.1-1.1,0.1c-0.3,0-0.6,0-0.8,0.2c-0.1,0.1-0.3,0.2-0.4,0.4
		c-0.2-0.8-0.3-1.7-0.4-2.4h-0.9c-0.1,0.9-0.1,1.8,0,2.7c-0.7-0.1-1.4,0.1-2,0.6c-0.5,0-0.9,0-1.4-0.1c0-0.1,0-0.1,0-0.2
		c0,0,0.1,0,0.2,0v-1.2c0.1-0.5-0.8-0.8-1-0.4c-0.1,0.4-0.1,0.8-0.1,1.1c-0.1,0.2-0.1,0.5-0.2,0.7c-0.9-0.2-1.8,0-2.5,0.7
		c-0.1-0.8-0.2-1.6-0.3-2.4c-1,0.2-1.2,1.8-0.4,2.4c-0.9,0.3-1.9,0.5-2.8,0.7c-0.1-0.4-0.2-0.8-0.4-1.2c-0.1-0.3-0.3-0.4-0.6-0.3
		c-0.2,0-0.4,0-0.5,0c0.1,0.4,0.1,0.7,0.2,1.1c0,0,0.1,0,0.1,0c0.1,0.2,0.1,0.4,0.2,0.6c-0.8,0.2-1.6,0.4-2.4,0.6l-0.2-1.1
		c0.1-0.4,0-0.8,0-1.1c-0.4,0.2-0.7,0.3-1,0.5c-0.1,0.2,0,0.5,0,0.8c0.1,0.4,0.1,0.8,0.2,1.1c-1,0.2-2,0.4-3,0.7
		c-0.2-0.3-0.3-0.7-0.2-1.1c-0.3-0.2-0.7-0.3-1.1-0.4c0,0.5-0.1,1-0.1,1.5c-0.8,0.5-1.8,0.7-2.8,0.5c0.2-0.4,0.3-0.8,0.2-1.2
		c-0.1-0.4-0.6-0.7-0.9-0.5c-0.3,0.6-0.1,1.5,0.4,1.9c-1.1,0.2-2.2,0.3-3.2,0.5c0.1-0.8-0.2-2.1-1-1.9c-0.4,0.7-0.3,1.6,0.2,2.2
		c-8.6,2.1-17.2,4-25.8,5.8C15.7,33.7,15.7,33.4,15.7,33z M37.5,34.4c-2.7,0.6-5.7,1.2-8.2,0c-1.6-0.7-3.6-0.3-5.4,0.1
		c-2.8,0.7-5.5,1.3-8.3,2c0.1-0.9,1.3-1.3,2.2-1.5c7.9-1.7,15.9-3.4,23.8-5.1c-0.1,0.6,0.1,1.3,0.5,1.8c0.5,0.2,0.5-0.8,0.6-1.4
		c0.1-1,1.6-1.5,2.3-0.8c0.4,0.4,0.7,1.1,1.3,1c-0.2-0.7,0.2-1.6,0.9-2c0.7-0.4,1.6-0.2,2.2,0.3c-0.4,0.6,0.6,1.4,1.1,0.9
		c0-0.6-0.1-1.1-0.4-1.6c1.2-0.8,3.1-0.7,4.1,0.4c0.3-0.3,0.3-0.7,0.1-1c0.6-0.5,1.5-1,2.1-0.6c0.6,0.5,1,1.6,1.6,1.2
		c0.2-0.6,0.3-1.2,0.2-1.8c0.5-0.3,1-0.5,1.5-0.4c0.5,0.1,1,0.6,0.9,1.1c-0.1,0.5,0.9,0.5,1.1,0s-0.3-1-0.7-1.4
		c1.1-0.4,2.6-0.7,3.3,0.3c0.3,0.5,1,1.2,1.2,0.7c0-0.7-0.2-1.3-0.6-1.8c0.4,0,0.8,0.1,1.2,0c0.2,0,0.3-0.1,0.4-0.2
		c0.5,0,1-0.1,1.5-0.2c0.2,0.4,0.5,0.9,0.7,1.3c0.2,0.1,0.5,0.1,0.7,0c-0.1-0.6-0.1-1.1-0.2-1.7c0,0,0,0,0.1,0
		c0.2-0.1,0.4-0.4,0.7-0.6c0.3,0.1,0.7,0.1,1.1,0.1c0.4,0,0.9,0.1,1.1,0.5c0.3,0.6,0.8,1.3,1.4,1.1c0.1-0.7-0.1-1.5-0.4-2.2
		c0.4-0.1,0.7-0.2,1.1-0.3c0,0,0.1,0,0.1,0c0.6,0,1.2,0,1.8,0c0,0,0,0,0.1,0c0,0.6,0.2,1.2,0.6,1.6c0.2-0.1,0.4-0.2,0.6-0.3
		c0.3-0.4,0.1-1.1-0.2-1.5c0.2-0.1,0.4-0.2,0.6-0.4c0.1-0.1,0.1-0.2,0.2-0.3c1.7-0.2,3.4,1.4,4.6,2.7C67.3,27.7,52.4,31,37.5,34.4z"
		/>
</g>
<g>
	<path class="st1" d="M142.8,16c-1.8-4.4-6.8-6.4-11.3-8c-4.7-1.6-9.4-3.2-14.1-4.7c-5-1.5-10-3-15.2-3.4C90.7-0.9,79.8,4.1,69.4,9
		c-1.8,0.9-3.8,1.9-4.8,3.6c-1,1.7-0.7,4.1,0.8,5c0.4,0,0.7-0.1,1-0.1c-0.1-0.3-0.2-0.6-0.3-0.9c-0.1-0.4-0.3-0.8-0.6-1.1
		c0,0,0-0.1,0-0.1c0-0.1,0-0.2,0-0.3c0,0,0,0,0,0c0.1-0.1,0.2-0.3,0.2-0.4c0.1-0.2,0.1-0.3,0.2-0.5c0,0,0.1,0,0.1,0.1
		c1.5-2,3.1-4,5.4-5c2.3-1.1,4.7-2,7.2-2.9c-0.8,0.8-1,2.1-1.3,3.2c-0.4,1.7-0.4,3.5-0.1,5.3c0.3-0.3,0.6-0.5,1.1-0.5
		c-0.2-1.6-0.1-3.3,0.4-4.9c0.6-1.9,1.9-3.9,3.9-4c1.5-0.1,2.9,1,4.1,2c2.8,2.3,5.8,5.8,4.2,9c-1,2.1-3.7,2.9-6,2.4
		s-4.1-2.1-5.7-3.9c1,4.6,7.8,6.7,11.3,3.4c2.8-2.7,2.2-7.6-0.5-10.1c2,1.2,3.8,2.7,5.6,4.2c0.6-0.2,0.7-0.7,0.9-1.1
		c-3.1-3.5-7.2-6-11.7-7.1c4.2-2.1,8.8-3.3,13.5-3.4c0.6,2.8,1.3,5.8,1.9,8.7c0,0.2,0,0.3,0,0.5c0.3,0,0.7-0.1,1-0.2
		c0.1-0.8,0.1-1.7,0.1-2.5c0-0.2-0.1-0.3-0.2-0.4c0.1-2.2-0.5-4.5-1.7-6.4c10.2,1.2,20.1,4.7,29.8,8.1c3.8,1.4,7.7,2.8,10.5,5.7
		c2.3,2.3,3.5,5.3,4.8,8.3c7.3,16.9,15.7,33.4,25.1,49.3c2.9,4.7,5.9,9.6,10.2,13C165.5,63.2,153.1,40,142.8,16z"/>
	<path class="st1" d="M103,19.9c0.1,0.1,0.1,0.2,0.2,0.2c-0.1,0.1-0.2,0.2-0.2,0.4c0,0.2-0.1,0.4-0.2,0.6c-0.4,0-0.8,0.7-1,1.1
		c-0.4,1.3-1.2,2.5-2.4,3.3c-0.4,0.3-0.9,0.5-1.2,0.9c-0.3,0.4-0.4,1-0.2,1.4c2-0.9,3.7-2.3,4.7-4.2c0.2-0.4,0.3-0.8,0.4-1.2
		c0.4-0.4,0.6-0.9,0.7-1.5c0.8,0.9,1.7,1.8,2.5,2.7c-0.3,0.4-0.5,0.9-0.8,1.4c-0.2,0.4-0.5,0.8-0.8,1c0,0,0,0,0-0.1
		c-0.7,0.2-1,0.9-1.4,1.4c-0.8,1.3-1.9,2.3-3.2,3.1c-1.3,0.8-2.9,1.3-4.4,1.8v0.6c1.1,0.4,2.4,0.1,3.5-0.4c0.6-0.3,1.2-0.7,1.8-1.1
		c0.6-0.5,1.3-1,1.9-1.5c0.8-0.7,1.6-1.6,1.8-2.7c0,0,0,0,0.1,0c0.6-0.3,1-0.7,1.4-1.2c0.3-0.5,0.5-1.1,0.9-1.6c0,0,0.1,0.1,0.1,0.1
		c6.1,6.4,13.2,12.7,21.9,14c-3-1.7-5.9-3.3-8.9-5c2.3-5.7,5.9-10.9,10.3-15.2c-5.7,2.9-9.8,8.6-10.8,14.9
		c-3.8-2.4-7.4-5.1-10.6-8.3c2.9-4.6,5.8-9.1,8.6-13.6c-4.3,3.2-7.5,7.8-9.3,12.8c-1-1.5-2-2.9-2.9-4.4
		C104.7,19.7,103.9,20,103,19.9z"/>
	<path class="st1" d="M145.3,97.6c1.7-0.9,3.5-1.4,5.3-1.5c3.7-0.3,7.2-1.5,10.3-3.5c0.3-0.2,0.6-0.4,0.7-0.7
		c-0.7-0.6-1.7-0.1-2.5,0.3c-1.3,0.7-2.6,1.2-4,1.7c-0.9,0.4-1.7,0.7-2.6,0.8c-0.7,0.1-1.5,0-2.2,0.1c-1.8,0.2-3.5,0.8-5.2,1.5
		c-0.5,0.2-1,0.5-1.3,0.9c-1.5,0.9-3,1.8-4.6,2.5c0,0,0,0-0.1,0c-0.7-0.8-1.3-1.6-2.1-2.4c-3.1-3.2-6.8-5.8-9.8-9.1
		c-1.6-1.7-3-3.7-4.3-5.6c-2.5-3.5-4.9-7-7.4-10.5c-3.2-4.6-6.5-9.2-9.1-14.2c0.8-1,1.7-2,2.6-3c-3.6,2.1-8.8,0.4-10.5-3.4
		c1.7-2.3,3.4-5.6,1.6-7.8c0.5,2.4-0.6,5.2-2.8,6.5c-2.2,1.4-5.2,1.1-7.1-0.5c1.1-0.9,1.6-2.6,1.1-3.9c-2.1,3.7-5.7,6.2-9.3,8.6
		c-1.7,1.1-3.8,2.3-5.7,1.6c-1.9-0.6-2.2-4.2-0.1-4.3c3.1-0.1,4.9-3.4,7-5.8c4.6-5.4,13.4-6.4,19.2-2.2c6.4,4.7,7.7,13.3,10.7,20.6
		c4.1,10.1,12.3,18.6,22.4,23c-11.7-7.6-21.4-19-24.6-32.5c2.8,3.2,7.4,4.5,11.4,3.2c-4,0.9-8.1-1.6-10.8-4.7
		c-2.7-3.1-4.7-6.9-7.6-9.8c-2.9-2.9-7.4-4.9-11.2-3.3c0.3-1.2,0-2.6-0.8-3.5c-0.1,3.2-3.7,5.7-6.7,4.7c-1.6,2.7-3.6,5.2-6,7.3
		c-1.8,1.5-4,2.8-6.2,2.1c-2.2-0.7-2.7-4.5-0.5-5c0.6-0.2,1.1-0.5,1.5-1c0.1,0,0.2-0.1,0.3-0.2c0.1-0.2,0.2-0.5,0.3-0.8
		c0.6-1.6,0.3-3.7-1.3-4.5c4.5-3.1,9-6.1,13.5-9.2c4.3,3.3,8.6,6.5,12.8,9.8c-4-5.2-9.7-8.7-14.5-13c-0.5-0.5-1-1.1-1.5-1.7
		c-0.5,0.1-1,0.3-1.5,0.6c1.6,0.9,3.1,2.1,4.3,3.5c-4.8,2.6-9.3,5.6-13.5,9c-0.9,0.6-1.9,0.9-2.9,1.1c-1.6,0.3-3.6,0.4-4.5-0.9
		c-0.8-1.1-0.3-2.6,0.4-3.7c0.7-1.1,1.7-2,2-3.3c0.2-0.7,0.3-1.6,0.7-2.2c-0.7,0.2-1.5,0.3-2.2,0.5c0,0,0,0,0,0
		c-0.1,0.1-0.1,0.2-0.2,0.3c-0.2-0.1-0.5,0.1-0.7,0.2c-0.8,0.6-1.5,1.4-2,2.3c-0.3,0.7-0.5,1.4-0.6,2.1c-0.3,0.8-0.5,1.5-0.4,2.2
		c0,0,0,0-0.1-0.1c0,2,1.9,3.6,3.9,4c2,0.3,4-0.2,6-0.8c-1.3,2.2-2.8,4.5-2.8,7.1c0,2.6,2,5.3,4.6,5.1c-1.5,1.3-0.6,4.2,1.3,5
		c1.9,0.8,4.1,0.1,5.9-1c1.7-1.1,3.3-2.6,5.1-3.5c4-2,8.9-1.1,12.7,1.2s6.7,5.9,9.2,9.5c6.8,9.7,12.3,20.5,20.9,28.6
		c3.5,3.3,7.4,6.1,10.1,10.1c3.1,4.6,4.4,10.6,9,13.6c-1.5-3.1-2.9-6.1-4.6-9.1c0.5,0,1-0.2,1.5-0.5c0.8-0.4,1.7-0.9,2.5-1.3
		c0,0,0,0,0.1-0.1c1.3-0.4,2.5-1.2,3.8-1.3c1-0.1,2.1,0.2,3-0.3c2.4,0.2,4.9-0.8,6.4-2.6c-0.7-0.6-1.8,0-2.8,0.6
		c-1.5,0.8-3.1,1.2-4.8,1.1c-1.6-0.1-3.2,0.2-4.7,0.8c-0.4,0.2-0.9,0.5-1.2,0.9c-0.1,0-0.1,0-0.2,0.1c-0.6,0.3-1.2,0.6-1.7,0.9
		c-0.5,0.2-1.4,0.9-1.9,0.8c-0.2,0-0.3,0-0.4,0.1c-1.1-1.8-2.2-3.6-3.5-5.2c1.6-0.8,3.2-1.7,4.8-2.7
		C144.8,97.8,145.1,97.7,145.3,97.6z M70.7,45.9c0.7-1.5,1.4-3,2.1-4.5c0.1,0,0.2,0.1,0.4,0c1.2-0.5,0.6,2.3,0.4,2.8
		c-0.8,0.2-1.5,0.6-1.9,1.3C71.4,45.8,70.9,46.2,70.7,45.9z"/>
</g>
</svg>
