<?xml version="1.0" encoding="utf-8"?>
<!-- Generator: Adobe Illustrator 21.1.0, SVG Export Plug-In . SVG Version: 6.00 Build 0)  -->
<svg version="1.1" id="Layer_1" xmlns="http://www.w3.org/2000/svg" xmlns:xlink="http://www.w3.org/1999/xlink" x="0px" y="0px"
	 width="250px" height="172px" viewBox="0 0 250 172" style="enable-background:new 0 0 250 172;" xml:space="preserve">
<style type="text/css">
	.st0{fill:#BBBBBB;}
</style>
<g id="snoring-man">
	<path class="st0" d="M241.7,103.3c2.7,1.7,5.5,4.3,8.3,3.5c-5-5.7-12.5-9-20.2-9L243.7,84c2.3-2.5,5-5.5,4.8-8.8
		c0-3.2-2.7-5.7-5.2-7.7c-10.2-8-22.7-12.5-35.6-13c1.7-2.7-2.5-4.8-5.7-5c-8.3-0.5-16.8-1-25.2-1.5c1.8-19.2-12.5-38.3-31.5-41.8
		c9.3,4.8,18,11.5,24.8,20.2c1.3,1.5,2.5,3.2,2.7,5s-1,4.2-3,4.3c-7.2,1-7.2,13.5-14,15c-4.8,1-8.5,4.7-11.8,8.2
		c-3.5,3.5-7.2,7.2-11.8,8.3c-4.8,1-10.8-1.7-11.3-6.5c0-1.7,0.5-3.3,0-4.8c-0.2-1.8-1.7-3.3-3-4.7c-4.2-4.2-8.2-8.5-12.2-12.7
		c-3.3-3.3-7.7-7.3-12.3-6c-1.5,0.5-2.5-1.3-3.2-2.7c-2.7-6.5-5.2-13-8-19.3c-0.5,8,2.3,15.8,7.3,21.8c-6.7,0.5-13,3.5-17.5,8.3
		c-1.7,1.8-4.7,0.2-6.5-1.5s-5.2-3-6.5-0.8c3.3,1.7,6.7,3.5,10,5.2c-1,1.5-1.7,3.2-2.2,4.8c-0.2,0.2-0.3,0.5-0.3,0.8
		c0,0.2,0,0.2,0,0.3c-2.7,9.7,0.7,21,8.8,27.3c-6.5,5.8-12.7,11.5-19.2,17.3c-5.2,4.8-10.7,9.7-14,15.8
		C35.6,93.7,24.1,79.3,9.6,69.5c4-4.8,8-9.7,11.3-15.7c2.7-4.8,4.7-10,7.5-14.7c2.7-4.7,6.5-8.5,10-12.3C44.8,20.2,50.8,13.7,56.9,7
		c2.2,6.8,5.7,13.3,10.5,18.8c0.8-4.2-3-8-5.5-11.5c-2.5-3.5-3.5-9.8,0.7-11.3c2.3-1,6.3-0.5,6.5-3c-6.7-0.5-12.7,3.8-17.3,8.5
		c-4.3,4.8-8,10.7-12.7,15.2c-3.8,3.8-8.3,6.7-11.5,10.8c-3.5,4.8-5,10.7-7.7,15.8c-3.5,6.8-8.5,12.5-13,18.8
		C2.8,75.5-0.7,83,0.1,90.5C2.3,85.3,4.5,80,6.6,74.8c0.7-1,1-2.3,2.2-2.7c1.7-0.8,3.5,0.5,5,1.7c11.5,10,20.8,22.7,27.2,36.6
		c-8.3-3.2-17.5-4.2-26.3-2.7c-2.2,0.5-4.8,1.7-4.2,3.8c9-3.2,19.2-3,28.2,0.8c-4.2,5.5-8.5,10.8-12.7,16.3c-2.7,3.3-1,8.5,2.3,11.3
		c3.3,2.5,8,3.3,12.2,4c9.7,1.7,19.3,3.2,29,4.7c-4.3,3-9.3,4-14.2,5.7c-4.8,1.7-9.7,4.3-11.5,9.2c4.3-2.5,9-5,13.5-7.3
		c7.7-3.8,15.8-7.2,24.7-7.5c4-0.2,8.2,0.5,12.2,0.8c11.8,1.5,24.2,3.2,34.6,9c5.8,3.2,11,7.7,17.3,9.8c-0.8-1.3-1.7-2.3-2.5-3.5
		c8.5-1.8,17.3-3.8,25.8-5.7c-4.8,3.2-9.7,6-14.3,9c8.3-1.8,15.5-6.8,22.2-12.2c11.3-8.8,22.3-18,32.7-27.5
		c3.8-3.3,7.7-6.8,12.7-7.7c3-0.5,6.8-0.8,7.2-3.8c0.2-4.2,6.5-4.7,9.8-1.8c3.3,2.7,5.5,6.8,9.2,8.3c-2.2-7.2-9.3-12.3-16.7-11.7
		c-5,0.5-10-1.7-13.2-5.5C223.8,100,234.7,98.7,241.7,103.3z M165.2,42.7c0.5-0.8,0.8-1.5,1.3-2.2c1-1.5,2.7-2.7,4.3-3.3
		c1.3-0.5,2.5-1.5,3.3-2.5c0,3-0.2,5.8-0.2,8.8c0,0.8,0,1.7,0.2,2.5c0.5,0.8,1,1.8,1.8,2.3c-4.3,0-8.8,0.2-13,0
		C163,46.3,164,44.4,165.2,42.7z M132.6,69.3c0.8,0.5,1.5,1.3,1.8,2.3c1.3,3.2,0,6.5-1.5,9.3c-0.8,2.3-2.2,4.3-3.5,6.3
		c-3.8,5-9,8.5-14.2,11.8c-1.5,0.8-3,1.8-4.7,2.3c-1.7,0.5-3.8,0.2-5-0.8c0-1.3,0-2.7,0.5-4.2c0.8,1.5,2.5,2.3,4.2,2.2
		c1.7-0.2,3.2-1,4.7-1.8c6.3-3.8,11.5-9.3,14.8-15.7c1-1.8,2.2-3.8,2.3-5.8c0.2-2.2-0.7-4.3-2.3-5.7C130.6,69,131.7,69,132.6,69.3z
		 M126.9,70.7c1,0.7,2.2,1,2.7,2.2c0.8,1.5,0.2,3.5-0.7,5c-3.8,7.5-9.8,13.5-16.8,17.7c-0.7,0.5-1.3,0.8-2.2,0.8
		c-1.3,0-2.3-0.7-3.2-1.3c-3.5-2.5-6.8-5-10.2-7.5c-4-3-7.7-5.8-11-9.2c-2.5-2.7-4.8-5.8-7.2-9c-1.7-2.5-3.5-5-4.3-8
		c-0.8-3-0.7-6.5,1.3-8.8c0,1,0.2,2.2,0.2,3c1.3,0.5,1.8-1.5,2.2-2.7c0.5-3.2,2.5-6,5.5-7.5c0,0.8,0,1.8,0.5,2.5
		c0.5,0.7,1.7,0.8,2.2,0.2c-0.5-1.5-0.8-3-1.3-4.7c1,0.7,2.3,1.3,3.3,1.8c-0.2-1-0.5-2.2-0.7-3.2c0.8,0.5,1.5,1,2.3,1.5
		c0-1.3,0.8-2.3,1.8-2.8c1.7,0.3,3.3,0.5,5.2,0.5c0.3,0.2,0.8,0.3,1.2,0.5c3.8,2,7.3,4.5,10.5,7.3c0.5,0.7,1.2,1.5,1.7,2.2
		c0.3,0.5,0.8,0.7,1.3,0.7c1.5,1.7,3,3.3,4.3,5.2C119.1,62.2,121.7,67.7,126.9,70.7z M103.9,98.7c-0.5,2.7-1,5.8-3.2,7.7
		c-2.2,1.8-4.8,2.5-7.3,3.8c-2.5,1.3-4.3,3.3-6.8,4.3c-1.8,0.8-4,1.3-6.3,1.8c-4.8,0.8-9.8,1.7-14.7,2.5
		c4.7-8.5,11.5-15.5,18.2-22.2c0.8-0.8,1.5-1.7,2.5-2.2c1-0.7,2.2-0.7,3.3-0.8c2.7-0.2,5.7-0.7,8.3-0.8c1.8-0.2,4.2-0.2,5.5,1
		C104.2,95.3,104.1,97,103.9,98.7z M84.7,79.7c0.5,0.7,1.3,1.5,2.2,1.8c0.2,1.5,1.7,2.5,3.2,2.5c0,0.8-1,1.3-1.8,1
		c-0.8-0.2-1.5-1-1.8-1.7c-0.7-0.7-1-1.5-1.8-1.7c-1.5-0.7-2.5-1.8-3-3.3C82.6,78,83.6,80.2,84.7,79.7z M117.4,53.8
		c1.7,0.8,2.5,3,1.8,4.7c0,0.5-0.5,0.8-0.8,0.7c0-0.5-0.2-0.8-0.8-1c-0.7-0.7,0.8-1.8,0.2-2.5C117.4,55,117.2,54.3,117.4,53.8z
		 M113.9,49.3c0.8,0.8,1.8,1.7,2.7,2.5c-0.2,0-0.7,0.2-0.8,0.2c0.5,0.8,0.5,1.8,0.2,3C114.4,53.5,113.6,51.5,113.9,49.3z
		 M79.4,147.8c-2.3,0-4.7,0.2-6.8,0.2c-1.8-0.2-3.8-0.5-5.7-0.7c-6.3-0.8-12.5-1.7-18.8-2.5c-5.2-0.7-10.7-1.3-15.5-3.3
		c-1.8-0.8-3.8-1.8-5-3.3c-1.3-1.7-2.2-3.8-1.5-5.7c0.5-1.7,1.7-3,3-4.2c2.7-3,5-5.8,7.3-9C46.6,106,58.6,94.2,71.9,83.8
		c2.3-1.8,4-4.7,4.7-7.5l6.8,7.5c1,0.8,1.8,1.8,3.2,2.5c1.3,0.7,3,0.7,3.8-0.5c0.5-0.5,1.3-0.2,1.7,0.2c2.2,1.5,4.2,2.7,6.3,4.2
		c-3.8,2.7-9.7,0-13.5,2.3c-0.8,0.5-1.7,1.3-2.5,2.2c-4.7,4.8-9.2,9.3-13,14.7c-1.5,1.8-2.7,4-4.7,6.5c-4.7,6-10.8,10.8-18,13.5
		c-0.7,0.5-1.5,0.7-1.8,1.5c-0.5,0.7,0.2,1.7,1,1.5c6.3-2.7,12.2-6.5,17.3-11c1-0.8,2.7-0.7,3.8,0.2c1.3,0.8,1.8,2.2,2.5,3.3
		c2.3,4,5.2,7.7,9,10.2c3,1.8,6.3,3.2,9.2,5c3.2,1.8,5.8,4.7,6.3,8.2C89.1,147.8,84.2,147.5,79.4,147.8z M220.7,110.8
		c2.3,1.3,4.2,3.2,6,5c1.3,1-0.2,3.2-1.7,3.3c-1.5,0.5-3.2-0.2-4.7,0c-1.8,0.2-3.5,1.5-5,2.7C203.5,132,191.5,142,179.7,152
		c-8.2,6.8-19.7,8.5-30.2,10c5.5-7.7,8-17.5,7.2-27.2c-1.7,0.2-2.2,2.3-2.2,3.8c-0.2,8.8-2.3,18-8.5,24c-1.5,1.5-4,2.7-5.8,1.7
		c-5.8-3.5-11.5-6.8-17.3-10.5c-6.3-3.8-12.7-7.7-17.3-13.5c-5-6.3-8-14.7-15-18.2c4.7,6.8,9.2,13.8,14.3,20.2
		c3.5,4.3,7.7,9,13.3,9.8c-6-0.7-12.2-1.5-18.2-2.2c-1-0.2-2.2-0.5-3-1c-1-1-1.3-2.7-1.7-4.2c-1.8-6-9-8-14.2-11.3
		c-5.2-3.3-8.8-8.3-11.7-13.8c10.2-0.8,20.5-4.2,29.2-9.7c3-1.8,6.3-4.7,6.3-8.2c2.5,3,7.2,1.3,10.5-0.7c7.5-4.7,14.8-10.2,19-18.2
		c2.5-5,3.5-11.7-0.2-15.8c9.3-2.5,14.7-13,23.5-16.3c4.2-1.5,9-1.3,13.3-1c10.8,0.7,21.8,1.3,32.7,1.8c0.5,0,1,0,1.3,0.2
		c0.7,0.5,0.7,1.3,0.7,1.8c-0.2,9.3-2.2,18.8-5.7,27.5c-8,0.8-16.3-3.3-20.5-10.2c-2.5-4.3-6.3-7.7-10.7-9.8
		c-0.8,4.7,8,5.7,8.5,10.2c-1.3-0.7-2.7,0-3.2,1c4,1.7,7.5,4,10.5,6.8c-2.2,2.3-5,4-8.2,4.3c-7.5,1-13.3,7.3-18,13.3
		c-3.8,5-7.5,11-6,17.3c2.3-9.8,8.2-18.8,16.5-25.2c2.5-2.2,5.7-3.8,9-3.8c2.2,0,4-1.8,5.8-3c3-1.5,6.5-0.8,9.2,0.7
		c3,1.5,5,4,7.2,6.3c0.7,0.8,1.3,1.7,1,2.7c0,0.8-0.7,1.3-1,1.7c-3.2,2.7-6.3,5.7-9.3,8.5c-1,1-2.3,2.2-3.5,2.7c-1.8,0.8-4,1-6,1.3
		c-9.8,1.5-18.2,9.2-20.2,18.8c4-0.2,7.7-2.2,10.2-5.2c-3,4.7-5.7,9.2-8.5,13.8c-1.3,2.2-2.5,4.7-1.8,6.8c0.7,2.5,4.7,3.3,5.5,1
		c1.3-4,3.8-7.7,6.8-10.7c-2.3,4.3-4.8,8.8-7.3,13.2c-0.8,1.7-1.7,4-0.5,5.2c0.7,0.7,1.5,0.8,2.3,1c3.3,0.8,7.7,1.3,9.8-1.7
		c0.7-0.8,1.8-0.8,3-0.8c3.5-0.5,6.3-3.3,8.5-6c4.3-5,8.8-10.2,11.3-16.5c0.8-2.3,1.5-4.7,2.7-6.7c2.2-3.8,6-6.3,9.8-8.5
		C215.4,109.5,218.3,109.7,220.7,110.8z M201.2,84.8c2.2,0.2,4,0.5,5.8,0.7c0.5,0,1,0.2,1.3,0.7c-2.2,1.5-3.8,3.2-5,5.2
		c-0.8-3.2-4.3-4.8-6-7.5c0.7-0.2,1.5,0.5,2.2,0.7C199.9,84.7,200.5,84.8,201.2,84.8z M165.5,121.6c0,0.2-0.2,0.7-0.2,0.8
		c-0.2,0.8-1.5,1.5-2.3,1c0.7-0.8,1.3-1.7,1.7-2.3C165,121.5,165.2,121.5,165.5,121.6z M167.2,147.5c0.8,0,1.7,0.2,2.5,0.7
		c-0.8,1-3,0.7-3.2-0.7C166.7,147.3,166.9,147.3,167.2,147.5z M171.9,148.3c1,0.2,2.3,0.2,3.3,0.2c-0.2,0.5-0.2,0.7-0.2,0.8
		c-0.8,0-1.7,0.2-2.3,0.2V149C172.4,149.5,171.7,148.8,171.9,148.3z M211.2,108.7c-4.2,2.5-8.2,5.7-10.2,10c-1.3,2.5-1.8,5.2-3,7.7
		c-1,2.2-2.3,4-3.8,5.8c-2.5,3.5-5.2,6.8-8,10.2c-1.7,2.2-4,4.3-6.7,4c4.2-4.7,8.2-9.3,11.7-14.3c-1.8-0.7-3.8,1-5,2.7
		c-3.3,4.2-6.5,8.5-9.8,12.7c-1-0.5-2.5-0.7-3.8-0.7c3.8-5.2,7.5-10.2,11.3-15.5c0.7-0.8,1.3-2.2,0.8-3c-4,3.3-7.5,7.5-10.2,12.2
		c-0.8,1.5-1.5,3-2.7,4.2c-1,1.3-2.7,2.2-4.3,1.8c3.3-5.8,6.7-11.8,9.8-18.2c0.7-1.3,1.3-3,0.5-4.2c-4.2,4-8.5,8.2-11,13.3
		c-0.8,1.7-1.5,3.5-3,4.7c-0.8-5.5,3-10.2,5.8-14.7c3.3-4.8,5.8-9.8,8-15.2c-0.8-0.8-2.2,0.5-2.7,1.5c-2.2,3.5-5.2,6.3-9,8
		c-0.8-1,0.2-2.5,1.3-3.5c2.3-2.3,4.8-4.8,7.3-7.2c3.3-3.2,9-1.3,13.2-3c1.8-0.7,3.5-2.2,5-3.3c5.5-5.2,10.7-10.5,15.7-16
		c1.7-1.7,3.2-3.5,4.3-5.7c1-1.7,1.7-3.5,2.7-5.5c2.3-4,5.7-7.3,9.7-9.7c-3.2-1-6.3,1.5-8.3,4.2c-2,2.7-3.8,5.5-5,8.5
		c-0.7,1-1,2.2-1.8,2.7c-2.2,1.5-5.2-0.8-8-0.2c1-2.7,2.2-5.2,3-8c0.7-1.7,1.3-3.3,1.7-5c1-4.7,1.3-9.2,1.3-13.8
		c12.5,0.7,24.8,5.5,34.6,13.2c2.2,1.7,4.3,4,4.2,6.7c-0.2,2.2-1.8,3.8-3.3,5.2c-5,5-10.2,10.2-15.2,15.2c-1.5,1.5-2.7,3-4.3,4.2
		C219.7,104,215.4,106.2,211.2,108.7z"/>
	<path class="st0" d="M100.2,62.3c0.2,0,0.5,0,0.5,0c0.8,0.5,0.2,1.7,0.5,2.3c-0.7,0.5-1.3,0.7-1.8,1c-0.2-0.7-0.5-1.3-0.2-2.2
		C99.1,63,99.4,62.3,100.2,62.3"/>
	<path class="st0" d="M96.6,69.2c-0.5,0.5-1.3-0.2-1.5-0.8s-0.2-1.5,0.2-2.2c0.5-0.7,1.3-1,1.8-0.7c0,0.8,0,1.8,0,2.7
		C96.7,68.2,96.4,68.5,96.6,69.2"/>
	<path class="st0" d="M96.6,56.7c0-0.2,0-0.5,0-0.8c1.8-1.7,4.2-2.5,6.7-2.5c0.7,0.8,0.2,2.3-0.7,3c-0.8,0.8-1.8,1-3.2,1
		C98.6,57.3,97.6,57.2,96.6,56.7"/>
	<path class="st0" d="M88.9,65.5c0.2,0,0.7,0.2,0.8,0.2c0.2,0.8-0.2,1.8-0.8,2.5c-0.8,1.3-2.7,1.5-3.8,0.5c0.8-1.7,1.7-3.5,2.5-5.2
		c0.2-0.8,1.3-1.3,2.2-1.3C89.9,63.3,89.7,64.3,88.9,65.5"/>
	<path class="st0" d="M85.1,58.3c0.5,0.8,0,1.7-0.5,2.3c-0.5,0.7-1.3,1-1.7,1.7c-1.5,1.5-2.2,4-1.5,6c-0.2,0.2-0.8,0.2-1,0
		c-0.5-0.2-0.5-0.7-0.7-1c-0.7-1.8-0.5-4,0.7-5.8C81.4,59.8,83.1,58.5,85.1,58.3"/>
	<path class="st0" d="M93.1,53.5c-0.5-1-0.2-2.3,0.7-3.3c0.7-1,1.7-1.7,2.7-2.3c1.8-1,4.2-2.2,6.3-1.3c0.5,0.5,0.7,1,0.5,1.7
		c-3.8-0.2-7.3,2.2-9,5.5C93.6,54,93.2,54,93.1,53.5"/>
	<path class="st0" d="M118.4,73.3c0.2-0.5,0.8-0.5,1.3-0.2c0.5,0.2,0.7,0.7,0.7,1.3c0.5,1.5,0.5,3.2,0,4.8c-0.5,1.8-1,3.8-2.2,5.5
		c-0.2,0.5-0.7,1-1,1.3c-1,1-2.5,1.7-4,2.2c-2.3,0.7-4.7,1.5-6.8,0.7c-0.2-0.5,0.2-1,0.7-1.3s1-0.2,1.5-0.2c1,0,1.8-0.2,3-0.5
		c1.3-0.2,2.7-0.8,3.8-1.7c1.7-1.3,2.5-3.3,3-5.2C118.6,77.3,118.4,75.2,118.4,73.3"/>
	<path class="st0" d="M245.8,168.3c0.2,0.2,0.2,0.7,0,0.8c-0.8,0.8-1.8,0.7-3.2,0.7c-3.2-0.2-6.3-0.7-9.3-1.3
		c-4.7-0.8-9.2,0.2-13.2,2.7c-0.7,0.5-1.3,0.8-2.2,0.8c-0.7,0-1.5-0.8-1-1.5c0-0.2,0.2-0.2,0.5-0.5c2.3-1.8,5.2-2.7,8.2-3.5
		c1.5-0.5,3-0.8,4.3-0.8c3,0,5.8,1.5,8.8,1.5C241.5,167.3,243.8,167.8,245.8,168.3"/>
	<path class="st0" d="M214.7,157c0.5-1.3,1.8-1.8,3.2-2.2c1.3-0.3,2.5,0,4,0c1,0,2.2-0.2,3.3-0.2c3.2-0.2,6.5-0.2,9.7,0
		c2.5,0.2,5.5,0.7,7.5-0.8c0.8-0.7,1.5-1.3,2.3-1.8c0.8-0.7,1.8-1,2.7-0.7c-1.3,3.2-4.7,5.2-8,5.2c-6.7,0-13.5,0-20.2-0.2
		c-0.7,0-1.3,0-1.8,0.5c-0.5,0.5-0.5,1.3,0,1.5C215.9,159,214.5,158,214.7,157"/>
	<path class="st0" d="M100.1,78.3c-1-1-1-2.5-1-3.8c0-1,0-2.3,0.7-3.2c0.5-0.7,0.8-1.3,1.5-1.7c1.3-1.3,2.5-2.3,4-2.7
		c1.7-0.5,3.3,0,5,0.5c0.5,0,0.7,0.2,1,0.5c0.5,0.5,0.7,1.3,0.7,1.8c0,1.7,0.2,3.3-1,4.3c-1.5,1.3-2.3,3.2-3.8,4.2
		c-0.8,0.5-1.7,0.7-2.5,0.7c-0.5,0-0.7,0-1-0.2C101.9,78.5,101.1,78.3,100.1,78.3 M102.2,76.7c0.7,0.8,1.8,0.8,2.7,0.5
		c0.8-0.5,1.7-1.3,2.3-1.8c1-1.3,2.2-2.5,3-3.8c-0.5-0.5-1-0.2-1.5,0s-0.7,0.8-0.8,1.3C106.6,74.7,104.4,76,102.2,76.7 M109.9,69.2
		c-1.3-0.8-3.2-1-4.7-0.7c-1.5,0.5-3,1.5-4,2.7c-0.5,0.5-0.7,1-0.8,1.5c-0.2,0.7,0,1.3,0.2,1.8c0-2.5,2.3-5,4.8-5
		C107.2,69.3,108.6,69.8,109.9,69.2 M102.4,74.2c0,0.2,0,0.5,0,0.7s0.2,0.7,0.5,0.7c1.5-1.5,3-3,4.3-4.3
		C105.1,70.7,102.7,72.2,102.4,74.2"/>
</g>
</svg>
