<?xml version="1.0" encoding="utf-8"?>
<!-- Generator: Adobe Illustrator 21.1.0, SVG Export Plug-In . SVG Version: 6.00 Build 0)  -->
<svg version="1.1" id="Layer_1" xmlns="http://www.w3.org/2000/svg" xmlns:xlink="http://www.w3.org/1999/xlink" x="0px" y="0px"
	 viewBox="0 0 374.9 368.8" style="enable-background:new 0 0 374.9 368.8;" xml:space="preserve">
<style type="text/css">
	.st0{fill:#C4C5C6;}
	.st1{fill:#E01262;}
</style>
<g id="mfIuLx.tif">
	<g>
		<path class="st0" d="M0,93.5v9.6c25.6,0.3,51.2,0.6,76.7,0.9c-0.2-1.8-0.3-3.5-0.3-5.4c0-0.4,0.1-0.7,0.2-1
			c-0.1-1-0.2-1.9-0.2-2.9c0-0.1,0-0.1,0-0.2C51,94.2,25.5,93.9,0,93.5z"/>
		<path class="st0" d="M374.9,99.1c-69-1-138.1-2-207.1-3.1c-0.1,0.5-0.1,1.1-0.2,1.6c0,1.5-0.3,3-0.8,4.5c0,0,0,0.1,0,0.1
			c-0.1,0.4-0.2,0.7-0.4,1c-0.3,0.6-0.6,1.2-1,1.8c69.9,0.8,139.7,1.7,209.6,2.5V99.1z"/>
		<path class="st0" d="M59.2,44.1v-1.3c-0.4-0.5-0.7-1.3-0.4-2.2c0.1-0.4,0.3-0.8,0.4-1.2v-2.4c0-0.5,0.1-1,0.4-1.3
			c-8.5,0.3-17,0.5-25.4,0.8C22.8,36.7,11.4,37,0,37.4v9.2c19.8-0.6,39.5-1.2,59.3-1.9c0,0,0,0,0-0.1C59.3,44.4,59.2,44.3,59.2,44.1
			z"/>
		<path class="st0" d="M374.9,25.8c-16.8,0.4-33.6,0.9-50.4,1.4c-57.8,1.8-115.6,3.6-173.4,5.4c0.2,3.6,2.8,6.3,5.1,8.9
			c38.1-1.3,76.3-2.5,114.4-3.7c34.8-1,69.6-2,104.3-3V25.8z"/>
		<path class="st0" d="M374.9,319.8c-38.7-6.5-77.3-13.1-116-19.6c-18.8-3.2-37.5-6.3-56.3-9.5c-0.4,2.9-1.3,5.6-2.4,8.3
			c58.2,9.8,116.5,19.6,174.7,29.5V319.8z"/>
		<path class="st0" d="M0,265.1c19,3.2,37.9,6.4,56.9,9.6c-1.7-2.8-2.7-5.9-3.4-9.2c-1.9-0.3-3.7-0.6-5.6-0.9
			c-16-2.7-32-5.3-47.9-7.9V265.1z"/>
		<path class="st0" d="M0,148.3v8.6c18.6,1.4,37.1,2.7,55.7,4c0.2-0.1,0.3-0.3,0.5-0.4c0,0,0.1,0,0.1-0.1c-0.1-0.9,0.2-1.8,1.3-2.3
			c0.5-0.3,1-0.5,1.5-0.8c0.2-0.3,0.5-0.5,0.9-0.7c1-0.5,1.9-1,2.9-1.5c0.2-0.3,0.5-0.6,0.9-0.9c0.7-0.4,1.4-0.8,2.2-1.1
			c0.1-0.1,0.3-0.1,0.4-0.2C44.3,151.4,22.1,149.8,0,148.3z"/>
		<path class="st0" d="M374.9,173.4c-1-0.1-2-0.1-3.1-0.2c-59-3.9-118-7.5-177-11.4c-0.5,2.6-1.6,4.9-3,7.2
			c-0.1,0.2-0.1,0.4-0.2,0.6c21,1.4,42,2.7,62.9,4.1c40.1,2.7,80.2,5.5,120.3,8.4V173.4z"/>
		<path class="st0" d="M0,213c12.1,1.4,24.2,2.8,36.3,4.2c0-0.1,0-0.3,0-0.4c0-1.1,0-2.2,0-3.2c-0.3-1.4-0.4-2.9-0.4-4.4
			c0,0,0,0,0-0.1c0,0,0-0.1,0-0.1c-11.9-1.4-23.8-2.8-35.8-4.2V213z"/>
		<path class="st0" d="M374.9,248.9c-40.1-4.9-80.2-9.8-120.3-14.5c-15.7-1.9-31.5-3.7-47.2-5.5c0.5,1.1,0.9,2.2,1.4,3.4
			c0.3,0.2,0.6,0.5,0.8,1c0.7,1.5,1.3,3,1.7,4.6c10.8,1.3,21.6,2.6,32.4,3.8c43.7,5.1,87.4,10.2,131.1,15.3V248.9z"/>
	</g>
</g>
<g>
	<rect x="269.3" y="71.7" class="st0" width="30" height="30"/>
	<rect x="223.3" y="137.7" class="st0" width="30" height="30"/>
	<rect x="312.3" y="71.7" class="st0" width="30" height="30"/>
	<rect x="293.3" y="213.7" class="st0" width="30" height="30"/>
	<rect x="223.3" y="43.7" class="st0" width="39" height="54"/>
	<rect x="308.3" y="118.7" class="st0" width="39" height="54"/>
	<rect x="242.3" y="185.7" class="st0" width="39" height="54"/>
</g>
<g>
	<path class="st1" d="M115.8,194.9c-0.5-0.5-1-1.1-1.6-0.5c-0.3,0.3-0.4,1.1-0.3,1.6c1.6,1,3.1,2.2,4.4,3.4
		C117.8,197.9,117,196.3,115.8,194.9z"/>
	<path class="st1" d="M198.7,337.8c-1.3-3.9-1.7-8-1.6-12.1c0.1-3.4,0.3-6.8,0.6-10.1c-1.2,2.7-2.2,5.5-3.2,8.2
		c0,0.9-0.1,1.8-0.1,2.7c0,2.2-0.3,4.5,0.3,6.5c1.5,5.4,3.3,10.8,5.2,16.1c1.1,3.2,1.8,6.4,2.1,9.7c0.2,2.7,0.2,5.4,0.3,8.1
		c0,0.4,0,0.9,0,1.4c0.5,0,0.9-0.1,1.6-0.1c0.2-2.5,0.4-4.9,0.6-7.3c0.2-3.2-0.5-6.3-1.4-9.3C201.8,346.9,200.2,342.3,198.7,337.8z"
		/>
	<path class="st1" d="M204.3,280.5c-0.1,0.4-0.3,0.7-0.4,1.1c-1.6,4.5-3.6,8.8-5.5,13.2c-0.9,2.1-2.2,4.1-3.1,6.3
		c-2.2,5.7-4.3,11.4-6.5,17.2c-1.3,3.3-2.6,6.5-3.9,9.8c-1.8,4.5-3.6,9-5.6,13.4c-1,2.1-2.4,4-3.6,6c-2.4,4.1-4.7,8.2-7.2,12.2
		c-1.3,2.3-2.9,4.4-4.2,6.7c-0.3,0.6-0.1,1.4-0.2,2.5c0.6-0.4,0.9-0.5,1-0.7c1-1.3,2.1-2.6,3-4c0-0.3,0-0.6,0.2-1
		c3.8-6.3,7.6-12.7,11.6-18.9c1-1.6,2.2-3.3,3.3-4.9c0.7-1.6,1.1-3.4,1.7-5c2.3-6.2,4.6-12.3,6.9-18.5c0.7-1.9,1.5-3.8,2.2-5.7
		c0.6-1.7,1.1-3.5,1.7-5.2c0.4,0.4,0.6,0.8,0.5,1.2c-0.3,1.9-0.7,3.7-1,5.6c-0.1,0.5-0.1,1.1-0.2,1.6c0-0.1,0.1-0.1,0.1-0.2
		c0.5-1.2,1.9-0.9,2.5-0.1c0-0.3,0.1-0.6,0.1-1c0.3-2.8,0.7-5.6,1.2-8.3c0.3-1.7,0.8-3.3,1.2-4.9c0.7-2.5,1.2-5.1,2-7.6
		c0.9-2.5,2.4-4.8,3.2-7.4c0.6-2,1.3-3.9,2-5.8C206.5,278.9,205.4,279.7,204.3,280.5z"/>
	<path class="st1" d="M214.4,244.4c-1.4-7.1-5-13.3-8.4-19.5c-2.1-3.9-4.2-7.9-6.1-12c-1.7-3.6-3.2-7.4-4.9-11
		c-2.4-5.2-4.4-10.6-4.8-16.4c-0.1-1.4-0.4-2.8-0.1-4.2c0.5-2.5,1.1-5.1,2.2-7.4c1.1-2.5,1.8-5,2.2-7.7c0.7-4.6,1.4-9.2,2.3-13.8
		c0.5-2.8,0.6-5.5-0.4-8.2c-1.6-4.5-3.6-8.8-6.2-12.8c-0.7-1.1-2.2-2.3-3.4-2.5c-1.5-0.2-2.2-0.7-2.5-2c-0.1-0.4-0.3-0.7-0.4-1.1
		c-0.9-2-2-3.8-4.3-4.3c-1.1-0.3-2.4-0.3-3.7-0.5c-0.8-1.7-0.3-4.5-2.8-5.7c-2.2-1.1-4.5-0.6-6.7,0.2c-0.1-0.2-0.1-0.3-0.1-0.4
		c-0.3-3.1-0.5-6.2-0.8-9.3c0-0.3,0-0.6,0.2-0.8c0.7-1.1,1.4-2.1,2.1-3.2c0.3-0.5,0.7-1,0.8-1.5c0.1-2.4,0.3-4.9,0.2-7.3
		c-0.2-4.3-0.8-8.6-1.1-12.9c-0.3-5.4-0.2-10.8-1.9-16c-1-3.2-2.3-6.4-3.3-9.6c-1.5-4.8-3.9-9-7.3-12.8c-1-1.2-1.8-2.7-2.3-4.3
		c-0.6-1.9-0.9-3.9-1.3-5.9c-0.4-1.7-0.4-3.6-1.2-5.2c-1-2.3-2.5-4.5-3.9-6.7c-0.7-1-1.8-1.7-2.4-2.8c-1.4-2.4-3.2-4.4-4.9-6.5
		c-2.3-2.8-5-4.8-8.4-5.7c-5.1-1.4-10.3-2.3-15.3-3.8c-4-1.2-8-1.6-12.2-1.3c-1.5,0.1-3.1,0.2-4.6,0.5C96,1,93.6,1.5,91.2,1.9
		c-3,0.6-6,1-8.6,2.8c-0.9,0.6-1.9,1.2-2.9,1.7c-4.4,2.2-8.2,5.3-11.5,8.9c-3.8,4.3-6.1,9.4-7.5,15C60,33.5,59.6,36.8,59,40
		c-0.2,1-0.4,2-0.5,3.1C58,47.2,59,51.2,60,55.2c0.9,3.3,2,6.5,3,9.8c0.7,2.4,1.4,4.8,2.3,7.1c0.5,1.3,1.3,2.4,1.2,3.9
		c0,0.3,0.1,0.8,0.4,1c1.4,1.3,1.4,3.3,2.2,4.8c1.5,3.2,3.1,6.4,4.7,9.6c0.7,1.3,1.5,2.5,2.3,3.7c0.3,0.5,0.8,1,1.1,1.5
		c0.2,0.3,0.4,0.7,0.4,1c-0.2,1.5-0.6,2.9-0.8,4.4c-0.4,2.7-0.4,5.6-1.1,8.2c-1.7,6.2-3.7,12.3-5.5,18.4c-1.4,4.8-4,9.1-4.9,14.1
		c-0.6,3.2-2,6.2-2.2,9.6c-0.1,2.1-0.6,4.3-2.9,5.3c-0.1,0-0.2,0.2-0.3,0.2c-1.6,1.2-3,2.6-4.7,3.4c-2.7,1.4-5,3.1-7.2,5.1
		c-3.4,3-6.2,6.4-7.6,10.7c-1,3.1-1.8,6.4-2.8,9.5c-1.3,4.2-2.1,8.5-2,12.9c0.1,2.7,0.2,5.4,0.1,8.1c-0.2,5.5,0.9,10.8,3.5,15.7
		c2.8,5.2,4.9,10.6,6.3,16.3c1,4.4,2.9,8.4,4.3,12.7c1.1,3.2,1.8,6.6,2.6,9.9c0.7,3,1.3,6,2.1,8.9c1.2,4.2,2.7,8.2,3.8,12.4
		c1.3,4.9,2.4,9.7,4.3,14.4c0.6,1.4,0.9,2.9,1.3,4.3c1.2,4.4,2.3,8.7,4.6,12.7c0.5,0.8,0.9,1.8,1,2.7c0.6,4.7,0,9.3-1.3,13.9
		c-1.2,4.4-2.8,8.8-4.1,13.2c-0.8,2.5-1.6,5-2.2,7.6c-1.1,4.9-2.1,9.8-3.1,14.7c-0.1,0.4,0.1,0.8,0.2,1.1c0.5-0.1,1.1,0,1.4-0.3
		c0.4-0.5,0.7-1.2,0.8-1.8c1.5-5.7,2.9-11.4,4.3-17.2c0.4-1.6,0.8-3.2,1.2-4.8c0.4-1.4,0.7-2.8,1.2-4.2c1.4-3.7,3.1-7.3,3.7-11.3
		c0.1-0.9,0.2-1.9,0.2-2.9c0.2-2.4,0.5-4.8,0.6-7.3c0.1-1.2-0.1-2.4-1-3.5c-1-1.3-1.9-2.9-2.5-4.4c-1-2.7-1.7-5.5-2.5-8.3
		c-0.5-1.7-1-3.4-1.6-5.1c-0.8-2.3-1.8-4.5-2.4-6.8c-1.9-7.3-3.3-14.7-6.4-21.7c-0.3-0.6-0.4-1.3-0.5-1.9c-0.7-3.8-1.3-7.7-2.2-11.5
		c-0.7-2.6-2-5-2.8-7.6c-1.4-4.4-2.7-8.8-4.1-13.2c-1.2-3.8-2.6-7.5-4.6-11c-2.2-3.9-3.7-8.2-3.7-12.8c0-5-0.1-10.1-0.1-15.1
		c0-0.9,0.1-1.8,0.4-2.7c0.9-3.5,1.7-6.9,2.7-10.3c1-3.4,1.8-6.9,4.1-9.7c3.1-3.7,6.6-6.8,11-9c4.4-2.2,9-2.2,13.6-1.6
		c2.8,0.4,5.5,1.3,8.3,2c1.6,0.4,3.1,0.9,4.6,1.5c1.9,0.8,3.7,1.7,5.5,2.5c2.7,1.1,5.3,2.2,8,3.4c1.7,0.7,3.3,1.5,4.9,2.3
		c1.3,0.7,2.5,1.5,3.9,2.1c2.7,1.4,5.3,2.7,8,4c1.1,0.5,2.2,1,3.4,1.5c1.2,0.5,2.4,0.8,3.6,1.3c0.6,0.2,1.1,0.5,1.6,0.8
		c3.5,1.4,7,2.9,10.3,5c3,1.9,6.6,3,9.7,4.7c3.8,2.1,7.9,3.2,12.2,3.2c1.1,0,2.1,0.2,3,0.3c0,3.1,0.5,6.3-0.1,9.2
		c-1.2,5.9-0.6,11.8-0.8,17.6c-0.1,2,0.1,4.1,0.2,6.1c0.2,5.4-1,10.6-2,15.8c-0.8,4.1-2.1,8-3.2,12c-0.1,0.5-0.6,1.2-0.7,1.2
		c-0.5-0.1-1.1-0.4-1.4-0.8c-1-1.1-2-2.3-2.9-3.5c-0.9-1.1-1.7-2.3-2.5-3.5c-0.6-0.9-1-2-1.6-3c-2-3.2-4-6.4-6.1-9.6
		c-1.4-2.2-3.2-4.2-4.4-6.5c-0.8-1.4-1.5-2.7-2.4-4c0,0,0,0,0,0.1c-0.8,1.7-3.2,0.4-2.8-1.3c-0.4-0.2-0.8-0.6-0.8-1.3
		c0-0.7,0-1.4,0-2.1c-2-2.4-4-4.9-5.9-7.3c-0.9-1-1.5-2.1-1.2-3.6c0.4-1.9,0.7-3.8,1-5.8c0.1-0.6,0.1-1.3,0.1-1.9
		c-0.8-1-1.6-2-2.5-2.9c0,0.4,0,0.8,0,1.3c-0.2,1.6-0.3,3.2-0.5,4.9c0,0.5-0.2,0.9-0.2,1.4c-0.1,0-0.2,0.1-0.3,0.1
		c-0.7-1.7-1.5-3.4-2.2-5.1c-0.6-1.3-1-2.7-1.9-3.8c-1.1-1.5-2.3-2.9-3.7-4.2c-0.8-0.3-1.7-0.5-2.6-0.7c-1.1-0.3-1.3-1.4-0.9-2.2
		c-2.4-1.8-4.9-3.5-7.5-5.1c-1.5-0.9-3-1.8-4.5-2.6c-2.2-1.2-4.5-2.3-6.8-3.4c-1.7-0.9-3.5-1.7-5.3-2.5c-0.7-0.3-1.4-0.4-1.7,0.5
		c-0.3,0.8,0.4,1.2,1,1.5c4.3,2.3,8.5,4.6,12.8,6.8c1.1,0.6,2.3,0.9,3.4,1.4c0.3,0.1,0.6,0.2,0.9,0.4c3.3,2.7,6.7,5.3,9.9,8.2
		c1.3,1.1,2.3,2.6,3.3,4.1c0.5,0.7,0.4,1.7,0.7,2.6c0.7,1.8,1.6,3.6,2.4,5.5c0.3,0.7,0.5,1.4,0.8,2.1c-1.2-0.3-2-0.8-3-1.3
		c-1.6-0.8-3.2-1.6-4.9-2.2c-1.7-0.6-3.4-0.9-5.1-1.5c-2.7-0.9-5.3-1.9-8-2.8c-5-1.6-10-3.5-15.3-4.1c-3.1-0.4-6.2-1.2-9.3-1.2
		c-6-0.1-11.9,0.2-17.9,0.4c-0.9,0-1.8,0.2-2.6,0.6c-1.5,0.7-2.9,1.5-4.2,2.5c-2.1,1.5-3.5,3.6-4.1,6.1c-0.8,3.4,0,6.7,1.6,9.8
		c2,3.9,3.9,7.8,5.8,11.7c0.5,1,0.7,2.1,1.2,3.1c1,1.8,2.3,3.6,3.3,5.4c1.5,2.5,2.6,5.2,4.3,7.4c3.5,4.4,7.3,8.6,11.1,12.8
		c2.3,2.6,4.8,5,7.1,7.6c2.2,2.5,4.1,5.3,6.4,7.7c2.8,3,5.9,5.8,8.8,8.7c0.6,0.6,1.4,1.2,1.4,1.8c0,1.2,0.7,2,1.5,2.8
		c0.9,0.9,1.9,1.9,2.9,2.7c1.8,1.5,2.9,3.7,5,4.9c1.4,0.8,2.4,2.2,3.6,3.3c3.7,3.4,7.4,6.7,11.1,10.2c-1,0.3-2,0.6-3.1,0.8
		c-4.2,0.5-8.4,1.1-12.6,1.5c-7.1,0.6-14.2,0.9-21.3,1.4c-1.5,0.1-2.1,1-1.8,2.5c0.2,0.9,0.7,1.1,1.5,1c1.8-0.3,3.6-0.5,5.4-0.7
		c1.3-0.2,2.6-0.3,3.9-0.5c2-0.3,3.9-0.6,5.9-0.8c2.4-0.2,4.8-0.3,7.2-0.5c1.9-0.2,3.9-0.4,5.8-0.5c2.6-0.2,5.2-0.3,7.8-0.5
		c1.5-0.1,2.9-1.2,4.4-0.3c0.4,0.2,0.8,0.4,1.2,0.6c-0.3,0.4-0.4,1.1-0.8,1.3c-3.1,2.1-6.2,4-9.3,6.1c-2.4,1.6-4.8,3.3-7.1,5
		c2-0.5,4-1.1,6-1.6c2.8-1.9,5.7-3.6,8.6-5.4c1.6-1,3.2-2.1,4.8-3.1c0.4-0.3,1.1-0.4,1.5-0.2c0.8,0.4,1.6,1,2.3,1.6
		c3.7,3.1,7.3,6.2,10.9,9.2c1.3,1.1,2.4,2.4,3.8,3.2c3,1.7,5.7,3.8,8.2,6.1c2.1,2,4.6,3.3,7.4,4.2c3.5,1.1,7,1.9,10.6,2.1
		c2.9,0.2,5.8,0.8,8.6-0.4c0.6-0.3,1.4-0.4,1.8-0.8c0.8-0.9,1.6-1.9,2-3.1c1.5-4.3,2.8-8.6,4.1-13c0.7-2.4,1.4-4.8,1.9-7.2
		c0.7-3.7,1.2-7.4,1.9-11.1c0.5-2.5,1.3-5,1.8-7.5c0.7-3.3,1.6-6.6,3.5-9.4c1.2-1.7,2.4-3.5,3.6-5.2c-0.4-0.8-0.2-1.9,0.8-2.4
		c0.5-0.2,1.1-0.5,1.6-0.7c1.6-1.9,3.3-3.6,5.3-5.2c0.3-0.2,0.3-1,0.2-1.5c0-0.1-0.8-0.4-1-0.2c-1.6,1.1-3.2,2.2-4.6,3.6
		c-1.5,1.6-2.8,3.4-4.2,5.2c-0.7,0.9-1.3,2-2,2.9c-0.2,0.2-0.6,0.3-0.9,0.4c0-0.2-0.1-0.5-0.1-0.7c1.2-3.8,2.3-7.5,2-11.5
		c0-0.4,0.1-0.9,0.3-1.1c1.3-1.2,2.4-2.4,4.1-3.2c2.2-1,4.3-2.3,6.2-3.7c1.6-1.3,3-3,4.4-4.6c0.5-0.6,0.9-1.4,1.4-2.1
		c-1.5-1.1-2.3-0.3-3.6,1.3c-2.1,2.7-4.5,4.9-7.5,6.6c-1.1,0.6-2.2,1.3-3.3,1.9c-1,0.7-2.2,0.2-2.3-1c-0.1-1.4-0.2-2.9-0.2-4.3
		c-0.1-3.5-0.1-7.1-0.2-10.6c-0.1-5.2-0.3-10.4-0.5-15.5c0-1.6,0.2-3.2,0.1-4.8c-0.1-2.1-0.5-4.3-0.6-6.4c-0.1-2.8,0-5.7,0-8.5
		c0-0.9,0.1-1.7,0-2.6c-0.1-1.7-0.4-3.3-0.5-5c-0.1-2.8-0.2-5.6-0.2-8.4c0-1.2-0.1-2.5,0-3.7c0-0.3,0.4-0.6,0.5-0.9
		c0.3,0.2,0.7,0.3,0.8,0.6c0.3,0.6,0.6,1.3,0.9,2c0.7,1.9,1.1,4,2,5.8c1.7,3.7,3.6,7.3,5.4,10.9c3.1,6.1,6.2,12.2,9.3,18.4
		c0.2,0.3,0.3,0.6,0.5,1c1.8,5.2,3.5,10.5,3.7,16.1c0.1,4,0,7.9-1.8,11.7c-1.7,3.7-3.3,7.4-4.8,11.2c0.1-0.1,0.3-0.2,0.4-0.3
		c0.7-0.6,1.6-0.4,2.1,0c1.3-3.2,2.7-6.4,4-9.7c1.2-2.9,2.4-5.8,2.6-8.9C215.8,252.2,215.1,248.3,214.4,244.4z M151.3,42.4
		c-0.6,2.3-1.6,4.1-3.7,4.9c-1,0.4-2.3,0.2-3.4,0.2c-1.2,0-2.4-0.2-3.6-0.3c-0.1-0.1-0.2-0.2-0.3-0.3c1-1,2-1.9,3.2-3
		c0,1.5,0.7,2.2,1.9,2.6c1.1,0.4,2.3,0.4,3-0.6c0.9-1.2,0.6-2.5,0-4.1C149.4,41.9,150.3,42.2,151.3,42.4z M156,194.4
		c-4.4-0.3-8.7-0.5-12.7-2.8c-1.3-0.8-2.9-1.1-4.2-1.8c-2.6-1.3-5.1-2.9-7.7-4.2c-1.8-0.9-3.6-1.8-5.5-2.6c-2.8-1.2-5.6-2.3-8.4-3.6
		c-2.8-1.2-5.5-2.4-8.2-3.7c-2.9-1.5-5.8-3.1-8.7-4.6c-2-1-4.1-1.7-6.1-2.6c-3.8-1.7-7.5-3.4-11.4-5c-1.8-0.7-3.7-1.1-5.5-1.6
		c-2.7-0.7-5.5-1.6-8.3-2c-2.1-0.3-4.2-0.1-6.3-0.1c-0.4,0-0.8,0.1-1.5,0.1c2.8-2.3,5.5-4.4,8-6.6c2.7-2.4,5.2-5.1,7.8-7.6
		c1.5-1.4,3.2-2.7,4.8-4.1c0.9-0.8,1.7-1.7,2.6-2.4c0.9-0.7,1.9-1.4,2.7-2.1c1.6-1.4,3.5-2.6,4.8-4.3c2.3-2.9,4.3-6,6.4-9
		c1.5-2.1,1.8-4.4,1.9-6.9c0-3.5-0.1-7-1.4-10.2c-0.9-2.1-2.3-4.1-3.4-6.1c-0.2-0.3-0.5-0.6-0.7-0.7c1.2-0.9,2.4-1.6,3.4-2.5
		c1.8-1.7,1.4-5.7-0.6-7.1c-1-0.7-2.8-0.7-4,0.2c-1.7,1.3-3.5,1.4-5.4,1.1c-1.3-0.2-2.7-0.2-4-0.6c-5.5-1.6-8.6-5.7-10.5-10.7
		c-0.3-0.7-0.3-1.5-0.2-2.2c0.2-1.1,1.3-1,1.9-0.8c0.8,0.2,1.5,0.8,2.1,1.4c0.6,0.6,1,1.3,1.5,2c-1.5,1.8-1.2,4.4,0.1,6.1
		c0.2,0.3,0.8,0.4,1.1,0.3c0.3-0.1,0.4-0.7,0.4-1.1c0-0.3-0.3-0.6-0.4-1c-0.6-1.3-0.5-2.1,0.5-3.1c1-1.1,0.9-1.5-0.2-2.5
		c-0.7-0.6-1.1-1.3-1.7-2c-1.5-1.8-3.3-2.4-5.5-1.7c-0.9,0.3-1.4,0.9-1.4,1.9c-0.3,3.4,1.4,5.9,3.2,8.5c1.5,2.2,3.2,4,5.5,5.1
		c1.9,1,4.1,1.5,6.3,1.9c2,0.3,4,0.6,6-0.2c0.7-0.3,1.3-0.7,2-1.1c1.6-0.8,2.3-0.4,2.4,1.4c0,0.7,0.1,1.5,0,2.2
		c-0.3,1.1-1,2-2.2,2.2c-1.1,0.2-2.2,0.5-3.3,0.5c-1.4,0-2.8-0.3-4.2-0.4c-1.6-0.2-3.2-0.3-4.7-0.5c-3.1-0.3-5.1-2.1-6.5-4.7
		c-1.1-2.1-2.2-4.1-3.2-6.2c-0.7-1.5-1.2-3-1.8-4.5c-0.5-1.3-1-2.5-1.4-3.9c-1-3.3,1.4-6.2,4.8-6c1.6,0.1,2.8,0.7,3.8,1.9
		c0.8,0.9,1.7,1.5,2.5,2.4c0.7,0.7,1.2,1.5,1.8,2.2c0.8,1,1.8,1.9,2.6,2.9c0.8,1,1.5,2,2.4,3c0.3,0.3,0.7,0.5,1.1,0.8
		c0.2-0.4,0.6-0.8,0.6-1.3c0-1.1-0.3-2.2-0.4-3.3c-0.1-1.8-0.2-3.6,0-5.3c0.3-2.3,0.2-4.5-0.5-6.7c-0.5-1.4-0.5-3.1-0.5-4.6
		c0-4.3-0.4-8.5-2.7-12.4c-1.5-2.6-2.1-5.6-2.3-8.5c-0.1-1.9,0.2-3.9,0.4-5.8c0.1-1.1,0.3-2.1,0.5-3.1c0.5-2.3,1.2-4.6,2.2-6.7
		c1-2,2.4-3.6,4.1-5.1c0.4-0.3,0.6-0.8,0.8-1.2c-0.4-0.1-0.9-0.2-1.3-0.4c-3.2-1.1-6.7-0.9-9.6-3c-0.3-0.2-0.6-0.4-0.8-0.7
		c-0.1-0.3-0.2-0.7-0.1-0.9c0.2-0.3,0.6-0.7,0.8-0.6c0.6,0,1.3,0.2,1.8,0.5c2,1.2,4,2.1,6.4,2.2c1.2,0.1,2.4,0.8,3.6,1.1
		c0.7,0.2,1.4,0.3,2.1,0.1c3.2-1.1,6.4-2.2,9.6-3.3c3-1,6.1-1.9,9.1-2.9c4.2-1.3,8.6-1.8,12.8-1.2c2.7,0.4,5.4,1.8,7.9,3.2
		c3.1,1.9,6.1,4.1,8.8,6.5c2.2,1.9,3.6,4.4,4.9,7.2c-3.6-0.4-4.9,2.4-6.6,4.4c-1.4,1.7-2.5,3.7-3.8,5.6c-0.4,0.6-0.6,1.3,0.1,1.6
		c0.3,0.1,1-0.3,1.3-0.6c1.8-2.4,3.4-5,5.3-7.3c1.1-1.2,2.6-2.3,4.5-1.8c0.7,2.7,1.4,5.4,2.1,8.2c-2-0.8-3.5-3.1-5.7-2
		c-1.8,0.9-3.4,2.3-5,3.6c-0.2,0.2-0.2,0.7-0.2,1.1c0.1,0.1,0.2,0.1,0.3,0.2c0.9-0.6,1.8-1.3,2.8-1.9c0.1-0.1,0.2-0.2,0.3-0.3
		c2.3-1.8,3.9-1.7,6.1,0.4c-3.7,0.3-6.2,2.5-8.5,5.1c-0.8,0.9-1.5,1.8-2.3,2.7c0.1,0.1,0.1,0.2,0.2,0.2c1.8,0.3,3.7,0.6,5.5,0.8
		c4,0.3,6.2-0.1,8.1-4.3c0.2-0.4,0.3-0.8,0.6-1.3c2.1,2.6,4.6,4.8,5.6,8.1c1.1,3.3,2.6,6.5,3.7,9.7c1.7,4.8,2.5,9.8,2.7,14.8
		c0.1,3.9,0.2,7.9,0.5,11.8c0.2,2.3,0.8,4.5,1,6.8c0.2,2.5,0.1,5-0.9,7.3c-0.1,0-0.3,0-0.4,0c-0.1-0.4-0.2-0.9-0.2-1.3
		c-0.2-3.1-0.5-6.2-0.7-9.3c-0.1-1.7-2.9-3.7-4.5-3.8c-1.3-0.1-2,0.9-2.6,1.8c-1.3,2-2,4.2-2.3,6.6c-0.4,3.7-0.8,7.4-0.9,11
		c-0.1,2.9-2.2,3.9-4.2,5c-2.8,1.6-5.9,2.1-9.1,2c-5-0.3-10-0.3-15-0.8c-2.9-0.3-5.8-0.9-8.5-1.9c-2.5-1-4.7-2.9-6.2-5.3
		c-1.8-3.1-4.6-5.3-7.3-7.4c-0.3-0.2-0.9-0.4-1.3-0.2c-0.7,0.2-0.7,0.9,0,1.4c1.6,1.3,3.3,2.6,4.7,4.1c1.3,1.4,2.1,3.2,3.5,4.5
		c1.6,1.6,3.3,3.2,5.2,4.3c1.6,0.9,3.6,1.2,5.4,1.5c3.4,0.7,6.8,1.2,10.3,1c1.7-0.1,3.4,0.3,5.1,0.4c1.6,0.1,3.2-0.1,4.8,0.1
		c2.7,0.3,5.3-0.2,7.7-1.3c1.3-0.6,2.5-1.3,3.9-2c0.1,0.3,0.2,0.6,0.2,0.9c0,0.8,0,1.6,0,2.4c0.2,2.2,0,4.3-2,5.9
		c-1.2,0.9-1.8,2.5-2.9,3.6c-1.2,1.4-2.5,2.8-4,3.9c-1.7,1.2-2.8,2.7-3.4,4.7c-0.7,2.6-1.4,5.1-1.3,7.8c0.1,2.8,0,5.7-0.1,8.5
		c-0.1,1.8,1.1,3.1,1.9,4.5c2.3,4.5,4.7,9,7.2,13.4c1.1,2,2.7,3.7,3.9,5.7c0.8,1.3,1.4,2.8,2.1,4.3c0.4,0.8,0.7,1.7,1.1,2.5
		c1,2.2,1.6,4.4,1.6,6.9c0,2.1,0,4.2,0.1,6.2C157,194.2,156.7,194.5,156,194.4z M162.6,94.4c-0.1,2.3-1.6,3-3.6,2
		c-0.5-0.3-1.1-0.6-1.5-1c-0.5-0.5-1-1.1-0.6-2c0.5-1.1,0.9-2.3,1.4-3.4c0.4-0.8,1-1,1.9-0.6c1.2,0.6,1.9,1.4,2,2.7
		C162.3,93.1,162.5,93.9,162.6,94.4z M187.4,184.8c0.2,3.3,0.4,6.5,0.5,9.8c0,1.4-0.4,2.8-0.4,4.3c0,3.5,0.1,6.9,0.3,10.4
		c0.1,3.8,0.3,7.5,0.5,11.3c0.3,7.1,0.5,14.3,0.7,21.4c0.1,3.5,0,7.1,0.1,10.7c0.1,4.6,0.5,9.3,0.6,13.9c0.2,6.2,0.2,12.4-1.3,18.5
		c-0.8,3.3-1,6.7-1.6,10c-0.4,2.3-1.1,4.6-1.6,6.9c-0.5,2.4-0.7,4.8-1.2,7.2c-1,4.5-2,9.1-3.2,13.6c-0.9,3.6-2,7.1-3.1,10.6
		c-0.4,1.3-0.9,2.6-1.6,3.8c-0.6,1.1-1.5,1.7-2.9,1.9c-6.1,0.8-12-0.3-17.8-2c-2.8-0.8-5.1-2.5-7.2-4.5c-1.8-1.8-3.6-3.4-5.9-4.3
		c-2.6-1.1-4.3-3.3-6.4-5.1c-3.3-2.7-6.3-5.7-9.9-8.1c-2.2-1.4-4-3.5-6-5.3c-0.5-0.5-1-1-1.6-1.5c-2.8-2.2-5.7-4.2-8.4-6.5
		c-2.4-2-4.5-4.2-6.8-6.2c-4-3.5-7.1-7.6-10.5-11.6c-2.3-2.7-5.1-5-7.5-7.6c-3.1-3.3-6.2-6.8-9.2-10.2c-0.1-0.1-0.1-0.2-0.2-0.3
		c-4.1-4.5-8.2-8.9-12.3-13.4c-3.7-4-6.8-8.3-9.3-13.1c-0.9-1.7-2.2-3.2-3-4.9c-3-6.8-5.6-13.7-5-21.4c0.3-3.8,1.7-7.1,4.7-9.6
		c0.5-0.4,1.3-0.8,2-0.8c5.5-0.2,11.1-0.5,16.6-0.5c2,0,4,0.6,6,0.9c4.7,0.7,9.4,1.9,13.9,3.5c4.6,1.7,9.2,3.5,14,4.6
		c3.6,0.8,6.4,3,9.7,4.2c3.5,1.3,6.1,3.7,8.5,6.6c3,3.6,4.8,7.9,7.4,11.7c1.2,1.8,2.5,3.6,3.8,5.4c2.2,3.2,4.3,6.5,6.4,9.7
		c2.5,3.8,5,7.6,7.6,11.3c1.2,1.7,1.6,3.3,1.2,5.5c-0.9,5-1.2,10.1-1.8,15.1c-0.2,1.8-0.2,3.7-0.3,5.5c-0.2,2.8,0.3,5.5,1,8.2
		c0.2,0.8,0.6,1.5,1.5,1.2c0.9-0.2,1-1,0.8-1.7c-1-3.5-1-7.2-0.8-10.8c0.2-3.7,0.7-7.4,1.1-11.1c0.3-2.3,0.6-4.6,1-6.9
		c0.1-0.6,0.7-1.2,1-1.7c0.2-0.4,0.5-0.7,0.6-1.1c0.8-2.7,1.4-5.4,2.2-8.1c0.8-2.7,1.7-5.4,2.4-8.2c0.5-2.2,0.7-4.4,0.9-6.6
		c0.3-2.6,0.6-5.1,0.8-7.7c0.1-0.5,0.1-1,0.1-1.5c-0.1-4.4-0.3-8.7-0.2-13.1c0.1-4.2,0.6-8.4,0.7-12.6c0.1-5-0.1-10-0.2-15
		c0-1.2,0.1-2.5-0.1-3.7c-0.2-1.6-0.3-3.2-0.9-4.6c-1.4-3.1-2-6.6-4.4-9.3c-3.3-3.7-5-8.4-7.5-12.7c-0.9-1.6-1.8-3.2-2.7-4.9
		c-0.6-1.1-1.2-2.2-1.7-3.4c-0.1-0.2-0.2-0.5-0.2-0.8c0.1-3.2,0.2-6.4,0.2-9.6c0-2.7,0.8-5.2,1.8-7.7c0.3-0.7,0.9-1.3,1.6-1.8
		c2.8-2,5-4.5,6.9-7.4c0.2-0.3,0.4-0.5,0.6-0.8c0.1-0.1,0.2-0.2,0.3-0.3c0.1,0,0.3,0.1,0.4,0.1c-0.5,2.2-0.7,4.5-1.5,6.6
		c-1.1,2.9-1,6-1.6,9c-0.3,1.4-0.4,2.9-0.5,4.4c-0.1,0.6-0.2,1.3,0.7,1.4c0.8,0.1,1-0.4,1.1-1.1c0.4-2.9,0.7-5.9,1.2-8.8
		c0.3-1.8,1.1-3.6,1.4-5.4c0.5-3.2,0.9-6.3,1.2-9.5c0.2-1.6,0-3.2,0-4.8c0.1-1.9,0.3-3.7,0.4-5.6c0.3-3.4,0.7-6.8,1-10.2
		c0-0.5,0-1,0-2c2,2.1,4.2,2.3,6.7,2c0,2.2,0,4.3,0,6.4c0,0.6,0.2,1.2,0.2,1.9c0.2,2.2,0.5,4.5,0.7,6.7c0.1,0.7-0.2,1-0.9,0.9
		c-0.6,0-1.2-0.1-1.7,0c-0.5,0.2-1,0.6-1.4,1c0.5,0.3,1,0.8,1.5,0.9c0.7,0.1,1.5,0,2.4-0.1c0.1,0.6,0.3,1.2,0.3,1.8
		c-0.1,4.4-0.1,8.9-0.2,13.3c0,0.7,0,1.6,0.8,1.6c0.8,0,1.1-0.7,1.1-1.6c0-4,0.1-8.1,0.2-12.1c0-1.5,0.9-2.3,2.4-2.3
		c0.3,0,0.6,0,0.8,0c2.6,0.2,3.5,0.8,4,3.4c0.4,2.1,0.6,4.3,0.7,6.4c0.1,3.3-0.1,6.5-0.1,9.8c0,0.3,0,0.6,0.1,0.8
		c0.3,0.4,0.6,0.6,0.9,0.9c0.3-0.4,0.8-0.7,0.8-1.1c0.2-1.8,0.2-3.7,0.2-5.5c0-2.2,0-4.3,0-6.5c0-1.6,0.7-2.2,2.1-1.7
		c1.9,0.6,3.4,1.6,3.9,3.6c1,3.8,2,7.6,3,11.5c0.1,0.6,0,1.2,0.1,1.8c0,0.4,0,0.8,0.2,1c0.3,0.4,0.9,0.7,1.3,1
		c0.2-0.5,0.7-1,0.6-1.4c-0.5-3.2-1.1-6.3-1.7-9.4c0-0.1-0.1-0.3-0.1-0.5c1.5-0.1,2.5,0.8,3.1,1.8c2.8,4.3,4.9,9,6.4,13.9
		c0.5,1.6,0.3,3.3-0.1,4.9c-0.8,3.6-1.5,7.3-2.2,11c-0.4,1.9-0.4,3.9-0.9,5.8c-0.7,2.4-1.6,4.8-2.6,7.2
		C187.7,178.3,187.2,181.5,187.4,184.8z"/>
	<path class="st1" d="M138.4,48c1.7,1.5,3.4,3.1,5.1,4.6c2.5,2.1,5.2,4.1,7.6,6.3c2,1.9,2.8,4.3,1.6,7.1c-0.4,1.1-0.9,2.1-1.4,3.1
		c-0.3,0.6-0.8,1.1-1.3,1.5c-0.4,0.3-1,0.2-1.6,0.2c0.2-0.5,0.2-1.1,0.5-1.4c1.6-1.4,2.3-3.3,2.7-5.3c0.3-1.5-0.4-2.8-1.3-3.9
		c-1-1.1-2.2-1.9-3.3-2.9c-1.6-1.3-3.3-2.5-4.8-3.9c-2-1.9-4-3.8-5.8-5.8c-0.5-0.6-0.8-1.5-1-2.4c-0.1-0.3,0.2-0.8,0.4-1.2
		c0.3,0.3,0.8,0.5,1,0.9c0.5,0.9,1,1.8,1.5,2.8C138.3,47.8,138.3,47.9,138.4,48z"/>
	<path class="st1" d="M138.5,88.9c0.3-0.5,0.7-1,1-1.5c0.5-0.8,1.1-1.5,1.6-2.4c1.8-3.3,4.3-5.9,7.8-7.5c0.5-0.2,1.1-0.2,1.6-0.4
		c0.5-0.2,1.1-0.4,1.4-0.7c1.6-2.1,3.7-2.3,6-2c1.6,0.2,3.2,0.7,4.2,2.1c0.3,0.4,0.6,1.1,0.6,1.5c-0.5,3-1.7,5.6-4.2,7.5
		c-3.6,2.7-7.6,3.9-12,3.7c-1.3-0.1-2.6-0.6-3.9-0.6c-1,0-2,0.4-3.1,0.6c-0.2,0-0.5,0-0.7,0C138.7,89.1,138.6,89,138.5,88.9z
		 M142.8,87.1c1.2,0,2-0.1,2.8,0c4.7,0.8,8.7-0.8,12.4-3.5c1.6-1.2,2.8-2.6,2.9-5c-1.2,0.4-2.2,0.8-3.3,1.2c-2.4,0.9-4.8,2-7.3,2.8
		C147.6,83.4,145.3,85,142.8,87.1z M142.7,85.1c4.1-3.3,9.1-4.7,13.9-6.4c1.3-0.4,2.5-1.1,3.7-1.7c0-0.1,0-0.2,0-0.3
		c-0.8-0.3-1.6-0.7-2.5-0.8c-1.9-0.3-3.6-0.1-4.9,1.6c-0.4,0.5-1.3,0.8-2,1c-0.7,0.3-1.5,0.3-2.2,0.6
		C146.2,80.6,144.2,82.6,142.7,85.1z"/>
	<path class="st1" d="M107,60.7c0.1-0.1,0.2-0.3,0.3-0.4c2.8-2.4,5.5-4.9,8.4-7.1c1.9-1.5,4.1-1.7,6.4-1c0.8,0.2,1.7,0.4,2.5,0.7
		c0.9,0.2,1.1,0.9,0.8,1.7c-1.5,3.5-3.9,6-7.8,6.6c-2.3,0.4-4.6,0.1-7,0.1c-0.7,0-1.5-0.1-2.2,0.1C107.8,61.5,107.4,61.4,107,60.7z
		 M111.3,59.7c2.3,0.6,4.7,0.3,6.9-0.3c-1.1-1.3-2.1-2.5-3.1-3.8C114,56.8,112.6,58.3,111.3,59.7z M124.2,53.9
		c-1.5-0.3-2.6-0.4-3.7-0.6c0.4,1.5,0.8,2.9,1.2,4.5C122.6,56.5,123.3,55.3,124.2,53.9z"/>
	<path class="st1" d="M122.9,44.2c-2.1-0.6-4.2-0.6-6.4-0.1c-0.7,0.2-1.3,0.3-2,0.5c-2.3,1.1-4.7,2-7.2,2.4c-1.5,0.8-2.9,1.8-4.1,3
		c-1,1-1.9,2.1-2.7,3.2c-0.9,1.2-1.9,2.3-1.9,3.9c0.1,0.1,0.2,0.2,0.3,0.3c0.3-0.3,0.7-0.5,1-0.8c0.9-1.1,1.6-2.4,2.5-3.5
		c2.5-3,6.3-3.8,9.7-5.2c3.4-1.4,6.9-1.1,10.5-1.4c0.8-0.1,1.5-0.3,1.4-1.1C124,45,123.4,44.4,122.9,44.2z"/>
	<path class="st1" d="M136.3,69.7c0,0.4,0,0.8,0,1.2c0.1,1,0.8,1.5,1.8,1.6c1,0.1,1.6-0.4,1.8-1.3c0.3-2.2,1.8-3.2,3.6-4
		c1-0.5,1.8,0,2.4,0.7c0.7,0.7,0.2,1.2-0.6,1.4c-1.6,0.4-3,0.9-4,2.3c-0.2,0.2-0.3,0.5-0.4,0.7c-1,1.6-1.5,1.9-3.2,1.3
		c-1.8-0.6-2.5-1.7-2.2-3.2c0-0.3,0.4-0.5,0.6-0.7C136.1,69.6,136.2,69.6,136.3,69.7z"/>
	<path class="st1" d="M212.5,241.6c-0.2-3.3-1.1-6.3-2.7-9c0-0.1-0.1-0.3-0.1-0.4c-0.1-0.2-0.1-0.3-0.2-0.5c0,0,0,0,0,0c0,0,0,0,0,0
		c-0.8-1.9-1.7-3.6-2.8-5.3c-0.4-0.6-1-0.8-1.6-0.9c-1.2-2.8-2.7-5.5-4.4-8c-0.2-0.2-0.4-0.4-0.6-0.6c-0.7-1.4-1.4-2.9-2.2-4.3
		c-0.2-0.4-0.6-0.7-1-0.8c-0.4-0.8-0.7-1.7-1.1-2.5c-0.4-1.2-0.8-2.4-1.2-3.5c-0.6-2.2-1-4.4-2.3-6.4c-0.2-0.2-0.4-0.4-0.7-0.4
		c0-0.1,0-0.2,0-0.3c0.1-1.3-1.9-1.3-2,0c-0.2,2.9-0.1,5.8,0.2,8.7c0,0.1,0,0.1,0,0.2c-0.3,0.1-0.5,0.4-0.5,0.9c0,0,0,0.1,0,0.1
		c-0.1,0.3-0.2,0.8,0,1.2c0,0.1,0.1,0.3,0.1,0.5c0,0.1,0.1,0.2,0.1,0.3c0.1,0.8,0.2,1.6,0.2,2.3c0,0.3,0,0.6,0,0.9
		c0,0.1,0,0.3,0.1,0.4c0,0.5,0.1,1,0.1,1.6c-0.1,0.8-0.2,1.5-0.2,2.3c0,0,0,0.1,0,0.1c0,2.3-0.5,5.5,0.3,7.9c0,0.3,0,0.7,0,1
		c0,0.5,0.2,0.7,0.6,0.9c-0.8,14.3-0.8,28.6,0.1,42.8c0.1,0.9,0.4,1.7,1,2.3c-1.6,3.4-2,7.7-2.9,11c-1.7,6.3-3.6,12.6-4.8,19
		c-1.1,5.8-1.3,11.6-2.8,17.3c-1.5,5.8-3.4,11.5-5.3,17.2c-7,1.7-14,2.8-21.1,0.3c-0.5-0.2-1-0.3-1.5-0.3c-0.5-0.4-0.9-0.8-1.4-1.2
		c-4.7-3.9-9.7-7.6-14.8-11c-0.8-0.5-1.6-0.7-2.5-0.7c-3.8-6-9.1-10.9-15.5-14.9c-0.9-0.6-1.9-0.8-2.9-0.6c-1.1-2.6-4.4-4.8-6.1-6.5
		c-5-4.9-10.2-9.7-15.3-14.5c-10.4-9.9-20.7-20-29.4-31.5c-0.6-0.8-1.4-1.2-2.2-1.2c-2.1-3.6-4.4-7.2-6.8-10.6
		c-0.6-0.8-1.3-1.1-2.1-1.1c-3.1-8.7-7.5-16.9-10.2-25.7c-1-3.3-1.8-7.2-2.2-11.4c0.6,0.2,1.3,0.1,1.8-0.2l7.2-4.3
		c5.2,0.7,10.2-1.1,15.5-1.3c7-0.3,13.9,1.1,20.6,3c5.9,1.7,12.4,3.4,17.9,6.2c4.6,2.3,7.8,4.8,13.1,5.1c0.1,0,0.2,0,0.2,0
		c0.2,0.6,0.4,1.2,0.6,1.7c0.6,1.3,1.6,2.6,2.6,3.8c0.2,0.7,0.8,1.2,1.4,1.5c0.6,0.7,1.3,1.3,1.9,2c0,0.7,0,1.3-0.1,2
		c0,1.2,0.7,2,1.7,2.3c-0.4-0.4-0.7-0.9-0.5-1.6c-0.4-0.2-0.8-0.7-0.8-1.3c0.2-13.2-6.2-26.7-20-29.8c-1.9-0.4-1.1-3.4,0.8-2.9
		c14.1,3.2,21.5,16.5,22.2,30c1.7-2.9,3.4-5.9,3.6-9.4c0.1-1.9,0.4-9.7-1.9-10.6c-1.8-0.6-1-3.6,0.8-2.9c4,1.4,4,7.6,4.1,11.1
		c0.3,6.9-3.1,11.2-6.1,17.1c-0.1,0.2-0.2,0.4-0.4,0.5c0.5,0.7,1,1.4,1.4,2.1c0,0.1,0,0.3,0,0.4c-0.1,1.2,0.7,2,1.7,2.3
		c1.3,2.1,2.4,4.3,3.5,6.5c0.5,1,1.3,1.3,2,1.3c1.2,4.9,3.5,9.2,7.3,13c0.4,0.4,1,0.6,1.5,0.7c0.4,1.1,0.8,2.1,1.1,3.2
		c0.7,2.3,4.2,2.5,4.8,0c4.5-18.2,6.6-36.8,6.3-55.5c0-1-0.5-1.7-1.2-2.1c0.1-0.8,0.1-1.5,0.2-2.3c0.1-1.7-1.7-2.7-3.2-2.4
		c-7.3,1.5-13.4-4.6-19.7-7.2c-2.6-1.1-5.4-1.9-8-2.9c-0.1-0.1-0.2-0.2-0.4-0.3c-2.5-1.6-4.9-3.1-7.4-4.7c-1-0.6-2-0.4-2.7,0.2
		c0,0-0.1,0-0.1,0c-0.5-0.2-0.9-0.3-1.3-0.3c-0.5-1-1.7-1.6-2.8-1.4c-7-3.9-14.1-7.3-21.4-10.5c-0.9-0.6-1.9-1-3.1-1.3
		c-0.2-0.1-0.5-0.1-0.7-0.1c-8.6-4.5-18-7.3-27.8-5c-0.2,0-0.4,0.1-0.6,0.2c-0.1,0-0.3,0-0.5,0.1c-14.5,4-20,19.5-20.8,34
		c-1.3,2.4-2.2,5.2-2.4,7.5c-0.2,2.5,0,5.1,0.5,7.5c0.6,3,2.7,5.8,2.7,8.8c0,1.6,1.6,2.2,2.8,1.8c2.1,6,4.8,11.8,7.3,17.8
		c-0.7,0.5-1.1,1.4-1,2.5c0.7,4.1,2,8,3.6,11.7c0,1,0.1,2.1,0.5,3.2c1.1,3.4,1.8,6.3,2.3,9.9c0.7,5.6,3,10.8,4.4,16.2
		c0.2,0.9,1,1.4,1.7,1.4c0.8,2,1.6,3.9,2.5,5.9c-0.3,0.5-0.4,1.1-0.1,1.9l6,14.6c-0.3,0.7-0.3,1.4,0,2.1c1,2.1,2,6,3.9,8.3
		c-1.2,5.3-1.2,11.6-2.2,15.4c-1.3,5.1-3.7,9.8-5.6,14.6c-2.1,5.4-3.3,11-4.5,16.6c-0.8,3.9,2.3,6.9,6.2,6.2
		c9-1.8,18.4-1.4,27.6-1.9c0.3,0.1,0.6,0.2,1,0.2c0.4,0.1,0.9,0.1,1.3,0.2c0,0,0,0,0,0c0,0,0,0,0.1,0c16.6,2.2,33.9,1.8,50.6,2.2
		c17.9,0.4,35.7-0.2,53.5-1.9c4.4-0.4,5.8-5.4,4-8.2c0.5-0.7,0.7-1.7,0.6-2.8c-0.9-7.3-2.8-13.9-6-20.5c-0.2-0.4-0.5-0.8-0.7-1.1
		c-1.2-5.4-1.7-11-1.3-16.6c-1.9,5.1-3.6,10.2-6.2,15c-2,3.6-4.5,7-6.7,10.4c-4,6.3-7.8,12.6-11.6,18.9c-1,1.7-3.7,0.1-2.6-1.5
		c3.8-6.3,7.6-12.7,11.6-18.9c2.2-3.5,4.8-6.8,6.7-10.4c3.6-6.6,5.5-13.9,8.5-20.7c0.4-0.8,1-0.9,1.7-0.7c0.9-4.1,1.8-8.3,0.7-12.3
		c-0.1-0.5-0.4-0.9-0.7-1.3c0.1-0.3,0.2-0.5,0.2-0.8c2.6-6.2,5.4-12.2,8.5-18.1c0.1-0.2,0.1-0.3,0.2-0.5c-2.9,2.2-5.9,4.1-9.3,5.4
		c-1.8,0.7-2.6-2.2-0.8-2.9c4-1.6,7.6-4.2,10.9-7c0.2-0.2,0.5-0.3,0.8-0.3c4-7.2,6.1-15.4,5.9-23.7
		C213.3,248.2,213.1,244.9,212.5,241.6z M128,324.1C128,324.1,128,324.1,128,324.1C128,324.1,128,324.1,128,324.1
		c-6.1,3.1-10.5,8-15,12.9c-1.3,1.5-3.5-0.7-2.2-2.2c3.9-4.4,7.9-8.6,12.8-11.7c-4.6,0.2-10.6,2.5-13.6,3.2
		c-5.9,1.5-12,3.6-18.1,3.8c-2,0.1-2-3,0-3.1c7.4-0.2,14.8-3.1,21.9-4.8c4.2-1,11.8-3.7,15.8-0.8C131.1,322.6,129.6,325.3,128,324.1
		z"/>
</g>
</svg>
