<?xml version="1.0" encoding="utf-8"?>
<!-- Generator: Adobe Illustrator 21.1.0, SVG Export Plug-In . SVG Version: 6.00 Build 0)  -->
<svg version="1.1" id="Layer_1" xmlns="http://www.w3.org/2000/svg" xmlns:xlink="http://www.w3.org/1999/xlink" x="0px" y="0px"
	 viewBox="0 0 509.8 352.7" style="enable-background:new 0 0 509.8 352.7;" xml:space="preserve">
<style type="text/css">
	.st0{fill:none;stroke:#CCCCCC;stroke-width:10;stroke-miterlimit:10;}
	.st1{fill:#F44336;}
	.st2{fill:#FFC107;}
</style>
<g>
	<path class="st0" d="M345.1,66.7c54.8-7.2,108.8-15.2,164-23.1"/>
	<path class="st0" d="M329,68.9c2.1-0.3,4.1-0.6,6.2-0.9"/>
	<path class="st0" d="M0.9,115.8c82-12.3,163-22.3,245.2-34.8"/>
	<path class="st0" d="M343.8,188.6c42.9-5.6,85.8-11.7,128.7-17.9c12.2-1.8,24.4-3.5,36.6-5.3"/>
	<path class="st0" d="M104.4,222.4c49.3-7.6,99.4-14.2,148.1-21"/>
	<path class="st0" d="M0.7,237.1c19.3-2.7,38.5-5.4,57.8-8.2"/>
	<path class="st0" d="M471.3,281.4c12.5-1.6,25-3.2,37.5-4.9"/>
	<path class="st0" d="M335.4,300.7c18.2-2.5,36.4-5.1,54.6-7.7"/>
	<path class="st0" d="M0.9,347.7c29.2-4.2,58.4-8.5,87.7-12.5c8.3-1.1,16.7-2.2,25-3.3"/>
</g>
<g>
	<path class="st1" d="M52.8,209.7c2.1-4.6,9.9-5,13.4-1.6c1.5-6,8.1-6.4,13.1-2.3c3.1,2.5,4,6.7,4.5,10.5c0.3,2.3,0.2,4.6,0.3,6.9
		c0.1,1.2,0.4,2.3,0.7,3.4c0.3-4.5,0.8-9.6,4.6-11.2c3.7-1.6,8.5,1.3,10.3,4.6c2.7,5,0,10.7,0.4,16c0.2,2.6,1.1,3.3,3.3,4.4
		c0.7,0.3,1.4,0.7,2.1,1.2c1.9,1.4,2.4,3.2,2.8,5.5c0,0.2,0,0.4-0.1,0.6c0,2.7-0.1,5.4,0,8.1c0.1,2.5,0.7,4.5,1.4,6.7
		c1.2-2.2,1.9-4.6,3.2-6.7c1.7-2.7,3.8-5.2,5.8-7.7c5.2-6.4,10-12.2,13.1-19.9c-0.2,0-0.3-0.2-0.5-0.4c-2-2.4-4.6-4-7.2-5.7
		c-3.3-2.2-6.5-4.7-9.1-7.7c-3.7-4.2-7.8-7.9-12.4-11c-2-1.4-4-2.7-5.7-4.5c-2.3-1.2-4.4-2.7-6.2-4.4c-0.1,0-0.1,0-0.2,0
		c-0.4,0-0.9-0.2-1.2-0.5c-2.8-2.9-6.4-4.8-9.6-7.1c-1.3-0.9-2.5-1.9-3.6-2.9c-1.2-1-2.3-2.1-3.5-3.1c-2-1.7-3.9-3.5-5.9-5.2
		c-1.1,0.6-2.2,1.2-3.2,1.8c-0.9,0.6-1.6,1.3-2.4,1.9c-0.5,0.4-1,0.7-1.4,1.1c-1,1.1-1.9,2.3-3,3.5c-1.6,1.8-3.3,3.4-4.9,5.3
		c-1,1.2-1.6,2.6-2.5,3.8c-3.2,4.8-6.4,9.6-9.6,14.3c-0.6,0.8-0.4,1.9,0.3,2.3c4,2.5,8,5,11.9,7.6c0.5,0.4,1.1,0.7,1.6,1.1
		c-0.1-0.7-0.3-1.4-0.3-2.1c-0.2-1.9-0.3-3.9-0.7-5.8c0-0.1,0-0.3,0-0.4C52.7,210,52.7,209.8,52.8,209.7z"/>
	<path class="st2" d="M445.7,256c-2.1-4.2-5-7.7-9.1-10.2c-1-0.6-1.8-1.5-2.6-2.4c-1.9-1.9-3.7-3.8-6.2-5c-0.7-0.4-1.4-0.9-2.1-1.4
		c-1.3-0.9-2.4-1.9-4.1-2.1c-1-0.1-2-0.6-3-1.1c-2.5-1.2-2.5-1.2-1.7-3.8c0.9-3.1,2-6.1,3.7-8.9c1.6-2.8,2.5-5.9,2.3-9.2
		c-0.1-1.9,0-3.8,0-5.6c-0.1-4.2-0.1-8.4-0.3-12.5c0-1.4-0.2-2.9-0.4-4.3c-0.3-3.1-0.7-6.2-1-9.2c-0.2-1.4-0.1-2.9-0.4-4.3
		c-0.8-4-1.8-8-2.6-12.1c-0.5-2.6-1-5.2-1.3-7.9c-0.6-5-0.9-10-1.5-15c-0.5-4-1.2-8.1-2.1-12.1c-1.5-6.8-3.4-13.5-3.4-20.6
		c0-2.4-0.3-4.9-0.5-7.3c-0.2-2.3-0.5-4.7-0.8-7c-0.2-1.6-0.4-3.2-0.6-4.7c-0.4-2.5-1-5.1-1.2-7.6c-0.5-4.8-1.4-9.6-2.9-14.2
		c-2-6-3.9-12-5.6-18.1c-0.7-2.7-2.4-4.8-3.4-7.3c-0.1-0.4-0.5-0.7-0.9-0.9c-2.1-1.8-4.3-3.4-6.3-5.3c-3-2.9-5.6-6.3-8.8-9
		c-1.8-1.5-3.2-3.3-5-4.8c-4.2-3.4-8.9-6-14-8c-1.8-0.7-3.6-1.4-5.3-2.3c-5.3-2.8-10.6-5.6-16.3-7.4c-3.6-1.2-7.3-2-11-2.9
		c-2.5-0.6-4.9-1.2-7.4-1.5c-1.9-0.2-3.8,0.3-5.8,0.5c-2.9,0.3-5.8,0.5-8.6,1c-5.6,0.9-10.7,3-15.6,5.8c-2.2,1.2-4.3,2.6-6.3,4.1
		c-1.9,1.3-3.7,2.8-5.6,4.1c-2.6,1.8-4.9,3.7-6.7,6.2c-2.6,3.7-5.1,7.5-7.7,11.2c-0.9,1.3-1.9,2.5-2.9,3.6c-1.5,1.6-2.7,3.4-3.5,5.5
		c-0.8,2.2-1.7,4.4-2.3,6.6c-0.6,2.1-1,4.3-0.4,6.6c0.2,0.6,0.1,1.4-0.1,2c-0.7,2.1-1.5,4.2-2.3,6.2c-2.1,5.7-4.2,11.3-6.2,17
		c-1.2,3.4-1.3,6.8-0.9,10.4c0.3,2.7,0.2,5.3-1.3,7.9c-1.3,2.2-2.3,4.6-2.9,7c-1.5,5.5-2.6,11.1-2.8,16.7c-0.2,4.2,0.4,8.4,0.7,12.6
		c0.3,3.3,0.8,6.6,1.1,9.9c0.3,2.6,0.3,5.2,0.8,7.7c1,5.3,2.2,10.5,3.3,15.8c0.7,3.2,0.9,6.5,2.6,9.5c0.5,0.9,0.7,1.9,1.1,2.9
		c1.3,3.4,2.4,6.9,5.5,9.4c1.9,1.5,3.8,3,6.1,3.9c2.2,0.9,4.4,1.7,6.6,2.6c0.4,0.1,1,0.4,1,0.6c-0.1,0.5-0.2,1.3-0.6,1.5
		c-1.7,0.8-3.4,1.6-5.2,2.2c-1.4,0.5-3,0.5-4.4,0.9c-2.4,0.7-4.6,1.7-7,2.3c-3,0.8-6,1.4-9.1,2c-2.5,0.5-5.1,0.8-7.6,1.5
		c-2.1,0.6-4.1,1-6.3,0.9c-2.6-0.1-5.1,0.4-7.5,1.3c-2.3,0.9-4.5,1.8-6.9,2.3c-4.8,1-9.4,2.4-13.9,4.1c-4.5,1.7-8.7,3.7-11.9,7.3
		c-1.6,1.8-3.3,3.6-4.7,5.6c-2.3,3.5-3.2,7.6-4.7,11.4c-0.9,2.2-1.6,4.5-2.4,6.9c-0.1-0.1-0.2-0.1-0.3-0.1c0.3,1.2-1.4,2.5-2.6,1.5
		c-3.9-3.3-8.5-6.1-12.8-9c-1.8-1.2-3.6-2.3-5.3-3.6c-0.2-0.2-0.4-0.3-0.5-0.5c-2.2-1-4.3-2.3-5.4-2.9c-3.9-2-9.1-4.2-12.5-7.3
		c-0.3,0.5-0.5,1-0.9,1.4c0,0-0.1,0-0.1,0.1c0,0.1-0.1,0.3-0.1,0.4c-0.1,0.4-0.3,0.6-0.6,0.8c-2.5,6.8-6.3,12.3-10.9,17.8
		c-2.8,3.3-5.6,6.6-8,10.1c-1.9,2.8-2.6,6.1-4.5,8.8c-0.4,0.6-1.3,0.5-1.5-0.2c-0.8-2.6-1.9-4.9-2-7.7c-0.1-3.4-0.1-6.8,0-10.2
		c-0.7-3-2.2-3.9-5.2-5.4c-1-0.5-1.7-0.8-2.3-1.7c-1.6-2.7-0.2-7.4,0.1-10.2c0.5-5.1,0-12.3-6.9-12.7c-6.6-0.4-5.5,11.1-6.2,15.4
		c-0.2,1-1.5,0.6-1.6-0.2c-0.3-3.5-1.8-6.5-1.9-10c-0.1-3-0.2-6.1-1-9.1c-1-3.8-3.1-6.5-6.9-7.8c-4.2-1.4-6.9,0.8-7.1,5.1
		c0,0.7-1.1,1.2-1.5,0.4c-1.9-3.9-9.6-4.1-11.7-0.2c0.4,2.2,0.5,4.4,0.8,6.6c0.2,1.5,0.5,2.9,0.3,4.3c0,0,0,0,0,0c0,1,0.4,2,0.6,3
		c0.1,0.6,0.2,1.2,0.4,1.7c0.4,2.1,0.7,4.3,1.4,6.3c1.9,5.7,3.8,11.3,5.9,16.9c0.3,0.8,1,1.4,1.6,2.1c0.5,0.6,1.2,1.2,1.5,1.9
		c0.5,1,0.7,2.2,0.9,3.3c0.4,1.9,0.4,4,1.1,5.8c1.4,3.5,4.1,6,7.1,8.2c1.1,0.8,1.7,1.6,1.6,3c0,0.9,0.3,2.1,0.9,2.6
		c1.9,1.6,3.9,3.2,6,4.4c4.7,2.7,9.5,5.3,14.3,7.8c2.4,1.3,4.9,2.3,7.3,3.5c0.6,0.3,1,0.8,1.5,1.2c0.9,0.7,1.7,1.8,2.6,2
		c1.4,0.3,1.4,1.1,1.4,2.1c0.3,3.6,0.4,7.2,0.8,10.7c0.3,3.2,0.8,6.3,1.1,9.5c0.4,3,0.7,6,1,9c0.2,1.4,0.3,2.9,0.5,4.3
		c0.1,0.4,0.8,0.7,1.2,1.1c0.2-0.5,0.5-0.9,0.6-1.4c0.1-0.4-0.1-0.9-0.2-1.3c-0.2-2.9-0.4-5.8-0.7-8.7c-0.1-1.3-0.5-2.6-0.7-3.9
		c-0.5-3.9-1-7.8-1.3-11.7c-0.3-2.9-0.3-5.8-0.4-8.7c0.6,0.2,1.1,0.5,1.6,0.6c2.4,0.5,4.8,1.1,7.3,1.3c2.9,0.2,5.7,0,8.6,0
		c0.7,0,1.5-0.2,1.3-1.1c-0.1-0.9-0.9-0.9-1.6-0.8c-4.1,0.4-8.2,0.3-12.3-0.6c-3.9-0.8-7.4-2.4-9.8-5.9c-1.7-2.5-3.9-4.6-5.7-7
		c-1.3-1.8-2.3-3.8-3.6-6c1.1,0.1,1.7,0.2,2.3,0.1c1.2-0.2,2.3-0.5,3.4-0.8c0.2-0.1,0.3-0.7,0.5-1.1c-0.4-0.1-0.9-0.5-1.1-0.3
		c-1.4,0.8-2.9,0.5-4.3,0.6c-1.2,0.1-1.6-0.4-1.8-1.5c-0.3-2.3-0.7-4.6-1-6.9c-0.5-4.6-0.4-9.1,0-13.7c0.5,0.1,1,0.3,1.4,0.2
		c2.2-0.2,4.3-1.9,4.8-4.2c0.4-1.4,0.5-2.9,0.7-4.4c0.1-0.3,0.2-0.7,0.3-1c0.1,0,0.2,0.1,0.4,0.1c0,1.3,0,2.7,0,4
		c-0.1,4,0.2,8,1.2,11.9c1.2,5,2.8,9.8,5.5,14.1c1.6,2.6,3.8,4.8,5.8,7.1c1.6,1.8,3.3,3.5,5,5.2c2.5,2.7,5.4,4.6,9.1,5.4
		c1.9,0.4,3.6,1.3,5.7,2c-1.7,1.4-2.1,3.1-1.3,4.5c1.1,1.9,2.3,3.8,4.6,4.6c3.6,1.4,7,2.9,10.5,4.5c0.6,0.3,1.2,0.8,1.5,1.4
		c2.1,3,2.9,6.6,3.7,10.1c0.9,3.9,1.6,7.9,2.5,11.8c0.1,0.4,0.7,1,1.2,1c0.8,0,0.8-0.7,0.7-1.3c-0.5-2.4-0.9-4.8-1.5-7.2
		c-0.9-3.6-1.9-7.1-2.8-10.7c-0.3-1-0.7-1.9-1.2-3.2c2.2,1.2,4.1,2.1,5.9,3.1c1.9,1.1,3.6,2.4,5.5,3.3c6.2,2.9,12.4,5.7,18.7,8.5
		c2.3,1,4.7,1.9,7.1,2.6c2.3,0.7,4.6,1.3,6.6,2.9c0.6,0.5,1.4,0.8,2.2,0.9c0.5,0.1,1-0.3,1.5-0.5c-0.3-0.4-0.5-0.9-0.9-1.2
		c-1-0.7-2.1-1.3-3.2-1.9c-0.5-0.3-1-0.6-1.6-0.8c-3.8-1.1-7.6-2.4-11.2-4c-2-0.9-4-1.8-6-2.6c-0.8-0.3-0.9-0.8-0.5-1.5
		c0.5-1,1.1-1.9,1.5-3c0.2-0.4,0.3-1.3,0-1.5c-0.6-0.5-1.1,0.1-1.4,0.7c-0.8,1.3-1.5,2.7-2.3,4.1c-0.9-0.4-1.7-0.9-2.6-1.3
		c-3.8-1.9-7.6-3.8-11.4-5.8c-1.3-0.7-2.5-1.5-3.8-2.2c-4.4-2.1-8.9-4.2-13.5-6.4c1.7-1.2,1.8-2.8,1.4-4.6c-0.4-2-1.8-2.9-3.6-3.5
		c1.5,0.1,3,0.2,4.4,0.5c1.5,0.3,2.9,0.9,4.3,1.1c0.8,0.1,1.1,0.4,1.2,1.1c0.1,0.4,0.3,0.9,0.6,1c3.4,1.1,6.7,2.4,10.1,3.3
		c4.4,1.1,8.8,2.2,13,4.2c1.7,0.8,3.5,1.3,5.2,1.9c2.3,0.8,4.6,1.4,6.8,2.2c2.1,0.8,3.9,2.2,6,2.8c5.4,1.5,10.9,1.5,16.5,1.4
		c0.4,0,1,0,1.3-0.2c0.4-0.2,0.7-0.7,1-1.1c-0.4-0.3-0.7-0.7-1.1-0.7c-0.7-0.1-1.4,0.2-2.1,0.2c-4-0.2-8-0.5-12-0.8
		c-3.8-0.2-6.9-2.4-10.1-4.2c1-1.7,1.9-3.3,2.7-5c0.2-0.4,0.1-1.1,0.1-1.6c-0.5,0.2-1.1,0.3-1.4,0.7c-1,1.5-1.8,3.1-2.8,4.6
		c-0.2,0.3-0.6,0.6-0.8,0.6c-2-0.4-4-0.7-5.9-1.5c-5.8-2.5-11.6-4.9-17.8-6.4c-0.6-0.1-1.2-0.4-1.8-0.6c2.1-3.3,1.7-2.3,1.6-5.5
		c0-0.8-0.5-1.7-1.1-2.2c-1.2-0.9-2.6-1.6-4-2.3c-0.6-0.3-1.3-0.6-2-0.9c0-0.1,0-0.2,0-0.4c1.1-0.3,2.3-0.9,3.4-0.8
		c3,0.3,6.1,0.4,8.9,1.3c5.6,1.8,11.4,2,17.1,3.2c5.5,1.1,11.1,2,16.7,3.1c2.4,0.5,4.8,1.1,7.2,1.5c2.9,0.5,5.9,0.8,8.8,1.2
		c1.3,0.2,2.6,0.4,4,0.5c0.4,0,0.9-0.4,1.1-0.8c0.1-0.2-0.4-0.8-0.7-1.1c-0.4-0.4-1.1-0.5-1.5-0.9c-2.5-2.8-5.8-4.6-8.8-6.7
		c-2.1-1.5-4.2-2.8-5.7-5c-1-1.5-2-3.1-3.4-4.1c-2.7-2-5.5-3.7-7.6-6.5c-0.5-0.7-0.7-1.1-0.3-1.7c2.7,1.5,5.3,3,8,4.5
		c2.1,1.2,4.1,2.6,6.4,3.4c5.6,2,10.5,5.3,15.8,8c1.7,0.9,3.4,1.8,5.2,2.7c1.9,1,3.9,1.9,5.8,2.9c2.4,1.2,4.7,2.6,7.1,3.8
		c1.1,0.6,2.4,0.8,3.3,1.5c4.7,3.3,9.4,6.7,14,10.2c1.9,1.4,3.8,2.7,5.4,4.3c2.8,2.9,5.3,6,7.9,9c2.2,2.6,4.4,5.4,6.6,8
		c0.7,0.9,1.8,1.5,1.4,2.9c0,0.1,0.1,0.3,0.2,0.3c0.7,0.1,1.4,0.5,2,0.3c0.7-0.3,0.9-1.1,0.5-1.8c-0.5-0.8-0.9-1.7-1.5-2.4
		c-1.6-2-3.3-4-5-6c-2.4-2.7-4.8-5.4-7.2-8.2c-1.3-1.5-2.4-3.1-3.8-4.4c-1.3-1.2-2.8-2.2-4.3-3.3c-2.8-2.1-5.6-4.2-8.4-6.3
		c-0.5-0.4-0.8-0.8-0.7-1.6c0.2-1.5,0.2-3.1,0.1-4.6c-0.2-2.6-0.9-5.2-0.9-7.8c-0.1-5.5-0.1-11.1-0.9-16.6c-0.5-2.9-0.4-6-0.5-9
		c-0.2-4.8-0.5-9.7-0.5-14.5c0-4.8,0.2-9.6,0.5-14.4c0.1-1.7,0.3-3.4,0.6-5.1c0.5-2.7,1.2-5.4,1.9-8.1c1.1-4.3,2.3-8.6,3.5-12.8
		c0.1-0.3,0.6-0.7,1-0.8c1.4-0.3,3-0.3,4.3-0.8c2-0.8,3.9-1.9,5.7-3.1c0.7-0.5,0.7-1.9,1.1-3c0.1,0,0.5,0,0.8,0
		c5.3,0.2,10.6-0.1,15.8-1.4c2.1-0.5,4.2-1.2,6.4-1.4c5.9-0.7,11.3-2.7,16.7-4.9c4.4-1.8,8.4-4.4,12.6-6.6
		c6.1-3.1,10.8-7.6,14.7-13.2c0.8-1.2,1.6-2.4,2.5-3.5c0.2-0.3,0.7-0.3,1-0.5c0.1,0.2,0.3,0.5,0.3,0.7c0,1.1-0.2,2.2-0.2,3.3
		c0,2.6,0.1,5.2,0.1,7.9c0,3.9,0.1,7.8-0.1,11.6c-0.1,3.8-0.6,7.6-0.7,11.4c-0.1,2.1,0.1,4.1-0.5,6.1c-0.7,2.2-1.3,4.5-2.1,6.6
		c-1,2.8-2.4,5.5-3.1,8.3c-1.1,5-3.6,9.3-5.9,13.7c-1.6,3.1-3.6,6-5.4,9c-0.9,1.4-1.8,2.8-2.4,4.4c-1.5,3.5-2.9,6.9-4.2,10.5
		c-1.3,3.4-2.4,6.9-3.8,10.4c-1.2,3-1.9,5.9-2,9.1c-0.1,2.9-0.3,5.7-0.7,8.6c-0.4,3.1-0.4,6.2,0.8,9.1c1.9,4.9,4.1,9.8,6.1,14.7
		c1.2,3.1,3.4,5.5,5.9,7.6c2,1.7,3.8,3.5,4.7,6c0.2,0.5,0.5,0.9,0.9,1.3c1.8,1.9,3.7,3.9,5.6,5.7c0.2,0.2,0.8,0.3,1.2,0.3
		c1.5-0.2,2.9-0.6,4.4-0.6c4.7,0.1,9.5,0.2,14.2,0.7c5.3,0.6,10.6,1.4,16,1.3c1.9,0,3.8,0.2,5.7,0.5c5.4,0.8,10.8,1.2,16.2-0.2
		c0.5-0.1,1-0.1,1.5-0.1c0.2,0,0.5,0.2,0.7,0.4c0.7,0.9,1.5,0.9,2.1-0.1c0.5-1,1.1-2,1.3-3.1c0.4-2.3,0.6-4.7,1-7
		c0.2-1,0.6-2.1,0.7-3.1c0.1-1.3,0.1-2.7,0.2-4c0.2-0.2,0.5-0.4,0.7-0.6c4.5-5.1,5.9-11.1,6.2-17.7c0.4-7.9,0.2-15.9-0.5-23.7
		c0-0.4-0.1-0.9-0.3-1.2c0.1-1,0.3-2,0.4-2.9c0.3-2.1,0.6-4.3,1.1-6.4c0.5-2.3,1.1-4.6,1.9-6.9c1-2.7,2.3-5.2,3.4-7.8
		c0.2-0.4,0.5-0.7,0.8-1c3.6-3.2,7.9-5,12.2-6.8c0.4-0.2,1-0.2,1.3,0c4.4,3.1,9.2,5.6,13,9.5c0.7,0.7,1.9,1,2.5,1.8
		c1,1.3,1.9,2.8,2.7,4.3c0.5,1.1,1.2,1.7,2,1.3C446.2,257.9,446.3,257.2,445.7,256z M88.5,221.2c0.1-0.8,0.4-1,1.1-0.9
		c0.9,0.2,1.7,0.4,2.6,0.7c0.2,0.1,0.5,0.5,0.5,0.7c-0.1,1.1-0.2,2.3-0.4,3.4c-0.3,1.7-1.8,2.7-3.5,2.4c-0.3-0.1-0.6-0.1-0.9-0.1
		C88.1,225.3,88.4,223.3,88.5,221.2z M70,209.1c1.4,0.2,2.5,1.4,2.7,2.8c0.1,0.6,0.1,1.2,0,1.7c-0.1,0.4-0.6,0.9-1,1
		c-0.8,0.2-1.6,0-2.5,0c0-1.7,0-3.2,0-4.8C69.1,209.1,69.4,209,70,209.1z M55.9,212c1.8,0,2.8,0.8,3.7,1.8c1.6,1.7,1.1,3.8,0.8,5.8
		c0,0.3-0.9,0.6-1.4,0.7c-0.5,0.2-1,0.2-1.7,0.3C56.8,217.8,56.4,215,55.9,212z M95.3,265.1c0.1,5.1,1.2,9.9,3.6,14.5
		c1.8,3.5,4.4,6.3,6.9,9.2c0.3,0.3,0.5,0.7,0.7,1.2c-0.6-0.3-1.3-0.5-1.9-0.8c-4-2.2-7.9-4.3-11.9-6.5c-1.3-0.7-2.6-1.6-4-2.2
		c-2.9-1.2-5.4-2.9-7.8-4.8c-1.1-0.8-1.7-1.6-1.5-3c0.2-1.4-0.7-2.4-1.8-3.3c-2-1.7-3.9-3.5-5.7-5.4c-1.8-1.9-2-4.4-2.4-6.8
		c-0.3-1.9-0.9-3.7-1.6-5.5c-0.2-0.6-1-1.1-1.5-1.6c-0.5-0.4-1.7-2.9-1.5-3.5c0.1-0.2,0.3-0.4,0.5-0.5c0.3-0.2,0.7-0.4,1.1-0.5
		c0.6-0.2,1.1-0.6,0.6-1.2c-0.2-0.2-0.9-0.2-1.3-0.2c-0.4,0.1-0.8,0.4-1.4,0.7c-0.6-1.6-1.1-3.1-1.7-4.6c-0.8-2-1.5-4-2.5-5.9
		c-1.5-2.9-2.2-5.9-2.4-9.1c-0.1-1.1-0.1-2.1-0.2-3.3c0.3,0,0.6,0,0.9-0.1c2.3-0.2,3.4-1.3,3.7-3.6c0.6-4.5-1.7-7-5.4-8.2
		c-0.3-0.1-0.5-0.4-0.8-0.5c0.2-0.2,0.5-0.5,0.7-0.6c2.4-0.6,4.8-0.6,6.9,1.2c2.5,2.1,3.6,4.7,3.7,7.9c0.1,3,0.7,6,1.1,8.9
		c0.2,1.8,0.5,3.7,0.7,5.5c0.3,1.8,0.5,3.7,0.8,5.5c0.1,0.4,0.2,0.8,0.1,1.2c-0.1,4.3,0.8,8.3,2.2,12.3c1.1,3.1,2.7,5.8,4.4,8.5
		c0.5,0.8,0.7,1.7,1.2,2.5c0.2,0.3,0.7,0.4,1.1,0.7c0.2-0.4,0.5-0.9,0.4-1.2c-0.2-0.9-0.5-1.9-1-2.6c-2.8-4-4.4-8.5-5.9-13
		c0-0.1-0.1-0.2-0.1-0.4c0-0.5,0-1.1,0-1.6c0.9-0.3,1.9-0.6,2.7-1c0.4-0.2,0.5-0.7,0.8-1.1c-0.5-0.1-0.9-0.5-1.4-0.4
		c-0.8,0.1-1.6,0.5-2.4,0.7c-0.6-4.5-1.1-8.9-1.7-13.3c-0.6-4.3-1.3-8.7-1.9-13.2c1,0,1.6-0.1,2.2,0c2.5,0.3,3.4-1.4,3.4-3.4
		c0-1.9-0.6-3.6-2.1-4.7c-0.8-0.6-2.1-0.7-3.2-1.1c0.1-0.9,1.1-1.6,2.7-1.6c2.7,0,6,1.2,7,4.3c0.7,2.3,1.2,4.7,1.7,7.1
		c0.5,2.7,0.9,5.4,1.3,8.1c0.8,5,1.8,9.9,2.5,14.9c0.2,1.7,0,3.5-0.1,5.2c-0.2,2.3-0.5,4.7-0.8,7c-0.2,1.4-0.2,2.9-0.5,4.3
		c-0.4,2.7,0.6,5.2,1.5,7.6c0.8,2.1,1.7,4.2,2.6,6.2c0.2,0.4,0.8,0.5,1.2,0.8c0.2-0.5,0.4-0.9,0.5-1.4c0-0.3-0.2-0.7-0.4-1
		c-1-2.5-1.9-5.1-3.1-7.6c-0.9-2.1-0.6-4.2-0.5-6.3c0.1-2,0.4-4,0.6-6c0.3-2.5,0.6-5,0.8-7.4c0.2-1.8,0.4-3.6,0.6-5.4
		c0.2-1.9,0.3-3.9,0.5-5.8c0-0.3,0.6-0.6,1-0.7c1-0.2,2.2-0.1,3.1-0.5c2-0.9,2.4-2.8,2.6-4.7c0.1-1,0.2-2,0.4-3
		c0.1-0.8-0.1-1.2-1-1.4c-1.5-0.3-3-0.8-4.6-1.2c0.4-0.8,2.5-1.6,3.3-1.2c1.5,0.8,3,1.5,4.2,2.6c0.7,0.6,1.2,1.8,1.2,2.8
		c0.1,3.4,0.5,6.9,0,10.3c-0.6,3.8-0.1,7.8-1.6,11.5c-0.5,1.3-0.6,2.7-0.6,4.1C95.4,254.1,95.2,259.6,95.3,265.1z M101.7,249.5
		c-0.8,1.7-2.5,2.1-4.7,2.5c0.4-2.8,0.6-5.5,1.1-8c0.4-2,2.3-2.7,4.2-1.7c0.3,0.2,0.6,0.6,0.6,0.9
		C103,245.4,102.7,247.5,101.7,249.5z M143.8,296.6c1.2,0.6,1.7,1.5,1.9,2.7c0.2,1.2-0.9,1.7-1.5,2.4c-0.1,0.1-0.3,0.2-0.4,0.2
		c-1.6,0.1-5.7-3.2-6-4.8c0-0.2,0-0.3,0-0.5c0-1.1,0.4-1.3,1.6-1.4C141,295.1,142.3,295.9,143.8,296.6z M150.2,293.3
		c-1.6-0.2-3.4-0.6-5.2-0.8c-1.8-0.2-3.6-0.3-5.5-0.4c-0.3,0-0.6-0.1-0.9-0.2c-2.6-0.9-5.2-1.9-7.9-2.7c-2.5-0.8-4.5-2.2-6.3-4.1
		c-2.2-2.2-4.5-4.3-6.6-6.6c-3.1-3.3-5.7-6.9-7.3-11.2c-0.1-0.2-0.1-0.4-0.1-0.4c3.3,1.5,6.6,2.9,9.8,4.6c4.7,2.4,9.4,4.8,14,7.3
		c0.5,0.3,1.1,0.6,1.4,1c1.1,1.9,2.9,3,4.8,3.8c2.6,1.2,5.2,2.3,7.8,3.5c0.7,0.3,1.3,1,1.9,1.5V293.3z M160,291
		c1.3,0.9,1.6,3.2,0.5,4.5c-0.5,0.6-0.9,1.1-1.4,1.6c-2.4-1.5-5.1-2.2-6.8-4.4c-1.2-1.6-0.8-3.6,1-4.3c0.6-0.2,1.5,0,2.2,0.3
		C157,289.3,158.5,290.1,160,291z M195.4,274.6c1.4,1.3,2.8,2.8,4.4,3.7c2,1.2,3.4,3,4.6,4.9c1.6,2.6,3.9,4.3,6.5,5.9
		c2.2,1.3,4.2,2.9,6.3,4.4c0,0.1-0.1,0.2-0.1,0.3c-1.5-0.2-3.1-0.5-4.6-0.6c-5.4-0.2-10.5-2.1-15.8-2.9c-4.5-0.7-8.9-1.7-13.4-2.5
		c-3.5-0.6-7.2-0.7-10.6-1.6c-4.2-1-8.5-1.7-12.8-2.2c-2.4-0.3-4.6,0.1-6.7,1.6c-0.8-1.8-2.5-2.1-4.1-2.8c-2.9-1.2-5.7-2.6-8.5-4
		c-0.5-0.3-0.9-0.8-1.3-1.2c-1-0.9-1.9-2-3.1-2.6c-4.7-2.5-9.5-4.8-14.3-7.1c-2.6-1.2-5.2-2.3-7.9-3.5c-0.5-0.2-1-0.7-1.7-1.1
		c1.1-1.3,2-2.4,3-3.6c1-1.2,2-2.5,2.9-3.8c1.7-2.3,3.1-4.8,5-6.8c3.6-3.8,6.1-8.1,8.1-12.9c0.4-0.9,0.6-2,1.4-2.7
		c0.3-0.5,0.6-1.1,1-1.6c0.4-0.7,1.4-1,2.1-0.5c0.2,0.1,0.4,0.3,0.5,0.4c0.2,0,0.3,0.1,0.5,0.1c3,0.3,5.5,2.1,7.9,3.5
		c4,2.3,7.7,5.2,11.5,7.7c3.1,2.1,6.4,3.9,9.5,6c1.6,1.1,3.1,2.3,4.6,3.6c0.3,0.1,0.5,0.3,0.7,0.4c0.1,0,0.1,0.1,0.2,0.1
		c1.1,0.7,2.1,1.6,2.9,2.5c5.7,3.3,11.6,6.6,17.5,10c0.6,0.3,0.8,0.7,0.7,1.3c-0.1,1.1-0.3,2.1-0.3,3.2c0,0.6,0.1,1.4,0.5,1.8
		C193.6,273,194.5,273.8,195.4,274.6z M201.2,225c-3,5.5-5.3,11.3-5.9,17.6c-0.3,2.7-1,5.3-1.4,8c-0.5,3.4-0.8,6.9-1.2,10.4
		c-5.7-3.1-11.4-6.3-16.8-9.2c0.3-1.2,0.5-2.1,0.7-2.9c0.1-0.2,0.1-0.5,0.2-0.7c1.7-4.8,3.3-9.6,5.3-14.3c0.9-2.2,2.3-4.3,3.8-6.3
		c1.5-1.9,3.3-3.6,5.2-5.1c1.5-1.2,3.3-2.1,5.1-2.8c3.4-1.4,6.9-2.5,10.4-3.8c0.3-0.1,0.6-0.1,0.7-0.1
		C205.2,218.8,202.9,221.8,201.2,225z M342.5,145.6c-0.4,3-0.7,6.1-1.2,9.1c-0.3,2.1-0.5,4.2-2,5.9c-1,1.1-1.7,2.6-2.5,3.9
		c-2,2.9-3.8,5.8-6,8.6c-1.1,1.3-2.5,2.5-4,3.4c-3.7,2.4-7.5,4.8-11.4,7c-5.7,3.2-11.8,5.6-18.1,7.3c-4.5,1.2-9.2,1.6-13.7,2.7
		c-4.7,1.2-9.4,1.2-14.2,1.1c-1.6,0-3.2-0.3-4.6-0.9c-2.4-0.9-4.9-1.9-7.1-3.2c-2.1-1.2-4.1-2.8-5.1-5.2c-1.6-3.7-3.3-7.3-4.7-11
		c-0.8-2.2-1-4.6-1.6-7c-1-4.7-2.2-9.3-3.1-14c-0.5-2.8-0.7-5.7-1-8.5c-0.2-2.1-0.5-4.1-0.7-6.2c-0.3-2.6-0.5-5.1-0.7-7.7
		c-0.2-1.9-0.6-3.8-0.4-5.7c0.4-4.3,0.9-8.7,1.5-13c0.4-2.8,1.2-5.5,2-8.1c0.4-1.2,1-2.4,1.7-3.8c0.5,0.9,0.8,1.7,1.2,2.4
		c1.1,2.3,2.2,4.7,4.7,5.8c1.4,0.7,3.1,0.9,4.7,1.1c1,0.2,2,0,3.1,0c-0.2,0.5-0.4,0.9-0.6,1.4c-1.3,2.5-2.6,4.9-3.8,7.4
		c-1.2,2.4-2.9,4.5-4.7,6.5c-2.4,2.7-3.5,5.8-2.7,9.5c0.4,1.9,1.7,3.2,3.1,4.4c0.9,0.7,1.6,1.6,2.6,2.1c1.7,1,3.4,2.3,5.7,1.5
		c3.5-1.2,6.6,0.1,9.3,2.1c3.6,2.6,7.7,0.8,8.6-3.3c0.4-1.8,0.5-3.7,0.5-5.6c0-1.6-0.7-3-2.2-3.8c-0.3-0.2-0.8,0.1-1.1,0.1
		c0,0.4,0,0.9,0.1,1c1.5,1.2,1.8,2.8,1.6,4.5c-0.3,1.7-0.5,3.5-1.3,5c-0.9,1.9-3,2.1-4.8,0.9c-2.5-1.7-5.1-3.3-8.3-3.2
		c-0.7,0-1.4,0-2,0.3c-2.3,0.9-4,0-5.6-1.6c-0.7-0.7-1.6-1.3-2.4-1.9c-2.4-2-2.6-4.6-1.7-7.4c0.6-1.9,1.7-3.4,3.1-4.8
		c2-1.9,3.2-4.3,4.4-6.7c0.7-1.4,1.5-2.9,2.2-4.3c1.4-3.2,2.8-6.4,4-9.6c0.5-1.2,0.7-2.4,0.9-3.6c0.1-0.3-0.4-0.7-0.6-1.1
		c-0.3,0.3-0.6,0.6-0.7,1c-0.4,1.1-0.7,2.2-1.1,3.5c-3.4-2.3-7.2-2.3-10.7-3.3c-1.2-0.3-2.4-0.7-3.6-1.2c-0.6-0.2-1-0.5-0.6-1.2
		c1.6-2.8,0.8-5.7,0.8-8.7c0-1.5,0-2.9,0-4.4l0.3-0.3c2.4,2,4.7,4,7.1,6c1.1,1,2.2,2,3.4,2.8c0.4,0.3,1.1,0,1.6,0
		c-0.1-0.5,0.1-1.3-0.2-1.6c-2.9-2.9-5.9-5.8-8.9-8.7c-0.7-0.7-1.5-1.5-2.1-2.3c-0.2-0.2,0-0.8,0.1-1.2c1.5-4,3-8,4.4-12
		c1.3-3.7,2.5-7.4,4-11c0.9-2.2,2-4.4,4.1-5.8c1.5-1,3.2-0.8,4.8-1.2c2.9-0.7,5.6,0.5,8.4,1c0.4,0.1,0.8,0.4,1.5,0.8
		c0.8-1.7,1.6-3.3,2.4-4.9c1.1-2.5,2.2-5,3.4-7.4c1.4-2.6,2.9-5.2,4.4-7.7c0.5-0.8,1.3-1.5,1.9-2.3c3.5-4.2,6.9-8.6,11.7-11.5
		c2.4-1.5,4.9-2.8,7.3-4.2c0.3-0.2,0.8-0.3,1.1-0.2c0.4,0.1,0.9,0.4,1,0.7c0.1,0.4-0.1,1-0.3,1.3c-0.6,0.6-1.4,1-2.1,1.4
		c-1.9,1.2-4,2.2-5.7,3.7c-2.1,1.9-3.9,4-5.8,6.2c-2.1,2.5-4.3,5-6.1,7.7c-1.7,2.6-3.2,5.4-4.5,8.2c-1.4,3-2.6,6.2-3.9,9.3
		c-0.3,0.7-0.3,1.1,0.4,1.4c1.1,0.5,2.3,1.1,3.4,1.7c0.8,0.4,1.6,0.7,2.4,1.1c3.4,1.5,6.7,2.9,10.1,4.5c1.1,0.5,2.1,1.2,3.1,1.7
		c2.3,1.3,4.6,2.5,6.8,3.9c4.3,2.8,8.7,5.5,12.9,8.5c3.1,2.2,5.9,4.9,8.1,8c2.9,3.9,6.3,7.4,9.8,10.8c0.4,0.4,0.8,0.8,1,1.3
		c1.1,2.8,2.4,5.5,2.6,8.5c0.2,2.4,0.9,4.8,1.1,7.3c0.3,3.7,0.4,7.3,0.6,11c0.2,5.4,0.4,10.7,0.4,16.1
		C343.3,140.4,342.8,143,342.5,145.6z M247.8,101.1c1.6,0.5,2.9,1,4.1,1.4c-0.2,1.3-0.4,2.6-0.6,4.2
		C249.8,105,248.5,103.4,247.8,101.1z M255.4,108c1.3-1.2,1.3-1.2,1.8-4.5c0.8,0.3,1.6,0.6,2.3,1c0.5,0.4,1.2,1,1.1,1.5
		c-0.1,1-0.6,2-2,2C257.6,108,256.6,108,255.4,108z"/>
	<path class="st2" d="M262.5,170.8c-3.9,0.1-10.2-3.9-11.3-8.7c-0.5-2.2-0.8-4.4-0.9-6.6c-0.1-1.2-0.4-2.1-1.6-2.6
		c-0.4-0.2-0.9-0.8-0.9-1.2c0-0.8,0.6-1,1.3-0.9c1.5,0.2,3.1,0.2,4.6,0.7c1.2,0.4,2.3,1.3,3.3,2.2c1.2,1,2.5,1.3,3.9,1
		c2.3-0.6,4.3,0.1,6.4,1c1.7,0.7,3.6,1.1,5.4,1.7c4,1.3,7.9,2.7,11.9,4.1c0.4,0.2,0.7,0.6,1.1,1c-0.3,0.3-0.5,0.7-0.9,0.8
		c-2.3,1.1-4.7,2.3-7.1,3.3c-2.8,1.2-5.6,2.5-8.5,3.4C267.2,170.5,264.8,170.5,262.5,170.8z M251.7,155.8c0.2,1.5,0.3,2.9,0.5,4.2
		c0.7,5.3,6.4,9.6,11.2,9.2c0.6,0,1.3-0.1,1.9-0.2c1.3-0.2,2.8-0.1,4-0.5c4.3-1.7,8.5-3.5,12.7-5.3c0.3-0.1,0.6-0.3,0.8-0.5
		c-2.3-0.1-4.5,0-6.7,0.1c-3.9,0.2-7.8-0.3-11.6-1.2c-4.5-1-9.2-1.8-12.4-5.7C252.1,155.8,252,155.8,251.7,155.8z M277.9,160.7
		c-1.5-0.6-3.1-1.2-4.6-1.8c-2.6-0.9-5.3-1.9-8-2.6c-1.3-0.3-2.7-0.4-3.9-0.3c-1.8,0.3-3.4,0.2-4.8-0.9c-0.7-0.5-1.3-1-1.9-1.6
		c-0.8-0.8-1.7-1-3.1-0.7c1.3,1.5,2.5,2.8,3.7,4.2c0.1,0.1,0.3,0.2,0.4,0.2c2,0.7,4,1.6,6,2.1c3,0.7,6.1,1.2,9.1,1.7
		C273.2,161.4,275.5,161.6,277.9,160.7z"/>
	<path class="st2" d="M296.9,125c-1.9-0.2-3.9-0.2-5.6-0.7c-1.5-0.4-3.2-1.1-4.2-2.3c-2.1-2.3-4-4.9-5.8-7.5
		c-0.8-1.2-0.4-1.7,0.8-2.4c1.9-1.1,3.4-0.7,5.3,0.4c2.5,1.4,5,2.8,7.9,3.1c2,0.2,4,0.4,6,0.6c3,0.3,6,0.5,9,0.7
		c0.7,0.1,0.8,0.4,0.5,0.9c-0.1,0.2-0.2,0.4-0.3,0.5c-2.8,2.7-5.7,5.3-9.6,6.1C299.5,124.7,298.2,124.8,296.9,125z M291.8,122.8
		c7.4,0.7,14-1.2,15.3-4.1c-3.7-0.4-7.4-0.8-11.2-1.2C295.9,120.4,293.5,121.1,291.8,122.8z M288,114.7c-2.9-1.7-3.8-2.4-5.4-0.6
		c1.5,1.9,3,3.9,4.5,5.8C287.4,118.2,287.7,116.5,288,114.7z"/>
	<path class="st2" d="M288.1,102.5c-1.2,0-2.3,0.1-3.5,0c-0.5,0-1.2-0.4-1.3-0.7c-0.1-0.4,0.1-1.2,0.5-1.4c0.8-0.5,1.8-1,2.7-1.1
		c1.3-0.1,2.7,0.1,4,0.1c3.1,0,6,0.9,9,1.7c2.5,0.7,5,1.4,7.5,2.3c1.1,0.4,2.2,1,3.2,1.5c1.4,0.7,2.8,1.4,4.3,2
		c0.7,0.3,1.1,0.7,0.9,1.4c-0.2,0.7-0.9,0.9-1.5,0.6c-1.7-0.8-3.5-1.5-5.1-2.4c-2.6-1.5-5.5-2.3-8.4-2.7c-4-0.6-8-1.1-12-1.6
		C288.1,102.3,288.1,102.4,288.1,102.5z"/>
</g>
</svg>
