<?xml version="1.0" encoding="utf-8"?>
<!-- Generator: Adobe Illustrator 21.1.0, SVG Export Plug-In . SVG Version: 6.00 Build 0)  -->
<svg version="1.1" id="Layer_1" xmlns="http://www.w3.org/2000/svg" xmlns:xlink="http://www.w3.org/1999/xlink" x="0px" y="0px"
	 viewBox="0 0 367.3 500" style="enable-background:new 0 0 367.3 500;" xml:space="preserve">
<style type="text/css">
	.st0{fill:#FFC107;}
	.st1{fill:#2196F3;}
</style>
<path class="st0" d="M0,184.2C-1,104.6,53.7,30.3,130.1,7.9c90.5-26.6,182.7,15.6,221.6,101.6c12.9,28.5,17.1,58.5,15.2,89.7
	c-3.7,58.3-24,110.8-54.5,159.8C279,412.5,236.8,458.3,188,498c-3.2,2.6-5.2,2.7-8.4,0C121.6,450.6,72.9,395.4,38,328.7
	C19.3,292.8,6.7,254.9,2.1,214.6C0.9,204.5,0.7,194.3,0,184.2z M181.5,38.4C103,38,38.7,102,38.4,180.7
	c-0.3,79.5,63.4,143.6,143,144c77.6,0.4,142.8-63.9,143.1-140.9C324.9,102.6,261.9,38.7,181.5,38.4z"/>
<path class="st1" d="M186.2,123.1c-9.3-2.9-23.5-8.6-36.6-6.7c-13.8,2.8-21.4,15-21.9,28.5c-0.3,12.9,4,27.1,10.2,38.1
	c-1.3,30.6,13.1,55.8,31.2,71.9c4,2.8,7.8-0.3,9-4.4c1.3-7.5,0.8-15.9,1.1-22.8c0.3-6.1,1-12.4,2.6-17.5c1.1-3.8,2.8-6.4,4.8-8.4
	c3.1,2.2,5.6,5,7.4,9c2.3,5,3.6,11.2,4.3,17.3c1.2,7.5,0.5,15,1.5,22c0.5,3.9,3.3,6.6,7.3,5.6c12.6-5.2,19.6-18.6,22.6-33.6
	c2.9-14.3,2.1-30.6-2-44.8c6.7-12.3,11.8-25.2,11.9-36.6c0.1-13.7-9-23-21.1-24.2C207.1,116,195.8,120,186.2,123.1L186.2,123.1z
	 M150.8,125.6c11.4-1.8,23.4,3.6,34,6.8c0.8,0.3,1.7,0.3,2.6,0c10.6-4,19.9-8.6,29.6-6.8c9.1,0.8,13.3,7.3,13.3,14.8
	c-0.1,9-4.8,21.8-11.6,33.9c-0.6,1.1-0.8,2.5-0.4,3.7c4.1,13.1,4.9,29,2.3,42.3c-2.1,10.3-6.2,18.6-11.9,23.4
	c-0.2-4.3-0.4-10.3-1.2-16.8c-0.8-6.6-2.2-13.7-5.1-20c-2.9-6.4-7.5-12.2-14.4-15.4c-1.4-0.6-3-0.5-4.3,0.2
	c-5.8,3.5-9,9.4-10.9,15.8c-1.9,6.3-2.6,13.3-3,19.7c-0.3,5.8-0.3,10.9-0.4,15c-13.7-14.8-23.8-35.5-22.4-60.1
	c0.1-0.9-0.2-1.8-0.6-2.6c-5.7-9.7-9.8-23.5-9.5-34.5C139,135.4,143,127.1,150.8,125.6L150.8,125.6z"/>
</svg>
