<?xml version="1.0" encoding="utf-8"?>
<!-- Generator: Adobe Illustrator 21.1.0, SVG Export Plug-In . SVG Version: 6.00 Build 0)  -->
<svg version="1.1" id="Layer_1" xmlns="http://www.w3.org/2000/svg" xmlns:xlink="http://www.w3.org/1999/xlink" x="0px" y="0px"
	 viewBox="0 0 367.3 500" style="enable-background:new 0 0 367.3 500;" xml:space="preserve">
<style type="text/css">
	.st0{fill:#4CAF50;}
	.st1{fill:#FFC107;}
</style>
<g>
	<path class="st0" d="M146.4,186.9c-1.8-9.1-0.6-15.8,7.3-21.9c4.9-3.7,7.3-10.4,12.2-17.7c11,0,25.6,0,40.8,0
		c-1.2,9.8,4.3,15.8,12.2,21.3c3,1.8,4.3,7.3,4.3,11.6c0.6,19.5,0.6,38.4,0,57.9c0,12.2-4.9,17.1-17.7,17.1c-15.2,0-30.5,0-45.7,0
		c-12.2,0-19.5-12.2-14.6-23.2c0.6-1.8,4.3-3,6.7-3c9.1,0,18.3-0.6,27.4,0c6.1,0,9.1-1.2,9.1-8.5c1.2-33.5,1.2-33.5-32.3-32.9
		C153.1,186.9,149.4,186.9,146.4,186.9z"/>
	<path class="st0" d="M159.2,140c-0.6-1.2-0.6-1.2-0.6-1.8c-1.8-18.3-1.8-18.3,15.8-17.7c8.5,0,17.1,0,25,0c12.8,0,14,1.2,12.2,14
		c0,1.8-0.6,3-0.6,5.5C193.3,140,176.3,140,159.2,140z"/>
</g>
<path class="st1" d="M0,184.2C-1,104.6,53.7,30.3,130.1,7.9c90.5-26.6,182.7,15.6,221.6,101.6c12.9,28.5,17.1,58.5,15.2,89.7
	c-3.7,58.3-24,110.8-54.5,159.8C279,412.5,236.8,458.3,188,498c-3.2,2.6-5.2,2.7-8.4,0C121.6,450.6,72.9,395.4,38,328.7
	C19.3,292.8,6.7,254.9,2.1,214.6C0.9,204.5,0.7,194.3,0,184.2z M181.5,38.4C103,38,38.7,102,38.4,180.7
	c-0.3,79.5,63.4,143.6,143,144c77.6,0.4,142.8-63.9,143.1-140.9C324.9,102.6,261.9,38.7,181.5,38.4z"/>
</svg>
