<?xml version="1.0" encoding="utf-8"?>
<!-- Generator: Adobe Illustrator 21.1.0, SVG Export Plug-In . SVG Version: 6.00 Build 0)  -->
<svg version="1.1" id="Layer_1" xmlns="http://www.w3.org/2000/svg" xmlns:xlink="http://www.w3.org/1999/xlink" x="0px" y="0px"
	 viewBox="0 0 367.3 500" style="enable-background:new 0 0 367.3 500;" xml:space="preserve">
<style type="text/css">
	.st0{fill:#FFC107;}
	.st1{fill:#FF0000;}
</style>
<g>
	<path class="st0" d="M0,184.2C-1,104.6,53.7,30.3,130.1,7.9c90.5-26.6,182.7,15.6,221.6,101.6c12.9,28.5,17.1,58.5,15.2,89.7
		c-3.7,58.3-24,110.8-54.5,159.8C279,412.5,236.8,458.3,188,498c-3.2,2.6-5.2,2.7-8.4,0C121.6,450.6,72.9,395.4,38,328.7
		C19.3,292.8,6.7,254.9,2.1,214.6C0.9,204.5,0.7,194.3,0,184.2z M181.5,38.4C103,38,38.7,102,38.4,180.7
		c-0.3,79.5,63.4,143.6,143,144c77.6,0.4,142.8-63.9,143.1-140.9C324.9,102.6,261.9,38.7,181.5,38.4z"/>
	<g>
		<rect x="163" y="125" class="st1" width="40" height="100"/>
		<rect x="163" y="125" transform="matrix(6.123234e-17 -1 1 6.123234e-17 8 358)" class="st1" width="40" height="100"/>
	</g>
</g>
</svg>
