<?xml version="1.0" encoding="utf-8"?>
<!-- Generator: Adobe Illustrator 21.1.0, SVG Export Plug-In . SVG Version: 6.00 Build 0)  -->
<svg version="1.1" id="Layer_1" xmlns="http://www.w3.org/2000/svg" xmlns:xlink="http://www.w3.org/1999/xlink" x="0px" y="0px"
	 width="150px" height="264.2px" viewBox="0 0 150 264.2" style="enable-background:new 0 0 150 264.2;" xml:space="preserve">
<style type="text/css">
	.st0{fill:#BBBBBB;}
</style>
<g id="runnynose-lady">
	<g>
		<path class="st0" d="M102.2,77.1l-0.1-0.1C102.1,77.1,102.1,77.1,102.2,77.1L102.2,77.1z"/>
		<path class="st0" d="M100.4,69.5c0,0.1-0.1,0.1-0.1,0.1v3.8C100.6,72.3,100.4,70.8,100.4,69.5z"/>
		<path class="st0" d="M97.4,55.4c-0.1-0.1-0.3-0.1-0.4-0.1c-0.3,1.7-0.6,3.3-1,5c-2.8-1.9-3.9,1.7-6.3,1.9c0,0.1,0.1,0.3,0.1,0.4
			c0.6-0.3,1.1-0.4,1.5-0.7c0.6-0.3,1-0.7,1.4-1c1.1-0.8,1.8-0.6,3.1,0.1c0.9,0.5,1.4,1.2,1.8,1.9C96.7,60.8,96.5,58.3,97.4,55.4z"
			/>
		<path class="st0" d="M115.2,105.6C115.2,105.6,115.1,105.6,115.2,105.6C115.1,105.6,115.2,105.6,115.2,105.6L115.2,105.6z"/>
		<path class="st0" d="M102.5,78.2c0,0.2,0.1,0.3,0.1,0.5c0-0.2,0-0.4,0-0.6C102.6,78.1,102.6,78.2,102.5,78.2z"/>
		<path class="st0" d="M102.6,78.7c0,2.9-0.3,5.7-0.7,8.4c0,0,0,0,0,0.1C102.5,84.4,103.3,81.6,102.6,78.7z"/>
		<path class="st0" d="M100,78.9c-0.3,0.1-1.3-0.8-1.3-1c0.4-1,1.1-1.7,1.7-2.5c0.5,0.4,0.9,0.9,1.7,1.6l0,0c-0.4-1-1-1.8-1.5-2.6
			c-0.1,0-0.1,0-0.3,0v-1c-0.1,0.2-0.2,0.5-0.3,0.7c-2.9,4.6-3.5,10-5,15c-1,3.2-1,6.8-1.4,10.2c0.1,0.1,0.4,0.1,0.6,0.3
			c0.1-0.4,0.6-0.8,0.6-1.3c0.1-2.1,0-4,0.4-6c0.3-1.5-0.7-3.8,1.5-4.2c-0.1-0.7-0.3-1.3-0.3-1.7c0.1-1,0.3-1.9,0.6-2.9
			c0.4-1.7,1-3.3,1.5-5.3c1.6,1.3,2.8,1,4,0c-0.1-0.3-0.2-0.7-0.4-1C101.2,77.8,100.7,78.5,100,78.9z"/>
		<path class="st0" d="M150,184.7c-0.1-3.6-1-7-2.6-10.2c-1.9-3.9-4.2-7.7-5.3-11.8c-1.1-4.2-2.9-8.1-5.7-11.4
			c1.3,2.2,2.6,4.5,3.6,6.8c1.1,2.6,1.8,5.3,2.6,7.9c-0.1,0.1-0.3,0.1-0.4,0.3c-2.2-2.2-4.5-4.2-6.5-6.5c-2.4-2.5-4.5-5.3-6.5-8.1
			c-0.3-0.4-0.7-1-0.7-1.4c0-3.2-2.2-5.4-3.5-8.1c-1.4-2.9-3.1-5.4-4.6-8.2c-1.1-1.9-1.7-4-1.9-6.4c-0.3-2.1-1.8-3.9-2.8-5.8
			c-0.4-0.7-0.6-1.5-0.7-2.4c-0.1-0.7,0-1.5,0-2.4c0-1.3,0-2.4,1.3-3.2s2.2-1.9,3.5-3.1c-0.7-1.3-1.5-2.5-2.4-3.8
			c0-0.1,0.1-0.3,0.3-0.4c0.7,0.4,1.4,0.7,1.9,1.1c2.2,1.7,3.3,4,4.3,6.5c1.9,5.1,4,10.2,5.7,15.4c1.4,4.6,2.1,9.5,3.5,14.2
			c0.8,2.5,2.4,4.9,3.5,7.4c-1-2.4-2.1-4.7-2.8-7.2c-1.1-3.9-1.8-7.9-2.9-11.8c-1.5-4.9-3.2-9.7-5-14.5c-1.4-3.6-2.1-7.4-5.1-10
			c-1-0.8-2.1-1.7-3.2-2.5c0.1-0.7,0.4-1.5,0.7-2.2s0.8-1.4,1.3-2.1c1.1-1.8,1-2.9-0.4-4.5c-0.8-1.1-1.9-2.1-2.6-3.2
			c-1.8-2.9-3.3-5.8-4.9-8.8c-0.1-0.1,0-0.4,0-0.7c0.7-2.2,1.5-4.5,1.8-6.7c0.4-4.3,0.4-8.6,0.7-12.9c0.1-1.5,0.1-3.2,0.4-4.9
			c0.4-2.6,1.1-5.3,1.5-7.9c0.1-1.1,0-2.2,0.3-3.3c1-3.6,2.1-7.1,2.9-10.7c0.8-3.5,1.8-7,0.1-10.4c-1-1.9-2.1-3.9-3.5-5.4
			c-1-1-2.5-1.7-3.9-2.2c-2.4-0.8-4.6-1.9-6.7-3.2c-1.3-0.7-2.4-1.7-3.2-2.8c-2.4-2.8-3.3-6.7-7-8.6c-2.9-1.4-5.6-3.2-8.9-3.6
			c-2.5-0.3-5-0.3-7.4-0.7c-4.9-1-9.3,0.4-13.6,1.9c-1.3,0.4-2.5,1.1-3.6,1.9c-2.5,1.2-5,2.9-6.7,5.1c-1.2,1.2-2.4,2.6-3.4,4
			c-2.1,2.8-4.2,5.6-6.3,8.3c-4.3,5.7-8,11.7-9.7,18.7c-0.4,0.4-0.6,0.9-0.7,1.6c0,0.5,0,0.9,0,1.4c-0.5,2.3-1,4.6-1.2,7
			c-0.4,4.5-1.8,8.6-3.3,12.8c-1.8,5.1-3.3,10.3-5,15.6c-1.4,4.3-2.2,8.8-3.9,12.9c-1.3,3.1-1.8,6.8-5.7,8.2
			c-0.1,0.1-0.1,0.3-0.3,0.4c-1.9,2.1-3.9,4-5.7,6.1c-2.6,2.8-5,5.8-5.8,9.6c-1.3,5.1-1.9,10.4-3.1,15.6c-1,4.7-0.6,9.3,0.7,13.9
			c1,3.5,2.1,6.8,3.2,10.3c0.7,2.2,1.1,4.6,2.1,6.7c5.4,11.8,11.1,23.7,16.6,35.6c1.7,3.8,3.1,7.7,4.5,11.5
			c1.3,3.8,0.6,7.8,0.7,11.7c0.1,4.2-0.1,8.5-1.4,12.5s-2.6,8.1-4,12c-2.1,5.8-3.3,12.1-6.4,17.7h1.9c0.3-0.7,0.6-1.4,0.8-2.1
			c1-2.8,2.1-5.6,3.1-8.3c1.5-4.5,2.5-9.2,4.3-13.6c1.9-4.9,3.1-9.7,3.1-15v-11.4c0-0.6,0-1.1-0.1-1.7c-2.1-7.5-5.3-14.6-8.6-21.6
			c-1.7-3.5-3.2-7-4.9-10.4c-2.2-4.6-4.5-9.3-6.7-13.9c-1-2.4-2.1-4.6-3.1-7c0.1-0.1,0.3-0.1,0.4-0.3c0.3,0.5,0.6,0.9,0.9,1.3
			c-0.2-0.3-0.3-0.7-0.5-1c-1.5-2.9-2.5-6.1-3.5-9.2c-1.5-4.6-2.6-9.3-2.2-14.3c0.3-3.2,0.8-6.5,1.4-9.7c0.6-3.1,1.4-6.1,2.2-9.2
			c0.8-2.9,2.4-5.4,4.6-7.5c2.4-2.2,4.7-4.3,7.2-6.4c0.7-0.6,1.9-0.6,2.8-0.4c0.4,0.1,0.8,0.2,1.2,0.2c0.3,0.1,0.5,0.1,0.8,0.2
			c1.6,0.4,3.2,0.8,4.8,1.1c1.9,0.4,4,1.1,6,0.7c2.5-0.4,4.3,0.6,5.7,1.9c2.4,2.4,4.2,5.1,6.4,7.7c2.2,2.5,4.6,4.9,7.1,7.1
			c3.2,2.8,6.7,5.4,10,8.1c3.8,2.9,7.5,5.7,11.3,8.6c0.8,0.7,1.1,1.3,0.7,2.2c-1.4,3.1-2.8,6.3-4,9.5c-0.3,0.7-0.6,1.5-0.6,2.4
			c-0.1,5.4-1.8,10.6-3.5,15.6c-0.4,1.3-1.4,2.4-2.1,3.6c-1.4-5-2.5-9.7-4.2-14.3c-1-2.8-2.6-5.3-4.2-7.8c-2.9-4.6-5.4-9.5-6.5-14.9
			c-0.1-1-0.3-1.9-0.4-2.9c-0.4-3.5-2.5-5.8-5.3-7.8c-0.7-0.6-1.3-1.1-2.2-1.8c0.6,0.8,0.7,1.3,1.3,1.5c1.4,1.5,3.2,3.1,4.5,4.7
			c0.7,1,1.3,2.5,1.3,3.8c0,4.3,1.5,8.2,3.6,12c2.2,4,5,7.9,6.7,12.1c1.9,4.7,2.9,10,4.3,15c0.7,2.4-1.3,4-2.2,5.8
			c-1.3,2.1-2.5,4.2-3.5,6.4c-0.8,1.7-1.1,3.6-2.1,5c-0.7,1.3-2.2,1.9-3.6,2.6c-3.5,1.8-7.1,3.5-10.6,5.3c-1.1,0.6-2.4,1-3.5,1.5
			c-1.7,0.8-3.3,1.7-4.9,2.6c-0.5,0.4-1,0.5-1.4,0.4c0.6,0.5,1.4,0.7,2.5,0.7c-0.3-1,0-1.5,1.8-2.4c2.5-1.1,5.1-1.9,7.5-3.2
			c3.9-1.9,7.7-4,11.5-6.3c0.1,0.7,0.1,1,0.1,1.1c0,0.4-0.1,0.8-0.3,1.3c-1.3,3.2-1.7,6.5-1,9.9c0.1,0.6,0.6,1,0.8,1.5
			c0-1.3-0.3-2.4-0.3-3.3c-0.1-4.5,1.1-8.5,2.5-12.7c2.2-6.3,5.8-11.7,9.5-17.1c2.5-3.6,3.1-7.9,4-12c0.6-2.1,1-4.2,1-6.3
			c0-2.2,1.8-3.6,2.2-5.7c0.4-1.7,1.5-3.2,1.9-4.9c1.1-3.8,1.8-7.5,2.8-11.1c0.7-2.8,0.8-5.7,0.3-8.5c-0.3-1.7-0.7-3.2-1-4.9
			c-1-4.6-2.1-9.2-2.8-13.8c-0.4-2.4-0.8-5.1,0-7.2c2.2-5.3,5-10.3,7.5-15.4c1-2.1,1.9-4.3,2.9-6.5c0.4-1.1,0.8-2.4,1.3-3.3
			c1.1,0,2.1,0.1,3.2,0.1c-0.4,1.3-0.7,2.5-1.1,3.6c-1.4,3.5-2.8,6.8-4.3,10.2c-0.8,1.8-1.8,3.6-2.6,5.4c-0.8,1.9-1.9,3.9-2.5,6
			c-0.3,1.4-0.6,3.2,0.8,4.5c-1.4-3.3,0.1-6.3,1.5-9.2c1.3-2.6,2.6-5.1,4-7.7c0.4-0.8,1.1-1.4,1.8-2.1c0.1,0,0.1-0.1,0.1-0.3
			c-0.4-0.1-0.7-0.3-1-0.4c1.7-4,3.2-7.9,4.7-11.8c3.1,0.4,3.2,0.3,4.9-3.3c0.1,0.1,0.1,0.1,0.2,0.2l0,0c-1.1-2.8-3.1-1.9-5.1-0.4
			c-0.4,0.4-1,0.6-1.4,0.8c-0.1-0.1-0.1-0.3-0.3-0.4c0.1-0.3,0.3-0.6,0.4-0.8c-0.3,0-0.4,0-0.4,0c-1.5,1.4-3.1,2.8-4.6,4
			c-2.8,2.1-3.2,4.9-2.4,8.1c0.4,1.5-0.1,2.1-1.7,1.9c-1.1-0.1-2.2-0.3-3.5,0c0.8,0.8,1.5,1.7,2.2,2.5c0.3,0.3,0.6,0.8,0.4,1.1
			c-1.4,3.1-2.9,6-4.3,8.9c-0.1,0.1-0.4,0.3-0.7,0.4c0,0.3,0,0.7,0.3,1.1c-2.1,3.3-1.8,7-1.4,10.6c0.1,2.4,1.3,4.7,1.8,7.2
			c0.6,2.9,1,6,1.4,8.9c0.4,1.9,1,3.9,1,5.7c-0.1,2.6-0.7,5.1-1.1,7.7c-0.3,1.7-0.7,3.3-1.1,5.3c-2.4-1.5-4.5-2.6-6.4-4.2
			c-4-3.1-8.1-6.3-12-9.6c-3.2-2.6-6.4-5.3-9.3-8.3c-2.5-2.5-4.3-5.6-6.7-8.5c1.4-0.3,2.8-0.7,4-1c2.1-0.4,4-0.8,6.1-0.8
			c2.2,0,4.6,0.3,7,0.6c1.8,0.3,3.8,0.6,5.6,0.8c0.3,0,0.6-0.6,0.7-1c-3.1,0.7-5.7-0.3-8.3-1.1c-0.8-0.3-1.7-0.4-2.5-0.3
			c-1.7,0.1-3.3,0.8-5,0.7c-2.6-0.3-5,0.8-7.5,1.1c-0.8,0.1-1.9-1-2.8-1.5c-0.4-0.4-0.7-0.8-1-1.1c2.3-1.1,4.7-2,7-3.1
			c0.5,0.1,0.9,0,1.3-0.3c0.5-0.4,1-0.8,1.5-1.2c0.6-0.4,1.2-0.7,1.8-1.1c2.8-1.9,5.7-4.3,5.4-8.8c-0.6-7.4-0.7-14.6-0.8-21.8
			c0-1.5,0.1-3.1,0.3-4.6h0.7c0.4,2.4,1,4.7,1.4,7.1c0.8,5,3.6,8.9,7,12.7c2.8,3.1,5.7,5.7,9.3,7.7c0.8,0.4,1.1,1.9,2.4,1.3
			c-0.1-1.8-1.5-2.4-3.3-3.5c-3.5-1.9-6.4-4.7-8.9-7.9c-1.7-2.1-3.3-4.3-4.3-6.7c-1.1-3.1-1.7-6.3-2.4-9.5c-0.6-2.5-0.7-5.1-1.1-7.7
			c-0.1-1.1-0.6-1.9-1.8-2.4c-1.8-0.6-2.7-1.9-2.4-3.4c0.8-0.5,1.2-1.2,1.3-1.9c0.5-0.1,1,0.1,1.6,0.7c0.8,1,1.5,2.1,2.2,3.2
			c0.4-1.1-0.4-3.3-1.5-4.3C52.6,47.1,52,47,51,47.3c-0.1-0.4-0.2-0.7-0.4-1c0.2-0.2,0.5-0.4,0.8-0.5c0.9,0,2,0.7,2.7,1.4
			c0.9,0.9,1.5,2.2,2.4,3.1c0,0.1,0,0.2,0,0.2c0.3,1.5,2.2,2.2,3.5,1.4c2.3-1.4,3.1-3.8,3.7-6.3c0.6-0.8,1.1-1.6,1.7-2.4
			c0.4-0.3,0.7-0.6,1.1-0.9c0.4-0.3,0.9-0.6,1.3-1c0.6-0.3,1.2-0.7,1.8-1c2.4-1.1,3.8-3.1,5-5.3c0.6-1.1,1.5-1.9,2.4-2.9
			c0.2-0.3,0.4-0.6,0.7-0.9c0.5-0.5,1-1,1.5-1.4c1.1,0.1,1.7-0.9,2.4-1.3c2.9-1.5,6-2.1,9-1.9c1.1,0,2.2,1.1,3.2,1.8
			c0.7,0.5,1.4,0.9,2,1.2c0.4,0.2,0.9,0.3,1.4,0.2c1.1-0.1,2.1-0.9,2.9-2.6c0.7-1.5,1.8-1.8,2.9-0.4c1.4,1.8,2.6,3.6,2.9,6
			c0.3,1.9,1,3.8,1.3,5.6c0.3,2.2,0.4,4.6,0.3,6.8c-0.1,2.2-0.6,4.5-0.8,6.7c-2.6,0.4-5.7,0.3-7.7,3.3c0.8-0.1,1.4-0.1,1.9-0.3
			c1.7-0.4,3.2-1,4.9-1.4c1.1-0.3,1.7,0.3,1.4,1.4c-0.3,1.3-0.7,2.4-1.1,3.6c-2.5,0-5,0.7-7-1.4c-0.3-0.1-0.8,0.1-1.3,0.1
			c0.3,0.4,0.3,1,0.6,1.1c2.1,1.1,4.3,1.9,6.7,3.1c-0.7,2.6-1.5,5.7-2.4,8.9c-1.7-2.2-3.4-4.3-4.5-6.6c0.4,1.1,0.7,2.4,1.3,3.4
			c-1.5,0-2.7-0.1-3.6-1.2c0.2,0.6,0.1,1.3-0.2,2c-0.8,2.8-1.8,5.6-2.6,8.3c-0.4,1.3-0.6,2.6-1.1,3.9c-1.1,2.8-2.2,5.7-3.8,8.3
			c-1.4,2.6-1,5.4-1.3,8.1c0.3-0.4,0.4-1,0.6-1.4c0.3-1.7,0.3-3.3,0.8-4.9c0.7-1.9,1.8-3.6,2.4-5.6c0.6-1.8,1.4-2.2,3.1-1.3
			c0.1,0,0.1-0.1,0.3-0.1c-1.8-1.4-1.8-1.4-1.1-3.5c0.1-0.4,0.1-0.7,0.3-1.1c0.8-2.6,1.5-5.4,2.4-8.2c0.4,0.2,0.7,0.4,1.1,0.5
			c-0.6-0.5-1.1-0.8-1.2-1.2c-0.3-1,1.1-2.4,2.4-2.2c0.4,0.1,1.3,1,1.3,1.1c-0.5,0.8-1,1.5-1.7,2.4c1.2,0,2.2-0.7,3.1-1.7v-0.7
			c0.1,0,0.1-0.1,0.3-0.1c0.3,0.4,0.7,0.8,0.7,1.3c0.3,4.9,2.2,9.2,4.2,13.6c1,2.2,2.5,4.3,3.5,6.7c1.3,2.9,2.1,6.1,3.3,9.2
			c0.9,2,1.9,4,2.9,6.1c-0.8-2.2-1.9-4.3-2.3-6.5c-0.7-3.8-2.1-7.2-4-10.4c-2.8-4.5-4.9-9.2-6.3-14.3v-1c1.1,1.8,1.9,3.5,2.8,5
			c0.8,1.1,2.4,1.9,3.1,3.2c1.9,3.3,3.6,7,5.6,10.4c0.8,1.7,1.9,3.2,3.2,4.6c1.9,2.2,1.9,2.6,0.4,5.1c-0.7,1.1-1.3,2.5-2.4,3.9
			c0.5,1,1,2,1.5,3.1c0.4,0.7,0.8,1.4,1.5,2.5c-2.9,1.8-5.8,3.3-8.6,5c-1,0.6-1.8,1.4-2.8,1.9c-2.2,1.4-4.6,2.8-7,4.2
			c-0.1-0.1-0.3-0.1-0.4-0.3c0.4-1.5,0.8-3.2,1.3-4.7c0.3-0.7,0.4-1.5,0.4-2.2c0.1-3.3,0.3-6.8,0.3-10.2c0-1.9,0-3.9-0.3-5.8
			c-0.5-3.5,0-6.7,0.5-10.1c-0.6,2.4-1.4,4.8-0.9,7.5c0.6,4.2,0.3,8.5,0.4,12.7c0.1,4.9-0.8,9.5-2.4,13.9c-0.6,1.8-1.5,3.5-1.9,5.3
			c-0.7,3.8-1.4,7.7-1.7,11.4c-0.4,5-0.6,10.2-0.7,15.3c-0.1,4.7,0,9.6-0.3,14.3c-0.1,1.6-0.2,3.2-0.3,4.8c1.2-6.4,0.7-12.9,1-19.3
			c0-2.1-0.1-4.2,1.5-5.8c2.6-2.8,5.1-5.6,7.8-8.3c0.4,0.6,0.8,1,1,1.4c1.3,3.2,1.8,6.7,1.4,10.2c0,0.1,0,0.6,0.1,0.7
			c0.4,0.7,1.1,1.4,1.3,2.1c0.8,3.6,1.7,7.4,2.4,11c0.4,2.4,1.1,4.7,1.4,7.1c0.6,5.4,2.5,10.4,4.7,15.3c0.3,0.6,0.7,1.3,0.7,1.9
			c-0.3,3.5-0.3,7-1,10.3c-1,4-1.3,7.8-0.6,11.7c0.8,5,1.7,10,2.6,15c0.6,3.2,1.7,6.3,1.9,9.3c0.4,4.5,0.4,8.9,0.7,13.4
			c0,0.3,0.1,0.7,0.1,1c0.4,3.5,0.8,6.8,1.3,10.3c0.1,1,0.1,1.8,0.3,2.8c0.6,0,1.1,0,2.2-0.1c-0.6-4-1-8.2-1.4-12.2
			c-0.4-3.8-0.7-7.5-0.7-11.3c0-6.4-2.5-12.4-3.3-18.6c-0.6-4.3-1.8-8.6-1.9-12.9c-0.1-4,0.6-8.1,1-12.1c0-0.6,0.3-1,0.6-1.5
			c3.2,5,6.8,9.3,11.1,13.1c0.3,0.3,0.6,0.5,0.9,0.7c-0.1-0.1-0.2-0.2-0.3-0.3c-2.6-2.6-5.3-5.3-7.8-8.1c-1.3-1.5-2.4-3.3-3.5-5.1
			c-0.4-0.7-0.7-1.7-1-2.6c-1.1-2.9-2.2-5.8-3.2-8.8c-1.4-4-2.4-8.1-3.1-12.2c-0.7-5-2.1-9.9-3.1-14.9c-1-4.2-1.5-8.5-2.6-12.7
			c-0.8-2.9-2.1-5.7-3.3-8.5c-1.1-2.4-2.2-4.7-4.5-6.3c-1-0.7-1-1.7-0.6-3.1c0.8-3.3,2.9-4.9,6-5.7c0.4-0.1,0.7-0.6,1-0.7
			c2.6-1.8,5.4-3.5,8.1-5.3c0.1,0.1,0.4,0.3,0.6,0.4v4.5c0.1,1,0.3,2.1,0.8,2.8c1.7,1.9,2.1,4,2.6,6.4c0.6,2.5,1.8,4.9,2.9,7.2
			c2.2,4.6,4.9,8.9,6.8,13.5c1.4,3.2,3.5,5.8,5.7,8.3c3.2,3.6,7,7,10.2,10.7c1.4,1.5,1.9,3.8,3.1,5.6c3.6,6.1,3.9,12.5,1.7,19.1
			c-0.7,2.2-1.4,4.5-1.1,7c0.4,4-2.9,7.5-6.1,8.3c-2.4,0.6-4.9,0.8-7.4,1.1c-0.4,0.1-1-0.1-1.4-0.4c1.7,1.1,3.4,1.5,5.5,0.9
			c1.4-0.4,2.8-0.7,4.2-1.1c3.6-1.1,6.4-4.7,6.4-8.6c0-1.5-0.1-2.9,0.3-4.3C148.8,192.5,150.1,188.7,150,184.7z M92.3,63.6
			c0.4,0.1,1.1,0.7,1.1,1.1c0.3,1.5-1,3.5-2.1,3.5c-1.5,0-1.1-1.1-1.3-2.1C90.1,65,91.2,63.6,92.3,63.6z M85.7,68.3
			c0.4-1.3,0.8-2.4,2.2-2.6c1.1,0,1.7,0.4,1.3,1.4c-0.6,1-1.3,1.8-1.9,2.5c-0.1,0.3-1,0.3-1.4,0C85.5,69.5,85.5,68.8,85.7,68.3z
			 M84.7,68.6c-1,2.5-1.8,4.7-2.6,7C80.5,72.7,81.6,70.2,84.7,68.6z M104.6,71.7c0,0.6,0.1,1.3,0.2,1.9
			C104.6,73.1,104.5,72.4,104.6,71.7z M52.1,55.3c1.1,0.6,1.5,3.2,0.7,4.2c-1.3,1.7-3.2,1.4-3.8-0.7c-0.4-1.5-0.1-3.2-0.1-5.3
			C50.3,54.3,51.3,54.7,52.1,55.3z M102.6,136.4c1.5,2.1,1.1,3.8-0.8,5.6c-2.2,2.1-4.2,4.6-6.5,7.2c-0.1-3.2-0.6-5.7,1.8-7.9
			c1.5-1.4,2.4-3.5,3.5-5.1c0.3-0.4,0.8-0.7,1.3-1C102.1,135.6,102.4,136,102.6,136.4z M98.3,138.1c-1,1.4-1.8,2.9-2.6,4.5
			c-0.3,0-0.4-0.1-0.7-0.1c0.6-4.5,1.1-8.9,1.8-13.6c0.4,0.1,0.6,0.1,0.7,0.3C101.9,133.2,101.8,133.2,98.3,138.1z"/>
		<path class="st0" d="M98,63.8c-0.1-0.3-0.2-0.5-0.3-0.8C97.8,63.3,97.9,63.5,98,63.8z"/>
		<path class="st0" d="M95.7,66.1c-0.1-0.4-0.3-0.7-0.6-1C95.3,65.5,95.5,65.8,95.7,66.1z"/>
		<path class="st0" d="M91,190.4c-2.8,6-5.3,12.1-7.9,18.1c-1.4,3.3-2.6,6.5-4,9.9c-1,2.2-1.9,4.6-2.9,6.8c-1.1,2.9-3.6,4.7-6.4,4.5
			c-3.2-0.3-6.4-1.3-9.3-2.5c-4.9-1.9-8.3-5.8-12.5-8.9c-1.3-1-2.5-2.2-3.6-3.5c-2.2-2.5-4.2-5.1-6.1-7.8c-0.6-0.6-1-1.3-1.5-1.8
			c-0.1,0-0.3,0.1-0.4,0.3c4.2,3.5,6,9,10.4,12.4c2.6,1.9,5,4.3,7.5,6.3c3.9,3.1,8.3,4.9,13.1,6c4.2,1.1,7-0.1,8.8-3.6
			c1.8-3.3,2.9-7.1,4.5-10.6c0.3-0.8,0.3-1.8,1.5-1.8c0.3,0,0.7-0.7,0.8-1.3c0.1-0.7,0-1.4,0.3-2.1c0.7-1.9,1.5-3.8,2.4-5.7
			c1.9-4.7,3.9-9.5,6-14.2c1.3-2.9,1.9-5.8,1.9-9c0-0.4,0-0.9,0-1.3c0,0.5-0.1,1-0.1,1.4C92.9,184.8,92.2,187.6,91,190.4z"/>
		<path class="st0" d="M93.3,180.4c0.2-2.1,0.4-4.2,0.6-6.2c0,0.2-0.1,0.5-0.1,0.7C93.4,176.7,93.3,178.6,93.3,180.4z"/>
		<path class="st0" d="M29.6,199.2c0.2,0.5,0.5,0.7,0.8,0.8C30.1,199.8,29.9,199.5,29.6,199.2z"/>
		<path class="st0" d="M101.7,88.5c0,0.1,0,0.3-0.1,0.4c0.1-0.6,0.3-1.2,0.3-1.8C101.8,87.6,101.7,88.1,101.7,88.5z"/>
		<path class="st0" d="M131.4,209.4c-0.2-0.1-0.3-0.2-0.5-0.3C131.1,209.2,131.2,209.3,131.4,209.4z"/>
		<path class="st0" d="M96.9,71.5c0.1-0.1,0.1-0.2,0.2-0.3c-0.2,0-0.4,0-0.7-0.1C96.6,71.3,96.8,71.4,96.9,71.5z"/>
		<path class="st0" d="M24.3,190.2c-3.8-5.6-6.8-11.4-9.7-17.5c-1.1-2.5-2.4-4.8-3.7-7.2c1.9,3.8,3.7,7.6,5.7,11.4
			c1.9,4,4.2,7.8,6.4,11.7c1.7,2.6,3.5,5.1,5,7.8c0.6,1,1.1,2,1.7,2.8l0,0C27.9,196.1,26.2,193,24.3,190.2z"/>
		<path class="st0" d="M7.5,159.5c1,2,2.2,4,3.3,6c-0.8-1.6-1.6-3.1-2.4-4.7C8.2,160.4,7.9,159.9,7.5,159.5z"/>
	</g>
	<path class="st0" d="M79.4,49.1c3.6,1,7.2,1.8,10.9,2.8c0.4,0.1,0.7,1,1,1.4c-0.6,0.1-1.3,0.4-1.8,0.3c-2.9-0.7-5.8-1.5-8.8-2.4
		c-0.6-0.1-1.1-0.1-1.5-0.4c-0.4-0.1-0.7-0.7-1.1-1C78.3,49.8,78.7,49.6,79.4,49.1z"/>
	<path class="st0" d="M75.2,53.9c0.4,0.3,0.6,0.3,0.6,0.4c2.9,4.3,5.8,3.8,10.7,1.7c0.6-0.3,1.3-0.4,2.2-0.8
		c-0.1,0.7-0.1,1.1-0.3,1.3c-1.8,1.7-6.7,3.8-9.6,2.4c-1.4-0.7-2.4-1.9-3.5-3.1C75.1,55.3,75.2,54.6,75.2,53.9z"/>
</g>
</svg>
