<?xml version="1.0" encoding="utf-8"?>
<!-- Generator: Adobe Illustrator 21.1.0, SVG Export Plug-In . SVG Version: 6.00 Build 0)  -->
<svg version="1.1" id="Layer_1" xmlns="http://www.w3.org/2000/svg" xmlns:xlink="http://www.w3.org/1999/xlink" x="0px" y="0px"
	 width="179.1px" height="250px" viewBox="0 0 179.1 250" style="enable-background:new 0 0 179.1 250;" xml:space="preserve">
<style type="text/css">
	.st0{fill:#BBBBBB;}
</style>
<g id="arthritis-man">
	<path class="st0" d="M179.1,101.6c-3-4.9-8.1-7-12.6-9.8c-0.7-0.5-1.3-0.8-2-1.3c-2.3-1.7-5-2.4-7.6-3.2c-1-0.4-1.9-0.6-2.9-1
		c-1.1-0.4-1.4-0.1-1.5,1c-0.6,4.4-0.8,8.9-1.8,13.3c-1.1,4.6-1.7,9.5-4.2,13.8c-0.2,0.4-0.5,0.8-0.6,1.3s-0.2,0.8-0.2,1.1
		c-2.5,0.7-4.8,1.4-7.2,2c-3.3,0.8-6.8,1.5-10.1,2.3c-1.5,0.4-3.1,0.5-4.6,0.6c-1.2,0.1-1.3,0.8-1.1,1.5c0.5,1.4-0.4,2-1.4,2.5
		c-3.1,1.8-6.6,2.4-9.9,3.6c-2.7,1-5.2,2.1-7.9,3.2c-1.3,0.5-2.7,1.1-4.1,1.3c-1.1,0.2-1.4,0.8-1.2,1.8c0.1,0.5,0.2,1,0.2,1.4
		c1.1,6.9,1,13.8,0.4,20.9c-0.2,2.5,0.5,4.8,1.8,6.8c2,3,4.1,6.1,6.2,8.9c3.1,4.2,6,8.5,9.4,12.2c3,3.1,5.1,6.8,8.1,9.7
		c1.1,1.1,2.3,1.8,3.5,2.7c1.1,0.8,2.1,1.5,3.2,2.3c0.4,0.2,0.7,0.5,1.1,0.7c1.2,0.8,2.4,1.8,3.6,2.6c0.6,0.4,1.1,1,1.5,1.3
		c1.7,1.1,2,0.7,2.3-1.2c0.4-4.5,0.8-8.9,1.3-13.5c0.4-3.7,0.5-7.4,0.8-11.1c0.2-2.3,0.6-4.5,0.7-6.8c0.1-1.3,0-2.5,0-3.8
		c0.1-2.6,0-5.1,0.4-7.6c0.6-5.4,1.4-10.8,2.3-16.2c0.8-5.6,2-11.1,4.1-16.4c2.3-6,5.5-11.4,9.9-16.2c0.1-0.1,0.2-0.2,0.4-0.4
		c0.8-1.5,2.1-1.7,3.6-1.1c-1.1,1.1-2,2.1-3,3.2c-4.2,4.4-7,9.7-9.1,15.4c-1.5,4.3-2.9,8.6-4.1,12.9c-0.6,1.9-0.7,4.1-1,6.1
		c-0.5,3.7-0.8,7.3-1.2,11c0,0.5,0.1,1,0.2,1.4c0.4-0.4,0.8-0.7,1-1.1c0.7-2.3,1.2-4.6,1.9-6.8c1.3-3.9,2.7-7.9,4.2-11.9
		c0.8-2.5,1.7-5,2.7-7.5c0.4-1.1,1.2-1.9,1.7-2.9c0.6-1.2,1-2.4,1.4-3.6c1.5-3.5,3.5-6.7,5.8-9.5c0.8-1.1,1.5-2.1,2.5-3.2
		c0.2,1.3,0.5,2.5-0.4,3.6c-1.5,2.3-3,4.5-4.4,6.8c-0.7,1.2-1.4,2.4-1.9,3.7c-2.3,5.1-5.1,10-6.7,15.6c-0.6,2.4-1.9,4.5-2.6,6.9
		c-1.2,3.3-2.1,6.7-3.2,9.9c-0.4,1.2-0.6,2.5-0.8,3.8c0,0.1,0,0.2,0,0.2c-2.1,3.3-1.2,7.2-1.7,10.7c-1,7.3-1.9,14.5-2.6,21.8
		c-0.2,3.1,0.1,6.3,0.2,9.5c0,0.4,0.5,0.8,1,1.1c3.3,1.7,6.6,3.6,10.1,4.9c2,0.7,4.4,0.6,6.6,0.7c1.2,0.1,2.4,0,3.6-0.1
		c0.6,0,1.2-0.2,1.7-0.6c1-0.5,1.5-0.2,2.1,0.5c0.4,0.5,1,1.1,1.5,1.1c3.7,0.4,7.2,1.2,10.6,2.5c0,1,0,1.9,0,2.9
		c-2.6-0.5-5.1-1-7.7-1.5c-1.9-0.4-3.7-1-5.6-1.3c-2.7-0.5-5.5-1-8.3-1.3c-0.4,0-0.8,0.1-1.4,0.2c2.6,3.5,5.1,6.6,6.8,10.4
		c-1,0.7-1.8,0.7-2.5-0.2c-0.7-1.1-1.4-2.1-2.3-3.2c-3.6-5-8.2-8.7-13.7-11.6c-3.1-1.5-6.1-3.5-9.1-5.2c-3.1-1.8-6.1-3.6-9.2-5.5
		c-0.4-0.2-0.6-0.5-0.8-0.7c-3.1-3.6-6.2-7-9.3-10.7c-1.7-1.9-3-4.1-4.5-6.2c-1.9-2.6-3.9-5.1-5.8-7.7c-2.4-3.3-4.9-6.6-6.8-10
		c-1.7-2.9-1.9-6.3-1.5-9.7c0.2-2.7,0.6-5.5,1-8.2c0-0.4-0.2-0.8-0.2-1.2c-0.2-1.7-0.5-3.5-0.5-5.1c0-2.5-0.5-4.8-1.8-7
		c-1.4-2.5-2.1-5.2-3.1-8c-0.6-1.7-0.8-3.5-1.3-5.2c-0.5-1.5-1.1-3-1.4-4.5c-0.4-1.8-0.4-3.6,0.8-5.1c0.7-1.1,0.6-2-0.1-2.9
		c-0.8-1-1.9-0.7-2.9-0.2c-2.4,1.2-3.7,3.3-4.6,5.7c-1,2.4-0.6,4.9-1,7.3c-0.5,2.4,0.2,4.6,1.2,6.7c0.2,0.4,0.6,0.8,1,1
		c1.7,0.5,2.7,1.8,3.5,3.1c0.4,0.6,0.1,1.7,0.1,2.5c0,0.4-0.1,0.7-0.2,1.2c2.1,0,4.1,0,6.1,0c0.5,0,1.1,0.2,1.4,0.6
		c0.6,0.6,1.1,1.3,1.3,2.1c0.7,2.3,0.5,2.9-1.5,4.3c-0.4,0.2-0.6,0.4-1,0.6c-0.1,0.1-0.2,0.5-0.2,0.6s0.2,0.2,0.5,0.4
		c1.8,0.4,2.9,1.3,3,3.1c0.1,2.4-0.6,3.9-3.1,4.8c-3.3,1.2-6.6,2.5-9.5,4.5c-1.2,0.7-2.6,1.1-3.9,1.5c-2.4,0.8-4.9,1.3-7,2.4
		c-1.5,0.8-2.7,2.4-4.1,3.6c-0.1,0.1-0.1,0.6-0.1,1c1.4-0.6,2.7-1,4.1-1.5c3.9-1.8,7.7-3.7,11.7-5.6c1.8-0.8,3.6-1.8,5.5-2.6
		c2.4-1.1,4.6,0.5,4.8,3c0.2,3.3-1.8,5.5-4.3,7.3c-2.1,1.4-4.5,2.5-6.6,3.9c-2.4,1.7-5,2.7-7.6,3.8c-1.4,0.6-2.9,1.5-4.2,2.4
		c-1,0.6-1,1.2-0.1,2.1c3.1,3.5,6.4,6.7,9.3,10.3c2.9,3.5,5.6,7,8.1,10.8c2.1,3.1,3.9,6.3,5.7,9.7c1.3,2.5,2.4,5.1,3.7,7.6
		c2.7,5.5,6.2,10.6,9.9,15.5c1.8,2.4,3.3,4.9,5.1,7.6c-1.3,0-2.4,0-3.5,0c-0.2,0-0.6-0.4-0.7-0.7c-1.4-3.7-3.7-6.8-5.8-10
		c-1.9-2.9-3.2-6-4.9-8.9c-2.7-4.9-5.5-9.7-8.2-14.5c-1.3-2.4-2.3-4.8-3.6-7.2c-2-3.7-5-6.6-8-9.4c-2.5-2.5-5.2-5-7.9-7.4
		c-1-1-2.1-0.8-3,0.2c-0.5,0.6-0.7,1.4-1.1,2.1c-1.3,2.9-2.7,5.6-5,8c-0.4,0.4-0.7,0.7-1.2,1c-3.2,2.1-6.4,4.2-9.7,6.4
		c-1.5,1.1-3.1,2.4-4.5,3.7c-0.2,0.2-0.4,0.8-0.4,1.2c-0.1,3.9,0,8-0.2,11.9c-0.2,2.9-1,5.6-1.3,8.5c-0.4,2.5-0.6,5-0.7,7.5
		c-0.1,2.1,0,4.4-0.2,6.6c-0.4,3.7-1,7.3-1.5,11c0,0.4-0.5,0.7-0.7,1.1c-0.2-0.4-0.7-0.7-0.7-1.1c-0.1-0.7-0.1-1.4,0.1-2
		c0.7-2.6,0.5-5.2,0.6-7.9c0.1-1.4,0.6-2.9,0.7-4.3c0.1-3.1-0.1-6.1,0.2-9.2c0.5-5.5,1.3-11.1,1.9-16.6c0.1-1.1,0-2.3,0-3.5
		c-1.8,0.6-2,2.1-2.5,3.6c-1,3.5-1.8,6.9-2.9,10.3c-0.7,2.4-1.8,4.6-2.7,6.9c-0.2,0.6-0.7,1.1-1.2,1.5c-4.4,4.4-9.8,7.2-15.9,8.5
		c-1.5,0.4-3.1,1.1-4.6,1.2c-2,0.2-3.8-0.5-5.4-1.8c-3-2.7-6-5.5-8.9-8.1c-0.1-0.1-0.2-0.2-0.5-0.2c0-1.1,0-2,0-3.1h0.1
		c3,3.7,6.6,6.8,10.3,9.7c1.2,0.8,2.4,1.3,3.8,1s2.9-1,4.3-1c3.7-0.1,6.8-1.7,10-3.2c1.5-0.8,2.9-2,3.7-3.6c0.8-1.4,1.8-2.7,2.5-4.2
		c1-1.8,1.8-3.6,2.5-5.4c0.4-0.8,0.6-1.7,0.8-2.5c0.8-2.5,1.5-5,2.5-7.5c0.7-1.7,1.4-3.5,2.6-4.9c2.3-2.7,5.4-4.6,8.5-6.4
		c1.9-1.1,3.8-2.1,5.6-3.3c1.4-1,2.9-2.1,4.2-3.3c2.3-2.3,3.5-5.2,4.9-8.1c1.2-2.4,2.6-4.6,4.3-6.7c1-1.1,2.6-1.8,4.1-2.4
		c2.4-1.1,5-1.9,7.4-3.1c2.9-1.5,5.6-3.6,8.3-5.4c0.4-0.2,0.6-0.6,1.2-1.2c-1-0.1-1.4-0.2-1.9-0.1c-2.1,0.2-3.1-0.6-3.2-2.6
		c0-0.1-0.1-0.4-0.1-0.6c-5.4,2.5-10.7,4.9-16.1,7.4c0.2,0.7,0.5,1.8,0.8,2.6c0.2,0.6,0.8,1.1-0.1,1.4c-0.2,0.1-1-0.5-1.2-1
		c-0.4-0.8-0.5-1.8-0.7-2.7c-4.3,1.1-7.2,3.6-8.8,7.5c-0.5-0.2-0.8-0.4-1.3-0.6c1.1-2,2.1-3.7,3.7-5.1c2-1.8,4.3-3.5,5.8-5.6
		c2.4-3.1,5.2-4.9,8.9-5.8c1.1-0.2,2.3-0.6,3.2-1c3.3-1.4,6.7-3,10-4.5c0.2-0.1,0.5-0.4,0.5-0.5c0-0.2-0.2-0.6-0.5-0.6
		c-1.7-0.8-2.3-2.1-1.8-3.9c0.1-0.2,0.1-0.6,0.2-1.2c-0.8,0.4-1.3,0.6-1.8,0.8c-4.2,1.2-8.3,2.3-12.4,3.6c-1.7,0.5-3.2,1.3-4.8,2.1
		c-0.7,0.4-1,0.8-0.2,1.5c0.6,0.6,1,1.3,1.3,2c0.1,0.2,0,0.7-0.1,1.1c-0.4-0.1-0.8-0.1-1.1-0.4c-0.5-0.6-0.7-1.3-1.3-1.9
		c-0.2-0.2-0.8-0.4-1.1-0.2c-1.3,1-2.5,2-3.9,3c-2.4,1.7-4.8,3.2-7.9,3.8c0.2-0.5,0.5-1,1-1.2c1.2-0.7,2.6-1.3,3.8-2
		c2.7-1.7,5.5-3.3,7.4-6.1c1.2-1.8,3.3-2.6,5.2-3c4.9-1.2,9.8-2.5,14.5-4.3c0.5-0.1,1-0.4,1.8-0.7c-2.9-1.7-2.5-4.2-2-6.7
		c-7.6,1.4-15.1,2.9-22.5,5.7c0.6,0.8,1.2,1.4,1.5,2.1c0.5,0.7,1,1.4,1.3,2.1c0.1,0.2-0.1,0.6-0.1,0.8c-0.4-0.1-0.7-0.1-1-0.2
		c-0.4-0.4-0.5-0.7-0.8-1.2c-0.5-0.7-1-1.4-1.5-2.1c-0.5-0.6-1-0.6-1.5-0.1c-1,0.7-2,1.4-2.9,2.3c-2.1,2.3-4.9,3.6-7.6,4.6
		c-1.1,0.5-2.4,0.5-3.7,0.8c0-0.7,0-1.2,0-1.7c0.5,0,1.1,0,1.5-0.1c1-0.1,2-0.2,3-0.6c2.4-0.8,4.1-2.6,5.8-4.2
		c1.9-1.5,4.1-3,6.2-4.1c2-1,4.2-1.4,6.4-2c2.6-0.7,5.4-1.3,8-1.9c0.2-0.1,0.5-0.2,1-0.6c-2.9-1.7-2.7-4.2-1.8-6.9
		c-0.7,0.1-1.1,0.1-1.4,0.2c-2.9,0.6-5.8,1.1-8.7,1.7c-1.8,0.4-3.6,0.4-5.4,0.8c-1.5,0.4-3.2,1-4.4,2.1c0.7,1,1.3,1.9,1.8,2.7
		c-0.1,0.1-0.1,0.2-0.2,0.4c-0.5-0.1-1-0.1-1.3-0.5c-1.7-1.8-1.5-1.8-3.6-0.4c-0.1,0.1-0.2,0.2-0.5,0.2c-3,2.1-6.2,3.9-8.9,6.6
		c-1.5,1.5-3.2,2.9-4.9,4.3c-1.9,1.5-3.8,3.1-3.3,6c0,0.1,0,0.2,0,0.4c0,4.1-0.1,8,0,12c0.1,2.7-0.1,5.5-2,7.5
		c-2.7,3.1-5.7,6.1-8.9,8.7c-2.7,2.3-5.7,4.3-8.3,6.7c-1.4,1.3-2.9,2.5-4.4,3.7c-0.4,0.2-0.8,0.1-1.3,0.2c0.1-0.4,0.2-1,0.5-1.2
		c0.8-0.8,1.8-1.5,2.9-2.5c-4.1-2.4-8-4.8-12.2-7.3c-1,2.3-1.8,4.2-2.6,6.1c-0.7,1.5-1.3,3.2-2,4.8c0-1.1,0-2,0-3.1
		c1.9-4.1,3.7-8.1,5.6-12.2c0.7-1.5,1.8-3,2.5-4.5c0.7-1.4,1.3-3,2-4.5c0.7-1.5,1.4-3,2-4.5c1-2.4,1.9-4.8,2.9-7
		c2.9-6.8,5.8-13.5,8.5-20.3c1.3-3.5,2.3-7,3.3-10.6c0.7-2.3,1.4-4.5,2.4-6.6c2.1-4.4,4.4-8.8,6.6-13.2c1.8-3.6,3.9-6.7,7.3-9.2
		c5.8-4.3,12.2-7.4,18.7-10c1.8-0.7,3.7-0.7,5.6-1.1c1.8-0.2,1.8-0.5,1.7-2.3c-0.4-4.2-2-8-3.2-12c-1-3.1-1.1-6.3-1.4-9.5
		c-0.2-1.7-0.2-3.5-0.2-5.2c0-2.4-0.1-4.9,0-7.3c0.1-1.7-0.1-3.3-1-4.9c-1.8-3.6-1.9-7.5-1.3-11.4c0.4-2.4,0.6-4.8,1.3-7
		c0.8-2.7,1.7-5.6,3.1-8.1c1.7-3,3.2-6.2,6-8.3c1.1-0.8,2.4-1.5,3.6-2.3c2.9-1.8,5.6-3.8,8.7-5.1c2.7-1.2,5.8-1.7,8.8-2.3
		c6.2-1.3,12.5-1,18.8-0.4c3.2,0.2,6.3,1.3,9.4,2.1c3.6,1,6.1,3.5,8.7,5.8c4.2,3.7,5.7,8.6,6.1,13.9c0.4,5.6,0.5,11.1,0.8,16.7
		c0,0.2,0.1,0.6,0.1,0.8c3.2,0.5,3.9,1.2,4.3,4.5c0.1,1.4,0.6,2.9,0.7,4.3c0.1,1.5,0,3,0,4.5c-0.1,1.1-0.5,2.3-0.5,3.3
		c0.2,5-1.1,9.5-3.6,13.7c-0.4,0.6-0.8,1.1-1.3,1.7c-0.6,0.8-0.7,1.5,0.2,2.3c2.5,1.9,4.9,4.1,7.4,6c1.1,0.8,2.4,1.3,3.7,1.9
		c1.4,0.7,3,1.3,4.4,2c0.4,0.1,0.8,0.2,1.2,0.4c1.2,0.5,2.4,0.8,3.7,1.3c1.4,0.5,2.9,1,4.3,1.3c0.6,0.1,1.2,0.2,1.7,0.5
		c1.2,0.5,2.5,0.7,3,2.3c0.1,0.4,0.8,0.6,1.2,0.8c3.7,2.5,7.5,5,11.2,7.5C179.1,99.2,179.1,100.4,179.1,101.6z M134.9,49
		c-0.2-0.1-0.4-0.4-0.6-0.5c0.5-1,1-2,1.5-2.9c0.5-0.6,1.3-1.2,1.9-1.1c0.6,0.1,1.2,1.1,1.3,1.7c0.4,1.4,0.5,2.9,0.8,4.4
		c0.1,0.5,0.4,1,0.6,1.4c0.2,0,0.4-0.1,0.6-0.1c0-0.8,0.1-1.7,0-2.5c-0.6-2.4-1.2-4.6-1.9-7c-0.4-1.3-0.6-1.5-1.8-0.7
		c-1.8,1.2-3.2,2.7-4.1,4.8c-0.2,0.7-0.6,1.4-1.1,2c-1,1.3-1.9,2.5-2.9,3.8c-0.4,0.1-0.8,0-1.1,0.2c-1.1,0.7-1.7,0-2.1-0.6
		c-0.4-0.5-0.4-1.1-0.6-1.7c-1.1-3.6-2.6-6.8-4.6-9.9c-1.9-2.7-2.7-5.8-2.7-9.2c0-2.4,0-4.6-0.1-7s-1.1-4.2-3.2-5.4
		c-1.7-0.8-3.5-1.1-5.2-0.8c-3.2,0.4-6.4,1-9.7,1.2c-3.6,0.2-7.2,0.5-10.8,0.5c-1.2,0-2.5-0.5-3.5-1.1c-1.8-1.2-3.5-1.7-5.5-1.2
		c-0.6,0.1-1.2,0.1-1.8,0.2c-1.2,0.1-2.6-0.1-3.6,0.5c-2.4,1.3-4.9,2.7-6.1,5.5c-0.4,0.7-1.1,1.3-1.4,2c-1,1.4-2.4,2.9-2.7,4.4
		c-0.6,2.6-0.8,5.5-0.7,8.2c0.1,2.4,0.2,5,2.1,7c0.2,0.2,0.2,0.8,0.2,1.3c-0.1,2-0.4,4.2-0.2,6.2c0.1,2.9,0.2,5.7,0.6,8.6
		c0.2,2.7,0.6,5.4,1.2,8c1,4.1,2.3,8,3.2,12c1,4.2,2.7,8.1,4.3,12.2c0.8,2.3,1.5,4.4,3.1,6.3c2,2.5,3.9,5,6,7.5
		c0.2,0.2,1,0.4,1.4,0.2c0.5-0.2,1-0.7,1.4-1.1c1.9-1.4,4.4-1,5.4,1.3c0.4,1,0.4,2.1,0.6,3.2c0.5-0.1,1.2-0.4,1.9-0.5
		c7.2-0.8,12.5-4.6,17.3-9.8c2.5-2.6,4.8-5.5,7-8.5c2.7-3.6,4.9-7.5,5.5-12.2c0.1-0.7,0.1-1.5,0.4-2.3c0.4-1,0.8-1.9,1.3-3
		c0.2,0.1,0.5,0.1,0.6,0.2c-0.2,1.4-0.4,3-0.7,4.4c-0.5,2.3-0.5,4.6-1.7,6.8c-3.3,6.4-8.1,11.8-13,17c-1.3,1.3-2.3,3.1-3.8,4.2
		c-3.7,2.6-7.7,4.8-12.6,4.6c-0.5,0-1-0.1-1.4,0c-0.4,0.1-0.8,0.4-1,0.6c-0.1,0.1,0.2,0.7,0.5,1c2.7,2.6,5.5,5.2,8.2,7.9
		c1.4,1.4,2.1,1.3,3.5-0.2c1.7-1.8,3.3-3.7,5.1-5.4c3.5-3.2,6.9-6.4,9.9-10.3c0.8-1.1,1.9-2,2.5-3.1c2.7-4.9,5.6-9.8,7.9-15
		c1.7-3.7,3.5-7.4,3.5-11.7c0-2.7,0.1-2.6-2.4-3.7c-2-0.8-2.6-3-2-5c0-0.1,0.2-0.4,0.5-0.4c0.1,0,0.5,0.1,0.5,0.4
		c0.1,0.4,0.1,0.7,0.2,1c0.4,2,1.7,3,3.6,2.4c0.8-0.2,1.8-1,2.4-1.7c2.3-3.3,3.2-7.2,3.7-11c0.1-0.8,0.1-1.8-0.1-2.6
		c-0.6-2.7-1.3-5.4-2.1-8.1c-0.1-0.4-0.4-0.7-0.6-1c-0.4,0.2-0.7,0.5-1.1,0.8C135.9,48.1,135.4,48.6,134.9,49z M41.5,111.5
		c0.4-0.7,0.5-1.5,1-2c0.6-0.8,1.4-1.4,2.1-2.1c1.1-0.8,3.3-1,4.2,0c1.3,1.5,2.5,3.1,3.7,4.6c2.3,3.2,4.4,6.4,6.8,9.7
		c1.3,1.7,2.9,3.2,4.4,4.8c1.1,1,1.7,0.7,1.9-0.7c0-0.4,0-0.8-0.1-1.1c-0.6-1.3-1.2-2.6-2-3.8c-1.1-1.8-2.4-3.5-3.6-5.1
		c-1.4-1.9-2.9-3.7-4.3-5.6c-0.6-0.8-1.1-1.9-1.8-2.6c-2.7-3.1-1.9-6.4,1.9-7.6c2.5-0.8,5.1,0,6.6,2.1c1.1,1.5,2.3,3,3.5,4.4
		c0.8,1.1,1.9,0.8,2.5-0.5c0.2-0.6,0.5-1.2,0.7-1.8c1.3-2.4,2.7-4.8,3.9-7.2c0.5-1,1-2,0.4-3.1c-0.7-1.7-1.4-3.5-2.1-5.1
		c-0.2-0.4-0.8-0.8-1.2-0.8c-1.9,0.2-3.9,0.4-5.7,1c-1.8,0.5-3.5,1.4-5.1,2.1c-2,0.8-3.9,1.8-5.8,2.7c-3.2,1.5-6.2,3.3-8.9,5.6
		c-1.4,1.2-2.9,2.5-4.1,4.1c-1.4,1.9-2.5,4.2-3.7,6.3c-1.1,1.9-1.9,3.9-2.9,6c-1.3,3.1-2.7,6.1-3.8,9.3c-1.2,3.2-1.9,6.6-3,9.8
		c-0.8,2.3-2,4.4-3,6.6c-1.2,2.9-2.1,5.7-3.3,8.6c-2,5.1-4.1,10.1-6.2,15.1c-1.1,2.6-2.4,5-3.7,7.5c-1.4,2.5-3,5-4.4,7.4
		c-0.5,0.7-0.5,1.2,0.5,1.5c1.8,0.7,3.5,1.5,5.2,2.4c1.9,1,3.9,1.7,5.7,2.7c1.1,0.7,2,0.7,2.9-0.1c2.1-2.1,4.9-3.6,7.3-5.5
		c2.9-2.1,5.2-4.9,7.7-7.5c1.3-1.3,1.9-3.1,1.9-5c0-2.5,0-5.1,0-7.6c0-2.5,0-4.9,0-7.4c0-2.3,0.8-4.2,2.6-5.6c1.3-1,2.4-2.1,3.7-3.1
		c1-0.7,1.1-1.5,1-2.7c-0.2-1.5-0.4-3.1-0.4-4.5c0.1-1.4-0.1-2.6-1-3.7c-1-1.4-1.5-2.9-1.7-4.6c0-1-0.4-2-0.5-3
		c-0.4-2-0.1-4.1,1.1-5.8c1-1.3,1.3-2.7,0.4-4.4C42.2,114.5,42,112.9,41.5,111.5z M122.3,115.6h-0.1c0,0.5,0,1.1,0,1.5
		c0,2.5,0.2,3,2.6,2.7c3.5-0.4,6.9-1.1,10.3-1.8c2.3-0.5,4.4-1.3,6.7-2.1c1.4-0.5,2.3-1.4,2.9-2.7c0.6-1.5,1.2-3.1,1.7-4.6
		c1-2.7,2.1-5.4,2.7-8.2c1-4.5,1.3-9.3,2-13.8c0.2-1.3-0.4-1.9-1.5-2.4c-2-0.7-4.2-1.2-6-2.4c-2-1.2-3.8-3.1-5.7-4.5
		c-0.4-0.4-1.2-0.7-1.4-0.6c-0.4,0.2-0.6,1-0.7,1.4c-0.2,1.4-0.1,3-0.6,4.3c-1.4,3.8-3,7.6-4.5,11.3c-0.7,1.7-1.8,3.2-2.7,4.8
		c-1.4,2.4-2.9,4.8-4.5,7c-0.8,1.2-1.3,2.3-1.3,3.7C122.2,111.3,122.2,113.4,122.3,115.6z M53.8,104.9c0.4,0.7,0.6,1.2,0.8,1.5
		c1.4,1.9,3,3.7,4.4,5.6c3.1,4.1,6,8.2,8,13c0.6,1.5,0.4,2.5-1.4,3.6c-1,0.6-1.9,0-2.7-0.8c-2.3-2.5-4.6-4.9-6.8-7.6
		c-1.9-2.5-3.5-5.4-5.2-8.1c-0.6-1-1.3-1.8-2.3-3c-0.4,3.5-1.4,5.7-5.2,4.6c0.6,1.2,1.3,2,1.9,3c0.2,0.4,0.6,0.8,0.8,1.3
		c0.7,1.4,1.1,3,2,4.2c1.9,2.7,3.9,5.4,5.8,8c1.1,1.5,2,3.1,3.1,4.6c1.5-0.8,3.1-1.8,4.8-2.5c1.2-0.6,2.5-1.1,3.7-1.3
		c2.9-0.5,5.7-0.7,8.7-1.2c1.8-0.2,3.6-0.8,5.4-1.2c1.1-0.2,1.2-0.6,0.6-1.4c-2.4-3.2-4.9-6.3-7.3-9.5c-3.8-5-7.7-10-11.6-14.9
		c-0.5-0.6-1.2-1-1.9-1.5C58.8,105.5,57.4,106.1,53.8,104.9z M120.4,111.4c-0.1,0-0.2,0-0.4-0.1c-1.1,1-2.3,1.8-3.3,2.7
		c-3.1,2.6-6.2,5.2-9.3,8c-2,1.8-3.8,3.7-5.7,5.6c-1.2,1.1-2.4,2.3-3.5,3.3c-0.2,0.4-0.4,0.8-0.5,1.3c0.5,0,1.1,0.1,1.5-0.1
		c1.4-0.6,2.9-1.3,4.3-1.8c3.3-1.2,6.7-2.4,10-3.6c1.8-0.6,3.6-1.2,5.4-1.9c0.5-0.1,1-0.8,1-1.3c0.2-2.3,0.2-4.5,0.4-6.8
		C120.4,115.1,120.4,113.3,120.4,111.4z M74.1,96.8c-0.1,0.1-0.2,0.4-0.4,0.6c-1.9,3.2-3.7,6.6-5.6,9.8c-0.4,0.7-0.6,1.3,0.2,2
		c1.2,1,1.9,2.3,3.9,2.3c3.2,0.1,6.4,0.8,9.5,1.3c0.6-1.2,1.1-2.1,1.7-3.1C80.5,105.5,77.4,101.3,74.1,96.8z M55.8,136.1
		c-0.2-0.4-0.4-0.6-0.6-0.8c-1.5-2.6-2.9-5.4-4.6-7.7c-1.9-2.6-4.2-5-5.2-8.2c-0.2-0.6-0.7-0.6-1.1-0.1c-0.8,1.3-1.5,2.6-1.3,4.3
		c0.2,1.3,0.2,2.7,0.2,4.1c0,0.8-0.1,1.7,0.2,2.4c1.1,2.3,2.1,4.4,3.3,6.4c0.8,1.3,1.8,2.6,2.7,3.8
		C51.8,138.7,53.8,137.4,55.8,136.1z M101.8,124.9c-0.5-0.4-1.1-0.8-1.7-1.3s-1.2-1-1.8-1.4c-0.5-0.5-1-1.1-1.5-1.5
		c-1.3-1.3-2.6-2.6-3.9-3.9c-0.2-0.2-0.6-0.4-1-0.5c-0.1,0.4-0.4,0.7-0.2,1.1c0.7,2.3,1.4,4.5,2.1,6.8c0.6,2,1.1,4.2,1.7,6.2
		c0.1,0.5,0.4,0.8,0.5,1.3C97.9,129.3,99.8,127.1,101.8,124.9z M81.2,116.5c0-2.1-0.2-2.5-1.5-2.6c-1.8-0.2-3.5-0.6-5.2-0.8
		c-0.5-0.1-1-0.2-1.3-0.4c-0.2,0-0.7,0.1-0.8,0.2c-0.1,0.2,0,0.6,0.1,0.8c0.8,1.3,1.8,2.7,2.6,4.1c1.7,2.3,3.3,4.5,5,6.8
		c0.2,0.2,0.6,0.4,1,0.5c0.1-0.4,0.4-0.7,0.4-1.1c-0.1-1.5-0.2-3.1-0.4-4.6C80.9,118.4,81,117.5,81.2,116.5z M83,129.5
		c-1.9,0-2.6,0.7-2.6,2.6c0,1.8,1.8,3.8,3.3,3.7c1.4-0.1,3.5-1.8,3.5-2.9C87,131.3,84.9,129.5,83,129.5z M89.2,138.9
		c-0.1,1.4,1.3,3.3,2.6,3.6c1.2,0.1,3.6-1.7,3.7-2.7c0.1-1.7-1.2-3.5-2.7-3.6C90.8,135.9,89.4,136.3,89.2,138.9z M95.8,147.5
		c0.1-1.7-1-2.5-2.9-2.6c-1.3-0.1-2.6,1.1-2.6,2.4c0,1.5,1.7,2.9,3.6,2.9C94.9,150.1,95.7,149,95.8,147.5z M90.6,160.8
		c1.7,0,2.9-0.6,3.1-1.4c0.2-1.2-0.7-2.9-1.8-3.1c-1.3-0.4-3.5,0.5-3.7,1.7C87.6,159.9,88,160.8,90.6,160.8z M47.4,109.6
		c-0.2-0.4-0.4-1.3-0.8-1.4c-0.5-0.2-1.2,0.2-1.8,0.6c-0.4,0.1-0.6,0.6-1,0.8c-0.7,0.5-1.1,1-0.7,1.8c0.4,1,1.1,1.7,2.1,1.5
		c0.7-0.1,1.4-0.7,1.9-1.3C47.3,111.1,47.3,110.4,47.4,109.6z M56,104.5c1.3,0,2-0.8,2-2.6c0-1-0.4-1.5-1.4-1.5
		c-1.2,0-2.9,1.3-2.9,2.3C53.8,103.4,55.1,104.5,56,104.5z M46,142.5c0.8-0.6,1.5-1.1,2.4-1.7c-0.7-1.2-1.4-2.5-2.1-3.7
		C45.3,139,45.5,140.7,46,142.5z"/>
	<path class="st0" d="M48.7,159.3c-1,0.7-1.7,1.3-2.4,1.8c-1.3,0.7-1.7,1.8-1.4,3.2c0.1,1,0.1,1.9,0.1,2.7c0,0.2-0.4,0.6-0.6,0.8
		c-0.1,0-0.2-0.1-0.4-0.1c0-1.9-0.1-3.8,0-5.7C44.2,161,47.1,159.2,48.7,159.3z"/>
	<path class="st0" d="M109.2,85.6c-0.2-0.4-0.6-0.6-0.8-1c-2.6-3.9-5.1-7.9-7.7-11.8c-0.4-0.5-1-0.8-1.7-1.4c0.1,2.5-1,3.9-3,4.5
		c-0.2,0.1-0.6,0.2-0.8,0.1c-1.7-0.6-3.1,0.2-4.5,0.7c-1.2,0.4-2.5,0.6-3.7,0.4c-2-0.4-4.3,0.2-6.2-1.4c-1,1.9-2.1,3.7-2.7,5.6
		c-0.6,1.8-0.7,3.8-1.2,5.8c-0.6-1.3-0.7-2.7-0.2-4.1c0.7-2,1.4-4.2,2.4-6.1c0.7-1.4,1.3-2.7,1.5-4.4s1.2-2.9,2.4-4.1
		c0.6-0.5,0.7-1.7,0.8-2.5c0.5-2,0.6-4.2,1.3-6.2c0.6-1.5,0.6-3,0.4-4.5c-0.1-0.6-1-1.1-0.2-1.7c-0.4-0.2-0.7-0.5-1-0.7
		s-0.4-0.5-0.5-0.7c0.4,0,0.7-0.2,1-0.1c0.5,0.5,1.2,1,1.3,1.5c0.7,2.3,0.7,4.4-0.4,6.7c-0.7,1.8-1,3.7-1.2,5.6
		c-0.2,1.5-0.4,3-1.8,4.2c-1.8,1.4-2.1,3.7-1.1,5.1c0.2,0.4,0.5,0.7,0.6,1.1c0.1-0.1,0.2-0.2,0.5-0.4c0-0.4,0-0.7,0-1.2
		c0.4,0,0.7,0,0.7,0.1c2,2.5,4.4,1.9,6.9,1.1c0.6-0.2,1.2-0.5,1.7-1c1.2-1,2.5-1.3,3.9-0.7c1.2,0.4,2.4-0.5,2.1-1.7
		c-0.2-1.2-0.6-2.3-1.1-3.3c-0.5-1-1.2-1.7-1.8-2.6C95,66.4,95,66.1,95,65.9c0.2,0.1,0.6,0.1,0.8,0.4c2.4,2.7,4.8,5.5,6.9,8.5
		c2.1,2.9,3.9,6,6,8.9c0.4,0.6,0.5,1.3,0.8,1.9C109.4,85.4,109.3,85.5,109.2,85.6z"/>
	<path class="st0" d="M104.1,88.6c-2.4,2-4.9,3.7-7.6,5.1c-3,1.4-6.1,1.2-9.2,0.8c-0.8-0.1-1.7-0.6-2.3-1.1
		c-1.8-1.5-3.5-3.1-5.1-4.8c-0.2-0.2-0.4-0.7-0.5-1.1c0.4-0.1,0.8-0.4,1.2-0.5c1.2-0.4,2.5-0.7,3.8-0.8c1-0.1,2.1-0.4,3-0.1
		c1.2,0.4,2,0.4,3.2-0.2c1.1-0.5,2.5-0.6,3.7-0.4c3.3,0.7,6.6,1.7,9.8,2.5C104.1,88.3,104.1,88.4,104.1,88.6z M101.8,88.7
		C95,91.2,88.2,91.1,81.4,89c1.2,1.4,2.4,2.6,3.8,3.6c1,0.6,2.1,1.1,3.2,1.1c2.4,0.1,4.9,0.1,7.3-0.8C98,91.8,99.8,90.4,101.8,88.7z
		 M82.7,87.8c5.1,0.6,10.4,1.7,15.9,0c-0.6-0.4-0.8-0.6-1.2-0.7c-1.4-0.2-3-0.6-4.5-0.7c-0.7-0.1-1.5,0.1-2.1,0.5
		c-1.1,0.7-2.1,0.7-3.1,0.2C85.8,86.1,84.3,87.1,82.7,87.8z"/>
	<path class="st0" d="M115.4,51c-1,1.3-1.9,1-2.9,0.7c-3.9-0.7-7.7-0.7-11.6,0.7c-1.3,0.5-2.9,0.5-4.3,0.5c-0.5,0-1.1-0.4-1.5-0.6
		c0-0.1,0-0.2,0-0.4c1.7-0.7,3.3-1.4,5-2c1.5-0.6,3.1-1.2,4.6-1.7c1.1-0.2,2.4-0.6,3.3-0.2C110.6,48.7,112.9,49.9,115.4,51z"/>
	<path class="st0" d="M103.5,53.8c3.7,1.9,7.9,1.8,12.2,2.3c-0.4,0.5-0.6,0.8-1,1.2c-3.8,3.8-9.3,3.9-13.5,1.2
		c-0.7-0.5-1.4-0.8-2.3-1.2s-1.1-1-0.2-1.8c3.6,2.7,7.3,4.5,11.9,2.9c0.7-0.2,1.3-0.6,1.9-0.8c0-0.1,0-0.2,0-0.4
		c-1-0.1-1.9-0.4-2.9-0.5c-1.8-0.4-3.6-0.7-5.2-1.2c-0.5-0.1-0.7-0.7-1.1-1.1C103.2,54.1,103.3,53.9,103.5,53.8z"/>
	<path class="st0" d="M82.2,52c-0.1,0.5-0.2,0.8-0.4,1.4c-1.5-0.2-3-0.5-4.5-0.6c-1.8-0.1-3.7-0.4-5.5-0.1c-0.7,0.1-1.4,1-2.1,1.5
		c-0.5,0.2-1,0.5-1.4,0.7c-0.1-0.6-0.4-1.2-0.1-1.7c0.8-2,2.5-3,4.6-3.2c2.7-0.2,5.1,0.7,7.6,1.5C81,51.7,81.6,51.9,82.2,52z"/>
	<path class="st0" d="M133.1,58.2c0,0.6-0.1,1.2,0,1.7c0,0.4,0.4,0.7,0.6,0.8c0.2,0.1,0.6-0.1,0.8-0.4c1.4-1.5,2-4.8,1.1-6.6
		c-0.2-0.4-0.6-0.8-1-0.8c-0.2,0-0.6,0.5-1,0.7c-0.2,0.2-0.2,0.6-0.5,0.7c-0.2,0.1-0.7,0.1-1,0.2c0-0.4-0.2-0.7-0.1-1
		c0.6-0.8,1.2-1.7,1.8-2.5c0.6-0.7,1.2-0.5,1.8,0c1.4,1.1,2.1,3.7,1.8,5.5c-0.5,2.3-1.5,4.3-3.1,6.1c-0.4,0.4-0.8,0.8-1.3,1.1
		c-0.7,0.4-1.4,0.2-1.3-0.8c0.1-1.4,0.2-2.7,0.5-4.2c0-0.2,0.2-0.4,0.4-0.6C132.9,58.2,133,58.2,133.1,58.2z"/>
	<path class="st0" d="M83.4,55.8c0.8,0.8,0.5,1.5-0.4,2c-2.1,1-4.2,2.3-6.3,2.4c-2.4,0.2-4.8-0.6-7.2-1.1c-0.8-0.2-1.2-1.2-0.8-2.3
		c0.6,0.4,1.1,0.6,1.5,1c1.8,1.5,3.9,1.4,6,0.8c1.2-0.4,2.4-0.8,3.6-1.3C80.9,56.8,82.1,56.3,83.4,55.8z"/>
	<path class="st0" d="M97.7,99.9c-3.8-2-7.7-1.8-11.8-0.6c0-0.1-0.1-0.4-0.1-0.5c0.8-0.4,1.8-1,2.6-1c2-0.2,4.1-0.4,6.1-0.2
		C95.9,97.8,97,98.6,97.7,99.9z"/>
</g>
</svg>
