<?xml version="1.0" encoding="utf-8"?>
<!-- Generator: Adobe Illustrator 21.1.0, SVG Export Plug-In . SVG Version: 6.00 Build 0)  -->
<svg version="1.1" id="Layer_1" xmlns="http://www.w3.org/2000/svg" xmlns:xlink="http://www.w3.org/1999/xlink" x="0px" y="0px"
	 width="250px" height="121.4px" viewBox="0 0 250 121.4" style="enable-background:new 0 0 250 121.4;" xml:space="preserve">
<style type="text/css">
	.st0{fill:#BBBBBB;}
</style>
<g id="nailfungus-foot">
	<path class="st0" d="M38.1,85.3c1.5,2.8,1.2,3.3-7.7,13c2.2,1.3,4.2,2.8,6.2,4.2c5.7,3.3,11.7,6.5,17.2,10
		c3.5,2.3,7.2,3.3,11.5,3.7c7.5,0.5,14.9,1.8,22.2,2.7c2,0.2,4.2,0,6.3,0c0.2-0.3,0.2-0.5,0.3-0.8c-3.5-1.2-7-2.2-10.5-3.3
		c0.2-0.3,0.2-0.7,0.3-0.8c3.8-0.8,7.3,0.2,10.7,1.8c2.2,1,4.2,2.2,6.2,3.2c2.3,1,4,0.2,6.2-1.2c6.5-4.3,6.7-10.5,5.5-17.2
		c-0.3-1.7-1.3-3-2-4.7c-1.2,1-2.7,1.8-3.5,3.2c-1.3,2.2-3.2,4.3-0.5,7c0.3,0.3,0.2,1.3,0.3,2c-0.8-0.2-1.7-0.2-2.2-0.5
		c-1.7-1-3.2-2.7-5-3.3C91,101,84.8,94.5,78.8,88c-1-1-2-2-3-3c-0.2-0.2,0-0.5,0.2-1.8c1.8,1.2,3.5,2,4.8,3.2
		c1.5,1.3,8.5,3,10.2,2.2c0.2,0,0.5-0.2,0.5-0.3c1.2-4,4.8-5,9-6.5c-1.3-0.3-1.8-0.5-2.3-0.5c-6.2,0.7-10.2-3.2-15-6.2
		c-5.3-3.5-10.5-7.5-17.5-8.3c-11-1.2-22,0.2-33,0.7c-9.8,0.3-19.7,0.8-29.7,1.2c-0.7,0-1.3,0-2-0.3C0.3,67.9,0,67.3,0,66.8
		c0-0.2,0.5-0.8,1-0.8c1-0.2,2.2-0.3,3.2-0.3c14.9-0.7,29.7-1,44.6-2.3c8.2-0.7,15.9-0.7,23.7,1.5c1.5,0.3,3,1,4.3,1.8
		c3,2.2,5.7,4.5,8.7,6.8c2.3,1.8,5,3.3,7.7,5.2c-0.8-2.5-1.5-4.5-1.8-6.5c-0.2-0.7,0.3-2,0.8-2.3c2.7-1.7,5.5-3.2,8.2-4.8
		c0.5-0.3,1.2-0.3,1.5-0.8c1.5-2.7,3.7-2.8,6.2-2c2.7,1,5,0.8,7.5-0.8c1.2-0.8,2.8-0.8,5.2-1.3c-1-2.5-1.7-5.7-3.2-8
		c-3-4.3-4.7-9.2-5.5-14.4c-0.2-1.5-1.2-2.8-1.8-4.2c-0.5-0.8-1.3-1.5-1.7-2.3c-2.3-5.8-7-10-11.2-14.5c-0.5-0.5-0.5-1.5-0.7-2.2
		c0.8,0,1.8-0.2,2.3,0.3c3.5,3.7,7,7.5,10.3,11.5c1.5,1.8,2.5,4,4.3,6.8c0.7-2.7,1-4.3,1.5-6.2c0.3,0,0.8,0,1.2,0
		c0.2,1.3,0.5,2.8,0.2,4c-2,6.8-0.7,13,3.3,18.9c2,3,3,6.7,4.5,10c1.2,2.8,3.2,4.3,6.3,4.2c1,0,1.8,0.3,3,0.5c0.3-2.2,0.7-4.2,1-6.2
		c0.3,0,0.7,0,1.2,0c0.2,1.3,0.5,2.8,0.3,4.2c-0.2,2,0.5,2.7,2.3,2.8c1.7,0.2,3.3,0.5,5.2,0.8c0.2-2.2,0.3-4,0.5-6
		c0.2,0,0.3,0,0.5,0c0.8,2,1.2,5,2.7,5.8c1.8,1,4.7,0.2,7.3,0.2c0.3-3.3,1-6.5-2-9.2c-2.7-2.3-4.5-5.3-3-9.2
		c0.3-0.8,0.7-1.7,1.5-2.5c0,0.7,0.3,1.5,0.2,2c-1.5,3.2,0.2,5.3,2,7.5c2.8,3.3,5.5,6.8,8.3,10c0.5,0.5,1.5,0.7,2.3,0.7
		c3.5-0.2,7-0.5,10.7-0.7c-0.3-0.5-0.7-1.2-1-1.3c-4.3-1.3-6.7-4.8-8.7-8.3c-2-3.3-4-6.8-5.2-10.5c-4.3-11.8-11.7-21.7-21.2-30.2
		c-3.7-3.3-6.3-7.8-9.3-11.8C129,2,129.2,1.2,128.8,0c1.2,0.5,2.2,0.5,2.5,1c5.2,9.2,14.9,14.5,20.7,23c3.7,5.3,6.3,11.5,9.3,17.4
		c2.7,5.2,5,10.8,8.2,15.7c1.5,2.3,4.7,3.3,6.7,5.3c2.5,2.7,5.3,3,8.7,2.8c6.8-0.3,13.7-0.7,20.5-0.3c7.5,0.3,14.5-1.5,21.7-3.3
		c6.2-1.5,12.2-3.2,18.4-4.8c0.8-0.2,1.5-0.5,2.3-0.3c0.8,0.2,1.5,0.7,2.2,1c-0.5,0.7-1,1.7-1.5,1.8c-12.9,3-25.7,6-38.6,8.7
		c-3,0.7-6.5-0.3-9.7-0.2c-15.7,0.3-31.5,0.5-47.2,1.3c-8.2,0.5-16-1.2-24-2.2c-3.3-0.5-6.3-1.5-9.2-3.3c-1.2-0.8-3-0.7-4.7-0.8
		c-0.2,0.3-0.2,0.7-0.3,1c1.8,1,3.8,2,5.7,3c0,0.3-0.2,0.7-0.2,1c-5.5-1.3-10.8-3.8-16.5-4c-0.2,0.5-0.3,0.8-0.5,1.3
		c2.2,1,4.3,2,6.5,2.7c1.3,0.5,2.8,0.3,4.3,0.7c0.5,0.2,1,0.7,1.3,1c-0.5,0.3-1.2,0.8-1.5,0.8c-2.7-0.5-5.3-1-7.8-2
		c-2.8-1-5.5-1.7-8.7-0.2c1,0.5,2,1.2,3.2,1.3c3.7,0.8,7.3,1.5,11,2.5c0.7,0.2,1.2,0.7,1.7,1c-0.2,0.3-0.2,0.7-0.3,1
		c-4.7-0.8-9.3-1.8-14.2-2.7c-0.2,3-1.8,4.8-5.7,4c0.7,2,1.5,3,3.7,3.2c3.5,0.3,7.2,1,10.7,1.7c1.8,0.3,4.2,1,3.7,3.3
		c-0.3,2-2.5,2.5-4.5,2c-1.3-0.3-2.8-0.3-4.8-0.7c0.3,1.2,0.8,1.8,0.8,2.7c0.2,1.7,0.2,3.5,0.2,5.2c-2-0.2-4,0.2-5.8-0.5
		c-1.2-0.5-2-2.2-3-3.3c-0.3,5.3,4.5,9.7,9.5,8.8c0.8-0.2,1.8-1.2,2.3-2c1.8-2.2,3.7-2.3,6.5-1.8c4.2,1,8.5,1.3,12.9,1.3
		c7.2-0.2,14.2-0.5,21.4-1.2c13.2-1.3,25.2,2.3,36.7,8.2c2.3,1.2,5,2.3,7.7,2.8c4.8,0.8,8.3-1.7,11-5.3c2-2.8,4.5-4,7.8-5.2
		c12.2-4,24.7-1,37-1.7c0.7,0,1.5,0.8,2.2,1.3c-0.8,0.5-1.5,1.5-2.3,1.5c-8,0-15.9-0.7-23.7-0.3c-5.2,0.2-10.3,1.8-15.5,3
		c-0.8,0.2-1.8,1.2-2.3,2c-2.2,3.7-5.7,5.5-9.5,7s-7.7,0.3-10.8-1.5c-9.5-5.8-19.9-9.5-30.9-9.8c-10.3-0.2-20.7,1.2-31,1.8
		c-2.8,0.2-5.5,0-8.7,0c0.2,2.5,0.3,5.5,0.7,8.5c0.3,3.2-0.5,5.8-2.5,8.2c-2,2.2-3.8,4.7-6.2,6.2c-1.5,1-4,0.5-6.2,0.5
		c-1.5,0-3-0.5-4.3-0.2c-7,1-13.9,0.2-20.7-1c-4.7-0.8-9.3-0.8-14-1.5c-2-0.3-4.3-0.7-6-1.7c-7.3-4.2-14.9-8.2-21.7-13
		c-6-4.3-11.8-3.3-18-1.8c-4.2,1-8.3,2.2-12.5,3.2c-0.8,0.2-1.7-0.3-2.5-0.5c0.5-0.7,0.8-2,1.5-2.2c6.3-1.7,12.5-3.8,19-4.7
		c4.7-0.5,8-2.3,11-5.7C34,90.1,36,87.8,38.1,85.3z M101,91.5c0.2-0.2,1.3-1,1.2-1.3c-0.8-1.8-1.8-3.5-3-5.3c-1,0.7-2.8,1.3-3,2.3
		C95.6,89.1,97.8,91.1,101,91.5z M92.6,94.6c-0.3,0.2-0.5,0.3-0.8,0.7c0.7,1,1,2.5,2,3c2.7,1.5,5.5,2.8,8.2,4.2
		c0.2-0.2,0.3-0.3,0.7-0.5c-0.5-0.7-0.8-1.8-1.5-1.8C97.6,99.5,95,97.6,92.6,94.6z M109.3,83.3c0-0.3,0.2-0.7,0.2-1
		c-2.3-0.5-4.5-1-7-1.5C103,83.6,104.6,84.1,109.3,83.3z M96.5,69.6c-1.3,0.8-2.5,1.7-3.8,2.5c0.8,0.5,1.5,1.3,2.3,1.5
		C97.3,73.9,97.1,72.1,96.5,69.6z"/>
	<path class="st0" d="M128.2,33.2c0.3,0.5,0.7,0.8,0.8,1.3c0.3,5.7,3.5,9.2,8.2,11.7c0.7,0.3,1.2,1.2,1.7,1.8
		c-0.8-0.2-1.8,0-2.5-0.3c-4.5-2-7.5-5.3-8.7-10.2c-0.3-1.3-0.3-2.7-0.5-4C127.5,33.4,127.8,33.4,128.2,33.2z"/>
	<path class="st0" d="M194.8,96.5c-0.2-0.2-0.8-0.7-1.5-1.2c0.5-0.5,0.8-1.2,1.5-1.7c1.3-1,2.7-2.2,4-3c0.5-0.3,1.3-0.5,2-0.7
		c0.2,0.7,0.7,1.5,0.5,2C200.9,94,197.4,96.5,194.8,96.5z"/>
</g>
</svg>
