<?xml version="1.0" encoding="utf-8"?>
<!-- Generator: Adobe Illustrator 21.1.0, SVG Export Plug-In . SVG Version: 6.00 Build 0)  -->
<svg version="1.1" id="Layer_1" xmlns="http://www.w3.org/2000/svg" xmlns:xlink="http://www.w3.org/1999/xlink" x="0px" y="0px"
	 width="200px" height="214.8px" viewBox="0 0 200 214.8" style="enable-background:new 0 0 200 214.8;" xml:space="preserve">
<style type="text/css">
	.st0{fill:#BDBDBD;}
</style>
<g id="cough-lady">
	<path class="st0" d="M199.6,160.1c-2.3-13.8-18.8-23-31.9-17.8c5.2-8.8,1.8-20.2-2.8-29.4c-4.7-9.2-10.5-18.5-10.3-28.7
		c0.2-10,0-19.8-0.7-29.9c-0.5-9.2-1.5-18.5-5.2-26.9c-6.5-15-21.5-25.9-37.7-27.4C94.7-1.3,78,6.7,68.7,19.9
		C60,32.7,58,48.9,56.5,64.2c-1.3,12.2-2.5,24.5-3.8,36.9c-1.3,13.7-6.2,26.9-13.8,38.2c-1.7,2.5-3.5,4.8-6,6.5
		c-5.5,3.8-13.2,3-19.3,5.8c-6.2,2.8-10.2,9.2-12,15.8S0,181.1,0.1,188c0.3,8.7,0.5,17.5,0.8,26.2h3.3c0-8.3-1.3-16.7-2-24.9
		S2,172.5,5.5,165s10.5-13.8,18.8-14.3c8.3-0.7,17,6,16.8,14.3c-0.2,16.5-0.3,32.9-0.5,49.2c7,0.2,14,0.5,21,0.7
		c7.3,0.2,12-7.3,14.2-14.2c3.2-10.3,3.8-21.3,1.7-32c0.7,0.3,1.2,0.7,1.5,1.2c0.3,0.5,0.7,0.8,1.2,1.2c1,1.3,1.8,3,2.8,4.5
		c1.7,2.3,5.5,4.2,7.5,2c9.5-9.8,19-19.5,28.5-29.4c1.5,1.7,3.5,2.7,5.7,3.2c-6.2,7.7-12.3,15.5-18.5,23.2
		c8.3-6,15.2-13.8,20.3-22.7c1.8-0.5,3.5,1.5,3.5,3.3c0.2,2-1,3.7-2,5.2c-4.2,6.2-8.2,12.3-12.2,18.5c6.3-5.7,11.7-12.7,15.5-20.3
		c3,6.2-1,13.3-4.8,19l-7.5,11c4.8-3.8,9-8.7,12.2-14c0.7,1.3,1.3,2.5,2.3,3.5c-8.3,14.5-17.8,30-33.5,36.2
		c13.2,0.3,26.2,0.3,39.2,0c1.2-18.3-0.5-36.7-5-54.5c2.8,3.8,7.5,8,11.8,6c-4.8-1.8-10.5-4.7-11-9.8c-0.2-1.7,0.3-3.3,0.5-5
		c1.3-9.8-5.3-18.7-11.7-26.2c0.3-1.5,2.5-2.2,4-1.7c1.5,0.7,2.7,1.8,3.7,3.2c5,6,10.2,12.2,15.2,18.3c-4.7-10.5-9.5-21-14.7-31.5
		c2.5-0.5,4.7-1.7,6.3-3.5c4.8,9.7,10.2,19,16.3,27.9c-4.3-10.3-8.7-20.7-13-31c2.5,0,5-1.8,6-4.2c5,10.2,10.2,20.3,15.3,30.5
		c-2.8-10.3-7-20.3-12.5-29.7c2-0.8,4-2.2,5.5-3.7c4.7,7.7,8.2,15.8,10.8,24.4c1.3,4,2.3,8.5,1.2,12.5c-1.7,5.7-7,9.3-11.8,12.5
		c2.7-1,5.3-1.8,8-2.7c-6,10-3.5,22.7-0.8,34c2.5,10.2,4.8,20.3,7.3,30.5c0.5,2.5,3.3,5.5,4.8,3.5c-2.7-9.7-5.5-19.2-8.2-28.9
		c-2.7-9.2-5.2-18.7-4.5-28.2c0.3-5.7,3-12.2,8.5-13.5c9.8-2.3,20.8,3.7,24.4,13.2c2.3,6.5,1.3,13.8,0.3,20.7
		c-1.7,10.8-3.3,21.8-5,32.9c-0.2,1.8,0.5,4.7,2.3,4.2c1.8-13,3.8-26.2,5.7-39.4C199.8,170,200.4,165,199.6,160.1z M113.5,7.7
		c2.7,2.2,5.5,4.5,8.2,6.7c1.7,1.3,3.5,3,4.3,4.7c0.7,2.2-0.8,5-3.2,4.8c-0.2,0-0.5,0-0.7,0c2.3-3.3-1.7-7.2-5.2-9.7
		c-4.5-3.3-6.2-7.3-8.8-10C110.2,5,111.9,6.4,113.5,7.7z M126.1,148.3c-0.2,0.5-0.8,0.7-1.5,0.7c-1,0.2-2.2,0-3.2-0.5
		c-0.2-1,0.7-2.2,1.7-2.5c1-0.3,2.3,0.2,2.8,1.2C126.1,147.5,126.2,148,126.1,148.3z M135.2,172.1c0.2,0.3,0.2,0.5,0.3,0.8
		c0.3,1,0.5,2.5-0.5,2.8c-0.8,0.3-1.7-0.5-2.2-1.2c-0.3-0.5-0.7-1-0.7-1.5c0-0.8,0.5-1.5,1.2-1.7
		C134.1,171.3,134.9,171.6,135.2,172.1z M133.9,149.5c0.2,0.7,0,1.5-0.3,2.2c-0.3,0.5-0.7,1-1.2,1.3c-0.8,0.3-1.8,0-2.5-0.5
		c-0.8-0.5-1.2-1.3-1.5-2.2c1.3-0.7,2.5-2.7,4-2.3C133.1,148,133.7,148.8,133.9,149.5z M129.7,137.6c1.7,1.7,2.5,4,3.3,6.2
		c0.2,0.3,0.3,0.8,0.2,1.3c-0.2,0.7-0.8,0.8-1.3,1c-1.3,0.5-2.7,0.8-4,1.3c0.2-2.2-2.2-3.8-4.3-3.8c-2.2,0-4,1.3-5.7,2.7
		c-8.2,7-13.7,17-22.2,23.7c-0.7,0.5-1.3,1-2.2,0.8c0.7-9.5,0-19.8-5.3-27.9c-0.3-0.5-0.7-1-0.8-1.3c-1.8-4.5-3.2-9.2-3.7-13.8
		c0-4,0.8-8,2.7-11.7c0.7-0.3,1.5,0.3,2,0.8c4.7,4.8,8.8,10.3,14.7,14c6,3.8,13.5,5.3,20.5,4C125.9,134.6,128.2,135.8,129.7,137.6z
		 M124.7,130.3c0.2,1.2-0.2,2.5-1.2,3c-0.5,0.3-1.2,0.3-1.8,0.3c-4,0.2-8.2,0.3-12-0.8c-6.2-1.8-10.8-6.5-15.3-11
		c-2.3-2.5-4.8-5-7.3-7.5c-1-1-2.2-2.2-2-3.7c0.8-10,1.2-19.8,1.3-29.9c0.2-1.7,0.2-3.3,0-5.2c0-4-0.2-7.8-0.3-11.8
		c0-0.3,0-0.5,0-0.8c0.2-2,0.2-3.8,0.2-5.8c0.2-1.7,0.7-3.2,1.3-4.7c0.8-1.5,2.2-2.8,3.3-4.2c4-4.3,8.2-8.8,12.2-13.2
		c1.7-1.8,3.3-3.7,5.5-4.8c5-2.8,11.3-1.7,16.3-4.2c1.7-0.7,4-1.7,4.8-0.2c2.8,4.5,9.3,4.8,13.7,7.8c4,2.7,5.8,7.3,6.7,12
		s0.7,9.3,1.2,14c0.2,1.8,0.5,3.7,0.8,5.5c1.2,7.5,1,15,0.8,22.5c0,1.2-0.5,2.7-1.7,2.5c-3.3-0.7-6.7,0.3-9.2,2.5
		c-1,1-1.7,2-2.8,2.7c-1.2,0.7-2.7,0.8-3.7,0c3.2-0.8,4.7-4.3,4.3-7.5c-0.2-3-2-5.8-3.3-8.7c-1.3-2.8-2.7-5.8-2.5-9
		c0-3.2,1.7-6.3,4.5-7.7c3.3-1.5,7.3-0.3,10.2-2.3c-1-2.3-4.5-2.2-7-1.7c-2.5,0.7-5.2,1.3-7,3.2c-1.7,1.8-2.2,4.3-2.2,6.8
		c0,3.2,0.5,6.3,1.7,9.3c1.3,3,3.2,5.8,3.7,9.2c0.7,3.2-0.7,7.2-3.8,8.2c-1.8,0.5-3.7,0.2-5.5,0c-1.8-0.2-4,0.5-4.7,2.2
		c-0.2,0.7-0.2,1.3-0.3,2c-0.8,4.2-5.3,6.5-10,8.3c2,3,5,5.2,8.5,6.2c0.2,1.2-1,2-1.7,3c-1.2,1.5-1.2,3.7-0.5,5.5
		c0.7,1.8,2,3.3,3.2,4.8C123.7,128.3,124.4,129.1,124.7,130.3z M122.9,111.3c-0.8,0.2-1.5,0-2.2-0.3c-1.5-0.8-3-1.8-4.3-3
		c1.3,0,2.8-0.3,4.3,0.2C122.1,108.4,123.2,109.9,122.9,111.3z M125.2,121.8c-0.5,0.5-1.5,0.8-1.5,1.5c-0.8-0.8-1.5-2-1.8-3.2v-0.7
		c0-0.2,0-0.3,0.2-0.5c0.7-1,2.3-1.3,3.2-0.3C126.1,119.4,126.1,120.9,125.2,121.8z M135.7,109.9c-0.5,0.5-1.2,1.2-2,1.3
		c-0.8,0.2-1.8,0-2.3-0.5c-0.5-0.5-0.5-1.2-0.7-1.8c-0.2-1-0.2-1.8,0-2.7c0.2-0.8,0.7-1.7,1.5-2s1.7-0.2,2.5,0.7
		c0.7,0.5,1.2,1.2,1.7,1.8c0.2,0.3,0.5,0.7,0.5,1C137.1,108.6,136.4,109.4,135.7,109.9z M143.6,114.9c-2-0.8-3.3-2.7-4.2-4.7
		s-1.5-4-2.8-5.7c-1.3-1.7-3.7-2.7-5.5-1.8c-2,0.8-2.7,3.5-2.3,5.8c0.3,2.5,1.3,4.8,2.5,7.2c2.7,5.7,5.3,11.2,8,16.8
		c-1.5-1-2.7-2.3-3.7-3.7c-3-3.8-5.8-7.5-8.8-11.2c-0.8-1-1.7-2.2-2.2-3.5c-0.3-1.3-0.3-2.5-0.3-3.8c0.2-3.8,0.5-7.7,1-11.3
		c0-0.3,0.2-0.8,0.3-1.2c0.5-0.8,1.7-0.8,2.5-0.8c3.7,0.2,7.2,0.2,10.7,0.7c-1.5,2-0.5,4.8,0.5,7.2
		C140.7,108.3,142.1,111.6,143.6,114.9z M144.9,103.1c-0.8,1.2-2.3,1.8-3.8,1.5c-0.2-0.7-0.5-1.3-0.8-2c-0.2-0.7-0.5-1.2-0.5-1.8
		c-0.2-1,0.3-2,1.2-2.5c0.8-0.5,2-0.7,2.8-0.3c0.7,0.2,1.2,0.7,1.3,1.3C145.9,100.4,145.7,101.9,144.9,103.1z M147.9,98.2
		c0.3,1,0.8,2,0.5,3c-1.3-1.5-2.5-3.2-3.3-5h-4.5c2-2.5,5-4.2,8.2-4.7c1.5-0.3,3-0.2,4,0.7c-0.2,0.2-0.2,0.3-0.3,0.5
		c-1.3,0-2.7,0.7-3.7,1.7C147.9,95.4,147.6,96.9,147.9,98.2z M152.2,100.1c-0.5,0.2-0.8,0.3-1.3,0.2s-0.8-0.5-1-1
		c-0.5-0.8-0.5-1.8-0.2-2.8c0.2-0.8,1-1.7,2-1.7c1.5,0,2.5,1.3,3.3,2.5C154.6,98.6,153.6,99.6,152.2,100.1z"/>
	<path class="st0" d="M127.2,91.7c1-1.2,2.8-1,4.2-0.5c0.5,0.2,1.2,0.5,1.2,1c-1.2,0.5-2.3,1-3.7,1c-0.5,0-1,0-1.5-0.3
		C127.1,92.7,126.9,92.1,127.2,91.7"/>
	<path class="st0" d="M100.5,62.1c2.7-2.7,6.5-3.8,10.3-4c1.3-0.2,2.7,0,4,0.3c1.3,0.3,2.7,1.2,3.8,1.8c0.8,0.5,1.7,1,2.2,1.7
		c0.7,0.7,1,1.7,0.8,2.5c-1.5,0.5-2.8-0.7-4.2-1.5c-0.7-0.3-1.5-0.5-2.3-0.7c-4.5-0.8-9.3-0.2-13.3,2c-0.5,0.3-1.2-0.2-1.3-0.7
		C100.2,63.2,100.4,62.6,100.5,62.1"/>
	<path class="st0" d="M135.7,66.6c1.3,0.2,2.5-0.8,3.7-1.3c1.7-0.8,3.5-1,5.3-1c1.3,0,2.8,0.2,4,0.8c1.2,0.7,2,2,1.8,3.3
		c-0.2,1.5-1.7,2.7-3.2,3.2c-3.3,1.3-7.3,0.7-10.2-1.3c-0.5-0.3-0.8-0.7-1-1.2C136.1,68.4,135.9,67.6,135.7,66.6 M148.2,68.9
		c-0.8-1.3-2.2-2.3-3.7-3c0,1-0.2,2-0.5,2.8c-0.5,0.8-1.5,1.5-2.3,1.3c0.5,1,2,0.8,3.2,0.7C146.2,70.4,147.6,70.1,148.2,68.9"/>
	<path class="st0" d="M113.4,74.4c-1.5,0.2-3,0.3-4.3-0.2c-1.2-0.3-2.2-1-3.2-1.7c-1.7-1-3.5-2.2-4.7-4c1.8-0.2,3.3-1.5,5-2.5
		c2.3-1.3,5-1.8,7.5-1.5c2.5,0.5,5,1.8,6.5,4c0.5,0.7,0.8,1.7,0.3,2.2C118.7,72.9,116.1,74.1,113.4,74.4 M109.2,71.7
		c-0.3,0.7,0.7,1,1.5,1c2.2-0.2,4.5-0.7,6.5-1.5c0.7-0.3,1.5-1,1.2-1.7c-0.7-0.8-1.3-1.5-2.3-1.8c-1-0.3-2.2,0-2.5,1
		C113,70.4,111.2,71.7,109.2,71.7"/>
</g>
</svg>
