<?xml version="1.0" encoding="utf-8"?>
<!-- Generator: Adobe Illustrator 21.1.0, SVG Export Plug-In . SVG Version: 6.00 Build 0)  -->
<svg version="1.1" id="Layer_1" xmlns="http://www.w3.org/2000/svg" xmlns:xlink="http://www.w3.org/1999/xlink" x="0px" y="0px"
	 width="150px" height="128.7px" viewBox="0 0 150 128.7" style="enable-background:new 0 0 150 128.7;" xml:space="preserve">
<style type="text/css">
	.st0{fill:#BDBDBD;}
</style>
<g id="fever-lady">
	<path class="st0" d="M149,87.3c-2.1-7.2-8.1-13.5-15.6-14.7c1.8-1.7,0.5-4.7-1.1-6.6c-6.5-8.6-13.7-17.4-15.3-27.8
		c-0.3-0.9-0.5-2-0.5-3c-0.2-0.3-0.3-0.8-0.3-1.1c-0.6-2.1-0.8-4.2-1.2-6.3c-0.6-1.4-1.2-2.7-2-3.9c-1.5-1.4-2.6-3.2-3.6-5.1
		c-0.9-1.8-2.3-3.6-2.7-5.7c-1.4-2-2.7-3.8-4.4-5.4c-4.5-4.7-10.7-8-17.1-7.8c-2.3,0-4.4,0.6-6.5,1.4c-1.8,0.5-3.5,1.2-4.8,2.6
		c-3,2-5.7,4.5-8,7.1c-5,5.9-8.6,12.6-13.7,18.3c-14.7,17.1-40.2,23.3-51,42.9c-1.1,1.8-2,4.1-1.2,6c0.6,1.4,1.8,2.4,3,3.2
		c7.1,4.7,15.8,6.2,24.2,6.8c8.4,0.6,17,0.3,25.4,2c1.8,0.3,4.1,1.4,4.1,3.2c0.5,11.4,1.8,23,3.8,34.2c0.5-5.7-0.3-11.3-0.9-17
		c-0.8-6-1.4-12-2.1-18.2c-0.2-0.6-0.2-1.2-0.5-1.8c-0.5-0.8-1.4-1.1-2.3-1.4c-8.6-2.1-17.6-1.8-26.4-2.3c-8.9-0.5-18-2.1-25.1-7.4
		c-0.8-0.5-1.4-1.1-1.8-2c-0.8-1.7,0.3-3.6,1.2-5.3c3.6-5.6,8-10.7,12.8-15.3c-1.2,2.1-2.1,4.4-2.4,6.8c4.7,2.6,9.6,4.4,14.7,5.3
		c-0.2,2.9-0.3,5.6-0.5,8.4c2-2.7,2.4-6.5,1.1-9.5c7.8-1.1,15.8-1.4,23.6-0.8c4.7,0.3,9.6,1.1,14-0.8c3.3-1.4,6.2-3.9,9.5-5.1
		c3.5-1.2,8.1-0.5,9.2,3c1.5,3.8-0.8,7.8-3.5,10.8s-6,5.7-7.1,9.6c6.2-6.5,12.5-13.1,18.6-19.5c2.1-2.3,4.5-4.7,7.5-5.3
		c3-0.8,6.9,1.2,6.9,4.4c-2.7-2.3-6.8-2.7-9.8-1.1c0,1.2,0.8,2.6,1.8,3.2c-1.4-0.5-2.7,0.3-3.5,1.5s-0.9,2.6-1.1,3.9
		c-0.2,1.2-0.3,2.4-0.3,3.6c-1.1-1.1-3,0.6-2.7,2.1c0.2,1.5,1.4,2.7,1.8,4.2c0.5,1.5-0.3,3.6-1.8,3.3c-5.7-1.2-11.7-0.9-17.3,0.8
		c2.1,1.2,4.8,0.2,7.2-0.3c2.4-0.5,5.9,0.9,5.4,3.3c-0.5,3.3-0.9,6.8,0.3,9.8s4.8,5.4,7.8,4.2c0.9,7.4,1.7,14.9,2.6,22.2
		c0.2,1.7,1.2,3.8,2.7,3.2c-0.6-1.1-1.2-2.3-1.8-3.3c2.6,0.9,5.4,0.2,7.7-1.4s3.9-3.8,5.6-5.9c-0.5,0.9,0.8,2,1.8,1.8
		c1.1-0.2,1.8-1.1,2.4-2c5.6-7.1,11.1-14.1,15.3-22.1c-6.5,7.4-12.5,15.2-18,23.3c-0.8-2.7-1.7-5.6-2.4-8.4
		c-2-6.6-3.8-13.4-3.3-20.3c0.5-6.3,3.2-12.6,8.3-16.1c0.6,0,1.2-0.2,1.8-0.2c0.2,0.6,0.3,1.2,0.5,1.8c1.8,0.9,3.9-1.1,3.9-2.9
		c0.3,0,0.6-0.2,1.1-0.2c0.2,1.2,0.6,2.3,1.1,3.3c1.2-0.5,1.8-2,1.5-3.2c0.6,0.9,1.2,2,1.7,3c0.2-0.9,0.2-2,0-2.9
		c0.6,0,1.2,0.2,1.7,0.3c0.8,0.3,1.4,0.6,2.3,0.8c7.7,0.3,14.4,6.6,16.5,14c2.1,7.4,0.5,15.5-3.2,22.4s-8.7,12.6-14,18.3
		c1.1,0.3,2-0.5,2.7-1.2c5.3-5.4,10.1-11.3,13.2-18.2C149.9,102.5,151.1,94.5,149,87.3z M16.3,63.8c-0.6-0.3-1.2-0.6-2-0.6
		c0.6-1.8,1.2-3.6,2.1-5.4c0,0.2,0.3,0.5,0.5,0.3c-0.3,0.8,0.2,1.7,0.5,2.4c0.5,0.9,0.9,1.8,1.4,2.7c0.2,0.3,0.3,0.6,0.5,0.9
		c0.5,0.5,0.9,0.9,0.9,1.5C19,65,17.8,64.4,16.3,63.8z M28.8,66.5c-1.2,1.2-3.2,1.5-4.7,0.9c-2-0.8-3-2.7-3.9-4.5
		c-1.2-2.3-2.3-4.5-3.5-6.8c3-0.3,5.7-2.1,8.3-3.9c6.5-4.5,12.9-9.2,19.4-13.7c2.1-1.5,4.2-3,6-4.7c7.5-6.9,11.4-16.8,18.9-23.7
		c0.3-0.3,0.6-0.5,0.9-0.3c0.8,2.7-2.4,4.8-3.2,7.5c4.7-2.6,9.9-3.8,15-3.5c0.5,0.2,0.9,0.3,1.4,0.6c0.5,0.9-0.9,1.7-1.7,1.8
		c-4.4,1.1-8.7,1.8-12.8,3.8c-0.3,0.2-0.8,0.6-0.5,0.9c5.3-1.4,10.7-2.9,15.9-4.2c0.9-0.3,2.3-0.5,2.7,0.5c0.5,0.8-0.2,1.7-0.8,2
		c-0.8,0.5-1.5,0.5-2.4,0.6c-2,0.2-3.9,0.9-5.7,1.5c-3.2,1.1-6.5,2.1-9.6,3.2c-0.8,0.3-1.7,0.6-1.8,1.5c4.4-1.1,8.7-2.3,12.9-3.9
		c2-0.8,4.2-1.5,6-0.6c-1.7,1.8-3.6,3.3-5.9,4.2c0-0.8-0.8-1.5-1.5-1.5c-0.8,0-1.4,0.3-2,0.8c-3.2,2.1-6.8,3.8-10.4,4.8
		c0.2,0.8,1.2,0.8,2,0.6c3.8-1.1,7.2-2.9,10.4-5.1c0.8,0.8-0.2,2-0.9,2.7c-1.8,1.7-3.6,3.5-5.9,4.7c-1.5,0.9-3.3,1.5-4.7,2.6
		c-1.4,1.2-2.4,2.7-3.6,4.1c-2.3,2.4-5.3,3.8-8.1,5.3c-6.2,3.5-11.4,8.1-16.7,12.8c-2,1.7-3.9,3.5-5.9,5.1c-1.1,0.9-2.1,1.8-2.9,2.9
		C29.7,65.6,29.2,66,28.8,66.5z M69.1,63.8c-2.7,1.8-5.9,3.3-9.2,3c-1.4-0.2-2.9-0.6-4.2-0.8c-1.8-0.3-3.6-0.3-5.6-0.2
		c-6.6,0.2-13.1,0.3-19.7,0.5c5.9-5.4,11.9-10.7,18-15.6c2.1-1.8,4.4-3.5,6.8-4.8c3.9-2.3,8.7-3.9,10.5-8c2.4,7.1,5.9,14,10.1,20.1
		c0.5,0.6,0.9,1.2,1.7,1.2C74.7,60,72,62,69.1,63.8z M89.2,67.4c-1.1,0.9-2.1,2-3.2,2.9c0.2-0.8,0.2-1.7,0.3-2.4
		c0.2-1.2,0.3-2.4,0.6-3.6c1.5,0.2,2.9,0.5,4.4,0.8C90.7,66,90,66.6,89.2,67.4z M100.6,58.5c-2.3,0.9-4.4,2.3-6.2,3.9
		c-0.5,0.5-0.9,1.1-1.5,1.2c-0.8,0.3-1.7,0.2-2.4,0c-3.3-0.8-6.8-1.5-9.6-3.5c-2.3-1.5-4.1-3.8-5.6-6.2c-3.2-4.7-5.7-9.8-7.7-15.2
		c-0.5-1.2-0.6-2.7,0.6-3.2c2-0.8,3.9-1.5,5.7-2.1c0.3-0.2,0.8-0.3,0.9-0.6c0.2-0.3,0.2-0.6,0.3-0.9c0.2-0.5,0.6-0.9,0.9-1.4
		c2-2.1,4.2-3.9,6.6-5.3c1.1-0.6,2.1-1.1,2.9-2c0.8-0.8,1.4-2,1.1-3.2c1.2-0.6,1.8-2.3,1.4-3.5c0.2,0,0.3,0.2,0.5,0.2
		c1.7,0.8,3.2,1.4,4.8,2.1c2.3,1.1,4.7,2,6.5,3.6c1.2,1.1,2.3,2.4,3.2,3.6c1.1,1.4,2.3,2.9,2.9,4.7c0.5,1.4,0.6,2.9,1.7,3.8
		c-0.2-1.5-0.3-3-0.6-4.7c0-0.6,0-1.4,0.5-1.5c1.5-0.6,1.2-3.3,2.9-3.8c1.2-0.3,2.1,0.9,2.6,2c2.3,4.5,1.1,9.8-2.4,12.9
		c-0.6,0.6-1.5,1.2-1.5,2.1c-0.3,3.2-1.2,6.3-2.7,9.3c-0.9,1.7-1.8,3.2-2.9,4.8c-0.3,0.5-0.6,0.9-0.9,1.2
		C101.9,57.8,101.4,58.2,100.6,58.5z M94.5,101.4c-1.7,0.3-3.5,0-4.8-0.9c-0.5-0.3-0.9-0.6-1.1-0.9c-0.2-0.5-0.3-0.9-0.3-1.4
		c-0.2-3-0.3-6.2-0.5-9.2c0-1.1-0.2-2.1,0-3.2c1.8,0.2,3.6,0.3,5.4,0.2c0.5,0.9,0.5,1.8,0.5,2.9c0,3.8,0.2,7.5,0.6,11.4
		C94.3,100.7,94.3,101,94.5,101.4C94.6,101.3,94.5,101.3,94.5,101.4z M111.2,76.2c-0.8,1.8-1.7,3.6-2.4,5.4
		c-1.2,2.7-2.4,5.4-2.7,8.3c-0.3,2.9,0.3,5.6,0.9,8.4c1.2,5.7,2.6,11.4,4.1,17.1c0.3,1.1-0.6,2.1-1.5,3c-1.2,1.1-2.3,2.1-3.5,3.2
		c-1.1,1.1-2.3,2.1-3.8,2.4s-3.3-0.5-3.5-2c-0.5-3.6-1.1-7.2-1.5-11c-0.3-2.1-0.6-4.2-0.9-6.2c-0.9-6.8-1.8-13.5-1.7-20.3
		c0-2.1,0-4.7-1.7-6c-0.8-0.6,0-2.1,1.1-2.1s1.8,0.8,2.6,1.5c0.8,0.8,1.4,1.7,2.4,1.8c0.3,0.2,0.9,0,0.9-0.5c0-0.2,0-0.3-0.2-0.3
		c-0.5-0.9-1.4-1.5-2.3-2.1c-0.8-0.6-1.7-1.4-2-2.3s0-2.3,1.1-2.6c1.1-0.3,2.1,0.6,3,1.5c1.4,1.4,2.9,2.4,4.5,3
		c0.3-0.9-0.5-1.8-1.4-2.3c-0.8-0.5-1.7-1.4-1.5-2.3c0.3-1.1-1.2-1.7-2.3-1.5c-1.1,0-2.6-0.2-2.7-1.2C96.3,68.3,97.9,68,99,68
		c2,0,4.1,0.2,5.4,1.4c0.9,0.9,1.5,2.1,2.1,3.2c0.6,1.1,1.5,2.3,2.9,2.4c-0.9-2.4-2.1-4.7-3.9-6.6c-0.6-0.8-1.4-1.4-2.4-1.8
		c-0.9-0.3-1.8-0.3-2.7-0.6c-0.9-0.3-1.8-1.1-1.7-2c3.3-0.2,6.9-0.2,9.3,2.1c2.4,2.1,2.9,5.6,3.3,8.6
		C111.3,75.2,111.5,75.6,111.2,76.2z"/>
	<path class="st0" d="M81.6,46.2c1.1,0.2,2.3,0,3.3-0.3c0.8-0.3,1.7-0.6,1.8-1.5c0.2,0,0.5,0,0.6,0c0.5,0.5,0.5,1.2,0,1.7
		s-1.1,0.8-1.7,0.9c-1.4,0.5-3,0.9-4.1,0C81.6,46.8,81.6,46.5,81.6,46.2"/>
	<path class="st0" d="M112.1,32.7c-0.3,0.9-0.3,2-0.8,2.9c-0.5,0.9-1.7,1.5-2.4,0.9c0-0.5,0.2-0.8,0.3-1.2c0.3-0.5,0.8-0.9,0.9-1.4
		c0.2-0.5-0.2-1.2-0.6-1.2c-0.5,0-0.9-0.6-0.8-1.1c0.2-0.5,0.6-0.8,1.1-0.9c0.5-0.2,0.9,0,1.5,0.2C111.5,31.5,112.2,32,112.1,32.7"
		/>
	<path class="st0" d="M82.8,29c0-0.3-0.3-0.6-0.6-0.6c0-0.5,0.3-0.8,0.6-1.1c0.6-0.6,1.5-0.9,2.3-1.2c2.4-0.9,5-1.8,7.4-1.1
		c0.2,0.5-0.3,0.9-0.8,1.1c-0.5,0.2-0.9,0-1.5,0c-1.1,0-2,0.6-3,1.1C85.8,28.1,84.3,28.7,82.8,29"/>
	<path class="st0" d="M115.4,120c0.6,1.7,2.3,2.7,3.8,3.6c0.8,0.5,1.4,0.9,2.1,1.4c1.1,0.8,2.1,1.4,3.2,2.1
		c-0.3,0.5-0.9,0.5-1.5,0.3c-0.5-0.2-0.9-0.5-1.4-0.6c-1.4-0.9-2.9-1.8-4.2-2.7c-0.8-0.5-1.5-0.9-2-1.7c-0.6-0.6-0.9-1.5-0.8-2.4
		C114.9,120,115.1,120,115.4,120"/>
	<path class="st0" d="M70.3,38.4c0.2,0,0.3-0.2,0.5-0.2c0.3-0.8,0.8-1.5,1.4-1.8c0-0.2,0.2-0.3,0.2-0.5c1.2-0.3,2.4-0.5,3.6-0.3
		c0.5,0,1.1,0.2,1.4,0.5c0.3,0.3,0.6,0.9,0.3,1.4c-0.2,0.3-0.5,0.5-0.8,0.6c-1.1,0.5-2.1,0.9-3.2,1.2c-1.1,0.3-1.8,1.1-2.1,2
		c-0.2,0.3-0.5,0.3-0.8,0.3c-0.5-0.8-0.8-1.5-0.9-2.3C70.3,39.2,70.5,38.7,70.3,38.4 M72.9,37.1c0.3,0.3,0.5,0.6,0.6,0.9
		c0.6,0.2,1.2-0.2,1.7-0.3c0.5-0.3,1.1-0.5,1.5-0.8c-0.5-0.2-0.9-0.2-1.4-0.2C74.5,36.8,73.8,36.9,72.9,37.1"/>
	<path class="st0" d="M55.5,84.6c-0.5-2.1-1.1-4.1-2-6c-0.5-0.9-0.9-2-1.2-2.9c-0.2-0.6-0.2-1.4,0.5-1.5c2.4,4.1,3.9,8.6,4.5,13.2
		c0,0.5,0.2,0.9-0.2,1.2c-0.3,0.3-0.9,0.3-1.1-0.2C56.1,87.3,55.8,86,55.5,84.6"/>
	<path class="st0" d="M93.1,29.3c0.6,0.3,1.1,0.5,1.7,0.9c0.3,0.2,0.5,0.3,0.5,0.6c0,0.3-0.3,0.5-0.6,0.6c-2,0.9-4.1,1.7-5.9,2.9
		c-1.1,0.6-2.4,1.2-3.3,0.5c-0.6-0.6-0.8-1.7-0.3-2.4c0.5-0.8,1.2-1.4,2-1.8c0.9-0.6,2-0.9,3.2-1.2C91.2,29,92.2,29,93.1,29.3
		 M93.1,30.5c-1.4-0.3-2.9-0.2-4.2,0.6c-0.2,0.2,0,0.6,0.2,0.8c0.2,0.3,0,0.8-0.3,0.6c0.3,0.2,0.8-0.2,1.1-0.3
		c0.9-0.6,2-1.1,3.2-1.2C93.1,30.8,93.1,30.6,93.1,30.5 M87.1,33.5c-0.2-0.3-0.3-0.6-0.3-0.9c-0.3-0.2-0.6,0-0.8,0.2
		c0,0.3,0,0.6,0,0.8c0.3,0.2,0.6,0.3,0.9,0.5c0.3-0.2,0.6-0.3,0.9-0.6C87.6,33.5,87.3,33.5,87.1,33.5"/>
	<path class="st0" d="M91.6,50.6c-1.4-0.2-2.7-0.6-4.2-0.6h-0.2c-0.9,0.3-1.8,0.8-2.7,1.4l-0.2,0.2c-0.8,0.8-1.5,1.8-2.1,2.7
		c0,0.3,0.2,0.5,0.3,0.8c0.3,0,0.6,0.2,0.9,0.2c0.2,0,0.2,0,0.3,0c1.2,0.3,2.4,0.5,3.6,0.3l0,0c0.2,0,0.3,0,0.3,0
		c0.6,0,1.2-0.2,1.8-0.3l0,0c0.6-0.2,1.1-0.5,1.5-0.8c0.9-0.8,1.5-2,2.4-2.6c0.3-0.3,0.8-0.6,0.9-0.9C93.6,50.9,92.5,50.7,91.6,50.6
		z M85.2,53.7c-0.5,0.3-1.1,0.6-1.5,0.3c1.2-2,3.6-3.2,6-3c0.5,0,0.8,0.2,1.2,0.3c-0.2,0.2-0.2,0.3-0.3,0.5
		c-1.2,0.2-2.3,0.3-3.3,0.6c-0.3,0.2-0.6,0.2-0.9,0.3C85.9,53,85.6,53.4,85.2,53.7z M90.1,53.4c-1.2,0.9-2.7,1.2-4.2,1.1
		c0.6-0.8,1.5-1.1,2.3-1.4c0.9-0.3,2-0.8,3-0.8C90.9,52.8,90.6,53.1,90.1,53.4z"/>
</g>
</svg>
