<?xml version="1.0" encoding="utf-8"?>
<!-- Generator: Adobe Illustrator 21.1.0, SVG Export Plug-In . SVG Version: 6.00 Build 0)  -->
<svg version="1.1" id="Layer_1" xmlns="http://www.w3.org/2000/svg" xmlns:xlink="http://www.w3.org/1999/xlink" x="0px" y="0px"
	 viewBox="0 0 100 88.5" style="enable-background:new 0 0 100 88.5;" xml:space="preserve">
<style type="text/css">
	.st0{fill:#BDBDBD;}
</style>
<g id="flu-lady-landing">
	<path class="st0" d="M87.9,54.1c-0.7-0.7-1.5-1.5-2.2-2.2c-0.1-0.6-0.4-1.2-1.2-1.3c-0.1,0-0.2,0-0.3-0.1c-2.8-2.8-5.4-5.7-6-9.5
		c-0.6-3.7,0.8-7.3,1.1-11c0.2-4-0.8-8-2.3-11.7c-2.2-5.7-5.5-11.2-10.5-14.8C63,0.9,58.4-0.4,54.1,0.1c-2.5,0.1-4.9,0.8-6.5,2.2
		c-0.5,0.4-0.8,0.8-1.1,1.3c-4.5,3.9-7.6,10-13.2,12c-0.9,0.3-1.2,1.6-1.2,2.6c-0.8,7.2-5.1,13.5-10,18.8S11.5,46.9,6.9,52.5
		c-1.7,2.1-3.3,4.4-4.9,6.7c-1.2,2.1-2.2,4.3-1.8,6.7c0.5,2.8,3.3,4.8,6.2,5.2c2.8,0.5,5.7-0.2,8.6-1c7.9-2.1,15.9-4.2,23.8-6.2
		c2.2,7.7-4.2,16.5-0.7,23.7c0.3,0.6,1.3,1.2,1.6,0.6c-2.1-3.3-1.7-7.6-0.7-11.4c0.9-3.8,2.3-7.7,1.9-11.6c2,4.3,2.2,9.5,0.7,14
		c-0.5,1.3,0.9,2.8,2.3,2.7c1.4,0,2.6-1.2,3.2-2.5c2.5,3.8,5.5,8,10,9.1c-3.7-2.6-6.8-6.2-8.8-10.2c1.3,1.2,2.7,2.2,4,3.4
		c1.6-3-4.3-5.5-3.7-8.8c1.5,2,3.2,3.7,5.1,5.3c-1.7-2.5-3-5.3-3.8-8.2l0.1-0.1c2.2,2.2,4.3,4.4,6.6,6.6c-1.3-2.2-2.7-4.6-4-6.8
		c-0.2-0.4-0.3-1.2,0.2-1.2c4.2,2.7,8.1,5.9,11.6,9.5c-0.8-2.7-2.2-5.2-3.9-7.3c3.4,1.2,6.2,4,7.3,7.4c0.7,2,0.8,4.2,1.4,6.2
		c0.7,2,2,4,4.1,4.4c-2.7-3.6-4.2-7.8-4.7-12.2c1.7,0.1,3.2-1.2,4.1-2.6c0.8-1.5,1.2-3.2,1.6-4.8c0.7-2.7,1.5-5.3,2.6-7.8
		c1-2.3,2.2-4.7,4.2-6.1c2.1-1.4,5.2-1.5,6.9,0.4c-2.3-1.2-5.2-0.1-7,1.8c-1.7,2-2.6,4.5-3.3,7c-0.6,1.8-1.1,3.6-1.7,5.4
		c-0.5,1.6-1,3.2-0.8,4.8s1.2,3.3,2.7,3.8c3.8,1.2,5.1,5.8,5.7,9.7c0.6,0.3,1.2,0.3,1.7,0c-2-4.6-3.2-9.4-3.6-14.4
		c-0.7,1.4-1,3.1-0.7,4.7c-2.2,0.5-4.2-1.6-4.7-3.7c-0.4-2.2,0.4-4.4,1.2-6.5c0.7-2,1.5-4,2.2-6c1-2.7,2.7-6,5.6-6.2
		c2.4-0.2,4.4,1.7,5.8,3.7c5.6,7.4,8.4,16.7,7.9,26c0,1,0,2.2,0.8,2.7C101.1,75.8,96.6,62.9,87.9,54.1z M67.6,24
		c0.2-0.2,0.7-0.4,1-0.2c0.3,0.1,0.4,0.5,0.5,0.8c0.3,1.7,0.5,3.6,0.5,5.4c0,0.2,0,0.4-0.1,0.7c-0.2,0.4-0.6,0.7-0.6,1.2v0.3
		c0,0.1-0.2,0.2-0.2,0.1c0-0.2-0.1-0.2-0.1-0.4c-0.2-0.5-0.3-1-0.5-1.5c-0.2-0.6-0.3-1.1-0.5-1.5c-0.4-1.1-0.8-2.1-1.4-3.1
		c-0.1-0.2-0.1-0.3-0.1-0.5C66.5,24.9,67,24.5,67.6,24z M49.3,13.9c-0.4-0.3-0.3-0.9-0.1-1.3c0.2-0.4,0.7-0.7,1.2-0.9
		c0.1,0,0.1,0,0.2-0.1c2.3,1.3,4.8,2.4,7.2,3.5c3,2,5.7,4.2,8.3,6.6c0.3,0.3,0.1,1-0.2,1.3c-0.3,0.3-0.6,0.6-0.6,1
		c-0.1-0.4-0.5-0.8-1-0.8c-0.6,0-1.1,0.2-1.6,0.6c-4.2,2.4-8.7,4.2-13.4,5.4c0.3-1.7,0.4-3.2,0.3-4.9c0-0.3-0.1-0.7-0.3-0.9
		c-0.3-0.2-0.8,0-0.8,0.2c0.3,1.7,0.3,3.6-0.1,5.3c0,0.2-0.2,0.3-0.5,0.3c-1.4,0.2-2.7,0.5-4.2,0.7c-0.5,0.1-1,0.2-1.4-0.1
		c-0.6-0.2-0.7-1.1-0.8-1.7c-0.2-1.8-0.5-3.6-0.8-5.5c-0.1-1.1-0.1-2.5,0.9-2.8c2.7-0.9,5.2-2.4,7.3-4.2
		C49.3,15.1,49.8,14.3,49.3,13.9z M45.5,46c-3.6-0.4-7.2,0.5-10.6,1.9s-6.5,3.2-9.8,4.8c-1.1,0.5-2.3,1-3.6,0.8
		c0.7-1.8,1.8-3.4,2.9-5.1c2.3-3.4,4.7-6.9,7-10.3c0.9-1.3,1.8-2.6,2.8-3.8c1.9-2.3,4.4-4.2,6.1-6.8c0.1,0.8,0.2,1.7,0.4,2.2
		C41.9,35.4,44.8,40.4,45.5,46z M40.2,63.2c-0.4-0.1-0.5-0.7-0.5-1.2c0.2-2.7-1.1-5.5-3.2-7.3c-0.4,0.9-0.1,2,0.4,2.8
		s1.2,1.6,1.4,2.6c0.3,1,0,2.2-0.9,2.6c-8.1,3-16.5,5.2-24.9,6.8c-2.2,0.4-4.5,0.8-6.7,0.3s-4.2-2.1-4.7-4.2
		c-0.3-1.8,0.5-3.7,1.5-5.3c3.4-5.7,8-10.4,12.6-15.2c3-3.2,6.1-6.3,9.2-9.5c1.2-1.2,2.2-2.3,3.2-3.7c2-2.7,3.2-6.1,4.3-9.3
		c0.5-1.3,0.9-2.7,0.9-4.2c0-0.3-0.1-0.7,0.1-1c0.2-0.2,0.4-0.5,0.7-0.7c3.9-3.1,8.2-5.7,12.6-7.9c-0.1,1.3-1.6,2.1-2.8,2.7
		c-2.2,1-4.4,2.4-6.2,4c0.2,0.3,0.7,0.2,1,0.1c3.4-1.7,6.8-3.6,10.2-5.3c0.1,0.1,0.2,0.1,0.3,0.2c0.3,0.5-0.3,1.3-0.9,1.7
		c-3.5,2.2-7.8,3.2-10.7,6.2c-0.3,0.3-0.6,0.7-0.6,1.2c0,0.4,0.6,0.8,0.9,0.6c0.7-1.6,2.3-2.6,3.9-3.3c2.4-1.1,4.8-1.9,7.4-2.6
		C46,18,40,18.4,37.6,22.4c-0.6,1-1.2,2.5-2.4,2.6c0.1,0.4,0.5,0.7,1,0.8c-0.2,0.5-0.4,1-0.4,1.6s0.4,1.2,0.9,1.2
		c0.2-2.5,1.2-4.9,2.8-6.7c0.6,1.8,0.4,3.9-0.5,5.6c-0.7,1.4-2,2.5-3.2,3.7c-2.7,2.7-4.7,5.7-6.9,8.8c-3.6,5.3-7.3,10.6-9.7,16.5
		c-1.3,3.3-2.7,7.2-5.9,8.9c-0.3,0.2-0.7,0.3-0.8,0.7c-0.2,0.3,0.1,0.8,0.4,0.7c2.8-1.2,5.2-3.7,6.1-6.6c0.6-1.7,0.8-3.7,2.3-4.7
		c0.5-0.3,1.2-0.5,1.7-0.7c3.7-1,7-3,10.4-4.7s7.1-3.1,10.9-2.8c1.1,0.1,1.7,1.4,1.6,2.5c-0.2,1.1-0.9,2-1.6,2.9
		C42,55.6,40.1,59.3,40.2,63.2z M48.6,75.9l1.2,1.2c0.2,0.2,0.6,0.6,0.8,0.9c0.3,0.5,0.6,1,0.7,1.5c-0.2,0-0.5-0.3-0.7-0.6
		c-0.7-0.9-1.7-1.6-2.7-2c0.1-0.2,0.2-0.3,0.2-0.5C48.2,76.3,48.4,76.1,48.6,75.9z M45.5,38.2c-2-1.7-2.5-4.6-2.9-7.2
		c7.5-0.6,14.8-3,21.2-6.9c0.9,1,1.4,2.2,1.8,3.4c0.5,1.2,1,2.4,1.5,3.7c0.4,0.9,0.7,1.8,0.7,2.8c-0.1,1.7-1.4,3.1-2.6,4.3
		c-2.1,2.2-4.2,4.3-6.7,6.2c-0.8,0.7-1.7,1.2-2.7,1.5c-1,0.2-2.2,0-2.9-0.7C50.7,42.8,48.2,40.4,45.5,38.2z M61.9,69.8
		c-0.6,0-1.2,0-1.7-0.2C60,69.4,60,69.1,60,68.9c0.2-0.7,0.7-1.2,1.3-1.2C61.8,68.3,62.1,69.1,61.9,69.8z M70.7,56.2
		c-0.7,1.4-1.5,2.9-2.3,4.3c-1,1.4-2.1,2.9-3.1,4.4c-0.3,0.6-0.7,1.2-0.7,1.8c0.1,0.7,1,1.1,1.4,0.7l0,0c-0.2,1.4-0.7,2.9-1.5,4.1
		c-0.7-0.1-1.2-0.8-1.3-1.6c-0.2-0.7-0.2-1.5-0.6-2.1c-0.5-0.7-1.6-0.9-2.3-0.6c-0.8,0.3-1.3,1.2-1.2,2.1c0.1,1.6,1.7,2.6,2.2,4.1
		c-1.3-1-2.6-2-3.9-3c-0.7-0.5-1.3-1.2-1-1.9c0.8-1.8,0.2-3.9-0.6-5.7c-0.7-1.8-1.5-3.9-0.7-5.7c0.7-1.7,0.9-3.4,0.7-5.2
		c1.2,1.4,2.1,3.1,2.5,4.9c0,0.3,0.5,0.3,0.7,0.1c0.2-0.2,0.2-0.5,0.1-0.8c-0.2-1.4-0.8-2.7-1.6-3.8c-0.5-0.5-0.9-0.9-1.2-1.5
		c-0.5-0.9-0.6-2-0.6-3c0-0.2,0.1-0.6,0.3-0.7c2.3-0.4,4.2-2.1,6-3.7c1.8-1.7,3.7-3.4,5.4-5.2c0.3-0.4,0.7-0.7,1-1.2
		c0.2-0.4,0.3-0.9,0.4-1.4c0.2-1,0.3-2,0.5-3c0.2-0.1,0.3-0.2,0.5-0.2c-0.5,2.9-0.7,5.7-0.7,8.7C69,42.5,69,44,69.2,45.5
		c0.2,2.1,1,4.1,1.4,6.2C70.8,53,71,54.6,70.7,56.2z"/>
	<path class="st0" d="M43.9,27.5c-0.4-0.1-0.8-0.2-1-0.6c-0.2-0.3,0.1-0.9,0.5-0.8s0.9,0.1,1.3-0.1c1-0.3,1.9-0.9,2.7-1.5
		c0.1-0.1,0.2,0.1,0.2,0.2c0.2,0.7-0.2,1.3-0.7,1.8C46.2,27.2,45,27.6,43.9,27.5"/>
	<path class="st0" d="M52.7,23.5c0.2-0.1,0.2-0.2,0.3-0.3c0.7,0.1,1.3,0.1,2,0.2c0.6,0.1,1.2,0.1,1.6-0.2c0.7-0.4,1.6-0.7,2.4-0.8
		c0.2,0.2,0.1,0.6-0.1,0.8s-0.4,0.4-0.7,0.6c-1.5,0.8-3.2,1.2-5,0.7c-0.2,0-0.3-0.1-0.4-0.2C52.6,24,52.5,23.7,52.7,23.5"/>
	<path class="st0" d="M43.9,21.9c0.2,0,0.4,0,0.6-0.1c0.9-0.3,2-0.2,2.9,0.2c0.1,0.1,0.2,0.1,0.2,0.2s0,0.2-0.1,0.2
		c-0.3,0.4-1,0.3-1.5,0.3c-1.4-0.1-2.7,0.5-3.7,1.4c-0.2,0.2-0.6,0.4-0.7,0.2c-0.1-0.5-0.1-1.1,0.2-1.6
		C42.3,22.2,43.1,21.9,43.9,21.9"/>
	<path class="st0" d="M58.2,18.2c0.1,0.3-0.2,0.7-0.4,0.9c-1.6,0.2-3.2,0.5-4.7,1.2c-0.6,0.2-1.3,0.4-2,0.4c-0.2,0-0.4,0-0.6-0.2
		s-0.2-0.4-0.2-0.6c0.6-0.7,1.4-0.9,2.2-1.2c0.6-0.2,1.2-0.3,1.8-0.5c0.5-0.2,1-0.2,1.6-0.3C56.7,17.9,57.4,18,58.2,18.2"/>
</g>
</svg>
