<?xml version="1.0" encoding="utf-8"?>
<!-- Generator: Adobe Illustrator 21.1.0, SVG Export Plug-In . SVG Version: 6.00 Build 0)  -->
<svg version="1.1" id="Layer_1" xmlns="http://www.w3.org/2000/svg" xmlns:xlink="http://www.w3.org/1999/xlink" x="0px" y="0px"
	 viewBox="0 0 150 144.9" style="enable-background:new 0 0 150 144.9;" xml:space="preserve">
<style type="text/css">
	.st0{fill:#BDBDBD;}
</style>
<g id="shoulderpain-lady2">
	<path class="st0" d="M149.2,107.7c-0.5-3.4-2-6.4-4.3-9c-1.6-1.9-3.8-3.1-6-4.3c-1.5-0.8-3-1.1-4.6-1c-2.4,0.3-4.8,0.3-7.1,0.5
		c-0.4,0-0.8,0.4-1.1,0.6c-0.4,0.3-0.8,0.8-1.3,1c-0.9,0.5-1.8,1-2.8,1.4c-0.5,0.3-1,0.3-1.5,0.1c-1.4-0.3-2.6-0.6-3.9-0.9
		c-3.5-0.6-7-1.5-10.6-2c-2.9-0.4-4.9-2-6.3-4.4c-1-1.6-1.9-3.4-2.8-5.1c-0.3-0.5-0.6-1-0.9-1.5c-0.6-1.4-0.1-2.8,0.3-4.1
		c0.1-0.6,0.9-1,1.4-1.4c0.3-0.1,0.8,0.5,1.1,0.8c0.6,0,1.3,0,1.8,0.3c1.6,0.8,3.5,1,5.3,0.8c2.5-0.5,4.8-1.4,7-2.8
		c1.4-0.8,2.6-1.7,3.8-2.8c0.1,0,0.1-0.1,0.2-0.1c0.1-0.1,0.2-0.2,0.2-0.2c0.8-0.8,1.6-1.6,2.4-2.5c1.8-2.1,3.1-4.6,4-7.3
		c0.3-0.6,0.5-1.3,0.9-1.9c1-1.6,2-3.4,3-5c1-1.9,2-3.9,2.1-6.1c0.3-2.8,0.3-5.5-1.5-8c-0.3-0.4-0.4-0.8-0.5-1.1
		c-1-2.1-1.9-4.3-2.9-6.4c-0.4-0.8-1-1.5-1.7-2c-0.1-0.1-0.3-0.2-0.5-0.3c-0.4-0.3-0.9-0.5-1.4-0.7c-0.5-0.1-1-0.4-1.4-0.8
		c-1.4-1.4-3.1-1.6-5-1.6h-4.1c-1.6-0.1-3.1-0.1-4.9-0.3c-0.1-0.1-0.4-0.4-0.5-0.8c-0.6-1.5-1.3-3.1-1.8-4.6c-0.4-1-0.6-2.1-1.1-3.1
		c-1.6-2.9-3.5-5.8-5.4-8.5c-0.9-1.4-2.3-2.4-3.1-3.6c-0.6-0.9-1.1-1.5-2.3-1.8c-0.4-0.1-0.9-0.5-1.3-0.8c-1.5-0.9-2.9-1.9-4.5-2.5
		c-2.1-0.9-4.3-1.5-6.4-2.1c-2.4-0.8-4.8-1.5-7.1-1.6c-5.6-0.3-11.3-0.1-16.9-0.3c-1.5,0-3,0.5-4.8,1C46.5,2,43,3.8,40,6.5
		c-1.6,1.5-3.3,2.9-4.9,4.4C34,12,32.7,13,32,14.4c-1.4,2.3-2.4,4.8-3.5,7.3c-0.3,0.6-0.5,1.4-0.9,2C26,26.3,25,29.2,24,32.1
		c-0.6,1.8-0.9,3.6-1.5,5.4c-0.4,1.1-0.4,2.1,0,3.3c0.3,0.6,0.5,1.4,0.9,2s0.3,1.1-0.3,1.6c-1.1,1.3-2.3,2.5-3.4,3.9
		c-0.8,0.9-1.4,1.6-2,2.6c-1,1.9-0.4,3.8,1.6,4.5c1.1,0.4,2.1,1,3.1,1.5c1.3,0.5,1.5,1.4,1.4,2.5c0,0.4-0.1,0.9-0.3,1.3
		c-0.4,1.3-0.4,2.5,0.6,3.6c0.8,0.8,1,1.8,0.9,2.8c-0.3,1.4,0.4,2.5,1.4,3.4c0.3,0.4,0.6,0.6,0.9,1c0.1,0.3,0.3,0.8,0.1,1
		c-1,2.5-0.6,4.6,0.9,6.8c1.6,2.3,3.9,3.5,6.3,4.4c1.6,0.6,3.3,1.1,5,1.4c2.5,0.3,5,0.4,7,1.1c0.3,0.1,0.6,0.1,0.9,0.1
		c2.1,0.1,3.6,1.5,4.3,3.4c0.5,1.5,0.5,3.1,0.8,4.6c-1.5-2-3.4-3-5.9-2.9c-0.5,0-1.3-0.4-1.6-0.9c-0.9-0.9-1.6-1.9-2.9-2.5
		c-2.9-1.5-4.9-0.6-6.5,2c-0.6,1.1-1.3,1.6-2.5,1.5h-1c-1.1-0.1-2,0.4-2.5,1.4c-0.6,1.4-1.9,2.3-3.3,2.9c-0.5,0.3-1,0.9-1.5,1.3
		c-0.6,0.5-1.1,1.1-1.9,1.5c-1.9,1-2.9,2.8-3.3,4.6c-0.3,1.5-0.5,3,0.9,4.3c0.4,0.4,0.4,1-0.5,1c-0.6,0-1.4,0-2,0.3
		c-2.5,0.8-4.4,2.5-6.5,4c-1,0.8-2,1.5-2.6,2.5c-2.8,4.6-5.4,9.4-6.5,14.8c-0.4,1.8-1.3,3.4-1.5,5.1c-0.5,3.3-0.3,6.6-1.1,9.9h1
		v-1.5c0.1-1.6,0.5-3.3,0.5-4.9c0.1-1.9,0.4-3.5,0.9-5.3c1.4-5,3-10,5.6-14.5c0.9-1.6,1.6-3.4,3.3-4.6c1.1-0.8,2.1-1.5,3-2.3
		c2-1.4,4-2.9,6.8-2.6c0.1,0,0.4-0.1,0.6-0.1c1.8,2.9,4.6,4.8,7.3,6.8c0.9,0.8,2.1,0.6,2.9-0.1c0.8-0.8,1.1-0.4,1.6,0.3
		c0.8,1,1.5,2.1,2.3,3.1c0.8,0.9,1.6,1.5,2.9,1.5c1.4,0,2.5-0.3,3.4-1.5c0.4,0.5,0.6,0.8,1,1.1c1,1.1,2.6,1.1,3.5-0.1
		c0.5-0.6,0.8-1.5,0.9-2.4c0.1-1,0-2,0-2.9c2.6-0.6,3.6-1,2.9-3.8c0,0,0-0.1,0-0.3c-0.1-3-1.3-5.9-2-8.8c-0.4-1.4-0.5-1.4,0.9-1.8
		c0.3-0.1,0.4-0.1,0.5-0.3l4.1-2.6c1.1-0.8,2-1.9,3.3-2.3c3-0.9,6.1-1.5,9.3-2.1c1-0.1,1.9-0.3,2.9-0.4c3-0.4,6.1-0.8,9.1-1.3
		c2.3-0.4,4.5-0.8,6.8-1.4c0.9-0.3,1.8-0.8,2-1.9c-0.5,0-0.9,0.3-1.3,0.5c-2,1.3-4.5,1.4-6.8,1.8s-4.4,0.5-6.6,0.8
		c-2.6,0.4-5.3,0.8-7.8,1.3c-2.5,0.6-5,1.3-7.5,2c-1,0.3-2,0.9-3.1,1.5c0.3-0.9,0.1-1.9,0.6-2.3c1.5-1.1,3.3-2.1,5-2.9
		c1.5-0.6,3.1-0.9,4.6-1.3c1.9-0.6,3.9-1.1,5.9-1.8c2.3-0.6,4.6-1.1,6.8-2.1c1.3-0.6,2.1-0.3,3.3,0.1c1.9,0.8,3.6,1.9,5.9,1.3
		c0.1,0,0.2-0.1,0.3-0.1c0.7-0.1,1.3-0.3,2-0.6c1.7-0.6,3.2-1.3,4.2-3.1c0.5-0.9,1.4-1.6,2.1-2.4c0.1,0,0.3,0.1,0.4,0.1
		c-0.4,1.5,0,2.6,0.9,3.9c1.3,1.8,2.3,3.8,3.1,5.6c1.1,2.3,2.8,3.8,5.3,4.3c0.5,0.1,1.1,0.3,1.8,0.4c2.3,0.5,4.4,0.9,6.5,1.4
		c2.6,0.5,5.1,1,7.5,1.6c0.8,0.1,1.6,0.1,2.3-0.1c1.4-0.6,2.9-1.3,4.1-2.1c0.8-0.6,1.5-0.9,2.5-0.9c0.9,0,1.6-0.3,2.4-0.3
		c1.8-0.1,3.5-0.5,5-0.1c3.4,0.9,6.4,2.8,8.6,5.5c1.5,1.8,2.6,3.6,3.1,5.9c0.4,1.5,0.5,3.1,0.8,4.6c0.3,1.3,0.6,2.5-0.1,3.8
		c-0.1,0.1-0.1,0.4-0.1,0.5c0.4,3.5-1.1,6.6-1.3,10c-0.1,2.8-0.6,5.6-0.8,8.5c-0.1,3.8-0.1,7.6-0.3,11.4c0.3,0,0.6,0,0.9-0.5
		c0-1.6,0.1-3.4,0.1-5c0-1.8,0-3.6,0.1-5.4c0.1-2.8,0.5-5.6,0.6-8.4c0.1-2.6,0.8-5.1,1.4-7.8c0.4-1.5,0.6-3.1,0.6-4.6
		C150,111.3,149.5,109.6,149.2,107.7z M109.1,71.4c-0.7-0.2-1.3-0.5-2-0.8c-0.9-0.4-1.9-1-2.8-1.5c-0.7-0.4-1.3-0.8-2-1.3
		c-0.1-0.1-0.3-0.2-0.4-0.3c0-0.4-0.2-0.8-0.5-1.1v-0.1c0-0.1,0-0.2,0-0.3c0.1-0.2,0.1-0.3,0.2-0.5c0.5,0.2,0.9,0.4,1.4,0.6
		c0.1,0.1,0.2,0.2,0.3,0.3c2.1,1.5,4.2,3,6.3,4.6C109.4,71.1,109.2,71.2,109.1,71.4z M107.2,60.6L107.2,60.6
		c0.1,0.1,0.2,0.2,0.4,0.4C107.5,60.9,107.3,60.8,107.2,60.6z M110.2,68.2C110.1,68.2,110.1,68.1,110.2,68.2c0-0.2,0.1-0.3,0.2-0.5
		l0,0C110.3,67.9,110.2,68,110.2,68.2z M124.8,50.6c0.8-0.5,1.6-1,2.4-1.5c0.7-0.4,1.3-1,1.6-1.7c0,0.9-0.1,1.9-0.2,2.8
		c-0.1,0.5-0.1,1-0.2,1.5c-0.1-0.1-0.2-0.2-0.3-0.3c-0.6-0.5-1.3-0.1-1.9,0.3c-0.9,0.7-1.8,1.6-2.6,2.4c-1.3,1.3-2.4,2.8-3.5,4.3
		c-1.8,1.8-2.7,4.1-3.7,6.4c-1.2,2.9-2.3,5.9-3.1,9c-0.1,0.5,0.2,0.9,0.6,1.1c-0.3,0.2-0.6,0.5-1,0.7c-0.4,0.3-0.8,0.3-1.3,0.5
		c-0.1-0.4-0.2-0.8-0.2-1.3c0.1-0.3,0.2-0.5,0.2-0.8c0.1-0.4,0-0.7-0.2-1c0.1-0.8,0.4-1.5,0.8-2.2c1.1-2.1,1.8-4.4,2.5-6.6
		c0.8-2.1,2-4.1,3.1-6.1c0.8-1.1,1.6-2,2.5-3C122,53.6,123.5,52.1,124.8,50.6z M112.5,69.1c0.2-0.4,0.3-0.8,0.5-1.2l0,0
		C112.9,68.3,112.7,68.7,112.5,69.1z M117.9,57.5c0.1-0.4,0.3-0.8,0.4-1.2C118.2,56.7,118.1,57.1,117.9,57.5z M116.8,40.5
		c1,0.7,1.5,1.9,2,2.9c1.2,2.5,2,5.1,2.4,7.8c0.1,0.7,0.8,1,1.4,0.9c-1.1,1.1-2.2,2.3-3.3,3.4c0,0-0.1-0.1-0.3-0.1
		c0-0.4-0.1-0.9,0-1.3c0.6-1.9,0.4-3.8-0.1-5.6c-0.1-0.5-0.4-0.8-0.7-1.2c0-0.1-0.1-0.3-0.1-0.4c-0.8-2.4-2.2-4.3-4-6
		C114.9,40.3,115.9,39.8,116.8,40.5z M114.1,61.1c0.4,0.4,1,0.5,1.5,0.2c-0.2,0.3-0.3,0.7-0.5,1c-0.6,1.1-0.9,1.3-1.8,0.4
		c-0.8-0.8-1.6-1.6-2.4-2.4c-0.9-1.4-1.9-2.6-3.2-3.8c-0.2-0.2-0.4-0.3-0.7-0.3c-0.1-0.1-0.2-0.2-0.3-0.4c0,0-0.1,0-0.1,0.1
		c-0.2-0.3-0.4-0.6-0.7-0.9c-0.2-0.4-0.3-0.9-0.3-1.3c0.3-0.1,0.6-0.4,0.7-0.8c0.1,0.2,0.2,0.3,0.3,0.5
		C109.4,55.8,111.8,58.4,114.1,61.1z M50.5,86.2c-2.9-0.9-5.9-1.8-8.8-2c-3.1-0.1-5.9-1-8.5-2.5c-1.4-0.9-2.9-1.6-3.8-3.1
		c-1-1.6-1.4-2.9-0.9-4.8c0.3,0.3,0.4,0.6,0.6,0.9c0.1,0,0.3-0.1,0.4-0.1c-0.3-0.6-0.3-1.5-0.6-2.1c-0.6-1-1.3-1.9-2-2.6
		C26.1,69,25.8,68.3,26,67c0.6,0.5,1.1,1,1.6,1.3c0.1-0.1,0.1-0.1,0.3-0.1c0-0.3-0.1-0.6-0.3-0.9c-0.6-0.9-1.1-2-2-2.8
		c-1.3-1.1-0.9-2.4-0.6-3.6c0.1-0.8,0.3-1.5,0.5-2.3c0.1-0.4,0.5-0.6,0.9-0.9c0.5-0.3,0.9-0.6,0.4-1.4c-0.5,0.4-0.9,0.8-1.1,0.9
		c-1.9-1-3.6-2-5.5-2.9c-1.3-0.6-1.6-2.3-0.8-3.4c1.4-1.8,2.8-3.5,4.1-5.1c0.5-0.6,1.4-1,2-1.5c1.5,1.4,2.9,2.6,4.5,4
		c0.1-0.4,0.3-0.8,0.1-0.9c-0.6-1-1.4-1.9-2-2.9c-1.1-1.6-2.4-3.1-3.5-4.8c-0.3-0.4-0.6-0.6-0.9-0.9c-0.1-0.3-0.4-0.6-0.3-0.9
		c0.6-2.6,1.3-5.3,2.3-7.8c0.8-2.3,2-4.1,3-6.3c0.6-1.1,1-2.4,1.5-3.5c0.3-0.5,0.4-0.9,0.9-1.4c0,0.8,0,1.5-0.1,2
		c0.4,1.4,1,2.6,1.5,3.9c0.8,1.6,1.6,3.3,2.4,5c0.4,0.9,0.5,1.9,0.9,2.8c0.6,1.5,1.4,3,1.9,4.6c0.2,0.7,0.4,1.3,0.5,2
		c0,0.4,0.1,0.7,0.1,1.1c0,0.1,0,0.3,0,0.4c0.1,3.5,1.5,6.4,3.4,9.1c0.4,0.6,0.8,1.2,1.1,1.9c0.2,0.8,0.3,1.6,0.4,2.4
		C43,56,42.8,57.9,43,59.8c0.1,2.3,1,4.3,2.5,6c1,1.1,2.1,2.1,3.2,3c0.3,0.4,0.6,0.8,0.9,1.1c0.4,0.4,0.9,0.4,1.2,0.2l0,0l0.1-0.1
		c0.4-0.4,0.5-1,0.1-1.5l-0.2-0.3l0,0c0-0.2,0-0.5-0.1-0.7c-0.4-0.6-0.7-1.2-0.9-1.8c0.1-0.1,0.3-0.2,0.4-0.2
		c0.5-0.5,0.9-1.3,1.5-1.6c2-1.4,4-0.5,6,0.1c2.9,1,4.5,3.4,6.4,5.6c0,0,0.1,0.1,0.1,0.3c0.4,0.6,1.1,1.1,1.3,1.8
		c0.3,1.6-0.1,3.3-1,4.8C63,79,60.7,79.6,58.2,80c-0.4,0-0.9-0.4-1.1-0.6c-0.8-0.9-1.4-1.9-2.1-2.8c-0.1-0.3-0.5-0.4-0.8-0.5
		c0,0.3,0,0.6,0.1,0.9c0,0.1,0.1,0.3,0.3,0.4c2,1.9,1.3,3.6,0.1,5.5c-0.5,0.8-1,1.6-1.5,2.5C52.4,86.7,51.9,86.5,50.5,86.2z
		 M49.7,95.2c0,0.4-0.4,0.6-0.5,1c-0.4-0.1-0.9-0.3-0.9-0.5c-0.3-1.5-1.3-2.3-2.5-2.8c0,0-0.1-0.1-0.3-0.4
		C48.1,91.9,49.4,92.8,49.7,95.2z M30.1,115.4c-0.9,0-2.3-1-2-1.8c0.1-0.6-0.3-1.9,1-2c1.4-0.1,2.8,1.1,2.8,2.4
		C32,114.9,31.5,115.3,30.1,115.4z M39.6,119.8c-1,0.1-1.8,0.1-2.5-0.5c-0.9-0.8-0.9-0.9-0.9-2.4c0-0.3-0.1-0.6,0-1
		c0.1-1.3,1.1-1.9,2.1-1.3s2,1.1,2.6,2.4C41.5,118.1,41.1,119.7,39.6,119.8z M45.5,120.1c-1,0.4-1.9,0.1-2.4-0.8
		c-0.4-0.8-1.4-1.4-0.8-2.5c0.1-0.1,0-0.5-0.1-0.6c-0.4-0.6-0.4-1.4,0.4-1.8s1.5-0.3,2.1,0.4c0.4,0.6,0.9,1.1,1.3,1.8
		c0.4,0.4,0.8,0.8,0.9,1C46.7,118.9,46.5,119.7,45.5,120.1z M49.5,113.3c-0.8,0.6-1.9,0.8-2.3,0.3c-0.8-1-1.5-2-2.1-3
		c0.3-0.4,0.5-0.6,0.6-1c0.1-0.8,0.4-1.3,1.3-1.3s1.4,0.4,1.6,1.1c0.3,0.8,0.4,1.5,1.1,2.1C50.1,111.9,50.1,112.8,49.5,113.3z
		 M49.4,107.8c0.3,0.9,0.4,1.8,0.4,2.8c-0.6-1-0.5-2.4-2.1-2.6c-1.4-0.3-2.1,0.6-2.9,1.8c-0.1-0.3-0.1-0.5-0.3-0.8
		c-1-2.1-1.9-4.1-2.8-6.3c-0.6-1.3-0.9-2.6-1.5-3.8c-0.6-1.3-1.5-2.4-2.4-3.6c0,0-0.3,0-0.6-0.1c0.1,0.4,0.1,0.8,0.4,1
		c1.5,1.5,2,3.4,2.8,5.3c0.8,1.8,1.6,3.4,2.4,5c0.5,0.9,0.6,2,1.1,2.9c0.6,1.4,1.5,2.8,2.3,4.1c0.5,0.9,0.6,1.8,0.9,2.6
		c-0.1,0-0.3,0.1-0.4,0.1l-1.5-1.5c-0.8-1-1.9-1.4-3-1c-0.9,0.3-1,1.1-1,2c0,0,0,0.1-0.1,0.5c-1-1.8-1.9-3.3-2.9-4.8
		c-1.6-2.5-2.9-5.3-4-8.1c-0.5-1.3-1.5-2.4-2.4-3.5c-0.1-0.1-0.3-0.1-0.8-0.1c0.5,0.6,0.9,1,1.1,1.5c0.6,1,1.4,2,1.8,3
		c1.1,3,2.5,5.9,4.4,8.5c0.3,0.4,0.4,0.8,0.8,1.4c-2.9-1.1-3.6,0.5-3.8,3c-1.8-2.3-3.1-4.5-4.8-6.4c-2-2.4-2.9-5.1-3.9-7.9
		c-0.3-0.8-0.8-1.4-1.3-2c-0.1-0.1-0.5-0.1-0.9,0c1.9,1.6,2,3.9,2.8,5.9c0.5,1.1,1.3,2.1,2,3.3c0.1,0.4,0.4,0.6,0.8,1.1
		c-2.5-0.6-2.3,1.3-2.8,2.6c-1.9-2-4.3-3.3-5.1-5.9c0-0.1-0.1-0.3-0.3-0.4c-1.3-0.9-1.8-2.1-1.5-3.6c0.3-1.6,0.6-3.1,2-4
		s2.6-2,3.8-3.1c0.5-0.4,1-0.6,1.6-0.9c1.1-0.4,1.9-1.3,2.4-2.3c0.8-1.3,1.1-1.5,2.6-1.3c1.8,0.3,3-0.4,3.9-2
		c1.3-2.1,3.3-2.6,5.5-1.6c1.1,0.5,2,1.3,2.8,2.1c0.3,0.4,0.5,0.8,0,1.1c-0.3,0.4-0.5,0.6-0.8,1c-0.6,0.8-0.6,1.9,0.1,2.6
		c1.6,1.5,2.8,3.3,3.1,5.5C47.7,103.3,48.7,105.6,49.4,107.8z M52.4,97.5c-0.4,0.4-0.9,0.5-1.3,0.8c-2.3,1.3-2.5,1.3-4-0.8
		c-0.6-0.8-1.4-1.5-2-2.3c-0.4-0.4-0.5-0.9-0.5-1.3c0-0.6,0.3-1,1-0.6c1.1,0.5,2.1,1,2.1,2.4c0,0.9,0.6,1.3,1.4,1.1
		c0.8-0.1,1.5-0.5,1.4-1.5c-0.1-0.6-0.4-1.1-0.5-1.8c-0.1-0.4-0.3-0.8-0.4-1.1c1.9,0.5,3.4,2.5,3.4,4.1C53,97,52.6,97.3,52.4,97.5z
		 M76.1,84.9c-2.3,0.8-4.6,1.4-7,2.1c-3.3,1-6.6,1.9-9.9,3c-1.3,0.5-2.5,1.4-3.8,2c-0.4,0.3-0.8,0.5-1.3,0.8
		c-0.1-1.1-0.3-2.1-0.9-3.3c-0.3-0.9-0.8-1.8-1.3-2.6c1.9-1.8,3.1-4,3.9-6.5c0.1-0.3,0.6-0.6,0.8-0.5c1.5,0.9,3,0.1,4.4-0.3
		c3.4-0.9,4.3-3.8,5.4-6.6c0.9,1,1.8,2.1,2.6,3.1c1.9,2.3,3.8,4.5,5.8,6.6c0.5,0.6,1.4,1,2.3,1.5C76.8,84.5,76.5,84.8,76.1,84.9z
		 M95.5,63.1c0.5-3.9,1-7.8,1.9-11.6c1.1-5.1,2.6-10.3,5.5-14.8c0.8-1.3,1.4-2.5,2.1-3.8c1-1.6,2.5-2.4,4.3-2.5l-0.1,0.1
		c-5.6,7-8.9,15-10.6,23.8c-0.8,4.3-1.8,8.7-1.7,13.1c0,3.5,0.9,7.8,3.9,10c-1.9-0.9-3.4-2.6-4.5-4.9C94.9,69.5,95.2,66.4,95.5,63.1
		z"/>
	<path class="st0" d="M26.5,47c0.1,0.5,0.3,0.9,0.3,1.1c-0.5,1.8,0.8,2.5,2,3.3c0.6,0.4,1.1,1,1.8,1.5c0.1,0.1,0,0.4-0.1,1
		c-1.3-0.9-2.1-1.6-3.3-2.3C25.4,50.8,25,48.9,26.5,47z"/>
	<path class="st0" d="M55.8,75.4c1.3,0.1,2.5,0.3,3.6,0.5c1.1,0.3,1.6,0.1,1.6-1c0-0.9-0.1-1.8-0.3-2.6c0-0.4,0-0.6,0.1-1
		c0.1,0,0.3,0,0.5,0c0.1,1.4,0.4,2.8,0.4,4.1c0,1.1-1.1,1.8-2.3,1.4c-0.9-0.3-1.8-0.4-2.6-0.6c-0.4-0.1-0.8-0.3-1.1-0.5
		C55.6,75.7,55.8,75.5,55.8,75.4z"/>
	<path class="st0" d="M58.8,70.1c-0.6-0.3-1-0.4-1.4-0.6C56.5,68.9,56,69,55.8,70c-0.1,0.6-0.1,1.3-0.1,1.9c0,0.8-0.4,0.9-1,0.8
		c0.1-1.1,0.1-2.3,0.4-3.4c0.1-0.5,0.8-1,1.3-1.1C57.5,67.9,58.8,68.8,58.8,70.1z"/>
</g>
</svg>
