<?xml version="1.0" encoding="utf-8"?>
<!-- Generator: Adobe Illustrator 21.1.0, SVG Export Plug-In . SVG Version: 6.00 Build 0)  -->
<svg version="1.1" id="Layer_1" xmlns="http://www.w3.org/2000/svg" xmlns:xlink="http://www.w3.org/1999/xlink" x="0px" y="0px"
	 width="200px" height="156.4px" viewBox="0 0 200 156.4" enable-background="new 0 0 200 156.4" xml:space="preserve">
<g id="sneezing-lady">
	<path fill="#CCCCCC" d="M131.5,64.2c0.5,1.3,1,2.8,1,4.2c-0.2,1.5-0.8,3-2.2,3.7c-0.7,0.3-1.5,0.3-2.2,0.3c-0.3-0.7,0.2-1.5,0.7-2
		s1-1,1.3-1.7c0.3-1-0.3-1.8-0.3-2.8S130.7,63.8,131.5,64.2"/>
	<path fill="#CCCCCC" d="M135.7,62.3c0,0.3-0.2,0.5-0.2,0.8c-0.2,0.5-0.3,1.2-0.5,1.8c-0.3,0.2-0.7,0.3-1,0.2
		c-0.3-1.8-0.7-3.7-1-5.7c-0.3-0.2-0.7-0.5-0.8-0.8c-0.3,0.3-0.7,0.5-1,1c-1,1-2,2.3-2.7,3.7c-0.3,0.8-0.7,1.7-1.3,2
		c-0.3,0-0.7-0.3-0.8-0.8c-0.3-1,0.2-2.2,0.7-3c0.5-1,1-1.7,1.7-2.5c1.2-1.3,3.3-2.5,5-1.7c1,0.7,1.5,2,1.7,3.2
		C135.3,61.2,135.5,61.7,135.7,62.3C135.5,62.2,135.5,62.3,135.7,62.3"/>
	<path fill="#CCCCCC" d="M24.4,141v0.2c0,0.2,0,0.5,0.2,0.7l0.2,0.2c0.3,1,0.8,1.8,1.2,2.8v0.2c0,1.7,0.7,2.3,1.7,3.8
		c0.3,0.5,0.5,0.8,0.7,1.2c-0.3,0.8-0.8,1.7-1.2,2.3c0,0-0.2,0.2-0.2,0.3c-0.2,0.5,0.3,0.8,0.7,0.8c-0.3,0.8-0.7,1.8-1.2,2.7H29
		c0.7-1.2,1.3-2.3,1.5-3.8c0-0.5,0-1-0.2-1.5c1-1.8,2-3.5,3-5.3c1-1.7,2-3.7,3-5.3c0.7-1.2,1.3-2.8,0.5-4c-0.2-0.2-0.7,0-0.8,0.2
		c-2,3.3-4,6.7-5.8,10.2c-0.5-1.2-1.2-2.2-1.7-3.2c-0.2-0.5-0.5-1.2-0.7-1.7c-1-2.2-2.2-4.3-3.7-6.5c-1-1.3-2-2.5-2.3-4.2
		c-0.7-0.7-1.7,0-1.8,1c-0.2,0.7,0.3,1.5,0.8,2.3C21.7,136.8,23.1,138.8,24.4,141z"/>
	<path fill="#CCCCCC" d="M77.9,69.3c0.3-2,1.7-3.8,3.5-4.5c0.8-0.3,1.7-0.3,2.3-0.5c1.3-0.3,2.8-0.3,4.2-0.7c1.5-0.3,3-0.3,4.5,0.3
		c1.3,0.7,2.3,2.5,1.3,3.7c-1.8,1-3.8,1.3-5.8,1.7c-2.3,0.3-4.5,1-6.8,1.3c-0.7,0.2-1.3,0.3-2,0.2C78.5,70.5,77.9,70,77.9,69.3
		 M80.2,68.7c1.2-0.2,2.3-0.2,3.7-0.3c-0.2-1-1-1.7-2-1.7C81,67,80.2,67.8,80.2,68.7 M89.7,65.3c-0.2,0.5-0.2,1-0.2,1.7
		c0.7,0,1.3,0,2-0.3c0.3-0.3,0.8-0.7,1.2-1C91.7,65.2,90.6,65.2,89.7,65.3"/>
	<path fill="#CCCCCC" d="M112.8,138.7c2-1.7,4.3-3,6.8-3c2.7,0.2,5,2.2,7.9,2.2c2,0,3.8-1,5.7-1.3c2.2-0.5,4.3-0.3,6.5-0.3
		c0.5,0,1.2,0.2,1.7,0.5c0.3,0.3,0.5,1.3-0.2,1.5c-3.2-0.3-6.5-0.2-9.7,0.7c-2.5,0.7-5.3,1.7-7.5,0.3c-2-1.3-4.7-1.7-7-0.8
		c-2.3,0.8-4.2,2.7-5,5c-0.3,0-0.5-0.2-1-0.2c-0.7-0.5-0.7-1.7-0.3-2.3C111.5,139.7,112.1,139.2,112.8,138.7"/>
	<path fill="#CCCCCC" d="M9.5,137.3c1.8-4,3.5-7.9,6.3-11c6-7.2,15.4-10.2,24.2-12.9c-4.3,2.5-5,8.9-3.5,13.5
		c1.5,4.7,4.3,8.9,6,13.7c1.5,4.8,1.2,10.9-3,13.7c4.7,0,7.4-5.8,6.3-10.4c-0.8-4.5-4-8.4-5.7-12.7c-3.2-7.7-1.2-18,6.3-21.7
		c-4.7,4-6.5,11.2-4.5,17c1.2-8.7,5.3-16.7,9.5-24.4c2.7-5.2,5.7-10.5,10.4-14c-3,9.7-6.8,19-11.9,28.1c1,0,1.8,0.2,2.7,0.3
		c-0.3,1.3-0.2,2.8,0.3,4.3c-1.7,0-4,0.8-3.7,2.5c2.2-1.8,5.5,0.3,6.2,3s-0.5,5.3-1.2,8c-1.7,6.5-0.8,13.7,2.3,19.7
		c-2.7-10.4,1.3-21.2,1.7-32.1c0.3-8.7-1.7-17.9,2.3-25.6c1.7,6.3,3,12.7,4.7,19c0.5,1.5,2,3.2,3,2c-3.5-10.9-7.4-23.1-3.2-33.9
		c-1.5,4,4.7,6.8,4.8,11.2c0,6.8,1.8,13.7,5,19.9c1.7-1,1-3.7,0.3-5.3c-4-9.7-5.5-20-5-30.4c0.3,2.7,2.2,5,3.7,6.5
		c0.3,11.2,3.7,22.2,9.7,31.6c-2.2-8.4-4.7-16.7-7-25.1c2,4.7,4.2,9.2,6.2,13.7c3,6.5,5.8,13.2,5.5,20.2c-0.7,9.7-7.7,18.5-6.3,28.2
		c1.5-1.2,2.2-3.2,2.5-5c1.7-7.4,3.5-14.5,5.2-21.9c0.5-2.3,1.3-5,3.5-6c10.4-5.3,21.9-12.2,24.2-23.7c-6.3,9.5-15.5,17.5-26.4,22.6
		c-3-2.3-3.7-6.3-2.7-10c1.2-3.7,3.3-6.5,5.7-9.5c1.8-2.3,3.7-4.5,5.3-6.8c1-1.2-0.7-2.7-2-3.5c-4-2.3-8.2-4.5-12.4-6.8
		c7-2,12.9-7.5,15-14.4c0.3-1.3,1.7-2.2,2.7-3c4.3-2.7,10.5-5.5,14-1.7c2.2,2.5,6.3-0.7,7.9-3.7c1.5-3,3-7.2,6.5-7
		c2.7,0,4.5,2.7,5,5.2c0.8,3.8,0.2,7.9-1.2,11.5c-0.3,0.3-0.7,0.7-0.7,1.3c0,0.2,0,0.3,0,0.5c-0.5,1.2-1,2.5-1.7,3.7
		c-0.3,1-0.8,1.8-1.3,2.7c-1,1-2.2,2-3.2,2.8c-0.2,0.2-0.5,0.3-0.8,0.3c-2.2,0.3-5-0.8-5-3.2c0,2.8-0.2,5.5-0.2,8.4
		c-0.2,3-0.2,6.2,0.2,9.2c1.3,16,12.2,30.9,27.2,36.8l0,0c-0.8,0.5-1.5,1.5-1.5,2.5c-2.5,4.2-5,8.2-7.4,12.4c-0.8,0.7-1.5,1.5-2,2
		c-1.5,1.7-2.5,3.7-3.5,5.5c0,0.2-0.2,0.2-0.2,0.3c-0.2,0.3-0.3,0.5-0.3,0.8h25.4c0.8-1.5,1.5-3,2-4.7c0.2-0.2,0.3-0.5,0.5-0.7
		c0.3-0.7,0.5-1.5,0.3-2.2c0-0.2,0-0.3,0.2-0.3c0.3-1.5,0.3-4,0.8-6.3c0.2-0.5,0.5-1,0.7-1.5c0.2-0.2,0.5-0.5,0.7-0.7
		c0.7-0.5,1-1.3,1.2-2c1.2-1.2,2.5-2.2,4-2.8c4.3-1.8,9.7-1,13.9,1.3s7.4,6.2,9.9,10.4c1.3,2.3,3,5,5.7,4.8c-2.8-5-5.7-10.2-10-14
		c-4-3.8-10-6.3-15.7-5.2c-3.3,0.7-6.8,1-10.4,0.7c-0.5-0.2-1-0.3-1.5-0.3c-0.7,0-1.5,0-2.2,0c-4.5-0.7-9-2-13.2-4.2
		c-1-0.7-2.2-1.5-2.3-2.7c-2-19.2-4-38.1-6-57.1c-0.8-7.9-1.7-15.9-2.5-23.7c-1.5-14-4.2-30.1-15.9-37.8c-3.5-2.5-7.7-4-11.9-5
		c-4.4-1.2-9.2-2-14.3-2.2C81.2-0.3,68.3,5.4,60.2,14.7c-8.4,9.7-12,23.4-9.7,35.9c0.2,2,0.7,3.8,0.3,5.8c-0.3,2-2,3.8-4,3.7
		c-5-0.3-8.2,6-6.7,10.7s5.8,7.9,10.2,10.2c1.2,0.7,2.5,1.3,3.5,2.3c2.3,2.7,1.7,7,0.3,10.4c-3.7,8.7-10.7,16-19.5,19.7
		c-3.3,1.3-7,2.2-10.4,3.8c-12.9,6.2-18.7,20.9-23.6,34.2c-0.5,1.7-1.2,3.3-0.2,4.7C3.5,149.9,6.5,143.7,9.5,137.3z M56.8,122.8
		c-1.2-0.7-1.7-2.2-1.8-3.7c-0.2-1.2-0.2-2.3-0.2-3.5c0-2.2,0.5-4.3,1-6.5c0.5-0.2,0.7,0.3,0.7,0.8c0.2,1.7,0.3,3.3,0.5,5
		C57.2,117.5,57.5,120.3,56.8,122.8z M58.5,87.4c0,0-0.2,0-0.3-0.2c-1.2-1.7-1.7-3.5-1.7-5.3c0.8-0.2,1.7,0.8,1.8,1.8
		C58.7,84.9,58.7,86.2,58.5,87.4z M58,79.9c-0.8,0.2-1.7-0.3-2-1.2c-0.3-0.7-0.3-1.5-0.3-2.3c0-2.3-0.2-4.7-0.2-7
		c0.5,0,0.8,0.5,1,0.8c1.8,0.8,4,0.5,5.7-0.7c0.5-0.3,1.2,0.5,1.5,1c0.3,0.7,0.7,1.3,1,1.7c0.2,0.7,0.5,1.3,0.3,2
		c-0.2,0.3-0.7,0.8-1,1.2c-1,0.8-2.7,1.3-3.7,2.3C59.7,78.5,59,79.7,58,79.9z M56,65.7c1.7-0.3,3.5,0.2,5,1.2
		c-1.8,0.2-3.7,0-5.3-0.2C55.5,66.2,55.7,65.8,56,65.7z M67.3,87.6c-0.7-1.8-0.5-3.8,0.3-5.5c0.5,0.7,0.8,1.5,0.8,2.3
		c0,1.3-0.2,2.8,0.2,4.3C68.2,89.1,67.5,88.2,67.3,87.6z M74.9,83c-0.5-0.5-1-0.8-1.7-1.3C73,80.5,73,79.4,72.9,78
		C74.5,79,75.4,81.2,74.9,83z M98.8,91.6c-4.3,5-8.2,10.5-11.4,16.4c-4.3-5.2-4.2-13-8.9-17.7c-1.3-1.3-1.7-3.2-1.7-5
		s0.2-3.8-0.3-5.5c-0.5-1.8-2.3-3.3-4-3.2c-2.7,0.2-3.8,4-6.5,4.8c-2.7,0.5-3,5-5.7,5.7c-0.8-1.7-0.5-3.8,0.5-5.7
		c1-1.8,2.7-3.2,4.3-4.3c2.5-1.8,5.2-3.5,8.2-2.8c2.3,0.5,3.8,2.5,5.5,4.2C84.4,84.2,91.1,88.7,98.8,91.6z M66.8,73.7
		c0.5-1.5,1.5-2.8,3-3.5c0,0.2,0,0.5,0.2,0.7c0.3,0.5,1.2,0.5,1.3,1C69.9,72.4,68.5,72.9,66.8,73.7z M74,68.7c0-0.7,0.5-1.2,1-1.5
		c2.3-1.7,4.7-2.8,7.4-3.5c1.7-0.7,3.7-0.7,5.3-1c1.7-0.2,3.2-0.3,4.7,0.2c1.5,0.3,2.8,1.7,2.7,3.3c-0.2,0.8-0.2,1.7-0.3,2.5
		c-0.5,2.5-1.8,4.5-3.7,6.2c-1.8,1.5-4.2,2.5-6.5,3c-0.7,0-1.2,0.2-1.7,0.3C82,78,81.2,77.5,80.4,77c-2.5-1.8-4.5-4.3-6-7.2
		C74.2,69.5,74,69,74,68.7z M121.8,61.7c0,0.3,0,0.5-0.3,0.8c-0.5,0.5-1.5,0.2-2.2-0.2c-0.7-0.3-1.2-1-1.8-1.3c-0.7-0.3-1-1-1.2-1.7
		c2.7-0.3,5.2-1.3,7.4-3h0.2C123.1,58,122.5,60,121.8,61.7z M99.3,23.4c3-2.3,5.8-5,8.5-8c0.3,0.3,0.8,0.7,1.2,1
		c-3.3,5.2-8,9-13.4,12.2c-0.5,0-0.8,0-1.3,0.5c-0.2,0.2-0.5,0.5-0.7,0.7l0,0c-0.2,0-0.3,0.2-0.5,0.2c-0.8-0.3-1.8-0.5-2.5-0.8
		c0,0,0,0,0-0.2C93.6,27.6,96.6,25.6,99.3,23.4z M52.6,38.9c0.8-3.7,3.2-7,6.7-8c1.3-0.3,2.8-0.5,4.3-0.5c4.5,0,9.2-0.2,13.7-0.3
		c11-0.2,21.7,5.7,27.4,15c2,3.3,3.3,7,5.7,10c-2.7,1.7-5.8,2.7-9,3.3c-0.7,0.2-1.5,0.3-2.2,0c-9.2-3.7-19.9-0.7-27.9,4.8
		c-1.3,0.8-3,2-4.3,1c-4-2.8-9.4-4.3-14.4-3.7c0.8-3.5,0.2-7.2-0.2-10.9C52.1,46.1,51.6,42.4,52.6,38.9z M48.1,77.4
		c-2.2-2-3.7-4.8-4.8-7.7c-0.7-1.5-1.2-3-0.5-4.5c0.8-2,3.5-2.3,5.7-2.3c5.5-0.2,11.7-0.2,16.4,3c1.5,1.2,3.5,2.7,5.2,1.5
		c3.8-2.8,8-5.3,12.5-7c4.5-1.5,9.7-1.8,14.2-0.2c1,0.5,1.8,0.8,2.8,1c1.3,0.2,2.5-0.3,3.7-0.7c7.7-2.7,15.7-5.2,23.4-7.7
		c-0.7,1.3-2.2,2-3.7,2.5c-6.8,2.3-13.4,5-19.9,7.9c-1,0.5-2.2,1-3,2c-0.7,0.8-1,2-1.3,3c-1.5,4.5-4.7,8.5-8.9,11
		c-2.2,1.3-5.2,2.2-7,0.5c3.5,0.2,7.4-1.3,9.9-3.8s4-6.2,3.8-9.9c0-1.3-0.2-2.5-1-3.5c-1.2-1.3-3.5-1.7-5.3-1.7
		c-4.5,0-9.2,1.2-13.4,2.8c-1.7,0.8-3.3,1.8-4.3,3.5s-0.3,4.2,1.3,4.8c-0.7,0.5-1.7-0.2-2-0.8c-0.3-0.8-0.5-1.7-1.2-2.2
		c-0.8-0.5-2-0.3-2.8,0.3c-0.7,0.7-1.3,1.5-1.7,2.5c-0.3-3.8-4-6.7-7.4-7.4c-3.7-0.8-7.7,0-11.4,0.8c-0.8,0.2-1.7,0.5-2.2,1
		c-1.2,1.2-0.7,3-0.2,4.3c2,4.8,6,8.9,11,10.7C53.1,81.2,50.3,79.7,48.1,77.4z M54.5,78.7c-1-0.7-1.7-1.5-2.7-2.3c-1.2-1-2.2-2-3-3
		c-0.5-0.3-0.5-0.8-0.8-1.2c-1-1.5-1.5-3.3-1.7-5c2.3-0.2,4.7-0.3,7.5-0.2c0.3,1.3,0.2,2.8,0.2,4.3C54,73.7,54.1,76.4,54.5,78.7z"/>
</g>
</svg>
