<?xml version="1.0" encoding="utf-8"?>
<!-- Generator: Adobe Illustrator 18.1.1, SVG Export Plug-In . SVG Version: 6.00 Build 0)  -->
<!DOCTYPE svg PUBLIC "-//W3C//DTD SVG 1.1//EN" "http://www.w3.org/Graphics/SVG/1.1/DTD/svg11.dtd">
<svg version="1.1" id="Layer_1" xmlns="http://www.w3.org/2000/svg" xmlns:xlink="http://www.w3.org/1999/xlink" x="0px" y="0px"
	 viewBox="0 0 420.8 137.1" enable-background="new 0 0 420.8 137.1" xml:space="preserve">
<g>
	
		<radialGradient id="SVGID_1_" cx="213.4408" cy="2176.0886" r="111.7081" gradientTransform="matrix(1.3428 0 0 0.1661 -136.6019 -242.8256)" gradientUnits="userSpaceOnUse">
		<stop  offset="5.494510e-03" style="stop-color:#817E7A"/>
		<stop  offset="0.3901" style="stop-color:#D0D1D7"/>
		<stop  offset="0.4459" style="stop-color:#D8D9DE"/>
		<stop  offset="0.6405" style="stop-color:#EDEEF0"/>
		<stop  offset="0.8282" style="stop-color:#FBFBFB"/>
		<stop  offset="1" style="stop-color:#FFFFFF"/>
	</radialGradient>
	<path fill="url(#SVGID_1_)" d="M300,118.6c0,10.2-67.2,18.5-150,18.5c-82.8,0-150-8.3-150-18.5C0,108.3,67.2,100,150,100
		C232.8,100,300,108.3,300,118.6z"/>
	<linearGradient id="SVGID_2_" gradientUnits="userSpaceOnUse" x1="26.9644" y1="59.3159" x2="271.3831" y2="59.3159">
		<stop  offset="1.648350e-02" style="stop-color:#EEEEEE"/>
		<stop  offset="0.6374" style="stop-color:#EEEEEE"/>
		<stop  offset="0.956" style="stop-color:#EEEEEE"/>
	</linearGradient>
	<path fill="url(#SVGID_2_)" d="M152.6,118.6c-1.5,0-3,0-4.5,0C79.6,117.4,26.4,90.4,27,57.2C27.5,25.1,79.7,0,145.7,0
		c1.5,0,3,0,4.5,0c32.3,0.6,62.6,7.1,85.4,18.3c23.4,11.6,36.1,26.9,35.8,43.1C270.8,93.5,218.7,118.6,152.6,118.6L152.6,118.6z"/>
	<radialGradient id="SVGID_3_" cx="48.8435" cy="44.7175" r="165.1909" gradientUnits="userSpaceOnUse">
		<stop  offset="1.648350e-02" style="stop-color:#FFFFFF"/>
		<stop  offset="0.2376" style="stop-color:#F7F7F7"/>
		<stop  offset="0.2692" style="stop-color:#F5F5F5"/>
		<stop  offset="0.6374" style="stop-color:#EEEEEE"/>
		<stop  offset="1" style="stop-color:#BDBDBD"/>
	</radialGradient>
	<path fill="url(#SVGID_3_)" d="M268.6,61.4c-0.5,31.2-54.5,55.6-120.4,54.5c-66-1.1-119-27.4-118.5-58.6
		C30.2,26,84.2,1.6,150.2,2.8C216.1,3.9,269.2,30.2,268.6,61.4z"/>
	<radialGradient id="SVGID_4_" cx="125.463" cy="55.6625" r="187.9282" gradientUnits="userSpaceOnUse">
		<stop  offset="1.648350e-02" style="stop-color:#FFFFFF"/>
		<stop  offset="0.2376" style="stop-color:#F7F7F7"/>
		<stop  offset="0.2692" style="stop-color:#F5F5F5"/>
		<stop  offset="0.6374" style="stop-color:#EEEEEE"/>
		<stop  offset="1" style="stop-color:#BDBDBD"/>
	</radialGradient>
	<path fill="url(#SVGID_4_)" d="M150.2,2.8c-1.6,0-3.1,0-4.6,0v113c0.9,0,1.8,0.1,2.7,0.1c66,1.1,119.9-23.3,120.4-54.5
		C269.2,30.2,216.1,3.9,150.2,2.8z"/>
	<linearGradient id="SVGID_5_" gradientUnits="userSpaceOnUse" x1="130.2631" y1="59.3373" x2="162.0613" y2="59.3373">
		<stop  offset="5.494510e-03" style="stop-color:#EEEEEE"/>
		<stop  offset="0.1952" style="stop-color:#E6E6E6"/>
		<stop  offset="0.4505" style="stop-color:#E0E0E0"/>
		<stop  offset="0.7164" style="stop-color:#EDEDED"/>
		<stop  offset="0.978" style="stop-color:#F5F5F5"/>
	</linearGradient>
	<path fill="url(#SVGID_5_)" d="M162.1,59.3c0,31.2-7.1,56.4-15.9,56.4c-8.8,0-15.9-25.3-15.9-56.4c0-31.2,7.1-56.4,15.9-56.4
		C154.9,2.9,162.1,28.2,162.1,59.3z"/>
</g>
<g>
	
		<radialGradient id="SVGID_6_" cx="418.5325" cy="2178.6555" r="111.7075" gradientTransform="matrix(1.3428 0 0 0.1661 -136.6019 -242.8256)" gradientUnits="userSpaceOnUse">
		<stop  offset="5.494510e-03" style="stop-color:#817E7A"/>
		<stop  offset="0.3901" style="stop-color:#D0D1D7"/>
		<stop  offset="0.4459" style="stop-color:#D8D9DE"/>
		<stop  offset="0.6405" style="stop-color:#EDEEF0"/>
		<stop  offset="0.8282" style="stop-color:#FBFBFB"/>
		<stop  offset="1" style="stop-color:#FFFFFF"/>
	</radialGradient>
	<path fill="url(#SVGID_6_)" d="M324.7,130.2c12-0.1,23.7-2.1,35.6-3.8c10.7-1.6,21.4-2.6,32.2-3.3c5.3-0.3,10.6-0.6,16-0.7
		c4.1-1.4,8.2-3.1,12.3-4.6v-0.8c-1.2-5.7-0.9-11.2,0-16.7C340,100.8,275.4,109,275.4,119c0,5.2,17.2,9.9,45,13.2
		C321.3,131.1,322.7,130.2,324.7,130.2z"/>
	<linearGradient id="SVGID_7_" gradientUnits="userSpaceOnUse" x1="302.3554" y1="59.6488" x2="428.0263" y2="59.6488">
		<stop  offset="1.648350e-02" style="stop-color:#EEEEEE"/>
		<stop  offset="0.6374" style="stop-color:#EEEEEE"/>
		<stop  offset="0.956" style="stop-color:#EEEEEE"/>
	</linearGradient>
	<path fill="url(#SVGID_7_)" d="M420.8,98.3c-2.9-5.1-4-11.1-2.1-17.3c0.7-2.2,1.5-4.1,2.1-6.1v-11c-1.4-4.6-3.3-9.1-3.9-13.9
		c-0.7-5.7,0.3-11.2,2.4-16.4c0.5-1.1,1-2.2,1.5-3.3V0.4c-65.9,0.1-117.9,25.2-118.4,57.2c-0.5,32.4,49.9,58.8,115.8,61.2
		c0.9-0.3,1.7-0.6,2.6-0.9v-0.8c-1.2-5.8-0.9-11.4,0-17V98.3z"/>
	<radialGradient id="SVGID_8_" cx="324.2345" cy="45.1437" r="165.1909" gradientUnits="userSpaceOnUse">
		<stop  offset="1.648350e-02" style="stop-color:#FFFFFF"/>
		<stop  offset="0.2376" style="stop-color:#F7F7F7"/>
		<stop  offset="0.2692" style="stop-color:#F5F5F5"/>
		<stop  offset="0.6374" style="stop-color:#EEEEEE"/>
		<stop  offset="1" style="stop-color:#BDBDBD"/>
	</radialGradient>
	<path fill="url(#SVGID_8_)" d="M420.8,98.3c-2.9-5.1-4-11.1-2.1-17.3c0.7-2.2,1.5-4.1,2.1-6.1v-11c-1.4-4.6-3.3-9.1-3.9-13.9
		c-0.7-5.7,0.3-11.2,2.4-16.4c0.5-1.1,1-2.2,1.5-3.3v-27c-63.8,0.1-115.1,24-115.7,54.5c-0.5,30.8,50.9,56.7,115.5,58.5
		c-1-5.5-0.7-10.7,0.2-16V98.3z"/>
	<linearGradient id="SVGID_9_" gradientUnits="userSpaceOnUse" x1="405.6541" y1="59.736" x2="437.4523" y2="59.736">
		<stop  offset="5.494510e-03" style="stop-color:#EEEEEE"/>
		<stop  offset="0.1952" style="stop-color:#E6E6E6"/>
		<stop  offset="0.4505" style="stop-color:#E0E0E0"/>
		<stop  offset="0.7164" style="stop-color:#EDEDED"/>
		<stop  offset="0.978" style="stop-color:#F5F5F5"/>
	</linearGradient>
	<path fill="url(#SVGID_9_)" d="M420.8,98.3c-2.9-5.1-4-11.1-2.1-17.3c0.7-2.2,1.5-4.1,2.1-6.1v-11c-1.4-4.6-3.3-9.1-3.9-13.9
		c-0.7-5.7,0.3-11.2,2.4-16.4c0.5-1.1,1-2.2,1.5-3.3V3.4c-8.4,1.5-15.1,26.1-15.1,56.4c0,30,6.6,54.5,14.9,56.3
		c-1-5.4-0.7-10.7,0.2-15.9V98.3z"/>
</g>
</svg>
