<?xml version="1.0" encoding="utf-8"?>
<!-- Generator: Adobe Illustrator 18.1.1, SVG Export Plug-In . SVG Version: 6.00 Build 0)  -->
<!DOCTYPE svg PUBLIC "-//W3C//DTD SVG 1.1//EN" "http://www.w3.org/Graphics/SVG/1.1/DTD/svg11.dtd">
<svg version="1.1" id="Layer_1" xmlns="http://www.w3.org/2000/svg" xmlns:xlink="http://www.w3.org/1999/xlink" x="0px" y="0px"
	 viewBox="0 0 300 137.1" enable-background="new 0 0 300 137.1" xml:space="preserve">
<radialGradient id="SVGID_1_" cx="213.6401" cy="2176.0027" r="111.7081" gradientTransform="matrix(1.3428 0 0 0.1661 -136.8695 -242.8113)" gradientUnits="userSpaceOnUse">
	<stop  offset="5.494510e-03" style="stop-color:#817E7A"/>
	<stop  offset="0.3901" style="stop-color:#D0D1D7"/>
	<stop  offset="0.4459" style="stop-color:#D8D9DE"/>
	<stop  offset="0.6405" style="stop-color:#EDEEF0"/>
	<stop  offset="0.8282" style="stop-color:#FBFBFB"/>
	<stop  offset="1" style="stop-color:#FFFFFF"/>
</radialGradient>
<path fill="url(#SVGID_1_)" d="M300,118.6c0,10.2-67.2,18.5-150,18.5c-82.8,0-150-8.3-150-18.5C0,108.3,67.2,100,150,100
	C232.8,100,300,108.3,300,118.6z"/>
<g>
	<linearGradient id="SVGID_2_" gradientUnits="userSpaceOnUse" x1="26.9644" y1="59.3159" x2="271.3831" y2="59.3159">
		<stop  offset="1.648350e-02" style="stop-color:#EEEEEE"/>
		<stop  offset="0.6374" style="stop-color:#EEEEEE"/>
		<stop  offset="0.956" style="stop-color:#EEEEEE"/>
	</linearGradient>
	<path fill="url(#SVGID_2_)" d="M152.6,118.6c-1.5,0-3,0-4.5,0C79.6,117.4,26.4,90.4,27,57.2C27.5,25.1,79.7,0,145.7,0
		c1.5,0,3,0,4.5,0c32.3,0.6,62.6,7.1,85.4,18.3c23.4,11.6,36.1,26.9,35.8,43.1C270.8,93.5,218.7,118.6,152.6,118.6L152.6,118.6z"/>
	<radialGradient id="SVGID_3_" cx="48.8435" cy="44.7175" r="165.1909" gradientUnits="userSpaceOnUse">
		<stop  offset="1.648350e-02" style="stop-color:#FFFFFF"/>
		<stop  offset="0.2376" style="stop-color:#F7F7F7"/>
		<stop  offset="0.2692" style="stop-color:#F5F5F5"/>
		<stop  offset="0.6374" style="stop-color:#EEEEEE"/>
		<stop  offset="1" style="stop-color:#BDBDBD"/>
	</radialGradient>
	<path fill="url(#SVGID_3_)" d="M268.6,61.4c-0.5,31.2-54.5,55.6-120.4,54.5c-66-1.1-119-27.4-118.5-58.6
		C30.2,26,84.2,1.6,150.2,2.8C216.1,3.9,269.2,30.2,268.6,61.4z"/>
	<radialGradient id="SVGID_4_" cx="125.463" cy="55.6625" r="187.9282" gradientUnits="userSpaceOnUse">
		<stop  offset="1.648350e-02" style="stop-color:#FFFFFF"/>
		<stop  offset="0.2376" style="stop-color:#F7F7F7"/>
		<stop  offset="0.2692" style="stop-color:#F5F5F5"/>
		<stop  offset="0.6374" style="stop-color:#EEEEEE"/>
		<stop  offset="1" style="stop-color:#BDBDBD"/>
	</radialGradient>
	<path fill="url(#SVGID_4_)" d="M150.2,2.8c-1.6,0-3.1,0-4.6,0v113c0.9,0,1.8,0.1,2.7,0.1c66,1.1,119.9-23.3,120.4-54.5
		C269.2,30.2,216.1,3.9,150.2,2.8z"/>
	<linearGradient id="SVGID_5_" gradientUnits="userSpaceOnUse" x1="130.2631" y1="59.3373" x2="162.0613" y2="59.3373">
		<stop  offset="5.494510e-03" style="stop-color:#EEEEEE"/>
		<stop  offset="0.1952" style="stop-color:#E6E6E6"/>
		<stop  offset="0.4505" style="stop-color:#E0E0E0"/>
		<stop  offset="0.7164" style="stop-color:#EDEDED"/>
		<stop  offset="0.978" style="stop-color:#F5F5F5"/>
	</linearGradient>
	<path fill="url(#SVGID_5_)" d="M162.1,59.3c0,31.2-7.1,56.4-15.9,56.4c-8.8,0-15.9-25.3-15.9-56.4c0-31.2,7.1-56.4,15.9-56.4
		C154.9,2.9,162.1,28.2,162.1,59.3z"/>
</g>
</svg>
