<?xml version="1.0" encoding="utf-8"?>
<!-- Generator: Adobe Illustrator 18.1.1, SVG Export Plug-In . SVG Version: 6.00 Build 0)  -->
<!DOCTYPE svg PUBLIC "-//W3C//DTD SVG 1.1//EN" "http://www.w3.org/Graphics/SVG/1.1/DTD/svg11.dtd">
<svg version="1.1" id="Layer_1" xmlns="http://www.w3.org/2000/svg" xmlns:xlink="http://www.w3.org/1999/xlink" x="0px" y="0px"
	 viewBox="0 0 219.5 70.7" enable-background="new 0 0 219.5 70.7" xml:space="preserve">
<g>
	
		<radialGradient id="SVGID_1_" cx="169.7016" cy="1977.4119" r="48.3298" gradientTransform="matrix(1.3428 0 0 0.1661 -147.4154 -265.7144)" gradientUnits="userSpaceOnUse">
		<stop  offset="5.494510e-03" style="stop-color:#817E7A"/>
		<stop  offset="0.3901" style="stop-color:#D0D1D7"/>
		<stop  offset="0.4748" style="stop-color:#D8D9DE"/>
		<stop  offset="0.8076" style="stop-color:#F4F5F6"/>
		<stop  offset="1" style="stop-color:#FFFFFF"/>
	</radialGradient>
	<ellipse fill="url(#SVGID_1_)" cx="80.5" cy="62.7" rx="64.9" ry="8"/>
	<g>
		
			<radialGradient id="SVGID_2_" cx="367.3219" cy="-763.9164" r="57.4641" gradientTransform="matrix(0.2295 -0.9733 0.9733 0.2295 705.0732 574.6703)" gradientUnits="userSpaceOnUse">
			<stop  offset="0" style="stop-color:#F9E3FF"/>
			<stop  offset="0.2802" style="stop-color:#FF8DF3"/>
			<stop  offset="0.6429" style="stop-color:#D600B6"/>
			<stop  offset="1" style="stop-color:#AD0083"/>
		</radialGradient>
		<path fill="url(#SVGID_2_)" d="M90.9,14.4c14.5,3.4,23.7,17.4,20.5,31c-3.2,13.6-17.7,22-32.2,18.6l-58-13.7
			C6.7,46.9-2.6,33,0.6,19.3C3.9,5.7,18.3-2.7,32.8,0.8L90.9,14.4z"/>
		
			<radialGradient id="SVGID_3_" cx="361.5426" cy="-801.476" r="68.7571" gradientTransform="matrix(0.2295 -0.9733 0.9733 0.2295 705.0732 574.6703)" gradientUnits="userSpaceOnUse">
			<stop  offset="0" style="stop-color:#FFC0EB"/>
			<stop  offset="0.2802" style="stop-color:#FF0DED"/>
			<stop  offset="0.6429" style="stop-color:#EC00A6"/>
			<stop  offset="1" style="stop-color:#9D006B"/>
		</radialGradient>
		<path fill="url(#SVGID_3_)" d="M0.6,19.3c-3.2,13.6,6,27.6,20.5,31l27.1,6.4L59.9,7.2L32.8,0.8C18.3-2.7,3.9,5.7,0.6,19.3z"/>
		<g>
			
				<linearGradient id="SVGID_4_" gradientUnits="userSpaceOnUse" x1="378.8805" y1="-762.3847" x2="378.8805" y2="-754.9792" gradientTransform="matrix(0.2295 -0.9733 0.9733 0.2295 705.0732 574.6703)">
				<stop  offset="1.098900e-02" style="stop-color:#7A007A"/>
				<stop  offset="0.1695" style="stop-color:#A121A2"/>
				<stop  offset="0.3557" style="stop-color:#C843CA"/>
				<stop  offset="0.526" style="stop-color:#E45BE7"/>
				<stop  offset="0.6731" style="stop-color:#F56AF9"/>
				<stop  offset="0.7802" style="stop-color:#FB6FFF"/>
			</linearGradient>
			<polygon fill="url(#SVGID_4_)" points="63,7.8 51.3,57.5 44.1,55.8 55.8,6.1 			"/>
			
				<rect x="56.7" y="7.1" transform="matrix(-0.9728 -0.2317 0.2317 -0.9728 104.8018 77.5244)" fill="#FFFBD4" width="0.5" height="51"/>
		</g>
	</g>
</g>
<g>
	
		<radialGradient id="SVGID_5_" cx="224.2429" cy="1912.9971" r="48.3299" gradientTransform="matrix(1.3352 -0.1427 1.765405e-02 0.1651 -178.2114 -229.0489)" gradientUnits="userSpaceOnUse">
		<stop  offset="5.494510e-03" style="stop-color:#817E7A"/>
		<stop  offset="0.3901" style="stop-color:#D0D1D7"/>
		<stop  offset="0.4748" style="stop-color:#D8D9DE"/>
		<stop  offset="0.8076" style="stop-color:#F4F5F6"/>
		<stop  offset="1" style="stop-color:#FFFFFF"/>
	</radialGradient>
	<path fill="url(#SVGID_5_)" d="M154.1,46.9c-11.7,1.3-22.7,2.8-32.1,4.5c-0.5,1.3-1,2.6-1.5,3.9c0.8,0.2,1.5,0.6,2.3,1
		c0.1,0.1,0.2,0.1,0.4,0.2c8.5,1.5,16.7,4.3,24.8,7.1c2.6-0.2,5.2-0.5,7.9-0.8C191.5,59,220,52.4,219.5,48
		C219,43.6,189.7,43.1,154.1,46.9z"/>
	<g>
		
			<radialGradient id="SVGID_6_" cx="394.5397" cy="-695.089" r="57.4641" gradientTransform="matrix(0.1247 -0.9922 0.9922 0.1247 758.7754 515.9605)" gradientUnits="userSpaceOnUse">
			<stop  offset="0" style="stop-color:#F9E3FF"/>
			<stop  offset="0.2802" style="stop-color:#FF8DF3"/>
			<stop  offset="0.6429" style="stop-color:#D600B6"/>
			<stop  offset="1" style="stop-color:#AD0083"/>
		</radialGradient>
		<path fill="url(#SVGID_6_)" d="M160.2,5.8l-32.8-4.1c-0.8,3.9-1.7,7.8-2.6,11.7c0.2,1.2,0.4,2.4,0.6,3.6
			c1.1,10.8,0.6,24.2-3.6,35.4l32.1,4c14.8,1.9,28.3-8,30-21.9C185.6,20.5,175,7.6,160.2,5.8z"/>
		
			<radialGradient id="SVGID_7_" cx="388.7604" cy="-732.6486" r="68.7571" gradientTransform="matrix(0.1247 -0.9922 0.9922 0.1247 758.7754 515.9605)" gradientUnits="userSpaceOnUse">
			<stop  offset="0" style="stop-color:#FFC0EB"/>
			<stop  offset="0.2802" style="stop-color:#FF0DED"/>
			<stop  offset="0.6429" style="stop-color:#EC00A6"/>
			<stop  offset="1" style="stop-color:#9D006B"/>
		</radialGradient>
		<path fill="url(#SVGID_7_)" d="M124.7,13.3c0.2,1.2,0.4,2.4,0.6,3.6c0.3,2.5,0.4,5.1,0.5,7.8l2.9-22.9l-1.3-0.2
			C126.6,5.6,125.7,9.4,124.7,13.3z"/>
		<g>
			
				<linearGradient id="SVGID_8_" gradientUnits="userSpaceOnUse" x1="406.0981" y1="-693.5573" x2="406.0981" y2="-686.1519" gradientTransform="matrix(0.1247 -0.9922 0.9922 0.1247 758.7754 515.9605)">
				<stop  offset="1.098900e-02" style="stop-color:#7A007A"/>
				<stop  offset="0.1695" style="stop-color:#A121A2"/>
				<stop  offset="0.3557" style="stop-color:#C843CA"/>
				<stop  offset="0.526" style="stop-color:#E45BE7"/>
				<stop  offset="0.6731" style="stop-color:#F56AF9"/>
				<stop  offset="0.7802" style="stop-color:#FB6FFF"/>
			</linearGradient>
			<path fill="url(#SVGID_8_)" d="M124.7,13.3c0.2,1.2,0.4,2.4,0.6,3.6c1.1,10.8,0.6,24.2-3.6,35.4l3.7,0.5l6.4-50.6l-4.5-0.6
				C126.6,5.5,125.7,9.4,124.7,13.3z"/>
			
				<rect x="128.2" y="1.9" transform="matrix(-0.9919 -0.1269 0.1269 -0.9919 252.2641 70.9545)" fill="#FFFBD4" width="0.5" height="51"/>
		</g>
	</g>
</g>
</svg>
