<?xml version="1.0" encoding="utf-8"?>
<!-- Generator: Adobe Illustrator 18.1.1, SVG Export Plug-In . SVG Version: 6.00 Build 0)  -->
<!DOCTYPE svg PUBLIC "-//W3C//DTD SVG 1.1//EN" "http://www.w3.org/Graphics/SVG/1.1/DTD/svg11.dtd">
<svg version="1.1" id="Layer_1" xmlns="http://www.w3.org/2000/svg" xmlns:xlink="http://www.w3.org/1999/xlink" x="0px" y="0px"
	 viewBox="0 0 220.8 115.7" enable-background="new 0 0 220.8 115.7" xml:space="preserve">
<g>
	
		<radialGradient id="SVGID_1_" cx="55.5944" cy="1692.7438" r="54.7824" gradientTransform="matrix(1 0 0 0.2077 0 -247.2873)" gradientUnits="userSpaceOnUse">
		<stop  offset="5.494510e-03" style="stop-color:#817E7A"/>
		<stop  offset="0.511" style="stop-color:#D0D1D7"/>
		<stop  offset="0.5557" style="stop-color:#D8D9DE"/>
		<stop  offset="0.7117" style="stop-color:#EDEEF0"/>
		<stop  offset="0.8622" style="stop-color:#FBFBFB"/>
		<stop  offset="1" style="stop-color:#FFFFFF"/>
	</radialGradient>
	<ellipse fill="url(#SVGID_1_)" cx="55.6" cy="104.3" rx="54.8" ry="11.4"/>
	<g>
		
			<linearGradient id="SVGID_2_" gradientUnits="userSpaceOnUse" x1="28.2966" y1="2.644565e-02" x2="28.2966" y2="105.842" gradientTransform="matrix(-0.7075 -0.7067 -0.7067 0.7075 122.0315 50.5128)">
			<stop  offset="0" style="stop-color:#FAFBFB"/>
			<stop  offset="0.1923" style="stop-color:#C26572"/>
			<stop  offset="0.5385" style="stop-color:#E68679"/>
			<stop  offset="0.6016" style="stop-color:#E2867B"/>
			<stop  offset="0.6598" style="stop-color:#D78781"/>
			<stop  offset="0.716" style="stop-color:#C5888C"/>
			<stop  offset="0.7198" style="stop-color:#C3888D"/>
			<stop  offset="0.7798" style="stop-color:#C2868A"/>
			<stop  offset="0.8208" style="stop-color:#BE8181"/>
			<stop  offset="0.856" style="stop-color:#B87872"/>
			<stop  offset="0.8878" style="stop-color:#B06B5D"/>
			<stop  offset="0.8956" style="stop-color:#AD6756"/>
		</linearGradient>
		<path fill="url(#SVGID_2_)" d="M88.4,16.9l11.4,14.6c0,0,19.2,36.2-20.3,67.6c0,0-24.2,17.3-52.9,3.1c0,0-7.5-4.1-14.8-12.3
			C-5.8,69.9,88.4,16.9,88.4,16.9z"/>
		
			<linearGradient id="SVGID_3_" gradientUnits="userSpaceOnUse" x1="31.137" y1="4.8623" x2="72.3671" y2="108.198" gradientTransform="matrix(-0.7075 -0.7067 -0.7067 0.7075 122.0315 50.5128)">
			<stop  offset="0" style="stop-color:#FFD5D0"/>
			<stop  offset="8.950256e-02" style="stop-color:#FFC8BA"/>
			<stop  offset="0.3297" style="stop-color:#FFA682"/>
			<stop  offset="0.6319" style="stop-color:#E86F74"/>
			<stop  offset="0.725" style="stop-color:#E46F75"/>
			<stop  offset="0.8108" style="stop-color:#D96F77"/>
			<stop  offset="0.8846" style="stop-color:#C96E7A"/>
			<stop  offset="0.9184" style="stop-color:#CD707A"/>
			<stop  offset="0.9485" style="stop-color:#D7777C"/>
			<stop  offset="0.977" style="stop-color:#E9827E"/>
			<stop  offset="1" style="stop-color:#FE8E80"/>
		</linearGradient>
		<path fill="url(#SVGID_3_)" d="M17.2,20.5C-3.4,41.2-5.9,72.2,11.7,89.8c17.6,17.6,48.6,15.1,69.3-5.6
			c20.6-20.7,23.1-51.7,5.5-69.3C68.9-2.6,37.9-0.2,17.2,20.5z"/>
		<path fill="#FF923E" d="M78.1,82.2l-58.6-58C19.5,24.2,46.5,38.5,78.1,82.2z"/>
		<path fill="#FFA55E" d="M77.3,83L19.2,24.5C19.2,24.5,33.5,51.5,77.3,83z"/>
	</g>
</g>
<g>
	
		<radialGradient id="SVGID_4_" cx="165.9712" cy="1677.2347" r="54.7824" gradientTransform="matrix(1 0 0 0.2077 0 -247.2873)" gradientUnits="userSpaceOnUse">
		<stop  offset="5.494510e-03" style="stop-color:#817E7A"/>
		<stop  offset="0.511" style="stop-color:#D0D1D7"/>
		<stop  offset="0.5557" style="stop-color:#D8D9DE"/>
		<stop  offset="0.7117" style="stop-color:#EDEEF0"/>
		<stop  offset="0.8622" style="stop-color:#FBFBFB"/>
		<stop  offset="1" style="stop-color:#FFFFFF"/>
	</radialGradient>
	<ellipse fill="url(#SVGID_4_)" cx="166" cy="101.1" rx="54.8" ry="11.4"/>
	<g>
		
			<linearGradient id="SVGID_5_" gradientUnits="userSpaceOnUse" x1="-47.5162" y1="-80.2596" x2="-47.5162" y2="25.5559" gradientTransform="matrix(-0.7075 -0.7067 -0.7067 0.7075 122.0315 50.5128)">
			<stop  offset="0" style="stop-color:#FAFBFB"/>
			<stop  offset="0.1923" style="stop-color:#C26572"/>
			<stop  offset="0.5385" style="stop-color:#E68679"/>
			<stop  offset="0.6016" style="stop-color:#E2867B"/>
			<stop  offset="0.6598" style="stop-color:#D78781"/>
			<stop  offset="0.716" style="stop-color:#C5888C"/>
			<stop  offset="0.7198" style="stop-color:#C3888D"/>
			<stop  offset="0.7798" style="stop-color:#C2868A"/>
			<stop  offset="0.8208" style="stop-color:#BE8181"/>
			<stop  offset="0.856" style="stop-color:#B87872"/>
			<stop  offset="0.8878" style="stop-color:#B06B5D"/>
			<stop  offset="0.8956" style="stop-color:#AD6756"/>
		</linearGradient>
		<path fill="url(#SVGID_5_)" d="M198.7,13.7l11.4,14.6c0,0,19.2,36.2-20.3,67.6c0,0-24.2,17.3-52.9,3.1c0,0-7.5-4.1-14.8-12.3
			C104.6,66.7,198.7,13.7,198.7,13.7z"/>
		
			<linearGradient id="SVGID_6_" gradientUnits="userSpaceOnUse" x1="-44.6757" y1="-75.4238" x2="-3.4456" y2="27.9119" gradientTransform="matrix(-0.7075 -0.7067 -0.7067 0.7075 122.0315 50.5128)">
			<stop  offset="0" style="stop-color:#FFD5D0"/>
			<stop  offset="8.950256e-02" style="stop-color:#FFC8BA"/>
			<stop  offset="0.3297" style="stop-color:#FFA682"/>
			<stop  offset="0.6319" style="stop-color:#E86F74"/>
			<stop  offset="0.725" style="stop-color:#E46F75"/>
			<stop  offset="0.8108" style="stop-color:#D96F77"/>
			<stop  offset="0.8846" style="stop-color:#C96E7A"/>
			<stop  offset="0.9184" style="stop-color:#CD707A"/>
			<stop  offset="0.9485" style="stop-color:#D7777C"/>
			<stop  offset="0.977" style="stop-color:#E9827E"/>
			<stop  offset="1" style="stop-color:#FE8E80"/>
		</linearGradient>
		<path fill="url(#SVGID_6_)" d="M127.6,17.3C107,38,104.5,69,122.1,86.6c17.6,17.6,48.6,15.1,69.3-5.6
			c20.6-20.7,23.1-51.7,5.5-69.3C179.3-5.9,148.3-3.4,127.6,17.3z"/>
		<path fill="#FF923E" d="M188.4,79l-58.6-58C129.8,21,156.9,35.2,188.4,79z"/>
		<path fill="#FFA55E" d="M187.7,79.8l-58.1-58.5C129.6,21.3,143.8,48.3,187.7,79.8z"/>
	</g>
</g>
</svg>
