<?xml version="1.0" encoding="utf-8"?>
<!-- Generator: Adobe Illustrator 21.1.0, SVG Export Plug-In . SVG Version: 6.00 Build 0)  -->
<svg version="1.1" id="Layer_1" xmlns="http://www.w3.org/2000/svg" xmlns:xlink="http://www.w3.org/1999/xlink" x="0px" y="0px"
	 viewBox="0 0 211.8 203.4" style="enable-background:new 0 0 211.8 203.4;" xml:space="preserve">
<style type="text/css">
	.st0{fill:url(#SVGID_1_);}
	.st1{fill:url(#SVGID_2_);}
	.st2{fill:url(#SVGID_3_);}
	.st3{fill:#AEAEAE;}
	.st4{fill:#E7E7E9;}
	.st5{fill:url(#SVGID_4_);}
	.st6{fill:url(#SVGID_5_);}
	.st7{fill:url(#SVGID_6_);}
	.st8{fill:url(#SVGID_7_);}
	.st9{fill:url(#SVGID_8_);}
	.st10{fill:url(#SVGID_9_);}
</style>
<g>
	
		<radialGradient id="SVGID_1_" cx="54.8" cy="-3262.8069" r="54.7699" gradientTransform="matrix(1 0 0 -0.2077 0 -576.0126)" gradientUnits="userSpaceOnUse">
		<stop  offset="5.494510e-03" style="stop-color:#817E7A"/>
		<stop  offset="0.511" style="stop-color:#D0D1D7"/>
		<stop  offset="0.5557" style="stop-color:#D8D9DE"/>
		<stop  offset="0.7117" style="stop-color:#EDEEF0"/>
		<stop  offset="0.8622" style="stop-color:#FBFBFB"/>
		<stop  offset="1" style="stop-color:#FFFFFF"/>
	</radialGradient>
	<ellipse class="st0" cx="54.8" cy="101.7" rx="54.8" ry="11.4"/>
	<g>
		
			<linearGradient id="SVGID_2_" gradientUnits="userSpaceOnUse" x1="-1353.1591" y1="106.376" x2="-1353.1591" y2="0.5606" gradientTransform="matrix(-0.9999 1.407367e-02 -1.407367e-02 -0.9999 -1283.235 125.2406)">
			<stop  offset="0" style="stop-color:#FAFBFB"/>
			<stop  offset="0.1923" style="stop-color:#E7E7E9"/>
			<stop  offset="0.5385" style="stop-color:#C8C9CA"/>
			<stop  offset="0.6085" style="stop-color:#C5C5C6"/>
			<stop  offset="0.6731" style="stop-color:#BABBBB"/>
			<stop  offset="0.7198" style="stop-color:#AEAEAE"/>
			<stop  offset="0.7897" style="stop-color:#ABABAB"/>
			<stop  offset="0.8374" style="stop-color:#A2A2A2"/>
			<stop  offset="0.8782" style="stop-color:#939393"/>
			<stop  offset="0.8956" style="stop-color:#8A8A8A"/>
		</linearGradient>
		<path class="st1" d="M49,0.1l18.4,2c0,0,39.4,11.5,34.3,61.7c0,0-4.5,29.4-34.7,40c0,0-8.2,2.6-19.2,2C21.3,104.5,49,0.1,49,0.1z"
			/>
		
			<linearGradient id="SVGID_3_" gradientUnits="userSpaceOnUse" x1="-1350.2911" y1="101.5803" x2="-1309.061" y2="-1.7554" gradientTransform="matrix(-0.9999 1.407367e-02 -1.407367e-02 -0.9999 -1283.235 125.2406)">
			<stop  offset="0" style="stop-color:#F9F9FA"/>
			<stop  offset="0.3297" style="stop-color:#E7E7E9"/>
			<stop  offset="0.6319" style="stop-color:#C8C9CA"/>
			<stop  offset="0.7296" style="stop-color:#C5C5C6"/>
			<stop  offset="0.8195" style="stop-color:#BABBBB"/>
			<stop  offset="0.8846" style="stop-color:#AEAEAE"/>
			<stop  offset="0.9249" style="stop-color:#AAAAAA"/>
			<stop  offset="0.9607" style="stop-color:#A0A0A0"/>
			<stop  offset="0.9947" style="stop-color:#8E8E8E"/>
			<stop  offset="1" style="stop-color:#8A8A8A"/>
		</linearGradient>
		<path class="st2" d="M2,53.5c0.4,29.2,20.9,52.6,45.8,52.3c24.9-0.4,44.7-24.3,44.3-53.5C91.7,23,71.2-0.3,46.3,0
			C21.4,0.4,1.5,24.3,2,53.5z"/>
		<path class="st3" d="M88.6,53L6.1,54.5C6.1,54.5,35.2,45,88.6,53z"/>
		<path class="st4" d="M88.6,54.1L6.2,54.9C6.2,54.9,35.5,63.5,88.6,54.1z"/>
	</g>
</g>
<g>
	
		<radialGradient id="SVGID_4_" cx="156.9556" cy="-3300.9172" r="54.7699" gradientTransform="matrix(1 0 0 -0.2077 0 -576.0126)" gradientUnits="userSpaceOnUse">
		<stop  offset="5.494510e-03" style="stop-color:#817E7A"/>
		<stop  offset="0.511" style="stop-color:#D0D1D7"/>
		<stop  offset="0.5557" style="stop-color:#D8D9DE"/>
		<stop  offset="0.7117" style="stop-color:#EDEEF0"/>
		<stop  offset="0.8622" style="stop-color:#FBFBFB"/>
		<stop  offset="1" style="stop-color:#FFFFFF"/>
	</radialGradient>
	<ellipse class="st5" cx="157" cy="109.6" rx="54.8" ry="11.4"/>
	<g>
		
			<linearGradient id="SVGID_5_" gradientUnits="userSpaceOnUse" x1="-1455.1932" y1="97.0236" x2="-1455.1932" y2="-8.7919" gradientTransform="matrix(-0.9999 1.407367e-02 -1.407367e-02 -0.9999 -1283.235 125.2406)">
			<stop  offset="0" style="stop-color:#FAFBFB"/>
			<stop  offset="0.1923" style="stop-color:#E7E7E9"/>
			<stop  offset="0.5385" style="stop-color:#C8C9CA"/>
			<stop  offset="0.6085" style="stop-color:#C5C5C6"/>
			<stop  offset="0.6731" style="stop-color:#BABBBB"/>
			<stop  offset="0.7198" style="stop-color:#AEAEAE"/>
			<stop  offset="0.7897" style="stop-color:#ABABAB"/>
			<stop  offset="0.8374" style="stop-color:#A2A2A2"/>
			<stop  offset="0.8782" style="stop-color:#939393"/>
			<stop  offset="0.8956" style="stop-color:#8A8A8A"/>
		</linearGradient>
		<path class="st6" d="M151.2,8l18.4,2c0,0,39.4,11.5,34.3,61.7c0,0-4.5,29.4-34.7,40c0,0-8.2,2.6-19.2,2
			C123.5,112.4,151.2,8,151.2,8z"/>
		
			<linearGradient id="SVGID_6_" gradientUnits="userSpaceOnUse" x1="-1452.3253" y1="92.2279" x2="-1411.0952" y2="-11.1079" gradientTransform="matrix(-0.9999 1.407367e-02 -1.407367e-02 -0.9999 -1283.235 125.2406)">
			<stop  offset="0" style="stop-color:#F9F9FA"/>
			<stop  offset="0.3297" style="stop-color:#E7E7E9"/>
			<stop  offset="0.6319" style="stop-color:#C8C9CA"/>
			<stop  offset="0.7296" style="stop-color:#C5C5C6"/>
			<stop  offset="0.8195" style="stop-color:#BABBBB"/>
			<stop  offset="0.8846" style="stop-color:#AEAEAE"/>
			<stop  offset="0.9249" style="stop-color:#AAAAAA"/>
			<stop  offset="0.9607" style="stop-color:#A0A0A0"/>
			<stop  offset="0.9947" style="stop-color:#8E8E8E"/>
			<stop  offset="1" style="stop-color:#8A8A8A"/>
		</linearGradient>
		<path class="st7" d="M104.2,61.4c0.4,29.2,20.9,52.6,45.8,52.3c24.9-0.4,44.7-24.3,44.3-53.5c-0.4-29.3-20.9-52.6-45.8-52.3
			C123.6,8.3,103.7,32.2,104.2,61.4z"/>
		<path class="st3" d="M190.8,60.9l-82.5,1.5C108.3,62.4,137.4,52.9,190.8,60.9z"/>
		<path class="st4" d="M190.8,62l-82.4,0.8C108.4,62.8,137.7,71.4,190.8,62z"/>
	</g>
</g>
<g>
	
		<radialGradient id="SVGID_7_" cx="105.8778" cy="-3697.5823" r="54.7699" gradientTransform="matrix(1 0 0 -0.2077 0 -576.0126)" gradientUnits="userSpaceOnUse">
		<stop  offset="5.494510e-03" style="stop-color:#817E7A"/>
		<stop  offset="0.511" style="stop-color:#D0D1D7"/>
		<stop  offset="0.5557" style="stop-color:#D8D9DE"/>
		<stop  offset="0.7117" style="stop-color:#EDEEF0"/>
		<stop  offset="0.8622" style="stop-color:#FBFBFB"/>
		<stop  offset="1" style="stop-color:#FFFFFF"/>
	</radialGradient>
	<ellipse class="st8" cx="105.9" cy="192" rx="54.8" ry="11.4"/>
	<g>
		
			<linearGradient id="SVGID_8_" gradientUnits="userSpaceOnUse" x1="-1402.9609" y1="15.3632" x2="-1402.9609" y2="-90.4523" gradientTransform="matrix(-0.9999 1.407367e-02 -1.407367e-02 -0.9999 -1283.235 125.2406)">
			<stop  offset="0" style="stop-color:#FAFBFB"/>
			<stop  offset="0.1923" style="stop-color:#E7E7E9"/>
			<stop  offset="0.5385" style="stop-color:#C8C9CA"/>
			<stop  offset="0.6085" style="stop-color:#C5C5C6"/>
			<stop  offset="0.6731" style="stop-color:#BABBBB"/>
			<stop  offset="0.7198" style="stop-color:#AEAEAE"/>
			<stop  offset="0.7897" style="stop-color:#ABABAB"/>
			<stop  offset="0.8374" style="stop-color:#A2A2A2"/>
			<stop  offset="0.8782" style="stop-color:#939393"/>
			<stop  offset="0.8956" style="stop-color:#8A8A8A"/>
		</linearGradient>
		<path class="st9" d="M100.1,90.4l18.4,2c0,0,39.4,11.5,34.3,61.7c0,0-4.5,29.4-34.7,40c0,0-8.2,2.6-19.2,2
			C72.4,194.8,100.1,90.4,100.1,90.4z"/>
		
			<linearGradient id="SVGID_9_" gradientUnits="userSpaceOnUse" x1="-1400.093" y1="10.5675" x2="-1358.8629" y2="-92.7682" gradientTransform="matrix(-0.9999 1.407367e-02 -1.407367e-02 -0.9999 -1283.235 125.2406)">
			<stop  offset="0" style="stop-color:#F9F9FA"/>
			<stop  offset="0.3297" style="stop-color:#E7E7E9"/>
			<stop  offset="0.6319" style="stop-color:#C8C9CA"/>
			<stop  offset="0.7296" style="stop-color:#C5C5C6"/>
			<stop  offset="0.8195" style="stop-color:#BABBBB"/>
			<stop  offset="0.8846" style="stop-color:#AEAEAE"/>
			<stop  offset="0.9249" style="stop-color:#AAAAAA"/>
			<stop  offset="0.9607" style="stop-color:#A0A0A0"/>
			<stop  offset="0.9947" style="stop-color:#8E8E8E"/>
			<stop  offset="1" style="stop-color:#8A8A8A"/>
		</linearGradient>
		<path class="st10" d="M53.1,143.8c0.4,29.2,20.9,52.6,45.8,52.3c24.9-0.4,44.7-24.3,44.3-53.5c-0.4-29.3-20.9-52.6-45.8-52.3
			C72.5,90.7,52.6,114.6,53.1,143.8z"/>
		<path class="st3" d="M139.7,143.3l-82.5,1.5C57.2,144.8,86.3,135.3,139.7,143.3z"/>
		<path class="st4" d="M139.7,144.4l-82.4,0.8C57.3,145.2,86.6,153.8,139.7,144.4z"/>
	</g>
</g>
</svg>
