<?xml version="1.0" encoding="utf-8"?>
<!-- Generator: Adobe Illustrator 18.1.1, SVG Export Plug-In . SVG Version: 6.00 Build 0)  -->
<!DOCTYPE svg PUBLIC "-//W3C//DTD SVG 1.1//EN" "http://www.w3.org/Graphics/SVG/1.1/DTD/svg11.dtd">
<svg version="1.1" id="Layer_1" xmlns="http://www.w3.org/2000/svg" xmlns:xlink="http://www.w3.org/1999/xlink" x="0px" y="0px"
	 viewBox="0 0 324.5 175.4" enable-background="new 0 0 324.5 175.4" xml:space="preserve">
<g>
	
		<radialGradient id="SVGID_1_" cx="-229.8166" cy="-1441.2128" r="10.3976" gradientTransform="matrix(4.8 0 0 -0.7973 1377.6796 -1048.7379)" gradientUnits="userSpaceOnUse">
		<stop  offset="5.494510e-03" style="stop-color:#817E7A"/>
		<stop  offset="0.3901" style="stop-color:#D0D1D7"/>
		<stop  offset="0.4459" style="stop-color:#D8D9DE"/>
		<stop  offset="0.6405" style="stop-color:#EDEEF0"/>
		<stop  offset="0.8282" style="stop-color:#FBFBFB"/>
		<stop  offset="1" style="stop-color:#FFFFFF"/>
	</radialGradient>
	<ellipse fill="url(#SVGID_1_)" cx="274.6" cy="100.3" rx="49.9" ry="8.3"/>
	
		<radialGradient id="SVGID_2_" cx="-234.3261" cy="367.6488" r="19.3458" gradientTransform="matrix(4.8 0 0 -4.8 1377.6796 1790.3514)" gradientUnits="userSpaceOnUse">
		<stop  offset="0.3297" style="stop-color:#FFAB91"/>
		<stop  offset="0.4644" style="stop-color:#FFA78C"/>
		<stop  offset="0.6334" style="stop-color:#FF9B7C"/>
		<stop  offset="0.8197" style="stop-color:#FF8863"/>
		<stop  offset="1" style="stop-color:#FF7043"/>
	</radialGradient>
	<path fill="url(#SVGID_2_)" d="M274.5,99.9c27.5,0,49.9-22.5,49.9-49.9S301.9,0,274.5,0s-49.9,22.5-49.9,49.9
		C224.6,77.4,247,99.9,274.5,99.9z"/>
	
		<linearGradient id="SVGID_3_" gradientUnits="userSpaceOnUse" x1="-233.0014" y1="368.2875" x2="-221.0394" y2="346.7561" gradientTransform="matrix(4.8 0 0 -4.8 1377.6796 1790.3514)">
		<stop  offset="0" style="stop-color:#FFCCBC"/>
		<stop  offset="0.3297" style="stop-color:#FFAB91"/>
		<stop  offset="0.6319" style="stop-color:#FF7043"/>
		<stop  offset="0.7127" style="stop-color:#FD6D3F"/>
		<stop  offset="0.7873" style="stop-color:#F66334"/>
		<stop  offset="0.8592" style="stop-color:#EB5222"/>
		<stop  offset="0.8846" style="stop-color:#E64A19"/>
		<stop  offset="0.9464" style="stop-color:#EA4C1A"/>
		<stop  offset="1" style="stop-color:#F4511E"/>
	</linearGradient>
	<path fill="url(#SVGID_3_)" d="M274.5,2.4c9.3,0,18,2.7,25.3,7.3l-55,77.3c-10.8-8.7-17.8-22.1-17.8-37
		C227,23.7,248.2,2.4,274.5,2.4L274.5,2.4z M304.2,12.8C315,21.5,322,34.9,322,49.9c0,26.2-21.3,47.6-47.6,47.6
		c-9.3,0-18-2.7-25.3-7.3L304.2,12.8z"/>
	<polygon fill="#D17971" points="299.8,9.7 244.8,87 245.9,88.4 301.5,11.6 	"/>
	
		<linearGradient id="SVGID_4_" gradientUnits="userSpaceOnUse" x1="-233.3694" y1="370.6239" x2="-231.7745" y2="366.3707" gradientTransform="matrix(4.8 0 0 -4.8 1377.6796 1790.3514)">
		<stop  offset="0.1484" style="stop-color:#FAEBDD"/>
		<stop  offset="1" style="stop-color:#EEC2B9"/>
	</linearGradient>
	<path fill="url(#SVGID_4_)" d="M227.2,45.2c17.4-4.6,43.7-13,66.4-26.6l6.2-8.8c-7.3-4.6-16-7.3-25.3-7.3
		C249.9,2.4,229.6,21.1,227.2,45.2z"/>
	<polygon fill="#FBE2EA" points="249.2,90.1 304.2,12.8 248,89.4 	"/>
</g>
<g>
	
		<radialGradient id="SVGID_5_" cx="-260.6552" cy="-1441.2128" r="10.3976" gradientTransform="matrix(4.8 0 0 -0.7973 1377.6796 -1048.7379)" gradientUnits="userSpaceOnUse">
		<stop  offset="5.494510e-03" style="stop-color:#817E7A"/>
		<stop  offset="0.3901" style="stop-color:#D0D1D7"/>
		<stop  offset="0.4459" style="stop-color:#D8D9DE"/>
		<stop  offset="0.6405" style="stop-color:#EDEEF0"/>
		<stop  offset="0.8282" style="stop-color:#FBFBFB"/>
		<stop  offset="1" style="stop-color:#FFFFFF"/>
	</radialGradient>
	<ellipse fill="url(#SVGID_5_)" cx="126.5" cy="100.3" rx="49.9" ry="8.3"/>
	
		<radialGradient id="SVGID_6_" cx="-265.1647" cy="367.6488" r="19.3458" gradientTransform="matrix(4.8 0 0 -4.8 1377.6796 1790.3514)" gradientUnits="userSpaceOnUse">
		<stop  offset="0.3297" style="stop-color:#FFAB91"/>
		<stop  offset="0.4644" style="stop-color:#FFA78C"/>
		<stop  offset="0.6334" style="stop-color:#FF9B7C"/>
		<stop  offset="0.8197" style="stop-color:#FF8863"/>
		<stop  offset="1" style="stop-color:#FF7043"/>
	</radialGradient>
	<path fill="url(#SVGID_6_)" d="M126.4,99.9c27.5,0,49.9-22.5,49.9-49.9S153.9,0,126.4,0S76.5,22.5,76.5,49.9
		C76.6,77.4,99,99.9,126.4,99.9z"/>
	
		<linearGradient id="SVGID_7_" gradientUnits="userSpaceOnUse" x1="-263.8399" y1="368.2875" x2="-251.878" y2="346.7561" gradientTransform="matrix(4.8 0 0 -4.8 1377.6796 1790.3514)">
		<stop  offset="0" style="stop-color:#FFCCBC"/>
		<stop  offset="0.3297" style="stop-color:#FFAB91"/>
		<stop  offset="0.6319" style="stop-color:#FF7043"/>
		<stop  offset="0.7127" style="stop-color:#FD6D3F"/>
		<stop  offset="0.7873" style="stop-color:#F66334"/>
		<stop  offset="0.8592" style="stop-color:#EB5222"/>
		<stop  offset="0.8846" style="stop-color:#E64A19"/>
		<stop  offset="0.9464" style="stop-color:#EA4C1A"/>
		<stop  offset="1" style="stop-color:#F4511E"/>
	</linearGradient>
	<path fill="url(#SVGID_7_)" d="M126.4,2.4c9.3,0,18,2.7,25.3,7.3L96.7,87c-10.8-8.7-17.8-22.1-17.8-37C79,23.7,100.2,2.4,126.4,2.4
		L126.4,2.4z M156.2,12.8C167,21.5,174,34.9,174,49.9c0,26.2-21.3,47.6-47.6,47.6c-9.3,0-18-2.7-25.3-7.3L156.2,12.8z"/>
	<polygon fill="#D17971" points="151.8,9.7 96.8,87 97.9,88.4 153.5,11.6 	"/>
	
		<linearGradient id="SVGID_8_" gradientUnits="userSpaceOnUse" x1="-264.208" y1="370.6239" x2="-262.613" y2="366.3707" gradientTransform="matrix(4.8 0 0 -4.8 1377.6796 1790.3514)">
		<stop  offset="0.1484" style="stop-color:#FAEBDD"/>
		<stop  offset="1" style="stop-color:#EEC2B9"/>
	</linearGradient>
	<path fill="url(#SVGID_8_)" d="M79.2,45.2c17.4-4.6,43.7-13,66.4-26.6l6.2-8.8c-7.3-4.6-16-7.3-25.3-7.3
		C101.9,2.4,81.6,21.1,79.2,45.2z"/>
	<polygon fill="#FBE2EA" points="101.1,90.1 156.2,12.8 100,89.4 	"/>
</g>
<g>
	
		<radialGradient id="SVGID_9_" cx="-246.4123" cy="-1525.0044" r="10.3976" gradientTransform="matrix(4.8 0 0 -0.7973 1377.6796 -1048.7379)" gradientUnits="userSpaceOnUse">
		<stop  offset="5.494510e-03" style="stop-color:#817E7A"/>
		<stop  offset="0.3901" style="stop-color:#D0D1D7"/>
		<stop  offset="0.4459" style="stop-color:#D8D9DE"/>
		<stop  offset="0.6405" style="stop-color:#EDEEF0"/>
		<stop  offset="0.8282" style="stop-color:#FBFBFB"/>
		<stop  offset="1" style="stop-color:#FFFFFF"/>
	</radialGradient>
	<ellipse fill="url(#SVGID_9_)" cx="194.9" cy="167.1" rx="49.9" ry="8.3"/>
	
		<radialGradient id="SVGID_10_" cx="-250.9219" cy="353.731" r="19.3458" gradientTransform="matrix(4.8 0 0 -4.8 1377.6796 1790.3514)" gradientUnits="userSpaceOnUse">
		<stop  offset="0.3297" style="stop-color:#FFAB91"/>
		<stop  offset="0.4644" style="stop-color:#FFA78C"/>
		<stop  offset="0.6334" style="stop-color:#FF9B7C"/>
		<stop  offset="0.8197" style="stop-color:#FF8863"/>
		<stop  offset="1" style="stop-color:#FF7043"/>
	</radialGradient>
	<path fill="url(#SVGID_10_)" d="M194.8,166.7c27.5,0,49.9-22.5,49.9-49.9s-22.5-49.9-49.9-49.9s-49.9,22.5-49.9,49.9
		C145,144.2,167.3,166.7,194.8,166.7z"/>
	
		<linearGradient id="SVGID_11_" gradientUnits="userSpaceOnUse" x1="-249.5971" y1="354.3698" x2="-237.6352" y2="332.8383" gradientTransform="matrix(4.8 0 0 -4.8 1377.6796 1790.3514)">
		<stop  offset="0" style="stop-color:#FFCCBC"/>
		<stop  offset="0.3297" style="stop-color:#FFAB91"/>
		<stop  offset="0.6319" style="stop-color:#FF7043"/>
		<stop  offset="0.7127" style="stop-color:#FD6D3F"/>
		<stop  offset="0.7873" style="stop-color:#F66334"/>
		<stop  offset="0.8592" style="stop-color:#EB5222"/>
		<stop  offset="0.8846" style="stop-color:#E64A19"/>
		<stop  offset="0.9464" style="stop-color:#EA4C1A"/>
		<stop  offset="1" style="stop-color:#F4511E"/>
	</linearGradient>
	<path fill="url(#SVGID_11_)" d="M194.8,69.2c9.3,0,18,2.7,25.3,7.3l-55,77.3c-10.8-8.7-17.8-22.1-17.8-37
		C147.3,90.5,168.6,69.2,194.8,69.2L194.8,69.2z M224.6,79.6c10.8,8.7,17.8,22.1,17.8,37.1c0,26.2-21.3,47.6-47.6,47.6
		c-9.3,0-18-2.7-25.3-7.3L224.6,79.6z"/>
	<polygon fill="#D17971" points="220.2,76.5 165.1,153.8 166.3,155.3 221.9,78.4 	"/>
	
		<linearGradient id="SVGID_12_" gradientUnits="userSpaceOnUse" x1="-249.9652" y1="356.7061" x2="-248.3702" y2="352.4529" gradientTransform="matrix(4.8 0 0 -4.8 1377.6796 1790.3514)">
		<stop  offset="0.1484" style="stop-color:#FAEBDD"/>
		<stop  offset="1" style="stop-color:#EEC2B9"/>
	</linearGradient>
	<path fill="url(#SVGID_12_)" d="M147.6,112c17.4-4.6,43.7-13,66.4-26.6l6.2-8.8c-7.3-4.6-16-7.3-25.3-7.3
		C170.2,69.2,149.9,87.9,147.6,112z"/>
	<polygon fill="#FBE2EA" points="169.5,156.9 224.6,79.6 168.4,156.2 	"/>
</g>
<g>
	
		<radialGradient id="SVGID_13_" cx="-276.5891" cy="-1525.0044" r="10.3976" gradientTransform="matrix(4.8 0 0 -0.7973 1377.6796 -1048.7379)" gradientUnits="userSpaceOnUse">
		<stop  offset="5.494510e-03" style="stop-color:#817E7A"/>
		<stop  offset="0.3901" style="stop-color:#D0D1D7"/>
		<stop  offset="0.4459" style="stop-color:#D8D9DE"/>
		<stop  offset="0.6405" style="stop-color:#EDEEF0"/>
		<stop  offset="0.8282" style="stop-color:#FBFBFB"/>
		<stop  offset="1" style="stop-color:#FFFFFF"/>
	</radialGradient>
	<ellipse fill="url(#SVGID_13_)" cx="50.1" cy="167.1" rx="49.9" ry="8.3"/>
	
		<radialGradient id="SVGID_14_" cx="-281.0986" cy="353.731" r="19.3458" gradientTransform="matrix(4.8 0 0 -4.8 1377.6796 1790.3514)" gradientUnits="userSpaceOnUse">
		<stop  offset="0.3297" style="stop-color:#FFAB91"/>
		<stop  offset="0.4644" style="stop-color:#FFA78C"/>
		<stop  offset="0.6334" style="stop-color:#FF9B7C"/>
		<stop  offset="0.8197" style="stop-color:#FF8863"/>
		<stop  offset="1" style="stop-color:#FF7043"/>
	</radialGradient>
	<path fill="url(#SVGID_14_)" d="M49.9,166.7c27.5,0,49.9-22.5,49.9-49.9S77.4,66.8,49.9,66.8S0,89.3,0,116.8
		C0.1,144.2,22.5,166.7,49.9,166.7z"/>
	
		<linearGradient id="SVGID_15_" gradientUnits="userSpaceOnUse" x1="-279.7739" y1="354.3698" x2="-267.812" y2="332.8383" gradientTransform="matrix(4.8 0 0 -4.8 1377.6796 1790.3514)">
		<stop  offset="0" style="stop-color:#FFCCBC"/>
		<stop  offset="0.3297" style="stop-color:#FFAB91"/>
		<stop  offset="0.6319" style="stop-color:#FF7043"/>
		<stop  offset="0.7127" style="stop-color:#FD6D3F"/>
		<stop  offset="0.7873" style="stop-color:#F66334"/>
		<stop  offset="0.8592" style="stop-color:#EB5222"/>
		<stop  offset="0.8846" style="stop-color:#E64A19"/>
		<stop  offset="0.9464" style="stop-color:#EA4C1A"/>
		<stop  offset="1" style="stop-color:#F4511E"/>
	</linearGradient>
	<path fill="url(#SVGID_15_)" d="M49.9,69.2c9.3,0,18,2.7,25.3,7.3l-55,77.3c-10.8-8.7-17.8-22.1-17.8-37
		C2.5,90.5,23.7,69.2,49.9,69.2L49.9,69.2z M79.7,79.6c10.8,8.7,17.8,22.1,17.8,37.1c0,26.2-21.3,47.6-47.6,47.6
		c-9.3,0-18-2.7-25.3-7.3L79.7,79.6z"/>
	<polygon fill="#D17971" points="75.3,76.5 20.3,153.8 21.4,155.3 77,78.4 	"/>
	
		<linearGradient id="SVGID_16_" gradientUnits="userSpaceOnUse" x1="-280.1419" y1="356.7061" x2="-278.547" y2="352.4529" gradientTransform="matrix(4.8 0 0 -4.8 1377.6796 1790.3514)">
		<stop  offset="0.1484" style="stop-color:#FAEBDD"/>
		<stop  offset="1" style="stop-color:#EEC2B9"/>
	</linearGradient>
	<path fill="url(#SVGID_16_)" d="M2.7,112c17.4-4.6,43.7-13,66.4-26.6l6.2-8.8c-7.3-4.6-16-7.3-25.3-7.3C25.4,69.2,5.1,87.9,2.7,112
		z"/>
	<polygon fill="#FBE2EA" points="24.7,156.9 79.7,79.6 23.5,156.2 	"/>
</g>
</svg>
