<?xml version="1.0" encoding="utf-8"?>
<!-- Generator: Adobe Illustrator 18.1.1, SVG Export Plug-In . SVG Version: 6.00 Build 0)  -->
<!DOCTYPE svg PUBLIC "-//W3C//DTD SVG 1.1//EN" "http://www.w3.org/Graphics/SVG/1.1/DTD/svg11.dtd">
<svg version="1.1" id="Layer_1" xmlns="http://www.w3.org/2000/svg" xmlns:xlink="http://www.w3.org/1999/xlink" x="0px" y="0px"
	 viewBox="0 0 372.8 101" enable-background="new 0 0 372.8 101" xml:space="preserve">
<g>
	
		<radialGradient id="SVGID_1_" cx="-45.6453" cy="124.195" r="15.5143" gradientTransform="matrix(6.4454 0 0 -2.4494 567.0113 342.2082)" gradientUnits="userSpaceOnUse">
		<stop  offset="0.1429" style="stop-color:#817E7A"/>
		<stop  offset="0.6868" style="stop-color:#D0D1D7"/>
		<stop  offset="0.7154" style="stop-color:#D8D9DE"/>
		<stop  offset="0.8154" style="stop-color:#EDEEF0"/>
		<stop  offset="0.9118" style="stop-color:#FBFBFB"/>
		<stop  offset="1" style="stop-color:#FFFFFF"/>
	</radialGradient>
	<path fill="url(#SVGID_1_)" d="M372.8,38c0,21-44.8,38-100,38s-100-17-100-38s44.8-38,100-38S372.8,17,372.8,38z"/>
	<g>
		
			<linearGradient id="SVGID_2_" gradientUnits="userSpaceOnUse" x1="-126.1568" y1="296.8818" x2="-96.3234" y2="296.8818" gradientTransform="matrix(4.8 0 0 -4.8 796.86 1463.8828)">
			<stop  offset="0" style="stop-color:#FFEBEE"/>
			<stop  offset="0.1374" style="stop-color:#EF9A9A"/>
			<stop  offset="0.3023" style="stop-color:#F7B4B6"/>
			<stop  offset="0.4602" style="stop-color:#FDC6CB"/>
			<stop  offset="0.5659" style="stop-color:#FFCDD2"/>
			<stop  offset="1" style="stop-color:#EF9A9A"/>
		</linearGradient>
		<path fill="url(#SVGID_2_)" d="M321,15.1c-2-0.8-4-1.8-6-2.6l-47.4,3.2l-76.3-4.5v31.4c0,13.3,32.1,24.1,71.6,24.1
			s71.6-10.8,71.6-24.1h0V18.6C329.9,19,325.1,16.8,321,15.1z"/>
		
			<radialGradient id="SVGID_3_" cx="-113.2208" cy="302.8938" r="22.6668" gradientTransform="matrix(4.8 0 0 -4.8 796.86 1463.8828)" gradientUnits="userSpaceOnUse">
			<stop  offset="0" style="stop-color:#FFEBEE"/>
			<stop  offset="0.3297" style="stop-color:#FFCDD2"/>
			<stop  offset="0.8242" style="stop-color:#E57373"/>
			<stop  offset="0.8824" style="stop-color:#E67777"/>
			<stop  offset="0.9361" style="stop-color:#E98282"/>
			<stop  offset="0.9879" style="stop-color:#EE9494"/>
			<stop  offset="1" style="stop-color:#EF9A9A"/>
		</radialGradient>
		<path fill="url(#SVGID_3_)" d="M321,15.1c-4.9-2.1-9.6-4.5-14.7-6c-0.3,0.2-0.7,0.3-1.2,0.1c-3.9-1.2-7.9-1.6-11.9-2.3
			c-7.1-1.4-14.2-2.8-21.5-3.3c-6.6-0.4-13.2-0.4-19.9-0.4c-0.3,0.3-0.7,0.5-1.1,0.5c-4.7-0.4-9.4-0.6-14.1-1
			c-4.2-0.4-8.3-0.3-12.4,0.1c-4.2,0.4-8.3,1-12.5,1.2c-3.8,0.2-7.6,0.6-11.3,1.3c-2.7,0.5-5.6,0.6-8,1.8c-0.7,1.3-1,2.7-1,4.1
			c0,13.3,32.1,24.1,71.6,24.1c31.8,0,58.9-7,68.2-16.7C327.6,17.9,324.1,16.4,321,15.1z"/>
		
			<linearGradient id="SVGID_4_" gradientUnits="userSpaceOnUse" x1="-123.5109" y1="299.4216" x2="-96.3234" y2="299.4216" gradientTransform="matrix(4.8 0 0 -4.8 796.86 1463.8828)">
			<stop  offset="0" style="stop-color:#FFEBEE"/>
			<stop  offset="0.5" style="stop-color:#FFCDD2"/>
			<stop  offset="1" style="stop-color:#FFEBEE"/>
		</linearGradient>
		<path fill="url(#SVGID_4_)" d="M329.2,18.1c-10.9,9.1-37.5,15.6-68.5,15.6c-22.8,0-43.2-3.5-56.7-8.9
			c12.9,6.3,34.5,10.4,58.9,10.4c31.8,0,58.9-7,68.2-16.7C330.4,18.4,329.8,18.3,329.2,18.1z"/>
		<path fill="#FFCDD2" d="M306.3,9c-0.3,0.2-0.7,0.3-1.2,0.1c-3.9-1.2-7.9-1.6-11.9-2.3c-7.1-1.4-14.2-2.8-21.5-3.3
			c-6.6-0.4-13.2-0.4-19.9-0.4c-0.3,0.3-0.7,0.5-1.1,0.5c-4.7-0.4-9.4-0.6-14.1-1c-4.2-0.4-8.3-0.3-12.4,0.1
			c-4.2,0.4-8.3,1-12.5,1.2c-0.5,0-1,0.1-1.5,0.1c18.8-1,69.7-2.2,107.1,9.5C313.7,11.8,310.1,10.2,306.3,9z"/>
	</g>
</g>
<g>
	
		<radialGradient id="SVGID_5_" cx="-72.4561" cy="113.9886" r="15.5143" gradientTransform="matrix(6.4454 0 0 -2.4494 567.0113 342.2082)" gradientUnits="userSpaceOnUse">
		<stop  offset="0.1429" style="stop-color:#817E7A"/>
		<stop  offset="0.6868" style="stop-color:#D0D1D7"/>
		<stop  offset="0.7154" style="stop-color:#D8D9DE"/>
		<stop  offset="0.8154" style="stop-color:#EDEEF0"/>
		<stop  offset="0.9118" style="stop-color:#FBFBFB"/>
		<stop  offset="1" style="stop-color:#FFFFFF"/>
	</radialGradient>
	<path fill="url(#SVGID_5_)" d="M200,63c0,21-44.8,38-100,38S0,84,0,63s44.8-38,100-38S200,42,200,63z"/>
	<g>
		
			<linearGradient id="SVGID_6_" gradientUnits="userSpaceOnUse" x1="-162.1583" y1="291.6735" x2="-132.325" y2="291.6735" gradientTransform="matrix(4.8 0 0 -4.8 796.86 1463.8828)">
			<stop  offset="0" style="stop-color:#FFEBEE"/>
			<stop  offset="0.1374" style="stop-color:#EF9A9A"/>
			<stop  offset="0.3023" style="stop-color:#F7B4B6"/>
			<stop  offset="0.4602" style="stop-color:#FDC6CB"/>
			<stop  offset="0.5659" style="stop-color:#FFCDD2"/>
			<stop  offset="1" style="stop-color:#EF9A9A"/>
		</linearGradient>
		<path fill="url(#SVGID_6_)" d="M161.7,67.5c0,13.3-32.1,24.1-71.6,24.1S18.5,80.8,18.5,67.5V36.1l76.3,4.5l66.9-4.5L161.7,67.5
			L161.7,67.5z"/>
		
			<radialGradient id="SVGID_7_" cx="-149.2224" cy="297.6855" r="22.6668" gradientTransform="matrix(4.8 0 0 -4.8 796.86 1463.8828)" gradientUnits="userSpaceOnUse">
			<stop  offset="0" style="stop-color:#FFEBEE"/>
			<stop  offset="0.3297" style="stop-color:#FFCDD2"/>
			<stop  offset="0.8242" style="stop-color:#E57373"/>
			<stop  offset="0.8824" style="stop-color:#E67777"/>
			<stop  offset="0.9361" style="stop-color:#E98282"/>
			<stop  offset="0.9879" style="stop-color:#EE9494"/>
			<stop  offset="1" style="stop-color:#EF9A9A"/>
		</radialGradient>
		<path fill="url(#SVGID_7_)" d="M161.7,36.1c0,13.3-32.1,24.1-71.6,24.1S18.5,49.4,18.5,36.1S50.6,12,90.1,12
			C129.7,12,161.7,22.8,161.7,36.1z"/>
		
			<linearGradient id="SVGID_8_" gradientUnits="userSpaceOnUse" x1="-159.5125" y1="295.0589" x2="-132.325" y2="295.0589" gradientTransform="matrix(4.8 0 0 -4.8 796.86 1463.8828)">
			<stop  offset="0" style="stop-color:#FFEBEE"/>
			<stop  offset="0.5" style="stop-color:#FFCDD2"/>
			<stop  offset="1" style="stop-color:#FFEBEE"/>
		</linearGradient>
		<path fill="url(#SVGID_8_)" d="M87.9,58.7c-22.8,0-43.2-3.5-56.7-8.9c12.9,6.3,34.5,10.4,58.9,10.4c39.5,0,71.6-10.8,71.6-24.1
			c0-0.4,0-0.7-0.1-1.1C159.9,48.2,127.5,58.7,87.9,58.7z"/>
		<path fill="#FFCDD2" d="M30.1,29.4c0,0,75.7-6.2,122.3,11.8l1.3-0.6c0,0-42.4-23.6-120.6-12.3L30.1,29.4z"/>
	</g>
</g>
</svg>
