<?xml version="1.0" encoding="utf-8"?>
<!-- Generator: Adobe Illustrator 18.1.1, SVG Export Plug-In . SVG Version: 6.00 Build 0)  -->
<!DOCTYPE svg PUBLIC "-//W3C//DTD SVG 1.1//EN" "http://www.w3.org/Graphics/SVG/1.1/DTD/svg11.dtd">
<svg version="1.1" id="Layer_1" xmlns="http://www.w3.org/2000/svg" xmlns:xlink="http://www.w3.org/1999/xlink" x="0px" y="0px"
	 viewBox="0 0 200 76.3" enable-background="new 0 0 200 76.3" xml:space="preserve">
<g>
	
		<radialGradient id="SVGID_1_" cx="176.2126" cy="176.5042" r="42.559" gradientTransform="matrix(1.3428 0 0 0.5103 -93.7602 -60.9127)" gradientUnits="userSpaceOnUse">
		<stop  offset="0.1429" style="stop-color:#817E7A"/>
		<stop  offset="0.6868" style="stop-color:#D0D1D7"/>
		<stop  offset="0.7154" style="stop-color:#D8D9DE"/>
		<stop  offset="0.8154" style="stop-color:#EDEEF0"/>
		<stop  offset="0.9118" style="stop-color:#FBFBFB"/>
		<stop  offset="1" style="stop-color:#FFFFFF"/>
	</radialGradient>
	<path fill="url(#SVGID_1_)" d="M200,29.2c0,12-25.6,21.7-57.1,21.7s-57.1-9.7-57.1-21.7c0-12,25.6-21.7,57.1-21.7
		S200,17.2,200,29.2z"/>
	<g>
		<linearGradient id="SVGID_2_" gradientUnits="userSpaceOnUse" x1="96.295" y1="29.6451" x2="178.1271" y2="29.6451">
			<stop  offset="0" style="stop-color:#FFEBEE"/>
			<stop  offset="0.1374" style="stop-color:#EF9A9A"/>
			<stop  offset="0.3023" style="stop-color:#F7B4B6"/>
			<stop  offset="0.4602" style="stop-color:#FDC6CB"/>
			<stop  offset="0.5659" style="stop-color:#FFCDD2"/>
			<stop  offset="1" style="stop-color:#EF9A9A"/>
		</linearGradient>
		<path fill="url(#SVGID_2_)" d="M178.1,31.7c0,7.6-18.3,13.8-40.9,13.8c-22.6,0-40.9-6.2-40.9-13.8V13.8l43.6,2.6l38.2-2.6V31.7z"
			/>
		<radialGradient id="SVGID_3_" cx="131.762" cy="13.1396" r="62.1764" gradientUnits="userSpaceOnUse">
			<stop  offset="0" style="stop-color:#FFEBEE"/>
			<stop  offset="0.3297" style="stop-color:#FFCDD2"/>
			<stop  offset="0.8242" style="stop-color:#E57373"/>
			<stop  offset="0.8824" style="stop-color:#E67777"/>
			<stop  offset="0.9361" style="stop-color:#E98282"/>
			<stop  offset="0.9879" style="stop-color:#EE9494"/>
			<stop  offset="1" style="stop-color:#EF9A9A"/>
		</radialGradient>
		<ellipse fill="url(#SVGID_3_)" cx="137.2" cy="13.8" rx="40.9" ry="13.8"/>
		<linearGradient id="SVGID_4_" gradientUnits="userSpaceOnUse" x1="103.5263" y1="20.3507" x2="178.1271" y2="20.3507">
			<stop  offset="0" style="stop-color:#FFEBEE"/>
			<stop  offset="0.5" style="stop-color:#FFCDD2"/>
			<stop  offset="1" style="stop-color:#FFEBEE"/>
		</linearGradient>
		<path fill="url(#SVGID_4_)" d="M135.9,26.7c-13,0-24.7-2-32.4-5.1c7.4,3.6,19.7,6,33.7,6c22.6,0,40.9-6.2,40.9-13.8
			c0-0.2,0-0.4,0-0.6C177.1,20.7,158.6,26.7,135.9,26.7z"/>
		<path fill="#FFCDD2" d="M102.9,9.9c0,0,43.3-3.5,69.9,6.7l0.7-0.3c0,0-24.2-13.5-68.9-7L102.9,9.9z"/>
	</g>
</g>
<g>
	
		<radialGradient id="SVGID_5_" cx="112.3851" cy="226.3511" r="42.559" gradientTransform="matrix(1.3428 0 0 0.5103 -93.7602 -60.9127)" gradientUnits="userSpaceOnUse">
		<stop  offset="0.1429" style="stop-color:#817E7A"/>
		<stop  offset="0.6868" style="stop-color:#D0D1D7"/>
		<stop  offset="0.7154" style="stop-color:#D8D9DE"/>
		<stop  offset="0.8154" style="stop-color:#EDEEF0"/>
		<stop  offset="0.9118" style="stop-color:#FBFBFB"/>
		<stop  offset="1" style="stop-color:#FFFFFF"/>
	</radialGradient>
	<path fill="url(#SVGID_5_)" d="M114.3,54.6c0,12-25.6,21.7-57.1,21.7S0,66.6,0,54.6c0-12,25.6-21.7,57.1-21.7
		S114.3,42.6,114.3,54.6z"/>
	<g>
		<linearGradient id="SVGID_6_" gradientUnits="userSpaceOnUse" x1="10.5894" y1="55.0813" x2="92.4215" y2="55.0813">
			<stop  offset="0" style="stop-color:#FFEBEE"/>
			<stop  offset="0.1374" style="stop-color:#EF9A9A"/>
			<stop  offset="0.3023" style="stop-color:#F7B4B6"/>
			<stop  offset="0.4602" style="stop-color:#FDC6CB"/>
			<stop  offset="0.5659" style="stop-color:#FFCDD2"/>
			<stop  offset="1" style="stop-color:#EF9A9A"/>
		</linearGradient>
		<path fill="url(#SVGID_6_)" d="M92.4,57.2c0,7.6-18.3,13.8-40.9,13.8c-22.6,0-40.9-6.2-40.9-13.8V39.2l43.6,2.6l38.2-2.6V57.2z"/>
		<radialGradient id="SVGID_7_" cx="46.0564" cy="38.5759" r="62.1764" gradientUnits="userSpaceOnUse">
			<stop  offset="0" style="stop-color:#FFEBEE"/>
			<stop  offset="0.3297" style="stop-color:#FFCDD2"/>
			<stop  offset="0.8242" style="stop-color:#E57373"/>
			<stop  offset="0.8824" style="stop-color:#E67777"/>
			<stop  offset="0.9361" style="stop-color:#E98282"/>
			<stop  offset="0.9879" style="stop-color:#EE9494"/>
			<stop  offset="1" style="stop-color:#EF9A9A"/>
		</radialGradient>
		<ellipse fill="url(#SVGID_7_)" cx="51.5" cy="39.2" rx="40.9" ry="13.8"/>
		<linearGradient id="SVGID_8_" gradientUnits="userSpaceOnUse" x1="17.8208" y1="45.787" x2="92.4215" y2="45.787">
			<stop  offset="0" style="stop-color:#FFEBEE"/>
			<stop  offset="0.5" style="stop-color:#FFCDD2"/>
			<stop  offset="1" style="stop-color:#FFEBEE"/>
		</linearGradient>
		<path fill="url(#SVGID_8_)" d="M50.2,52.1c-13,0-24.7-2-32.4-5.1c7.4,3.6,19.7,6,33.7,6c22.6,0,40.9-6.2,40.9-13.8
			c0-0.2,0-0.4,0-0.6C91.4,46.1,72.9,52.1,50.2,52.1z"/>
		<path fill="#FFCDD2" d="M17.2,35.4c0,0,43.3-3.5,69.9,6.7l0.7-0.3c0,0-24.2-13.5-68.9-7L17.2,35.4z"/>
	</g>
</g>
</svg>
