<?xml version="1.0" encoding="utf-8"?>
<!-- Generator: Adobe Illustrator 18.1.1, SVG Export Plug-In . SVG Version: 6.00 Build 0)  -->
<!DOCTYPE svg PUBLIC "-//W3C//DTD SVG 1.1//EN" "http://www.w3.org/Graphics/SVG/1.1/DTD/svg11.dtd">
<svg version="1.1" id="Layer_1" xmlns="http://www.w3.org/2000/svg" xmlns:xlink="http://www.w3.org/1999/xlink" x="0px" y="0px"
	 viewBox="0 0 200 130.3" enable-background="new 0 0 200 130.3" xml:space="preserve">
<g>
	
		<radialGradient id="SVGID_1_" cx="98.2166" cy="2492.696" r="98.2187" gradientTransform="matrix(1 0 0 0.1661 0 -300.0372)" gradientUnits="userSpaceOnUse">
		<stop  offset="5.494510e-03" style="stop-color:#817E7A"/>
		<stop  offset="0.3901" style="stop-color:#D0D1D7"/>
		<stop  offset="0.4459" style="stop-color:#D8D9DE"/>
		<stop  offset="0.6405" style="stop-color:#EDEEF0"/>
		<stop  offset="0.8282" style="stop-color:#FBFBFB"/>
		<stop  offset="1" style="stop-color:#FFFFFF"/>
	</radialGradient>
	<ellipse fill="url(#SVGID_1_)" cx="98.2" cy="114" rx="98.2" ry="16.3"/>
	<g>
		
			<radialGradient id="SVGID_2_" cx="75.3231" cy="-18.2207" r="182.6717" gradientTransform="matrix(0.6789 0.7343 -0.7343 0.6789 43.6218 -94.5859)" gradientUnits="userSpaceOnUse">
			<stop  offset="0.3297" style="stop-color:#FFAB91"/>
			<stop  offset="0.4644" style="stop-color:#FFA78C"/>
			<stop  offset="0.6334" style="stop-color:#FF9B7C"/>
			<stop  offset="0.8197" style="stop-color:#FF8863"/>
			<stop  offset="1" style="stop-color:#FF7043"/>
		</radialGradient>
		<path fill-rule="evenodd" clip-rule="evenodd" fill="url(#SVGID_2_)" d="M199.3,0c-1.3,0.7-2.7,1.2-4.1,1.7
			c-10.5,3.7-21.4,4.7-32.5,5.1c-6.6,0.2-12.5,2.6-18.8,4.5c-2.8,0.8-5.7,1.4-8.6,1.4c-3.3,0.1-6.5-0.7-9.7-0.9
			c-6.8-0.4-13.6,0.6-20.4,0.8c-7.9,0.2-15.8,0.2-23.7,1c-4,0.4-7.8,1-11.5,2.6c-3.1,1.2-6,2.7-9.2,3.7c-3.7,1.3-7.2,2.6-10.8,4.2
			c-2.8,1.2-5.6,2.1-8.6,2c-2.9-0.1-5.6-1.1-8.5-1.6c-3-0.6-6.3-0.4-9.4,0c-6.3,0.8-12.4,2.3-18.8,2.2c2.8,18.8,11.1,37,24.9,52
			c36.7,39.7,99.1,42.2,138.8,5.4C192.6,61.9,202.9,30.3,199.3,0z"/>
		
			<linearGradient id="SVGID_3_" gradientUnits="userSpaceOnUse" x1="92.9133" y1="-27.0751" x2="205.8632" y2="176.2349" gradientTransform="matrix(0.6789 0.7343 -0.7343 0.6789 43.6218 -94.5859)">
			<stop  offset="0" style="stop-color:#FFCCBC"/>
			<stop  offset="0.3297" style="stop-color:#FFAB91"/>
			<stop  offset="0.6319" style="stop-color:#FF7043"/>
			<stop  offset="0.7127" style="stop-color:#FD6D3F"/>
			<stop  offset="0.7873" style="stop-color:#F66334"/>
			<stop  offset="0.8592" style="stop-color:#EB5222"/>
			<stop  offset="0.8846" style="stop-color:#E64A19"/>
			<stop  offset="0.9464" style="stop-color:#EA4C1A"/>
			<stop  offset="1" style="stop-color:#F4511E"/>
		</linearGradient>
		<path fill-rule="evenodd" clip-rule="evenodd" fill="url(#SVGID_3_)" d="M195.1,5.3L50.4,23.9c-0.1,0.1-0.2,0.1-0.4,0.2
			c-2.8,1.2-5.6,2.1-8.6,2c-1.2,0-2.4-0.2-3.5-0.5l-28,3.6C13.1,45.9,20.8,62,33.2,75.4c35.1,37.9,94.2,40.2,132.1,5.2
			C187,60.6,197.1,32.7,195.1,5.3z"/>
		<path fill-rule="evenodd" clip-rule="evenodd" fill="#FBE2EA" d="M33,24.4c-0.9-0.2-1.8-0.3-2.7-0.3L9.5,26.5l0.5,2.6l28-3.6
			C36.3,25.2,34.6,24.7,33,24.4z"/>
		<path fill-rule="evenodd" clip-rule="evenodd" fill="#FBE2EA" d="M195.1,5.3l-50.6,5.8c-0.2,0.1-0.4,0.1-0.6,0.2
			c-2.8,0.8-5.7,1.4-8.6,1.4c-1.1,0-2.3-0.1-3.4-0.2L57.7,21c-2.5,0.9-4.8,1.9-7.3,2.9L195.1,5.3z"/>
	</g>
</g>
</svg>
