<?xml version="1.0" encoding="utf-8"?>
<!-- Generator: Adobe Illustrator 18.1.1, SVG Export Plug-In . SVG Version: 6.00 Build 0)  -->
<!DOCTYPE svg PUBLIC "-//W3C//DTD SVG 1.1//EN" "http://www.w3.org/Graphics/SVG/1.1/DTD/svg11.dtd">
<svg version="1.1" id="Layer_1" xmlns="http://www.w3.org/2000/svg" xmlns:xlink="http://www.w3.org/1999/xlink" x="0px" y="0px"
	 viewBox="0 0 109.6 113" enable-background="new 0 0 109.6 113" xml:space="preserve">
<g>
	
		<radialGradient id="SVGID_1_" cx="54.7824" cy="1686.9257" r="54.7824" gradientTransform="matrix(1 0 0 0.2077 0 -248.705)" gradientUnits="userSpaceOnUse">
		<stop  offset="5.494510e-03" style="stop-color:#817E7A"/>
		<stop  offset="0.511" style="stop-color:#D0D1D7"/>
		<stop  offset="0.5557" style="stop-color:#D8D9DE"/>
		<stop  offset="0.7117" style="stop-color:#EDEEF0"/>
		<stop  offset="0.8622" style="stop-color:#FBFBFB"/>
		<stop  offset="1" style="stop-color:#FFFFFF"/>
	</radialGradient>
	<ellipse fill="url(#SVGID_1_)" cx="54.8" cy="101.7" rx="54.8" ry="11.4"/>
	<g>
		
			<linearGradient id="SVGID_2_" gradientUnits="userSpaceOnUse" x1="28.5844" y1="-2.1445" x2="28.5844" y2="103.671" gradientTransform="matrix(-0.9999 1.407367e-02 1.407367e-02 0.9999 96.8565 1.5235)">
			<stop  offset="0" style="stop-color:#FAFBFB"/>
			<stop  offset="0.1923" style="stop-color:#E7E7E9"/>
			<stop  offset="0.5385" style="stop-color:#C8C9CA"/>
			<stop  offset="0.6085" style="stop-color:#C5C5C6"/>
			<stop  offset="0.6731" style="stop-color:#BABBBB"/>
			<stop  offset="0.7198" style="stop-color:#AEAEAE"/>
			<stop  offset="0.7897" style="stop-color:#ABABAB"/>
			<stop  offset="0.8374" style="stop-color:#A2A2A2"/>
			<stop  offset="0.8782" style="stop-color:#939393"/>
			<stop  offset="0.8956" style="stop-color:#8A8A8A"/>
		</linearGradient>
		<path fill="url(#SVGID_2_)" d="M49,0.1l18.4,2c0,0,39.4,11.5,34.3,61.7c0,0-4.5,29.4-34.7,40c0,0-8.2,2.6-19.2,2
			C21.3,104.5,49,0.1,49,0.1z"/>
		
			<linearGradient id="SVGID_3_" gradientUnits="userSpaceOnUse" x1="31.4248" y1="2.6914" x2="72.6549" y2="106.0271" gradientTransform="matrix(-0.9999 1.407367e-02 1.407367e-02 0.9999 96.8565 1.5235)">
			<stop  offset="0" style="stop-color:#F9F9FA"/>
			<stop  offset="0.3297" style="stop-color:#E7E7E9"/>
			<stop  offset="0.6319" style="stop-color:#C8C9CA"/>
			<stop  offset="0.7296" style="stop-color:#C5C5C6"/>
			<stop  offset="0.8195" style="stop-color:#BABBBB"/>
			<stop  offset="0.8846" style="stop-color:#AEAEAE"/>
			<stop  offset="0.9249" style="stop-color:#AAAAAA"/>
			<stop  offset="0.9607" style="stop-color:#A0A0A0"/>
			<stop  offset="0.9947" style="stop-color:#8E8E8E"/>
			<stop  offset="1" style="stop-color:#8A8A8A"/>
		</linearGradient>
		<path fill="url(#SVGID_3_)" d="M2,53.5c0.4,29.2,20.9,52.6,45.8,52.3c24.9-0.4,44.7-24.3,44.3-53.5C91.7,23,71.2-0.3,46.3,0
			C21.4,0.4,1.5,24.3,2,53.5z"/>
		<path fill="#AEAEAE" d="M88.6,53L6.1,54.5C6.1,54.5,35.2,45,88.6,53z"/>
		<path fill="#E7E7E9" d="M88.6,54.1L6.2,54.9C6.2,54.9,35.5,63.5,88.6,54.1z"/>
	</g>
</g>
</svg>
