<?xml version="1.0" encoding="utf-8"?>
<!-- Generator: Adobe Illustrator 21.1.0, SVG Export Plug-In . SVG Version: 6.00 Build 0)  -->
<svg version="1.1" id="Layer_1" xmlns="http://www.w3.org/2000/svg" xmlns:xlink="http://www.w3.org/1999/xlink" x="0px" y="0px"
	 width="200px" height="277.2px" viewBox="0 0 200 277.2" style="enable-background:new 0 0 200 277.2;" xml:space="preserve">
<style type="text/css">
	.st0{fill:#BBBBBB;}
</style>
<g id="menstrualpain">
	<path class="st0" d="M45.8,276.7c1.8-7.8,3.8-15.5,5.7-23.3c1.8-7.8,3-15.6,5.2-23.3c1.5-5.7,2.8-11.5,2.7-17.3
		c0-0.7-0.5-1.8-1.2-2c-9.6-2.8-18.3-8.3-27.3-12.6c-6.2-3-11.8-6.7-17.1-11.1c-3.5-3-7.7-5.2-11.6-7.5c-1.8-1-2.3-2.3-2-4.3
		c1.2-7.2,3.3-14,6.8-20.5c6-11.3,12-22.8,19.3-33.4c2.2-3,3.7-6.5,5.5-9.8c1.2-2,2.7-3.7,3.8-5.7c3.2-5.3,6.3-10.8,9.5-16.1
		c2.2-3.8,5.8-5.3,9.8-6.3c4.5-1.2,9.3-0.5,13.6-2.5c1.5-0.7,3-1.5,4.8-2.5c-5-2.8-5-7.5-5.2-12c0-5.5-0.2-11,0.3-16.5
		c0.5-5.2,2.2-10,3.2-15.1c1.7-8.2,6.8-14.3,11.6-20.5C86.8,9.8,90.8,5.6,95.8,3c3-1.7,6.7-2.7,10.1-2.8c4.3-0.3,8.8-0.2,13,0.8
		c5,1,9.3,3.7,13.3,7c6.5,5.5,10.5,12.8,12.5,21c1.5,6,2.2,12,0.7,18.1c-0.7,2.8-0.7,5.8-1,8.7c-0.2,0.8,0,1.7-0.3,2.5
		c-1.8,4.7-3.7,9.3-5.7,14c-1.2,2.5-3.5,3.8-5.7,5.3c-1,0.7-2,1.3-3,2.2c-0.2,0.2-0.2,0.7-0.2,1c0,0.2,0.5,0.3,0.7,0.3
		c5.2-1.3,9.8,0.3,14.6,2.2c5.2,1.8,8.8,5.3,11.8,9.5c2.7,3.7,5.2,7.5,7.5,11.5c1.3,2.2,2.2,4.7,3.5,6.8c1.8,3.2,3.8,6.3,5.7,9.6
		c3.8,6.5,7.5,13,11.3,19.5c3.7,6.2,7.3,12.3,11,18.6c2.2,3.7,3.2,7.5,3.5,11.6c0.2,2,0.5,3.8,0.8,5.8c0.3,2-0.2,3.2-1.8,4.2
		c-1.3,0.7-3,1.3-4.3,2.2c-3.7,2-7.3,4.2-11.1,6.3c-1.3,0.8-2.8,1.5-4.3,2.2c-3.7,1.8-7.3,3.8-11.1,5.7c-4.3,2.2-8.8,4.5-13.1,6.7
		c-2,1-4,2-5.8,3c-0.3,0.2-0.7,1.2-0.5,1.5c0.7,2.5,1.3,5,2.3,7.5c2.3,6.2,2.5,12.5,2.7,19c0,5,0,10,0,15c0,6.2,0.2,12.3,0,18.3
		c-0.2,2.8-0.8,5.7-1.3,8.3c0,0.5-0.2,1-0.2,1.3c-0.7,0-1.5,0-2.2,0c0.7-3,1.7-6.2,1.8-9.2c0.2-10.6,0-21.1,0-31.8
		c0-5.2-0.2-10.3-1.2-15.3c0-0.3-0.2-0.8-0.3-1c-3.2,0.5-6,1.3-9,1.7c-5,0.5-9.8,0.7-14.8,1c-2.3,0.2-4.7,0.5-7.2,0.7
		c-5.8,0.2-11.6-0.3-17.6-1.2c-12.8-2-25.6-1-38.4-1.5c-0.3,0-1,0.3-1.2,0.7c-1,3-1.8,6.2-2.7,9.2c-1.7,7.2-3,14.5-4.7,21.6
		c-2,8.5-4,16.8-6.2,25.1C47,276.7,46.5,276.7,45.8,276.7z M128.9,188c0,0.2,0,0.5,0,0.7c0.8,0.7,1.7,1.2,2.3,1.8
		c1.3,1.2,2.7,2.5,4,3.8c0.3,0.3,0.2,1.2,0.2,1.7c-0.5-0.2-1.2-0.3-1.5-0.7c-0.8-0.8-1.7-1.8-2.5-2.7c-1.7-1.5-3.3-2.8-5.2-4.2
		c-1.3-1-2.7-1.7-4.5-1c-7.2,2.3-10.6,9.5-10.3,16c0,0.5,0.7,1.2,1.2,1.5c3.3,2.3,7.3,2.2,11,2.2c5,0,10-0.7,15-1.3
		c2.3-0.3,4.7-1.5,7-2.3s4.7-1.5,7-2.3c5.7-2.2,10.8-5,15.8-8.3c1.5-1,3.2-1.7,4.7-2.5c3.3-1.7,6.8-3.2,10-5c3.3-2,6.5-4.5,10.5-5.7
		c1-0.3,1.8-0.7,2.8-1.2c0.5-0.3,1-0.8,1-1.2c0-2,0.2-4-0.2-6c-0.5-3.3-1-6.8-2.3-9.8c-1.5-3.7-3.8-6.8-5.8-10.3
		c-2.3-4.2-4.8-8.2-7.2-12.3c-3-5.2-5.7-10.3-8.7-15.3c-2.2-3.7-4.7-7.2-6.8-10.8c-2-3.5-3.8-7-5.7-10.5c-0.5-0.8-1-1.8-1.5-2.7
		c-1.8-2.8-3.7-5.7-5.7-8.3c-1.5-1.8-3.7-3.5-5.7-5c-0.7-0.5-2.2-0.7-2.5-0.3c-2.3,2.5-5.2,4.5-6,8.3c-0.3,2-1,3.8-1.5,5.7
		c-0.2,0.5-0.8,1-1.3,1.5c-0.2-0.2-0.3-0.3-0.5-0.5c1.2-6,2.7-11.8,8-15.8c-1.8-0.8-3-1.7-4.3-2.2c-0.5-0.2-1.5,0.2-1.7,0.7
		c-1.2,2.3-2.2,4.7-3.3,7c-1.8,3.7-3.3,7.5-5.5,10.8c-3.7,5.5-7.8,10.6-11.8,16c-0.7,0.8-0.8,2.2-1,3.2c-0.3,1.8-0.2,3.8-0.5,5.7
		c-0.7,4.5-1.5,9.2-2.3,13.6c-0.2,0.5-0.7,0.8-1,1.2c-0.5-0.3-1-0.8-1-1.3c0.3-2.3,0.8-4.8,1.2-7.2c0.5-2.8,1.2-5.5,1.8-8.3
		c0.2-1,0-2.2,0-3.7c-10.8,11-22.3,11.8-34.4,3.2c1.3,5.8,2.8,11.5,4.2,17.3c0.2,0.5,0.2,1,0.2,1.7c0,0.2-0.3,0.7-0.5,0.7
		c-0.2,0-0.7-0.2-0.7-0.3c-0.2-0.3-0.3-0.8-0.5-1.3c-1.2-5.2-2.3-10.1-3.7-15.3c-0.8-3-2.2-5.7-3.5-8.3c-2.3-4.3-4.3-9.2-6-13.8
		C67.5,98.3,66,92,64.1,86c-0.2-0.5-1.2-1.2-1.7-1.2c-2.3,0.2-4.5,0.5-7,0.7c0.3,0.8,0.3,1.3,0.7,1.8c2.8,3.8,3.8,8.3,4.3,12.8
		c0.2,1-0.2,2-0.3,3c-0.3-1-1-1.8-1.2-2.8c-0.5-4.7-1.8-9.2-4.7-13.1c-0.3-0.5-1.2-1-1.7-0.8c-2.3,0.8-4.5,2-5.8,4.3
		c-3.2,5.7-6.3,11.3-9.6,16.8c-1.7,2.8-3.8,5.7-5.5,8.5c-1.2,2-2,4.2-3.3,6.2c-7.5,10.5-13.3,21.6-19.1,32.9
		c-2.8,5.5-5.7,11.1-6.3,17.5c-0.5,5.2-1.5,3.7,2.8,6.3c4.8,3,9.8,5.8,14,9.8c2,1.8,4.3,3.3,6.8,4.7c2.8,1.7,5.8,2.8,8.8,4.3
		c5.2,2.7,10.1,5.5,15.5,7.8c3.3,1.5,6.5,3.2,10.3,3.3c1.5,0,3,1,4.5,1.3c4.2,1.2,8.5,2.2,12.6,3.7c2.2,0.8,4.3,0.8,6.7,0.8
		c0.3,0,1-0.3,1-0.7c0.2-1.3,0.3-2.7,0-3.8c-1.3-6.5-4.3-12.1-9-16.8c-0.2-0.2-0.5-0.3-0.8-0.5c-0.7,0.8-1.3,1.7-2,2.3
		c2,3.7,2.3,8.3,0.3,9.5c-0.2-0.7-0.3-1.2-0.3-1.7c-0.2-1.3,0-2.7-0.3-3.8c-0.3-1.3-0.8-3.2-1.8-3.8c-1.5-1.2-3.5-1.8-5.5-2.5
		c-4.2-1.2-7.5-3.8-11-6c-3.2-2-6.7-3.8-9.8-5.7c-1-0.7-2-1.2-3-2c-2.5-2.2-5-4.5-7.5-6.8c-2.2-1.8-4.8-3.2-5.7-6.2
		c-3.3,0.5-6.3,1.2-9,3.2c-0.7,0.5-1.5,0.8-2-0.3c2.5-2.2,5.2-3.3,8.3-4c1.7-0.3,3.2-0.8,4.8-1.2c0-0.2,0.2-0.3,0.2-0.7
		c-0.8-0.8-1.7-2-2.7-2.3c-2.2-0.8-4.5-1.2-6.7-1.8c-1.2-0.3-2.2-0.5-3.3-0.7c0-0.2,0-0.3,0-0.5c0.3-0.2,0.8-0.7,1.2-0.5
		c4.5,0.7,9.3,0.3,12.8,4.7c2-3.3,3.7-6.2,5.3-9.2c1.7-3.2,3.2-6.3,4.8-9.5c1.8-3.7,4-7.3,5.7-11c1.3-3,2.5-6.2,3.7-9.2
		c0.3-0.7,0-1.8-0.3-2.5c-1.3-2.5-2.8-4.8-4.3-7.2c-0.3-0.5-0.5-1-0.7-1.5c2.8,0.7,3.7,2.8,4.7,4.8c1.2,2,2,4,3.2,6.2
		c0.5-0.7,1.2-1.5,1.5-2.3c1-2.5,1.7-5,2.5-7.3c0.2-0.5,0.7-0.8,1-1.2c0.2,0.5,0.7,1,0.7,1.3c0,0.8-0.2,1.5-0.3,2.3
		c-1,3.3-1.8,6.8-4.5,9.3c-1,0.8-1.2,1.3-0.5,2.5c1,1.8,2.5,3.7,2.8,5.7c1,4.3,1.5,9,2,13.5c0.7,7.5,6.5,13.3,13.1,14.5
		c5.7,1,11.3,1.2,17,1.5c6.5,0.3,12.8,0.3,19.3,0.5c7.7,0.2,15.1-1.2,22.3-4.2c1.8-0.8,3.2-2,3.3-4.2c0-0.3,0.3-0.7,0.5-1
		c0.2-0.5,0.7-0.8,0.8-1.3c0.5-2,0.8-4.2,1.3-6.2c0.8-3,2-6,2.5-9.2c0.7-4,1-8.2,3.5-11.6c0.7-0.8,0.5-1.8-0.5-2.5
		c-2.8-2.3-3.8-5.5-3.3-9c0.3-2.8,1.3-5.5,2.2-8.2c0.2-0.3,0.7-0.5,1.2-1c0,0.8,0.2,1.2,0.2,1.5c-0.5,1.7-1,3.3-1.5,5.2
		c-1.2,3.8-0.2,7.3,3,9.3c1,0.7,1.7,1.7,2.3,2.7c4.3,6,7.3,12.8,10.5,19.5c2.7,5.5,5.2,11,7.7,16.5c0.3,0.8,0.8,1.7,1.3,2.8
		c1-1.7,1.5-3.2,2.5-4.3c2.8-3.5,7-4.3,11.1-4.5c0.5,0,1.3,0.5,1.3,0.8c0.2,0.7-0.2,1.3-0.2,1.5c-1.3-0.3-2.3-0.7-3.2-0.7
		c-4.2,0.5-7.7,1.8-9,6.3c-0.5,1.5-0.5,2.2,1.2,2.7c0.5,0.2,1,0.2,1.3,0.3c3.3,1.3,6.7,2.5,9.8,4c0.3,0.2,0.3,1,0.7,1.5
		c-0.5,0-1,0.2-1.2,0c-3.8-2.5-8.2-3.8-12.8-4.7c-0.3,0.3-0.8,0.8-1.2,1.3c-3.5,3-7.2,5.8-10.5,9c-2.3,2.2-5.3,3.3-8.2,4.5
		c-1.3,0.5-2.7,1.3-3.8,2.2c-0.8,0.5-1.5,1-2.2,1.3c-0.7,0.3-1.3,0.3-2,0.7c-2.3,1-4.8,2-7.2,3C131.7,187.2,130.2,187.5,128.9,188z
		 M115.7,75.5c-3.3,1.3-6,2.7-8.8,3.8c-4.2,1.5-8.2,1.2-11.8-1.5c-2.3-1.7-4.5-3.7-6.7-5.5c-1.5-1.3-2-1.3-3.3,0
		c-1.5,1.5-3.2,3-5,4.3c-2.8,2-5.7,3.7-8.5,5.5c-1.2,0.7-1.7,1.5-1.5,2.7c0.3,1.8,1.2,3.5,1.3,5.3c0.7,6.3,2.8,12.3,4.7,18.3
		c1.5,4.7,4.2,8.5,8.5,11c2.8,1.7,5.8,3,8.7,4.5c2.5,1.2,4.8,1,7-0.5c1.5-1,2.8-2.2,4.5-3c4.3-2.3,7.8-5.7,11-9.5
		c4.5-5.5,9.2-11,12-17.6c0.8-1.8,1.8-3.7,1.7-6.2c-1.8,6.7-5.5,8.8-11.8,5.5c-2.2,2.2-4.3,4.3-6.7,6.5c-1,1-1.8,2-2.7,2.8
		c-0.2,0.2-0.7,0.2-1,0.3c0-0.3,0-0.8,0-1.2c0.2-0.3,0.5-0.5,0.7-0.8c2.5-2.8,5-5.5,7.7-8.2c0.7-0.7,0.8-1.2,0-1.8
		c-2.8-2.7-3.2-5.5-1.5-9C114.7,79.5,115.1,77.5,115.7,75.5z M118.7,4.5c0.5,1.2,1,2.3,1.2,3.5c1,4.2,2.2,8.5,2.8,12.6
		c0.5,3.2-1.5,4.3-4.7,4.2c-1.8-0.2-3.7,0-5.5,0.2c-0.7,0-1.3,0-2,0c-3,0.2-6,0-9,0.3c-2.3,0.3-4.7,1.2-5.8,3.3
		c-1.8,3-3.5,6.2-4.7,9.5c-1.7,4.3-3.7,8.5-4,13.3c-0.2,4-0.3,8.2-0.5,12.1c-0.2,2.3,0.5,4.2,2,5.8c1.8,2,3.8,4.2,5.8,6
		c2.5,2,5.2,3.8,8.5,3.2c4.2-0.7,7.8-2.3,11.1-4.8c2.7-2,5.3-4,6.5-7.3c1.7-5.2,3.8-10.1,5.2-15.3c1.3-5.8,2.2-12,2.8-18
		c0.3-2.5-0.2-5-2.3-6.8c-0.3-0.2-0.5-0.7-0.5-1c0-6.7-2-13-4.5-19.1C120.9,4.8,120.4,4.1,118.7,4.5z M53,126.3
		c-0.3,0.8-0.5,1.3-0.7,1.8c-1.3,3.2-2.5,6.2-4,9.3c-2.5,5-5,9.8-7.7,14.6c-2.5,4.3-5.2,8.7-7.8,13c-0.8,1.2-1,2,0.2,2.8
		c1.8,1.7,3.8,3.2,5.7,4.8c3.5,3,6.5,6.7,11.1,8c0.7,0.2,1.2,0.7,1.8,1.2c2.8,1.8,5.7,3.8,8.7,5.5c2.5,1.3,2.8,1,3.2-1.8
		c0-0.2,0-0.2,0-0.3c0.8-9.3-0.8-18.3-2.7-27.3c-1.3-6.5-2.3-13-3.3-19.6C56.7,134.1,55.5,130.3,53,126.3z M65.8,178.2
		c-0.3,3.8-0.7,7.5-1,11.1c0,0.5,0.5,1.2,1,1.3c1.3,0.7,2.8,1.2,4.2,1.8c2.5,1.2,2.7,1.2,4.2-1.2c0.2-0.2,0.5-0.3,0.7-0.7
		c1.3-2.2,3-4.3,2-7.3c-0.3-0.8,0.3-2.2,1-2.8c1-1.2,1.5-2.2,0.7-3.7c-1.3-2.3,0-5.2,2.7-5.8c0.5-0.2,1.3-0.2,1.7-0.5
		c1.8-1.8,3.8-1.3,6-0.7c1.2,0.3,2.5,1,3.7,1.2c2.7,0.5,5.2,1.2,7.5,2.7c2.7,1.8,5.3,3.3,8.2,4.7c2.3,1.2,4.8,2.2,7.2,3
		c0.5,0.2,1.7,0,1.8-0.3c0.7-1.2,0.8-2.5,1.3-3.8c-0.5-0.2-1-0.3-1.5-0.3c-1.3,0-2.7,0.2-4,0.2c-0.8,0-1.7-0.5-2.5-0.8
		c0-0.2,0-0.3,0-0.7c0.3-0.2,0.8-0.3,1.2-0.3c2.7,0,5.2-0.2,7.8,0c2.7,0,5.2-0.8,7.5-2.2c1.5-0.8,2.8-1.8,4.2-2.7
		c4.7-2.8,6.3-7.2,4.8-12.5c-1,0.7-2,1.3-3,1.8c-6.7,3.2-13.6,4.8-21,4.7c-11.6-0.2-23.1-0.5-34.8-1.2c-5.2-0.3-10-2.2-13.6-6.2
		c-0.3-0.3-0.7-0.7-1.2-1c0.7,3.7,1.3,7.2,2,10.5c0.5,2.7,0.5,5.3,1,8.2c0.2,0.7,0.8,1.5,1.3,1.7c2.3,0.8,4.7,1.3,7,2
		c0.5,0.2,1,0.5,1.2,0.8c0.2,0.2-0.2,1-0.3,1c-0.5,0.2-1,0-1.5-0.2C70.6,179.7,68.3,178.8,65.8,178.2z M146.5,125.6
		c-0.3,0-0.5,0-0.8,0c-1,2.2-2.3,4.3-2.7,6.7c-0.7,5.5-2,11-4.2,16.1c-0.2,0.3-0.2,0.8-0.3,1.2c-0.3,7.8-1.5,15.8,1.5,23.5
		c0.7,1.5,0.8,3.3,1.3,5c0.2,0.7,0.7,1.5,0.8,2c1.8-0.7,3.3-1.3,4.8-2c1.7-0.7,3.7-1.2,5.2-2.3c4.2-3.2,8-6.5,12-9.8
		c0.5-0.5,0.7-1.7,0.5-2.3c-1.2-3-2.3-6-3.7-8.8c-3.8-8-7.7-15.8-11.5-23.6C148.8,129.1,147.7,127.3,146.5,125.6z M61.2,217.6
		c9,0,17.6-0.2,26.3,0c4.8,0.2,9.6,0.3,14.3,1.2c7.3,1.3,14.6,1.3,22,0.7c5.2-0.5,10.3-0.7,15.5-1.2c2.5-0.2,5-0.8,7.5-1.5
		c0.8-0.2,1.3-0.7,1-1.7c-1.2-3-2.3-6.2-3.7-9.3c-4.5,0.8-8.7,1.8-12.8,2.3c-4.7,0.5-9.3,0.5-14,0.8c-0.5,0-1,0-1.3,0.3
		c-2.5,1.8-5.5,2.5-8.5,2.7c-1.2,0-2.3,0.7-3.7,0.8c-2.7,0.5-5.3,1.2-8,1.3c-2.3,0.2-4.7-0.3-7.2-0.5c-0.2,0.8-0.3,1.8-0.7,2.8
		c-1.7,0.2-3.3,0.5-5,0.3c-3-0.3-5.8-0.8-8.7-1.5c-2.5-0.7-4.7-1.8-7.2-2.5c-1.3-0.3-2.8-0.5-4.2-0.7c-0.7-0.2-1.3-0.2-2-0.3
		C61.2,213.9,61.2,215.6,61.2,217.6z M84.4,171.3c0,0.2-0.2,0.3-0.2,0.7c0.3,0.3,0.8,0.7,1.2,0.8c2.8,1,5.7,1.8,8.5,3
		c2.8,1.2,5.5,2.5,8.2,4c0.3,0.2,0.3,1,0.3,1.5c-0.5,0-1,0-1.3-0.2c-0.8-0.5-1.5-1.2-2.3-1.5c-5.5-2.2-11-4.2-16.5-6.3
		c-1-0.3-2.2-0.2-2.5,1c-0.3,1.2,0.5,1.7,1.5,2c3.2,1.2,6.5,2.2,9.5,3.5c2.8,1.2,6.2,1.8,8.2,4.5c0.3,0.5,0.5,1.2,0.7,1.7
		c-0.7,0.2-1.2,0.5-1.8,0.5c-0.5,0-1.2-0.2-1.7-0.3c-1.7-0.5-3.2-1-4.8-1.3c-3.7-1-7.3-1.8-11-2.8c-0.5-0.2-1.2,0.3-1.7,0.3
		c0.3,0.5,0.7,1.2,1.2,1.3c1.8,0.7,3.5,1.7,5.3,1.8c4,0.5,7.7,1.8,11.1,3.8c0.8,0.5,1.5,1.3,2.2,1.8c-1,0.2-2.2,0.7-3.2,0.5
		c-4-0.7-7.8-1.7-11.8-2.5c-0.5-0.2-1-0.2-1.5-0.2c0.7,1.5,1,1.7,2.8,2.2c5.3,2,10.8,4,15.5,7.5c2.7,2,5.5,3.2,8.8,3.5
		c0.2-0.3,0.2-0.7,0.2-1c0.5-6.7,3.2-12,9.5-14.6c2.7-1.2,4-2.5,4-5.3c0-1.7,0.5-3.2,0.8-5.3c-1.5,0.7-2.7,0.8-3.3,1.5
		c-0.7,1-0.8,2.3-1.2,3.5c-0.7,2.2-1.3,2.8-3.5,2.2c-3.7-1.3-7.3-3-11-4.7c-3-1.5-5.7-3.5-8.8-4.7c-2.8-1.2-5.8-1.8-8.8-2.5
		C86.4,171.2,85.4,171.3,84.4,171.3z M93.9,197.3c-2-1-3.5-1.7-5.2-2.3c-2.3-1-4.8-1.8-7.2-3c-1.2-0.5-1.5-1.8-1.2-3.2
		c0.5-1.3,1.7-1.2,2.7-1c3.3,0.7,6.5,1.7,9.8,2.5c0.8,0.2,1.8,0.5,2.7,0.7c0-0.2,0.2-0.3,0.2-0.5c-0.7-0.3-1.3-0.8-2-1
		c-3.7-1-7.3-2-11-2.8c-1.2-0.3-2.8-0.8-3.7-0.3c-1,0.7-1.2,2.3-1.7,3.5c-0.7,1.2-0.5,2,0.5,3c3.5,3.5,6.3,7.3,7.7,12.3
		c0.7,2.3,1.3,4.7,2,7c2,0.3,4.2,1,6.2,1.2c1.8,0.2,3.8-0.3,5.7-0.7c2.2-0.5,4.2-1.2,6.2-1.7c2.3-0.7,4.7-1.2,6.8-1.7
		c0.3-0.2,0.7-0.5,1.3-1c-5.3-1.2-10.3,0-15.1,0.3c-0.5,0-1-0.2-1.5-0.3c0.3-0.5,0.5-1,1-1.3s1.2-0.3,1.7-0.5c1.5-0.2,3-0.2,4.5-0.3
		c1.2-0.2,2.3-0.5,3.5-0.8c0-0.2,0-0.5,0-0.7c-2.7-0.5-5.2-2.3-8.2-1.5c-0.7,0.2-1.3-0.3-2.2-0.5c0.3-0.7,0.7-1.3,1-2
		c-2.3-2.5-2.5-2.5-6-1.2c-0.7,0.2-1.2,0.5-1.8,0.5c-0.3,0-0.8-0.3-1.2-0.5c0.3-0.3,0.5-0.7,0.8-0.8C91.8,198,92.6,197.8,93.9,197.3
		z M135.9,82.5c-0.2,0-0.3-0.2-0.5-0.2c-0.3,0.2-0.7,0.5-0.8,0.8c-1.5,2.8-3.2,5.7-4.3,8.5c-2,5.2-4.8,9.8-8.3,14
		c-1.5,1.8-3.2,3.7-4.7,5.7c-5.2,7-12.1,11.3-19.8,15c-0.5,0.3-1.5,0.3-2,0.2c-5-1.7-9.8-3.7-13.8-7.2c-2.2-1.8-4.3-4.2-5.5-6.8
		c-2-4.2-3.5-8.7-4.7-13.1c-1.5-5-2.5-10.1-3.7-15.5c-0.8,0.2-1.3,0.3-2.2,0.7c0.7,2,1.3,3.7,1.8,5.5c1.7,6,3.2,12,5,17.8
		c2.2,7.3,6.3,13.3,13,17.5c0.8,0.5,2,0.8,3,1.2c0.8,0.3,1.7,0.3,2.5,0.7c3.3,1,6.8,1.7,10.1,0.5c4.3-1.5,8.5-3.5,11.5-7.2
		c3.8-4.5,7.3-9.2,11-13.8c1.7-2.2,3.7-4.5,5-7c2.7-5,4.8-10.1,7.2-15.3C135.9,83.7,135.7,83.2,135.9,82.5z M136.8,168.2
		c-1.8,1.3-3.2,2.7-4.8,3.7c-3.8,2.3-6.8,4.8-7.3,10c-0.2,3,1,5.2,4.2,4.2c3.7-1.2,7.2-2.7,10.8-4.2c0.3-0.2,0.8-1,0.7-1.5
		C139.2,176.3,138,172.2,136.8,168.2z M98.3,184.8c0-0.2,0-0.3,0.2-0.5c-0.3-0.2-0.7-0.5-1-0.7c-3-1.2-6.2-2.2-9.2-3.3
		c-0.5-0.2-1,0.2-1.5,0.3c0.3,0.3,0.7,1,1.2,1.2c3,1,5.8,2,8.8,2.8C97.1,185,97.6,184.8,98.3,184.8z M84.1,181.5
		c0.8-2.5-1.3-3.7-4.7-3C81.1,179.5,82.6,180.5,84.1,181.5z"/>
	<path class="st0" d="M87.3,96.1c-0.7,0.2-1.2,0.5-1.3,0.3c-3.8-2.3-7.5-4.8-11.3-7.3c0,0-0.2,0-0.2-0.2c-0.2-0.7-0.3-1.2-0.5-1.8
		c0.7,0.2,1.3,0.3,1.8,0.7c1.8,1.2,3.8,2.3,5.7,3.7c1.7,1.2,3.3,2.3,5,3.5C86.6,95,86.8,95.5,87.3,96.1z"/>
	<path class="st0" d="M112.7,67.2c-0.5,0.2-0.8,0.5-1.3,0.7c-2.2,0.5-4.3,1.2-6.5,1.7c-2.7,0.5-4.7-0.5-6.3-2.3c-1-1.2-2.3-2-3.5-3
		c-0.2-0.2-0.5-0.7-0.3-0.8c0.2-0.2,0.5-0.5,0.8-0.5c2.7-0.2,5.3-0.5,8-0.3c1.7,0.2,3.3,0.8,4.8,1.5c1.7,0.7,3.2,1.7,4.7,2.5
		C112.7,66.9,112.7,67,112.7,67.2z M97.8,65c3.2,3.8,8.2,4.8,12,2.5C105.9,66.7,101.9,65.9,97.8,65z M109.6,66.4
		c0-0.2,0-0.5,0.2-0.7c-3.5-2.3-7.3-1.8-11-2c0,0.2,0,0.3-0.2,0.7C102.2,65,105.9,65.7,109.6,66.4z"/>
	<path class="st0" d="M105.1,44.4c-5,2.2-9-0.2-13.1-2.8c1.2-1.7,3-1.5,4.7-1.5C101.2,39.9,103.4,41.1,105.1,44.4z M101.1,42.1
		c-0.8,0.7-1.5,1.5-1.8,1.3c-0.8-0.2-2-0.7-2.3-1.3c-0.7-1.3-1.2-1-2.2-0.5c1.5,1.8,3.2,2.8,5.5,2.7c0.7,0,1.3-0.7,2.2-1
		C101.9,43.1,101.4,42.4,101.1,42.1z"/>
	<path class="st0" d="M124.4,50.4c-4.3,0.2-8.2-0.5-11.8-2.7c-0.2-0.2-0.2-1,0-1.2C116.9,43.4,122.5,45.6,124.4,50.4z M120.7,47.9
		c-1,0.5-1.7,1-2.3,1c-1.3,0-2.5-0.7-2.7-2.5c-0.5,0.5-1,1.2-0.8,1.3c0.8,1.5,5.5,2.3,7.2,1.2C121.4,48.4,120.9,48.1,120.7,47.9z"/>
	<path class="st0" d="M110.2,47.6c0,0.5-0.2,1-0.2,1.5c-0.3,2.2-0.2,4.2,0.8,6.2c1.8,3.5,0.3,5.7-3.5,5.7c-1.7,0-3.2,0-4-1.7
		c-0.2-0.3-0.7-0.5-1-0.5c-1.7,0-2.2-1.2-2.2-2.5c-0.2-1.5,0.7-2.5,1.7-3.3c0.2,0.2,0.3,0.2,0.5,0.3c-0.3,0.7-0.8,1.3-1.2,2
		c-0.7,1.3-0.2,2,1.3,2.3c0.7,0.2,1.3,0.7,1.8,1.2c1,1.2,4.2,1.7,5.7,0.7c1.5-1,1-2.5,0.2-3.7c-1.2-2-1.3-4.3-1-6.5
		c0.2-0.7,0.3-1.2,0.5-1.8C109.9,47.6,110.1,47.6,110.2,47.6z"/>
	<path class="st0" d="M104.7,39.6c-1.3,0.7-10.6-1.3-11.8-2.3C95.3,35.6,103.9,37.3,104.7,39.6z"/>
	<path class="st0" d="M125.5,46.9c-0.5-0.3-1.2-0.5-1.7-0.8c-2.2-1.5-4.5-2.7-7.2-3c-0.5,0-1-0.2-1.3-0.3c-0.3-0.2-0.7-0.7-0.7-1
		c0-0.3,0.5-0.7,0.8-0.7c0.5-0.2,1.2-0.2,1.5,0c2.7,1.2,5.2,2.3,7.8,3.7c0.5,0.3,0.7,1.2,1,1.7C126,46.6,125.7,46.7,125.5,46.9z"/>
	<path class="st0" d="M105.7,73.2c-2.5-0.7-5-1.3-7.5-1.8C100.4,70,104.7,71.2,105.7,73.2z"/>
</g>
</svg>
