<?xml version="1.0" encoding="utf-8"?>
<!-- Generator: Adobe Illustrator 21.1.0, SVG Export Plug-In . SVG Version: 6.00 Build 0)  -->
<svg version="1.1" id="Layer_1" xmlns="http://www.w3.org/2000/svg" xmlns:xlink="http://www.w3.org/1999/xlink" x="0px" y="0px"
	 width="44.1px" height="60px" viewBox="0 0 44.1 60" style="enable-background:new 0 0 44.1 60;" xml:space="preserve">
<style type="text/css">
	.st0{fill:#FFC107;}
	.st1{fill:#2196F3;}
</style>
<path class="st0" d="M0,22.1C-0.1,12.6,6.4,3.6,15.6,0.9c10.9-3.2,21.9,1.9,26.6,12.2c1.5,3.4,2.1,7,1.8,10.8
	c-0.4,7-2.9,13.3-6.5,19.2c-4,6.4-9.1,11.9-14.9,16.7c-0.4,0.3-0.6,0.3-1,0c-7-5.7-12.8-12.3-17-20.3c-2.2-4.3-3.8-8.9-4.3-13.7
	C0.1,24.5,0.1,23.3,0,22.1z M21.8,4.6c-9.4,0-17.1,7.6-17.2,17.1c0,9.5,7.6,17.2,17.2,17.3c9.3,0,17.1-7.7,17.2-16.9
	C39,12.3,31.4,4.6,21.8,4.6z"/>
<path class="st1" d="M22.3,14.8c-1.1-0.3-2.8-1-4.4-0.8c-1.7,0.3-2.6,1.8-2.6,3.4c0,1.5,0.5,3.3,1.2,4.6c-0.2,3.7,1.6,6.7,3.7,8.6
	c0.5,0.3,0.9,0,1.1-0.5c0.2-0.9,0.1-1.9,0.1-2.7c0-0.7,0.1-1.5,0.3-2.1c0.1-0.5,0.3-0.8,0.6-1c0.4,0.3,0.7,0.6,0.9,1.1
	c0.3,0.6,0.4,1.3,0.5,2.1c0.1,0.9,0.1,1.8,0.2,2.6c0.1,0.5,0.4,0.8,0.9,0.7c1.5-0.6,2.4-2.2,2.7-4c0.3-1.7,0.3-3.7-0.2-5.4
	c0.8-1.5,1.4-3,1.4-4.4c0-1.6-1.1-2.8-2.5-2.9C24.9,13.9,23.5,14.4,22.3,14.8L22.3,14.8z M18.1,15.1c1.4-0.2,2.8,0.4,4.1,0.8
	c0.1,0,0.2,0,0.3,0c1.3-0.5,2.4-1,3.6-0.8c1.1,0.1,1.6,0.9,1.6,1.8c0,1.1-0.6,2.6-1.4,4.1c-0.1,0.1-0.1,0.3,0,0.4
	c0.5,1.6,0.6,3.5,0.3,5.1c-0.3,1.2-0.7,2.2-1.4,2.8c0-0.5,0-1.2-0.1-2c-0.1-0.8-0.3-1.6-0.6-2.4c-0.3-0.8-0.9-1.5-1.7-1.8
	c-0.2-0.1-0.4-0.1-0.5,0c-0.7,0.4-1.1,1.1-1.3,1.9c-0.2,0.8-0.3,1.6-0.4,2.4c0,0.7,0,1.3,0,1.8c-1.6-1.8-2.9-4.3-2.7-7.2
	c0-0.1,0-0.2-0.1-0.3c-0.7-1.2-1.2-2.8-1.1-4.1C16.7,16.2,17.2,15.3,18.1,15.1L18.1,15.1z"/>
</svg>
