<?xml version="1.0" encoding="utf-8"?>
<!-- Generator: Adobe Illustrator 21.1.0, SVG Export Plug-In . SVG Version: 6.00 Build 0)  -->
<svg version="1.1" id="Layer_1" xmlns="http://www.w3.org/2000/svg" xmlns:xlink="http://www.w3.org/1999/xlink" x="0px" y="0px"
	 width="120.9px" height="40px" viewBox="0 0 120.9 40" style="enable-background:new 0 0 120.9 40;" xml:space="preserve">
<style type="text/css">
	.st0{fill:#FF9800;}
</style>
<path class="st0" d="M78.8,27.8c0.6,1.5,1.2,2.8,1.8,4.3c-1.7,0-2.9-0.1-4.1,0c-0.5,0.1-1.2,0.4-1.6,0.8c-1.6,2-2.8,2.3-4.9,1
	c-2.2-1.4-4.6-1.7-7.2-1.6c-2,0.1-2.7-0.9-2.1-2.8c0.3-1,0.7-2,1.1-3.2c-3.1,1.5-3.7,3.9-1.7,6.4c1.1,1.4,2.5,2.4,4.1,3.1
	c0.8,0.4,1.3,0.2,1.9-0.5c1.2-1.5,2.3-1.7,3.5-0.9c0.9,0.6,1,1.7,0.3,2.4c-0.5,0.5-1.1,0.9-1.6,1.3c-2.9,2-4.4,1.8-7.5-0.5
	c-1.1-0.8-2.1-1.6-3.3-2.4c-2.7-1.7-3.2-3.5-1.8-6.4c0.6-1.2,0.3-2.5-0.7-3.6c-1.4-1.5-3.2-2.1-5.1-2.6c-0.5-0.1-1.1-0.1-1.5-0.3
	c-2.8-1.6-5.4-0.7-8.2,0.2c-3.7,1.2-7.6,2.2-11.3,3.1c-3.1,0.7-6.4,1.1-9.6,1.6c-4,0.6-7.7,2.2-11.2,4.2c-1.3,0.7-2.6,1.4-3.9,1.9
	C2.6,34,1,33.6,0.4,32.6c-0.7-1.1-0.5-3.1,0.8-4c2.2-1.4,4.4-2.8,6.9-3.7c5-1.9,10.4-2.8,15.7-2.9c7.8,0,14.6-2.8,21.1-6.8
	c1.6-1,2.8-2.6,4.3-3.8c3.9-3.4,8.1-6.5,12.8-8.6c7.3-3.2,14.2-2.6,21.1,1.1c0.4,0.2,0.8,0.4,1.1,0.7c1.8,1.6,3.8,1.9,6.2,1.7
	c2-0.2,4-0.2,6.1-0.3c0.6,0,1.2-0.3,1.7-0.6c2.1-1.1,4.1-2.2,6.3-3.3c0.8-0.4,0.9-0.5,0.6-2c2.9,0.7,6.1,1.4,9.1,2.2
	c1.9,0.5,3.3,1.4,3.6,3.7c0.2,1.3,1.4,2.5,2.3,3.5c0.8,0.9,1.2,1.6,0.6,2.6c-1.2,2-2.9,3.3-5.2,1.8s-4.6-1.1-7,0.1
	c-0.4,0.2-0.9,0.3-1.4,0.2c-2.7-0.3-4.8,0.7-6.2,3.1c-1.4,2.6-3.3,4.8-5.9,6.6c-1.6,1.2-3.5,1.8-5.4,2c-0.5,0-0.9,0.2-1.4,0.3
	c0.7,1.6,1.4,3,1.9,4.6c0.6,1.7,0.3,2.7-1.1,3.8c-2.3,1.6-4.6,3.2-7.1,4.7c-2.2,1.4-6.4,0-7.5-2.4c-0.5-1,0.2-1.6,1-2.1
	c0.9-0.7,1.8-0.5,2.5,0.4c1.2,1.5,2.3,1.9,3.8,0.7c1.3-0.9,2.3-2.2,3.2-3.5c1.1-1.6,0.4-2.9-0.7-4.3c-2.2-2.6-3.1-2.8-5.4-0.2
	C78.7,28.1,78.7,28.1,78.8,27.8z M72.5,19.6c-1.9,2.4-3.7,4.7-5.4,7.1c0.4,0.4,0.9,0.8,1.1,1.3c0.4,0.8,0.9,0.9,1.7,0.7
	c1-0.3,2.1-0.3,3.2-0.6c0.3-0.1,0.8-0.4,0.9-0.7c0.4-1.3,0.8-2.7,1.1-4c0.1-0.3,0-0.8-0.2-1.1C74.1,21.2,73.2,20.3,72.5,19.6z"/>
</svg>
