<?xml version="1.0" encoding="utf-8"?>
<!-- Generator: Adobe Illustrator 21.1.0, SVG Export Plug-In . SVG Version: 6.00 Build 0)  -->
<svg version="1.1" id="Layer_1" xmlns="http://www.w3.org/2000/svg" xmlns:xlink="http://www.w3.org/1999/xlink" x="0px" y="0px"
	 width="77.4px" height="80px" viewBox="0 0 77.4 80" style="enable-background:new 0 0 77.4 80;" xml:space="preserve">
<style type="text/css">
	.st0{fill:#2196F3;}
</style>
<g>
	<path class="st0" d="M16.8,32.9c0.9,4,2.5,6.1,4.1,7.2c0.5,2,1.6,4.9,3.9,8l0,0c0,0,0,0,0,0c0.1,0.2,0.2,0.4,0.4,0.5
		c0,0,1.7,1.9,4,3.7c1.1,0.8,2.4,1.7,3.9,2.3c0,0,0,0,0,0c0.5,0.2,1,0.3,1.5,0.5c0.8,0.2,1.5,0.4,2.1,0.5c0.3,0.1,0.7,0.1,1,0.1
		c0.1,0,0.3,0,0.4,0c0.2,0,0.4,0,0.5,0c3.3,0,6.5-1.2,9.6-3.6c0,0,3.2-3,4.6-4.7c2.1-2.9,3.1-5.6,3.6-7.5c1.5-1.1,3.1-3.2,4.1-7.2
		c0.5-2.3,1-5.3-0.7-7.4c0-0.1-0.1-0.1-0.1-0.2C61.2,10.5,51.7,3,46.1,1L46,1l-0.1,0c-2.1-0.6-4.1-1-6-1c-0.4,0-0.9,0-1.3,0.1
		C38.3,0,37.8,0,37.4,0c-1.9,0-3.9,0.3-6,1l-0.1,0l-0.1,0c-5.6,2-15.1,9.4-13.6,24.3c0,0.1-0.1,0.1-0.1,0.2
		C15.8,27.6,16.2,30.5,16.8,32.9z M21.3,27.5c0.3,0,0.6,0.1,0.6,0.1c-3.5-18.1,10.6-23,10.6-23c1.9-0.6,3.6-0.8,4.9-0.8
		c0.4,0,0.9,0,1.3,0.1c0.4,0,0.8-0.1,1.3-0.1c1.3,0,3,0.2,4.9,0.8c0,0,14.1,4.9,10.6,23c0,0,0.3-0.1,0.6-0.1c0.7,0,1.6,0.6,0.7,4.5
		c-1.2,5-3.2,5.3-3.6,5.3c-0.1,0-0.1,0-0.1,0s-0.3,4.7-4.6,9.8c0,0,0,0.1,0,0.1c-3.4,3.4-6.8,5.1-10.2,5c-4.3-0.2-7.7-3.1-9.3-4.9
		c0,0,0-0.1,0-0.1c-4.4-5.1-4.7-9.9-4.7-9.9s0,0-0.1,0c-0.5,0-2.5-0.3-3.6-5.3C19.6,28.1,20.6,27.5,21.3,27.5z"/>
	<path class="st0" d="M77.1,69c-3.5-9.2-9.4-11.4-14.2-12.2c-4-0.7-8.9-2.2-10.7-3.2l-9.4,15.7l-1.4-6.2c1.6-0.9,2.8-2.7,2.8-4.7
		c0-0.2,0-0.4-0.1-0.7c-1.7,0.5-3.5,0.7-5.4,0.7c-1.9,0-3.8-0.3-5.5-0.8c0,0.2-0.1,0.4-0.1,0.7c0,2,1.1,3.8,2.8,4.7l-1.4,6.1
		l-9.3-15.6c-1.8,1-6.7,2.4-10.7,3.2C9.8,57.6,3.8,59.8,0.3,69c-0.6,1.6-0.4,3.3,0.6,4.7C4.5,78.9,23.5,80,38.7,80
		c15.3,0,34.2-1.1,37.8-6.3C77.5,72.3,77.7,70.6,77.1,69z"/>
</g>
</svg>
