<?xml version="1.0" encoding="utf-8"?>
<!-- Generator: Adobe Illustrator 21.1.0, SVG Export Plug-In . SVG Version: 6.00 Build 0)  -->
<svg version="1.1" id="Layer_1" xmlns="http://www.w3.org/2000/svg" xmlns:xlink="http://www.w3.org/1999/xlink" x="0px" y="0px"
	 width="63.1px" height="70px" viewBox="0 0 63.1 70" style="enable-background:new 0 0 63.1 70;" xml:space="preserve">
<style type="text/css">
	.st0{fill:#00E676;}
	.st1{fill:#BBBBBB;}
</style>
<g>
	<g>
		<path class="st0" d="M47.8,36.5l1.8,7.3l1.8-0.5l-2.3-8.6H35.1l-0.1,0.8c0,0-0.3,1.8-1.2,3.6c-1.3,2.3-3.2,3.5-5.5,3.5l0,0l0,0
			l0,0c-5.7,0-6.8-6.8-6.9-7.1l-0.1-0.8H7.1L0,62.3l1.8,0.4l6.6-26.2h11.1c0.7,3.1,3.1,7.9,8.5,7.9l0,0l0,0l0,0l0,0
			c5.4,0,7.9-4.7,8.5-7.9H47.8z"/>
		<path class="st0" d="M28.1,32c8.8,0,16-7.2,16-16s-7.2-16-16-16s-16,7.2-16,16S19.3,32,28.1,32z M28.1,2C35.8,2,42,8.3,42,16
			s-6.3,13.9-13.9,13.9S14.1,23.7,14.1,16S20.4,2,28.1,2z"/>
	</g>
	<g>
		<path class="st1" d="M61.5,48.3l-0.6-0.6c-2.2-2.2-5.6-2.2-7.8,0L40.8,60c-1,1-1.6,2.5-1.6,3.9c0,1.4,0.6,2.9,1.6,3.9l0.6,0.6
			c1,1,2.5,1.6,3.9,1.6s2.9-0.5,3.9-1.6l12.3-12.3C63.6,53.9,63.6,50.4,61.5,48.3z M48,67.2c-1.5,1.5-4,1.5-5.5,0l-0.6-0.6
			c-0.7-0.7-1.1-1.7-1.1-2.8s0.4-2,1.1-2.8l5.6-5.6l6.1,6.1L48,67.2z M60.4,54.9l-5.6,5.6l-6.1-6.1l5.6-5.6c0.7-0.7,1.7-1.1,2.8-1.1
			c1,0,1.9,0.4,2.8,1.1l0.6,0.6C61.8,50.9,61.8,53.4,60.4,54.9z"/>
		<polygon class="st1" points="52.1,53.3 52.5,53.7 53,54.2 56.3,50.8 55.4,49.9 		"/>
	</g>
</g>
</svg>
