<?xml version="1.0" encoding="utf-8"?>
<!-- Generator: Adobe Illustrator 21.1.0, SVG Export Plug-In . SVG Version: 6.00 Build 0)  -->
<svg version="1.1"
	 id="Layer_1" xmlns:cc="http://creativecommons.org/ns#" xmlns:dc="http://purl.org/dc/elements/1.1/" xmlns:inkscape="http://www.inkscape.org/namespaces/inkscape" xmlns:rdf="http://www.w3.org/1999/02/22-rdf-syntax-ns#" xmlns:sodipodi="http://sodipodi.sourceforge.net/DTD/sodipodi-0.dtd" xmlns:svg="http://www.w3.org/2000/svg"
	 xmlns="http://www.w3.org/2000/svg" xmlns:xlink="http://www.w3.org/1999/xlink" x="0px" y="0px" width="63.8px" height="60px"
	 viewBox="0 0 63.8 60" style="enable-background:new 0 0 63.8 60;" xml:space="preserve">
<style type="text/css">
	.st0{fill:#BBBBBB;}
</style>
<g transform="translate(0,-952.36218)">
	<path class="st0" d="M29.4,952.4c-16.3,0-29.4,13.5-29.4,30s13.2,30,29.4,30c13.9,0,25.6-9.9,28.6-23.1c0.2-0.5-0.1-1-0.6-1.2
		c-0.5-0.2-1,0.1-1.2,0.6c0,0,0,0.1,0,0.2c-2.9,12.4-13.8,21.7-26.8,21.7c-15.2,0-27.6-12.6-27.6-28.1s12.3-28.1,27.6-28.1
		c12.8,0,23.6,8.9,26.7,20.9l-7.2-3.7c-0.5-0.3-1-0.1-1.3,0.4c-0.3,0.5-0.1,1,0.4,1.3c0,0,0,0,0.1,0l9.2,4.7c0.5,0.2,1,0.1,1.3-0.4
		l5.2-9.2c0.3-0.4,0.1-1-0.3-1.3c-0.2-0.1-0.4-0.1-0.6-0.1c-0.3,0-0.6,0.2-0.7,0.5l-4.1,7.3C54.6,961.8,43.1,952.4,29.4,952.4z"/>
</g>
</svg>
