<?xml version="1.0" encoding="utf-8"?>
<!-- Generator: Adobe Illustrator 21.1.0, SVG Export Plug-In . SVG Version: 6.00 Build 0)  -->
<svg version="1.1" id="Layer_1" xmlns="http://www.w3.org/2000/svg" xmlns:xlink="http://www.w3.org/1999/xlink" x="0px" y="0px"
	 width="90.2px" height="40px" viewBox="0 0 90.2 40" style="enable-background:new 0 0 90.2 40;" xml:space="preserve">
<style type="text/css">
	.st0{fill:#03A9F4;}
</style>
<path class="st0" d="M62.7,21c2.6-1.4,5-2.8,7.3-4.2c2.6-1.4,5.3-2.9,7.9-4.4c0.4-0.3,0.7-0.8,0.8-1.3c1-4.9,3.7-8.5,7.9-11
	c0.5-0.3,1.4-0.3,1.6,0c0.4,0.4,0.5,1.2,0.3,1.7c-0.1,0.4-1.1,0.7-1.4,0.6c-2-0.9-2.8,0.5-3.8,1.6c-1.8,2.3-2.7,5-2.2,8
	c0.3-0.2,0.5-0.2,0.5-0.3c1.1-3.2,3-5.6,5.9-7.2c0.7-0.4,1.6-0.2,2.4-0.3c0,0.5,0.2,1.2,0,1.5c-0.5,0.8-1.1,1.2-2.2,0.6
	c-0.4-0.2-1.2,0-1.4,0.3c-0.7,0.8-1.4,1.7-1.8,2.6c-0.5,0.9-1.1,2-0.9,2.8c0.1,0.7,1.3,1.3,1.9,1.9c3.7,3.3,3.6,5.1-0.8,7.4
	c-0.8,0.5-1.6,0.8-2.4,1.2c-4.2,1.5-6.9,5.1-9.9,8.2c-2.7,2.7-5.8,5.1-8.8,7.5c-1.5,1.2-3.4,1.5-5.5,1.5c-18.7-0.1-37.3,0-56,0
	c-0.6,0-1.3,0-1.9,0c-0.2-0.2-0.3-0.3-0.4-0.5c0.6-0.4,1.2-0.9,1.8-1.1c5.8-2.2,11.8-3.4,17.9-4.3c2.3-0.4,4.7-0.8,7.1-1.2
	c-0.1-0.2-0.2-0.5-0.4-0.6c-7.7-8.4-4.9-20.4,5.1-25.7c9.2-4.8,20.4-2.9,27.2,4.6C61.1,13.8,62.3,17,62.7,21z"/>
</svg>
