<?xml version="1.0" encoding="utf-8"?>
<!-- Generator: Adobe Illustrator 21.1.0, SVG Export Plug-In . SVG Version: 6.00 Build 0)  -->
<svg version="1.1" id="Layer_1" xmlns="http://www.w3.org/2000/svg" xmlns:xlink="http://www.w3.org/1999/xlink" x="0px" y="0px"
	 viewBox="0 0 296.4 670.8" style="enable-background:new 0 0 296.4 670.8;" xml:space="preserve">
<style type="text/css">
	.st0{fill:url(#case_2_);}
	.st1{fill:url(#SVGID_1_);}
	.st2{fill:url(#SVGID_2_);}
	.st3{fill:url(#SVGID_3_);}
	.st4{fill:url(#SVGID_4_);}
	.st5{fill:url(#SVGID_5_);}
	.st6{fill:url(#SVGID_6_);}
	.st7{opacity:0.6;fill:#FFFFFF;}
	.st8{fill:url(#SVGID_7_);}
	.st9{fill:url(#SVGID_8_);}
	.st10{fill:url(#SVGID_9_);}
	.st11{fill:url(#SVGID_10_);}
	.st12{fill:url(#SVGID_11_);}
	.st13{fill:url(#SVGID_12_);}
	.st14{fill:url(#SVGID_13_);}
	.st15{fill:url(#SVGID_14_);}
	.st16{fill:url(#SVGID_15_);}
	.st17{fill:url(#SVGID_16_);}
	.st18{fill:url(#SVGID_17_);}
	.st19{fill:url(#SVGID_18_);}
	.st20{fill:url(#SVGID_19_);}
	.st21{fill:url(#SVGID_20_);}
	.st22{fill:url(#SVGID_21_);}
	.st23{fill:url(#SVGID_22_);}
	.st24{fill:url(#SVGID_23_);}
	.st25{fill:url(#SVGID_24_);}
	.st26{fill:url(#SVGID_25_);}
	.st27{fill:url(#SVGID_26_);}
	.st28{fill:url(#SVGID_27_);}
	.st29{fill:url(#SVGID_28_);}
	.st30{fill:url(#SVGID_29_);}
	.st31{fill:url(#SVGID_30_);}
	.st32{fill:url(#SVGID_31_);}
	.st33{fill:url(#SVGID_32_);}
	.st34{fill:#D9D9D9;}
	.st35{fill:url(#SVGID_33_);}
	.st36{fill:#BDBDBD;}
	.st37{fill:url(#SVGID_34_);}
	.st38{fill:url(#SVGID_35_);}
	.st39{fill:url(#SVGID_36_);}
	.st40{fill:#B39DDB;}
	.st41{fill:url(#SVGID_37_);}
	.st42{fill:url(#SVGID_38_);}
	.st43{fill:url(#SVGID_39_);}
	.st44{display:none;fill:url(#SVGID_40_);}
	.st45{display:none;fill:url(#SVGID_41_);}
	.st46{fill:none;stroke:#000000;stroke-width:1.5;stroke-miterlimit:10;}
	.st47{font-family:'MyriadPro-Regular';}
	.st48{font-size:21px;}
	.st49{font-size:15px;}
	.st50{font-size:18px;}
	.st51{fill:#514F4F;}
	.st52{font-size:25.4454px;}
	.st53{fill:url(#SVGID_42_);}
	.st54{fill:#838993;}
	.st55{fill:url(#SVGID_43_);}
	.st56{fill:url(#SVGID_44_);}
	.st57{fill:url(#SVGID_45_);}
	.st58{fill:url(#SVGID_46_);}
	.st59{fill:url(#SVGID_47_);}
	.st60{fill:url(#SVGID_48_);}
	.st61{fill:url(#SVGID_49_);}
	.st62{fill:url(#SVGID_50_);}
	.st63{fill:url(#SVGID_51_);}
	.st64{fill:url(#SVGID_52_);}
	.st65{fill:url(#SVGID_53_);}
	.st66{display:none;fill:#FF633C;stroke:#FF633C;stroke-miterlimit:10;}
	.st67{font-size:14px;}
	.st68{font-size:60px;}
	.st69{fill:#FF633C;stroke:#FF633C;stroke-width:1.6793;stroke-miterlimit:10;}
</style>
<g id="_x31_0ml-syringe">
	<g>
		<linearGradient id="case_2_" gradientUnits="userSpaceOnUse" x1="34.8589" y1="237.1165" x2="115.1377" y2="237.1165">
			<stop  offset="0" style="stop-color:#D6D6D6"/>
			<stop  offset="5.676860e-02" style="stop-color:#DBDBDB"/>
			<stop  offset="0.1609" style="stop-color:#E3E3E3"/>
			<stop  offset="0.3013" style="stop-color:#E8E8E8"/>
			<stop  offset="0.5154" style="stop-color:#E4E4E4"/>
			<stop  offset="0.705" style="stop-color:#DADADA"/>
			<stop  offset="0.821" style="stop-color:#CFCFCF"/>
			<stop  offset="1" style="stop-color:#D1D1D1"/>
		</linearGradient>
		<path id="case_1_" class="st0" d="M34.9,42.8V429c0,1.4,18,2.4,40.1,2.4c22.2,0,40.1-1.1,40.1-2.4V42.8H34.9z"/>
		<g id="tip_1_">
			<linearGradient id="SVGID_1_" gradientUnits="userSpaceOnUse" x1="64.0405" y1="34.5104" x2="85.9548" y2="34.5104">
				<stop  offset="0" style="stop-color:#D6D6D6"/>
				<stop  offset="5.676860e-02" style="stop-color:#C9C9C9"/>
				<stop  offset="8.065640e-02" style="stop-color:#CDCDCD"/>
				<stop  offset="0.2" style="stop-color:#DBDBDB"/>
				<stop  offset="0.3013" style="stop-color:#E0E0E0"/>
				<stop  offset="0.5047" style="stop-color:#DCDCDC"/>
				<stop  offset="0.6849" style="stop-color:#D2D2D2"/>
				<stop  offset="0.821" style="stop-color:#C4C4C4"/>
				<stop  offset="0.9201" style="stop-color:#C8C8C8"/>
				<stop  offset="1" style="stop-color:#D1D1D1"/>
			</linearGradient>
			<rect x="64" y="29.1" class="st1" width="21.9" height="10.9"/>
			<linearGradient id="SVGID_2_" gradientUnits="userSpaceOnUse" x1="64.0405" y1="29.5287" x2="85.9548" y2="29.5287">
				<stop  offset="0" style="stop-color:#C1C1C1"/>
				<stop  offset="5.676860e-02" style="stop-color:#B5B5B5"/>
				<stop  offset="6.889375e-02" style="stop-color:#B7B7B7"/>
				<stop  offset="0.1946" style="stop-color:#C5C5C5"/>
				<stop  offset="0.3013" style="stop-color:#CACACA"/>
				<stop  offset="0.5116" style="stop-color:#C6C6C6"/>
				<stop  offset="0.6979" style="stop-color:#BCBCBC"/>
				<stop  offset="0.821" style="stop-color:#B0B0B0"/>
				<stop  offset="0.9241" style="stop-color:#B4B4B4"/>
				<stop  offset="1" style="stop-color:#BCBCBC"/>
			</linearGradient>
			<rect x="64" y="29.1" class="st2" width="21.9" height="0.9"/>
			<linearGradient id="SVGID_3_" gradientUnits="userSpaceOnUse" x1="65.9057" y1="14.5376" x2="84.0909" y2="14.5376">
				<stop  offset="0" style="stop-color:#D6D6D6"/>
				<stop  offset="5.676860e-02" style="stop-color:#C9C9C9"/>
				<stop  offset="8.065640e-02" style="stop-color:#CDCDCD"/>
				<stop  offset="0.2" style="stop-color:#DBDBDB"/>
				<stop  offset="0.3013" style="stop-color:#E0E0E0"/>
				<stop  offset="0.5047" style="stop-color:#DCDCDC"/>
				<stop  offset="0.6849" style="stop-color:#D2D2D2"/>
				<stop  offset="0.821" style="stop-color:#C4C4C4"/>
				<stop  offset="0.9201" style="stop-color:#C8C8C8"/>
				<stop  offset="1" style="stop-color:#D1D1D1"/>
			</linearGradient>
			<polygon class="st3" points="83.4,0 75,0 66.6,0 65.9,29.1 75,29.1 84.1,29.1 			"/>
			<linearGradient id="SVGID_4_" gradientUnits="userSpaceOnUse" x1="35.622" y1="45.5008" x2="114.3695" y2="45.5008">
				<stop  offset="0" style="stop-color:#D6D6D6"/>
				<stop  offset="5.676860e-02" style="stop-color:#B8B8B8"/>
				<stop  offset="0.1118" style="stop-color:#C3C3C3"/>
				<stop  offset="0.2142" style="stop-color:#D1D1D1"/>
				<stop  offset="0.3013" style="stop-color:#D6D6D6"/>
				<stop  offset="0.5047" style="stop-color:#D2D2D2"/>
				<stop  offset="0.6849" style="stop-color:#C8C8C8"/>
				<stop  offset="0.821" style="stop-color:#BABABA"/>
				<stop  offset="0.8959" style="stop-color:#BEBEBE"/>
				<stop  offset="0.9691" style="stop-color:#CACACA"/>
				<stop  offset="1" style="stop-color:#D1D1D1"/>
			</linearGradient>
			<rect x="35.6" y="43.8" class="st4" width="78.7" height="3.4"/>
			<linearGradient id="SVGID_5_" gradientUnits="userSpaceOnUse" x1="34.8589" y1="41.159" x2="115.1377" y2="41.159">
				<stop  offset="0" style="stop-color:#D6D6D6"/>
				<stop  offset="5.676860e-02" style="stop-color:#C9C9C9"/>
				<stop  offset="8.065640e-02" style="stop-color:#CDCDCD"/>
				<stop  offset="0.2" style="stop-color:#DBDBDB"/>
				<stop  offset="0.3013" style="stop-color:#E0E0E0"/>
				<stop  offset="0.4375" style="stop-color:#DCDCDC"/>
				<stop  offset="0.5584" style="stop-color:#D2D2D2"/>
				<stop  offset="0.6734" style="stop-color:#C0C0C0"/>
				<stop  offset="0.7842" style="stop-color:#A6A6A6"/>
				<stop  offset="0.821" style="stop-color:#9C9C9C"/>
				<stop  offset="0.8708" style="stop-color:#A0A0A0"/>
				<stop  offset="0.9194" style="stop-color:#ACACAC"/>
				<stop  offset="0.9675" style="stop-color:#BFBFBF"/>
				<stop  offset="1" style="stop-color:#D1D1D1"/>
			</linearGradient>
			<path class="st5" d="M85.8,39.9c-6.2,0-10.8,0-10.8,0s-4.7,0-10.8,0c-16,0-29.3,2.4-29.3,2.4H75h40.1
				C115.1,42.4,101.9,39.9,85.8,39.9z"/>
			<linearGradient id="SVGID_6_" gradientUnits="userSpaceOnUse" x1="34.8589" y1="42.5758" x2="115.1377" y2="42.5758">
				<stop  offset="0" style="stop-color:#DDDDDD"/>
				<stop  offset="5.676860e-02" style="stop-color:#D3D3D3"/>
				<stop  offset="0.1883" style="stop-color:#E1E1E1"/>
				<stop  offset="0.3013" style="stop-color:#E6E6E6"/>
				<stop  offset="0.5236" style="stop-color:#E2E2E2"/>
				<stop  offset="0.7205" style="stop-color:#D8D8D8"/>
				<stop  offset="0.821" style="stop-color:#CFCFCF"/>
				<stop  offset="0.9337" style="stop-color:#D3D3D3"/>
				<stop  offset="1" style="stop-color:#D9D9D9"/>
			</linearGradient>
			<rect x="34.9" y="42.4" class="st6" width="80.3" height="0.4"/>
			<rect x="68.1" y="30" class="st7" width="6.2" height="10"/>
			<polygon class="st7" points="73.8,0 69.9,0 69.6,29.1 73.8,29.1 			"/>
		</g>
		<g id="plunge_1_">
			<g>
				<linearGradient id="SVGID_7_" gradientUnits="userSpaceOnUse" x1="30.4776" y1="510.9133" x2="119.5177" y2="510.9133">
					<stop  offset="4.366810e-03" style="stop-color:#2B2B2B"/>
					<stop  offset="0.2503" style="stop-color:#262626"/>
					<stop  offset="0.5342" style="stop-color:#181818"/>
					<stop  offset="0.6681" style="stop-color:#0F0F0F"/>
					<stop  offset="0.7472" style="stop-color:#121212"/>
					<stop  offset="0.8" style="stop-color:#1B1B1B"/>
					<stop  offset="0.8452" style="stop-color:#2A2A2A"/>
					<stop  offset="0.8861" style="stop-color:#3F3F3F"/>
					<stop  offset="0.924" style="stop-color:#5B5B5B"/>
					<stop  offset="0.9599" style="stop-color:#7D7D7D"/>
					<stop  offset="0.9934" style="stop-color:#A4A4A4"/>
					<stop  offset="1" style="stop-color:#ADADAD"/>
				</linearGradient>
				<rect x="34.9" y="364.7" class="st8" width="80.3" height="3.2"/>
				<linearGradient id="SVGID_8_" gradientUnits="userSpaceOnUse" x1="30.4776" y1="510.9133" x2="119.5177" y2="510.9133">
					<stop  offset="4.366810e-03" style="stop-color:#2B2B2B"/>
					<stop  offset="0.2503" style="stop-color:#262626"/>
					<stop  offset="0.5342" style="stop-color:#181818"/>
					<stop  offset="0.6681" style="stop-color:#0F0F0F"/>
					<stop  offset="0.7472" style="stop-color:#121212"/>
					<stop  offset="0.8" style="stop-color:#1B1B1B"/>
					<stop  offset="0.8452" style="stop-color:#2A2A2A"/>
					<stop  offset="0.8861" style="stop-color:#3F3F3F"/>
					<stop  offset="0.924" style="stop-color:#5B5B5B"/>
					<stop  offset="0.9599" style="stop-color:#7D7D7D"/>
					<stop  offset="0.9934" style="stop-color:#A4A4A4"/>
					<stop  offset="1" style="stop-color:#ADADAD"/>
				</linearGradient>
				<rect x="34.9" y="371.8" class="st9" width="80.3" height="3.2"/>
				<linearGradient id="SVGID_9_" gradientUnits="userSpaceOnUse" x1="30.4776" y1="510.9133" x2="119.5177" y2="510.9133">
					<stop  offset="4.366810e-03" style="stop-color:#2B2B2B"/>
					<stop  offset="0.2503" style="stop-color:#262626"/>
					<stop  offset="0.5342" style="stop-color:#181818"/>
					<stop  offset="0.6681" style="stop-color:#0F0F0F"/>
					<stop  offset="0.7472" style="stop-color:#121212"/>
					<stop  offset="0.8" style="stop-color:#1B1B1B"/>
					<stop  offset="0.8452" style="stop-color:#2A2A2A"/>
					<stop  offset="0.8861" style="stop-color:#3F3F3F"/>
					<stop  offset="0.924" style="stop-color:#5B5B5B"/>
					<stop  offset="0.9599" style="stop-color:#7D7D7D"/>
					<stop  offset="0.9934" style="stop-color:#A4A4A4"/>
					<stop  offset="1" style="stop-color:#ADADAD"/>
				</linearGradient>
				<rect x="34.9" y="351" class="st10" width="80.3" height="3.2"/>
				<linearGradient id="SVGID_10_" gradientUnits="userSpaceOnUse" x1="30.4776" y1="510.9133" x2="119.5177" y2="510.9133">
					<stop  offset="4.366810e-03" style="stop-color:#2B2B2B"/>
					<stop  offset="0.2503" style="stop-color:#262626"/>
					<stop  offset="0.5342" style="stop-color:#181818"/>
					<stop  offset="0.6681" style="stop-color:#0F0F0F"/>
					<stop  offset="0.7472" style="stop-color:#121212"/>
					<stop  offset="0.8" style="stop-color:#1B1B1B"/>
					<stop  offset="0.8452" style="stop-color:#2A2A2A"/>
					<stop  offset="0.8861" style="stop-color:#3F3F3F"/>
					<stop  offset="0.924" style="stop-color:#5B5B5B"/>
					<stop  offset="0.9599" style="stop-color:#7D7D7D"/>
					<stop  offset="0.9934" style="stop-color:#A4A4A4"/>
					<stop  offset="1" style="stop-color:#ADADAD"/>
				</linearGradient>
				<rect x="39" y="354.2" class="st11" width="71.9" height="10.6"/>
				<linearGradient id="SVGID_11_" gradientUnits="userSpaceOnUse" x1="30.4776" y1="510.9133" x2="119.5177" y2="510.9133">
					<stop  offset="4.366810e-03" style="stop-color:#2B2B2B"/>
					<stop  offset="0.2503" style="stop-color:#262626"/>
					<stop  offset="0.5342" style="stop-color:#181818"/>
					<stop  offset="0.6681" style="stop-color:#0F0F0F"/>
					<stop  offset="0.7472" style="stop-color:#121212"/>
					<stop  offset="0.8" style="stop-color:#1B1B1B"/>
					<stop  offset="0.8452" style="stop-color:#2A2A2A"/>
					<stop  offset="0.8861" style="stop-color:#3F3F3F"/>
					<stop  offset="0.924" style="stop-color:#5B5B5B"/>
					<stop  offset="0.9599" style="stop-color:#7D7D7D"/>
					<stop  offset="0.9934" style="stop-color:#A4A4A4"/>
					<stop  offset="1" style="stop-color:#ADADAD"/>
				</linearGradient>
				<rect x="39" y="367.9" class="st12" width="71.9" height="3.9"/>
				<linearGradient id="SVGID_12_" gradientUnits="userSpaceOnUse" x1="30.4776" y1="510.9133" x2="119.5177" y2="510.9133">
					<stop  offset="4.366810e-03" style="stop-color:#2B2B2B"/>
					<stop  offset="0.2503" style="stop-color:#262626"/>
					<stop  offset="0.5342" style="stop-color:#181818"/>
					<stop  offset="0.6681" style="stop-color:#0F0F0F"/>
					<stop  offset="0.7472" style="stop-color:#121212"/>
					<stop  offset="0.8" style="stop-color:#1B1B1B"/>
					<stop  offset="0.8452" style="stop-color:#2A2A2A"/>
					<stop  offset="0.8861" style="stop-color:#3F3F3F"/>
					<stop  offset="0.924" style="stop-color:#5B5B5B"/>
					<stop  offset="0.9599" style="stop-color:#7D7D7D"/>
					<stop  offset="0.9934" style="stop-color:#A4A4A4"/>
					<stop  offset="1" style="stop-color:#ADADAD"/>
				</linearGradient>
				<rect x="39" y="354.2" class="st13" width="71.9" height="10.6"/>
				<linearGradient id="SVGID_13_" gradientUnits="userSpaceOnUse" x1="30.4776" y1="510.9133" x2="119.5177" y2="510.9133">
					<stop  offset="4.366810e-03" style="stop-color:#2B2B2B"/>
					<stop  offset="0.2503" style="stop-color:#262626"/>
					<stop  offset="0.5342" style="stop-color:#181818"/>
					<stop  offset="0.6681" style="stop-color:#0F0F0F"/>
					<stop  offset="0.7472" style="stop-color:#121212"/>
					<stop  offset="0.8" style="stop-color:#1B1B1B"/>
					<stop  offset="0.8452" style="stop-color:#2A2A2A"/>
					<stop  offset="0.8861" style="stop-color:#3F3F3F"/>
					<stop  offset="0.924" style="stop-color:#5B5B5B"/>
					<stop  offset="0.9599" style="stop-color:#7D7D7D"/>
					<stop  offset="0.9934" style="stop-color:#A4A4A4"/>
					<stop  offset="1" style="stop-color:#ADADAD"/>
				</linearGradient>
				<rect x="39" y="367.9" class="st14" width="71.9" height="3.9"/>
				<linearGradient id="SVGID_14_" gradientUnits="userSpaceOnUse" x1="30.4776" y1="510.9133" x2="119.5177" y2="510.9133">
					<stop  offset="4.366810e-03" style="stop-color:#2B2B2B"/>
					<stop  offset="0.2503" style="stop-color:#262626"/>
					<stop  offset="0.5342" style="stop-color:#181818"/>
					<stop  offset="0.6681" style="stop-color:#0F0F0F"/>
					<stop  offset="0.7472" style="stop-color:#121212"/>
					<stop  offset="0.8" style="stop-color:#1B1B1B"/>
					<stop  offset="0.8452" style="stop-color:#2A2A2A"/>
					<stop  offset="0.8861" style="stop-color:#3F3F3F"/>
					<stop  offset="0.924" style="stop-color:#5B5B5B"/>
					<stop  offset="0.9599" style="stop-color:#7D7D7D"/>
					<stop  offset="0.9934" style="stop-color:#A4A4A4"/>
					<stop  offset="1" style="stop-color:#ADADAD"/>
				</linearGradient>
				<path class="st15" d="M30.5,662.9v3.9c0,2.2,19.9,4,44.5,4c24.6,0,44.5-1.8,44.5-4v-3.9H30.5z"/>
				<linearGradient id="SVGID_15_" gradientUnits="userSpaceOnUse" x1="30.4776" y1="510.9133" x2="119.5177" y2="510.9133">
					<stop  offset="4.366810e-03" style="stop-color:#2B2B2B"/>
					<stop  offset="0.2503" style="stop-color:#262626"/>
					<stop  offset="0.5342" style="stop-color:#181818"/>
					<stop  offset="0.6681" style="stop-color:#0F0F0F"/>
					<stop  offset="0.7472" style="stop-color:#121212"/>
					<stop  offset="0.8" style="stop-color:#1B1B1B"/>
					<stop  offset="0.8452" style="stop-color:#2A2A2A"/>
					<stop  offset="0.8861" style="stop-color:#3F3F3F"/>
					<stop  offset="0.924" style="stop-color:#5B5B5B"/>
					<stop  offset="0.9599" style="stop-color:#7D7D7D"/>
					<stop  offset="0.9934" style="stop-color:#A4A4A4"/>
					<stop  offset="1" style="stop-color:#ADADAD"/>
				</linearGradient>
				<ellipse class="st16" cx="75" cy="662.9" rx="44.5" ry="4"/>
				<g>
					<linearGradient id="SVGID_16_" gradientUnits="userSpaceOnUse" x1="30.4776" y1="510.9133" x2="119.5177" y2="510.9133">
						<stop  offset="4.366810e-03" style="stop-color:#2B2B2B"/>
						<stop  offset="0.2503" style="stop-color:#262626"/>
						<stop  offset="0.5342" style="stop-color:#181818"/>
						<stop  offset="0.6681" style="stop-color:#0F0F0F"/>
						<stop  offset="0.7472" style="stop-color:#121212"/>
						<stop  offset="0.8" style="stop-color:#1B1B1B"/>
						<stop  offset="0.8452" style="stop-color:#2A2A2A"/>
						<stop  offset="0.8861" style="stop-color:#3F3F3F"/>
						<stop  offset="0.924" style="stop-color:#5B5B5B"/>
						<stop  offset="0.9599" style="stop-color:#7D7D7D"/>
						<stop  offset="0.9934" style="stop-color:#A4A4A4"/>
						<stop  offset="1" style="stop-color:#ADADAD"/>
					</linearGradient>
					<path class="st17" d="M107.9,404.5V375H75v288.1l32.9-1.5V429.1c0-6.3-7.4-11.5-16.5-11.5V416
						C100.6,416,107.9,410.8,107.9,404.5z"/>
					<linearGradient id="SVGID_17_" gradientUnits="userSpaceOnUse" x1="30.4776" y1="510.9133" x2="119.5177" y2="510.9133">
						<stop  offset="4.366810e-03" style="stop-color:#2B2B2B"/>
						<stop  offset="0.2503" style="stop-color:#262626"/>
						<stop  offset="0.5342" style="stop-color:#181818"/>
						<stop  offset="0.6681" style="stop-color:#0F0F0F"/>
						<stop  offset="0.7472" style="stop-color:#121212"/>
						<stop  offset="0.8" style="stop-color:#1B1B1B"/>
						<stop  offset="0.8452" style="stop-color:#2A2A2A"/>
						<stop  offset="0.8861" style="stop-color:#3F3F3F"/>
						<stop  offset="0.924" style="stop-color:#5B5B5B"/>
						<stop  offset="0.9599" style="stop-color:#7D7D7D"/>
						<stop  offset="0.9934" style="stop-color:#A4A4A4"/>
						<stop  offset="1" style="stop-color:#ADADAD"/>
					</linearGradient>
					<path class="st18" d="M42.1,404.5V375H75l0.3,288.2l-31.7,1.2l-1.5-0.4V429.1c0-6.3,7.4-11.5,16.5-11.5V416
						C49.4,416,42.1,410.8,42.1,404.5z"/>
					<linearGradient id="SVGID_18_" gradientUnits="userSpaceOnUse" x1="30.4776" y1="510.9133" x2="119.5177" y2="510.9133">
						<stop  offset="4.366810e-03" style="stop-color:#2B2B2B"/>
						<stop  offset="0.2503" style="stop-color:#262626"/>
						<stop  offset="0.5342" style="stop-color:#181818"/>
						<stop  offset="0.6681" style="stop-color:#0F0F0F"/>
						<stop  offset="0.7472" style="stop-color:#121212"/>
						<stop  offset="0.8" style="stop-color:#1B1B1B"/>
						<stop  offset="0.8452" style="stop-color:#2A2A2A"/>
						<stop  offset="0.8861" style="stop-color:#3F3F3F"/>
						<stop  offset="0.924" style="stop-color:#5B5B5B"/>
						<stop  offset="0.9599" style="stop-color:#7D7D7D"/>
						<stop  offset="0.9934" style="stop-color:#A4A4A4"/>
						<stop  offset="1" style="stop-color:#ADADAD"/>
					</linearGradient>
					<path class="st19" d="M43.5,404.5V375h32.9v288.1l-32.9,1.3V429.1c0-6.3,7.4-11.5,16.5-11.5V416
						C50.9,416,43.5,410.8,43.5,404.5z"/>
					<linearGradient id="SVGID_19_" gradientUnits="userSpaceOnUse" x1="30.4776" y1="510.9133" x2="119.5177" y2="510.9133">
						<stop  offset="4.366810e-03" style="stop-color:#2B2B2B"/>
						<stop  offset="0.2503" style="stop-color:#262626"/>
						<stop  offset="0.5342" style="stop-color:#181818"/>
						<stop  offset="0.6681" style="stop-color:#0F0F0F"/>
						<stop  offset="0.7472" style="stop-color:#121212"/>
						<stop  offset="0.8" style="stop-color:#1B1B1B"/>
						<stop  offset="0.8452" style="stop-color:#2A2A2A"/>
						<stop  offset="0.8861" style="stop-color:#3F3F3F"/>
						<stop  offset="0.924" style="stop-color:#5B5B5B"/>
						<stop  offset="0.9599" style="stop-color:#7D7D7D"/>
						<stop  offset="0.9934" style="stop-color:#A4A4A4"/>
						<stop  offset="1" style="stop-color:#ADADAD"/>
					</linearGradient>
					<path class="st20" d="M93.7,404.5V375H77.2v288.1l14.2,1.8l2.2-0.4V429.1c0-6.3-3.7-11.5-8.2-11.5V416
						C90,416,93.7,410.8,93.7,404.5z"/>
					<linearGradient id="SVGID_20_" gradientUnits="userSpaceOnUse" x1="30.4776" y1="510.9133" x2="119.5177" y2="510.9133">
						<stop  offset="4.366810e-03" style="stop-color:#2B2B2B"/>
						<stop  offset="0.2503" style="stop-color:#262626"/>
						<stop  offset="0.5342" style="stop-color:#181818"/>
						<stop  offset="0.6681" style="stop-color:#0F0F0F"/>
						<stop  offset="0.7472" style="stop-color:#121212"/>
						<stop  offset="0.8" style="stop-color:#1B1B1B"/>
						<stop  offset="0.8452" style="stop-color:#2A2A2A"/>
						<stop  offset="0.8861" style="stop-color:#3F3F3F"/>
						<stop  offset="0.924" style="stop-color:#5B5B5B"/>
						<stop  offset="0.9599" style="stop-color:#7D7D7D"/>
						<stop  offset="0.9934" style="stop-color:#A4A4A4"/>
						<stop  offset="1" style="stop-color:#ADADAD"/>
					</linearGradient>
					<path class="st21" d="M91.5,404.5V375H75v288.1l16.5,1.8V429.1c0-6.3-3.7-11.5-8.2-11.5V416C87.8,416,91.5,410.8,91.5,404.5z"
						/>
				</g>
				<linearGradient id="SVGID_21_" gradientUnits="userSpaceOnUse" x1="30.4776" y1="510.9133" x2="119.5177" y2="510.9133">
					<stop  offset="4.366810e-03" style="stop-color:#2B2B2B"/>
					<stop  offset="0.2503" style="stop-color:#262626"/>
					<stop  offset="0.5342" style="stop-color:#181818"/>
					<stop  offset="0.6681" style="stop-color:#0F0F0F"/>
					<stop  offset="0.7472" style="stop-color:#121212"/>
					<stop  offset="0.8" style="stop-color:#1B1B1B"/>
					<stop  offset="0.8452" style="stop-color:#2A2A2A"/>
					<stop  offset="0.8861" style="stop-color:#3F3F3F"/>
					<stop  offset="0.924" style="stop-color:#5B5B5B"/>
					<stop  offset="0.9599" style="stop-color:#7D7D7D"/>
					<stop  offset="0.9934" style="stop-color:#A4A4A4"/>
					<stop  offset="1" style="stop-color:#ADADAD"/>
				</linearGradient>
				<rect x="42.1" y="375" class="st22" width="65.8" height="18.2"/>
				<linearGradient id="SVGID_22_" gradientUnits="userSpaceOnUse" x1="30.4776" y1="510.9133" x2="119.5177" y2="510.9133">
					<stop  offset="4.366810e-03" style="stop-color:#2B2B2B"/>
					<stop  offset="0.2503" style="stop-color:#262626"/>
					<stop  offset="0.5342" style="stop-color:#181818"/>
					<stop  offset="0.6681" style="stop-color:#0F0F0F"/>
					<stop  offset="0.7472" style="stop-color:#121212"/>
					<stop  offset="0.8" style="stop-color:#1B1B1B"/>
					<stop  offset="0.8452" style="stop-color:#2A2A2A"/>
					<stop  offset="0.8861" style="stop-color:#3F3F3F"/>
					<stop  offset="0.924" style="stop-color:#5B5B5B"/>
					<stop  offset="0.9599" style="stop-color:#7D7D7D"/>
					<stop  offset="0.9934" style="stop-color:#A4A4A4"/>
					<stop  offset="1" style="stop-color:#ADADAD"/>
				</linearGradient>
				<rect x="34.9" y="375" class="st23" width="80.3" height="2.7"/>
			</g>
			<g>
				<linearGradient id="SVGID_23_" gradientUnits="userSpaceOnUse" x1="34.8589" y1="366.3107" x2="115.1377" y2="366.3107">
					<stop  offset="0" style="stop-color:#858585"/>
					<stop  offset="2.933327e-02" style="stop-color:#5D5D5D"/>
					<stop  offset="5.924548e-02" style="stop-color:#3B3B3B"/>
					<stop  offset="8.402991e-02" style="stop-color:#272727"/>
					<stop  offset="0.1004" style="stop-color:#1F1F1F"/>
					<stop  offset="0.2898" style="stop-color:#1F1F1F"/>
					<stop  offset="0.3013" style="stop-color:#1F1F1F"/>
					<stop  offset="0.5496" style="stop-color:#1B1B1B"/>
					<stop  offset="0.7696" style="stop-color:#111111"/>
					<stop  offset="0.821" style="stop-color:#0D0D0D"/>
					<stop  offset="0.859" style="stop-color:#111111"/>
					<stop  offset="0.8961" style="stop-color:#1D1D1D"/>
					<stop  offset="0.9329" style="stop-color:#303030"/>
					<stop  offset="0.9693" style="stop-color:#4C4C4C"/>
					<stop  offset="1" style="stop-color:#696969"/>
				</linearGradient>
				<rect x="34.9" y="364.7" class="st24" width="80.3" height="3.2"/>
				<linearGradient id="SVGID_24_" gradientUnits="userSpaceOnUse" x1="34.8589" y1="373.4156" x2="115.1377" y2="373.4156">
					<stop  offset="0" style="stop-color:#858585"/>
					<stop  offset="2.933327e-02" style="stop-color:#5D5D5D"/>
					<stop  offset="5.924548e-02" style="stop-color:#3B3B3B"/>
					<stop  offset="8.402991e-02" style="stop-color:#272727"/>
					<stop  offset="0.1004" style="stop-color:#1F1F1F"/>
					<stop  offset="0.2898" style="stop-color:#1F1F1F"/>
					<stop  offset="0.3013" style="stop-color:#1F1F1F"/>
					<stop  offset="0.5496" style="stop-color:#1B1B1B"/>
					<stop  offset="0.7696" style="stop-color:#111111"/>
					<stop  offset="0.821" style="stop-color:#0D0D0D"/>
					<stop  offset="0.859" style="stop-color:#111111"/>
					<stop  offset="0.8961" style="stop-color:#1D1D1D"/>
					<stop  offset="0.9329" style="stop-color:#303030"/>
					<stop  offset="0.9693" style="stop-color:#4C4C4C"/>
					<stop  offset="1" style="stop-color:#696969"/>
				</linearGradient>
				<rect x="34.9" y="371.8" class="st25" width="80.3" height="3.2"/>
				<linearGradient id="SVGID_25_" gradientUnits="userSpaceOnUse" x1="34.8589" y1="352.5836" x2="115.1377" y2="352.5836">
					<stop  offset="0" style="stop-color:#858585"/>
					<stop  offset="2.933327e-02" style="stop-color:#5D5D5D"/>
					<stop  offset="5.924548e-02" style="stop-color:#3B3B3B"/>
					<stop  offset="8.402991e-02" style="stop-color:#272727"/>
					<stop  offset="0.1004" style="stop-color:#1F1F1F"/>
					<stop  offset="0.2898" style="stop-color:#1F1F1F"/>
					<stop  offset="0.3013" style="stop-color:#1F1F1F"/>
					<stop  offset="0.5496" style="stop-color:#1B1B1B"/>
					<stop  offset="0.7696" style="stop-color:#111111"/>
					<stop  offset="0.821" style="stop-color:#0D0D0D"/>
					<stop  offset="0.859" style="stop-color:#111111"/>
					<stop  offset="0.8961" style="stop-color:#1D1D1D"/>
					<stop  offset="0.9329" style="stop-color:#303030"/>
					<stop  offset="0.9693" style="stop-color:#4C4C4C"/>
					<stop  offset="1" style="stop-color:#696969"/>
				</linearGradient>
				<rect x="34.9" y="351" class="st26" width="80.3" height="3.2"/>
				<linearGradient id="SVGID_26_" gradientUnits="userSpaceOnUse" x1="39.0388" y1="359.4469" x2="110.9564" y2="359.4469">
					<stop  offset="0" style="stop-color:#9E9E9E"/>
					<stop  offset="0.1179" style="stop-color:#3D3D3D"/>
					<stop  offset="0.147" style="stop-color:#444444"/>
					<stop  offset="0.2304" style="stop-color:#525252"/>
					<stop  offset="0.3013" style="stop-color:#575757"/>
					<stop  offset="0.4466" style="stop-color:#535353"/>
					<stop  offset="0.5754" style="stop-color:#494949"/>
					<stop  offset="0.698" style="stop-color:#373737"/>
					<stop  offset="0.8162" style="stop-color:#1D1D1D"/>
					<stop  offset="0.821" style="stop-color:#1C1C1C"/>
					<stop  offset="0.8596" style="stop-color:#202020"/>
					<stop  offset="0.8973" style="stop-color:#2C2C2C"/>
					<stop  offset="0.9348" style="stop-color:#3F3F3F"/>
					<stop  offset="0.9717" style="stop-color:#5B5B5B"/>
					<stop  offset="1" style="stop-color:#757575"/>
				</linearGradient>
				<rect x="39" y="354.2" class="st27" width="71.9" height="10.6"/>
				<linearGradient id="SVGID_27_" gradientUnits="userSpaceOnUse" x1="39.0388" y1="369.8634" x2="110.9564" y2="369.8634">
					<stop  offset="0" style="stop-color:#9E9E9E"/>
					<stop  offset="0.1179" style="stop-color:#3D3D3D"/>
					<stop  offset="0.147" style="stop-color:#444444"/>
					<stop  offset="0.2304" style="stop-color:#525252"/>
					<stop  offset="0.3013" style="stop-color:#575757"/>
					<stop  offset="0.4466" style="stop-color:#535353"/>
					<stop  offset="0.5754" style="stop-color:#494949"/>
					<stop  offset="0.698" style="stop-color:#373737"/>
					<stop  offset="0.8162" style="stop-color:#1D1D1D"/>
					<stop  offset="0.821" style="stop-color:#1C1C1C"/>
					<stop  offset="0.8596" style="stop-color:#202020"/>
					<stop  offset="0.8973" style="stop-color:#2C2C2C"/>
					<stop  offset="0.9348" style="stop-color:#3F3F3F"/>
					<stop  offset="0.9717" style="stop-color:#5B5B5B"/>
					<stop  offset="1" style="stop-color:#757575"/>
				</linearGradient>
				<rect x="39" y="367.9" class="st28" width="71.9" height="3.9"/>
				<linearGradient id="SVGID_28_" gradientUnits="userSpaceOnUse" x1="74.9976" y1="364.7265" x2="74.9976" y2="354.1673">
					<stop  offset="0.6463" style="stop-color:#FFFFFF"/>
					<stop  offset="0.7008" style="stop-color:#FAFAFA"/>
					<stop  offset="0.7631" style="stop-color:#ECECEC"/>
					<stop  offset="0.8295" style="stop-color:#D5D5D5"/>
					<stop  offset="0.8985" style="stop-color:#B5B5B5"/>
					<stop  offset="0.9689" style="stop-color:#8C8C8C"/>
					<stop  offset="1" style="stop-color:#787878"/>
				</linearGradient>
				<rect x="39" y="354.2" class="st29" width="71.9" height="10.6"/>
				<linearGradient id="SVGID_29_" gradientUnits="userSpaceOnUse" x1="74.9976" y1="371.8319" x2="74.9976" y2="367.8949">
					<stop  offset="0.6463" style="stop-color:#FFFFFF"/>
					<stop  offset="0.7008" style="stop-color:#FAFAFA"/>
					<stop  offset="0.7631" style="stop-color:#ECECEC"/>
					<stop  offset="0.8295" style="stop-color:#D5D5D5"/>
					<stop  offset="0.8985" style="stop-color:#B5B5B5"/>
					<stop  offset="0.9689" style="stop-color:#8C8C8C"/>
					<stop  offset="1" style="stop-color:#787878"/>
				</linearGradient>
				<rect x="39" y="367.9" class="st30" width="71.9" height="3.9"/>
				<linearGradient id="SVGID_30_" gradientUnits="userSpaceOnUse" x1="30.4776" y1="666.8761" x2="119.5177" y2="666.8761">
					<stop  offset="0" style="stop-color:#D6D6D6"/>
					<stop  offset="5.676860e-02" style="stop-color:#C9C9C9"/>
					<stop  offset="8.065640e-02" style="stop-color:#CDCDCD"/>
					<stop  offset="0.2" style="stop-color:#DBDBDB"/>
					<stop  offset="0.3013" style="stop-color:#E0E0E0"/>
					<stop  offset="0.5047" style="stop-color:#DCDCDC"/>
					<stop  offset="0.6849" style="stop-color:#D2D2D2"/>
					<stop  offset="0.821" style="stop-color:#C4C4C4"/>
					<stop  offset="0.9201" style="stop-color:#C8C8C8"/>
					<stop  offset="1" style="stop-color:#D1D1D1"/>
				</linearGradient>
				<path class="st31" d="M30.5,662.9v3.9c0,2.2,19.9,4,44.5,4c24.6,0,44.5-1.8,44.5-4v-3.9H30.5z"/>
				<linearGradient id="SVGID_31_" gradientUnits="userSpaceOnUse" x1="74.9976" y1="666.8749" x2="74.9976" y2="658.83">
					<stop  offset="0" style="stop-color:#B8B8B8"/>
					<stop  offset="1" style="stop-color:#BABABA"/>
				</linearGradient>
				<ellipse class="st32" cx="75" cy="662.9" rx="44.5" ry="4"/>
				<g>
					<linearGradient id="SVGID_32_" gradientUnits="userSpaceOnUse" x1="74.9985" y1="519.0556" x2="107.924" y2="519.0556">
						<stop  offset="0.3188" style="stop-color:#919191"/>
						<stop  offset="0.5756" style="stop-color:#9A9A9A"/>
						<stop  offset="0.9964" style="stop-color:#B3B3B3"/>
						<stop  offset="1" style="stop-color:#B3B3B3"/>
					</linearGradient>
					<path class="st33" d="M107.9,404.5V375H75v288.1l32.9-1.5V429.1c0-6.3-7.4-11.5-16.5-11.5V416
						C100.6,416,107.9,410.8,107.9,404.5z"/>
					<path class="st34" d="M42.1,404.5V375H75l0.3,288.2l-31.7,1.2l-1.5-0.4V429.1c0-6.3,7.4-11.5,16.5-11.5V416
						C49.4,416,42.1,410.8,42.1,404.5z"/>
					<linearGradient id="SVGID_33_" gradientUnits="userSpaceOnUse" x1="43.5493" y1="519.7029" x2="76.4748" y2="519.7029">
						<stop  offset="4.366810e-03" style="stop-color:#CECECE"/>
						<stop  offset="0.6627" style="stop-color:#C9C9C9"/>
						<stop  offset="1" style="stop-color:#C4C4C4"/>
					</linearGradient>
					<path class="st35" d="M43.5,404.5V375h32.9v288.1l-32.9,1.3V429.1c0-6.3,7.4-11.5,16.5-11.5V416
						C50.9,416,43.5,410.8,43.5,404.5z"/>
					<path class="st36" d="M93.7,404.5V375H77.2v288.1l14.2,1.8l2.2-0.4V429.1c0-6.3-3.7-11.5-8.2-11.5V416
						C90,416,93.7,410.8,93.7,404.5z"/>
					<linearGradient id="SVGID_34_" gradientUnits="userSpaceOnUse" x1="74.9985" y1="519.9446" x2="91.4602" y2="519.9446">
						<stop  offset="0" style="stop-color:#E3E3E3"/>
						<stop  offset="0.471" style="stop-color:#EDEDED"/>
						<stop  offset="1" style="stop-color:#F2F2F2"/>
					</linearGradient>
					<path class="st37" d="M91.5,404.5V375H75v288.1l16.5,1.8V429.1c0-6.3-3.7-11.5-8.2-11.5V416C87.8,416,91.5,410.8,91.5,404.5z"
						/>
				</g>
				<linearGradient id="SVGID_35_" gradientUnits="userSpaceOnUse" x1="74.9993" y1="393.2337" x2="74.9993" y2="374.9992">
					<stop  offset="0.6463" style="stop-color:#FFFFFF"/>
					<stop  offset="0.7433" style="stop-color:#FAFAFA"/>
					<stop  offset="0.8544" style="stop-color:#ECECEC"/>
					<stop  offset="0.972" style="stop-color:#D6D6D6"/>
					<stop  offset="1" style="stop-color:#CFCFCF"/>
				</linearGradient>
				<rect x="42.1" y="375" class="st38" width="65.8" height="18.2"/>
				<linearGradient id="SVGID_36_" gradientUnits="userSpaceOnUse" x1="34.8589" y1="376.3361" x2="115.1377" y2="376.3361">
					<stop  offset="0" style="stop-color:#D6D6D6"/>
					<stop  offset="5.676860e-02" style="stop-color:#B8B8B8"/>
					<stop  offset="0.1118" style="stop-color:#C3C3C3"/>
					<stop  offset="0.2142" style="stop-color:#D1D1D1"/>
					<stop  offset="0.3013" style="stop-color:#D6D6D6"/>
					<stop  offset="0.5047" style="stop-color:#D2D2D2"/>
					<stop  offset="0.6849" style="stop-color:#C8C8C8"/>
					<stop  offset="0.821" style="stop-color:#BABABA"/>
					<stop  offset="0.8959" style="stop-color:#BEBEBE"/>
					<stop  offset="0.9691" style="stop-color:#CACACA"/>
					<stop  offset="1" style="stop-color:#D1D1D1"/>
				</linearGradient>
				<rect x="34.9" y="375" class="st39" width="80.3" height="2.7"/>
			</g>
		</g>
		<rect id="content_1_" x="37.9" y="47.2" class="st40" width="74.1" height="307.2"/>
		<path id="strip_1_" class="st7" d="M63.7,430.9V42.4H47.5v388C52,430.6,57.5,430.8,63.7,430.9z"/>
		<g id="ring_1_">
			<g>
				<linearGradient id="SVGID_37_" gradientUnits="userSpaceOnUse" x1="75" y1="435.913" x2="75" y2="423.879">
					<stop  offset="0" style="stop-color:#B8B8B8"/>
					<stop  offset="1" style="stop-color:#BABABA"/>
				</linearGradient>
				<path class="st41" d="M134.9,425.2L134.9,425.2l-19.8-1.3v4.7c0,1.4-18,2.4-40.1,2.4c-22.2,0-40.1-1.1-40.1-2.4v-4.7l-19.8,1.3
					l0,0C6.3,425.6,0,427,0,428.6c0,0.1,0,0.4,0,0.5c0,1.6,6.3,3,15.1,3.4l0,0l43.8,2.8l0,0c5,0.3,10.4,0.5,16.1,0.5
					c5.7,0,11.2-0.2,16.1-0.5l0,0l43.8-2.8v0c8.7-0.5,15.1-1.8,15.1-3.4c0-0.1,0-0.4,0-0.5C150,427,143.7,425.6,134.9,425.2z"/>
				<g>
					<linearGradient id="SVGID_38_" gradientUnits="userSpaceOnUse" x1="0" y1="435.9842" x2="150" y2="435.9842">
						<stop  offset="0" style="stop-color:#D6D6D6"/>
						<stop  offset="5.676860e-02" style="stop-color:#C9C9C9"/>
						<stop  offset="8.730052e-02" style="stop-color:#DDDDDD"/>
						<stop  offset="0.1204" style="stop-color:#EBEBEB"/>
						<stop  offset="0.1485" style="stop-color:#F0F0F0"/>
						<stop  offset="0.2459" style="stop-color:#ECECEC"/>
						<stop  offset="0.3322" style="stop-color:#E2E2E2"/>
						<stop  offset="0.3974" style="stop-color:#D4D4D4"/>
						<stop  offset="0.4656" style="stop-color:#D0D0D0"/>
						<stop  offset="0.526" style="stop-color:#C6C6C6"/>
						<stop  offset="0.5328" style="stop-color:#C4C4C4"/>
						<stop  offset="0.6987" style="stop-color:#C0C0C0"/>
						<stop  offset="0.821" style="stop-color:#B8B8B8"/>
						<stop  offset="0.8929" style="stop-color:#BCBCBC"/>
						<stop  offset="0.9632" style="stop-color:#C8C8C8"/>
						<stop  offset="1" style="stop-color:#D1D1D1"/>
					</linearGradient>
					<path class="st42" d="M134.9,432.6L134.9,432.6l-43.8,2.8l0,0c-5,0.3-10.4,0.5-16.1,0.5c-5.7,0-11.2-0.2-16.1-0.5l0,0
						l-43.8-2.8l0,0C6.3,432.1,0,430.7,0,429.1v6.4c0,0.1,0,0.4,0,0.5c0,1.6,6.3,3,15.1,3.4l0,0l43.8,2.8l0,0
						c5,0.3,10.4,0.5,16.1,0.5c5.7,0,11.2-0.2,16.1-0.5l0,0l43.8-2.8v0c8.7-0.5,15.1-1.8,15.1-3.4c0-0.1,0-0.4,0-0.5v-6.4
						C150,430.7,143.7,432.1,134.9,432.6z"/>
				</g>
				<linearGradient id="SVGID_39_" gradientUnits="userSpaceOnUse" x1="74.9993" y1="477.8747" x2="74.9993" y2="441.2496">
					<stop  offset="0.6463" style="stop-color:#FFFFFF"/>
					<stop  offset="0.7328" style="stop-color:#FAFAFA"/>
					<stop  offset="0.8318" style="stop-color:#ECECEC"/>
					<stop  offset="0.9365" style="stop-color:#D6D6D6"/>
					<stop  offset="1" style="stop-color:#C4C4C4"/>
				</linearGradient>
				<path class="st43" d="M91.1,442.3L91.1,442.3c-5,0.3-10.4,0.5-16.1,0.5c-5.7,0-11.2-0.2-16.1-0.5l0,0l-16.8-1.1v36.6h65.8v-36.6
					L91.1,442.3z"/>
			</g>
			<linearGradient id="SVGID_40_" gradientUnits="userSpaceOnUse" x1="74.9983" y1="435.913" x2="74.9983" y2="428.5867">
				<stop  offset="0" style="stop-color:#B8B8B8"/>
				<stop  offset="2.259499e-02" style="stop-color:#B9B9B9"/>
				<stop  offset="0.5511" style="stop-color:#C7C7C7"/>
				<stop  offset="1" style="stop-color:#CCCCCC"/>
			</linearGradient>
			<path class="st44" d="M75,431c-22.2,0-40.1-1.1-40.1-2.4v5.2l24,1.6l0,0c5,0.3,10.4,0.5,16.1,0.5c5.7,0,11.2-0.2,16.1-0.5l0,0
				l24-1.6v-5.2C115.1,429.9,97.2,431,75,431z"/>
			<linearGradient id="SVGID_41_" gradientUnits="userSpaceOnUse" x1="100.7914" y1="435.2245" x2="100.7914" y2="429.9838">
				<stop  offset="0" style="stop-color:#BDBDBD"/>
				<stop  offset="1" style="stop-color:#C0C0C0"/>
			</linearGradient>
			<path class="st45" d="M93.7,435.2l14.3-0.9V430c-3.7,0.3-8.6,0.6-14.3,0.8V435.2z"/>
		</g>
	</g>
	<line class="st46" x1="40.5" y1="47.2" x2="100.5" y2="47.2"/>
	<line class="st46" x1="69.8" y1="48" x2="69.8" y2="351"/>
	<line class="st46" x1="37.5" y1="350.2" x2="97.5" y2="350.2"/>
	<g>
		<line class="st46" x1="69.6" y1="47.6" x2="86.1" y2="47.6"/>
		<line class="st46" x1="69.6" y1="53.6" x2="86.1" y2="53.6"/>
		<line class="st46" x1="69.6" y1="59.7" x2="86.1" y2="59.7"/>
		<line class="st46" x1="69.6" y1="65.7" x2="86.1" y2="65.7"/>
		<line class="st46" x1="69.6" y1="71.8" x2="86.1" y2="71.8"/>
		<line class="st46" x1="69.6" y1="77.9" x2="86.1" y2="77.9"/>
		<line class="st46" x1="69.6" y1="83.9" x2="86.1" y2="83.9"/>
		<line class="st46" x1="69.6" y1="90" x2="86.1" y2="90"/>
		<line class="st46" x1="69.6" y1="96" x2="86.1" y2="96"/>
		<line class="st46" x1="69.6" y1="102.1" x2="86.1" y2="102.1"/>
		<line class="st46" x1="69.6" y1="108.2" x2="86.1" y2="108.2"/>
		<line class="st46" x1="69.6" y1="114.2" x2="86.1" y2="114.2"/>
		<line class="st46" x1="69.6" y1="120.3" x2="86.1" y2="120.3"/>
		<line class="st46" x1="69.6" y1="126.3" x2="86.1" y2="126.3"/>
		<line class="st46" x1="69.6" y1="132.4" x2="86.1" y2="132.4"/>
		<line class="st46" x1="69.6" y1="138.5" x2="86.1" y2="138.5"/>
		<line class="st46" x1="69.6" y1="144.5" x2="86.1" y2="144.5"/>
		<line class="st46" x1="69.6" y1="150.6" x2="86.1" y2="150.6"/>
		<line class="st46" x1="69.6" y1="156.6" x2="86.1" y2="156.6"/>
		<line class="st46" x1="69.6" y1="162.7" x2="86.1" y2="162.7"/>
		<line class="st46" x1="69.6" y1="168.8" x2="86.1" y2="168.8"/>
		<line class="st46" x1="69.6" y1="174.8" x2="86.1" y2="174.8"/>
		<line class="st46" x1="69.6" y1="180.9" x2="86.1" y2="180.9"/>
		<line class="st46" x1="69.6" y1="186.9" x2="86.1" y2="186.9"/>
		<line class="st46" x1="69.6" y1="193" x2="86.1" y2="193"/>
		<line class="st46" x1="69.6" y1="199.1" x2="86.1" y2="199.1"/>
		<line class="st46" x1="69.6" y1="205.1" x2="86.1" y2="205.1"/>
		<line class="st46" x1="69.6" y1="211.2" x2="86.1" y2="211.2"/>
		<line class="st46" x1="69.6" y1="217.2" x2="86.1" y2="217.2"/>
		<line class="st46" x1="69.6" y1="223.3" x2="86.1" y2="223.3"/>
		<line class="st46" x1="69.6" y1="229.4" x2="86.1" y2="229.4"/>
		<line class="st46" x1="69.6" y1="235.4" x2="86.1" y2="235.4"/>
		<line class="st46" x1="69.6" y1="241.5" x2="86.1" y2="241.5"/>
		<line class="st46" x1="69.6" y1="247.5" x2="86.1" y2="247.5"/>
		<line class="st46" x1="69.6" y1="253.6" x2="86.1" y2="253.6"/>
		<line class="st46" x1="69.6" y1="259.7" x2="86.1" y2="259.7"/>
		<line class="st46" x1="69.6" y1="265.7" x2="86.1" y2="265.7"/>
		<line class="st46" x1="69.6" y1="271.8" x2="86.1" y2="271.8"/>
		<line class="st46" x1="69.6" y1="277.8" x2="86.1" y2="277.8"/>
		<line class="st46" x1="69.6" y1="283.9" x2="86.1" y2="283.9"/>
		<line class="st46" x1="69.6" y1="290" x2="86.1" y2="290"/>
		<line class="st46" x1="69.6" y1="296" x2="86.1" y2="296"/>
		<line class="st46" x1="69.6" y1="302.1" x2="86.1" y2="302.1"/>
		<line class="st46" x1="69.6" y1="308.1" x2="86.1" y2="308.1"/>
		<line class="st46" x1="69.6" y1="314.2" x2="86.1" y2="314.2"/>
		<line class="st46" x1="69.6" y1="320.3" x2="86.1" y2="320.3"/>
		<line class="st46" x1="69.6" y1="326.3" x2="86.1" y2="326.3"/>
		<line class="st46" x1="69.6" y1="332.4" x2="86.1" y2="332.4"/>
		<line class="st46" x1="69.6" y1="338.4" x2="86.1" y2="338.4"/>
		<line class="st46" x1="69.6" y1="344.5" x2="86.1" y2="344.5"/>
		<line class="st46" x1="69.6" y1="350.6" x2="86.1" y2="350.6"/>
	</g>
	<line class="st46" x1="69" y1="77.2" x2="100.5" y2="77.2"/>
	<line class="st46" x1="69" y1="107.2" x2="100.5" y2="107.2"/>
	<line class="st46" x1="69" y1="138.8" x2="100.5" y2="138.8"/>
	<line class="st46" x1="69" y1="168.8" x2="100.5" y2="168.8"/>
	<line class="st46" x1="70.5" y1="198.8" x2="102" y2="198.8"/>
	<line class="st46" x1="69" y1="228.8" x2="100.5" y2="228.8"/>
	<line class="st46" x1="69" y1="258.8" x2="100.5" y2="258.8"/>
	<line class="st46" x1="67.5" y1="290.2" x2="99" y2="290.2"/>
	<line class="st46" x1="67.5" y1="320.2" x2="99" y2="320.2"/>
	<text transform="matrix(1 0 0 1 101.0586 146.5569)" class="st47 st48">3</text>
	<text transform="matrix(1 0 0 1 101.0586 177.4333)" class="st47 st48">4</text>
	<text transform="matrix(1 0 0 1 101.0586 205.8479)" class="st47 st48">5</text>
	<text transform="matrix(1 0 0 1 100.4492 237.1179)" class="st47 st48">6</text>
	<text transform="matrix(1 0 0 1 98.9053 267.3093)" class="st47 st48">7</text>
	<text transform="matrix(1 0 0 1 102.5469 296.7249)" class="st47 st48">8</text>
	<text transform="matrix(1 0 0 1 98.9053 325.8035)" class="st47 st48">9</text>
	<text transform="matrix(1 0 0 1 90.9668 356.9099)" class="st47 st48">10</text>
	<text transform="matrix(1 0 0 1 93.9434 369.989)" class="st47 st49">mL</text>
	<g>
		<g id="_x31__x2F_2_3_">
			<text transform="matrix(1 0 0 1 46.626 99.2737)" class="st47 st50">1</text>
			<text transform="matrix(1 0 0 1 51.8306 117.3362)" class="st47 st50">2</text>
			<text transform="matrix(0.7636 0.4341 -0.4942 0.8693 47.1778 106.7597)" class="st51 st47 st52">/</text>
		</g>
		<g>
			<line class="st46" x1="39" y1="123.8" x2="70.5" y2="123.8"/>
			<text transform="matrix(1 0 0 1 46.626 135.8259)" class="st47 st49">tsp</text>
		</g>
	</g>
	<g>
		<g>
			<line class="st46" x1="39" y1="198.8" x2="70.5" y2="198.8"/>
			<text transform="matrix(1 0 0 1 46.626 210.8259)" class="st47 st49">tsp</text>
		</g>
		<text transform="matrix(1 0 0 1 49.2358 194.2571)" class="st47 st48">1</text>
	</g>
	<g>
		<g>
			<line class="st46" x1="37.5" y1="275.2" x2="69" y2="275.2"/>
			<text transform="matrix(1 0 0 1 45.1401 287.3303)" class="st47 st49">tsp</text>
		</g>
		<text transform="matrix(1 0 0 1 36.6001 270.6863)" class="st47 st48">1½</text>
	</g>
	<g>
		<g>
			<line class="st46" x1="39" y1="350.2" x2="70.5" y2="350.2"/>
			<text transform="matrix(1 0 0 1 46.626 362.323)" class="st47 st49">tsp</text>
		</g>
		<text transform="matrix(1 0 0 1 50.0547 345.8962)" class="st47 st48">2</text>
	</g>
	<text transform="matrix(1 0 0 1 101.0576 82.8059)" class="st47 st48">1</text>
	<text transform="matrix(1 0 0 1 98.9082 114.3621)" class="st47 st48">2</text>
</g>
<g id="magnifier_1_">
	<g id="magnify_1_">
		<g>
			<linearGradient id="SVGID_42_" gradientUnits="userSpaceOnUse" x1="240.4292" y1="302.1652" x2="240.4292" y2="426.9217">
				<stop  offset="0" style="stop-color:#FFFFFF"/>
				<stop  offset="0.2306" style="stop-color:#E5DDF3"/>
				<stop  offset="0.7372" style="stop-color:#A286D3"/>
				<stop  offset="1" style="stop-color:#7E57C2"/>
			</linearGradient>
			<path class="st53" d="M214.8,402.3c-13.5,0-24.4-11-24.4-24.4v-51.3c0-13.5,10.9-24.4,24.4-24.4h51.3c13.5,0,24.4,10.9,24.4,24.4
				v51.3c0,13.5-10.9,24.4-24.4,24.4H214.8z"/>
			<path class="st40" d="M217.3,392.4c-9.4,0-17.1-7.7-17.1-17.1v-46.2c0-9.4,7.7-17.1,17.1-17.1h46.2c9.4,0,17.1,7.7,17.1,17.1
				v46.2c0,9.4-7.7,17.1-17.1,17.1H217.3z"/>
			<g>
				<path class="st54" d="M217.3,390.5c-8.4,0-15.2-6.8-15.2-15.2v-46.2c0-8.4,6.8-15.2,15.2-15.2h46.2c8.4,0,15.2,6.8,15.2,15.2
					v46.2c0,8.4-6.8,15.2-15.2,15.2H217.3z"/>
				<linearGradient id="SVGID_43_" gradientUnits="userSpaceOnUse" x1="240.4294" y1="389.5839" x2="240.4294" y2="313.2622">
					<stop  offset="0" style="stop-color:#8E949D"/>
					<stop  offset="1" style="stop-color:#8D939C"/>
				</linearGradient>
				<path class="st55" d="M217.4,390.5c-8.3,0-15.1-6.8-15.1-15.1v-45.9c0-8.3,6.8-15.1,15.1-15.1h46.1c8.3,0,15.1,6.8,15.1,15.1
					v45.9c0,8.3-6.8,15.1-15.1,15.1H217.4z"/>
				<linearGradient id="SVGID_44_" gradientUnits="userSpaceOnUse" x1="240.4294" y1="389.5893" x2="240.4294" y2="313.7339">
					<stop  offset="0" style="stop-color:#9A9EA7"/>
					<stop  offset="1" style="stop-color:#979DA5"/>
				</linearGradient>
				<path class="st56" d="M217.4,390.5c-8.3,0-15.1-6.7-15.1-15v-45.6c0-8.3,6.8-15,15.1-15h46c8.3,0,15.1,6.7,15.1,15v45.6
					c0,8.3-6.8,15-15.1,15H217.4z"/>
				<linearGradient id="SVGID_45_" gradientUnits="userSpaceOnUse" x1="240.4294" y1="389.5947" x2="240.4294" y2="314.2055">
					<stop  offset="0" style="stop-color:#A5A9B0"/>
					<stop  offset="1" style="stop-color:#A1A6AE"/>
				</linearGradient>
				<path class="st57" d="M217.5,390.5c-8.3,0-15.1-6.7-15.1-14.9v-45.3c0-8.2,6.8-14.9,15.1-14.9h45.9c8.3,0,15.1,6.7,15.1,14.9
					v45.3c0,8.2-6.8,14.9-15.1,14.9H217.5z"/>
				<linearGradient id="SVGID_46_" gradientUnits="userSpaceOnUse" x1="240.4293" y1="389.6002" x2="240.4293" y2="314.6772">
					<stop  offset="0" style="stop-color:#B0B4BA"/>
					<stop  offset="1" style="stop-color:#ABB0B7"/>
				</linearGradient>
				<path class="st58" d="M217.5,390.5c-8.3,0-15-6.6-15-14.8v-45.1c0-8.2,6.7-14.8,15-14.8h45.8c8.3,0,15,6.6,15,14.8v45.1
					c0,8.2-6.7,14.8-15,14.8H217.5z"/>
				<linearGradient id="SVGID_47_" gradientUnits="userSpaceOnUse" x1="240.4293" y1="389.6056" x2="240.4293" y2="315.1488">
					<stop  offset="0" style="stop-color:#BBBFC4"/>
					<stop  offset="1" style="stop-color:#B5BAC0"/>
				</linearGradient>
				<path class="st59" d="M217.6,390.5c-8.3,0-15-6.6-15-14.7V331c0-8.1,6.7-14.7,15-14.7h45.7c8.3,0,15,6.6,15,14.7v44.8
					c0,8.1-6.7,14.7-15,14.7H217.6z"/>
				<linearGradient id="SVGID_48_" gradientUnits="userSpaceOnUse" x1="240.4293" y1="389.611" x2="240.4293" y2="315.6205">
					<stop  offset="0" style="stop-color:#C7C9CE"/>
					<stop  offset="1" style="stop-color:#C0C4C8"/>
				</linearGradient>
				<path class="st60" d="M217.6,390.5c-8.3,0-15-6.6-15-14.6v-44.5c0-8.1,6.7-14.6,15-14.6h45.6c8.3,0,15,6.6,15,14.6v44.5
					c0,8.1-6.7,14.6-15,14.6H217.6z"/>
				<linearGradient id="SVGID_49_" gradientUnits="userSpaceOnUse" x1="240.4293" y1="389.6164" x2="240.4293" y2="316.0921">
					<stop  offset="0" style="stop-color:#D2D4D8"/>
					<stop  offset="1" style="stop-color:#CACED1"/>
				</linearGradient>
				<path class="st61" d="M217.7,390.5c-8.2,0-14.9-6.5-14.9-14.5v-44.2c0-8,6.7-14.5,14.9-14.5h45.5c8.2,0,14.9,6.5,14.9,14.5V376
					c0,8-6.7,14.5-14.9,14.5H217.7z"/>
				<linearGradient id="SVGID_50_" gradientUnits="userSpaceOnUse" x1="240.4292" y1="389.6218" x2="240.4292" y2="316.5638">
					<stop  offset="0" style="stop-color:#DDDFE2"/>
					<stop  offset="1" style="stop-color:#D4D8DA"/>
				</linearGradient>
				<path class="st62" d="M217.7,390.5c-8.2,0-14.9-6.5-14.9-14.4v-43.9c0-8,6.7-14.4,14.9-14.4h45.4c8.2,0,14.9,6.5,14.9,14.4v43.9
					c0,8-6.7,14.4-14.9,14.4H217.7z"/>
				<linearGradient id="SVGID_51_" gradientUnits="userSpaceOnUse" x1="240.4292" y1="389.6273" x2="240.4292" y2="317.0354">
					<stop  offset="0" style="stop-color:#E8EAEB"/>
					<stop  offset="1" style="stop-color:#DEE1E3"/>
				</linearGradient>
				<path class="st63" d="M217.8,390.5c-8.2,0-14.9-6.4-14.9-14.3v-43.7c0-7.9,6.7-14.3,14.9-14.3h45.3c8.2,0,14.9,6.4,14.9,14.3
					v43.7c0,7.9-6.7,14.3-14.9,14.3H217.8z"/>
				<linearGradient id="SVGID_52_" gradientUnits="userSpaceOnUse" x1="240.4292" y1="389.6327" x2="240.4292" y2="317.507">
					<stop  offset="0" style="stop-color:#F4F4F5"/>
					<stop  offset="1" style="stop-color:#E8EBEC"/>
				</linearGradient>
				<path class="st64" d="M217.8,390.5c-8.2,0-14.8-6.4-14.8-14.2v-43.4c0-7.8,6.7-14.2,14.8-14.2h45.2c8.2,0,14.8,6.4,14.8,14.2
					v43.4c0,7.9-6.7,14.2-14.8,14.2H217.8z"/>
				<linearGradient id="SVGID_53_" gradientUnits="userSpaceOnUse" x1="240.4292" y1="389.6381" x2="240.4292" y2="317.9787">
					<stop  offset="0" style="stop-color:#FFFFFF"/>
					<stop  offset="1" style="stop-color:#F2F5F5"/>
				</linearGradient>
				<path class="st65" d="M217.9,390.5c-8.2,0-14.8-6.3-14.8-14.1v-43.1c0-7.8,6.6-14.1,14.8-14.1H263c8.2,0,14.8,6.3,14.8,14.1
					v43.1c0,7.8-6.6,14.1-14.8,14.1H217.9z"/>
			</g>
		</g>
		<line class="st66" x1="166" y1="357.3" x2="191" y2="357.3"/>
	</g>
	<text transform="matrix(1 0 0 1 234.3808 382.7682)" class="st47 st67">ml</text>
	<text transform="matrix(1 0 0 1 209.4435 367.3961)" class="st47 st68">10  </text>
</g>
<line class="st69" x1="120" y1="351.3" x2="190.5" y2="351.3"/>
</svg>
