<?xml version="1.0" encoding="utf-8"?>
<!-- Generator: Adobe Illustrator 21.1.0, SVG Export Plug-In . SVG Version: 6.00 Build 0)  -->
<svg version="1.1" id="Layer_1" xmlns="http://www.w3.org/2000/svg" xmlns:xlink="http://www.w3.org/1999/xlink" x="0px" y="0px"
	 width="250px" height="270.6px" viewBox="0 0 250 270.6" style="enable-background:new 0 0 250 270.6;" xml:space="preserve">
<style type="text/css">
	.st0{fill:#BBBBBB;}
</style>
<g id="sorethroat-lady">
	<path class="st0" d="M249.5,247.9c0.2-4.8,0.3-9.3,0.3-14.2c0.2-9.2-0.2-18.3-1.7-27.5l-2.5-15.7c-0.8-4-1.8-7.8-4.2-11.2
		c-2.8-4.5-6.5-8.7-10.8-12c-3.7-2.8-8.2-4.5-12.8-4.5c-7.7,0-15.2,0.2-22.8,0c-3.7,0-7.5-0.3-11-2.3c-3.3-1.7-5.2-3.7-5-7.7
		c0.2-6.5,1.8-12.5,4-18.5c0.8-2.5,2.3-4.8,3.2-7.5c1.2-4.2,2-8.3,3.2-12.5c0.3-1.2,0.8-2.7,1.2-4c0.8-2.5,1.8-5.2,2.5-7.8
		c0.3-1.8,0.3-4,0.7-6c0.3-5.8,1-11.5,1.2-17.3c0.2-2.8-0.2-6-0.7-9c-0.3-3.7-0.8-7.5-1.7-11.2s-1.8-7.3-3.3-10.8
		c-1.2-3.5-3.2-6.8-5-10.2c-2-4-4.5-7.7-6.5-11.7c-2-4.3-5.2-7.7-8.7-10.8c-2.7-2.5-5.8-4.3-9-6.2c-4.2-2.5-8.3-4.5-12.5-6.8
		c-3.5-1.8-7.3-2.7-11.2-2.3c-1.8,0.2-3.7,0.2-5.7,0.3c-2.8,0.3-5.7,1-8.2,2.8c-1,0.8-2.5,1.7-3.7,1.8c-2.8,0.3-5.8,0.2-8.7,0.3
		c-1.8,0.2-3.7,0.8-5.7,1.5c-1.8,0.8-3.7,2-5.8,3.2c-6.2,2.8-11,7.3-14.5,13.2c-2.3,4-4.3,7.8-6.2,12c-2,4.8-4,9.5-6,14.5
		c-2.7,6.5-4.2,13.2-4.2,20.2c0,5.3,0.2,11,0.2,16.5c-0.2,8.2-0.3,16.5-0.3,24.5c0,10,0.3,20,0.3,30.2c0,2.5-0.3,4.8-0.7,7.3
		c-0.3,2.3-1,4.8-1,7.3c-0.2,3.2,0.2,6.2,0.2,9.3c0,0.7-0.2,1.7-0.7,1.8c-1.8,0.8-3.7,2-5.7,2.3c-2.8,0.3-6,0.2-9-0.2
		c-3.5-0.3-7-1-10.7,0.2c-4.5,1.7-9.5,1.5-14.5,1.5c-0.8-0.2-1.8,0-2.5,0.3c-3.7,1.8-6.5,4.8-9.2,7.8c-1.8,2.3-3.5,5.2-4.8,7.8
		c-2.7,5.8-4.3,12-4.5,18.7c0,8.3,0,16.8-1,25.2c-0.7,3.3-0.8,6.8-1.2,10.3c-0.7,6.2-1.2,12.3-1.8,18.3c-0.3,3.3,0.3,6.7-0.8,10
		c1.2,0,2.5,0,2.8,1.2c-0.2-4.5-0.7-9.2-0.3-13.5c0.2-4.5,1-9.2,1.7-13.7c0.3-3.3,1-6.8,1.2-10.2c0.3-5,0.8-9.8,1-14.8
		c0.2-3.3,0.3-6.8,0.2-10.3c-0.2-4.3,0.8-8.7,2-12.8c1.5-4.8,3.2-9.2,6.2-12.8c2-2.5,4.5-4.8,7.3-6.8c1.2-1,3.3-1,5-1.2
		c5.8-0.7,11.7-1,17.5-1.5c3.5-0.2,6.8-0.2,10.3,0c0.7,0,1.2,0.8,1.5,1.5c4.3,9.3,8.5,18.5,12.8,27.9c2.8,6.7,6,13.5,9.2,20.2
		c0.7,1.5,0.3,2.7-0.2,4c-3.5,7.3-7,14.8-10.8,22c-2,4.2-4.8,7.8-7.3,11.8c-1.2,1.8-2.3,3.7-3.5,5.7H56c-0.2-0.7-0.3-1.5-0.2-2
		c0.3-1.2,0.3-2-0.3-3.2c-0.3-0.7-0.3-1.8-0.7-2.8c-0.8-3.2-1.8-6-2.5-9.2c-0.7-3.7-1-7.7-1.7-11.5c-0.3-2.3-1-4.3-1.5-6.7
		c-0.7-3.2-1-6.5-1.5-9.5c-0.7-5.8-1.2-11.5-3.3-16.8c-1-2.7-1.7-5.7-2.5-8.5c-1-4-3.7-6.7-6-9.8c-1-1.2-2-2.7-3.3-4
		c-1-1-1.5-1-2.5-0.2c5.2,5.3,10,11,11.8,18.7c1,4.3,2.3,8.5,3.3,12.8c0.3,1,0.3,2.3,0.7,3.5c0.3,4.2,0.8,8.3,1.2,12.7
		c-2.7-9.3-10-15-16.8-20.8c-0.2,0.2-0.3,0.2-0.7,0.3c0.3,0.7,0.7,1.2,1,1.7c2.7,2.7,5.7,5.2,8.5,7.8c0.3,0.3,0.8,0.7,1,1
		c3.2,5.7,6.8,11,8.5,17.5c0.8,2.7,1,5.7,1.5,8.5c0.2,1.5,0.7,3.2,1,4.8c1.5,5.7,2.8,11,3.2,16.8c0,1.2,0.2,2.3-0.8,3.2H56
		c1.5-2.5,2.8-5.2,4.3-7.7c1.7-2.7,3.3-5.3,5.2-8.2c0.7-0.8,1.7-1.2,2.3-2c0.2-0.3,0.7-1,0.8-1.5c2.8-6.5,5.3-12.8,8.7-19.2
		c2.8-5.7,5.3-11.2,6.8-17.5c1.7-7.3,2.8-14.8,4.3-22c0.7-3.2,1.7-6,4-8.7c1.5,3.3,3.2,6.5,4.3,9.5c1.8,5,5,9.2,9.2,12.5
		c2.5,1.8,4.8,4,7,6c3.3,3.3,6.8,6,11.8,7.8c-2.8,2.7-5.7,5-8.3,7.3c-1.8,1.5-4.5,2.5-5,5.2c-1,6-4.2,10.8-7,16
		c-2,3.5-2.8,7.7-4.3,11.7c-1.2,3.5-2.8,7-4.3,10.7h2c0.3-1.5,1-2.7,1.7-4.2c0.3-0.7,0.7-1.2,0.8-2c0.3-1,0.3-2.3,0.8-3.3
		c1.2-3.3,2.5-6.5,4-9.5c0.3-0.7,0.7-1,1.7-1c6.5,0.2,12.7,0,19.2,0c2.5,0,5,0.2,7.5-0.3c2.8-0.7,5.7-1.7,8.3-2.8
		c2-1,1.8-1.2,2.8,0.8c1.5,3.2,3.2,6.2,4.2,9.3c1,4,1.7,7.8,2.5,11.8c0,0.3,0.2,1,0.2,1.5h1.7c-0.8-3.3-1.7-6.7-2.3-10
		c-0.8-5-2.8-9.3-4.5-14c-0.7-1.8-2-3.2-2.7-4.8c-1-3.2-2-6.2-3.3-9.2c-1.2-3.3-2.5-6.7-4.3-9.5c-0.8-1.5-2.7-2.7-4.3-3.5
		c-4.3-2.3-9-3.7-12.8-6.5c-4.3-3.2-8.2-7-12-10.8c-0.7-0.7-1.2-1.2-2-1.8c-3.2-2.3-4.5-5.7-6-9.2c-0.8-2.3-1.8-4.3-2.8-6.5
		c-1.5-2.8-1.7-5.8-1-9c0.3-1.5,1-2.5,2.3-2.8c0.7,2.3,1.5,4.3,2.3,6.2c0.2,0.8,1,1.2,1.5,1.8c0.8,1,1.7,2.3,2.5,3.3
		c0.7,0.8,1.2,1.8,1.8,2.7c0.3,0.3,1,0.8,1.2,0.7c0.3-0.3,1-1,0.8-1.5c-0.3-1.5-0.7-2.5-2-3.7c-2.3-1.8-4.2-4.5-5.2-7.3
		c-1.2-3.3-1.8-7.3-2.5-10.8c-0.2-1.2-0.2-2.7-0.2-4.2c0-0.2,0.3-0.8,0.7-0.8c0.3,0,0.8,0.2,1,0.3c2.7,3.2,5.3,6.2,7.8,9.5
		c1.2,1.8,2,4.2,3.2,6.2c0.2,0.3,0.8,0.8,1.2,1.2c0.2-0.7,0.8-1.5,0.7-1.8c-1.2-2.7-2.5-5.3-4.3-7.7c-4.3-5.2-8.5-10.2-11.2-16.5
		c-0.3-1.5-1.5-2.7-2-4c-0.3-0.8-0.3-1.7-0.7-2.5c0-0.2,0.2-0.2,0.3-0.3c0.3,0.2,1,0.3,1.5,0.8c2.3,2,4.3,4.3,6.5,6.7
		c2.5,2.7,4.5,5.8,7.3,8.2c2,1.8,5,2.8,7.5,4.2c1.2,0.7,2.7,1.2,4.2,1.8c0.2,0.2,0.8,0.2,1.2,0.2c0-0.7,0-1.5-0.2-1.7
		c-1.2-0.8-2.5-1.2-3.7-1.8c-2.7-1.5-5.8-2.3-7.8-4.3c-4.8-4.3-9-9.2-13.2-14c-1.2-1.5-2-3.2-3.2-4.8c-0.7-1,0-3.2,1-3.5
		c1.5-0.7,2.3,0.3,3.2,1.5c2.3,2.7,4.2,5.7,6.7,8.2c3.2,3.2,6.5,6.2,10,8.7c2.7,1.8,6,2.7,9.2,3.7c2,0.7,4.5,0.7,6.8,1.2
		c0.8,0.2,1.5,1,2.3,1.5c4,2,7.8,4.2,11.7,6.2c0.8,0.3,1.5,1.5,2,2c0.3,0.7,1,0.8,1.7,1.2c0.2-0.7,0.3-1.2,0.3-1.8
		c-1.5-10.7,2.8-19.3,9.3-27.4c0.8-0.8,1.5-1.7,2.5-2.7c1,3.7,2,7,1.2,10.7c-1.7,7-3.7,14.2-5.3,21.2c-0.8,3.7-0.2,7.3,1,10.8
		c1,2.7,1.5,5.7,1.5,8.5c0,3.3,0.3,6.2,2.3,9.3c2.5,4.2,4,8.7,6,13.2c2,4.2,4.2,8.3,6.2,12.5c2.7,5.7,5.3,11.2,8.3,16.8
		c2.3,4.3,5,9,7.5,13.3c0.2,0.2,0.3,0.3,0.7,0.7c4.3,3.5,7,8.3,9.5,13.2c0.3,0.7,0.7,1,1,1.7h3.2c0-0.3-0.2-0.8-0.3-1.2
		c-1.7-2.8-3.5-5.7-5-8.5c-0.7-1.5-0.3-3.3,0-5c1-4.2,2-8.3,3.5-12.3c1-3.3,2.8-6.2,4-9.5c1-2.7,1.5-5.7,2.3-8.5
		c0.3-1.5,1.2-2.5,2.3-3.5c2.3-2.5,4.5-5.2,6.7-7.8c3.7-5.2,7.5-10.7,11.2-15.8c2.5-3.7,5.8-6.7,9.2-9.5c0.2-0.3,0.2-1,0.3-1.7
		c-0.3,0-1.2-0.2-1.5,0c-1.7,1.5-3.3,2.5-4.5,4.2c-4.5,6-9.5,11.8-13.7,18.2c-2.5,3.7-5.3,7-8.2,10.7c-0.3,0.3-0.8,0.7-1.2,1h-0.7
		v-3.3c0.2-1.2,0.2-2.7,0.3-4c0.3-3.5,0.8-6.8,1.2-10.2c0.2-2.3,0.7-4.5,0.8-6.8c0-0.2-0.3-0.7-0.7-0.8c-0.2,0-0.7,0-0.8,0.2
		c-0.2,0.3-0.7,1-0.7,1.5c-0.7,3.7-1,7.3-1.5,11c-0.2,3.3-0.7,6.5-0.7,9.5c0,4.3-1.2,8.5-2,12.7c-0.8,4-2.5,7.5-4.2,11.2
		c-1,2.3-1.2,5-1.8,7.5c-0.8,2.7-1.7,5.3-2.5,8.2c-0.2,0-0.3,0.2-0.7,0c-2.5-2.8-5.2-5.7-6.8-9.2c-1.7-3.7-3.5-7.3-5.3-10.8
		c-0.7-1.2-1.2-2.7-2-3.7c-1.2-1.7,0.2-2.5,1-3.5c1.7-2,3.5-4,5-6.2c1.5-2.3,3.2-4.8,4-7.5c1-2.8,1.2-6,1.7-9
		c0.2-2.3,0.7-4.3,0.8-6.7c0-0.3,0.2-1,0-1.7c-0.8-3-1.7-5.8-2.5-9c-0.3-1.3-0.7-2.7-1.2-3.8c-0.3-1-0.7-2.2-1-3.2
		c-0.3-1.5-1.8-2.8-2.7-4.3c-1.2-2.3-2.7-4.5-3.7-7c-0.8-1.8-1.7-4.2-2.5-6.2c-0.3-1.2-0.7-2.7-1-4c0.3-0.2,0.7-0.2,0.7-0.2
		c6,3.5,12.5,4.5,19.3,3.7c1.8-0.2,3.5,0.3,5.3,0.3c3.3,0,6.8-0.2,10.2-0.3c5.2-0.3,10,0,14,4c1.2,1.5,2.7,2.5,4.2,3.5
		c6.7,5.2,9.3,12.3,10.3,20.3c0.7,4.2,1,8.3,2,12.5c1.5,6.5,2,12.8,2,19.5v24.5c-0.3,0-0.8-0.2-1.5-0.3c1,4.2,2,8.2,1.7,12.3
		c-0.3,3.3-0.7,6.5-0.8,9.5h3.2c-0.2-2.7-0.3-5.3-0.7-8.3c-0.2-1.8,0.2-3.7,0.2-5.7L249.5,247.9L249.5,247.9z M140.9,238.4
		c0,0,0.2,0,0.3,0c0.7,1.2,1.2,2.7,2.3,4.3c0.3,1,0.2,1.7-0.7,2c-3.3,1.7-6.7,3.3-10.7,3.3c-7.3-0.2-14.5,0.2-21.8,0.2
		c-2.5,0-2.7-0.7-1.5-2.7c0.8-1.5,1.7-2.8,2.7-4.3c0.3-0.3,1-0.8,1.7-0.8c3.5,0.2,7.3,0.2,11,0.7
		C130.4,241.4,135.6,239.2,140.9,238.4z M129.8,219.7c4.2,2,7.5,5,8.7,9.8c0.3,1.7,1.2,3.3,1.8,5c0.3,1,0.2,1.7-0.8,1.8
		c-4,0.7-7.7,2.5-11.8,2.3c-2.5,0-5.2,0.2-7.7,0.7c-1.8-0.2-4-0.3-5.8-1c-0.2,0-0.7-1-0.7-1.5c0.2-1.2,0.7-2.5,0.7-3.7
		c0.2-2.5,1.7-3.7,3.5-4.8c3.7-1.8,6.2-4.8,9-7.7C127.4,219.6,128.3,219.2,129.8,219.7z M174.4,98.3c3.5,4.3,1.8,12.7-3.5,16.5
		C172.3,109.1,173.3,103.8,174.4,98.3z M71,56.9c0-0.3,0.2-0.5,0.2-0.7c-0.2,0.7-0.2,1.3-0.3,2C70.9,57.8,70.9,57.3,71,56.9z
		 M82.9,214c-0.2,1.2-0.7,2.3-1.2,3.5c-0.3-0.3-0.7-0.8-0.8-1.5c-2-4-4.3-8.2-6.5-12.3c-4-8.2-7.8-16.5-11.7-24.5
		c-1-1.8-1.8-4-2.7-6c-0.3-1,0-1.7,1-1.8c1.8-0.3,4-0.8,5.3-2.3c0.8-0.8,1.8,0.2,2,1.7c0.2,2,0.7,4,1.2,5.8c1,3.2,2.8,5.8,3.7,9
		c1.7,5.8,5,10.3,8.2,15.3C84.4,205,84.4,209.4,82.9,214z M146.8,161.5c-0.2,0.3-0.2,0.8-0.2,1.2v1.7c-0.7-0.2-1.5-0.2-1.8-0.3
		c-2.8-1.5-5.7-2.8-8.5-4.3c-0.7-0.2-1-0.7-1.7-1c5.2-2.3,10.2-4.5,15-6.7C148.4,155,147.6,158.2,146.8,161.5z M162.3,131.5
		c-1,2.3-2.7,4.3-4.3,6.5c-2.5,3.5-5.2,6.8-8.2,10c-1.8,2-4.5,3.5-7,5c-1.8,1.2-4.3,1.8-6.5,2.7c-3.2,1.5-6.5,1.7-9.8,0.8
		c-3.7-0.8-7.3-1.7-10.3-4c-2.8-2.3-5.7-4.8-8.5-7.3c-3.2-2.5-5.7-5.7-7.5-9c-1.2-2-1.8-4.5-2.8-6.8c-1-2.3-2-4.3-3.2-6.7
		c-1.2-2.5-2.3-5-3.2-7.5c-0.2-0.3,0.2-1.5,0.7-2c0.3-0.8,0.3-1.7-0.3-1.5c-2.7,0.8-3.5-0.8-4.5-2.7c-1.2-2.5-2.5-5-3.5-7.5
		c-1-2.7-0.7-5.2,0-7.8c0.3-1,0.3-2.3,0.7-3.3c0.2-1,0.7-1.7,1.8-1.2c1.2,0.3,2-0.2,2-1.7v-1c0-7.3,0.7-14.8,1.5-22
		c0.3-4.2,0.7-8.3,1.2-12.5c0.7-3.3,1.2-6.5,2-9.5c0.3-1.2,1.5-2,2-3.3c1.2-2.5,2.3-5,4-7.3c1.2-1.8,3.2-3.2,4.8-4.5
		c1-0.8,2-1.7,3.2-2.7c0.2-0.2,0.7-0.8,0.8-0.8c1.5-0.2,2-1.2,2.3-2.3c0-1,0.7-2.2,1-2.8c2.2-3.7,5.2-6.8,7.5-10.3
		c0.5-0.7,1.7-0.3,1.3,0.5c-1.3,4.2-4.5,7.3-6.5,11.2c-0.3,0.5-0.5,1-0.7,1.5c1.3,0.8,2.5,2,4.5,2c2-0.2,4.2,1.2,6.2,2
		c2.7,1,5.7,1.7,8.3,2.8c1.7,0.8,3.3,1.8,4.8,3.2c4.5,4.2,6.8,9.8,9.5,15.2c2.3,4.3,4.5,8.5,6.8,12.8c0.3,0.8,1.2,1.5,2.3,2.5
		c-4.5-0.8-8.5,0-13.2,0.8c-1.7,0.7-2.8,1.7-2.7,2.7c0.2,1,1.8,1.5,3.7,0.7c3.7-1.7,7.5-1.7,11.7-0.3c2,0.7,2.8,1.8,4.2,2.8
		c3.5,3.2,6,7.3,8.7,11.2c2,3.2,4,6.2,4,10c0,2.7-0.3,5.3-0.7,8.2c-0.2,2.3-0.2,4.8-0.8,7c-1.5,6.5-3.2,12.8-5,19.3
		C164.1,126.7,163.3,129.2,162.3,131.5z M178.3,226.7c-0.8-1.7-1.8-2.7-0.8-4.2c1.2-2,2.7-4,4.2-6c0.2-0.2,0.3-0.2,1-0.7
		C182,220.1,180.3,223.4,178.3,226.7z M181.1,204.5c1.5,4.2,1.7,8.2-1.2,11.5c-1,1.5-2,2.7-3.2,4.2c-0.8,1-1.7,0.8-2-0.2
		c-0.7-1.5-1.2-3.2-1.8-4.8c-0.2-0.3,0-1.2,0.2-1.5c3.5-2,5.8-5.2,7.8-8.7C181,204.9,181.1,204.9,181.1,204.5z M180.1,197.7
		c1.5,2.7,0.3,4.8-1.2,6.8c-1.5,1.8-2.8,3.7-4.5,5.7c-1,1.2-3.2,1-4-0.3c-1.2-1.7-2.3-3.5-3.2-5.3c-1.7-3.2-3.2-6.2-4.3-9.5
		c-0.7-2-0.8-4.2-1-6.2c-0.7-4-0.8-7.8-1.7-11.8c-0.8-4.2-0.8-8.2,0.3-12c1.2-3.8,2.2-7.8,3-11.7c0,1,0,2,0.2,3
		c0.2,3.3,0,6.5,1.3,9.7c0.2,0.5,0.5,1,0.7,1.7c0.3,2.3,1,4.7,2,6.8c3.3,6.8,7,13.5,10.7,20.2C179.1,195.2,179.5,196.5,180.1,197.7z
		"/>
	<path class="st0" d="M134.8,136.2c-7.3-0.8-13.3-2.7-17-9.2c-0.2-0.3-0.2-1.5,0-1.8c1.5-2,3.3-4,4.8-6c2.3-3.3,4-3.7,7.7-2.3
		c0.8,0.2,1.8-0.2,2.8-0.3c0.8-0.2,1.8-0.7,2.7-0.3c3.7,1,6.2,3.5,7.8,6.8c0.3,0.8,1.2,1.7,1.5,2.5c0.2,1,0.7,2.3,0.2,2.8
		c-1.2,2-2.7,3.7-4.8,4.8c-1,0.3-1.8,1.5-2.8,1.8C136.6,135.7,135.4,135.8,134.8,136.2z M120.1,127.8c-0.2,0.2-0.2,0.2-0.3,0.3
		c1,0.8,1.8,1.8,3.2,2.5c3.7,2,7.5,3.7,11.7,3.5c0.7,0,1.2-0.2,1.8-0.3c1.7-1,3.2-2,4.8-3.2c0.7-0.3,1.2-1.2,1.7-1.8
		c0-0.2-0.2-0.3-0.2-0.3C135.1,128.8,127.6,128.7,120.1,127.8z M143.3,125.8c-2.5-5-3.2-6.7-7.7-8.2c-0.3-0.2-1.2-0.2-1.7,0.2
		c-1.7,0.8-2.8,0.8-4.8,0.2c-1-0.3-3.2-0.3-4,0.2c-1.7,1.5-2.8,3.7-4.3,5.8C128.8,121.2,135.9,121.2,143.3,125.8z"/>
	<path class="st0" d="M139.8,103.6c-1.2,0.3-2,0.7-2.8,1c0.3,1.2,3.2,1.7,4.3,0.3c1.2-1.5,1.5-5,0.3-6.8c-1-1.8-1.8-4-2.7-5.8
		c-0.2-0.3-0.2-1-0.2-1.5c0.2-0.2,0.2-0.2,0.3-0.3c0.3,0.7,1.2,1,1.5,1.7c1,1.8,1.8,4,2.8,5.8c1,2,0.7,6.7-0.8,8.2s-4.3,1.8-6.2,0.8
		c-1.2-0.7-2-0.3-3.3,0c-1.2,0.3-2.8,0.2-4.3,0.2c-1,0-2-0.3-3.2-0.2c-3.7,0.7-6.7-1.7-6.5-5.3c0.2-2.8,0.8-5.8,3.7-7.8
		c0,0.7,0.2,1.2,0,1.8c-1,1.7-1.7,3.5-1.8,5.3c-0.2,2.5,0.3,3.7,3.2,4.2c0.7,0,1,0.2,1.7,0.2c0-0.2,0-0.2,0.2-0.3
		c-0.2,0-0.3,0-0.7-0.2c-0.7-0.7-1.5-1-1.5-1.7c0-1.2,1.5-1.5,2.3-1c1,0.3,2,1,2.5,2c1,1.8,2,2.5,4,1.5c0.8-0.3,1.7-1.2,2.3-2
		C136.6,101.5,137.9,101.5,139.8,103.6z"/>
	<path class="st0" d="M118.7,65.6c-3.2,0-6,0-9.2,0c-2.5,0-5,0.3-7.3,1.7c-0.8,0.3-1.8,0-2.8-0.2c-0.2,0-0.3-1.5,0-1.8
		c1-0.8,2.3-1.7,3.5-2c3.3-1,6.5-2.7,10-2.3c0.3,0,1,0,1.5,0.2c2.3,0.3,4.3,0.8,6.7,1.2c0.7,0.2,1.2,0.7,1.7,1.2
		c0.2,0.2,0,1-0.2,1.5c-0.2,0.3-0.8,0.7-1.2,0.7C120.1,65.9,119.6,65.9,118.7,65.6L118.7,65.6z"/>
	<path class="st0" d="M110.9,81c-2.5-0.3-4.8-1-7.3-1.5c-0.3,0-0.8,0.2-1,0c-0.7-0.2-1-0.3-1.5-0.8c-0.2-0.2-0.2-1,0-1.2
		c0.3-0.2,1-0.7,1.5-0.3c2.7,0.3,5.2,1.2,7.8,1.2c2.3,0,4.5-1,7-1.5c0.8-0.2,1.7,0,2.5,0c0.2,0,0.7,0.7,0.7,0.8c0,0.3-0.3,1-0.8,1
		c-1.8,0-3.5,0.7-5,1.7c-1,0.7-2.5,0-3.7,0C111.2,80.5,111.2,80.6,110.9,81z"/>
	<path class="st0" d="M160.1,78.5c-0.7,1.8-1.5,2-3.2,1.5c-1-0.3-2.5-0.2-3.7-0.2c-2.7-0.2-5.2-0.7-7.8-0.8c-0.8,0-1.5-0.2-2.3-0.2
		c-0.8-0.2-1.5-0.3-2.5-0.7c1.2-1.8,2.8-1.7,4.2-1.2c4.5,1.2,9,1.5,13.7,1.2C158.9,77.8,159.4,78.1,160.1,78.5z"/>
	<path class="st0" d="M135.8,58.1c2,1.2,1.5,2.7,1.5,4.2c0,1.2,0,2.5-0.2,3.7c0,0.3-0.3,1-0.7,1.5c-0.3-0.3-1-1-1-1.5
		c0-1.7,0.2-3.5,0.2-5.2C135.6,60.1,135.8,59.3,135.8,58.1z"/>
	<path class="st0" d="M127.1,57.8c0,0.8,0,1.7,0,2.5c-0.2,1.2-0.3,2.7-0.7,4c0,0.3-0.7,0.8-0.8,1.2c-0.2-0.2-0.8-0.3-0.8-0.7
		c-0.2-2.5,0.3-4.8,1.5-7C126.4,57.8,126.8,57.8,127.1,57.8z"/>
</g>
</svg>
