<?xml version="1.0" encoding="utf-8"?>
<!-- Generator: Adobe Illustrator 21.1.0, SVG Export Plug-In . SVG Version: 6.00 Build 0)  -->
<svg version="1.1" id="Layer_1" xmlns="http://www.w3.org/2000/svg" xmlns:xlink="http://www.w3.org/1999/xlink" x="0px" y="0px"
	 width="200px" height="251.7px" viewBox="0 0 200 251.7" style="enable-background:new 0 0 200 251.7;" xml:space="preserve">
<style type="text/css">
	.st0{fill:#BBBBBB;}
</style>
<g id="chestpain-lady">
	<path class="st0" d="M159.7,54.3c0.1-3.9-1.3-7.1-2.4-10.5c-1.1-3.2-1.6-6.5-3.1-9.6c-2.1-4.3-4.1-8.8-7.5-12.4
		c-3.9-4-8-7.9-13.6-9.2c0.8,0.5,1.7,1.1,2.5,1.6c-0.1,0-0.1,0.1-0.1,0.1c-0.1,0-0.5,0-0.7-0.1c-2.1-1.5-4.7-1.9-6.5-3.7
		c-0.5-0.5-1.9-1.9-3.2-0.5c-0.1,0.1-0.8,0-1.1-0.1c-0.1,0.1-0.1,0.1-0.3,0.3c0.3,0.3,0.7,0.7,0.7,1.5c4.8,1.1,9.3,3.3,13.3,6.1
		c3.5,2.5,6.9,5.6,10,8.8c1.5,1.5,2.1,3.7,3.2,5.6c3.2,5.5,5.1,11.6,7.1,17.5c0.5,1.6,0.8,3.5,1.1,5.2c0.3-0.3,0.7-0.3,0.9-0.3
		C159.7,54.5,159.7,54.4,159.7,54.3z"/>
	<path class="st0" d="M200,200.6c-0.1-2.7-0.7-5.6-0.8-8.4c-0.3-4.5-0.3-8.9-0.7-13.5c0-2.1-0.3-4-0.7-6.1c-0.3-3.1-0.9-5.9-0.9-8.9
		c-0.1-4.7,0.3-9.2,0.5-13.7c0.1-0.9,0.3-1.9,0.3-2.9c-0.3-4.8-0.5-9.5-0.9-14.3c-0.1-2.4-0.7-4.9-1.3-7.3c-0.9-3.5-2.7-6.7-4.8-9.7
		c-1.6-2.3-3.2-4.7-4.8-6.9c-1.6-2.3-3.5-4.5-4.3-7.2c-0.9-3.7-2.1-7.3-3.2-11.1c-0.9-3.1-2.1-6.1-2.9-9.2
		c-1.3-5.3-2.7-10.5-3.9-15.9c-0.8-3.3-0.9-6.9-1.9-10.3c-1.3-4.5-3.1-8.9-4.7-13.5c-1.1-3.1-2.3-6.3-3.3-9.3
		c-0.7-1.9-1.5-4-2.5-5.6c-1.9-2.9-4-5.5-6.3-8.1c-0.7-0.8-0.3-2.1-1.5-2.7c-0.8-0.3-1.5-0.8-2.1-1.5c-1.3-1.5-2.4-3.2-3.9-4.3
		c-2.1-1.5-4.3-2.5-6.4-3.9c-1.1-0.8-2.4-1.3-3.5-1.9c-0.5-0.3-0.7-1.1-1.1-1.5c-0.8-0.5-1.6-0.8-2.3-0.7c-2.7-0.9-5.6-2.1-8.7-2.1
		c0.3,0,0.5,0.1,0.8,0.3h-3.7c0-0.1,0.1-0.3,0.3-0.3c-1.1,0.1-2,0.3-3.1,0.4c-2.7,0.5-5.6,0-8.4-0.5c-2.3-0.3-4.5-0.3-6.5,0.8
		c-2.7,1.5-5.3,3.2-7.2,5.6c-1.3,1.5-3.1,2.5-4,4.1c-2.7,4.5-5.5,8.9-6.9,14c-0.5,1.6-0.8,3.2-1.3,4.8c-1.6,4.9-3.3,10-4.8,14.9
		c-0.9,3.2-1.9,6.4-2.5,9.7c-0.7,3.2-0.9,6.5-1.7,10c-1.1,4.9-2.4,10-3.7,14.9c-0.3,1.3-0.9,2.4-1.1,3.7c-0.5,3.9-0.8,7.5-1.3,11.3
		c-0.1,0.9-0.1,2.3-0.7,3.2c-0.7,1.1-0.9,2.4-2.5,2.9c-4.7,1.6-9.3,1.9-14.1,1.7c-0.9-0.1-2.1,0.1-3.1,0.3c-1.5,0.3-3.1,0.7-4.7,1.1
		c-3.5,0.9-7.3,1.1-10.3,3.7c-1.3,1.1-2.9,2.1-4.1,3.2c-1.1,0.8-2.1,1.7-2.9,2.7s-1.5,2.3-2.1,3.3c-1.6,3.1-3.5,5.9-4.7,9.2
		c-1.6,4.7-2.4,9.6-3.7,14.5c-0.8,3.3-1.7,6.7-2.7,10c-0.3,1.5-1.1,2.5-1.5,4c-0.9,4.1-1.7,8.5-2.7,12.7c-0.9,4.5-2.4,8.8-3.5,13.3
		c-0.7,2.1-0.9,4.3-1.3,6.4c-0.7,4-1.3,8-1.9,11.9c-0.5,2.7-1.6,5.3-1.6,8c0,5.5-0.8,11.1,0.1,16.5c0.7,3.5,1.9,6.9,3.9,10.1
		c1.6,2.5,4.1,3.9,6.1,5.9c2.1,2.3,4.3,2.5,7.1,1.3c0.1-0.1,0.5-0.1,0.7-0.1c4-1.3,8-2.3,11.6-4.7c2.4-1.6,4.7-3.2,7.1-4.7
		c2.3-1.5,4.7-2.7,6.7-4.1c1.6-1.1,3.1-2.5,4.9-4.1c0.1,3.2,0.5,5.9,1.9,8.4c0.9,1.5,1.5,3.1,0.1,4.7c-0.3,0.3-0.5,0.8-0.5,1.1
		c-0.3,2.5-0.8,5.1-0.9,7.9c-0.1,2.4,0,4.8,0,7.2h1.3c0-2.4-0.1-4.7,0-7.1c0.1-3.3,0.8-6.5,2.1-9.7c0.1-0.7,0.3-1.5,0.1-1.9
		c-0.8-1.9-1.6-3.9-2.4-5.7c-1.3-2.9-0.5-5.7,1.6-7.3c1.5-1.1,3.1-1.9,4.1-3.1c1.7-1.7,3.5-1.9,5.9-1.5c3.3,0.7,6.7,0.5,10.3,0.5
		c1.3,0,2.5-0.5,3.9-0.8c2.1-0.7,4-1.5,6.1-2.1c0.3-0.1,0.8-0.5,1.1-0.7c-0.1-0.3-0.1-0.5-0.3-0.7c-2.3,0.8-4.3,1.6-6.5,2.3
		c-1.5,0.5-3.1,0.9-4.7,1.1c-2.3,0.3-4.5,0.1-6.7,0c-1.9-0.1-3.7-0.5-5.6-0.7v-0.5c0.3-0.5,0.7-0.8,1.1-1.3
		c3.7-3.7,7.5-7.3,11.2-11.2c3.9-3.9,7.2-8.4,11.7-11.7c3.7-2.7,6.9-5.9,10.4-8.9c0.7-0.7,1.3-1.1,1.9-1.5c2.1-1.1,4.3-1.7,6.9-1.7
		c3.1,0,6.1-0.5,8.8-1.7c4.8-2.3,9.6-4.3,14.4-6.4c0.8-0.3,1.3,0,1.6,0.7c1.3,2.5,2.5,4.9,3.5,7.5c1.5,3.9,2.5,7.9,4,11.7
		c1.9,4.9,4,10,6.1,14.9c-0.3,0.1-0.5,0.3-0.7,0.3c-0.3,0.1-0.7,0.3-0.9,0.5c-4.8,1.9-10,1.1-14.9,0.9c-1.9-0.1-4-0.3-6.1-0.3
		c-0.3,0-0.8,0.1-1.1,0.3c1.9,0.5,3.9,0.5,5.7,0.7c5.7,0.3,11.7,1.3,17.3-1.1c0.3-0.1,1.1,0.1,1.3,0.5c1.5,2.5,3.1,5.1,4,7.9
		c3.1,8.4,7.9,15.9,12.7,23.3c3.5,5.5,8.4,10,12.7,14.5c0.5,0,0.9,0,1.5-0.1c-0.5-0.5-0.9-1.1-1.5-1.6c-2.4-2.4-4.9-4.5-7.1-7.1
		c-5.6-6.5-9.7-14.1-13.7-21.6c-2.3-4.3-4.3-8.9-6.3-13.6c-1.5-3.3-2.7-6.9-4-10.3c-0.7-1.6-1.1-3.3-1.9-4.9
		c-2.1-4.5-4.1-8.9-5.3-14c-0.5-1.9-1.3-3.9-2.1-5.6c-0.9-2.1-2.1-4.1-3.1-6.3c-0.5-0.9-0.5-2.1-1.9-1.3c-0.1,0-0.5-0.1-0.8-0.3
		c0.5-1.3,0.9-2.5,1.5-3.7c-0.1,0-0.3-0.1-0.5-0.1c-0.3,0.8-0.7,1.6-1.1,2.3c-0.5,0.7-1.5,1.6-2.1,1.6c-1.3,0-2.5-0.7-3.7-1.1
		c-1.6-0.9-3.2-1.9-4.8-2.9c-2.5-1.5-5.1-2.9-7.3-4.7c-3.3-2.5-7.1-3.5-11.2-2.7c-2.1,0.5-4.3,0.7-6.5,0.7c-0.5,0-1.3-0.7-1.6-1.3
		c-0.3-0.1,0.3-1.1,0.7-1.5c0.9-1.1,2.1-2.1,3.2-2.9c1.1-0.7,2.4-1.3,3.7-1.7c1.7-0.7,3.7-0.8,5.6-1.3c0.3,0,0.7-0.3,0.7-0.7
		c0-0.1-0.3-0.7-0.5-0.7c-0.9-0.3-1.7-0.7-2.7-0.7c-2.1-0.1-3.7,0.7-4.9,2.5c-0.8-1.6-0.7-3.1-0.1-4.5c0.3-0.9,1.1-1.9,1.3-3.1
		c0.5-2.9,2.3-3.2,4.7-2.3c1.7,0.8,3.5,0.8,5.3-0.1c-0.5-0.1-0.9-0.3-1.5-0.3c-1.5-0.1-2.9-0.5-4.3-0.7s-1.1-1.1-0.8-1.9
		c0.5-1.6,3.5-3.5,5.1-3.3c2.3,0.1,4.7,0.5,7.1,0.7h2.5v-0.7c-2.1-0.1-4.1-0.5-6.3-0.8c1.1-2.3,2.7-3.7,5.5-3.3
		c1.5,0.1,3.1,0,4.5,0.3c1.9,0.5,3.9,1.1,5.7,1.7c1.7,0.7,3.3,1.5,4.9,2.1c2.5,0.9,5.7,0.5,8.1,2.9c0-0.5-0.1-1.1-0.5-1.3
		c-1.5-0.7-2.9-1.1-4.5-1.6c-2.3-0.7-4.5-1.1-6.7-1.7c2.3-0.9,4.3-1.6,6.4-2.3c0.5-0.1,1.1-0.5,1.6-0.3c3.5,1.3,6.7,3.5,8.5,6.7
		c1.6,2.7,1.7,6.3,2.4,9.5c0.5,2.3,0.5,4.5,1.9,6.4c0.7,0.8,1.3,1.3,1.7,2.1c2.4,3.9,4.8,7.5,6.9,11.6c3.2,5.9,6.4,11.7,11.2,16.7
		c3.3,3.5,6.4,7.3,9.2,11.6c4,5.9,9.2,10.9,12.8,16.9c2.5,4.3,5.9,8.1,8.1,13.3c0.1-0.7,0.5-1.1,0.3-1.3c-1.7-2.9-3.3-6.1-5.3-8.8
		c-1.7-2.5-3.9-4.8-4.9-7.7c-0.1-0.3-0.3-0.5-0.5-0.7c-2.1-2.5-4.1-4.8-6.1-7.3c-2.7-3.5-5.3-7.2-8-10.5c-2.9-3.5-5.9-6.7-8.8-10.1
		c-0.9-1.1-2.1-2.4-2.1-3.7c-0.1-3.2,0.3-6.3,0.5-9.3c0.1-0.9,0.1-2.1,0.7-2.9c0.8-1.5,1.7-2.9,2.7-4.3c1.6-2.4,1.9-4.9,1.7-7.9
		c-0.9,2.7-1.1,5.6-3.1,8.1c-0.7-3.2-1.1-5.9-1.6-8.8c-0.3,0.1-0.5,0.5-0.5,0.8c0.3,1.9,0.5,3.7,0.8,5.5c0.3,2.3,0.9,4.5-1.1,6.3
		c-0.8-0.8-1.7-1.6-2.5-2.4c1.7-1.7,0.7-4.1-1.6-4.8c-0.8-0.1-1.7-0.8-2.1-1.6c-0.9-2.1-1.5-4.3-2.1-6.5c-0.3-1.1-0.3-1.7,0.8-2.3
		c1.7-0.8,3.1-2.4,3.7-4.3c0.1-0.7,0.1-1.7-0.1-2.3c-0.5-0.5-1.5-0.8-2.3-0.8c-1.6,0.1-3.3,0.7-5.5,1.1c0.3-1.3,0.7-2.4,0.9-3.3
		c0.5-1.9-0.1-2.9-2.3-2.5c0,0-0.1,0-0.5,0c-0.7-4.5-0.7-8.8,0.3-13.3c1.5,0.3,2.7,0,3.7,0.7c1.7,1.1,3.9,1.9,5.9,2.5
		c2.7,0.9,5.5,1.9,8.1,2.9c1.1,0.3,2.4,0.3,3.5,0.8c2.7,1.3,5.3,3.1,8,4.5c0.3,0.1,0.9,0.1,1.5,0.1c-0.7-2.5-1.1-5.1-1.7-7.5
		c-0.8-3.2-1.3-6.7-4.7-8.5c-0.1-0.1-0.1-0.3-0.1-0.5c1.3-0.1,2.4-0.5,3.7-0.5c2.1,0,4.1,0.1,6.3,0.5c1.3,0.1,2.7,0.3,4,0.8
		c1.5,0.5,2.9,0.9,3.9,1.9c1.1,1.3,1.7,3.2,2.9,4.8c2.3,3.2,3.7,6.7,4.7,10.4c0.8,3.2,0.7,6.5,0.9,10c0.1,1.6,0.3,3.1,0.3,4.7
		c0,2.9,0.3,5.7,0.1,8.5c-0.1,3.7-0.8,7.3-0.8,11.1c0.1,4,0.8,8,1.1,12c0.3,4.8,0.8,9.5,1.1,14.3c0.3,4.5,0.7,9.2,0.7,13.7
		c0,2.9-0.8,5.9-0.9,8.8c-0.1,2.9,0,5.6,0,8.5c0,3.3,0.7,6.7-0.5,10.1c-0.3,0.9-0.8,1.7-1.1,2.7c-0.8,3.3-1.6,6.7-2.4,10
		c-0.7,2.4-1.5,4.9-3.2,6.9c-0.8,0.8-1.5,1.9-2.3,2.9h1.5c0.3-0.1,0.7-0.5,0.9-0.8c2.7-3.2,4.1-7.1,4.9-11.2
		c0.5-2.7,0.8-5.6,2.1-8.1c1.9-4,1.6-8.1,1.3-12.1c-0.3-4.9-0.3-10.1,0.5-15.1C199.5,203,200,201.7,200,200.6z M98.8,145
		c-1.5,0.1-2.7,0.5-4.1,0.8C95.2,144.5,96.6,144.2,98.8,145z M87.4,156.2c1.5-1.1,3.1-1.7,4.9-1.7c2.1,0,4.3-0.1,6.4-0.3
		c2.7-0.1,5.1,0.9,7.2,2.5c4.3,3.2,8.8,6.1,13.7,8c1.6,0.7,3.3,0.8,5.1,1.3c0.3,0.1,0.7,0.1,0.9,0.3c0.3,0.1,0.7,0.3,0.9,0.7
		c-0.3,0.3-0.5,0.8-0.8,0.9c-3.2,1.6-6.4,3.1-9.6,4.5c-2.1,0.8-4.3,1.3-6.4,2.3c-2.5,1.3-5.3,1.1-8,1.5c-1.5,0.3-3.1-1.3-3.3-3.2
		c-0.1-0.3-0.1-0.7-0.1-0.9c-0.8,0.8-0.8,0.8,0.8,4.3c-3.1,0.3-5.3,2.3-7.3,4.3c-2.3,2.1-5.1,3.7-7.3,5.9
		c-3.7,3.5-7.1,7.2-10.5,10.8c-0.9,0.9-2.1,1.6-2.9,2.4c-2.9,3.1-5.7,6.1-8.7,9.2c-0.7,0.7-1.5,1.1-2.1,1.7
		c-3.3,3.1-6.5,6.3-10.3,8.9c-5.1,3.7-10,8-15.7,10.8c-1.5,0.7-2.7,2.1-4.1,3.1c-3.9,2.9-8.4,3.9-12.8,5.3c-2.5,0.8-4.7,0.3-6.7-1.5
		c-3.1-2.5-5.9-4.9-7.3-8.7c-1.9-4.7-2.7-9.6-1.9-14.8c0.1-1.5,0.1-3.1,0-4.5c-0.3-3.9,0.7-7.3,1.6-11.1c0.8-3.1,1.3-6.1,1.6-9.2
		c0.5-5.6,1.9-11.1,3.7-16.4c0.8-2.4,1.3-5.1,1.7-7.7c0.5-2.7,1.1-5.5,1.6-8.1c0.3-1.1,0.1-2.5,0.8-3.3c2.9-3.7,2.7-8.4,3.9-12.5
		c1.5-4.8,2.3-10,3.9-14.8c1.1-3.5,3.3-6.9,5.1-10.3s4.8-5.5,7.7-7.5c0.5-0.3,0.9-0.8,1.5-1.1c2.3-2.1,5.3-1.9,7.9-2.7
		c1.9-0.7,4.1-0.8,6.3-1.3c1.7-0.5,2.9-0.3,4.3,1.1c3.1,3.3,6.5,6.4,9.7,9.6c-1.3,2.7-2.3,5.1-3.7,7.5c-1.7,3.3-3.3,6.7-5.5,9.7
		c-2.7,4.1-4.9,8.7-6.7,13.3c-0.8,2.1-1.6,4.1-2.4,6.4c-1.9-1.9-2.9-4.3-3.1-6.9c-0.1-2.5,0-5.3,0-7.9h-0.7c0,0.5-0.1,0.9-0.1,1.5
		c0,2.1,0.1,4.1,0,6.3c-0.1,2.3,0.5,4.1,1.7,5.6c1.6,1.9,1.5,3.9,0.9,5.9c-1.3,5.9-2.9,11.9-4.1,17.7c-0.3,2.1-0.5,4.1-0.8,6.3
		c-0.1,0.9-0.1,2.1-0.5,3.1c-0.3,0.8-0.9,1.6-1.6,1.9c-3.9,1.7-7.9,3.3-11.9,5.1c-4.3,1.9-8.4,4.3-11.7,7.5
		c-0.5,0.5-0.9,1.3-1.5,1.9c0.3,0.1,0.5,0.5,0.8,0.7c0.8-1.1,1.6-2.5,2.7-3.3c3.3-2.3,6.7-4.3,10.3-6.1c3.7-1.9,7.5-3.3,11.3-4.9
		c0.8-0.3,1.7-0.1,2.5-0.5c3.9-1.9,7.7-3.9,11.6-5.6c4.3-1.9,8-4.7,11.9-7.2c5.1-3.5,10.8-6.5,16-10
		C81.2,160.2,84.3,158.4,87.4,156.2z M89.2,148.4c-0.7,0.5-1.3,1.1-2.1,1.6c-1.3,0.8-1.6,2.1-0.9,3.3c0.8,1.5,0.1,2.4-0.9,3.1
		c-3.9,2.7-7.7,5.3-11.7,7.9c-4.1,2.5-8.5,5.1-12.7,7.7c-2.3,1.5-4.3,3.2-6.5,4.5c-2.4,1.6-5.1,2.7-7.7,4c-2.4,1.3-4.8,2.4-7.2,3.7
		c-1.1,0.7-1.5,0-1.3-0.9c0.7-3.9,1.3-7.7,2.1-11.3c0.5-2.4,1.5-4.7,2.1-6.9c1.1-4.1,2.1-8.5,3.2-12.7c1.3-4.8,2.7-9.7,5.3-14.1
		c2.5-4.5,5.3-8.9,7.9-13.6c1.1-2.1,2.1-4.5,2.9-6.7c0.7-1.5,1.5-2.3,2.5-2.3c0.3,0.1,0.9,0.3,1.3,0.7c1.7,0.7,3.5,1.3,5.3,1.9
		c0.9,0.3,0.9,0.7,0.8,1.5c-0.7,2.9-1.5,5.7-1.7,8.7c-0.3,4.1,0.9,7.9,4.3,10.5c2.9,2.4,6.3,4.3,9.6,5.7c1.7,0.8,3.7,1.5,5.5,2.3
		C90,147.3,90,147.7,89.2,148.4z M131,122.2c-0.5,0.8-0.9,1.7-1.6,2.1c-2.3,0.9-4.7,1.6-7.1,2.1c-0.8,0.1-1.6-0.1-2.4-0.5
		c-3.2-1.1-6.5-1.5-10.1-1.3c-1.9,0.1-3.2,1.3-4,2.9c-0.7,1.5-1.6,1.6-2.9,1.5c-2.7-0.1-4.5,1.5-6.1,3.3c-0.3,0.1-0.3,0.8-0.5,1.1
		c-0.3,0.7-0.7,1.3-1.1,1.6c-0.9,0.8-1.7,1.6-1.9,2.9c0,0.8-0.5,1.6-0.8,2.3c-1.1,1.9-1.6,4-0.8,6.4c-2.7-1.3-5.6-1.3-7.9-3.1
		c-0.7-0.7-1.7-0.8-2.7-1.3c-3.3-1.6-6.4-3.9-8.5-6.9c-1.6-2.4-2.1-5.5-1.6-8.4c0.3-2.4,1.1-4.7,1.7-6.9c0.1-0.5,0.5-0.9,0.7-1.3
		c1.9,0.1,3.7,0.7,5.6,0.7c3.5,0,6.5-1.3,8.9-3.9c1.6-1.7,2.7-3.9,2.7-6.4c0.1-6.1-1.3-11.9-3.2-17.6c-0.7-2.3-0.9-4.7-1.5-7.1
		c0.1,0,0.5-0.1,0.7-0.1c0.5,0.9,0.9,1.9,0.9,2.7c0.8,4.5,3.3,8,5.6,11.7c2.3,3.9,5.9,5.7,9.3,8.4c2.1,1.6,4.1,2.5,6.5,3.2
		c3.7,0.9,7.2,0.5,10.8-1.1c3.9-1.6,7.3-3.7,10.3-6.5c0.5-0.3,0.9-0.7,1.5-0.9c0.1,0,0.1,0.1,0.3,0.1c-0.1,0.5-0.3,0.9-0.5,1.3
		c-0.8,1.5-1.6,2.9-2.3,4.3c-0.5,0.9-0.5,1.9,0.8,2.3c0.9,0.1,2.4,0.3,2.9,0.9c0.5,0.7,0.1,1.9,0.1,2.9c0.1,0.9-0.1,1.3-1.3,1.7
		c-3.5,1.5-6.9,1.1-10.4,1.3c-0.1,0-0.5,0.3-0.7,0.5c0.3,0.1,0.5,0.5,0.7,0.5c0.8-0.1,1.7-0.3,2.5-0.3c2.5,0,5.1,0.1,7.5-1.1
		c0.3-0.1,0.7-0.1,1.3-0.1c-0.5,1.7-0.9,3.3-1.5,4.9C131.2,121.4,131.1,122,131,122.2z M138.4,95.1c1.5-2.1,2.4-4.5,3.7-6.7
		c0.1-0.5,0.3-0.8,0.5-1.3c0.1,0,0.5,0.1,0.7,0.1c-1.7,7.2-3.2,14.5-1.6,22.4c-1.5-0.1-3.1-0.3-4.5-0.3c-1.1,0-2.4,0.1-3.5,0.1
		c-0.8,0-1.6-0.1-2.3-0.3c-0.8-0.1-0.9-0.7-0.7-1.6C132.6,102.9,135.8,99.1,138.4,95.1z M135.6,126.9c-0.7-0.5-1.3-1.3-2.1-1.6
		c-1.3-0.7-1.6-1.5-1.3-2.7c0.9-3.7,1.9-7.3,1.9-11.2c0-0.3,0.7-0.8,1.1-0.9c1.9-0.7,3.7,0,5.5,1.1c2.4,1.5,3.5,3.3,3.3,6.3
		c-0.1,1.5,0,2.9,0,4.3h-0.1c0,1.6,0,3.2-0.1,4.8c0,0.9-0.3,1.5-1.3,1.9C139.3,130.4,137.6,128.4,135.6,126.9z M141.6,134.9
		c1.7-0.8,3.1-1.5,4.7-2.1C146.3,134.1,143.9,135.4,141.6,134.9z M158.1,160c0.5,2.5,0.1,5.3,0.1,8c0,0.5-0.1,0.8-0.3,1.3
		c-0.1,0.1-0.3,0.1-0.5,0.1c-1.3-2.5-2.7-5.1-4.3-7.7c-0.3-0.7-0.7-1.5-0.9-2.1c-0.3-0.7-0.8-1.9-0.7-2.1c0.9-0.7,2.1-1.1,3.2-1.7
		c0.1-0.1,0.3,0,0.3,0C156.3,157,157.9,158.4,158.1,160z M154,151.4c0.8,0.3,1.9,0.5,1.9,1.7c0,1.1-0.7,1.7-1.6,2.1
		c-1.1,0.5-2.4,0.8-3.7,1.1c-1.3-2.3-2.5-4.5-3.9-6.7c1.1,0.3,2.3,0.7,3.3,0.8C151.5,150.8,152.7,151,154,151.4z M152,150.2
		c-1.3-0.3-2.5-0.9-4-0.9c-3.1,0-3.7-2.3-4.7-4.3c-0.1-0.3,0-1.1,0.3-1.3c1.7-0.9,3.5-1.7,5.3-2.5C150,144.2,151.1,147.3,152,150.2z
		 M151.7,133.4c0.7-0.1,1.5,0.1,2.3,0.3c-0.1,0.8,0,1.7-0.5,2.3c-1.1,1.3-2.4,2.4-3.9,3.3c-1.7,1.1-3.7,2.1-5.6,3.1
		c-0.3,0.1-0.7,0.1-0.8,0.3c-0.3-2.1-0.8-4.1-1.1-6.1c0-0.3,0.5-0.9,0.8-1.1C145.7,134.8,148.7,134.1,151.7,133.4z M147.1,128.6
		c0.5,2.5-1.7,4.8-5.3,5.7c-0.7-1.5-1.1-2.7-1.7-4.3C142.4,129.6,144.7,129.2,147.1,128.6z M180.8,108.9c-2.7-0.9-5.6-0.8-8.5-0.3
		c-1.5,0.3-2.7,0.3-3.7,0c-0.4,0.3-1.1,0.3-1.5-0.3c-0.1-0.1-0.3-0.4-0.4-0.5c-1.1-0.8-2-2-2.7-3.5c-1.5-3.1-3.2-6.1-3.3-9.5
		c0-1.1-0.1-2.3-0.1-3.3c-0.1-2.7,0-5.3,0.1-8c0.4-4.8,0.7-9.5,0.3-14.3c-0.1-2.5-0.3-5.1-0.8-7.5c-0.3-1.1-0.5-2.3-0.9-3.3
		c1.1,6.8,1.5,13.6,1.1,20.5c-0.1,4.8-0.9,9.5-0.8,14.3c0.1,3.1,0.9,5.9,2.3,8.8c0.7,1.1,1.3,2.3,1.7,3.5c1.1,2.3,3.1,3.9,4.9,5.1
		c2.9,1.9,4.1,4.7,4.8,7.9c0.5,2.4,0.9,4.7,1.5,7.2c-2.7-1.6-5.3-3.2-8-4.7c-0.9-0.5-2.4-0.5-3.5-0.8c-2.4-0.8-4.7-1.6-7.1-2.5
		c-2.4-0.9-4.7-1.9-6.9-2.9c-0.7-0.3-1.3-0.7-1.9-0.7c-2.3,0.1-3.3-1.3-4.3-3.1c-1.9-3.1-1.7-6.5-1.5-9.7c0.5-4.9,1.5-10,2.4-14.8
		c0.7-4,1.9-8,2.7-12c0.8-3.5,1.3-7.1,1.7-10.5c0.1-0.9-0.3-2.1-0.3-3.1c0-0.9,0.1-1.9,0.3-2.9c0.1-0.1,0.1-0.1,0.1-0.3
		c0.1-1.9,0.5-4,0.5-5.9c0-2.5-0.1-5.3,0-7.9c0-2.4-3.1-5.9-5.5-6.1c-0.8,0-1.7,0.1-2.7,0c-0.8-0.1-1.7-0.5-2.5-0.8
		c-3.9-1.3-7.5-2.9-11.3-3.7c-2.7-0.5-5.1-1.3-7.5-2.1v0.1l0,0c0.1,0.1,0.1,0.1,0.1,0.3c0.9,0.4,1.7,0.8,2.7,1.1
		c0.5,0.3,1.1,0.5,1.6,0.5c2.4-0.1,4.7,0.9,6.9,1.7c2.9,1.1,5.9,2.1,8.8,3.1c0.7,0.3,1.3,0.1,1.9,0.1c3.9,0.5,6.7,1.9,6.5,6.3v3.2
		c0.1,0,0.1,0,0.3,0c-0.7,5.9-1.3,11.9-1.7,17.7c-0.3,3.3-0.5,6.7-1.1,10.1c-0.9,4.9-2.5,9.7-5.1,14.1c-1.6,2.7-3.3,5.7-5.7,8
		c-4.8,4.7-9.7,9.2-16.4,11.6c-4.3,1.6-8.5,1.1-12.5-0.8c-2.4-1.3-4.5-3.2-6.5-4.8c-4.3-3.3-7.2-7.7-9.3-12.7
		c-1.5-3.3-2.7-6.9-3.5-10.5c-0.8-3.1-1.1-6.1-0.8-9.2C86,67.9,86,64.3,86,60.9c-0.1-3.9,1.5-7.2,2.5-10.8c0.5-1.5,0.9-3.1,1.1-4.5
		c0.5-3.3,2.3-6.1,4.7-8.4c2.4-2.4,4.7-4.7,7.1-6.7c1.6-1.5,3.3-2.1,5.6-1.5c2.4,0.7,5.1,1.6,7.5,1.5c0.5,0,1.1,0,1.6,0
		c-0.8-1.9-1.5-3.6-2.4-5.3c-1.2-2.4-2.5-4.8-3.2-7.5c-0.5-2.5-0.5-5.7,0.3-8.7c-0.1,0.1-0.3,0.4-0.3,0.5c-0.8,1.1-0.7,2.9-0.8,4.5
		c-0.5,4.5,1.5,8.4,3.9,12c0.8,1.1,1.1,2.5,1.7,3.9c-0.1,0.1-0.1,0.3-0.3,0.5c-1.3-0.3-2.5-0.7-3.9-0.9c-1.5-0.5-2.9-0.8-4.3-1.1
		c-3.3-0.5-5.7,0.9-8,3.2c-2.9,2.7-5.6,5.6-8.1,8.7c-1.1,1.3-1.7,3.1-2.3,4.8c-0.8,2.9-1.5,5.6-2.3,8.5c-0.3,1.6-0.9,3.2-1.1,4.9
		c-0.1,3.3-0.1,6.5-0.3,10c-0.1,0.8-0.1,1.5-0.3,2.1H84c-0.1-1.9-0.5-4-0.7-6.1c-0.1-4.9-0.3-10.1-0.3-15.1c0-3.1,0.7-6.3,0.8-9.3
		c0.1-3.2,2.7-4.3,4.7-5.9c0.9-0.9,2.3-1.5,3.5-2.1c-0.3-0.3-1.1-0.7-1.7-0.1c-3.5,2.3-6.7,4.9-7.7,9.3c-0.1,0.3-0.1,0.5-0.1,0.7
		c-0.1,4.8-0.5,9.7-0.5,14.5c0,3.7,0.8,7.2,1.1,10.9c0.1,1.6,0.1,3.3,0.3,5.1c0.5,3.2,0.8,6.5,1.3,9.7c0.3,2.7,0.8,5.5,1.5,8
		c0.7,2.5,1.7,4.9,2.3,7.3c0.7,2.9,1.1,5.9,1.3,8.9c0,2.1,0,4.3-0.9,6.4c-1.1,2.7-3.3,3.9-5.9,4.5c-0.8,0.3-1.7,0.1-2.7,0.3
		c-0.7,0.1-1.1,0.5-1.7,0.7c-0.3,0.1-0.7,0.1-0.9,0.1c-3.5-0.8-6.9-1.6-10.3-2.7c-1.6-0.7-3.2-1.5-4.3-2.5c-3.3-3.2-6.7-6.5-10.1-10
		c0,0,0-0.1,0-0.5h3.5c0.9,0,1.7-0.1,2.5-0.3c1.9-0.5,3.5,0.1,4.9,1.3c1.9,1.5,4,1.6,6.1,1.5c0.3,0,0.5-0.3,0.7-0.8
		c3.9-2.5,5.3-6.4,5.5-10.9c0.1-4.8,0.8-9.7,1.1-14.8c0.1-1.5,0-2.9,0-4.7c-0.5,0.1-0.7,0.3-0.7,0.3c-0.1,3.1-0.5,6.1-0.7,9.2
		c-0.3,4.3-0.5,8.8-0.9,13.3c-0.3,3.2-2.3,5.5-4.9,6.9c-0.9,0.7-2.5,0.1-3.9-0.1c-1.3-0.3-2.3-1.1-3.7-1.9c0.8-0.3,1.5-0.5,2.1-0.7
		c2.9-0.5,3.9-2.7,4.5-4.9c0.7-2.3,0.7-4.7,0.9-6.9c0.1-1.7,0.1-3.3,0.3-4.9c0.1-0.5,0.3-0.9,0.5-1.5c0.7-2.1,1.3-4.1,1.9-6.3
		c0.3-1.3,0.3-2.5,0.7-3.7c0.7-2.7,1.5-5.5,2.1-8.4c0.7-3.3,1.1-6.7,1.7-10.1c0.7-2.9,1.1-5.6,1.9-8.4c1.3-4.5,2.7-8.8,4.1-13.3
		c0.7-1.7,1.6-3.5,2.1-5.3c0.7-1.9,0.7-4,1.5-5.7c1.9-4.3,3.9-8.8,7.1-12.5c0.1-0.1,0.1-0.1,0.1-0.1c2.3-1.3,3.2-4,5.6-5.3
		c0.7-0.3,1.3-0.7,1.9-1.1c0.5-0.5,1.6,0,1.9-1.3c0-0.3,1.5-0.3,2.3-0.3c1.7,0,3.3,0,4.9,0.1c0.5,0.1,0.9,0.7,1.1,0.9
		c0.5,1.2,0.7,2.5,0.4,3.9c0.4-0.7,0.7-1.3,1.2-1.9c0.1-0.1,0.1-0.3,0.3-0.3c0-0.3,0.1-0.4,0.1-0.7c0-0.1-0.3-0.7-0.5-1.1
		c4.1-0.5,8.5-0.3,12.8-0.1c3.2,0.1,5.6,2.1,8.1,3.3c2.1,0.9,4.1,2.3,6.1,3.3c3.1,1.7,6.1,3.5,7.7,6.9c0.1,0.3,0.5,0.8,0.8,1.1
		c2.3,2.5,4.1,5.5,6.5,7.7c3.5,3.2,4.3,7.5,6.1,11.6c1.3,3.1,1.7,6.4,2.9,9.5c0.8,1.7,1.9,3.5,2.5,5.5c0.9,3.2,1.9,6.4,2.5,9.6
		c0.9,4.7,1.5,9.3,2.5,13.7c1.3,5.5,2.9,11.1,4.7,16.5c1.6,4.8,3.2,9.6,5.1,14.3c0.7,1.6,1.9,3.1,3.1,4.7
		C183.5,109.6,182,109.5,180.8,108.9z"/>
	<path class="st0" d="M111.2,90.1c1.5-0.1,2.7-0.3,4.1-0.3c0.7,0,1.5,0.7,1.9,1.1c0.7,0.7,1.1,0.9,2.3,0.7c0.8-0.1,1.9,0,2.5,0.5
		c1.5,0.8,2.7,1.7,4,2.7c0.8,0.7,0.8,1.3,0,1.7c-3.5,2.4-7.1,3.5-11.3,2.3c-4.5-1.3-7.1-4.8-10.8-7.1c-0.1-0.1-0.5-0.8-0.3-0.8
		c0.5-0.3,0.9-0.7,1.5-0.8c1.6-0.1,3.2-0.1,4.8-0.3C110.3,89.9,110.7,89.9,111.2,90.1C111.2,89.9,111.2,90.1,111.2,90.1z
		 M104.2,91.3c1.5,0.9,2.5,1.6,3.5,2.5c2.1,2.3,4.8,3.5,7.7,4.5c3.9,1.3,6.9,0.3,10.1-1.9c-0.9-0.3-1.7-0.5-2.5-0.7
		c-4-1.1-8.1-2.1-12.1-3.2C108.7,91.7,106.7,90.7,104.2,91.3z M109.1,90.4c0,0.3-0.1,0.5-0.1,0.8c5.5,1.5,10.9,2.9,16.4,4.3
		c0-0.1,0.1-0.3,0.1-0.5c-1.1-0.8-2.3-1.7-3.5-2.4c-0.8-0.3-1.7-0.3-2.5-0.5s-1.6-0.5-2.4-0.8c-0.5-0.1-0.9-0.9-1.5-0.9
		C113.5,90.4,111.2,90.4,109.1,90.4z"/>
	<path class="st0" d="M124.6,57.2c-0.7,2.4-2.4,3.5-5.1,3.3c-2.3,0-3.9-1.6-5.7-2.4c-1.6-0.7-3.3-1.3-4.9-1.6
		c-1.6-0.3-3.2-0.5-4.7-0.5c-0.9,0-2.1,0.1-3.1,0.3c-0.7,0-1.1,0.1-1.7,0c1.3-2.1,3.3-2.1,5.3-1.7c3.1,0.3,6.1,0.9,8.9,1.5
		c0.9,0.1,1.7,0.7,2.5,1.1c1.3,0.8,2.5,1.9,3.9,2.4c0.7,0.3,1.7,0,2.4-0.3C123.1,58.7,123.8,57.9,124.6,57.2z"/>
	<path class="st0" d="M114.7,77.2c-2.7,2.5-2.7,3.2-0.8,4.9c1.6-1.5,2.7-0.9,3.9,1.5c0.8,1.7,2.4,2.5,4,2.1c1.9-0.5,2.9-1.7,2.7-4
		c-0.1-1.9-0.9-3.7-0.8-5.6c0.1-3.1,0.8-6.1,1.3-9.3c0.1-0.7,0.1-1.1,0.7-1.7c-0.3,2.3-0.3,4.5-0.9,6.7c-0.9,3.2-0.1,6.3,0.5,9.3
		c0.1,0.9,0.3,1.9,0.5,2.9c0,0.1-0.1,0.7-0.3,0.8c-1.9,1.1-3.9,1.9-6.1,1.5c-0.7-0.1-1.6-0.9-1.7-1.6c-0.3-1.1-0.8-1.5-1.7-1.3
		c-1.3,0.1-2.1-0.3-2.9-1.3C111.4,80.4,112,78.3,114.7,77.2z"/>
	<path class="st0" d="M144.5,64.3c-5.1-1.6-10.1-1.7-15.3-0.1c-0.5-0.8-1.1-1.7-1.7-2.9l0.1-0.1c0.3,0.3,0.7,0.5,0.8,0.8
		c0.5,1.3,1.3,0.8,2.3,0.5c0.9-0.5,1.9-0.8,3.1-0.9c1.3-0.1,2.7,0.1,4-0.1c2.3-0.3,4.1,0.7,6.3,1.3c0.3,0.1,0.5,0.8,0.8,1.3
		C144.8,64.1,144.7,64.1,144.5,64.3z"/>
	<path class="st0" d="M129.5,66.1c0.8-0.5,1.3,0,1.9,0.7c1.1,0.9,2.7,1.6,4.3,2.1c2.1,0.8,4,0.3,5.9-0.9c0.1-0.1,0.3-0.1,0.5-0.1
		c0.1,0,0.1,0,0.3,0c0,1.5-5.5,4.1-6.3,3.1c-0.7-0.9-0.9,0.5-1.6-0.1c-0.5-0.5-1.5-0.7-1.9-0.9c-0.7-0.5-1.1-0.9-1.6-1.6
		C130.3,67.5,129.8,66.8,129.5,66.1z"/>
	<path class="st0" d="M115.9,63.2c-0.9,0.3-1.7,0.7-2.7,0.8c-2.1,0.8-4.3,0.9-6.4,0c-1.5-0.7-3.2-1.1-3.7-2.9
		c-0.1-0.3,0.1-0.7,0.1-0.9c0.3,0.1,0.7,0.1,0.9,0.3c1.5,1.7,3.5,1.9,5.5,2.3c1.5,0.1,3.1-0.3,4.7-0.5c0.7,0,1.1,0.1,1.7,0.3
		C116,62.8,116,62.9,115.9,63.2z"/>
	<path class="st0" d="M184.9,109.2c0-0.1,0-0.3-0.1-0.4l0,0l0,0c-0.3-0.5-0.7-1.1-1.2-1.5c-0.1-0.1-0.1-0.1-0.3-0.1v-0.1
		c-0.3-0.4-0.4-0.8-0.7-1.2c0-0.1,0-0.3-0.1-0.3c-0.4-0.9-0.9-1.7-1.5-2.5l-0.1-0.1c0-0.1,0-0.3,0-0.3c0-0.1-0.1-0.3-0.1-0.4
		c0.3-0.4,0.3-0.9,0.1-1.5c-1.9-5.1-3.7-10-5.6-15.1c-0.1-0.3-0.3-0.4-0.4-0.7c-1.6-8.7-2.4-17.5-5.6-25.7c-0.1-1.9-1.1-3.9-1.5-5.6
		c-0.4-1.9-0.7-3.9-2-5.2c-0.1-0.1-0.1-0.1-0.3-0.1c-0.3-0.7-0.5-1.5-0.9-2.1c-0.1-0.3-0.3-0.4-0.4-0.5c-0.9-3.3-1.9-6.5-3.1-9.9
		c-0.9-2.4-1.7-4.9-3.3-7.1c-0.8-1.7-1.5-3.5-2.3-5.2c-0.4-0.9-1.3-1.2-2.3-0.9c-1.1-1.5-2-2.8-3.1-4.1c-0.4-0.5-0.9-0.8-1.5-0.9
		l0,0c0-0.3-0.1-0.7-0.3-0.9c-2-2.8-4.7-6.5-8.1-7.5c-0.1,0-0.3,0-0.4,0c-3.7-3.7-8.3-6.7-13.7-7.5c-0.4,0-0.8,0-1.2,0.1
		c-0.5-0.4-1.1-0.8-1.6-1.1c-2-0.8-3.7-0.1-5.6,0.5c-0.3,0.1-0.5,0.3-0.8,0.4c-0.4,0-0.7-0.1-1.1-0.1c-0.7,0-1.2,0.3-1.6,0.8
		c-0.5-0.1-1.2-0.1-1.7-0.3c-0.4-0.1-0.8,0.1-1.1,0.4c-0.1-0.1-0.1-0.1-0.3-0.3c-0.4-0.4-0.8-0.5-1.1-0.7l0,0
		c-4.5-1.7-13.2,0-14.7,5.5c-0.1,0.1-0.4,0.4-0.5,0.5c0,0-0.1,0-0.1,0.1c-1.7,1.6-3.3,3.3-4.5,5.2c-0.4,0-0.8,0.1-0.9,0.5
		c-0.4,0.9-0.8,1.9-1.3,2.7c-0.1,0.4-0.1,0.7,0,1.1c-0.5,0.8-0.9,1.6-1.3,2.4c-0.1,0.3-0.3,0.5-0.4,0.9c-0.4,0.3-0.7,0.5-0.9,1.1
		c-0.5,1.6-0.8,3.2-0.8,4.8c-1.1,3.1-2.1,6.1-3.1,9.2c-0.4,1.1-0.8,2.3-1.2,3.3c-0.1,0.1-0.3,0.3-0.3,0.4c-2.1,4.5-3.6,9.2-4.3,14.1
		c-0.1,0.5,0.1,0.9,0.4,1.1c-0.1,0.8-0.3,1.6-0.3,2.4c-0.3,1.1-0.4,2.1-0.4,3.2c0,0.1,0,0.1,0,0.3c-0.1,0.4-0.1,0.8-0.3,1.2
		c-0.1,0.4-0.3,0.9-0.4,1.3c-0.3,0.7-0.4,1.2-0.7,1.9c-0.9,2.7-2,5.3-1.9,8.3v0.1c-0.8,1.7-1.1,3.6-1.2,5.5
		c-0.1,0.1-0.1,0.1-0.1,0.3c-1.3,2.4-2.1,4.9-2.4,7.7c-0.1,0.5,0.3,0.9,0.8,1.1c-0.5,4.4-0.9,8.8-3.3,12.5c-0.7,0-1.2,0.4-1.5,0.9
		c-0.9,0.3-1.9,0.4-2.8,0.4c-0.7,0-1.1,0.5-1.1,1.1c-2.4-0.4-4.8,0.4-7.2-0.1c-1.2-0.3-2.1,1.5-0.8,2c0.3,0.1,0.7,0.3,0.9,0.4
		c0.3,0.4,0.7,0.9,0.9,1.3c0.1,0.1,0.1,0.3,0.3,0.4l0,0l0,0c0,0.1,0.1,0.1,0.1,0.3s0.1,0.1,0.3,0.1c1.1,1.3,2.3,2.5,3.6,3.5
		c0,0.1,0.1,0.1,0.1,0.3c0,0.1,0.1,0.4,0.4,0.5c0.8,0.7,1.6,1.3,2.4,1.9c0,0.3,0.3,0.5,0.5,0.7c0.8,0.4,1.6,0.8,2.4,1.2
		c0.5,0.3,1.2,0.5,1.7,0.9c0.4,0.3,0.9,0.4,1.3,0.7c0.7,0.5,1.5,0.9,2.3,1.3c0.1,0.1,0.3,0.1,0.4,0.1h0.1c0.3,0.1,0.7,0.3,1.1,0.3
		c0.1,0,0.3,0,0.4,0c0.7,0.1,1.2,0.4,1.9,0.5c0.1,0.1,0.3,0.3,0.5,0.3c0.5,0.1,1.1,0.4,1.6,0.5c0.5,0.1,0.9-0.1,1.2-0.4
		c0.3,0,0.5,0,0.8,0c0.1,0,0.3,0,0.4,0c0.4,0,0.8,0,1.2,0c0.1,0,0.1,0,0.3,0s0.3,0,0.3,0c1.1-0.1,2-0.4,2.7-1.1
		c4.1-1.3,7.1-5.3,7.1-9.7c0-0.1,0-0.4-0.1-0.5c0.3-1.7,0.1-3.3,0.1-5.2c0-0.5-0.4-0.8-0.7-1.1c0-0.9-0.1-1.7-0.3-2.7
		c0-0.3-0.1-0.5-0.4-0.7c-0.7-3.9-1.5-7.7-2.7-11.5c0-0.1-0.1-0.4-0.3-0.4c-0.1-1.9-0.3-3.6-0.4-5.5c0-0.5-0.3-0.8-0.7-0.9
		c-0.1-1.3-0.1-2.7-0.3-4.1c0.5-0.1,0.9-0.4,0.9-1.1c0-5.5,0.3-10.9,0.9-16.4c0-0.5-0.3-0.8-0.5-0.9c0.1-0.4,0.1-0.9,0.3-1.3
		c0.5-2.1,1.1-4.1,1.7-6.1c0.8-2,1.5-4.1,2-6.3c0.1-0.4,0-0.7-0.1-0.8c1.5-1.7,2.9-3.6,4.1-5.6c0,0,0,0,0-0.1
		c0.9-0.9,1.9-1.7,2.9-2.7c0.3-0.1,0.5-0.4,0.8-0.5c0.1-0.1,0.3-0.3,0.3-0.3c2-1.6,4-3.2,6.1-4.7c0.1-0.1,0.3-0.3,0.4-0.4
		c0,0,0,0,0.1,0c0.5,0,1.1-0.1,1.5-0.1l0,0c0.7,0,1.2,0.3,1.7,0.5c0.1,0.1,0.3,0.1,0.4,0.3c0.7,0.4,1.3,0,1.5-0.5
		c0.4,0.1,0.8,0.3,1.3,0.4c0.4,0.3,0.9,0.4,1.3,0.7c0.5,0.3,1.1,0.3,1.5,0.1c0.1,0,0.3,0.1,0.3,0.1c0.1,0.1,0.1,0.3,0.4,0.3
		c0.1,0.1,0.3,0.1,0.4,0.1h0.4c0.5,0,0.8-0.5,0.5-0.9c0-0.1-0.1-0.1-0.1-0.3c0-0.1,0-0.4-0.1-0.5c-0.1-0.1-0.4-0.4-0.5-0.5
		c0-0.4-0.1-0.9-0.4-1.3c0-0.1-0.1-0.1-0.1-0.3c-0.1-0.4-0.3-0.8-0.4-1.3c-0.1-0.7-0.7-1.1-1.2-1.2c-0.1-0.1-0.1-0.3-0.3-0.5
		c0,0,0-0.1,0.1-0.1c0.1-0.3,0.3-0.5,0.3-0.7c-0.5-0.9-0.9-2-1.3-2.9c-0.1-0.1-0.3-0.1-0.4-0.1c-0.1,0-0.1,0-0.3-0.1
		c-0.1-0.5-0.3-1.2-0.4-1.7c0-0.5,0-1.1,0-1.7c-0.5-3.9,0.4-8.7,2.5-11.7c0-0.1,0-0.4,0-0.5c0.1,0,0.3,0,0.4,0.1
		c0.8-0.7,2.4,0.3,1.6,1.2c-0.3,0.4-0.7,0.9-0.9,1.3c-0.8,2.5-1.6,4.9-1.6,7.5c-0.1,3.6,1.6,6.7,3.2,9.9c1.5,2.8,2.5,6.5,5.6,8
		c1.5,0.7,3.1,0.7,4.5,1.1c0.7,0.1,1.2,0.3,1.9,0.4c0.3,1.2,1.7,1.6,3.1,1.7c2,0.1,3.5,1.1,5.3,1.7c1.6,0.5,3.3,0.8,5.1,1.2
		c3.9,0.8,7.2,2.3,7.7,6.7c0.1,1.1,0.3,2.1,0.3,3.2c-0.3,2.7-0.4,5.3-0.7,7.9c-0.3,0.8-0.4,1.7-0.5,2.4c-0.3,2-0.3,4,0.1,6
		c0,0.1,0.1,0.3,0.1,0.4s0,0.4-0.1,0.5c-0.4,0.1-0.8,0.4-0.9,0.9c-0.8,4.4-1.3,8.8-2,13.2c-0.3,0.1-0.4,0.4-0.4,0.8
		c-0.3,1.2-0.5,2.4-0.8,3.6c-0.1,0.1-0.1,0.3-0.1,0.4c0,0.3-0.1,0.7-0.1,0.9l-0.1,0.1c-0.1,0.1-0.1,0.1-0.3,0.3
		c-0.1,0.1-0.3,0.4-0.4,0.5c-0.1,0.1-0.3,0.3-0.4,0.4c-0.1,0.3-0.4,0.7-0.5,0.9c-0.1,0.1-0.3,0.3-0.3,0.4c-0.7,1.2-1.3,2.5-2,3.7
		c-0.1,0.1-0.1,0.4-0.1,0.5c-0.4,0.7-0.8,1.3-1.2,2c0,0.1-0.1,0.1-0.1,0.3c-0.5,0.7-0.9,1.5-1.3,2.1c-0.1,0.1-0.3,0.3-0.4,0.4
		c-0.1,0.1-0.3,0.4-0.3,0.5c-0.1,0.1-0.3,0.3-0.4,0.4c-0.3,0.4-0.7,0.9-0.9,1.3c-0.4,0.4-0.8,0.9-1.2,1.5c-0.1,0.1-0.1,0.1-0.3,0.3
		c-0.8,1.1-1.5,2.1-2,3.3c-0.8,0.9-1.2,2.1-1.5,3.5c-0.1,0.8,0.7,1.3,1.3,1.3l0,0c0.3,0.3,0.5,0.4,0.9,0.4c2.9,0,6,0.1,8.9,0.1
		c0.9,2.4,2.5,4.7,5.1,5.5c2.4,0.8,5.1,1.3,7.6,1.9c0.1,0.1,0.3,0.4,0.5,0.5c1.3,0.9,2.9,0.8,4.3,1.1l0.1,0.1
		c0.5,0.4,0.9,0.5,1.5,0.7c0,0.1,0.1,0.1,0.3,0.3c0.9,0.8,1.7,1.1,2.9,0.9c0.1,0,0.3,0,0.3-0.1c1.6,0.4,3.1,0.7,4.5,1.3
		c0,0,0,0,0.1,0.1c0.4,0.4,0.8,0.7,1.2,0.8c1.3,0.9,2.7,1.9,4,2.8c1.2,0.9,2.4-0.8,1.9-1.9c-0.7-1.3-1.3-2.5-1.9-3.9
		c0-0.1,0-0.1,0-0.3c0-0.1,0-0.3,0-0.4c0.1-0.4,0-0.9-0.3-1.3c0-0.1,0-0.3-0.1-0.4c-0.1-0.4-0.3-0.9-0.4-1.3
		c-0.3-0.7-0.5-1.2-0.9-1.9c-0.8-1.3-1.9-2.7-2.9-3.9c-0.3-0.3-0.5-0.4-0.8-0.4c-0.7-0.7-1.5-1.3-2.3-2c-0.5-0.4-1.1-0.9-1.7-1.3
		c-1.2-2.8-2.5-5.7-3.7-8.8c-0.4-1.7-0.8-3.5-1.2-5.3c0.1-2.4,0.5-4.8,0.8-7.2c0-0.7,0.1-1.5,0.1-2.1v-0.1c0-0.7,0.1-1.3,0.1-2l0,0
		c0.1-2.9,0.3-5.7,0.3-8.7c0-0.1,0-0.3,0-0.3v-0.1c0-0.7,0-1.2,0-1.9c0-0.3-0.1-0.5-0.3-0.7c-0.3-2.8-0.4-5.6-0.7-8.4
		c-0.4-1.7-0.9-3.3-1.5-4.9c-0.1-0.3-0.1-0.4-0.3-0.7c-0.3-1.3,1.6-1.9,2-0.5c0.1,0.3,0.3,0.5,0.4,0.8c0.3,0.3,0.3,0.7,0.3,0.9l0,0
		c0.4,1.3,0.9,2.7,1.2,4c0.1,0.1,0.3,0.1,0.4,0.3c1.2,4.4,1.1,9.6,0.8,14c0,1.2-0.1,2.5-0.3,3.7c0,0.7-0.1,1.3-0.1,2
		c-0.3,3.7-0.7,7.6-0.3,11.3c0.3,1.5,0.5,3.1,0.9,4.5c1.2,3.7,3.2,7.1,5.2,10.3c0.7,0.7,1.6,1.2,2.5,1.6c0.9,0.4,1.9,0.5,2.9,0.5
		c1.3,0,2.8-0.5,4.1-0.1c0.5,0.1,1.1,0,1.6-0.3c0,0.1,0.1,0.4,0.4,0.4c0.9,0.3,1.9,0.4,2.8,0.4c0.3,0.1,0.4,0.4,0.7,0.5
		c0.4,0.3,0.8,0,0.9-0.3C184.9,109.9,185.1,109.6,184.9,109.2z M150,28.4c0.1,0,0.1,0,0.3,0l0.1,0.1c0,0.1,0,0.4,0.1,0.5
		C150.3,28.9,150.1,28.7,150,28.4z"/>
</g>
</svg>
