<?xml version="1.0" encoding="utf-8"?>
<!-- Generator: Adobe Illustrator 21.1.0, SVG Export Plug-In . SVG Version: 6.00 Build 0)  -->
<svg version="1.1" id="Layer_1" xmlns="http://www.w3.org/2000/svg" xmlns:xlink="http://www.w3.org/1999/xlink" x="0px" y="0px"
	 width="250px" height="241.7px" viewBox="0 0 250 241.7" style="enable-background:new 0 0 250 241.7;" xml:space="preserve">
<style type="text/css">
	.st0{fill:#BBBBBB;}
</style>
<g id="drymouth-lady">
	<g>
		<path class="st0" d="M248.5,221c-0.7-6.3-4.3-9.8-9.8-11.5c-0.7-0.2-1.3-0.5-2-0.7c6.3,2.8,10,8.2,11,16.4c0.5,3,1.5,5.7,2.3,8.3
			C250,229.7,249,225.4,248.5,221z"/>
		<path class="st0" d="M201.9,198c-10.5-4.3-19-11.7-23.2-22.2c-5.7-14.7-6.8-30.2-6-45.9c0.2-4,0.7-7.5,5.5-9
			c2.2-0.7,4-3.2,5.2-5.2c5.5-9,7.5-18.5,5.5-29c-1-4.8-2.5-9.2-7.5-11c-1.3-0.5-2.2-1.3-2.3-2.2v0.2c-0.5,0.7-1.5,0-1-0.7
			c0.2-0.2,0.2-0.5,0.5-0.8c0,0,0,0,0-0.2c0.2-0.2,0.2-0.7,0.5-0.8v-0.8c-0.2-4.8,0.2-10-1.5-14.4c-5.8-15.5-15.7-28.5-26.7-40.9
			c-9.3-10.5-20.5-15.2-34.4-14.4c-2.3,0-4.7-0.7-6.8-0.7c-11,0.5-22.4-0.7-31.9,6.7C63.9,16.9,52.7,29,50,46.7
			c0,0.5-0.2,1.2-0.2,1.7c-0.7,3.7-1,7.3-0.7,11.2c0,4.5,0.2,9.2,0.8,13.7c0.8,8.2,3.3,16.5,5.8,24.4c2.7,8.8,6.8,17.2,9.8,25.7
			c3.3,9.8,5.7,20,12.7,28.2c0.7,0.7,0.8,1.8,0.8,2.7c0,9.2,0,18.5-0.5,27.7c-0.2,4.3-2.5,7.5-6.7,8.8c-7.7,2.3-15.2,5.2-23.2,6.5
			c-13.5,2.2-25.7,7.7-37.2,14.4c-9.3,5.5-13.9,18.2-10.5,28.4c0.2,0.7,0.7,1,1,1.7c0.5,0,0.7,0,1-0.2c0-3.3,0.2-6.8,0-10.2
			c-0.7-8,3-13.5,9.2-17.4c6.7-4,13.9-7.2,20.9-10.5c2.2-1,4.3-1.8,6.7-2.5c12.5-2.7,25.5-3.8,36.7-10.5
			c4.8,12.4,9.3,24.2,14.2,36.7c-9.7-1.8-14.7-9-20.7-14.2c4.3,9.3,17.4,19,23.5,15.5c-4-10.2-8-20.5-12.2-30.5
			c-2.3-5.5-2.3-10.7-1.5-16.4c0.7-3.8,0.8-7.7,0.8-11.7c0-13.5,0-27.4,0.2-40.9c0-1.7,1.5-4.7,2.5-4.7c3.2-0.5,2.7,2.5,2.5,4.3
			c-0.2,11.9-0.2,23.5-0.7,35.6c-0.2,5.2-1,10.2-1.5,15.2c-0.5,6.5-1.5,13,1.8,19.2c2.5,4.8,4.2,10,6.3,14.9c1,2.5,2.3,4.8,3.5,7.2
			l1.5-0.7c-1.5-4-3-8-4.7-11.7c-4.2-9.2-7.7-18.2-6.5-28.5c1.5-12.7,1.7-25.7,2.3-38.6c0.2-3.5-0.2-7.3,0-10.9c0-1.3,1.5-2.7,2.2-4
			c0.8,1,2.3,2.3,2.3,3.3c0.7,8,1,16,1.5,24c0.7,12.5-0.2,25.5,3.3,37.6c1.7,5.2,2.5,11,8,14.4c0-1.3-0.7-2.3-0.8-3.3
			c-2.3-7.3-5.8-14.7-6.7-22.2c-1.7-17.7-1.8-35.6-2.7-53.3c0.7,0,1.3-0.2,1.7-0.2c2.2,9.3,4.8,18.9,6.3,28.4
			c2.2,11.9,2.7,24,6.8,35.6c1,3.2,2.5,6.3,3.8,9.2l0.2-0.2c-5-24.7-10-49.2-15-74c0.5-0.2,0.8-0.5,1.5-0.5c0.8,1.8,1.8,3.8,2.7,5.7
			c4.8,13,9.7,26,14.4,39.1c1.8,5,3.5,10.2,6.3,14.9c7.2,13.2,11.4,26.7,9.8,41.7c0,0.7,0.8,1.3,1.3,1.8c2.2-15.5-1-29.7-8.2-43.6
			c23.5-5,34.9-22.5,43.6-42.6c1.7,9,2.2,18,4.7,26.4c2.5,8.5,2.7,17.2,2.7,26h1.7v-11c3.2,2.5,6.8,5.5,10.2,8.3
			c5.2,4.7,11.4,7.5,18,9.2c5.3,1.3,10.4,3.3,15.5,4.5C215.8,203.5,208.8,201,201.9,198z M177.4,78.8c2.2-3,4.7-2.2,6.5,0.7
			c3.2,4.2,4.2,9,3.8,14.2c-0.5,7.5-1.8,14.9-6.3,21.4c-1.5,2.2-3.8,3.8-5.8,5.7c-2.2-4.2-0.5-6.5,2.5-7.7c11-5.2,9-24.4,3.3-31.4
			c-0.5-0.5-0.8-0.7-1.3-0.8c-5,1.7-1.5,8.8-6.8,10.7C172.5,86.1,174.2,82.1,177.4,78.8z M179.4,97.7c0.2-4.7-4-9,0.5-12.7
			c6.5,10.7,4.3,21.4-5.7,25.9c-0.7-6-0.8-11.5-1.3-18C175.4,94.7,177,96,179.4,97.7z M104.4,127.2c-2.2-2.3-1.5-4.3,1.3-6.3
			c6.8-4.3,13.2-2.5,19.2,2.2c2.2,1.7,4.2,3.3,5.8,5.2c0.8,0.8,1,2.5,1.7,3.8c-0.5,0.2-0.7,0.5-1,0.7c-1.3-1-2.7-2.2-4-3.3
			c-3.8-3.5-8-6.5-13.2-7.3C108.8,121.4,107.4,122,104.4,127.2z M110.1,144.4c-0.8-3.3,2.2-7.3,5.7-7.7c0.8-0.2,1.7,0,2.5,0v-0.2
			c1.7,0.2,3.3,0.5,4.8,0.8c1.3,0.5,3.2,1,3.3,1.7c0.2,1.3-0.5,3.2-1.5,4c-2.3,1.8-4.8,3.8-7.5,4.8
			C113.6,148.9,110.8,147.6,110.1,144.4z M113.3,149.7c12.2,1.7,14-10.5,21.5-16.5c0.7,6.8-1.8,11.9-5.7,15.9
			c-2.2,2.3-5.2,3.8-8,5.2C115.4,156.9,114.3,156.3,113.3,149.7z M171,129.9c0,7.7-3,14.2-6.5,20.9c-5.5,10.9-11.9,20.9-22.7,26.9
			c-4.3,2.3-9.2,4-13.9,5.5c-0.8,0.2-3.2-0.8-3.5-1.8c-2.7-6.3-5.2-12.5-7.7-19c-1.5-3.8,1.5-5,4.2-5.8c9.2-2.7,13.9-9.3,15.5-18.4
			c0.5-2.3,0-5.7-1.3-7.5c-4.8-6.5-10.2-13.2-18.9-14.7c-5.7-1-10.5,0.8-13.9,5.7c-0.5,0.5-0.5,1-0.8,1.5c-0.7,0.7-3.3,0.8-6.3,0.8
			c-0.2,0.2-0.2,0.7-0.5,0.8c0,0.2-0.2,0.5-0.7,0.5c0,0.7-1.3,0.8-1.5,0s-0.7-1.3-1-1.5c-0.7,0-1.5,0-2.2-0.2h-1c0,0,0,0-0.2,0v0.2
			c-0.2,0.8-1.3,0.7-1.5,0c-0.2-0.2-0.2-0.7-0.5-0.8c-1.7-0.7-4.2-1.5-5.2-0.7c-1.5,0.8-2.7,3.3-3,5.2c-0.2,4.8,0.2,9.8,0.2,14.7
			c0,1.3-0.2,2.7-0.2,4c-0.7,0.2-1.3,0.2-2.2,0.5c-2.5-5.8-5-11.5-7.2-17.4c-2.2-5.7-4-11.4-5.2-17.2c-1.5-6.3-2.2-12.5-3-18.9
			c-0.8-7.3-1.3-14.7-2.2-21.9c-1.5-11.9,3.5-20.9,12.2-28.2c12.7-11.2,27.4-16,43.1-15.9c0.3-1.7,1-3.3,1.7-4.7
			c0.3-0.8,0.8-1.8,1.2-2.7c0.3-1.3,0.7-2.8,1.2-4.2c1-3.8,2-7.5,3-11.4c0.2-0.7,0-1.2-0.2-1.7c2.2,0.2,4.2,0.3,6.3,0.7
			c0.3,0,0.5,0,0.8,0.2c-1.8,0.7-2.3,2.5-3,4.8c-0.2,0.3-0.2,0.7,0,1c-0.3,1-0.5,2-0.8,3c-1,3.5-1.8,6.8-3,10.2
			c-0.2,0.5-0.5,1-1,1.3c-0.3,1.2-0.7,2.3-1,3.5c1.8,0.2,3.5,0.3,5.3,0.5c5.2,0.7,10.5,5.2,14.4,9.2c4.5,4.7,8.7,9.7,12.5,15
			c0.7,2,1.8,3.8,3.3,5.5c0.7,0.8,1.3,1.7,2,2.5c4,6.8,7.8,13.7,11.9,20.4c2,5.3,1.7,11.2,1.8,16.7C171.5,108.5,171,119.4,171,129.9
			z"/>
		<path class="st0" d="M223,205.7L223,205.7c4.5,1.3,9.2,2,13.7,3.2c-2.5-1.2-5.5-2-9-2.3C226,206.3,224.5,206,223,205.7z"/>
	</g>
	<path class="st0" d="M113.8,106c0.5-0.2,0.8-0.5,1.3-0.7c0.8-0.2,1.3-1.3,1.7-2.5c0,0,0,0,0-0.2c0-0.5-0.2-0.8-0.2-1.3l0,0
		c0-0.2,0-0.5-0.2-0.5l0,0l-1.8-0.8c-0.8,0.5-1.8,0.8-2.7,1.5c0,0.2-0.2,0.5-0.2,0.7s0,0.7,0.2,0.8c0,0.5,0,0.7,0,1
		c-0.2,1.5-1.3,3-2.5,3.3c-0.2,0.5-0.5,0.7-0.8,0.8c-1.7,1.3-3.3,0.5-4.2-1.8c0-0.2-0.5-0.5-0.7-0.7c-1.7,0.2-2.7,1-4.2,1.8
		c0,0.2-0.2,0.5-0.2,0.7c0,0.2,0,0.5,0,0.7c0.5,2.3,0.2,4.3-2.3,4.2c-1.5-0.2-3.8-2.2-4-3.5c-0.5-2.5,0.5-5.2,1-7.7
		c1.5-5.7,2.7-11,1-16.9c-1.3-4.3-2.7-8.5-7.5-10.9c-8.5-4-18.4-0.5-23.5,6.5c-0.7,1-0.8,2.3-1.5,3.5c0.5,0.2,0.7,0.2,1,0.5
		c4.2-4.8,9.7-6.7,15.7-7.5c10.2-1.5,15.7,3.5,15.2,13.9c0,1.5-0.5,2.7-0.7,4.2c-0.8,4-1.8,8.2-2.7,12.2c-0.7,3-0.2,5.7,3.2,7.2
		c3.2,1.3,5.5,0,7.3-2.3c0.7-0.7,1.5-1.8,2.2-1.8c4.2,1,6.8-1.8,10-3.8C113.6,106.2,113.8,106,113.8,106z"/>
	<path class="st0" d="M144.3,70.1c-7.5,7.2-16.5,7.7-25.7,7.3c-2.3-0.2-3-1.7-1.8-3.3c3-5,6-9.8,11.9-11.9
		C133.3,60.6,141.7,64.6,144.3,70.1z M131.3,65.8c-6-0.5-11.5,4.2-11.7,10c4.3-0.5,8.5-0.8,13-1C132,71.1,131.6,68.6,131.3,65.8z"/>
	<path class="st0" d="M66.9,92.1C66,86.5,70,83.6,74,81.3c5.5-3.3,11.5-2.3,16.9,0.5c3,1.5,2.3,5.2-1.3,6.3c-6.7,2.2-12.7,5-17.7,10
		c-2.2,2.2-4,1.3-4.7-1.8C67,94.8,67,93.7,66.9,92.1z M70.2,96.2c4-2.7,7.3-5.2,10.7-8c0.7-0.7,0.7-2.5,0.2-3.5
		c-0.5-0.8-1.7-1.8-2.7-1.8C72.9,83.5,68.5,89.6,70.2,96.2z"/>
	<path class="st0" d="M108.8,66.9c5.5-10.9,14.7-11.7,23.5-12.7c6.3-0.7,6.7-0.2,8.5,4c-5.7,0.7-11,1-16.5,1.8
		C119.1,61.1,115.4,66.4,108.8,66.9z"/>
</g>
</svg>
