<?xml version="1.0" encoding="utf-8"?>
<!-- Generator: Adobe Illustrator 21.1.0, SVG Export Plug-In . SVG Version: 6.00 Build 0)  -->
<svg version="1.1" id="Layer_1" xmlns="http://www.w3.org/2000/svg" xmlns:xlink="http://www.w3.org/1999/xlink" x="0px" y="0px"
	 width="169.4px" height="250px" viewBox="0 0 169.4 250" style="enable-background:new 0 0 169.4 250;" xml:space="preserve">
<style type="text/css">
	.st0{fill:#BBBBBB;}
</style>
<g id="foodpoison-lady">
	<path class="st0" d="M42.1,249.7c0.5-1.4,0.7-2.7,1.2-4.1c1.4-3.4,2.9-6.7,3.4-10.3c0-0.5,0.1-1,0.5-1.4c1.6-3.3,1.8-6.7,1.2-10.1
		c0-0.5-0.1-0.8,0-1.1c0.6-2.5,1.1-5,1.7-7.3c0.5-1.7,0.6-3.5,1-5.2c0.6-2.8,2.3-5,3.8-7.3c1.7-2.5,2.9-5.3,4.4-8
		c0.1-0.2,0.1-0.7,0-1.1c-0.6-1.9,0.2-3.4,1.9-4.4c0.1-0.1,0.5-0.2,0.7-0.5c-2.1-2.9,0.1-5,1.6-7c1.6-2.1,2.5-4.2,1.9-7
		c-0.5-2.3-0.2-4.6,1.1-6.8c0.5-0.7,0.6-1.2-0.5-1.8c-1.6-0.8-2.8-1.9-4.4-2.8c-2.5-1.4-4.5-3.4-5.9-5.8c-2.1-3.5-4.2-7-3.5-11.4
		c0.6-3.6,1.4-7.5,2.1-11.2c0.6-2.9,1-5.9,1.6-9.2c-0.6,0.1-1,0.2-1.1,0.5c-3.5,2.7-7.2,5.3-10.6,8.1c-2.7,2.3-5.2,4.2-8.5,5.7
		c-2.7,1.1-5.1,2.7-7.6,4.1c-2.8,1.6-5.5,3.3-8.4,4.5c-4.4,1.9-8.7,3.6-13.5,5.2C4.5,154.5,2.3,154,0,154c0-0.5,0-1,0-1.4
		c2.3,0.1,4.4,0.7,6.4-0.2c4.4-1.7,8.7-3.3,13.1-5.1c2.1-0.8,4.2-2.1,6.2-3.3c3.3-1.8,6.3-3.6,9.6-5.5c2.1-1.1,4.2-2.1,6.1-3.8
		c4.2-3.6,8.5-7.6,13.5-10.4c0.8-0.5,1-1,0.8-1.9c-0.6-2.3-0.8-4.5-1.2-6.8c-0.1-0.7-0.6-1.4-1.1-1.8c-1.7-1.7-4-2.9-4.6-5.5
		c-0.1-0.2,0-0.7,0-1c0.2,0.1,0.7,0.1,1,0.5c0.2,0.2,0.2,0.7,0.6,1c0.8,1.4,1.9,2.7,3.6,3.3c0.5-9.5,3.3-17.8,10.1-24.8
		c-2.9,0.6-5.9,1-8.6,2.1c-4.6,2.1-9.5,4.5-13.2,8c-2.8,2.5-5.8,5-7.6,8.5c-1.1,2.1-2.5,4.4-4.2,5.9c-4.1,3.8-8.5,7.2-13.7,9.5
		c-1.2,0.6-2.3,1.4-1.9,3.1c0.2,2.3,0.5,4.6,0.6,6.9c0,0.5,0.2,0.8,0.2,1.2c0,0.5-0.5,0.7-0.6,1c-0.2-0.2-0.7-0.5-0.8-0.8
		c-1.2-3.6-1.1-7.3-0.8-11c0.6-5.8,1.6-11.5,2.3-17.4c0.6-5.1,1.6-9.8,3.1-14.7c1.7-5,3.4-9.8,5.1-14.9c-0.2,0-0.7,0-1.1-0.1
		c-0.2-0.1-0.6-0.5-1-0.7c0.5-0.1,0.7-0.5,1.1-0.5c0.2,0,0.6,0.1,0.8,0.1c0.8-0.1,2.1-0.1,2.7-0.7c1.4-1.2,2.7-2.8,3.8-4.4
		c1.8-2.5,3.5-5.1,5.3-7.6c1-1.4,2.1-2.7,4-3.3c1.4-0.5,2.8-1,4.2-1.6c1.6-0.6,3.1-1.2,4.6-1.4c1.1-0.1,2.1-0.6,2.8-1.4
		c0.7-0.7,1.2-1.6,0.6-2.4c-0.2-0.5-1.6-0.5-2.1-0.1c-3.3,1-6.4,2.1-9.8,2.9c-1.1,0.2-2.3,0.2-3.4,0.6c0.1-0.6,0.5-0.8,0.8-1
		c0.8-0.2,1.1-0.8,0.7-1.6c-0.5-1,0-1.2,0.8-1.8c4.1-2.8,8.9-4.4,13.6-6.1c1.4-0.6,2.8-1,4.1-1.6c0.8-0.5,1.7-1.2,1.1-2.3
		c-0.2-0.5-1.4-0.6-2.1-0.5c-3.1,0.6-6.1,1.4-9.2,2.1c-1.1,0.2-2.4,0.1-3.3,0.7c-2.9,1.9-5.8,4.4-8.6,6.4c-0.7,0.6-1.2,1-1.9,1.6
		c-0.1-0.1-0.2-0.2-0.2-0.5c0.7-0.7,1.2-1.2,1.9-1.9c3.1-3.1,6.4-5.9,10.9-7.2c1.7-0.5,3.5-1,5.2-1.2c2.9-0.6,5.8-1,8.7-1.4
		c0.8-0.1,1.2-0.6,1-1.1c-0.1-0.5-0.8-1.1-1.2-1.1c-1-0.1-1.9,0.1-2.9,0.2c-3.3,0.2-6.4,0.2-9.6,1c-5.2,1.2-10.2,3.5-14.1,7.3
		c-0.5,0.2-0.8,0.6-1.2,0.8c-0.1-0.1-0.1-0.2-0.2-0.5c0.8-0.8,1.7-1.9,2.7-2.7c1.4-1,2.8-1.8,4.4-2.5c2.7-1.6,5.5-2.8,8.6-3.3
		c2.4-0.2,4.6-0.5,6.9-0.8c0.7-0.1,1.6-0.7,1.9-1.2c0.2-0.5,0.1-1.6-0.1-1.8c-0.6-0.2-1.4-0.2-2.1-0.1c-2.3,0.5-4.6,0.8-6.9,1.6
		c-2.7,0.8-5.3,1.7-7.8,2.8c-2.3,1-4.4,2.4-6.3,3.8c-1.2,0.8-2.8,1.7-3.5,2.8c-1.7,2.7-3.3,5.5-4.5,8.4c-1.6,3.8-4.1,7-6.3,10.4
		c-1.6,2.4-3.5,4.5-4.7,6.9c-1.4,2.7-2.3,5.8-3.3,8.7C7.3,83.1,5.8,88.5,4,93.7c-1,2.5-2.5,5-3.8,7.5c0-1,0-1.9,0-2.9
		c1.4-3.1,2.9-6.2,4.1-9.5C6,83.4,7.6,77.9,9.4,72.5c1.1-3.4,2.8-6.4,5.2-9.3c3.4-4,6.3-8.4,8.4-13.1c1.1-2.5,2.5-5,4-7.3
		c1-1.7,2.7-2.5,4.4-3.4c1.7-1,3.5-1.9,5.2-2.9c1-0.6,1.4-1.2,1.2-2.4c-0.6-4.1,0.6-7.9,2.7-11.3c1-1.7,2.1-3.3,3.4-4.6
		c1.8-2.3,3.5-4.5,5.7-6.3c4-3.4,7.9-7,12.7-9c3.5-1.4,7.3-1.8,11.2-2.5c5.1-1,9,1.6,12.7,4.5c2.4,1.9,5,4.1,6.9,6.7
		c3.3,4.1,6.7,8,7.6,13.6c0.1,1.1,1.7,2.1,2.8,2.9c1.6,1.2,3.3,2.4,5,3.5c0.2,0.1,0.6,0.2,0.7,0.6c2.3,3.8,6.4,5.8,8.9,9.5
		c1.9,3.1,4.6,5.8,6.2,8.9c1.4,2.7,2.3,5.9,2.7,9c0.6,4.1,0.6,8.4,1,12.6c0,0.8,0.5,1.7,0.8,2.4c1.6,2.7,2.9,5.5,5,7.9
		c2,2.4,4.5,4.4,7,6.1c2.8,1.8,5.1,4,6.3,7c1.6,3.6,3.1,7.2,4.2,11c1.4,4.7,2.4,9.6,3.6,14.4c1.4,5,3.1,9.7,4.4,14.7
		c1,3.5,1.2,7.2,2.1,10.7c1.4,5.8,3.4,11.4,4.7,17.2c1,4.4,1.8,8.9,2.3,13.5c0.6,5,0.6,9.8,1,14.7c0.2,3.5-1,6.7-2.1,9.7
		c-0.7,1.8-2.5,2.5-4.2,3.1c-2.3,0.7-4.5,1.1-6.8,1.6c-0.6,0.1-1.1,0.2-1.7,0.2c-3.6,0.1-7.3,0.1-11,0.7c-2.9,0.5-5.9,1.6-8.9,2.3
		c-1,0.2-1.9,0.2-3.1,0.5c-0.1,1.1-0.5,2.5-0.5,3.8c0,4.5-0.1,9.2,0,13.7c0,2.1,0.6,4.1,1,6.2c0.1,0.8,0.1,1.8,0.5,2.7
		c1.2,4.5,1.8,9.2,1.8,14c-0.5,0-1,0-1.4,0c-0.5-3.1-0.2-6.2-1.1-9.3c-1.1-4.1-1.8-8.4-2.1-12.4c-0.2-5.8,0-11.5,0.1-17.5
		c0-1,0-1.4-1.1-1.1c-2.4,0.5-5,0.7-7.5,1c-1.7,0.1-3.3,0.5-5,0.6c-0.2,0-0.6,0.5-0.7,0.6c-0.5,1.2-0.7,2.5-1,4
		c-0.7,4.1-1.6,8.1-2.3,12.3c-0.5,2.7-1,5.2-1.2,7.9c-0.2,3.6-0.2,7.2-0.2,10.9c0,0.8-0.2,1.8-0.5,2.7c-0.1,0-0.2,0-0.5,0
		c-0.1-0.2-0.2-0.6-0.2-0.8c0.2-5,0.5-9.7,0.8-14.7c0.2-3.5,1-6.9,1.6-10.3c0.7-3.5,1.7-7.2,2.4-10.7c0.1-0.6,0-1.1,0-1.7
		c-2.8-0.2-5.5-0.7-8.1-0.7c-5.2-0.1-10.4,0-15.7,0.1c-2.3,0-4.4,0.7-6.2,2.1c-4,3.1-8,6.1-12.7,8.1c-2.9,1.4-5.3,3.4-7.8,5.5
		c-1.9,1.6-3.8,3.3-6.1,4.4c-1,0.6-2.4,0.5-3.5,0.1c-1.8-0.5-2.1-2.5-0.8-3.8c1-0.8,1.9-1.7,2.9-2.5c1.2-1.1,2.5-2.1,3.8-3.3
		c-0.1-0.1-0.2-0.2-0.5-0.5c-1.2,0.7-2.4,1.6-3.6,2.3c-2.1,1.2-4.2,2.3-6.7,0.1c0,0.6,0,0.8,0,1.1c0.6,2.7,0.1,5.3-0.6,7.9
		c-0.5,1.6-1.1,2.9-1.6,4.5c-0.6,1.7-0.8,3.5-1.4,5.2c-0.8,2.7-1.9,5.2-2.9,7.8C43.1,249.7,42.5,249.7,42.1,249.7z M82.1,208.6
		c0-0.2,0.1-0.6,0.1-0.7c1.4,0.1,2.7,0.5,4.1,0.6c0.6,0.1,1,0.2,1.6,0.2c5-0.2,9.7-0.6,14.7-0.7c1.9,0,3.8,0.5,5.8,0.5
		c3.3,0.1,6.4,0.5,9.7,0.2c2.7-0.1,5.3-1,8-1c4.5-0.1,9-0.8,13.6-1.9c2.7-0.7,5.5-1.4,8.5-1.4c4.5,0,9,0.2,13.5-1.6
		c1.1-0.6,2.8-0.6,3.5-1.4c2.1-2.5,3.5-5.5,3.4-9c-0.1-3.3-0.6-6.4-0.6-9.7c0-4.2-0.2-8.4-1.2-12.4c-1.2-5.3-2.4-10.7-3.6-16.1
		c-0.7-3.1-2.1-6.1-2.7-9.2c-1.1-6.2-2.4-12.4-4.4-18.3c-1.7-5.1-3.4-10.2-4.6-15.4c-1-4.4-2.3-8.6-4-12.9c-0.5-1.2-1.2-2.4-1.8-3.5
		c-1.4-2.7-3.6-4.5-6.1-6.2c-0.6-0.5-1.6-0.2-2.3-0.7c-1.9-1.1-7.5-0.8-9.3,0.6c-2.9,2.3-5.3,5.1-6.8,8.5c-1,2.3-1.7,4.6-2.4,7
		c-1,2.8-1.9,5.7-2.8,8.6c-1.1,4-2.8,7.9-2.4,12.1c0.1,2.4,0.6,5,1.2,7.2c0.6,1.9,1.4,4.1,3.4,5.2c3.8,2.4,8,3.4,12.6,4
		c0.8,0.1,1.2-0.5,1-1.1c-0.6-2.1-1.1-4.2-1.6-6.3c-0.6-1.9-1.1-3.6-3.1-5.1c-2.8-2.1-4.2-5.3-4.7-8.9c0-0.2,0.1-0.7,0.1-1
		c0.2,0.2,0.6,0.6,0.7,0.8c0.8,1.8,1.7,3.8,2.7,5.7c0.5,0.7,1.1,1.2,1.7,1.8c0.7,0.7,1.7,1.2,2.1,1.9c1.1,2.8,2.1,5.8,2.9,8.7
		c0.7,2.7,1.1,5.5,1.8,8.1c0.7,3.3,1.7,6.3,2.3,9.6c0.8,5.1,1.6,10.3,3.8,15.2c1,2.1,1.6,4.4,2.1,6.8c0.5,1.6,1,2.7,2.7,3.3
		c1.2,0.5,2.4,1.2,2.8,2.7c-0.7-0.1-1.2-0.5-1.9-0.6c-1.2-0.6-2.5-1.7-3.8-1.6c-2.4,0.1-4.6,1-6.9,1.7c-2.4,0.7-4.6,1.7-6.9,2.5
		c-2.3,1-4.5,1.9-6.8,2.9c-3.6,1.8-7.8,1.7-11.8,2.5c-4,0.8-8.1,1.1-12.3,1.6c-4.7,0.5-9.7,0.7-14.6,1.2c-1.7,0.1-3.6,0.5-5.1,1.7
		c-0.1,0.1-0.6,0.1-0.8,0.1c0-0.1-0.1-0.2-0.1-0.6c1-0.6,2.1-1.2,3.1-1.8c-1.6-1-3.1-2.3-4.7-3.1c-1-0.6-2.4-0.8-3.5-0.7
		c-1.8,0-3.6,0.5-5.5,0.8c-0.6,0.1-1.1,0.5-1.4,0.8c-0.6,0.8-0.8,1.8-1.4,2.9c1.9,0.2,4,0.6,6.1-0.6c-0.1,0.6-0.1,1-0.5,1.2
		c-0.6,0.6-1.1,1-1.7,1.6c-2.3,1.9-4.2,4.4-7,5.3c-2.8,0.9-4.5,2.9-5.9,5.3c-0.8,1.6-1.2,3.3-1,5.3c2.1-2.8,4.2-5.2,7.8-6.3
		c-0.2,0.6-0.5,1-0.6,1.1c-0.8,0.6-1.9,0.8-2.7,1.6c-2.4,2.4-5.1,4.4-5.9,7.9c-0.1,1,0,1.9,0,3.1c3.4-2.1,5.1-5.5,8.9-6.7
		c-0.1,0.6,0,0.8-0.1,0.8c-1.9,1.6-4,3.1-5.9,4.6c-0.6,0.5-1.1,1-1.2,1.7c-0.1,1,0.2,1.9,0.5,3.1c0.6-0.1,1.1-0.2,1.6-0.6
		c1.6-1,3.1-2.1,4.6-3.1c1.1-0.8,2.4-1.7,3.6-2.4c0.2-0.1,1,0,1.4,0.1c0,0.5,0,1-0.1,1.1c-1.9,1.9-4.1,4.1-6.1,6.1
		c-0.6,0.6-1.2,1-1.7,1.2c0.2,1.4,0.6,2.4,0.8,3.6c1.1-0.7,2.3-1.1,3.1-1.9c1.9-1.6,3.5-3.4,5.7-4.7c2.8-1.9,5.9-3.4,8.9-5.2
		c3.8-2.4,7.3-5.1,11-7.8c0-0.1,0-0.2,0-0.5C84.6,209.1,83.3,209,82.1,208.6z M71.3,88.6c-1.1,1.2-1.7,2.5-1.6,4.1
		c0,0.6-0.2,1.1-0.6,1.6c-1,1.6-2.1,2.9-3.1,4.6c-0.8,1.4-1.4,2.9-1.9,4.5c-0.5,1-0.7,2.1-0.7,3.3c-0.1,4.7-0.1,9.6,0,14.4
		c0,1.4,0.7,2.9,1.2,4.2c1.2,2.7,3.8,3.5,6.3,4.4c3.8,1.4,7.9,1,11.8,0.1c6.8-1.6,12.9-5.1,17.4-10.4c2.8-3.4,5.1-7.3,7.3-11.2
		c2.7-4.5,5-9.3,7.5-14c0.7-1.2,1.6-2.4,2.5-4c-7.8,1.2-15.3,2.5-22.7,3.8c0.1-1.4,1.1-1.6,2.1-1.7c2.1-0.2,4.2-0.6,6.3-0.8
		c2.9-0.5,5.9-1,8.9-1.4c1.6-0.2,2.9-0.8,4.5-0.8c1.4,0,2.1-0.6,2.9-1.4c2.3-2.1,4.7-3.8,7.8-5c-0.2-0.2-0.6-0.5-0.8-0.6
		c-2.8-1.4-5.8-2.5-8.4-4.2c-2.8-1.8-5.3-4.1-7.9-6.2c-1.2-1.1-2.7-2.5-3.4-4.1c-1.8-3.6-3.4-7.3-5.1-11c-0.2-0.7-0.8-1.2-1.4-1.8
		c-2.5-1.9-4.5-4.5-5.8-7.5c-0.7-1.6-1.2-3.3-1.9-5c-0.5,0.6-0.8,1-1.1,1.6c-0.5,0.7-0.8,1.6-1.1,2.3c-1,1.8-2.8,2.8-4.7,2.4
		c-0.5-0.1-0.7-0.5-1.4-1c0.7-0.1,0.8-0.1,1.1-0.1c2.5,0.5,3.6-0.2,4.6-2.7c0.1-0.5,0.2-0.8,0.6-1.1c2.3-3.1,2.5-6.2,0.8-9.6
		c-1-1.9-3.1-3.4-4.6-3.1c-2.4,0.5-4.6,2.4-5.2,4.5c-0.8,3.1-1.7,6.2-2.7,9.6c-0.2-0.2-0.7-0.5-0.8-0.7c-2.1-3.4-5.3-5.1-9-6.1
		c-3.3-0.8-6.7-1.6-9.2-4.1c-0.7-0.7-1.8-0.8-2.8-1.2c-0.1,0.8-0.2,1.6-0.5,2.1c3.3-0.2,4.4,0.1,4.6,1.4c0.1,0.6,0.1,1.2-0.1,1.6
		c-0.7,0.6-1.6,0.8-2.4,1.2c0.6,2.1-0.7,3.3-2.7,4c-3.5,1.4-7,2.7-10.7,4.1c-0.2,0.1-0.7,0.2-1,0.5c1.6,3.5,1.7,3.6,4,2.1
		c-1-1-0.1-1.4,0.5-2.1c2.5-2.5,5.8-3.6,9.2-4.7c0.6-0.1,1.1,0,1.7,0c0,0.1,0,0.5,0,0.6c-3.6,1.4-7.8,2.4-10.6,6.2
		c0.8-0.1,1.2-0.2,1.8-0.2c1-0.1,1.9,0,2.1,1c0.1,0.8,0,1.8-0.5,2.7c-0.2,0.7-1.2,1.1-1.7,1.7c-0.5,0.5-0.7,1-0.7,1.6
		c-0.1,2.8-0.1,5.7,0,8.5c0,0.7,0.7,1.7,1.4,2.1c0.7,0.6,1.8,0.7,2.8-0.2c-1.4-0.6-0.6-1.4-0.1-1.8c0.7-0.6,1.6-1.2,2.5-0.5
		c-0.2,0.6-0.6,1-0.8,1.6c0.1,0.1,0.1,0.1,0.2,0.2c0.7-0.8,1.7-1.6,1.9-2.4c0.1-1-0.5-1.9-0.7-2.9c1.6,0.7,2.1,2.7,1,4.1
		c-0.6,0.7-1.2,1.1-1.9,1.7c-0.5,0.2-0.7,2.9-0.5,3.3c0.1,0.1,0.6,0.2,0.8,0.1c2.5-0.5,5.2-0.8,7.8-1.2c0.5-0.1,1,0.1,1.4,0.1
		c0,0.5,0,1-0.2,1.2c-1.2,1.9-2.5,4-3.6,5.5c0.5,1.2,1,2.3,1.2,3.3c0.6,2.3,1.8,2.8,4,2.1c0.6-0.1,1-0.5,1.6-0.7
		c2.4-1,4.6-1.8,7-2.8c1.2-0.6,1.8,0.1,2.3,1c0.1,0.5,0.2,0.8,0.6,1.1c1.1,2.7,2.3,5.2,1.8,8.1c-0.1,1.4-1.4,3.8-2.1,3.6
		c-1.8-0.6-4.1-0.1-5.7-1.9C72,89.2,71.7,89,71.3,88.6z M133.4,85.7c-1.4-1.6-5.1-2.3-7.3-1.1c-2.9,1.7-5.9,3.3-7.6,6.3
		c-3.1,5.3-6.1,10.6-9.2,15.9c-2.4,4-4.7,7.9-7.2,11.9c-0.5,0.8-1,1.6-1.7,2.3c-4,4.1-8.7,6.9-14,9.2c-4.5,1.8-9.2,1.7-13.8,1.7
		c-1,0-2.1-0.2-2.9-0.7c-1.1-0.6-2.3-1.4-3.4-1.9c-2.1-1.2-3.3-3.1-3.8-5.3c-1.2-4.7-1.2-9.8-0.8-14.8c0.1-1,0.1-2.1,0.5-2.9
		c1.7-4.4,3.3-8.6,5.2-12.9c1.2-2.8,2.9-5.5,4.6-8.1c-1.8,0.6-3.8,1.1-5.7,1.7c-0.2,0.1-0.6,0.6-0.8,0.8c-0.8,1.1-1.7,2.3-2.5,3.3
		c-1.2,1.7-2.8,3.3-3.6,5.1c-1.1,2.4-1.9,5-2.8,7.5c-0.6,1.7-0.7,3.5-0.8,5.2c-0.5,3.4,0.7,6.7,1.2,9.7c0.7,3.3,0.8,6.4,0.2,9.7
		c-1,5.3-2.1,10.6-2.9,15.9c-0.2,2.1-0.5,4.5,0.1,6.7c1.1,3.1,2.7,6.2,5,8.7c1.6,1.8,3.4,2.7,5.7,2.5c2.8,0,5.7-0.2,8.5-0.2
		c4.7,0,9.6,0.2,14.4,0.1c1.9,0,3.5,0.2,5.2,1.1c0.2,0.1,0.5,0.1,0.7,0.1c4.7,0.8,9.5,1.7,14.2,2.5c0.7,0.1,1.4,0.2,2.1,0.1
		c2.7-0.1,5.2-0.2,7.9-0.5c1,0,1.9,0,2.9-0.1c2.8-0.6,5.5-1.2,8.4-1.9c0.5-0.1,0.8-0.6,1-1c0.8-1.9,1.6-4.1,2.3-6.1
		c0.7-1.9,1.2-4.1,0.5-6.2c-0.6-1.7-1-3.4-1.2-5.1c-0.2-1.6-1.1-2.4-2.5-2.5c-3.8-0.1-7.2-1.6-10.6-2.9c-1.2-0.6-2.8-1.4-3.5-2.7
		c-2.1-3.3-3.1-6.9-3.4-10.7c-0.5-4.1,0.7-7.9,1.8-11.9c0.8-2.8,1.4-5.8,2.4-8.6c1-2.8,2.3-5.5,3.4-8.4c1.1-2.9,2.7-5.7,5.1-7.8
		c1.2-1,2.5-2.1,4-2.7C129.8,86.3,131.6,86.2,133.4,85.7z M117.8,188.1c0-0.1,0-0.5,0.1-0.6c-1.1-0.2-2.3-0.7-3.3-0.7
		c-1.2,0-2.5,0.2-3.8,0.5c-4.6,0.5-9.3,0.5-14-0.1c-3.5-0.5-7.2-0.8-10.7-1.2c-0.2,0-0.6-0.2-1-0.5c1.1-1.6,2.7-1.4,4.2-1.2
		c3.4,0.5,6.8,1.1,10.1,1.4c3.1,0.2,6.2,0.1,9.3,0.1c1.6,0,3.3-0.1,4.7-0.5c1.5-0.3,2.9-0.2,4.4,0.5c3.6,1.6,3.6,1.4,5.3-2.1
		c2.8-5.8,5.5-11.8,6.2-18.3c-0.6,0.1-1.2,0-1.8,0.2c-5.2,1.6-10.7,1.2-16.1,1.8c-2.1,0.1-4.4-0.6-6.4-0.7c-4.7-0.5-9.5-1-14-2.7
		c-0.5-0.1-0.8-0.1-1.2-0.1c-5.9-0.1-11.8-0.2-17.6-0.2c-2.1,0-4.1,0-6.2,0c0.2,0.5,0.7,0.7,1,0.8c1.4,0.8,2.1,2.5,1.2,4
		c-1.6,2.7-1.1,5.5-0.8,8.5c0,0.2,0.6,0.7,0.8,0.7c3.5,1.4,7.2,1,10.9,1c0.6,0,1.1,0.1,1.6,0.2c0,0.1,0,0.5,0,0.6
		c-0.7,0.2-1.2,0.8-1.9,0.8c-3.5,0-7,0.2-10.4-1.1c-1-0.5-1.2,0-1.7,0.7c-0.7,1.2-1.6,2.4-2.4,3.5c-1.4,1.7-1.7,3.8-0.6,5.5
		c0.1,0.1,0.5,0.5,0.6,0.5c1.6-0.1,3.1-0.1,4.5-0.6c2.7-0.6,5-0.6,7.2,1.1c2.8,1.9,5.8,3.5,9.5,2.9c0.7-0.1,1.4,0,2.1-0.1
		c1.2-0.1,2.5-0.6,3.8-0.7c1.4-0.1,2.8-0.1,4.4-0.2c2.3-0.2,4.4-0.6,6.7-0.8c1.7-0.2,3.4-0.2,5.2-0.6c2.4-0.5,5-0.7,7.3-1.2
		C115.9,188.6,116.8,188.5,117.8,188.1z M47.8,55.9c-2.7,1-5.1,1.8-7.5,2.7c-0.8,0.2-1.7,0.6-2.3,1.1c-1.2,1.4-2.5,2.8-3.5,4.4
		c-2.3,3.8-4.7,7.5-8.1,10.4c-1.1,1-1.9,1.9-2.4,3.3c-1.6,4.6-3.1,9.5-4.6,14.1c-1.4,4.4-2.1,9-2.4,13.7c-0.1,2.5-0.7,5.1-1,7.8
		c-0.2,2.1-0.6,4.2-0.8,6.3c0.1,0.1,0.2,0.1,0.5,0.2c1.1-0.6,2.4-1,3.4-1.7c2.8-1.9,5.7-4.1,8.5-6.1c2.3-1.6,4-3.6,5.2-6.1
		c2.5-5.2,6.8-8.6,11-12c2.5-1.9,5.3-3.4,8.1-5c1.2-0.7,2.8-1.4,4.2-1.8c3.6-1,7.3-1.6,11-2.5c3.3-0.8,6.3-1.8,9.5-2.8
		c0.2-0.1,0.8-0.7,0.7-1c-0.2-0.8-0.7-1.7-1-2.5c-0.8,0.2-1.6,0.6-2.1,0.8c-2.5,1-5,2.3-7.5,3.1c-2.7,1-3.8,0.5-4.7-1.8
		c-0.1-0.5-0.5-1-0.5-1.6c0-1.1-0.6-1.6-1.6-1.8c-1.6-0.6-3.3-1.1-3.3-3.4c0-0.2-0.6-0.7-1-0.7c-1.2-0.2-1.7-1.1-1.7-2.4
		c0.1-1.2-0.2-1.9-1.7-1.8c-2.1,0.1-4.4-1.9-4.2-4.2c0.2-2.1,0.1-4.4,0-6.4C48.2,57.3,47.9,56.8,47.8,55.9z M135.5,163.2
		c-1.1,0.5-1.9,0.7-2.9,1c-1,0.3-1.6,0.7-1.8,1.8c-0.5,2.3-0.8,4.5-1.7,6.8c-1.4,3.5-2.9,6.9-4.5,10.4c-0.2,0.6-0.5,1.1-0.7,1.9
		c1.6-0.5,2.8-0.8,4-1.2c1.7-0.6,3.3-1.1,4.7-1.8c0.6-0.2,1-0.8,1.1-1.2c0.2-1,0.2-2.1,0.2-3.1c0.2-2.3,0.5-4.5,1.7-6.4
		c0.8-1.2,1.1-2.4,0.6-4C135.9,166,135.7,164.5,135.5,163.2z M78.1,83.1c-2.8-0.1-4,1.8-5.2,3.6c-0.2,0.2-0.1,1.1,0.1,1.4
		c1.1,1.2,2.5,1.6,4.2,1.4c0.5,0,1.1-0.5,1.2-0.8C79.3,86.8,78.9,85,78.1,83.1z M138.2,171c-0.5,0.7-0.7,1-0.8,1.2
		c-1.4,2.5-1.6,5.5-1.8,8.4c0,0.1,0.7,0.6,1,0.6c1.1-0.2,2.1-0.7,3.1-1c0.8-0.2,1.1-0.7,0.7-1.6c-0.5-0.8-0.5-1.8-0.7-2.8
		C139.1,174.1,138.7,172.8,138.2,171z M101.8,38.9c0,1,0,1.7,0,2.5c0,3.3-0.1,6.4-0.1,9.7c0,1.9,0.8,3.6,2.1,5.7
		c0.1-0.7,0.2-1.1,0.2-1.6c-0.2-4.7-0.5-9.5-0.7-14.2C103.3,40.3,102.9,39.2,101.8,38.9z M57.8,201.2c0.1,0.1,0.2,0.1,0.2,0.2
		c3.1-1,5.2-3.5,7.6-5.8c-1.7-0.5-3.3-0.8-4.7-1.2C60,196.5,58.9,198.8,57.8,201.2z M39.3,34.3c4-1.1,7.8-2.3,11.8-3.3
		C47.3,28.5,41,30.2,39.3,34.3z M43.3,51.7c-0.2-1-0.7-1.9-1-3.1c-3.4,1.4-3.8,1.9-3.3,4.5C40.5,52.5,41.9,52.1,43.3,51.7z
		 M100.6,38.8c0-0.7,0.1-1.1,0-1.4c-1.7-2.8-1.2-5.7-0.7-8.6c0.1-0.5,0-0.8,0-1.2C97.7,31.4,98,36.6,100.6,38.8z M132,162.6
		c0.8-0.5,1.4-0.7,1.9-1c0.5-0.2,1.1-0.7,1-1c0-1.4-0.2-2.9-0.5-4.4c-0.1,0-0.5,0-0.6,0C133.2,158.2,132.6,160.2,132,162.6z
		 M64,70.6c-0.6,0.2-1.1,0.5-1.6,0.7c-1.1,0.6-2.3,1.2-3.4,1.9c-0.5,0.2-0.6,0.8-0.8,1.1c0.7,0.2,1.2,0.7,1.9,0.8
		c0.2,0,0.8-0.5,1.1-0.8C62.1,73.3,63,72,64,70.6z M62.9,69.9c0-0.1,0-0.2-0.1-0.5c-2.3,0.6-4.6,1.1-7,1.7
		C58.9,73.6,60.7,70.6,62.9,69.9z M104.4,38.1c0.1,0,0.2,0.1,0.5,0.1c2.1-1.7,2.9-4.7,1.6-5.7C105.6,34.6,104.9,36.3,104.4,38.1z
		 M60.3,192.1c1,0.7,1.9,0.8,2.5-0.1c0.2-0.2,0-1.4-0.2-1.6C61.3,190,60.9,191.3,60.3,192.1z M56.1,229.6c-0.1-0.8-0.2-1.6-0.2-2.4
		c-0.5,0.1-1.1,0.1-1.2,0.2C54,228.5,54.5,229.3,56.1,229.6z M51.1,220.5c-0.8,1.8-0.6,2.4,0.8,2.4
		C52.1,221.1,52.1,221.1,51.1,220.5z"/>
	<path class="st0" d="M83.9,39.2c0.1,1.2,0.2,2.5,0.5,3.8c0.1,0,0.2,0,0.5,0.1c0.2-0.2,0.5-0.7,0.7-1c0.5-0.5,0.8-1,1.2-1
		c1.4,0.1,1.6-0.8,1.8-1.8c0.1-0.6,0.7-1,1.1-1.6c0.2-0.5,0.6-0.7,0.6-1.1c0-1.7-2.4-3.8-4.1-3.8c-1.1,0-2.4,1.1-2.9,2.5
		c-0.1,0.5-0.2,1-0.8,1.8c-0.1-0.2-0.2-0.6-0.2-0.7c0.1-2.3,2.5-4.6,4.7-4.4c0.7,0,1.6,0.6,2.3,1.1c0.6,0.6,1,1.4,1.4,2.1
		c1,1.7,0.7,2.4-0.7,3.6c-0.1,0.1-0.5,0.2-0.6,0.6c-0.5,1.4-0.8,2.5-2.7,2.5c-0.2,0-0.6,0.8-1,1.1c-0.5,0.3-0.8,0.7-1.4,0.7
		c-0.2,0-0.7-0.7-0.7-1.1c-0.1-1.2-0.2-2.4-0.2-3.6C83.4,39.3,83.6,39.2,83.9,39.2z"/>
	<path class="st0" d="M88.3,86.7c2.4,1.2,1.9,5.9-1,9.5c-0.1-0.6-0.5-1-0.5-1.2c0-0.5,0.2-1,0.6-1.2c1.7-1.7,1.2-3.5,0.8-5.5
		C88.3,87.5,88.3,87.1,88.3,86.7z"/>
	<path class="st0" d="M53.9,52.8c0.6-0.5,0.7-0.8,1.1-1c1.7-0.5,3.3-1,4.2-2.7c0.1-0.2,0.8-0.2,1.1-0.5c0,0.5,0.1,0.8,0,1.1
		C59.2,52.1,57.9,53,53.9,52.8z"/>
</g>
</svg>
