<?xml version="1.0" encoding="utf-8"?>
<!-- Generator: Adobe Illustrator 21.1.0, SVG Export Plug-In . SVG Version: 6.00 Build 0)  -->
<svg version="1.1" id="Layer_1" xmlns="http://www.w3.org/2000/svg" xmlns:xlink="http://www.w3.org/1999/xlink" x="0px" y="0px"
	 width="200px" height="235.2px" viewBox="0 0 200 235.2" style="enable-background:new 0 0 200 235.2;" xml:space="preserve">
<style type="text/css">
	.st0{fill:#BBBBBB;}
</style>
<g id="nausea-lady">
	<path class="st0" d="M194.6,139.2c-7-13.1-14.5-25.9-21.4-38.8c-2.1-3.9-4.3-7.7-7.7-10.4c-2.1-1.7-2.9-5-6.2-5.6
		c-0.2,0-0.4-0.2-0.4-0.4c-4.4-5.6-4.8-12.2-3.9-18.9c0.4-3.1,0.4-6.4,0.4-9.5c0-2.9-0.4-6,0-8.9c0.4-4.6,1.4-9.3,1.9-13.9
		c0.8-4.8-1.4-9.1-2.9-13.5c-1.9-5.4-4.8-10-9.3-13.7c-3.9-3.3-7.9-5.4-13.1-4.6c-0.8,0.2-1.7-0.2-2.7-0.2c-2.9-0.4-6.2-1-9.1-0.6
		c-7.3,1-13.9,4.3-19.3,8.9c-3.1,2.7-5,6.6-7.5,10c-1.2,1.5-2.5,3.3-3.1,5.2c-1,3.3-1.4,7-2.1,10.4c-2.3,8.7-3.1,17.6-2.7,26.7
		c0.2,2.7,0.6,5.2,1.2,7.7c0.6,2.7,1.5,5.4,2.1,8.1c0.6,2.7-0.4,3.9-3.1,4.1c-1.4,0-2.5,0-3.7,0.4c-4.6,1.9-9.5,2.3-14.3,2.9
		c-6.2,0.8-12.4,1.9-17.8,5.4c-4.1,2.5-7.5,5.2-8.9,9.9c-0.4,1-1,2.3-1.7,3.1l-8.1,8.1c-2.7,2.7-2.7,3.1,0,5.8
		c1.2,1.2,1.7,1.9,0.6,3.7c-1.2,1.7-1.9,4.1-2.9,6.2c-0.8,2.1-1.4,4.3-2.5,6.2c-3.7,6.6-7.7,12.8-11.2,19.3
		c-3.5,6.4-6.8,12.9-9.9,19.5c-1.7,3.9-3.3,7.7-4.8,11.8c-1.2,4.3,0.4,9.9,6.2,11.2c4.1,1,7.7,2.9,11.6,4.4
		c5.2,2.3,10.6,3.7,16.4,3.9c2.5,0,5.2,1,7.7,1.7c2.1,0.4,4.1,1.4,6.2,1.7c1.5,0.4,2.1,1,1.9,2.3c-0.4,3.1-0.6,6.2-1.4,9.3
		c-1.2,4.8-2.9,9.5-4.3,14.3c-0.2,0.8,0.2,1.9,0.6,2.1c1,0.2,1.9,0.2,2.3-1.5c0.6-4.1,1.5-8.1,2.5-12.2c0.8-3.3,2.7-6.6,2.1-10.2
		c-0.4-2.7,1-4.1,3.7-4.1c1.4,0,2.7,0.2,4.1,0.4c7.3,0.8,14.7,0.4,21.6,3.3c4.3,1.7,8.5,3.5,12.8,5.2c1.4,0.6,2.5,1.9,4.1,2.5
		c3.3,1.2,6.6,2.3,9.9,3.1c4.4,1,8.9,1.9,13.3,2.7c1.7,0.2,3.3-0.4,3.7-2.1c0.2-1.7-0.8-2.5-2.5-3.1c-2.9-1-5.8-2.3-9.3-3.7
		c1-0.4,1-0.4,1.2-0.4c0.6,0,1,0,1.5,0.2c5.2,1.2,10.4,2.1,15.8,1.7c2.3-0.2,4.1-1.2,3.9-3.1s1-2.1,2.1-2.5c2.9-0.8,3.7-3.1,1.9-5.6
		c-0.4-0.8-0.8-1.7-0.6-2.5c0.4-1.4-0.2-2.1-1.2-2.9c-4.8-3.7-10.6-4.6-16.2-6c-0.8-0.2-1.4-0.6-2.1-1c0.4-0.4,0.8-1.2,1.4-1.5
		c1.2-0.8,2.5-1.2,3.5-2.1c1.9-1.9,1.5-2.9-1-3.3c-5-0.8-9.9-1.4-14.9-2.1c-2.7-0.4-5.6-1.4-8.3,0c-0.4,0.2-0.8,0-1.2,0
		c-1.4,0.2-2.7,0.2-3.9,0.8c-3.1,1.5-6.2,4.1-9.5,4.6c-4.3,0.8-8.9,0.6-13.1,0c-4.4-0.6-8.7-1.9-13.1-2.9c-4.1-1-6.2-2.7-6-5.6
		c0.2-1.9,0.6-3.9,1-6c12.8,3.1,13.1,3.1,15.3,1h-2.9c-3.9-0.2-7.7-0.4-11-2.7c-0.8-0.4-1.5-1.4-1.5-2.1c-0.2-7.5,0-15.3,1.2-22.6
		c0.4-0.2,0.6-0.4,0.8-0.8c0.4-1,0.6-1.9,0.4-2.9c0-0.2-0.2-0.4-0.2-0.6c0-0.4,0.2-0.8,0.2-1c0.6-0.6,1-1.5,0.6-2.3l0,0
		c0.2-0.6,1.4-1.4,1.9-1.2c4.3,1.2,8.3,2.5,12.4,3.9c0.6,0.2,1.2,0.4,1.7,0.6c0-0.2,0.2-0.6,0.2-0.8c-5-2.3-10-4.4-15.5-7
		c4.4-8.1,6.2-17,4.4-26.5c-0.4,0.6-0.6,1.2-0.6,1.7c0.2,4.6,0.2,9.1-1.4,13.5c-1.2,3.3-2.3,6.4-3.9,9.5c-1,1.9-2.9,1.9-4.4,0.2
		c-1-1-1.9-1.7-2.9-2.7c-6-5.6-12-11.4-18.2-17.4c2.1-1.9,4.1-3.1,5.6-4.8c1.7-1.9,4.1-3.9,4.8-6.2C44.8,95,51.4,90.9,59.3,89
		c4.6-1.2,9.7-1.4,14.5-2.1c3.7-0.8,7.1-1.7,10.8-2.7c0.8,1.5,1.4,3.1,2.1,4.6c2.3,4.6,4.6,9.3,7.1,13.7c1.7,8.5,7.5,17.4,13.3,22.4
		c0.4,0.4,1,0.6,1.5,0.4c0.8,0.8,1.5,1.2,3.1,0.8c-0.6-1.2-1.2-2.1-1.4-3.1s-0.4-2.3,0.2-3.1c0.4-0.6,1.9-0.6,2.9-0.6
		c2.3,0.2,4.4,1,7,0.2c3.5-1.2,6.4-2.5,8.9-5.2c0.6-0.6,1.7-1.2,2.1-1c0.6,0.4,1,1.5,1.2,2.3c0.4,1.4,0.2,2.9,0.4,4.6
		c0.6-0.8,1.2-1,1.2-1.4c0-3.3-0.2-6.4-0.6-9.7c-0.4-1.9-1.7-3.9-1.9-5.8c-0.4-4.3-0.2-8.5,0-12.8c0.2-1.5,1.2-3.1,1.9-4.6
		c3.3,2.1,4.6,4.4,4.4,7.9c-0.2,3.5,0.2,7.1,1,10.4c1.5,6.2,0.6,11.6-3.7,16.2c-0.6,0.8-1.4,1.4-1.5,2.1c-0.2,0.6,0,1.4,0.2,1.9
		c0.6-0.4,1.5-0.4,1.7-0.8c1.7-2.9,3.3-5.6,4.8-8.5c0.4-0.4,0.4-1.2,0.4-1.7c-0.2-4.8-0.8-9.5-1-14.3c0-1.5,0.2-3.1,0.4-4.6
		c0.4-0.2,0.8-0.2,1.2-0.2c1.5,3.1,3.3,6.2,4.6,9.5c0.6,1.2,0,2.9-0.2,4.3c-0.4,6-1.4,11.8-4.1,17.4c-1,1.9-1.5,3.9-2.3,5.8
		c0.2,0,0.4,0.2,0.6,0.2c1.9-3.7,4.4-7.3,5.8-11.4c1.2-4.1,1.2-8.5,1.7-12.8h1c0.6,1.2,1.2,2.1,1.5,3.1c1.4,3.5,2.5,7,4.1,10.4
		c0.8,1.9,0.6,3.5-0.2,5.4c-0.2-1.2-0.2-1.9-0.4-2.9c-1,5.6-1.4,11-1.9,16.4c-0.2,2.1-0.2,4.4-0.6,6.8c-1.2,6.2-2.5,12.4-3.3,18.7
		c-0.8,6.4-3.1,11.4-8.3,15.1c-0.4,0.4-1.2,0.4-1.7,0.6c0.4,0.4,0.6,0.8,1,1.2c1.9-0.2,3.3-1.5,4.6-2.9c1.2-1.2,2.3-2.9,3.9-4.8
		c-0.2,2.9-0.4,5.2-0.4,7.5c-0.2,4.6-0.4,9.5-0.6,14.1c-0.2,5.2-0.8,10.4-1,15.7c-0.2,5.2-0.2,10.2-0.2,15.5c0,1.9,0.8,3.9,1,5.8
		c0,2.1,1,2.3,2.7,1.7c-0.8-3.1-1.7-6.2-1.7-9.3c-0.2-10.8-0.2-21.4,1.2-32.3c1-7.9,0.6-15.8,1.2-23.6c0.6-6,1.2-12,2.3-18
		c1-5.2,2.5-10.2,2.3-15.5c0-0.4,0.4-0.8,0.6-1.4c1.4,2.7,2.7,5,4.1,7.1c5.6,9.1,11.4,18,17.2,26.9c1,1.4,2.9,2.7,4.4,2.9
		c3.9,0.2,7.5,0.8,11.4-1.2c4.4-2.3,7.7-6.6,8.1-11.6C200.3,151.8,197.8,145.2,194.6,139.2z M52.7,151.8c0.2,9.9,0.4,19.7,0.4,29.6
		c0,2.9-0.6,3.3-3.1,2.3c-5-1.9-9.9-4.1-14.9-6.2c-1-0.4-1.7-1.2-2.3-1.5c6.2-10,12.4-20.1,18.7-30.7
		C51.9,147.6,52.7,149.7,52.7,151.8z M40.2,127.5c3.3,2.9,6.4,5.8,9.7,8.7c1.4,1.4,1.5,2.7,0.6,4.4c-1.9,3.5-3.3,7.1-5.2,10.6
		c-1.4,2.5-2.9,5-4.4,7.5c-1.7,2.5-3.7,5-5,7.7c-1.5,3.1-3.3,5.8-5.8,8.1c-1.7,1.5-1.2,3.1,1,3.9c7.1,2.7,14.3,5.6,21.6,8.1
		c4.8,1.5,9.9,2.3,14.7,3.5c1.4,0.4,2.9,0.6,4.3,0.6c4.1,0.2,8.1,0.4,12.2,0.6c3.3,0.4,5.6-1.5,7.9-3.1c2.7-1.9,5.4-2.7,8.5-2.9
		c7.5-0.6,14.9,1.2,22.2,2.7c0.6,0,1,0.4,1.9,0.8c-3.3,2.1-6.4,3.7-10.2,2.5c-2.9-1-6-1.4-9.1-1.9c0,0.2-0.2,0.6-0.4,1
		c0.6,0.4,1.4,1.2,1.9,1.2c5.8,0.4,10.8,3.1,16.2,4.6c3.5,0.8,6.8,2.1,10.2,3.3c1.7,0.6,3.7,1.4,4.4,3.5c-7.7,2.3-15.3-0.8-23-1.5
		c0,0.2-0.2,0.6-0.2,1c1.2,0.6,2.1,1.2,3.3,1.4c3.5,0.6,6.8,1,10.2,1.5c1.9,0.2,3.9,0.6,5.8,0.8c1.5,0.2,3.3,0.4,4.3,1.9
		c0.4,0.6,0.8,1,1.2,1.4c-0.6,0.2-1.2,0.8-1.7,0.8c-6.8-0.2-13.7,0.2-20.5-1.5c-0.8-0.2-1.5,0.2-3.1,0.6c6.8,2.7,13.7,1.9,19.9,4.4
		c-3.7,2.9-8.1,1.2-12,1.2c-4.3-0.2-8.3-1.4-12.6-2.1c-0.2,0.4-0.4,1-0.8,1.7c4.4,1.9,8.9,3.7,13.1,5.6c1,0.4,1.5,1.4,2.3,1.9
		c-0.2,0.2-0.4,0.6-0.6,0.8c-1.7-0.2-3.5-0.4-5.2-0.8c-2.5-0.4-5-0.8-7.5-1.5c-2.3-0.8-4.6-1.7-7-2.7c-4.4-1.9-8.7-4.3-13.1-6
		c-2.7-1.2-6.2-1-8.9-2.5c-4.8-2.7-10-2.5-15.3-3.1c-3.9-0.4-7.7,0-11.4-0.6c-4.4-0.8-9.1-0.6-13.1-3.1c-1-0.6-2.5-1-3.9-1
		c-8.7,0-16.4-2.7-24.2-6.4c-1.9-1-4.1-1.5-6.2-2.1c-4.4-1.2-6.4-4.8-4.3-10.4c2.1-5.4,4.4-10.8,7-16c1.7-3.9,3.5-7.7,5.8-11
		c4.6-6.8,8.1-14.3,12-21.4c1.5-2.7,2.5-6,3.7-8.9c0.8-1.5,1.5-3.1,2.5-4.8C36.5,122.8,38.6,125.1,40.2,127.5z M91.4,93.6
		c-0.2,0-0.4,0.2-0.6,0.2c-1.2-2.3-2.3-4.8-3.3-7.3c-0.4-0.8-0.6-1.7-0.2-2.3c0.4-0.8,1.2-1.4,1.9-1.9c0.4,0.6,1.2,1,1.2,1.5
		C91,87.1,92.1,90.4,91.4,93.6z M164.6,91.5c7.5,7.9,10.6,18.7,17.2,27.2c-0.4,0.2-0.6,0.4-1,0.6c-1.4-1.7-2.5-3.3-3.7-5
		c-4.3-7-8.7-13.9-12.9-20.9c-0.2-0.4-0.2-1-0.4-1.4C164,91.9,164.4,91.7,164.6,91.5z M151.1,39c-0.4,1.7-0.8,3.5-1.2,5.2
		c-2.1-0.6-4.1-1.2-6.2-1.7c-0.6-0.2-1.2-0.8-1.9-1.4c0.4-1.7,1.4-2.7,3.5-2.7h5.8C151.1,38.4,151.3,38.8,151.1,39z M150.3,51.5
		c-0.2,0.2-0.6,0.2-0.8,0.4c-1.2-1.5-2.5-2.9-3.7-4.4c0-0.2,0.2-0.6,0.2-0.8c1-0.2,2.3-0.8,3.3-0.4c0.6,0.2,0.8,1.7,1,2.7
		C150.5,49.8,150.3,50.8,150.3,51.5z M129.4,111.8c-2.9,2.1-5.8,4.1-9.5,5c-0.8,0.2-1.5,0.4-2.3,0.2c-1.9-0.2-3.9-0.8-5.8-1
		c-2.1-0.4-3.1-2.1-3.7-3.7c-1.2-3.5-2.1-7-2.5-10.6c-1.4-10.4-2.5-21.1-3.7-31.7c-0.2-1.7,0.2-3.7,0.2-5.4
		c0.2-4.4,0.4-9.1,0.6-13.5c0.2-1.4-0.6-2.1-1.7-2.5c-1.5-0.4-1.9-1.2-1.2-2.5c0.2-0.4-0.2-1.2-0.4-1.7c-0.6,0.4-1.4,0.6-1.5,1.2
		c-1,1.7-0.4,3.9,1.5,4.8c1.5,0.8,1.4,1.5,0.8,2.5c-0.8,1.2-1.9,1.4-2.9,0.4c-0.6-0.6-1.2-1.4-1.5-2.1c-1.4-3.7-0.8-7.1,1.5-10.4
		c1.2-1.4,1.9-1.2,2.7,0c0.8,1,1.5,2.1,2.3,3.3c0.2,0,0.6-0.2,0.8-0.2c-0.2-1-0.4-1.9-0.8-2.9c-1.2-2.5-1-3.1,1.7-3.3
		c4.8-0.2,9.1-2.1,13.1-4.4c7.7-4.6,15.3-9.7,22.8-14.5c1.9-1.4,3.1-0.8,4.4,0.8c3.3,3.7,3.5,8.5,5.2,12.8c0.6,1.4,0.8,2.7,1.2,4.1
		c-2.3,0.2-4.3,0.2-6.2,0.6c-2.7,0.6-4.1,2.5-4.3,5.2c-0.4,3.9,0.8,7,3.1,10c-0.2,0.2-0.4,0.2-0.6,0.4c-3.1-1-6.2-2.1-9.3-4.1
		c-4.6-1.2-9.1-2.5-13.7-3.5c-0.8-0.2-2.1,1.5-3.1,2.5c-4.1-0.2-4.6,0.2-4.3,3.1c-3.1,1-3.7,3.5-1.2,5.8c1.2,1.2,2.5,1.7,1.9,3.9
		c-0.4,0.8,0.6,2.1,1.2,2.9c1.7,2.1,3.5,4.3,5.2,6.2c1,1.2,2.1,2.3,3.3,3.3c1,1,2.1,1.9,3.1,3.1c-2.9,0.6-5.4-0.6-7.7-1.9
		c-2.3-1.4-4.4-3.1-6.4-4.8c-1.9-1.9-3.7-4.1-5.6-6c-0.2,0.2-0.4,0.4-0.6,0.6c1.2,1.4,1.9,2.9,3.1,3.9c4.8,4.3,9.5,8.9,16.2,9.9
		c2.7,0.2,4.4,1.9,5.8,3.9c0.4,0.8,0.4,2.3,0,3.1c-1.9,3.5-1.7,7.1-1.4,10.8c0.4,2.3,0.2,4.8,0.4,7.3c0.2,1.4,0.2,2.9,0.8,4.1
		C132.1,108.9,131.4,110.3,129.4,111.8z M122.3,48c-0.6,0.6-1.2,1.5-1.7,1.5c-0.8,0-1.5-1-2.9-1.7c1-0.6,1.7-1.2,1.9-1.2
		C120.5,46.9,121.3,47.5,122.3,48z M113,50.4c0.6-0.4,1-1,1.9-1.7c1,1,1.9,1.7,2.1,2.7c0.2,0.4-0.8,1.2-1.4,1.7
		C114.7,52.3,114,51.3,113,50.4z M114,58.3c-2.3-1.7-3.5-3.3-2.7-6c1.4,0.8,2.9,1.4,3.5,2.3C115.3,55.4,114.4,56.7,114,58.3z
		 M167.1,152c-1.5-2.5-3.3-5-4.8-7.5c-1.7-3.3-3.5-7-5.4-10.2c-1.7-3.1-1.9-6.4-1.2-10.6c4.3,9.7,8.3,18.7,12.2,27.8
		C167.7,151.6,167.3,151.8,167.1,152z M190.5,168.2c-3.1,1.2-6.4,1.2-9.5,0.8c-1,0-1.9-1-2.7-1.7c-6.6-7.1-8.5-16.4-12.2-24.9
		c-2.9-6.6-5.8-13.1-8.9-19.7c-3.3-6.8-6.2-13.5-9.7-20.3c-1.7-3.3-4.1-6.2-6.2-9.3c-0.4-0.6-0.6-1.2-1-1.7c2.1-0.8,4.1-1.4,6-2.1
		c-0.2-0.4-0.2-0.6-0.4-1c-0.4,0-1,0-1.5,0.2c-0.8,0.4-1.7,0.8-2.5,1c-1.9,0.4-3.3,0-4.6-1.7c-2.9-3.7-6.2-7.3-9.3-11
		c-1.4-1.5-3.1-2.7-4.4-4.1c-2.5-2.5-4.8-5-7.5-7.7c4.4-2.3,6,2.1,8.9,2.5c-0.6,1.4-0.8,2.1-1.2,3.1l0.2,0.2
		c0.8-0.6,1.4-1.2,2.1-2.1c4.1,4.1,10.2,5.4,12.9,11c0.2-0.4,0.6-0.6,0.8-0.8c-1.2-1.5-2.1-3.3-3.7-4.4c-2.5-1.9-5.2-3.7-7.9-5.4
		c-3.7-2.5-7.3-4.8-10.8-7.5c-3.1-2.3-2.9-2.3-1-6.4c2.9,2.3,5.8,4.4,8.5,6.6c0.4,0.4,0.4,1.4,0.4,1.5c1.4,0,2.7-0.2,3.7,0.2
		c3.5,1.5,7,3.1,10.4,5c1,0.6,1.5,1.9,2.3,3.1c0.6,0.8,1,1.5,1.5,2.9c0.4-2.5-1.7-6-3.9-7.1c-5-2.7-10-5.2-14.9-7.9
		c-2.5-1.4-4.6-3.3-7-4.8c0.4-1,0.8-1.9,1.2-3.5c3.3,1.5,6.6,2.7,9.9,4.4c0.6,0.2,0.6,1.9,0.8,3.3c0.6-0.8,1-1.5,1.5-2.5
		c2.9,1.2,5.8,2.7,8.7,3.9c1,0.4,2.3,0.6,3.5,0.8c1.9,0.4,3.1,1.4,3.5,3.3c0.8,3.1,1.5,6.4,2.3,9.5c0,0.2,0.4,0.4,1,0.6
		c-0.2-2.1-0.6-4.3-1-6.4c-0.2-1-0.4-1.9-0.8-2.9c-1.2-2.9-2.9-4.4-6.2-5.4c-3.5-1-6.6-2.9-9.9-4.3c-2.3-1.2-4.8-2.1-7.1-3.1
		c-0.8-0.4-1.5-0.8-2.5-1.2c1.4-3.7,1.4-3.7,4.6-2.9c1.4,0.2,2.9,0.6,4.1,1.4c0.8,0.4,1,1.7,1.5,2.9c0.4-0.6,0.6-1.4,1-1.9
		c7.1,1,12.4,5,17.2,10c-0.6-1.7-0.4-4.1-2.9-5c-1-0.4-1.7-1.7-2.5-2.7c-1.2-1.9-2.3-3.9-3.3-5.8c-0.4-0.6-0.4-1.4-0.4-2.1
		c0.2,0,0.4-0.2,0.6-0.2c0.8,0.8,1.4,1.4,1.9,2.1c2.5,3.1,5,6.4,7.5,9.5c2.1,2.5,1.7,5.4,1.2,8.1c-1.2,5.4-0.6,10.2,1.2,15.5
		c1,2.9,3.1,4.8,4.6,7.3c1.9,3.5,4.4,6.6,6.6,9.9c3.9,6.4,7.7,12.9,11.8,19.3c1.9,2.9,4.4,5.6,6.6,8.3c0.4,0.6,0.6,1,1,1.5
		c2.5,4.3,5,8.5,7.3,12.8c3.3,6,5.8,12.2,5.8,19.1C197.8,163,194.9,166.5,190.5,168.2z"/>
	<path class="st0" d="M119.8,93.8c-0.2,0.6-0.2,1-0.6,1.4c-3.1,2.9-4.1,6.8-5,10.6c-0.2,0.8-0.8,1.4-1.4,1.9
		c-0.2-0.8-0.8-1.7-0.6-2.3c1.2-3.3,2.1-6.4,3.7-9.5C116.7,94.6,117.8,93.3,119.8,93.8z"/>
	<path class="st0" d="M119.8,39.9c3.7,2.7,7.7,1.2,12.2,0.8C128.5,45.9,121.7,44.4,119.8,39.9z"/>
	<path class="st0" d="M133.3,36.6c-0.8,1.4-1.4,1.7-2.7,0.8c-2.9-1.9-6-3.1-9.7-2.3c-0.8,0.2-1.5,0-2.3-0.2
		C122.7,32.2,129.6,33.2,133.3,36.6z"/>
</g>
</svg>
