<?xml version="1.0" encoding="utf-8"?>
<!-- Generator: Adobe Illustrator 21.1.0, SVG Export Plug-In . SVG Version: 6.00 Build 0)  -->
<svg version="1.1" id="Layer_1" xmlns="http://www.w3.org/2000/svg" xmlns:xlink="http://www.w3.org/1999/xlink" x="0px" y="0px"
	 width="50px" height="50px" viewBox="0 0 50 50" enable-background="new 0 0 50 50" xml:space="preserve">
<path fill="#69F0AE" d="M25,0C11.2,0,0,11.2,0,25s11.2,25,25,25s25-11.2,25-25S38.8,0,25,0z M25,48.1C12.3,48.1,1.9,37.7,1.9,25
	S12.3,1.9,25,1.9S48.1,12.3,48.1,25S37.7,48.1,25,48.1z"/>
<path fill="#69F0AE" d="M36,25.4C36,25.3,36.1,25.3,36,25.4c0-0.1,0-0.2,0.1-0.2c0-0.1,0-0.3,0-0.4c0,0,0-0.1,0-0.1c0,0,0-0.1,0-0.1
	c0,0,0-0.1,0-0.1c0,0,0-0.1,0-0.1c0-0.1-0.1-0.1-0.1-0.1L28,16.5c-0.4-0.4-1-0.4-1.4,0s-0.4,1,0,1.4l6.2,6.2c-5.4,0-17.9,0-17.9,0
	c-0.5,0-1,0.4-1,1s0.4,1,1,1c0,0,12.6,0,17.9,0l-6.2,6.2c-0.4,0.4-0.4,1,0,1.4c0.4,0.4,1,0.4,1.4,0l7.9-7.9c0,0,0.1-0.1,0.1-0.1
	C36,25.5,36,25.5,36,25.4C36,25.4,36,25.4,36,25.4z"/>
</svg>
