<?xml version="1.0" encoding="utf-8"?>
<!-- Generator: Adobe Illustrator 21.1.0, SVG Export Plug-In . SVG Version: 6.00 Build 0)  -->
<svg version="1.1" id="Layer_1" xmlns="http://www.w3.org/2000/svg" xmlns:xlink="http://www.w3.org/1999/xlink" x="0px" y="0px"
	 width="44.1px" height="60px" viewBox="0 0 44.1 60" style="enable-background:new 0 0 44.1 60;" xml:space="preserve">
<style type="text/css">
	.st0{fill:#FFC107;}
</style>
<path class="st0" d="M0,22.1C-0.1,12.6,6.4,3.6,15.6,0.9c10.9-3.2,21.9,1.9,26.6,12.2c1.5,3.4,2.1,7,1.8,10.8
	c-0.4,7-2.9,13.3-6.5,19.2c-4,6.4-9.1,11.9-14.9,16.7c-0.4,0.3-0.6,0.3-1,0c-7-5.7-12.8-12.3-17-20.3c-2.2-4.3-3.8-8.8-4.3-13.7
	C0.1,24.5,0.1,23.3,0,22.1z M21.8,4.6c-9.4,0-17.1,7.6-17.2,17.1c0,9.5,7.6,17.2,17.2,17.3c9.3,0,17.1-7.7,17.2-16.9
	C39,12.3,31.4,4.6,21.8,4.6z"/>
<path d="M26.9,20c-1.2,0-2.1,1-2.1,2.1c0,1,0.7,1.8,1.7,2V27c0,1.9-1.5,3.4-3.4,3.4c-1.9,0-3.4-1.5-3.4-3.4v-5.2
	c2.2-0.2,3.8-2,3.8-4.2v-4.4h-2.4V14h1.6v3.6c-0.1,1.9-1.8,3.3-3.7,3.1c-1.7-0.1-3-1.5-3.1-3.1V14h1.6v-0.8h-2.4v4.4
	c0,2.2,1.7,4,3.8,4.2V27c0,2.3,1.9,4.2,4.2,4.2s4.2-1.9,4.2-4.2c0,0,0,0,0,0v-2.9c1.1-0.2,1.9-1.3,1.6-2.5
	C28.7,20.7,27.9,20,26.9,20z M26.9,23.4c-0.7,0-1.3-0.6-1.3-1.3s0.6-1.3,1.3-1.3s1.3,0.6,1.3,1.3C28.1,22.8,27.6,23.4,26.9,23.4
	C26.9,23.4,26.9,23.4,26.9,23.4z"/>
</svg>
