<?xml version="1.0" encoding="utf-8"?>
<!-- Generator: Adobe Illustrator 21.1.0, SVG Export Plug-In . SVG Version: 6.00 Build 0)  -->
<svg version="1.1"
	 id="Layer_1" xmlns:cc="http://creativecommons.org/ns#" xmlns:dc="http://purl.org/dc/elements/1.1/" xmlns:inkscape="http://www.inkscape.org/namespaces/inkscape" xmlns:rdf="http://www.w3.org/1999/02/22-rdf-syntax-ns#" xmlns:sodipodi="http://sodipodi.sourceforge.net/DTD/sodipodi-0.dtd" xmlns:svg="http://www.w3.org/2000/svg"
	 xmlns="http://www.w3.org/2000/svg" xmlns:xlink="http://www.w3.org/1999/xlink" x="0px" y="0px" width="20px" height="13.6px"
	 viewBox="0 0 20 13.6" enable-background="new 0 0 20 13.6" xml:space="preserve">
<g transform="translate(0,-952.36218)">
	<path fill="#F44336" d="M20,956c0-1-0.8-1.8-1.8-1.8h-6.9c-0.2-1-1.1-1.8-2.2-1.8H7.3c-1.1,0-2.3,0.6-3.3,1.4c-1,0.7-1.8,1.5-2.4,2
		H0.5c-0.2,0-0.5,0.2-0.5,0.5v7.7c0,0.2,0.2,0.5,0.5,0.5h2.3c1.1,1,2.5,1.6,4,1.6h3c1,0,1.8-0.8,1.8-1.8c0-0.4-0.1-0.7-0.3-0.9
		c0.9-0.1,1.7-0.8,1.7-1.8c0-0.4-0.1-0.7-0.3-0.9c0.9-0.1,1.7-0.8,1.7-1.8c0-0.3-0.1-0.6-0.3-0.9h4.1C19.2,957.8,20,957,20,956z
		 M19.1,956c0,0.5-0.4,0.9-0.9,0.9h-5.7c-0.3,0-0.5,0.2-0.5,0.5s0.2,0.5,0.5,0.5c0.5,0,0.9,0.4,0.9,0.9c0,0.5-0.4,0.9-0.9,0.9h-1.4
		c-0.3,0-0.5,0.2-0.5,0.5s0.2,0.5,0.5,0.5c0.5,0,0.9,0.4,0.9,0.9c0,0.5-0.4,0.9-0.9,0.9H9.8c-0.3,0-0.5,0.2-0.5,0.5s0.2,0.5,0.5,0.5
		c0.5,0,0.9,0.4,0.9,0.9s-0.4,0.9-0.9,0.9h-3c-1.4,0-2.6-0.6-3.5-1.5c-0.1-0.1-0.2-0.1-0.3-0.1h-2v-6.8h0.9c0.1,0,0.2,0,0.3-0.1
		c0.6-0.6,1.4-1.4,2.4-2.1c0.9-0.7,2-1.2,2.7-1.2h1.8c0.6,0,1.1,0.4,1.3,0.9H7.7c-0.2,0-0.5,0.2-0.5,0.5s0.2,0.5,0.5,0.5h10.5
		C18.7,955.1,19.1,955.5,19.1,956z"/>
</g>
</svg>
