<?xml version="1.0" encoding="utf-8"?>
<!-- Generator: Adobe Illustrator 21.1.0, SVG Export Plug-In . SVG Version: 6.00 Build 0)  -->
<svg version="1.1" id="Layer_1" xmlns="http://www.w3.org/2000/svg" xmlns:xlink="http://www.w3.org/1999/xlink" x="0px" y="0px"
	 width="44.1px" height="60px" viewBox="0 0 44.1 60" enable-background="new 0 0 44.1 60" xml:space="preserve">
<g>
	<path fill="#FFC107" d="M0,22.1C-0.1,12.6,6.4,3.6,15.6,0.9c10.9-3.2,21.9,1.9,26.6,12.2c1.5,3.4,2.1,7,1.8,10.8
		c-0.4,7-2.9,13.3-6.5,19.2c-4,6.4-9.1,11.9-14.9,16.7c-0.4,0.3-0.6,0.3-1,0c-7-5.7-12.8-12.3-17-20.3c-2.2-4.3-3.8-8.9-4.3-13.7
		C0.1,24.5,0.1,23.3,0,22.1z M21.8,4.6c-9.4,0-17.1,7.6-17.2,17.1c0,9.5,7.6,17.2,17.2,17.3c9.3,0,17.1-7.7,17.2-16.9
		C39,12.3,31.4,4.6,21.8,4.6z"/>
	<g id="hospital-icon">
		<path fill="#03A9F4" d="M29.5,20.8c0,1.8,0,3.6,0,5.5c0,1.3-1,2.3-2.3,2.3c-3.3,0-6.6,0-9.8,0c-1.2,0-2.1-0.8-2.3-1.9
			c0-0.1,0-0.2,0-0.3c0-3.7,0-7.4,0-11.1c0-1.1,0.7-2,1.8-2.2c0.2,0,0.3,0,0.5,0c3.3,0,6.6,0,9.8,0c1.4,0,2.3,1,2.3,2.3
			C29.5,17.1,29.5,18.9,29.5,20.8z M29.1,20.7c0-1.9,0-3.7,0-5.6c0-1-0.9-1.9-1.9-1.9c-3.3,0-6.7,0-10,0c-0.1,0-0.2,0-0.3,0
			c-0.9,0.2-1.5,0.9-1.5,1.9c0,3.7,0,7.3,0,11c0,1.1,0.8,2,1.9,2c3.3,0,6.5,0,9.8,0c1.2,0,2-0.8,2-2C29.1,24.4,29.1,22.5,29.1,20.7z
			"/>
		<path fill="#03A9F4" d="M28.7,20.7c0,1.8,0,3.6,0,5.5c0,0.9-0.6,1.5-1.5,1.5c-3.3,0-6.5,0-9.8,0c-1,0-1.6-0.6-1.6-1.6
			c0-3.6,0-7.2,0-10.9c0-1,0.6-1.6,1.6-1.6c3.3,0,6.5,0,9.7,0c1,0,1.6,0.6,1.6,1.6c0,0.1,0,0.1,0,0.2C28.7,17.2,28.7,19,28.7,20.7z
			 M20.4,21.5c0.5,0,1.1,0,1.6,0c0.6,0,1.3,0,1.9,0c0.2,0,0.3,0,0.3,0.3c0,1.3,0,2.5,0,3.8c0,0.3,0,0.3,0.3,0.3c0.6,0,1.2,0,1.8,0
			c0.3,0,0.3,0,0.3-0.3c0-1.8,0-3.7,0-5.5c0-1.4,0-2.8,0-4.2c0-0.2,0-0.2-0.2-0.2c-0.6,0-1.2,0-1.9,0c-0.2,0-0.3,0.1-0.2,0.2
			c0,1.1,0,2.3,0,3.4c0,0.1,0,0.2,0,0.2c-1.3,0-2.5,0-3.8,0c0-0.1,0-0.2,0-0.3c0-1.1,0-2.3,0-3.4c0-0.2,0-0.2-0.2-0.2
			c-0.6,0-1.2,0-1.9,0c-0.3,0-0.3,0-0.3,0.3c0,1.9,0,3.8,0,5.7c0,1.3,0,2.7,0,4c0,0.2,0.1,0.2,0.2,0.2c0.6,0,1.2,0,1.9,0
			c0.2,0,0.2-0.1,0.2-0.2c0-1.3,0-2.5,0-3.8C20.4,21.7,20.4,21.6,20.4,21.5z"/>
	</g>
</g>
</svg>
