<?xml version="1.0" encoding="utf-8"?>
<!-- Generator: Adobe Illustrator 21.1.0, SVG Export Plug-In . SVG Version: 6.00 Build 0)  -->
<svg version="1.1" id="Layer_1" xmlns="http://www.w3.org/2000/svg" xmlns:xlink="http://www.w3.org/1999/xlink" x="0px" y="0px"
	 width="50px" height="40px" viewBox="0 0 50 40" enable-background="new 0 0 50 40" xml:space="preserve">
<path fill="#CCCCCC" d="M17,20.8c-0.2,0.3-0.5,0.5-0.9,0.5c-0.2,0-0.4-0.1-0.6-0.2l-15-9.6C0.2,11.3,0,11,0,10.6
	c0-0.4,0.2-0.7,0.5-0.9l15-9.6C16-0.1,16.7,0,17,0.5c0.3,0.5,0.2,1.1-0.3,1.5L4.6,9.6c7.7,0,15.4,0,23.1,0c3.2,0,6.3,0,9.5,0
	c7.3,0,12.8,6.1,12.8,13.3c0,2.8,0.2,5.6-0.7,8.3c-1.1,3.4-3.8,6.3-7.2,7.7c-3.4,1.4-7.3,1-10.9,1c-9.8,0-19.5,0-29.3,0
	c-0.2,0-0.4,0-0.6,0c-1.3,0-1.3-2,0-2c8.8,0,17.6,0,26.4,0c3.2,0,6.3,0,9.5,0c4.2,0,7.9-2.5,9.8-6.2c1.4-2.7,1-5.9,1-8.9
	c0-6.4-4.8-11.3-11.3-11.3c-3.7,0-7.4,0-11,0c-7.1,0-14.1,0-21.2,0l12.1,7.7C17.1,19.6,17.3,20.3,17,20.8z"/>
</svg>
