<?xml version="1.0" encoding="utf-8"?>
<!-- Generator: Adobe Illustrator 21.1.0, SVG Export Plug-In . SVG Version: 6.00 Build 0)  -->
<svg version="1.1" id="Layer_1" xmlns="http://www.w3.org/2000/svg" xmlns:xlink="http://www.w3.org/1999/xlink" x="0px" y="0px"
	 width="83px" height="80px" viewBox="0 0 83 80" style="enable-background:new 0 0 83 80;" xml:space="preserve">
<style type="text/css">
	.st0{fill:#B36AE2;}
</style>
<g transform="translate(-150 -140)">
	<g>
		<path class="st0" d="M177.5,172.7C177.5,172.7,177.5,172.7,177.5,172.7c0.7-0.3,1.4-0.5,2-0.8c15.7-7,18-18.6,18-18.6
			s5.4,6.3,8.3,13c0.1,0.2,0.2,0.4,0.3,0.6c0,0,0,0,0,0.1c-0.5,8.4-2,15.1-5.7,19.4c-0.8,0.9-1.3,2-1.4,3
			c24.6,8.4,22.1-8.9,22.1-8.9s-2.9,5.9-5.9,0c-1.6-3.2,0-10.7-3.1-22.6c-3.3-12.8-12.9-17.8-20.7-17.8s-17.5,5-20.7,17.8
			c-3,11.9-1.4,19.4-3,22.6c-3,5.9-6,0-6,0s-2.5,17.4,22.2,8.9c-0.2-1-0.6-2-1.4-2.9C179.8,183.1,178.3,178.4,177.5,172.7z"/>
		<path class="st0" d="M224.5,202.8c-3.5-3-13.2-3.5-18.2-3.6c0,0-5.9,17.8-14.8,17.8c-8.9,0-14.8-17.8-14.8-17.8
			c-4.9,0.1-14.7,0.5-18.2,3.6c-4.8,4.1-8.5,17.2-8.5,17.2h41.5H233C233,220,229.3,206.9,224.5,202.8z"/>
	</g>
</g>
</svg>
