<?xml version="1.0" encoding="utf-8"?>
<!-- Generator: Adobe Illustrator 21.1.0, SVG Export Plug-In . SVG Version: 6.00 Build 0)  -->
<svg version="1.1" id="Layer_1" xmlns="http://www.w3.org/2000/svg" xmlns:xlink="http://www.w3.org/1999/xlink" x="0px" y="0px"
	 width="200px" height="214.5px" viewBox="0 0 200 214.5" style="enable-background:new 0 0 200 214.5;" xml:space="preserve">
<style type="text/css">
	.st0{fill:#BBBBBB;}
</style>
<g id="jockitch-man">
	<path class="st0" d="M192.3,214.2c-20.1,0-39.7,0-59.3,0c-4.1-13-8.4-26-12.5-39.2c-0.7,0.1-1.4,0.1-2.1,0.3c0,3.2-0.3,6.4,0,9.6
		c1.1,9.6,2.6,19.2,4,29.4c-4,0-6.7,0-9.6,0c-14.2,0-28.5-0.1-42.7,0.1c-4.5,0.1-6-1.5-6.8-5.6c-3-17.7-6.7-35.3-9.2-53.1
		c-1.9-14-2.7-28.1-3.8-42.1c-0.4-5.3,0.1-10.7-0.5-15.9c-0.3-2.3-1.6-5.2-3.4-6.7c-10.4-9.3-21.1-18.2-31.4-27.4
		C10,59.4,5.4,54.8,1.6,49.9c-1.5-1.9-2.1-5.8-1.2-7.9C2.6,36,5.7,30.4,8.7,24.8c0.5-1.1,1.9-1.8,3.8-2.1c-0.3,0.8-0.3,1.8-0.7,2.6
		c-2.1,4.2-4.2,8.4-6.3,12.6c-3,6.4-2.5,9,2.7,13.7C22.6,64.5,37,77.4,51.2,90.4c3,2.7,5.5,6.2,8.8,8.2c3.4,2.2,7.5,4.4,11.2,4.4
		c15.3-0.1,29.3-5.9,43.1-11.2c-8.8,0-17.4-0.4-25.9,0.1c-8.9,0.5-16-2.3-21.9-8.8c-3.6-3.8-7.7-7-11.2-10.8
		C47.1,63.8,39,55.1,30.7,46.2c-0.7,0.4-2.2,1.4-3.7,2.2c-0.4-0.3-0.8-0.5-1.2-0.8c3.4-10.1,9.7-18.9,14.1-28.6
		c0.7,0.3,1.4,0.5,2.1,0.8c-1.8,3.8-3.4,7.8-5.3,11.6c-0.7,1.5-1.8,2.9-2.5,4.4c-1.4,2.9-1.4,5.3,1.1,8.1c5.5,6,10.5,12.6,15.8,18.9
		c0.7,0.8,1.8,1.4,3,2.2c4.8-20.7,0-41.2,1.6-61.6C56.3,3.2,57,3,57.5,2.7C58.3,4.5,60,6.4,60,8.2c0.1,9.7,0.1,19.3-0.1,29
		c-0.3,9.3-1.2,18.6-1.6,27.9c-0.1,1.8,0.5,4.1,1.6,5.2c4.7,4.8,9.6,9.3,14.8,13.6c1.6,1.4,4.2,1.6,6.6,1.9
		c7.3,0.8,14.7,1.5,21.9,2.1c1.4,0.1,3-0.1,4.4-0.7c4.2-1.5,8.4-3.4,12.7,0.1c1,0.8,3.3,0.3,4.9,0c12.3-2.1,22.7-8.8,33.6-14.5
		c1-0.5,1.6-2.5,1.6-3.8c-0.7-21.8-1.5-43.4-2.2-65.2c0-1.2,0.3-2.5,0.5-3.7c0.4,0,1,0,1.4-0.1c0.7,5.6,1.8,11.2,2.2,16.8
		c1,14,2.5,28.1,1.9,42.2c-0.3,9.7,4.5,17.4,7.3,26.7c0.3-1.5,0.5-2.3,0.7-3.2c0.1-1,0.1-2.1,0.1-3c1.1-13.8,1.9-27.7,3.4-41.5
		c1-9-3.8-16.4-6.3-24.7c-0.4-1.4-1-2.7-0.7-4.5c4.2,3.3,6.7,7.8,7.9,12.6c2.9,11.1,2.9,22.5,1.1,34c-1.1,7.5-1.1,15.3-1.8,23
		c-0.5,6.4,0.1,13-4.4,18.6c-1,1.2-0.7,3.6-1.1,5.3c-2.5,13.7-10.5,24.8-17.4,36.4c-3,5.2-6.6,9.9-5.5,16.7
		c2.9-4.1,5.6-8.1,9.3-13.4c0.4,7.1-5.8,12.2,0.1,19.2c2.5-7,4.5-12.9,7-19.7c3.3,7.7-4.2,14.9,0.7,21.2c0.7,0.1,1.2,0.1,1.9,0.3
		c1.4-6.2,2.9-12.5,4.2-18.6c0.7,0.1,1.2,0.1,1.9,0.3c-0.4,6.3-0.8,12.6-1.2,18.8c0.7,0.1,1.4,0.3,2.1,0.3c1-2.6,2.1-5.1,3-7.7
		c1.9-5.5,3.8-11,5.5-16.6c1.4-4.8,3.4-9.7,3.6-14.5c0.7-22.6,4.8-44.7,8.6-66.8c1.2-6.8,2.1-13.8,2.6-20.8
		c1-10.7-3.6-19.9-8.5-28.9c-0.8-1.5-0.7-3.4-1-5.2c1.6,1,4.1,1.5,4.7,2.7c2.9,7.5,6.6,15.2,7.4,23c2.2,21.4-4,42.2-6.8,63.3
		c-1.8,12.6-2.6,25.3-4,37.9c-0.4,3.7-0.7,7.5-2.2,10.7c-2.7,5.6-1.8,11.1-1.1,16.7c1.8,14.9,3.7,29.7,5.5,44.5
		C191.3,206.4,191.7,210.1,192.3,214.2z M163.9,76.8c-31.2,14.4-63.6,25.1-97.5,30.7c1.9,0.5,3.7,1.1,5.6,1.2
		c10.4,0.7,20.3-1.6,29.6-6.2c4.4-2.2,7.8-2.2,10,3c0.8,1.9,2.2,3.6,2.7,4.4c11.1-6.8,21.8-13.6,32.5-20.1
		C152.8,86,160,83.7,163.9,76.8z M137.6,108.6c-0.4,0.4-0.8,0.8-1.2,1.2c0.3,9.7,7.4,15.1,14.1,21.1c0.8-1.5,1.5-2.3,2.1-3.6
		c-6.8-3.4-11.1-8.8-12.3-16.2C140.2,110.3,138.6,109.4,137.6,108.6z M150.4,108.2c6,3,11.2-0.4,11.4-6.8
		C158.2,103.6,154.5,105.6,150.4,108.2z M120.5,130.8c2.5-4.7,0-12.3-5.5-15.9C117.1,120.8,118.7,125.6,120.5,130.8z M96.8,120.4
		c1.5-2.6,3-4.1,2.7-5.1c-0.4-1.6-2.2-2.7-3.3-4.1c-1,1.1-2.7,2.3-2.6,3.3C93.8,116,95.2,117.7,96.8,120.4z M54.1,122.6
		c-0.4,0.3-1,0.4-1.4,0.7c2.1,1.9,3.8,4.1,6.2,5.6c1.1,0.7,3.2,0.1,4.8,0.1c-0.1-0.3-0.1-0.7-0.3-1
		C60.4,126.3,57.2,124.4,54.1,122.6z"/>
	<path class="st0" d="M108.7,48.4c-2.5,2.2-4,3.6-5.5,4.8c-1.1-1.4-3.3-3.2-3-4.1c0.5-1.8,2.5-3.3,4.1-4.4
		C104.6,44.5,106.5,46.4,108.7,48.4z"/>
</g>
</svg>
