<?xml version="1.0" encoding="utf-8"?>
<!-- Generator: Adobe Illustrator 21.1.0, SVG Export Plug-In . SVG Version: 6.00 Build 0)  -->
<svg version="1.1" id="Layer_1" xmlns="http://www.w3.org/2000/svg" xmlns:xlink="http://www.w3.org/1999/xlink" x="0px" y="0px"
	 width="200px" height="295.3px" viewBox="0 0 200 295.3" style="enable-background:new 0 0 200 295.3;" xml:space="preserve">
<style type="text/css">
	.st0{fill:#BBBBBB;}
</style>
<g id="pinworm-lady">
	<path class="st0" d="M5.7,0C5.5,12.5,5,25,5,37.6c0,4.2,1,8.3,1.8,12.5c0.5,2.2,2,3.5,4.5,3.2c2.2-0.3,4.3-0.3,6.8-0.5
		C15,44.8,10,38,10.5,29.3c3.8,1.8,15,29,18.3,45.6c3.2,16.3,5.5,32.6,8.2,49.1c2.5-0.7,5.8-1.3,9-2.3c7.2-2.3,14.5-2.2,22-2.7
		c8.5-0.5,17.2-1.7,25.5-3.5c8.8-1.8,17.2-5.5,26-6.7c5-0.7,8.3-2.2,9.2-6.5c0.5-2.7-1-6-2.3-8.3c-0.7-1.2-3.5-1.8-5.3-1.7
		c-13.2,2-26,4.2-39,6.3c-3.2,0.5-6.3,1.3-9.7,1.5c-1.5,0.2-3-1-4.5-2.3c18.3-4.3,36.5-8.3,55.3-10.3c-1.5-0.3-3-0.8-4.7-0.8
		c-6.7,0-13.3,0.2-19.8,0.2c-16.3,0-31.3-5.2-45.5-13c-0.7-0.3-1.2-1-2-1.7c1.3-3.3,3.3-1.5,5-0.8c6.3,2.5,12.3,5.7,18.8,7.7
		c4.3,1.3,9.2,1.8,13.7,2.2c7.7,0.7,15.3,1,23.5,1.5c-0.5-0.5-0.7-1-1-1c-8.3-3-16.5-6-24.8-8.8c-3.5-1.2-7.2-1.5-10.5-3
		c-1.7-0.7-2.8-3-3.8-4.7c-0.3-0.5,0.5-1.8,1-2.3c0.5-0.3,1.8-0.2,2.2,0.3c3.5,4,8.7,4.2,13.2,5.7c9.2,3.2,18.3,6,27.5,8.8
		c1.2,0.3,2.5,0.5,3.2,0.7c0.3-17.8,0.7-35.5,1-53c0-2.7,0.2-5.5,1-8c0.5-1.3,2.5-2.3,5.2-4.3c-0.2,10,7.3,12,12.5,15.7
		c6.2-9.3,12.2-19,18.2-28.8c3,0,6.2,0,9.2,0c5,4.7,10.3,9.2,15,14.2c7,7.3,15.3,13.8,18.5,24.2c1,3.5,1,6.7-1.8,9.5
		c-1.5,1.5-2.5,3.8-3.7,5.8c-9.8,19.3-21.7,37-36.8,52.5c-3.7,3.7-8.3,6.3-9.5,11.8c-0.2,1-0.5,2.2-0.2,3c4.3,11,8.2,22.3,13.2,33
		c5.2,10.8,11.3,21,17.2,31.5c2.8,5.3,2.2,6.5-3.7,7.7c-2.3,0.5-4.8,1.2-6.7,2.5c-1.5,1.2-2.8,3.3-3,5.2
		c-1.5,12.7-2.8,25.2-4.2,37.8c-0.7,6.8-1.2,13.7-1.7,20.5c-1,12-2.2,24-3.3,36c-1.3,0-2.8,0-4.2,0c0-2.3-0.2-4.7,0-7
		c1.7-16.2,3.2-32.1,5-48.1c1.3-11.8,2.7-23.7,4-35.5c0.3-3.5-1.3-5.2-4.8-4.7c-2.5,0.5-5.2,0.8-7.7,1.7c-10.5,3-21.7,2.8-31.5,8.2
		c-9.3,5-13.3,11-10.5,21.2c4.2,14,4.2,28.3,5.7,42.6c0.7,7.2,1.2,14.5,1.7,21.8c-1.7,0-3.3,0-5,0c0-4.2,0.2-8.3-0.3-12.3
		c-0.8-10.8-2-21.5-3.2-32.1c-0.5-4.3-0.7-8.8-2-12.8c-2.5-7-3.2-14-1.7-21.2c0.2-0.8-0.5-1.8-0.8-2.7c-1.8,2.5,0,6.7-4.5,6.7
		c-3,0-3.5,1.8-4,3.7c-0.7,3.5-0.7,7.2-1.5,10.5c-2.7,11-5.5,21.8-4.7,33.5c0.7,9.2,0,18.3-3.2,27c-1.3,0-2.8,0-4.2,0
		c0-1-0.3-2,0-2.8c3.3-8.5,2.7-17.3,2.2-26.2c-0.3-8.3-0.7-16.3,2.3-24.5c1.8-4.7,2-10,3-15c0.3-2,0.7-4.2,1-6.7
		c-19,0.2-37-0.7-54.6,3.2c1.7,7.7,3.5,14.7,4.7,21.7c1.3,7.5,2,15.2,3,22.7c1.2,9.2,2.5,18.3,3.7,27.7c-1.3,0-2.8,0-4.2,0
		c-1.7-13-3-26-5-39c-1.7-10.3-4.2-20.5-6.3-30.7c-0.2-1-1.2-2.5-2-2.7c-3.3-0.8-3.8-3-3.3-6c1.2-7.7,2.3-15.3,3.5-23.2
		c1.3-8.7,3-17.5,4-26.2c1-9,1.5-18,1.7-27.2c0.2-9.5-0.2-19.2-0.8-28.7c-0.3-5.5-2.5-10.2-7.5-13.3c-1.5-1-3-2.5-3.8-4.2
		c-5.2-10-11.2-19.7-12.8-31.2c-0.2-1.7-2.2-3-3.3-4.5c-0.7-0.5-1.5-1.2-1.5-1.8C1,51.5,0,45.8,0,40.3C0,29,0.5,17.8,0.8,6.5
		c0-2.2,0.5-4.3,0.8-6.5C3,0,4.3,0,5.7,0z M118.8,113.8c0,0-0.5,0-1,0.2c-10.7,2.8-21.2,6.2-31.8,8.5c-7,1.5-14.2,1.7-21.3,1.8
		c-5.7,0.2-11.5-0.2-16.8,2.5c-1.5,0.7-3.5,0.5-5.2,0.7c-3.3,0.2-7,3.3-7,6.2c0,5.3,0.3,10.5,0,15.8c-0.5,7.3-1.5,14.7-2.2,22
		c-1.2,10.7-2.3,21.2-3.5,31.8c-0.2,1.3-0.7,2.7-0.7,4c-0.2,2.8-0.2,5.7-0.2,8.3c0,3,1.7,2.8,3.8,2.5c3.3-0.7,6.5-1.7,9.8-1.7
		c16.2-0.2,32.3,0,48.5,0.3c3.2,0,4.7-1.2,4.3-3.8c-1.8-13.7,5.5-26.7,2.7-40.3c-0.3-1.2,0.8-2.8,1.3-4.2c0.7,0.2,1.3,0.2,1.8,0.3
		c0.3,5.3,0.7,10.7,1.2,16.3c2.7-3.7,5.2-6.8,7.7-10.2c0.3,0.2,0.8,0.2,1.2,0.3c0.3,1.3,0.5,2.8,0.7,3.2c-1.8,1.3-3.3,1.8-3.7,2.8
		c-1.3,3.5-2.5,7-3.5,10.7c-0.7,2.2-0.5,5-1.8,6.5c-3.5,4-4.2,7-1.5,11.8c2.2-0.5,4.5-0.8,6.5-1.8c9.2-4.5,18.8-7.5,29-9.2
		c7.8-1.3,15.7-3,23.3-5c4.2-1.2,8-3.2,11.8-5.2c0.5-0.3,0.8-1.8,0.7-2.5c-1.2-3.2-2.2-6.5-3.8-9.5c-7.8-13.3-15.5-26.8-20-41.8
		c-1.5-4.8-3.8-9.3-6.2-14.8c-2.2,4.2-3.7,7.5-1.8,11.2c2.2,4.2,4,8.5,6.8,12.3c4.3,6.3,5.5,13,3.8,20.2c-0.3,1.3-1.8,2.3-2.8,3.5
		c-1.2-1-2.5-2-3.5-3.3c-1-1.3-1.5-2.8-2.8-5.3c-1.2,5-2.2,8.7-3,12.7c6,2.2,11.3,4.8,12.8,11.5c-2.2-1.7-3.8-4.2-6-5.7
		c-2.3-1.5-6.3-3.7-7.8-2.8c-3.7,2.2-6.7,2.3-10.5,0.8c0,5.8,0.7,11.5-4,16c1-5.2,2-10.3,2.8-15.7c-3.3-1.2-5.3-2.7-7.5-4
		c-1.8-1.2-3.5-2.5-5.5-3.3c-5.2-2.2-6.3-6-3.8-10.8c1.2-2.2,1.8-4.8,2.2-7.3c0.5-3.8,0.2-7.7,0.8-11.3
		C114.4,130.6,116.8,122.3,118.8,113.8z M131.8,174.1c2.3,0.5,4.3,0.2,5.2-3.7c0.7-3.7,2.3-7.2,3.2-11c1-4.3,0.7-9.2,2.3-13.2
		c1.5-3.5,0.7-5.5-1.3-8.2c-4.2-6-3.8-18.7,0.8-24.3c2.8-3.5,6.3-6.5,9.5-9.7C165.6,90,177.2,74,186.7,56.3c1.7-3.2,3.2-6.3,5.2-9.3
		c3.7-5.5,4-8.3,0.2-13.8c-7.5-10.5-17.5-18.8-27.2-27.5c-3.3-3-5.3-2.5-7.7,1.3c-2.7,4.7-5.5,9.3-8.5,13.8
		c-2.8,4.5-2.8,6.2,1.8,9.2c3.8,2.5,7.8,4.7,12,6.8c2.2,1.2,4.5,2,6.8,2.7c1.3,0.3,2.8-0.2,4.2-0.2c-0.3,1.5-0.3,3.2-0.8,4.5
		c-0.7,1.3-2,2.2-2.8,3.2c-2.7,3-5.8,5.8-7.8,9.3c-5.8,9.7-10.7,20-16.7,29.5c-4.3,7-10.2,12.8-14.5,19.8
		c-4.3,7-11.5,12.3-12.3,21.7c-0.8,8.2-4.5,15.8-3.7,24.2c0.2,2.3-1.2,4.8-1.8,7.3c-0.5,2.2-1.2,4.3-1.7,6.5
		c0.5,0.2,0.8,0.2,1.3,0.3c1.7-3,3.7-5.8,5-9.2c1.2-3.2,1.7-6.7,2.3-10.2c0.5,0.2,1.2,0.3,1.7,0.5c1,7.3-2.7,13.3-6.5,19.3
		c2.2,3.2,4,2.5,6.2-0.2c2.7-3.2,3.3-6.8,3.7-10.8c0.3-3.7,2.5-7.3,4.2-10.8c0.3-0.5,1.8-0.5,2.8-0.8c0,0.7,0.3,1.5,0,1.8
		c-4.7,4.2-3.5,9-2.3,14.2c0.7,2.7-0.2,4.8-3,6.5c-2,1.2-3.5,3.3-5.7,5.3c6.2,1.5,9.5-0.8,11.2-6.5c1-3.2,1.5-6.5,2.8-9.7
		c1-2.3,2.2-2.2,3.2-0.7C136.3,161.4,134.1,167.6,131.8,174.1z M125.8,25.5c-0.7,2.2-1.3,3.5-1.3,4.8c-0.2,8.7,0.8,17.5-0.3,26.2
		c-1.8,12.5,0.8,24,6,35.1c1.7,3.5,3.2,4,5.7,0.8c3.7-5,6.8-10.5,10.2-15.8c6.3-9.5,10.2-20.5,17.5-29.3c1.8-2.2,1.7-3.7-1-5.2
		c-5-2.8-10-6.2-15-9c-1.2-0.7-3.7-0.8-4.3,0c-3,3-5,1.7-7.7-0.7C132.9,30.2,129.6,28.3,125.8,25.5z M27,95.8c0.7-0.3,1.3-0.5,2-0.8
		c-0.2-2.7,0-5.3-0.7-7.8C26,78.6,22.8,70.3,21,61.8c-0.8-4-2.7-3.8-5.3-3.5c-1,0.2-2.2,0.7-3.2,0.7c-2.5,0-2.5,1-2.2,3.3
		C11.8,72.5,17,81,21.5,89.8C22.7,92.1,25.2,93.8,27,95.8z M148.6,164.7c2.8-6,1.3-15.2-3.3-19.5
		C143.9,152.1,144.8,158.4,148.6,164.7z"/>
</g>
</svg>
