<?xml version="1.0" encoding="utf-8"?>
<!-- Generator: Adobe Illustrator 21.1.0, SVG Export Plug-In . SVG Version: 6.00 Build 0)  -->
<svg version="1.1" id="Layer_1" xmlns="http://www.w3.org/2000/svg" xmlns:xlink="http://www.w3.org/1999/xlink" x="0px" y="0px"
	 viewBox="0 0 597.3 117.9" style="enable-background:new 0 0 597.3 117.9;" xml:space="preserve">
<style type="text/css">
	.st0{fill:#999999;}
	.st1{enable-background:new    ;}
	.st2{fill:#666666;}
</style>
<path id="arrow" class="st0" d="M53.1,109c-4-2-7.9-4.1-11.7-6.1c-0.2,0.2-0.3,0.4-0.5,0.6c1.1,1.3,1.9,3,3.2,3.9
	c4.7,3.5,9.5,6.9,14.2,10.2c0.9,0.7,1.7,0.2,2.2-0.7c0.6-1.5,1.2-3.1,1.7-4.7c1.2-4.1,2.5-8.2,3.6-12.3c0.2-0.5,0-1-0.3-1.6
	c-3.5,3.6-4.9,8.4-7.1,12.8c-0.1-0.1-0.3,0-0.4-0.1c-0.4-1.1-0.9-2.3-1.2-3.5c-1.3-5.1-3.2-10.2-3.8-15.5c-0.9-7.8,1.5-14.9,6-21.5
	c4-5.8,9.1-10.2,15.2-13.7c1-0.6,2-0.9,3-1.5c0.5-0.4,0.8-0.9,1.3-1.4c-0.2-0.2-0.3-0.3-0.5-0.5c-1.9,0.8-3.9,1.2-5.6,2.2
	c-4.9,2.6-9.7,5.1-13.4,9.4s-6.4,9.1-7.8,14.5c-2.3,9-1.4,17.8,1.3,26.6c0.2,0.6,0.3,1.2,0.5,1.7C53.1,108.4,53.1,108.7,53.1,109z"
	/>
<g class="st1">
	<path class="st2" d="M24.9,18.3L24.6,19l-0.1,1.2l-0.4,0.3c-0.1,1-0.5,1.6-1.1,1.8l-0.3,0.1L20.6,24l-0.6,0.4l-1,1.2l-0.6-0.1
		l-0.4,0.3l-0.7,0.3l-1.8,0.9c-0.1,0-0.3-0.2-0.6-0.3c-0.2,0.2-0.4,0.4-0.8,0.5h-0.1l-0.7,0.6l-0.1-0.1h-0.7l-0.3,0.3l-1.4,0
		l-1.8,0.4H8.5c-0.2,0-0.4,0-0.6,0l-1-0.1l-0.2-0.2l-1.4-0.2l-0.6-0.3H3.8v-0.4l-0.7-0.7l-0.9-0.4l-0.4-1.1l0-0.8l-0.2-0.3l0-1.6
		L2,20.5v-0.9l0.1-0.2v-0.7l0.5-0.5v-0.4l0.2-0.4v-0.4L3,17l-0.2-0.4l0.6-0.4l0.7-1.4l1.5-2.1l0.4-0.2C6,12.3,6.1,12.2,6.2,12
		l0.4-0.3v-0.6L7.1,11c0.4-0.3,0.8-0.5,1.2-0.6l0.2-0.2c0.2-0.1,0.8-0.2,1.9-0.4l1-0.1l1.2,0.1h0.7h1h0.2h0.1h0.2h0.2l1.2,0L15.9,10
		l0.5,0.1c0.1-0.1,0.2-0.2,0.2-0.4c0.1,0.2,0.4,0.4,0.8,0.4l0.3,0.3h1.1l2.4,1l0.3,0.8l0.2,0.3l0.6,0.3l1,1.6l0.6,0.7
		c0.6,1.5,1,2.4,1,2.7V18.3z M22.2,18.5l-0.2-1l0.2-0.3L22,16.6c0,0,0-0.1,0-0.2c0-0.1,0-0.1-0.1-0.2l-0.6-0.4l-0.2-0.6l-0.3-0.1
		l-0.1-0.5l-0.9-0.8l-0.5-0.4L19,13.4c-0.6-0.5-1.6-0.8-3.1-1.2c-0.2,0-0.3,0-0.4,0l-0.2,0L14.8,12l-0.4,0.2
		c-0.4-0.1-0.6-0.2-0.6-0.2c0,0-0.1,0-0.3,0.1s-0.3,0.1-0.4,0.1c-0.1,0-0.2,0-0.3,0c-0.2,0.3-0.6,0.5-1.2,0.8l-0.5-0.1l-0.5,0.3
		L10,13.1c-0.4,0.3-0.9,0.7-1.5,1l-0.2,0.3l-0.2,0.8l-0.8,0.4l-0.1,0.2C7,16,6.8,16.3,6.6,16.5v0.6l-0.5,0.2L6,17.4l-0.3,1.1
		l-0.5,0.3c-0.1,1.2-0.3,2.1-0.6,2.6c-0.2,0.3-0.3,0.6-0.3,1.1l-0.1,0.4l0.1,0.3l0.1,0.5l0.4,0.5l0.1,0.5l0.4,0.4
		c0.7,0.4,1.3,0.6,1.8,0.6l1.5-0.4l0.3,0.3h0.4l0.1-0.1l1.1-0.2l1.2,0.2c0.2-0.2,0.4-0.3,0.7-0.3c0.6-0.3,1-0.5,1.4-0.5l0.8-0.4
		l0.6,0l0.5-0.4l1.1,0c0.1,0,0.2,0,0.3,0l0.1-0.1c0.2-0.2,0.4-0.4,0.8-0.5l0.4-1l0.3,0.2l0.3-0.1l0.5-0.5l0.2,0.1l0.6-0.4l1.1-1.1
		l0.5-0.1l0.2-0.5l0.3-0.2L22,19L22.2,18.5z"/>
	<path class="st2" d="M41.2,14.4l-0.3,1.2l-1.3,0.2l-0.7,0.5L38.4,16l-0.5,0.3l-0.5,0.2L37,16.7l0,0.1l-0.7,0.4l-0.5,0.7h-0.3
		c-0.4,0.4-0.7,0.7-0.8,0.8l-0.5,0.8l-0.2,0.1c-0.1,0.2-0.2,0.5-0.3,0.9l-0.5,0.2L33,21l-0.3,0.4l-0.1,0.5l-0.3,0.1v0.5l-0.1,0.1
		c0.1,0.1,0.2,0.3,0.3,0.4l-0.5,0.2l-0.1,0.5l-0.4,0.6l0.2,0.5l-0.5,0.6c0,0.2,0.1,0.4,0.1,0.5c0,0,0,0.1,0,0.1c0,0.1,0,0.1,0,0.2
		l0.1,0.3l0.6,0.6l-0.5,0.8l-0.4,0.3l-1,0.5l-1.3-0.5v-0.8l-0.1-0.3l0.1-0.5c0-0.4-0.1-0.7-0.1-0.9c0-0.1,0-0.2,0-0.3
		c0-0.1,0-0.2,0-0.3l0-0.4c-0.2-0.2-0.3-0.4-0.3-0.6c0-0.2,0.1-0.4,0.3-0.6c0-0.1,0-0.5-0.1-1.1l0.1-0.1l-0.1-0.5l0.1-0.4l-0.1-0.3
		l0.1-0.8l-0.2-0.4l0.1-0.4l-0.1-0.5c0-0.1,0-0.3,0-0.6c0-0.4,0-0.6-0.1-0.7l0.1-0.2l-0.1-0.6L28,16.7l0.2-0.6L28,15.9l-0.1-0.9
		v-0.3c-0.1-0.1-0.2-0.3-0.2-0.5c0-0.5,0.5-0.9,1.6-1.2l0.9,0.2l0.2,0.7l0.4,0.5l-0.1,1c0.1,0.5,0.2,1,0.3,1.6l0.1,0.6
		c0,0,0,0.2,0.1,0.4c0,0.1-0.1,0.3-0.2,0.5l0.1,0.7l-0.1,0.8l-0.1,0.4l0.1,0.1l0.1,0.4c0.1-0.2,0.2-0.3,0.3-0.5l0.1-0.5
		c0.1-0.1,0.2-0.3,0.3-0.3l0.1-0.5l0.5-0.3l0.1-0.4l0.4-0.4l0.3-0.5c0.3-0.3,0.6-0.6,0.9-0.6l0.1-0.1l0.3-0.5l0.4-0.1l0.1-0.1
		l0.1-0.2l0.4-0.2l0.2-0.3l0.2,0l0.3-0.1l0.1-0.2l0.4-0.2l0.6-0.4l0.9-0.3c0.3,0,0.5-0.1,0.5-0.1v0c0,0,0,0,0,0h0
		c0.1,0,0.2,0,0.4-0.1c0.1-0.1,0.3-0.1,0.5-0.1c0.1,0,0.3,0,0.5,0.1C40.8,13.5,41.1,13.8,41.2,14.4z"/>
	<path class="st2" d="M72.1,20.8l-0.5,1.1c-0.1,0.8-0.5,1.2-1.1,1.3l-0.3,0.5l-1.2,0.8l-0.3,0.4l-0.6,0.6c-0.2,0-0.5,0.1-0.8,0.1
		c-0.6,0.6-1.4,1-2.2,1.3l-0.6,0.3c-0.4,0-1.1,0.2-2,0.5l-0.7,0.4L61.2,28c-0.4,0.2-0.8,0.3-1.2,0.3c-0.3,0-0.5,0-0.8-0.1
		c0,0.1-0.1,0.1-0.4,0.1c-0.2,0-0.6-0.1-1-0.2h-0.3l0.1-0.1L57,28.1L56.7,28l-0.4,0.1l-1.1-0.4l-0.5-0.3l-0.9-0.3l-0.2-0.4
		c-0.7-0.1-1.2-0.4-1.3-0.9v-0.1h0.1c-0.2-0.2-0.5-0.7-0.7-1.3c-0.2,0-0.4-0.3-0.6-0.7c-0.2-0.4-0.3-0.9-0.3-1.3c0-0.3,0-0.6,0-0.9
		c-0.1-0.2-0.1-0.5-0.1-0.9l0.1-0.6V19l0.3-0.1l0-0.2l0.5-1.6l0.5-1l0.3-0.8c0-0.3,0.3-0.7,0.6-1.2l0.1-0.2L53,13.2l0.8-0.4
		c0.2-0.2,0.4-0.4,0.5-0.5l0.1-0.8l0.5-0.3l0.2-0.6c0.5,0,0.8-0.2,1-0.3c0.3-0.4,0.6-0.7,1-0.8l0.3-0.3l0.9-0.3L59,8.6l0.7,0.3
		c0.6-0.1,0.9-0.2,1.1-0.2h0.4l0.2,0.1l0.4,0c0.6,0.3,1.2,0.5,1.7,0.6L64,9.8l2.1,1.2l0.3,0.5l0.4,0.3l0.3,0.8l0.2,0.5l0.1,0.7v0.9
		c0,0,0,0.2,0,0.5v0.1c0,0.7-0.7,1.3-2.1,1.6l-0.7-0.5L64,15.9l-0.2-0.8l0-0.5L63.7,14l0-0.9l0.1-0.4l-0.2-0.3
		c-0.1-0.1-0.3-0.2-0.5-0.3L63,12c-0.7-0.2-1.1-0.4-1.1-0.6h-0.7L61,11.3l-0.2,0.4l-0.7-0.4l-0.2,0.1l-0.4-0.1l-0.4,0.3
		c-0.2-0.1-0.5-0.1-0.7-0.1l-0.5,0.6l-1,0.9l-0.9,1.2l-0.2,0.1l-0.3,0.8l-0.4,0.3v0.3l-0.7,1l-0.3,1.4v0.1l-0.3,0.6l0.3,0.6
		l-0.4,0.3v0.1L53.6,20l0,1l-0.1,0.8l0.3,0.5l0.1,0.2l0.3,0.3v0.5l0.4,0.5l-0.1,0.3l0.5,0.5l0,0.2l1.3,0.5l0,0.2l0.9,0.1l0.4,0.3
		l0.8-0.3l0.4,0.4l0.2,0c0.3-0.2,0.6-0.3,0.8-0.3c0.1,0,0.2,0,0.4,0h0.5l0.3,0.2l0.3-0.1c0.2,0,0.4,0,0.5,0c0.3-0.3,0.8-0.5,1.3-0.5
		c0.2-0.2,0.5-0.3,1-0.3c0.1-0.1,0.5-0.3,1-0.5c0.3,0,0.5-0.1,0.7-0.2l0.3-0.5l0.5-0.1l0.5-0.2l0.4-0.4l0.6-0.3l1.9-1.8l1.2-0.6
		L72.1,20.8z"/>
	<path class="st2" d="M88.7,27.4c0,1-0.5,1.4-1.6,1.4c-0.5,0-0.9-0.2-1.1-0.6c-0.2-0.3-0.4-1-0.6-1.9v-0.5c0.1-0.1,0.1-0.2,0.1-0.4
		c0,0,0-0.1,0-0.2L85,24.5l0.4-0.7l-0.2-0.8l0.2-0.4v-0.5v-0.4l-0.1-0.6l0.1-0.3v-1.2v-1.5l-0.2-1.2l0.2-0.4l-0.3-0.9l-0.3,0.3
		L84,16.1L83,17.5l-0.4,0l-0.7,1l-0.1,0.4l-0.4,0.2l-0.4,0.6l-0.2,0.4l-0.2,1.3l-0.7,0.8l-0.2,0.5L79.3,23l-0.2,0.9l-0.8,0.6
		l-0.1,1.3h-0.3L77.8,26l-0.6,1.1l-0.6,0.6L76,28.5l-0.6-0.2h-0.5l-0.4-0.6l-0.4-1.3v-1.9L74,23.9l0.1-0.7v-1.7l0.2-0.1l0.2-2.5
		l0.1-0.5l0-0.8l0.2-0.1l0.1-1.2l0.1-0.4l-0.1-0.5l0.1-0.2l-0.1-0.1l0.1-1L74.7,14l0.3-0.5l0-1l-0.4-1l0.3-0.3l-0.3-1V9.6l-0.1-0.3
		l-0.2-1.2l-0.2-0.5l-0.5-1l0.4-0.5l0.4-0.6h0.3c0.5,0,0.9,0.2,1.2,0.6l0.5,0.4l0.2,0.6l0.5,0.5L76.9,8l0.3,0.8v0.1v0.1v1.2l0,1.6
		l0.3,1l-0.2,0.4l0.1,0.6l-0.2,0.5l0.1,0.9l-0.1,0.7V16v2.2v0.5L77,19l-0.1,1.2l-0.1,0.5l0.2,1l-0.2,0.3v0.7
		c0.3-0.1,0.4-0.2,0.4-0.4l0.3-0.3l0.3-0.5l0.1-0.7l0.4-0.6l0.2-0.7l0.5-0.6l0.1-0.7l0.3,0v-0.3l0-0.4l0.5-0.2v-0.3l0.4-0.1l0.1-0.6
		l0-0.3l0.6-0.3l0.2-0.2L81,15.2l0.3-0.1l0.3-0.6H82l0.4-0.3c0-0.2,0-0.3,0-0.4l0.4-0.2c0.4-0.4,0.8-0.6,1.2-0.6v-0.1
		c0.6-0.3,1.1-0.5,1.3-0.5c0.4,0,0.7,0.2,1,0.5c0.3,0.1,0.4,0.3,0.5,0.5l0.3,0.2l0.1,0.5l0.5,0.8v2.9v1.3l0.2,0.3v2.7l-0.2,0.5v0.7
		l0.2,0.8l-0.2,0.7c0.1,0.4,0.2,0.7,0.2,0.9l0.4,0.4v0.3l0.1,0.1C88.6,27,88.7,27.2,88.7,27.4z"/>
	<path class="st2" d="M105.3,19.4l-0.2,0.6c0,0.6,0,1.1-0.1,1.5l-0.2,0.4v0.4l-0.2,0.3l-0.1,0.5l-0.4,0.4l-0.3,0.9l-0.3,0.1
		l-0.1,0.4L103,25l-0.3,0.6l-0.4,0.2l0,0.4l-0.7,0.3c-0.3,0.4-0.7,0.7-1.2,0.8l-0.1,0c-0.3,0.5-0.8,0.8-1.3,0.8
		c-0.2,0.1-0.5,0.2-0.8,0.2l-0.4,0.3l-0.4,0.1l-0.5,0.4h-0.5l-0.5,0.1L95.3,29l-1.5-0.1L93.2,28l-0.8-0.8l0.2-0.6l-0.5-1.2l0.2-0.5
		l-0.1-0.9l0.1-0.5c0-0.3,0-0.6,0-0.7c0-0.5,0.1-0.8,0.4-1c0-0.2,0.2-0.6,0.5-1.2h0.2l-0.1-0.3l0.1-0.5v-0.5
		c0.2-0.2,0.3-0.4,0.3-0.4l-0.1-0.5v-0.1c0.2-0.3,0.3-0.7,0.3-1l0.8-1c0.1-0.1,0.2-0.2,0.3-0.2l0-0.1h0.1l0.5-0.6l0-0.8l0.9-0.3
		c0.3-0.2,0.6-0.6,0.6-1.1h0.5c0.3-0.1,0.5-0.2,0.7-0.2s0.4,0,0.6,0.1l0.4,0l0.9-0.4l0.5,0.5l0.4,0.3h0.3l0.5,0.3h0.3
		c0.3,0.3,0.7,0.7,1.1,1.2l0.1,0.2l0.3,0.1l0.8,1l0.7,1.7v0.4L105.3,19.4z M102.9,20.2l0-0.2c-0.2-0.2-0.3-0.3-0.3-0.5l0.1-0.2
		l-0.3-0.7l0.1-0.7l-0.1-0.2c-0.3-0.2-0.5-0.4-0.5-0.6c-0.2-0.1-0.3-0.3-0.3-0.7l-0.2,0l-0.4-0.7l-0.3-0.3l-0.8-0.3l-0.3-0.1
		c-0.1,0-0.2,0-0.3-0.1l-0.7,0.8l-0.5,1l-0.8,0.4l-0.1,0.4l-0.4,0.2l-0.1,0.9l-0.4,0.2c-0.1,0.3-0.1,0.6-0.1,0.9l-0.6,0.5l0.2,0.1
		c0,0.3-0.1,0.5-0.4,0.8c-0.1,0.2-0.2,0.5-0.3,0.7v0.3v0.1v0.4l-0.4,1l0.1,0.2v1l-0.1,0.5l0,0.5l0.3,0.5l0.5,0.2l0.2,0.1h0.3h0.9
		l0.1-0.4h0.1c0.1,0,0.2,0,0.3,0.1l0.3-0.1l0.3,0.1l0.5-0.3l0.1-0.1l0.3-0.1c0.2-0.3,0.6-0.5,1.2-0.8l0.1-0.2l0.7-0.5l0.4-0.6
		l0.6-0.3l0-0.2l0.2-0.4v-0.5l0.4-0.4l0.1-0.3l0.2-0.2c-0.1-0.3-0.1-0.5-0.1-0.6c0-0.2,0.1-0.4,0.2-0.7L102.9,20.2z"/>
	<path class="st2" d="M120.7,19.4l-0.2,0.6c0,0.6,0,1.1-0.1,1.5l-0.2,0.4v0.4l-0.2,0.3l-0.1,0.5l-0.4,0.4l-0.3,0.9l-0.3,0.1
		l-0.1,0.4l-0.4,0.3l-0.3,0.6l-0.4,0.2l0,0.4l-0.7,0.3c-0.3,0.4-0.7,0.7-1.2,0.8l-0.1,0c-0.3,0.5-0.8,0.8-1.3,0.8
		c-0.2,0.1-0.5,0.2-0.8,0.2l-0.4,0.3l-0.4,0.1l-0.5,0.4h-0.5l-0.5,0.1l-0.6-0.3l-1.5-0.1l-0.5-0.8l-0.8-0.8l0.2-0.6l-0.5-1.2
		l0.2-0.5l-0.1-0.9l0.1-0.5c0-0.3,0-0.6,0-0.7c0-0.5,0.1-0.8,0.4-1c0-0.2,0.2-0.6,0.5-1.2h0.2l-0.1-0.3l0.1-0.5v-0.5
		c0.2-0.2,0.3-0.4,0.3-0.4l-0.1-0.5v-0.1c0.2-0.3,0.3-0.7,0.3-1l0.8-1c0.1-0.1,0.2-0.2,0.3-0.2l0-0.1h0.1l0.5-0.6l0-0.8l0.9-0.3
		c0.3-0.2,0.6-0.6,0.6-1.1h0.5c0.3-0.1,0.5-0.2,0.7-0.2s0.4,0,0.6,0.1l0.4,0l0.9-0.4L116,13l0.4,0.3h0.3l0.5,0.3h0.3
		c0.3,0.3,0.7,0.7,1.1,1.2l0.1,0.2l0.3,0.1l0.8,1l0.7,1.7v0.4L120.7,19.4z M118.3,20.2l0-0.2c-0.2-0.2-0.3-0.3-0.3-0.5l0.1-0.2
		l-0.3-0.7l0.1-0.7l-0.1-0.2c-0.3-0.2-0.5-0.4-0.5-0.6c-0.2-0.1-0.3-0.3-0.3-0.7l-0.2,0l-0.4-0.7l-0.3-0.3l-0.8-0.3l-0.3-0.1
		c-0.1,0-0.2,0-0.3-0.1l-0.7,0.8l-0.5,1l-0.8,0.4l-0.1,0.4l-0.4,0.2l-0.1,0.9l-0.4,0.2c-0.1,0.3-0.1,0.6-0.1,0.9l-0.6,0.5l0.2,0.1
		c0,0.3-0.1,0.5-0.4,0.8c-0.1,0.2-0.2,0.5-0.3,0.7v0.3v0.1v0.4l-0.4,1l0.1,0.2v1l-0.1,0.5l0,0.5l0.3,0.5l0.5,0.2l0.2,0.1h0.3h0.9
		l0.1-0.4h0.1c0.1,0,0.2,0,0.3,0.1l0.3-0.1l0.3,0.1l0.5-0.3l0.1-0.1l0.3-0.1c0.2-0.3,0.6-0.5,1.2-0.8l0.1-0.2l0.7-0.5l0.4-0.6
		l0.6-0.3l0-0.2l0.2-0.4v-0.5l0.4-0.4l0.1-0.3l0.2-0.2c-0.1-0.3-0.1-0.5-0.1-0.6c0-0.2,0.1-0.4,0.2-0.7L118.3,20.2z"/>
	<path class="st2" d="M136.8,24.8l-0.4,0.5l-0.4,0.9l-0.3,0.2l-0.3,0.5l-0.7,0.1l-0.5,0.5h-0.7l-0.4,0.4l-0.4-0.1l-0.5,0.1v0.3
		l-1.3-0.1h-0.6l-0.4,0.3l-0.4-0.2c0.2,0,0.4,0,0.6,0c-0.2,0-0.8,0.1-1.7,0.1l-0.1-0.1l-0.3-0.1l-0.5,0.3c-0.1-0.1-0.4-0.1-0.8-0.2
		c-0.5,0-0.9,0-1,0h-0.3c-0.2-0.1-0.3-0.1-0.5-0.1c-0.2,0-0.4,0-0.6,0.1l-0.5-0.3l-0.3-0.1c-0.1,0-0.2,0-0.4-0.1
		c-0.9-0.1-1.3-0.8-1.3-2.2V25l0.7-0.5l0.9-0.3l0.6,0.3h0.5v0.1c0.2,0.1,0.4,0.3,0.6,0.6l0.3,0v0.5l0.5,0.1l0.1,0.1l4.6-0.3l1.1-0.2
		h0.1l0.1-0.2l0.5-0.1l0.1-0.1c0.5-0.1,1-0.2,1.4-0.4l0-0.2c0,0-0.1-0.1-0.1-0.3l-0.2,0l-0.5-0.4h-0.3l-0.2-0.3l0.1-0.1l-0.4,0.1
		l-0.3-0.3c-0.1,0-0.2,0-0.4,0c-0.3,0-0.6-0.1-0.9-0.2h-0.3l-0.3-0.1l-0.5,0.2l-0.3-0.3h-0.1l-0.5-0.4l-1.1-0.4l-0.4-0.3l-1.4-0.3
		l-0.1-0.3l-1-0.6l-0.5-1.2l-0.4-0.6l-0.1-1.9l0.1-0.2c0-0.6,0.2-1,0.6-1.4c0.4-0.2,0.5-0.5,0.5-0.8l0.5-0.1
		c0.1-0.2,0.3-0.4,0.6-0.5l0.5-0.4l2.3-0.9l0.4-0.1l0.7-0.1l1.2-0.3l2.3,0.1l0.1,0.2c0.2,0.1,0.5,0.3,0.7,0.6v0.2l0.6,0.4l-0.3,0.9
		l-0.1,0.3c-0.1,0.6-0.5,0.9-1,0.9c-0.4,0-0.8-0.2-1-0.6v-0.1l-0.4,0l-0.5,0.1l-0.5-0.4l-0.3,0.2c-0.3,0-0.6,0.1-0.9,0.3
		c-0.4,0-0.7,0.2-1,0.4l-0.5,0l-0.3,0.2l-0.5,0.1l-0.1,0.1l-0.2,0.1l-0.3,0.3l-0.1,0l-0.3,0.5l-0.4,0.2c-0.1,0.3-0.2,0.6-0.2,0.8
		c0,0.3,0.1,0.6,0.1,0.7s0.2,0.2,0.5,0.3v0.2l0.5,0.3c0.4,0.1,0.7,0.3,0.9,0.5l0.7,0l0.5,0.4l0.8,0.1l0.3,0.2l1.4,0.4l0.2,0.4
		l0.1-0.3c0.3,0,0.7,0.1,1.3,0.4l0.6,0.1l0.1,0.3h0.6l1,0.6c0.1,0.3,0.4,0.6,0.8,0.9l0.4,0.3l-0.1,0.4c0.2,0.2,0.3,0.5,0.3,0.8V24.8
		z"/>
	<path class="st2" d="M151,24.8c0,0.3-0.2,0.6-0.6,1.1c-0.1,0.4-0.3,0.7-0.5,0.9l-0.2,0l-0.4,0.7l-0.6,0.1l-0.7,0.4l-0.4,0.6h-0.4
		c-0.3,0.1-0.5,0.2-0.6,0.2l-0.2,0.3c-0.1,0-0.2,0-0.3,0c-0.3,0-0.6,0.2-0.9,0.6l-0.5-0.4c-0.1,0-0.2,0-0.4,0
		c-0.3,0-0.6-0.1-0.8-0.2h-0.6l-0.3-0.2c-0.9-0.1-1.5-0.5-1.7-1v-0.1l-0.4-0.2l-0.2-0.6l-0.4-0.3v-0.5l-0.4-1.6v-1.3l0.2-0.6v-0.7
		l0.2-0.6l0-0.2l0.3-0.4l-0.1,0.1c0-0.2,0.1-0.4,0.2-0.7V20l-0.1-0.9c0-0.4,0.2-0.8,0.5-1.1c0,0,0-0.1,0-0.2c0-0.1,0-0.3-0.1-0.6
		c-0.1-0.3-0.1-0.5-0.1-0.6c0-0.3,0.1-0.6,0.2-0.9c0.2,0.3,0.5,0.4,0.8,0.4h0.1c0-0.1,0.2-0.2,0.3-0.3c0.2-0.6,0.5-1.1,0.8-1.5
		l0.1-0.1c0-0.1,0.1-0.4,0.2-0.8h0.3l0.1-0.2l0.3-0.1c0.1-0.2,0.2-0.3,0.2-0.3c0,0,0.3-0.2,0.8-0.5c0.1-0.2,0.2-0.3,0.4-0.5
		c0.1,0,0.2-0.1,0.4-0.1l0.1-0.2c0.6-0.2,1.1-0.3,1.2-0.3c0.2,0,0.4,0,0.5,0.1l0.2,0l0.3,0.1c0.3,0.2,0.6,0.4,0.9,0.5l0.6,0.5v0.1
		c0.6,0.4,0.8,1,0.8,1.8l-0.1,0.4l0.1,1.2l-0.3,0.2l-0.4,0.9l-0.7,0.8l0,0.6c-0.8,0.6-1.5,1-2.1,1.3c-0.2,0.3-0.6,0.5-1,0.5h-0.1
		l-0.7,0.4h-0.6l-0.9,0.4l-0.6-0.3h-0.1c0,0.2-0.1,0.5-0.1,0.9l-0.3,0.2l0,0.4l-0.2,0.6c0,0.6,0.1,1,0.1,1.1l-0.1,0.1
		c0,0.3,0,0.5,0,0.7c0,0,0,0.1,0,0.1c0,0,0,0.1,0,0.1c0,0.2,0.1,0.4,0.3,0.5c0.1,0.3,0.2,0.5,0.4,0.5l0.3,0.2l0.8,0.2v0.1l0.3,0.1
		h1.2l0.7-0.1l0.4-0.2l0.2-0.1l0.4-0.5l0.2,0l0.9-0.3c0.1-0.2,0.3-0.3,0.5-0.4l0.1-0.2c0.5-0.1,0.8-0.3,0.8-0.7
		c0.3-0.3,0.8-0.5,1.3-0.5h0.1C150.8,24.1,151,24.5,151,24.8z M147.5,14.5c0-0.1,0-0.2-0.1-0.4l-0.2,0l-0.1,0c0,0-0.1,0-0.1,0
		c0,0-0.1,0-0.1,0c0,0-0.1,0-0.1,0c0,0-0.1,0-0.1,0l-0.4,0.3l-0.3,0l-0.2,0.1l-0.6,0.8l-0.4,0.3l-0.6,1l-0.3,0.2
		c-0.1,0.4-0.2,0.8-0.5,1l-0.1,0.3c0.3-0.2,0.6-0.3,0.9-0.3l0.3-0.1l0.1-0.3l0.5,0l0.3-0.4h0.2l0.4,0.1l0.2-0.5h0.3v-0.4l0.5-0.1
		l0.1-0.1l0.1-0.3l0.5-0.7C147.4,14.8,147.5,14.6,147.5,14.5z"/>
	<path class="st2" d="M191.1,27.7c-0.1,0.4-0.6,0.7-1.4,1l-1.2-0.7l-1.1-1.3l-0.4-0.8l-0.1-0.7l-0.1-0.4c-0.3-0.8-0.5-1.5-0.5-2.1
		c0-0.1,0-0.3,0.1-0.5l0.1-0.1l0.1-0.7l-0.4-0.8v-0.4v-0.6v-0.5c0-0.3,0-0.5,0-0.8v-0.2c0-0.4-0.1-0.9-0.3-1.3v-1l-0.3-0.6l-0.1-0.5
		l-0.4,0.2l-1.1,1.4l-1,1.1l-0.4,0.7l-1.1,1.2l-1.2,0.8l-0.1,0.7l-0.7,0.3l-0.1,0.4l-0.9,0.4l-0.3,0.7l-0.6,0.2l-0.7,1.2l-0.4,0.3
		c0,0.1-0.1,0.3-0.2,0.7c-0.4,0.2-0.8,0.3-1.2,0.3H175l-0.4-0.7l-0.5-0.7l0.1-0.4l-0.4-0.5l0.2-0.3l0,0l-0.2-0.6l-0.3-0.2
		c-0.5-0.5-0.8-0.9-1.1-1.3l-0.2-0.7l-0.4-0.4l-0.7-1.3l-0.7-0.8l-0.3-0.4l-0.7-0.7l-0.8-1c0-0.2-0.2-0.4-0.4-0.6
		c-0.1,0.9-0.2,1.5-0.5,1.9l-0.6,1.1l0.2,0.8l-0.3,0.8l-0.7,2.2l-0.3,0.7l-0.1,0.5l-0.6,1.2l-0.5,0.8l0.1,0.7
		c-0.1,0.4-0.3,0.8-0.6,1.3l0.2,0.9c-0.7,0.7-1.2,1-1.6,1c-0.4,0-0.7-0.2-0.9-0.5c-0.2-0.2-0.3-0.4-0.3-0.6v-0.1
		c0.4-1.8,0.7-2.7,0.9-2.7c0,0,0,0,0,0V24c0-0.6,0.2-1.1,0.7-1.4v-0.2l0.2-0.7l0-0.3c0-0.1,0.1-0.5,0.3-1l0.1-0.1l0-1l0.4-0.6
		l0.5-1.8l-0.2-1.1l0.5-0.4v-0.1l0.1-1.4l0.1-0.6c0.1-0.2,0.1-0.4,0.1-0.5v-0.1l-0.6-1.2l0.2-0.7l0.3-0.1l0.3-0.4l0-0.3l0.5-0.4
		l0.3,0.1l0.4-0.4l0.5,0.1l0.9,0.6v0.3l0.3,0.2l0.1,0.8l0.3,0.2l0.2,0.7l-0.1,0.1l0.3,0.3c0.1-0.1,0.3-0.1,0.4-0.1
		c0.1,0.1,0.3,0.2,0.6,0.5l0.1,0.5l0.3,0.4l0.3,0.8l1.7,1.6l0.3,0.9l0.5,0.4l0.6,1.4l1.1,1.9c0,0,0.1,0.1,0.2,0.3l0.1,0.1h0.4
		l0.3-0.6l0.9-0.5c0.6-0.6,0.8-0.9,0.8-1c0,0,0,0-0.1,0h0c0.1-0.1,0.3-0.2,0.5-0.3c0-0.1,0.2-0.2,0.5-0.3c0.2-0.4,0.5-0.6,0.9-0.8
		l0.1-0.2v-0.3c0.6-0.7,1-1.1,1.4-1.3c0-0.4,0.4-0.7,1.1-1l0.6-0.9l0.2-0.6h0.4c0.3-0.5,0.5-0.8,0.6-1.1l0.5-0.2h0.3l-0.1-0.7
		l-0.3-0.7l0.5-0.7l0.3-0.9c0.2,0,0.4,0,0.6,0c0.2,0,0.3,0,0.3,0c0.1,0,0.5,0.1,1,0.4l0.1,0.3l0.4,0.3l0,0.3l0.4,0.3l-0.2,0.2
		c0.3,0.1,0.5,0.3,0.5,0.6c0,0.1,0,0.2,0,0.4v0.6c0.1,0.1,0.2,0.3,0.5,0.6l-0.2,0.2l0,0.2l0.1,0l0.1,0.6l0.5,0.4l-0.4,0.5l-0.2,0.8
		l0.2,0.6v0.8l0.3,1.1c0.1,0.5,0.2,0.9,0.2,1.2c0,0.2-0.1,0.4-0.3,0.7c0.2,0.1,0.3,0.2,0.3,0.4c0,0.2-0.1,0.4-0.3,0.6l0.2,0.1
		l-0.2,2l0.5,1.1v1.2c0.1,0.2,0.3,0.5,0.4,0.7c0,0.1,0.3,0.4,0.8,0.9C190.9,27.2,191.1,27.5,191.1,27.7z"/>
	<path class="st2" d="M205.4,24.8c0,0.3-0.2,0.6-0.6,1.1c-0.1,0.4-0.3,0.7-0.5,0.9l-0.2,0l-0.4,0.7l-0.6,0.1l-0.7,0.4l-0.4,0.6h-0.4
		c-0.3,0.1-0.5,0.2-0.6,0.2l-0.2,0.3c-0.1,0-0.2,0-0.3,0c-0.3,0-0.6,0.2-0.9,0.6l-0.5-0.4c-0.1,0-0.2,0-0.4,0
		c-0.3,0-0.6-0.1-0.8-0.2h-0.6l-0.3-0.2c-0.9-0.1-1.5-0.5-1.7-1v-0.1l-0.4-0.2l-0.2-0.6l-0.4-0.3v-0.5l-0.4-1.6v-1.3l0.2-0.6v-0.7
		l0.2-0.6l0-0.2l0.3-0.4l-0.1,0.1c0-0.2,0.1-0.4,0.2-0.7V20l-0.1-0.9c0-0.4,0.2-0.8,0.5-1.1c0,0,0-0.1,0-0.2c0-0.1,0-0.3-0.1-0.6
		c-0.1-0.3-0.1-0.5-0.1-0.6c0-0.3,0.1-0.6,0.2-0.9c0.2,0.3,0.5,0.4,0.8,0.4h0.1c0-0.1,0.2-0.2,0.3-0.3c0.2-0.6,0.5-1.1,0.8-1.5
		l0.1-0.1c0-0.1,0.1-0.4,0.2-0.8h0.3l0.1-0.2l0.3-0.1c0.1-0.2,0.2-0.3,0.2-0.3s0.3-0.2,0.8-0.5c0.1-0.2,0.2-0.3,0.4-0.5
		c0.1,0,0.2-0.1,0.4-0.1l0.1-0.2c0.6-0.2,1.1-0.3,1.2-0.3c0.2,0,0.4,0,0.5,0.1l0.2,0l0.3,0.1c0.3,0.2,0.6,0.4,0.9,0.5l0.6,0.5v0.1
		c0.6,0.4,0.8,1,0.8,1.8l-0.1,0.4l0.1,1.2l-0.3,0.2l-0.4,0.9l-0.7,0.8l0,0.6c-0.8,0.6-1.5,1-2.1,1.3c-0.2,0.3-0.6,0.5-1,0.5h-0.1
		l-0.7,0.4h-0.6l-0.9,0.4l-0.6-0.3h-0.1c0,0.2-0.1,0.5-0.1,0.9l-0.3,0.2l0,0.4l-0.2,0.6c0,0.6,0.1,1,0.1,1.1l-0.1,0.1
		c0,0.3,0,0.5,0,0.7c0,0,0,0.1,0,0.1c0,0,0,0.1,0,0.1c0,0.2,0.1,0.4,0.3,0.5c0.1,0.3,0.2,0.5,0.4,0.5l0.3,0.2l0.8,0.2v0.1l0.3,0.1
		h1.2l0.7-0.1l0.4-0.2l0.2-0.1l0.4-0.5l0.2,0l0.9-0.3c0.1-0.2,0.3-0.3,0.5-0.4l0.1-0.2c0.5-0.1,0.8-0.3,0.8-0.7
		c0.3-0.3,0.8-0.5,1.3-0.5h0.1C205.1,24.1,205.4,24.5,205.4,24.8z M201.8,14.5c0-0.1,0-0.2-0.1-0.4l-0.2,0l-0.1,0c0,0-0.1,0-0.1,0
		c0,0-0.1,0-0.1,0c0,0-0.1,0-0.1,0c0,0-0.1,0-0.1,0l-0.4,0.3l-0.3,0l-0.2,0.1l-0.6,0.8l-0.4,0.3l-0.6,1l-0.3,0.2
		c-0.1,0.4-0.2,0.8-0.5,1l-0.1,0.3c0.3-0.2,0.6-0.3,0.9-0.3l0.3-0.1l0.1-0.3l0.5,0l0.3-0.4h0.2l0.4,0.1l0.2-0.5h0.3v-0.4l0.5-0.1
		l0.1-0.1l0.1-0.3l0.5-0.7C201.8,14.8,201.8,14.6,201.8,14.5z"/>
	<path class="st2" d="M224.5,25.2l-0.4,1.5l-0.3,0.4c-0.4,0.6-0.8,0.9-1.1,0.9c-0.3,0-0.7-0.2-1.2-0.6l-0.7-1l-0.3-0.6l-0.1-0.6
		L220,24v-1.6l-0.1-1.4l0.1-0.8l-0.1-0.2l-0.9,1.3h-0.1l0,0.1l-0.6,1l-1,1.1l-0.8,1l-0.8,0.8c-0.2,0.4-0.5,0.7-0.8,1l-0.7,0.5
		l-0.4,0.6l-0.8,0.3l-0.3,0.4l-0.8,0.1l-0.6,0.4h-0.1l-0.1,0.1l-1.1-0.1l-1.3-0.9c-0.4-0.4-0.6-0.9-0.7-1.3c0,0,0.1-0.1,0.1-0.1
		s0.1-0.1,0.1-0.1c0,0-0.2-0.1-0.4-0.2l-0.3-0.7l0.2-0.3l-0.2-0.4l0.2-0.5l-0.1-0.6l0.3-1v-1.1l0.3-0.3V20l0.3-0.5l0.1-0.5l0.1-0.1
		v-0.5l0.4-0.6l0.1-0.5l0.2-0.4l0.1-0.2l0.1-0.9l0.3-0.8l0.2-0.2l0.1-0.5l0.5-0.5c0-0.1,0.2-0.4,0.3-0.8l0.9-0.4l0.6-0.6l1.7-0.5
		c0.3,0,0.5,0,0.6,0l0.3,0.1l0.1-0.3l0.8-0.1l0.3,0.1l0.3,0l0.2,0.2l0.7,0l0.1-0.1l0.2,0.1l0.4,0v0.3l0.1,0.1l0.7,0.1l0.5,0.6
		l0.7,0.5L220,14l0,0l0.1-0.5l0.2-0.5l-0.1-0.8l0.1-1.5l-0.2-0.6l0.3-0.4l-0.1-0.4l0.1-1l-0.1-0.9L220,7.1l0.6-0.6V6.2
		c0-0.4-0.2-0.9-0.5-1.3h0.2l0.4-0.6c0.4-0.1,0.7-0.1,1-0.1c0.3,0,0.6,0.1,0.8,0.2c0.4,0.1,0.6,0.7,0.6,1.7h-0.2l0,0.1l0.3,0.3
		l-0.2,0.6l0.3,0.7L223.1,8c0.1,0.2,0.1,0.3,0.1,0.5s0,0.3-0.1,0.5l0.2,0.2c0,0.1,0.1,0.3,0.1,0.5c0,0.3-0.1,0.5-0.2,0.7
		c-0.1,1.5-0.2,2.4-0.3,2.8c0,0.1,0,0.2,0,0.3c0,0.2,0,0.4-0.1,0.6v0.2c0,0.3-0.1,0.6-0.2,1l-0.1,1.1l-0.2,0.3l0.1,0.3l-0.1,0.5
		l0.1,0.5l-0.3,1.1l0.1,0.8v0.5l0,0.7c0,0.2,0.1,0.3,0.1,0.5c0,0.1,0,0.2-0.1,0.3l0.3,0.2l-0.3,0.7l0.3,0.8l-0.1,0.2l0.1,0.2
		l-0.1,0.2l0.1,0.1l0.3,0.3l0.6,0.1L224.5,25.2z M219.1,16.4l-0.1-0.1c-0.2-0.1-0.3-0.3-0.5-0.5c-0.1-0.2-0.3-0.4-0.4-0.6
		c-0.2-0.1-0.4-0.2-0.6-0.5h-0.2l-0.6-0.4l-0.8-0.2l-0.8,0.1l-0.9,0.2l-0.2-0.2l-0.3,0.1v0.1l-0.3,0.1c-0.2,0.4-0.6,0.7-1,1
		l-0.3,0.6l-0.3,0.2l-0.3,0.6l-0.1,1.2l-0.3,0.3v0.6l-0.3,0.3l0,0.9l-0.6,1.2l-0.1,0.6l-0.1,0.9l0.2,0.4l-0.2,0.4l0.2,0.3l-0.4,0.6
		L210,25l0.1,0.4l0.2,0.2l0.3,0l0.3-0.3l0.3,0l0.6-0.3l0.1-0.2l0.7-0.3l0.1-0.2l0.4-0.3V24l0.9-0.9l0.4-0.2l0.2-0.5l0.5-0.1l0.6-0.7
		l-0.1-0.1l0.2-0.3l0.4-0.8l0.3-0.3l0.2-0.8l0.6-0.2l0.4-0.6l0.2-0.1V18l0.5-0.3L219.1,16.4z"/>
	<path class="st2" d="M237.8,22.5c0,0.6-0.1,0.9-0.3,1l-0.2,0.1l-0.2,0.5l-0.6,0.2c-0.2,0.4-0.4,0.7-0.8,0.9l-0.3,0.1l-0.5,0.5
		l-0.4,0.1c-0.2,0.4-0.5,0.7-1,0.7c0,0.1-0.2,0.2-0.3,0.4c-0.4,0.2-0.7,0.4-1.1,0.4l-0.2,0l-0.3,0.3H231l-0.6,0.4l-1.5-1.1l-0.7-1.4
		l0-1.8l-0.1-0.4l0.4-3.2l0.1-0.1c-0.1-0.4-0.1-0.7-0.1-1c0-0.2,0.1-0.7,0.2-1.3l0.2-0.8c0-0.1-0.1-0.3-0.3-0.5l0.2-0.7l0.1-0.8
		l0.1-0.1c-0.1-0.2-0.2-0.5-0.2-0.7c0,0,0-0.1,0.1-0.2c0-0.1,0-0.1,0-0.2c-0.1-0.2-0.1-0.4-0.1-0.6c0-0.6,0.3-0.8,1-0.8h0.4
		c0.3-0.1,0.5-0.2,0.5-0.2c0.5,0,0.8,0.3,1,0.8v0.1c0.1,0.3,0.1,0.6,0.1,0.8c0,0.2,0,0.4-0.1,0.5l-0.3,1.8l0.3,0.5
		c0,0.4-0.1,0.8-0.4,1.2l0.1,0.4l-0.5,1.4c0,0.6-0.1,1.1-0.2,1.4v0.9l-0.2,0.5l0,0.4l-0.1,0.8l0.1,0.6l0.5,0.4l0.4-0.1l0.1-0.1
		l0.3,0l0.5-0.1l0.4-0.4l0.1-0.2l0.3,0l0.1-0.2l0.1-0.1l0.2,0.1l0.4-0.4l0.2,0l0.1-0.3h0.1l0.1-0.3l0.3-0.1l0.7-0.3
		c0.6-0.4,1.1-0.6,1.6-0.6h0.1C237.6,22,237.8,22.3,237.8,22.5z M234.2,3.4c0,0.3-0.2,0.5-0.6,0.8v0.1c-0.5,0.5-0.9,0.9-1.2,0.9
		l-0.5,0.6l-0.4,0.5l-0.8,0.2l-0.4,0.5l-0.6,0.3l-0.9,0.8l-0.6-0.5l0.1-0.9l0.4-0.6c0-0.3,0.2-0.6,0.6-0.9V5.1l0.2-0.1l0-0.5
		l0.6-0.1V3.9l0.4-0.1c0.1-0.5,0.3-0.8,0.6-1l0.1-0.1l0.2-0.2l0.3-0.9C233.4,2.1,234.2,2.6,234.2,3.4z"/>
	<path class="st2" d="M253.2,22.2l-0.7,0.6l0,0.2c-0.1,0.4-0.3,0.8-0.6,1c-0.6,1.1-1.4,1.9-2.4,2.4l-0.5,0.4l-0.5,0.1l-0.6,0.4
		l-0.4,0l-0.9,0.6l-0.6-0.1l-0.6,0.4l-0.5-0.2l-0.3,0.2l-0.7-0.1l-0.7,0.1l-0.3-0.2l-0.7-0.1l-1-0.8l-0.6-0.7
		c-0.4-0.5-0.5-0.8-0.5-1.2v-0.1l-0.4-0.5v-0.5c-0.1-0.3-0.1-0.6-0.1-0.8v-0.3l-0.2-0.6l0.2-0.4l-0.1-0.3l0.4-0.7l-0.1-0.6l0.3-0.9
		l0.1-0.2l0.1-0.9l-0.1-0.1l0.4-0.5l0.1-0.4l0.3-0.8l0.5-1l0.6-0.6l0.1-0.3l0.2-0.4l0.1-0.4l0.6-0.7c0.1,0,0.3-0.1,0.5-0.1
		c0.1-0.5,0.7-0.7,1.8-0.8c0.9,0.2,1.5,0.4,1.8,0.8c0.3,0,0.5,0.2,0.6,0.3l0.8,0l0.5,0.6c0.1,0.2,0.2,0.5,0.2,0.7l0.3,0.3l-0.1,0.5
		c0,0.2,0,0.4,0,0.8l0.2,0.1v0.5l0.1,1.1c-0.5,0.5-1.1,0.8-1.7,0.9c-0.3-0.6-0.8-1.1-1.3-1.4v-1.2l-0.3-0.4l0-0.3l-0.4-0.4l-0.2-0.1
		l-0.3,0.1h-0.5c-0.3,0.1-0.6,0.3-0.9,0.7s-0.6,0.8-0.9,1.2l0,0.4l-0.2,0.2v0.6l-0.5,0.5l-0.6,1.6l0,0.4l-0.3,0.6l0.1,0.8l-0.2,0.1
		l-0.1,1l0,0.2l0.4,0.4l0.2,0.8l0.5,0.1l0,0.3l0.6,0.1l0.5,0.1c0.2-0.1,0.4-0.1,0.6-0.1h0.3c0.3-0.1,0.6-0.2,0.8-0.2
		c0.2-0.1,0.4-0.1,0.6-0.2c0.3-0.4,0.7-0.6,1.2-0.6h0.2c0.1,0,0.2-0.1,0.3-0.2c0.3-0.4,0.7-0.7,1.3-0.8c0.7-0.6,1.1-1.1,1.2-1.4
		c0.3-0.2,0.6-0.5,0.6-0.9l0.2-0.1l0.1-0.8c1.1,0.2,1.7,0.7,1.7,1.7V22.2z"/>
	<path class="st2" d="M265.2,22.5c0,0.6-0.1,0.9-0.3,1l-0.2,0.1l-0.2,0.5l-0.6,0.2c-0.2,0.4-0.4,0.7-0.8,0.9l-0.3,0.1l-0.5,0.5
		L262,26c-0.2,0.4-0.5,0.7-1,0.7c0,0.1-0.2,0.2-0.3,0.4c-0.4,0.2-0.7,0.4-1.1,0.4l-0.2,0l-0.3,0.3h-0.7l-0.6,0.4l-1.5-1.1l-0.7-1.4
		l0-1.8l-0.1-0.4l0.4-3.2l0.1-0.1c-0.1-0.4-0.1-0.7-0.1-1c0-0.2,0.1-0.7,0.2-1.3l0.2-0.8c0-0.1-0.1-0.3-0.3-0.5l0.2-0.7l0.1-0.8
		l0.1-0.1c-0.1-0.2-0.2-0.5-0.2-0.7c0,0,0-0.1,0.1-0.2c0-0.1,0-0.1,0-0.2c-0.1-0.2-0.1-0.4-0.1-0.6c0-0.6,0.3-0.8,1-0.8h0.4
		c0.3-0.1,0.5-0.2,0.5-0.2c0.5,0,0.8,0.3,1,0.8v0.1c0.1,0.3,0.1,0.6,0.1,0.8c0,0.2,0,0.4-0.1,0.5l-0.3,1.8l0.3,0.5
		c0,0.4-0.1,0.8-0.4,1.2l0.1,0.4l-0.5,1.4c0,0.6-0.1,1.1-0.2,1.4v0.9l-0.2,0.5l0,0.4l-0.1,0.8l0.1,0.6l0.5,0.4l0.4-0.1l0.1-0.1
		l0.3,0l0.5-0.1l0.4-0.4l0.1-0.2l0.3,0l0.1-0.2l0.1-0.1l0.2,0.1l0.4-0.4l0.2,0l0.1-0.3h0.1l0.1-0.3l0.3-0.1l0.7-0.3
		c0.6-0.4,1.1-0.6,1.6-0.6h0.1C264.9,22,265.1,22.3,265.2,22.5z M261.5,3.4c0,0.3-0.2,0.5-0.6,0.8v0.1c-0.5,0.5-0.9,0.9-1.2,0.9
		l-0.5,0.6l-0.4,0.5L258,6.5l-0.4,0.5l-0.6,0.3l-0.9,0.8l-0.6-0.5l0.1-0.9l0.4-0.6c0-0.3,0.2-0.6,0.6-0.9V5.1l0.2-0.1l0-0.5l0.6-0.1
		V3.9l0.4-0.1c0.1-0.5,0.3-0.8,0.6-1l0.1-0.1l0.2-0.2l0.3-0.9C260.7,2.1,261.5,2.6,261.5,3.4z"/>
	<path class="st2" d="M290.1,21.9c0,0.2-0.2,0.4-0.5,0.8l-0.4,0.6l-0.1,0.7l-0.3,0.1l-0.1,0.2c-0.4,0.1-0.7,0.4-0.8,0.9
		c-0.3,0.3-0.6,0.6-0.9,0.7c-0.1,0.1-0.2,0.2-0.3,0.3l-0.2,0.3l-0.3,0.1l-0.9,0.5l-1.2,0.1l-0.3-0.1l-0.5,0.1l-0.2-0.3
		c-0.3-0.2-0.6-0.3-0.7-0.5c-0.3-0.1-0.5-0.3-0.6-0.7c-0.4-0.5-0.6-0.9-0.6-1.2v-0.1l-0.3-0.4l-0.1-0.1l-0.2-0.6l-0.3-0.7l0.1-0.8
		l-0.4-0.5l-0.5-3.1c-0.1-0.4-0.1-0.8-0.1-1l-0.1-0.2l-0.2-0.3l-0.3,0.4l-1.3,1.4l-0.5,0.8l-0.2,0.5l-0.4,0.6l-0.3,0.3l0,0.2
		l-0.5,1.1l-0.3,0.4l-0.4,0.1l-0.3,0.3c0,0.5-0.2,0.8-0.7,0.9l-0.1,0.1c-0.2,0.5-0.5,0.9-0.7,1l-0.3,0.5c-0.5,0.5-0.9,0.8-1,0.9
		c-0.1,0.2-0.2,0.4-0.4,0.6c0,0.1-0.1,0.2-0.3,0.3c-0.1,0.4-0.4,0.7-1,0.9l-0.4,0.1c-0.5,0-0.9-0.3-1.2-0.8l-0.5-0.9l0.2-0.9
		l-0.1-0.5L268,25l0-0.5l-0.4-0.9l0.3-0.4l-0.1-0.5l0.3-0.5l0.1-0.8l-0.1-0.1l0.2-0.5l-0.1-0.3l0-0.6l0.1-1.1
		c-0.1-0.2-0.1-0.4-0.1-0.5c0,0,0-0.1,0-0.1c0-0.1,0-0.1,0-0.1l-0.1-0.3l0.1-1.2v-0.4v-0.6v-1l0.6-1.1c0.7,0.1,1.2,0.3,1.5,0.5
		c0.3,0.2,0.4,0.6,0.4,1.1v0.3L271,16l-0.1,0.8l0.1,1.4l-0.3,0.7l0.1,0.8v0.6l-0.3,0.4l0.3,0.6l-0.3,0.4l0,0.4l0.2,0.4l-0.3,0.8
		l-0.1,0.3v0.3l0.2,0.4l0.6-0.6c0-0.4,0.1-0.6,0.4-0.7c0-0.2,0.1-0.4,0.3-0.5l-0.1-0.1l0.5-0.4l0.1-0.1v-0.3l0.6-0.4l0.1-0.4
		l0.3-0.2l1.4-1.6c-0.1,0.1-0.5,0.6-1.2,1.3v0.1l0.1-0.3l0.5-0.5l0.3-0.6v-0.4l0.5-0.2l0.1-0.5l0.1-0.1l0-0.2v-0.3l0.5-0.5
		c0,0,0-0.1,0-0.2c0-0.1,0-0.1,0-0.1c0-0.4,0.2-0.7,0.7-0.7c0.2-0.4,0.5-0.7,1-0.8l0.2-0.3l0.1-0.1c0.2-0.3,0.5-0.5,1-0.6l0.3-0.4
		h0.9l0.4,0.5l0.4,0.2l0,0.1l0.3,0.1l0.1,0.8l0.6,0.4l-0.3,0.8l0.4,0.9v1l0.3,1.4l0.1,1.3l0.3,0.8l0.2,0.9c0.1,0.1,0.3,0.3,0.3,0.6
		l0.6,0.2V24l0.4,0.4v0.1l0.1,0l0.1,0.2l0.1-0.2c0,0,0,0,0.2,0c0.3,0,0.5-0.2,0.8-0.7l0.4-0.1l0.1-0.2c0.1-0.2,0.2-0.3,0.4-0.4
		l0.3,0l0.1-0.1l0-0.2l0.1-0.1c0.2-0.2,0.4-0.4,0.5-0.8l0.4-0.4l0.1-0.3l0.3-0.6l0.7-0.3l1,0.3l0.3,1c0,0,0,0,0,0.1
		C290.1,21.9,290.1,21.9,290.1,21.9z"/>
	<path class="st2" d="M302.6,24.8c0,0.3-0.2,0.6-0.6,1.1c-0.1,0.4-0.3,0.7-0.5,0.9l-0.2,0l-0.4,0.7l-0.6,0.1l-0.7,0.4l-0.4,0.6h-0.4
		c-0.3,0.1-0.5,0.2-0.6,0.2l-0.2,0.3c-0.1,0-0.2,0-0.3,0c-0.3,0-0.6,0.2-0.9,0.6l-0.5-0.4c-0.1,0-0.2,0-0.4,0
		c-0.3,0-0.6-0.1-0.8-0.2h-0.6L294,29c-0.9-0.1-1.5-0.5-1.7-1v-0.1l-0.4-0.2l-0.2-0.6l-0.4-0.3v-0.5l-0.4-1.6v-1.3l0.2-0.6v-0.7
		l0.2-0.6l0-0.2l0.3-0.4l-0.1,0.1c0-0.2,0.1-0.4,0.2-0.7V20l-0.1-0.9c0-0.4,0.2-0.8,0.5-1.1c0,0,0-0.1,0-0.2c0-0.1,0-0.3-0.1-0.6
		c-0.1-0.3-0.1-0.5-0.1-0.6c0-0.3,0.1-0.6,0.2-0.9c0.2,0.3,0.5,0.4,0.8,0.4h0.1c0-0.1,0.2-0.2,0.3-0.3c0.2-0.6,0.5-1.1,0.8-1.5
		l0.1-0.1c0-0.1,0.1-0.4,0.2-0.8h0.3l0.1-0.2l0.3-0.1c0.1-0.2,0.2-0.3,0.2-0.3s0.3-0.2,0.8-0.5c0.1-0.2,0.2-0.3,0.4-0.5
		c0.1,0,0.2-0.1,0.4-0.1l0.1-0.2c0.6-0.2,1.1-0.3,1.2-0.3c0.2,0,0.4,0,0.5,0.1l0.2,0l0.3,0.1c0.3,0.2,0.6,0.4,0.9,0.5l0.6,0.5v0.1
		c0.6,0.4,0.8,1,0.8,1.8l-0.1,0.4l0.1,1.2l-0.3,0.2l-0.4,0.9l-0.7,0.8l0,0.6c-0.8,0.6-1.5,1-2.1,1.3c-0.2,0.3-0.6,0.5-1,0.5h-0.1
		l-0.7,0.4h-0.6l-0.9,0.4l-0.6-0.3h-0.1c0,0.2-0.1,0.5-0.1,0.9l-0.3,0.2l0,0.4l-0.2,0.6c0,0.6,0.1,1,0.1,1.1l-0.1,0.1
		c0,0.3,0,0.5,0,0.7c0,0,0,0.1,0,0.1c0,0,0,0.1,0,0.1c0,0.2,0.1,0.4,0.3,0.5c0.1,0.3,0.2,0.5,0.4,0.5l0.3,0.2l0.8,0.2v0.1l0.3,0.1
		h1.2l0.7-0.1l0.4-0.2l0.2-0.1l0.4-0.5l0.2,0l0.9-0.3c0.1-0.2,0.3-0.3,0.5-0.4l0.1-0.2c0.5-0.1,0.8-0.3,0.8-0.7
		c0.3-0.3,0.8-0.5,1.3-0.5h0.1C302.4,24.1,302.6,24.5,302.6,24.8z M299,14.5c0-0.1,0-0.2-0.1-0.4l-0.2,0l-0.1,0c0,0-0.1,0-0.1,0
		c0,0-0.1,0-0.1,0c0,0-0.1,0-0.1,0c0,0-0.1,0-0.1,0l-0.4,0.3l-0.3,0l-0.2,0.1l-0.6,0.8l-0.4,0.3l-0.6,1l-0.3,0.2
		c-0.1,0.4-0.2,0.8-0.5,1l-0.1,0.3c0.3-0.2,0.6-0.3,0.9-0.3l0.3-0.1l0.1-0.3l0.5,0l0.3-0.4h0.2l0.4,0.1l0.2-0.5h0.3v-0.4l0.5-0.1
		l0.1-0.1l0.1-0.3l0.5-0.7C299,14.8,299,14.6,299,14.5z"/>
	<path class="st2" d="M330.2,6.3c0,0.5-0.3,1-0.9,1.4l-0.3-0.2l-0.6,0.3l-0.7-1.4c0-0.4-0.1-0.7-0.3-0.9l-0.2,0.1l-0.6-0.3l-0.2,0
		L326,5.6l-0.8-0.2L325,5.5c-0.2,0.2-0.4,0.4-0.6,0.4c-0.1,0-0.2,0-0.3,0l0,0.4c-0.2,0.4-0.5,0.9-0.9,1.4c0,0.2-0.1,0.7-0.3,1.3
		l-0.3,0.2l-0.1,0.4l-0.2,0.3l0.2,0.7l-0.4,0.6l-0.1,0.5l-0.1,0.3v0.5l-0.5,1.3l0.1,0.6c0,0.1-0.2,0.4-0.4,1l0,0.1
		c0.2-0.1,0.4-0.2,0.6-0.2h0.2c0,0,0.2,0,0.3,0h0.1h1.2l0.1-0.1c0.3,0,0.5-0.1,0.5-0.1c0.2,0,0.5,0,0.8,0.1c0.3,0,0.5,0,0.8,0
		c0.2,0,0.4,0,0.5,0h0.3l0.5,0.1c0.9,0,1.3,0.4,1.3,1.1c0,0.2,0,0.4-0.1,0.7l-1.6,0.5l-0.9-0.1c-0.3,0.1-0.7,0.2-1.3,0.3l-0.2-0.3
		c-0.2,0.2-0.4,0.3-0.7,0.3h-0.4l-1,0.5l-0.5-0.3h-0.2c-0.2,0.2-0.4,0.4-0.7,0.5l0,0.2l-0.1,0.5l0.2,0.6l-0.5,0.9l0.1,1.4l-0.2,0.5
		l0.2,0.5l-0.4,0.8l0.1,0.4c0,0,0,0.1,0,0.2c0,0,0,0.3-0.1,0.8s-0.1,1-0.1,1.5v0.3c0,0,0.2,0.2,0.4,0.5l-0.3,0.6l0.3,0.7l-0.1,0.6
		l0.4,1.8l0.1,1.9l0.5,0.7l-0.3,0.8c0.3,0.5,0.4,0.9,0.4,1.2v0.1c0,0,0,0.1,0,0.2c0,0.1,0,0.2,0,0.2c0,0.9-0.5,1.4-1.6,1.4l-0.3-0.6
		l-0.4-0.3l-0.1-0.6l-0.7-2v-0.4c-0.1-0.4-0.1-0.7-0.1-0.8c0-0.1,0-0.2,0-0.3l-0.1-0.6l0.1-0.6l-0.1-0.4v-0.8l-0.3-2.3v-0.1V28v-0.5
		l-0.2-0.5l0.2-0.4v-1.9l0.2-0.2v-1.3l0.1-0.3l-0.1-1.1l0.1-0.4c0-0.4,0.2-1.3,0.4-2.7H318l-0.5-0.1H317l-1,0.1l-0.6-0.1l-1,0.2
		l-0.4-0.1c-0.1,0-0.3,0-0.4,0c-1.1-0.5-1.6-0.9-1.7-1.1l-0.2-0.6c0.3-0.9,0.7-1.4,1.3-1.4c0,0,0.4,0.1,1.2,0.3l2.1,0.1l1-0.2h0.9
		l0.3,0l0.1-0.5l0.1-1l0.2-0.4l-0.1-0.7c0-0.3,0.1-0.5,0.3-0.7V12l0.4-0.4l0.2-1.1l0.1-0.2l-0.1-0.5c0.3-0.3,0.4-0.6,0.4-0.8l0-0.2
		c0,0.2,0.2-0.4,0.5-1.7l0.3-0.2V6.2l0.1,0.2V6.2c0-0.4,0.2-0.7,0.5-0.9l0.2-0.3l0.4-1h0.1c0.3,0,0.4-0.2,0.4-0.5V3.4l1-0.4h0.3
		c0.3-0.1,0.6-0.1,1-0.1h0.3l0.2-0.1l0.8-0.2l0.9,0.2c0,0,0.1,0.1,0.3,0.1c0.2-0.1,0.4-0.1,0.5-0.1c0.3,0,0.6,0.3,0.9,0.8l0.5,0.4
		l0.4,0.7l0.5,0.5l0.1,1V6.3z"/>
	<path class="st2" d="M342.5,14.4l-0.3,1.2l-1.3,0.2l-0.7,0.5l-0.5-0.2l-0.5,0.3l-0.5,0.2l-0.4,0.2l0,0.1l-0.7,0.4l-0.5,0.7h-0.3
		c-0.4,0.4-0.7,0.7-0.8,0.8l-0.5,0.8l-0.2,0.1c-0.1,0.2-0.2,0.5-0.3,0.9l-0.5,0.2l-0.2,0.4l-0.3,0.4l-0.1,0.5l-0.3,0.1v0.5l-0.1,0.1
		c0.1,0.1,0.2,0.3,0.3,0.4l-0.5,0.2l-0.1,0.5l-0.4,0.6l0.2,0.5l-0.5,0.6c0,0.2,0.1,0.4,0.1,0.5c0,0,0,0.1,0,0.1c0,0.1,0,0.1,0,0.2
		l0.1,0.3l0.6,0.6l-0.5,0.8l-0.4,0.3l-1,0.5l-1.3-0.5v-0.8l-0.1-0.3l0.1-0.5c0-0.4-0.1-0.7-0.1-0.9c0-0.1,0-0.2,0-0.3
		c0-0.1,0-0.2,0-0.3l0-0.4c-0.2-0.2-0.3-0.4-0.3-0.6c0-0.2,0.1-0.4,0.3-0.6c0-0.1,0-0.5-0.1-1.1l0.1-0.1l-0.1-0.5l0.1-0.4l-0.1-0.3
		l0.1-0.8l-0.2-0.4l0.1-0.4l-0.1-0.5c0-0.1,0-0.3,0-0.6c0-0.4,0-0.6-0.1-0.7l0.1-0.2l-0.1-0.6l-0.3-0.5l0.2-0.6l-0.1-0.2l-0.1-0.9
		v-0.3c-0.1-0.1-0.2-0.3-0.2-0.5c0-0.5,0.5-0.9,1.6-1.2l0.9,0.2l0.2,0.7l0.4,0.5l-0.1,1c0.1,0.5,0.2,1,0.3,1.6l0.1,0.6
		c0,0,0,0.2,0.1,0.4c0,0.1-0.1,0.3-0.2,0.5l0.1,0.7l-0.1,0.8l-0.1,0.4l0.1,0.1l0.1,0.4c0.1-0.2,0.2-0.3,0.3-0.5l0.1-0.5
		c0.1-0.1,0.2-0.3,0.3-0.3l0.1-0.5l0.5-0.3l0.1-0.4l0.4-0.4l0.3-0.5c0.3-0.3,0.6-0.6,0.9-0.6l0.1-0.1l0.3-0.5l0.4-0.1l0.1-0.1
		l0.1-0.2l0.4-0.2L337,15l0.2,0l0.3-0.1l0.1-0.2l0.4-0.2l0.6-0.4l0.9-0.3c0.3,0,0.5-0.1,0.5-0.1v0c0,0,0,0,0,0h0
		c0.1,0,0.2,0,0.4-0.1c0.1-0.1,0.3-0.1,0.5-0.1c0.1,0,0.3,0,0.5,0.1C342.1,13.5,342.5,13.8,342.5,14.4z"/>
	<path class="st2" d="M355.6,19.4l-0.2,0.6c0,0.6,0,1.1-0.1,1.5l-0.2,0.4v0.4l-0.2,0.3l-0.1,0.5l-0.4,0.4l-0.3,0.9l-0.3,0.1
		l-0.1,0.4l-0.4,0.3l-0.3,0.6l-0.4,0.2l0,0.4l-0.7,0.3c-0.3,0.4-0.7,0.7-1.2,0.8l-0.1,0c-0.3,0.5-0.8,0.8-1.3,0.8
		c-0.2,0.1-0.5,0.2-0.8,0.2l-0.4,0.3l-0.4,0.1l-0.5,0.4h-0.5l-0.5,0.1l-0.6-0.3l-1.5-0.1l-0.5-0.8l-0.8-0.8l0.2-0.6l-0.5-1.2
		l0.2-0.5l-0.1-0.9l0.1-0.5c0-0.3,0-0.6,0-0.7c0-0.5,0.1-0.8,0.4-1c0-0.2,0.2-0.6,0.5-1.2h0.2l-0.1-0.3l0.1-0.5v-0.5
		c0.2-0.2,0.3-0.4,0.3-0.4l-0.1-0.5v-0.1c0.2-0.3,0.3-0.7,0.3-1l0.8-1c0.1-0.1,0.2-0.2,0.3-0.2l0-0.1h0.1l0.5-0.6l0-0.8l0.9-0.3
		c0.3-0.2,0.6-0.6,0.6-1.1h0.5c0.3-0.1,0.5-0.2,0.7-0.2s0.4,0,0.6,0.1l0.4,0l0.9-0.4L351,13l0.4,0.3h0.3l0.5,0.3h0.3
		c0.3,0.3,0.7,0.7,1.1,1.2l0.1,0.2l0.3,0.1l0.8,1l0.7,1.7v0.4L355.6,19.4z M353.3,20.2l0-0.2c-0.2-0.2-0.3-0.3-0.3-0.5l0.1-0.2
		l-0.3-0.7l0.1-0.7l-0.1-0.2c-0.3-0.2-0.5-0.4-0.5-0.6c-0.2-0.1-0.3-0.3-0.3-0.7l-0.2,0l-0.4-0.7l-0.3-0.3l-0.8-0.3l-0.3-0.1
		c-0.1,0-0.2,0-0.3-0.1l-0.7,0.8l-0.5,1l-0.8,0.4l-0.1,0.4l-0.4,0.2l-0.1,0.9l-0.4,0.2c-0.1,0.3-0.1,0.6-0.1,0.9l-0.6,0.5l0.2,0.1
		c0,0.3-0.1,0.5-0.4,0.8c-0.1,0.2-0.2,0.5-0.3,0.7v0.3v0.1v0.4l-0.4,1l0.1,0.2v1l-0.1,0.5l0,0.5l0.3,0.5l0.5,0.2l0.2,0.1h0.3h0.9
		l0.1-0.4h0.1c0.1,0,0.2,0,0.3,0.1l0.3-0.1l0.3,0.1l0.5-0.3l0.1-0.1l0.3-0.1c0.2-0.3,0.6-0.5,1.2-0.8l0.1-0.2l0.7-0.5l0.4-0.6
		l0.6-0.3l0-0.2l0.2-0.4v-0.5l0.4-0.4l0.1-0.3l0.2-0.2c-0.1-0.3-0.1-0.5-0.1-0.6c0-0.2,0.1-0.4,0.2-0.7L353.3,20.2z"/>
	<path class="st2" d="M388.7,23.5c-0.1,0.3-0.3,0.6-0.5,0.8c-0.1,0.3-0.2,0.5-0.3,0.6c-0.1,0.2-0.3,0.4-0.4,0.5l-0.1,0.2
		c-0.1,0.1-0.2,0.2-0.4,0.2l-0.2,0.4h-0.3l-0.2,0.3l-0.3,0.1l-0.2,0.3l-0.2,0.1c-0.4,0-0.7,0.1-0.9,0.3c-0.3,0.1-0.6,0.2-1,0.2
		s-0.7-0.1-1-0.3c-0.4,0-0.6-0.1-0.6-0.2l-0.5-0.1l-0.1-0.1l-0.2-0.4l-0.4-0.3c-0.3-0.3-0.4-0.6-0.4-0.9c-0.2-0.2-0.3-0.7-0.5-1.4
		l-0.4-0.6V23l-0.3-1.1l0-0.4l-0.2-1.1l0.1-0.9l-0.2-0.3l-0.4,0.9c-0.5,0.5-0.7,0.8-0.8,0.9s-0.2,0.2-0.3,0.2c0,0-0.1,0-0.1,0
		l-0.2,0.4c0,0,0,0.1,0,0.1c0,0.1,0.1,0.2,0.3,0.3c0,0-0.2,0.2-0.4,0.5c-0.1,0.2-0.2,0.3-0.3,0.4l-0.1-0.2l-0.1,0.5
		c-0.3,0.2-0.5,0.6-0.6,1.1c-0.2,0.3-0.6,0.8-1.1,1.3l-0.5,0.5c-0.1,0-0.2,0-0.2,0.1v0.1c-0.1,0.3-0.4,0.6-0.8,0.8l-0.4,0.5h-0.3
		l-0.9,0.3c-0.7,0-1.2-0.4-1.3-0.9l0-0.4l-0.2-0.5v-0.4l-0.3-1v-0.3L370,24l0.1-1.1c0-0.1,0-0.3,0-0.5c0-0.2,0-0.3,0-0.4v-0.2v-0.1
		l-0.2-0.4l0.3-0.7c0-0.2-0.1-0.5-0.2-0.9l0.1-0.3l0.1-1l-0.3-0.8l0.1-0.6l-0.1-0.3c0-0.1-0.1-0.3-0.3-0.7l-0.3,0.1l-0.5,0.6
		l-0.4,0.4l-0.9,1.1l-0.1,0.4l-0.6,0.6l-0.3,0.5l-0.3,0.3c-0.1,0.5-0.3,0.9-0.8,1.1l0,0.5c-0.1,0.1-0.3,0.3-0.5,0.6
		s-0.3,0.4-0.3,0.4c-0.1,0-0.2,0.1-0.3,0.2l-0.4,0.6c0,0.4-0.2,0.7-0.5,0.9v0.2c-0.1,0.2-0.3,0.4-0.6,0.6l0-0.1l-0.1,0.5
		c-0.2,0-0.4,0.2-0.5,0.7l-0.1,0.1c0,0.4-0.2,0.7-0.6,0.9l-0.5,0.5c-0.4,0.2-0.6,0.3-0.8,0.3c-0.6,0-1-0.5-1.2-1.6l-0.1-0.8
		c0,0,0-0.1,0-0.2c0-0.2,0-0.3,0.1-0.5l-0.1-0.7v-0.6V23c0-0.5,0.1-0.8,0.3-0.9c-0.1-0.5-0.1-0.8-0.1-0.9v-0.6
		c0.1-0.2,0.2-0.4,0.4-0.6l-0.3-0.2c-0.1-0.2-0.1-0.3-0.1-0.3c0-0.2,0.2-0.5,0.5-0.9l-0.3-0.7l0.1-0.4l-0.2-1l0.1-0.5L359,15
		l0.1-0.5l-0.3-0.7c0.5-0.9,1-1.4,1.5-1.4c0.3,0,0.6,0.1,0.8,0.4l0.1,0.4c0.4,0.2,0.6,0.5,0.6,1c0-0.1,0,0.2-0.1,0.8l-0.1,0l0.3,0.6
		l-0.3,0.3l0,0.1l0.3,1.7l-0.1,1.4l-0.1,0.3l0.1,0.6c0.1,0.1,0.1,0.2,0.1,0.4c0,0.2-0.1,0.4-0.3,0.6c0,0.3-0.1,0.6-0.2,0.8l0.1,1.1
		V23l0-0.1l0.2-0.3l0.5-0.9h0.1c0.1,0,0.3-0.2,0.5-0.7l0.3-0.7c0-0.1,0.2-0.4,0.5-0.7l0.1-0.6l0.4-0.6l0.1-0.5
		c0.1-0.1,0.2-0.2,0.4-0.3l0-0.1c0.1-0.1,0.3-0.3,0.8-0.8l0.2-0.1l0.1-0.4l0.2-0.1c0.1-0.5,0.4-0.8,0.9-1l-0.1-0.1L367,15
		c0,0,0-0.1,0-0.1s0-0.1,0.1-0.2l0.6-0.3l0.1-0.6h0.4c0,0,0-0.1,0.1-0.3l0.7-0.6c0.3-0.1,0.6-0.1,0.7-0.1c0.3,0,0.7,0.1,1.2,0.3
		l0.4,0.5l0.1,0.1l0.2,0.4l0.5,0.7v0.5l0.3,0.4v0.5c0.3,0.6,0.4,1.1,0.4,1.5l-0.1,0.4l0.2,0.6l-0.4,0.4l0.1,0.8l0,0.2l0,0.2
		c0,0.2-0.1,0.4-0.1,0.5s0.1,0.4,0.2,0.7l-0.1,0.4l0.1,0.5l-0.1,0.1c0,0.3,0.1,0.9,0.2,1.7l0,0.1l1.1-1.3l0.4-0.7
		c0.1-0.1,0.2-0.4,0.5-0.7v-0.1c0.1-0.4,0.3-0.6,0.5-0.8c0-0.1,0.1-0.3,0.4-0.5l0.3-0.2c0.1-0.4,0.3-0.7,0.8-1l0.2-0.5l0.3-0.4
		l0.4-0.4c0.2-0.2,0.4-0.4,0.5-0.8l0.3-0.4l0.1-0.5l0.4-0.2l0.4-0.5l0.4-0.9c-0.1,0-0.1,0-0.1-0.1l0.1-0.1l0.3-0.2l0.3-0.6
		c0.4-0.2,0.6-0.2,0.7-0.2l0.1,0.1l0.6,0l0.6,0.3l0.5,0.6l0.1,0.5l0,0.4l-0.2,0.1L382,16l-0.2,0.8c0.1,0.1,0.2,0.3,0.2,0.6
		c-0.1,0.1-0.1,0.3-0.1,0.5l-0.1,0.3c0,0.1,0,0.3,0,0.6c0,0.2,0,0.4,0,0.5l-0.1,0.2l0.2,0.3l-0.3,0.3c0.1,0,0.2,0.2,0.2,0.5
		c0,0.1,0.1,0.2,0.1,0.3c0,0.1,0,0.2,0,0.3c0,0.2,0,0.5,0,0.7v0.1c0,0,0.2,0.5,0.5,1.5l0.1,0.4l0.4,0.4l0.2,0.5l0.2,0.1l0.1,0.2
		l0.2,0l0.3,0.1l0.2,0h0.1c0.2,0,0.5-0.1,0.9-0.3c0.1-0.2,0.3-0.5,0.8-0.8c0-0.1,0.2-0.3,0.4-0.7l0.6-0.4l0.2-0.4
		c0.2-0.1,0.4-0.2,0.6-0.2c0.3,0,0.6,0.1,0.9,0.2C388.6,22.7,388.7,23,388.7,23.5z"/>
	<path class="st2" d="M411.1,14.9c0,0.2-0.2,0.4-0.6,0.6c-0.1,0.1-0.3,0.2-0.5,0.3c-0.3,0.1-0.6,0.3-0.7,0.4l-0.8-0.3
		c-0.4,0.3-0.9,0.4-1.5,0.4l-0.4-0.1l-0.3,0.3h-1l-0.6,0.4c-0.3-0.1-0.5-0.1-0.8-0.1c-0.1,0-0.2,0.1-0.5,0.1c-0.1,0-0.3,0-0.4-0.1
		l-0.1,1.4v1v1.3l0,1.4l0.1,0.6l0,0.5l0.5,1.1c-0.1,0.1-0.1,0.2-0.1,0.3c0,0.2,0.3,0.3,0.8,0.4l0.1,0.4l0.3,0.1l0.4,0.3l0.3,0.2
		c0.2,0,0.4-0.1,0.5-0.1c0.2,0,0.4,0,0.6,0.1c0.1,0,0.3-0.2,0.6-0.5c0.2-0.2,0.4-0.3,0.6-0.3c0,0,0.1,0,0.1,0c0,0,0.1,0,0.1,0
		c0.2-0.4,0.6-0.7,1.2-0.9c0.5,0,0.9,0.2,1.3,0.5v0.3c0,0.8-0.3,1.3-0.9,1.5c-0.2,0.5-0.7,0.8-1.4,1l-0.4,0.4H407l-0.8,0.2
		c-0.2,0-0.5,0.1-0.8,0.1c-0.2,0-0.4,0-0.6-0.1h-0.5l-1.3-0.7l-0.3-0.1l-0.8-1l-0.4-0.5l-0.8-1.8l-0.3-1.7l0.1-0.4l-0.3-0.4l0.2-0.5
		l-0.2-0.8l0.3-0.3l0.1-0.5l-0.1-0.4l0.1-0.6l-0.2-0.6l0.2-0.2v-0.6l-0.3-0.1l-0.7,0.1l-0.6-0.4h-0.1c-0.7,0-1.1-0.4-1.1-1.2v-0.1
		l-0.4-0.7l0.7-0.7l0.9,0.1l0.5-0.1l0.7,0.2h0.8v-0.7l-0.5-1l0.5-0.3l-0.2-0.5l0-1.1l-0.3-0.5c-0.2-0.3-0.3-0.5-0.3-0.7
		c0-0.3,0.1-0.5,0.2-0.6l0.1-0.5l0.3-0.3c0.6-0.1,1.1-0.2,1.3-0.2c0.8,0,1.2,0.3,1.3,1l-0.1,0.2c0.1,0.2,0.2,0.4,0.2,0.6
		c0,0,0,0.1,0,0.2l-0.1,0.2l0,0.3l0.1,0.5l0,0.2l0.1,0.5l-0.3,0.4l0.2,0.7l-0.1,0.9l0.3,0.3l-0.3,0.7l1.1-0.2l2,0.2l1.6-0.3l0.5,0
		l0.2,0h1.4C410.7,14.1,411.1,14.3,411.1,14.9z"/>
	<path class="st2" d="M427.9,27.4c0,1-0.5,1.4-1.6,1.4c-0.5,0-0.9-0.2-1.1-0.6c-0.2-0.3-0.4-1-0.6-1.9v-0.5c0.1-0.1,0.1-0.2,0.1-0.4
		c0,0,0-0.1,0-0.2l-0.5-0.8l0.4-0.7l-0.2-0.8l0.2-0.4v-0.5v-0.4l-0.1-0.6l0.1-0.3v-1.2v-1.5l-0.2-1.2l0.2-0.4l-0.3-0.9l-0.3,0.3
		l-0.8,0.3l-1.1,1.4l-0.4,0l-0.7,1l-0.1,0.4l-0.4,0.2l-0.4,0.6l-0.2,0.4l-0.2,1.3l-0.7,0.8l-0.2,0.5l-0.4,0.3l-0.2,0.9l-0.8,0.6
		l-0.1,1.3h-0.3l-0.1,0.2l-0.6,1.1l-0.6,0.6l-0.5,0.7l-0.6-0.2h-0.5l-0.4-0.6l-0.4-1.3v-1.9l-0.1-0.6l0.1-0.7v-1.7l0.2-0.1l0.2-2.5
		l0.1-0.5v-0.8l0.2-0.1l0.1-1.2l0.1-0.4l-0.1-0.5l0.1-0.2l-0.1-0.1l0.1-1l-0.3-0.3l0.3-0.5l0-1l-0.4-1l0.3-0.3l-0.3-1V9.6l-0.1-0.3
		l-0.2-1.2l-0.2-0.5l-0.5-1l0.4-0.5l0.4-0.6h0.3c0.5,0,0.9,0.2,1.2,0.6l0.5,0.4l0.2,0.6l0.5,0.5L416.1,8l0.3,0.8v0.1v0.1v1.2l0,1.6
		l0.3,1l-0.2,0.4l0.1,0.6l-0.2,0.5l0.1,0.9l-0.1,0.7V16v2.2v0.5l-0.2,0.3l-0.1,1.2l-0.1,0.5l0.2,1l-0.2,0.3v0.7
		c0.3-0.1,0.4-0.2,0.4-0.4l0.3-0.3l0.3-0.5l0.1-0.7l0.4-0.6l0.2-0.7l0.5-0.6l0.1-0.7l0.3,0v-0.3l0-0.4l0.5-0.2v-0.3l0.4-0.1l0.1-0.6
		l0-0.3l0.6-0.3l0.2-0.2l-0.1-0.4l0.3-0.1l0.3-0.6h0.4l0.4-0.3c0-0.2,0-0.3,0-0.4l0.4-0.2c0.4-0.4,0.8-0.6,1.2-0.6v-0.1
		c0.6-0.3,1.1-0.5,1.3-0.5c0.4,0,0.7,0.2,1,0.5c0.3,0.1,0.4,0.3,0.5,0.5l0.3,0.2l0.1,0.5l0.5,0.8v2.9v1.3l0.2,0.3v2.7l-0.2,0.5v0.7
		l0.2,0.8l-0.2,0.7c0.1,0.4,0.2,0.7,0.2,0.9l0.4,0.4v0.3l0.1,0.1C427.8,27,427.9,27.2,427.9,27.4z"/>
	<path class="st2" d="M443.1,24.8c0,0.3-0.2,0.6-0.6,1.1c-0.1,0.4-0.3,0.7-0.5,0.9l-0.2,0l-0.4,0.7l-0.6,0.1l-0.7,0.4l-0.4,0.6h-0.4
		c-0.3,0.1-0.5,0.2-0.6,0.2l-0.2,0.3c-0.1,0-0.2,0-0.3,0c-0.3,0-0.6,0.2-0.9,0.6l-0.5-0.4c-0.1,0-0.2,0-0.4,0
		c-0.3,0-0.6-0.1-0.8-0.2h-0.6l-0.3-0.2c-0.9-0.1-1.5-0.5-1.7-1v-0.1l-0.4-0.2l-0.2-0.6l-0.4-0.3v-0.5l-0.4-1.6v-1.3l0.2-0.6v-0.7
		l0.2-0.6l0-0.2l0.3-0.4l-0.1,0.1c0-0.2,0.1-0.4,0.2-0.7V20l-0.1-0.9c0-0.4,0.2-0.8,0.5-1.1c0,0,0-0.1,0-0.2c0-0.1,0-0.3-0.1-0.6
		c-0.1-0.3-0.1-0.5-0.1-0.6c0-0.3,0.1-0.6,0.2-0.9c0.2,0.3,0.5,0.4,0.8,0.4h0.1c0-0.1,0.2-0.2,0.3-0.3c0.2-0.6,0.5-1.1,0.8-1.5
		l0.1-0.1c0-0.1,0.1-0.4,0.2-0.8h0.3l0.1-0.2l0.3-0.1c0.1-0.2,0.2-0.3,0.2-0.3c0,0,0.3-0.2,0.8-0.5c0.1-0.2,0.2-0.3,0.4-0.5
		c0.1,0,0.2-0.1,0.4-0.1l0.1-0.2c0.6-0.2,1.1-0.3,1.2-0.3c0.2,0,0.4,0,0.5,0.1l0.2,0l0.3,0.1c0.3,0.2,0.6,0.4,0.9,0.5l0.6,0.5v0.1
		c0.6,0.4,0.8,1,0.8,1.8l-0.1,0.4l0.1,1.2l-0.3,0.2l-0.4,0.9l-0.7,0.8l0,0.6c-0.8,0.6-1.5,1-2.1,1.3c-0.2,0.3-0.6,0.5-1,0.5h-0.1
		l-0.7,0.4H436l-0.9,0.4l-0.6-0.3h-0.1c0,0.2-0.1,0.5-0.1,0.9l-0.3,0.2l0,0.4l-0.2,0.6c0,0.6,0.1,1,0.1,1.1l-0.1,0.1
		c0,0.3,0,0.5,0,0.7c0,0,0,0.1,0,0.1c0,0,0,0.1,0,0.1c0,0.2,0.1,0.4,0.3,0.5c0.1,0.3,0.2,0.5,0.4,0.5l0.3,0.2l0.8,0.2v0.1l0.3,0.1
		h1.2l0.7-0.1l0.4-0.2l0.2-0.1l0.4-0.5l0.2,0l0.9-0.3c0.1-0.2,0.3-0.3,0.5-0.4l0.1-0.2c0.5-0.1,0.8-0.3,0.8-0.7
		c0.3-0.3,0.8-0.5,1.3-0.5h0.1C442.9,24.1,443.1,24.5,443.1,24.8z M439.6,14.5c0-0.1,0-0.2-0.1-0.4l-0.2,0l-0.1,0c0,0-0.1,0-0.1,0
		c0,0-0.1,0-0.1,0c0,0-0.1,0-0.1,0c0,0-0.1,0-0.1,0l-0.4,0.3l-0.3,0l-0.2,0.1l-0.6,0.8l-0.4,0.3l-0.6,1l-0.3,0.2
		c-0.1,0.4-0.2,0.8-0.5,1l-0.1,0.3c0.3-0.2,0.6-0.3,0.9-0.3l0.3-0.1l0.1-0.3l0.5,0l0.3-0.4h0.2l0.4,0.1l0.2-0.5h0.3v-0.4l0.5-0.1
		l0.1-0.1l0.1-0.3l0.5-0.7C439.5,14.8,439.6,14.6,439.6,14.5z"/>
	<path class="st2" d="M464.5,23.9c0,0.3-0.1,0.5-0.3,0.6c-0.2,0.3-0.5,0.6-0.9,0.9l-0.4,0.3l-0.3,0.4l-0.3,0.1l-0.5,0.3l-0.4,0
		l-0.1,0.1c-0.5,0.1-0.8,0.4-1.1,0.7c-0.2,0.1-0.3,0.2-0.5,0.2c-0.1,0-0.2,0-0.3,0c-0.4,0.2-0.9,0.4-1.6,0.4c-0.5,0-0.9,0-1.1-0.1
		l-0.6-0.4l-0.2-0.4V27c0-0.3-0.1-0.6-0.4-0.8l-0.1-0.7l-0.3-0.3l-0.2-1.3v-0.8v-0.6l0.1-0.2c-0.1-0.1-0.1-0.3-0.1-0.5
		c0.1-1,0.2-1.6,0.2-1.9l-0.3-0.6l0.3-0.5l0.1-0.9l-0.1-0.6l0.2-0.5l-0.2-0.7l0.4-0.5l0-0.3v-1.3v-0.3v-1.5l0.1-1.5l-0.1-0.3V9.2v-1
		V7.8l0.2-2.2c1-0.2,1.4-0.4,1.3-0.4c0.4,0,0.7,0.2,0.9,0.6l0.1,0.3l0.5,0.5l-0.1,0.8v0.1c-0.1,0.5-0.2,0.8-0.3,0.9l0.1,0.8l0.1,0.7
		l-0.3,0.8c0,0.4-0.1,0.8-0.2,1.1c0,0.1,0,0.3-0.1,0.6l0,0.2l0.3,0.4l-0.1,0.4c0.1,0.2,0.1,0.3,0.1,0.4c0,0.1-0.1,0.3-0.2,0.6
		l0.1,0.3l-0.2,1.2v0.8l-0.3,0.8l0.1,0.7l-0.1,1.6l0.1,0.2l-0.2,0.8l-0.1,1c0,0.1-0.1,0.2-0.1,0.3c0,0.4,0,0.7,0,1l0.1,0.5V24
		l0.2,0.5l0,0.2c0.1,0.1,0.3,0.3,0.4,0.6h0.3l0.5,0.1l0.2-0.3l0.3,0c0.1,0,0.3-0.1,0.3-0.1h0.1c0.2,0,0.4-0.2,0.6-0.4l0.2-0.1
		c0.2-0.3,0.4-0.4,0.8-0.5c0.1-0.1,0.3-0.3,0.7-0.6c0-0.3,0.2-0.6,0.6-0.8c0.4,0,0.6-0.1,0.7-0.2c0.5,0.1,0.8,0.2,0.9,0.4
		C464.4,23,464.5,23.3,464.5,23.9z"/>
	<path class="st2" d="M476.1,22.5c0,0.6-0.1,0.9-0.3,1l-0.2,0.1l-0.2,0.5l-0.6,0.2c-0.2,0.4-0.4,0.7-0.8,0.9l-0.3,0.1l-0.5,0.5
		l-0.4,0.1c-0.2,0.4-0.5,0.7-1,0.7c0,0.1-0.2,0.2-0.3,0.4c-0.4,0.2-0.7,0.4-1.1,0.4l-0.2,0l-0.3,0.3h-0.7l-0.6,0.4l-1.5-1.1
		l-0.7-1.4l0-1.8l-0.1-0.4l0.4-3.2l0.1-0.1c-0.1-0.4-0.1-0.7-0.1-1c0-0.2,0.1-0.7,0.2-1.3l0.2-0.8c0-0.1-0.1-0.3-0.3-0.5l0.2-0.7
		l0.1-0.8l0.1-0.1c-0.1-0.2-0.2-0.5-0.2-0.7c0,0,0-0.1,0.1-0.2c0-0.1,0-0.1,0-0.2c-0.1-0.2-0.1-0.4-0.1-0.6c0-0.6,0.3-0.8,1-0.8h0.4
		c0.3-0.1,0.5-0.2,0.5-0.2c0.5,0,0.8,0.3,1,0.8v0.1c0.1,0.3,0.1,0.6,0.1,0.8c0,0.2,0,0.4-0.1,0.5l-0.3,1.8l0.3,0.5
		c0,0.4-0.1,0.8-0.4,1.2l0.1,0.4l-0.5,1.4c0,0.6-0.1,1.1-0.2,1.4v0.9l-0.2,0.5l0,0.4l-0.1,0.8l0.1,0.6l0.5,0.4l0.4-0.1l0.1-0.1
		l0.3,0l0.5-0.1l0.4-0.4l0.1-0.2l0.3,0l0.1-0.2l0.1-0.1l0.2,0.1l0.4-0.4l0.2,0l0.1-0.3h0.1l0.1-0.3l0.3-0.1l0.7-0.3
		c0.6-0.4,1.1-0.6,1.6-0.6h0.1C475.9,22,476,22.3,476.1,22.5z M472.5,3.4c0,0.3-0.2,0.5-0.6,0.8v0.1c-0.5,0.5-0.9,0.9-1.2,0.9
		l-0.5,0.6l-0.4,0.5L469,6.5l-0.4,0.5L468,7.3l-0.9,0.8l-0.6-0.5l0.1-0.9l0.4-0.6c0-0.3,0.2-0.6,0.6-0.9V5.1l0.2-0.1l0-0.5l0.6-0.1
		V3.9l0.4-0.1c0.1-0.5,0.3-0.8,0.6-1l0.1-0.1l0.2-0.2l0.3-0.9C471.7,2.1,472.5,2.6,472.5,3.4z"/>
	<path class="st2" d="M491.6,24.8l-0.4,0.5l-0.4,0.9l-0.3,0.2l-0.3,0.5l-0.7,0.1l-0.5,0.5h-0.7l-0.4,0.4l-0.4-0.1l-0.5,0.1v0.3
		l-1.3-0.1h-0.6l-0.4,0.3l-0.4-0.2c0.2,0,0.4,0,0.6,0c-0.2,0-0.8,0.1-1.7,0.1l-0.1-0.1l-0.3-0.1l-0.5,0.3c-0.1-0.1-0.4-0.1-0.8-0.2
		c-0.5,0-0.9,0-1,0h-0.3c-0.2-0.1-0.3-0.1-0.5-0.1c-0.2,0-0.4,0-0.6,0.1l-0.5-0.3l-0.3-0.1c-0.1,0-0.2,0-0.4-0.1
		c-0.9-0.1-1.3-0.8-1.3-2.2V25l0.7-0.5l0.9-0.3l0.6,0.3h0.5v0.1c0.2,0.1,0.4,0.3,0.6,0.6l0.3,0v0.5l0.5,0.1l0.1,0.1l4.6-0.3l1.1-0.2
		h0.1l0.1-0.2l0.5-0.1l0.1-0.1c0.5-0.1,1-0.2,1.4-0.4l0-0.2c0,0-0.1-0.1-0.1-0.3l-0.2,0l-0.5-0.4h-0.3l-0.2-0.3l0.1-0.1l-0.4,0.1
		l-0.3-0.3c-0.1,0-0.2,0-0.4,0c-0.3,0-0.6-0.1-0.9-0.2h-0.3l-0.3-0.1l-0.5,0.2l-0.3-0.3H484l-0.5-0.4l-1.1-0.4l-0.4-0.3l-1.4-0.3
		l-0.1-0.3l-1-0.6l-0.5-1.2l-0.4-0.6l-0.1-1.9l0.1-0.2c0-0.6,0.2-1,0.6-1.4c0.4-0.2,0.5-0.5,0.5-0.8l0.5-0.1
		c0.1-0.2,0.3-0.4,0.6-0.5l0.5-0.4l2.3-0.9l0.4-0.1l0.7-0.1l1.2-0.3l2.3,0.1l0.1,0.2c0.2,0.1,0.5,0.3,0.7,0.6v0.2l0.6,0.4l-0.3,0.9
		l-0.1,0.3c-0.1,0.6-0.5,0.9-1,0.9c-0.4,0-0.8-0.2-1-0.6v-0.1l-0.4,0l-0.5,0.1l-0.5-0.4l-0.3,0.2c-0.3,0-0.6,0.1-0.9,0.3
		c-0.4,0-0.7,0.2-1,0.4l-0.5,0l-0.3,0.2l-0.5,0.1l-0.1,0.1L482,16l-0.3,0.3l-0.1,0l-0.3,0.5l-0.4,0.2c-0.1,0.3-0.2,0.6-0.2,0.8
		c0,0.3,0.1,0.6,0.1,0.7c0.1,0.1,0.2,0.2,0.5,0.3v0.2l0.5,0.3c0.4,0.1,0.7,0.3,0.9,0.5l0.7,0l0.5,0.4l0.8,0.1l0.3,0.2l1.4,0.4
		l0.2,0.4l0.1-0.3c0.3,0,0.7,0.1,1.3,0.4l0.6,0.1l0.1,0.3h0.6l1,0.6c0.1,0.3,0.4,0.6,0.8,0.9l0.4,0.3l-0.1,0.4
		c0.2,0.2,0.3,0.5,0.3,0.8V24.8z"/>
	<path class="st2" d="M505.6,14.9c0,0.2-0.2,0.4-0.6,0.6c-0.1,0.1-0.3,0.2-0.5,0.3c-0.3,0.1-0.6,0.3-0.7,0.4l-0.8-0.3
		c-0.4,0.3-0.9,0.4-1.5,0.4l-0.4-0.1l-0.3,0.3h-1l-0.6,0.4c-0.3-0.1-0.5-0.1-0.8-0.1c-0.1,0-0.2,0.1-0.5,0.1c-0.1,0-0.3,0-0.4-0.1
		l-0.1,1.4v1v1.3l0,1.4l0.1,0.6l0,0.5L498,24c-0.1,0.1-0.1,0.2-0.1,0.3c0,0.2,0.3,0.3,0.8,0.4l0.1,0.4l0.3,0.1l0.4,0.3l0.3,0.2
		c0.2,0,0.4-0.1,0.5-0.1c0.2,0,0.4,0,0.6,0.1c0.1,0,0.3-0.2,0.6-0.5c0.2-0.2,0.4-0.3,0.6-0.3c0,0,0.1,0,0.1,0c0,0,0.1,0,0.1,0
		c0.2-0.4,0.6-0.7,1.2-0.9c0.5,0,0.9,0.2,1.3,0.5v0.3c0,0.8-0.3,1.3-0.9,1.5c-0.2,0.5-0.7,0.8-1.4,1l-0.4,0.4h-0.5l-0.8,0.2
		c-0.2,0-0.5,0.1-0.8,0.1c-0.2,0-0.4,0-0.6-0.1h-0.5l-1.3-0.7l-0.3-0.1l-0.8-1l-0.4-0.5l-0.8-1.8l-0.3-1.7l0.1-0.4l-0.3-0.4l0.2-0.5
		l-0.2-0.8l0.3-0.3l0.1-0.5l-0.1-0.4l0.1-0.6l-0.2-0.6l0.2-0.2v-0.6l-0.3-0.1l-0.7,0.1l-0.6-0.4h-0.1c-0.7,0-1.1-0.4-1.1-1.2v-0.1
		l-0.4-0.7l0.7-0.7l0.9,0.1l0.5-0.1l0.7,0.2h0.8v-0.7l-0.5-1l0.5-0.3l-0.2-0.5l0-1.1L495,10c-0.2-0.3-0.3-0.5-0.3-0.7
		c0-0.3,0.1-0.5,0.2-0.6l0.1-0.5l0.3-0.3c0.6-0.1,1.1-0.2,1.3-0.2c0.8,0,1.2,0.3,1.3,1l-0.1,0.2c0.1,0.2,0.2,0.4,0.2,0.6
		c0,0,0,0.1,0,0.2l-0.1,0.2l0,0.3l0.1,0.5l0,0.2l0.1,0.5l-0.3,0.4l0.2,0.7l-0.1,0.9l0.3,0.3l-0.3,0.7l1.1-0.2l2,0.2l1.6-0.3l0.5,0
		l0.2,0h1.4C505.2,14.1,505.6,14.3,505.6,14.9z"/>
	<path class="st2" d="M530.4,22.2l-0.3,0.3l0.1,0.9l-0.8,1v0.4l-0.3,0.3l0.2,0.3l-0.7,0.7l-0.5,0.8l-0.8,0.4
		c-0.3,0.3-0.6,0.4-0.9,0.5l-0.3,0.6l-0.4-0.3l-0.4,0.5c0-0.1-0.1-0.3-0.3-0.5l-0.3-0.1l-0.3,0.3h-0.1l-0.3,0.3l-0.5-0.1l-0.8,0.3
		l-0.5-0.4c-0.1,0-0.2,0-0.3,0c-0.4,0-0.9-0.1-1.4-0.3l-0.5-0.3l-0.2-0.2l-0.6-0.2l-0.3-0.8c-0.4,0-0.8-0.1-1.3-0.3l-0.8-1.6
		l0.2-0.3l-0.2-0.3v-0.6l-0.2-0.4l0.2-0.4c-0.1-0.3-0.2-0.5-0.2-0.7c0,0,0-0.1,0-0.1c0-0.1,0-0.1,0-0.1v-1.1l0.1-0.4v-2.1l0.1-0.5
		l-0.1-0.2l0.4-1l-0.2-0.3v-0.8l0.2-0.2l0-0.5l-0.1-0.4l0.3-1.2l-0.3-1.4l0.1-0.1V11c0-0.1,0-0.3,0-0.6c0-0.3,0-0.6,0-0.8V9.4
		l-0.3-1c0-0.2,0.1-0.3,0.3-0.4c0-0.1-0.1-0.2-0.2-0.3c0.1-0.1,0.2-0.3,0.2-0.4c0-0.2-0.1-0.4-0.4-0.6c0-0.2,0-0.4,0.1-0.6l-0.1-0.4
		l0.2-0.4l-0.6-1.2l0.6-0.1V3.9l1.3-0.6l0.6,0.8l0.1,0.4l0.5,0.4l0,0.5c0,0.2,0,0.5-0.1,0.8c0.2,0.2,0.3,0.3,0.3,0.5
		c0,0.1,0,0.2-0.1,0.3L520,7l-0.1,0.6l0.3,0.6L520,8.4l0.5,0.2l-0.2,0.5l-0.2,0.9c0,0.1-0.1,0.4-0.1,0.6c0,0.1,0,0.5,0,1V12v0.3
		l-0.1,0.6c0,0.2,0,0.4-0.1,0.6l0,0.1c0.1,0.1,0.3,0.3,0.4,0.5l-0.4,0.8l0.1,0.4l-0.1,0.2c0,0.2,0,0.4-0.1,0.7l0,0.1l0,0.4l0,0.5
		l-0.1,1.2l0.5,0.1l0.1-1.1l0.3-0.8l0.1,0.1l0.2-0.5c0.1-0.4,0.3-0.8,0.6-1.2c0-0.1,0.1-0.2,0.2-0.3l0.1-0.1v0.1l0.1-0.4l0.4-0.5
		l0.3-0.3l0-0.1l0.2-0.3c0-0.3,0.1-0.5,0.3-0.7l0.1-0.3l0.5-0.1l0.2-0.1l0.1-0.2v-0.5l0.5-0.1l0.3-0.1l-0.3-0.3l0.6-0.1l0.6-0.5h1.1
		l0.7,0.4l0.2,0l0.6,0.9l0,0.4l0.3,0l0.1,0.8l0.4,0.3v0.5l0.2,0.3l0.3,0.1l0.1,1.2v0.1c0,0.1,0.1,0.3,0.2,0.5
		c0.1,0.2,0.2,0.4,0.2,0.5c0,0.1,0,0.3-0.1,0.4l0.4,0.2c0,0.3-0.1,0.6-0.3,0.8l0.1,0.8c0.1,0.2,0.1,0.4,0.1,0.5c0,0.1,0,0.2-0.1,0.4
		l0,1.5l0.1,0.3l-0.1,0.6L530.4,22.2z M528,19.5l-0.1-0.6l0-0.6l-0.3-1.7l-0.3-1.2l-0.5-1l-0.8-1.3l-0.2,0.1l-0.1,0.2h-0.2
		c-0.1,0.4-0.4,0.7-0.8,0.7c-0.2,0.3-0.4,0.6-0.8,1.1l-0.4,0.4l-0.2,0.5l-0.3,0.4l-0.4,0.9c0,0.4-0.2,0.9-0.5,1.3l-0.2,0.3v0.6
		l-0.6,0.8l-0.3,1.3l-0.3,0.1c0,0,0,0.1,0,0.1c0,0.1,0,0.1,0,0.2c0,0.4-0.1,0.9-0.3,1.3l0.2,0.6l-0.5,0.2l-0.1,0.1l-0.3,0.3l0.8,0.2
		l0.5,0.3L522,25l0.7,0.3v0.5l0.1,0.1h0.9l0.6-0.1c0.1-0.2,0.4-0.3,0.6-0.3h0.1l0.3-0.1l-0.1-0.4h1c0.2-0.6,0.6-1.2,1.2-1.7v-0.4
		l0.4-0.8v-0.8l0.1-0.9l-0.1-0.6L528,19.5z"/>
	<path class="st2" d="M545.1,24.8c0,0.3-0.2,0.6-0.6,1.1c-0.1,0.4-0.3,0.7-0.5,0.9l-0.2,0l-0.4,0.7l-0.6,0.1l-0.7,0.4l-0.4,0.6h-0.4
		c-0.3,0.1-0.5,0.2-0.6,0.2l-0.2,0.3c-0.1,0-0.2,0-0.3,0c-0.3,0-0.6,0.2-0.9,0.6l-0.5-0.4c-0.1,0-0.2,0-0.4,0
		c-0.3,0-0.6-0.1-0.8-0.2h-0.6l-0.3-0.2c-0.9-0.1-1.5-0.5-1.7-1v-0.1l-0.4-0.2l-0.2-0.6l-0.4-0.3v-0.5l-0.4-1.6v-1.3l0.2-0.6v-0.7
		l0.2-0.6l0-0.2l0.3-0.4l-0.1,0.1c0-0.2,0.1-0.4,0.2-0.7V20l-0.1-0.9c0-0.4,0.2-0.8,0.5-1.1c0,0,0-0.1,0-0.2c0-0.1,0-0.3-0.1-0.6
		c-0.1-0.3-0.1-0.5-0.1-0.6c0-0.3,0.1-0.6,0.2-0.9c0.2,0.3,0.5,0.4,0.8,0.4h0.1c0-0.1,0.2-0.2,0.3-0.3c0.2-0.6,0.5-1.1,0.8-1.5
		l0.1-0.1c0-0.1,0.1-0.4,0.2-0.8h0.3l0.1-0.2l0.3-0.1c0.1-0.2,0.2-0.3,0.2-0.3s0.3-0.2,0.8-0.5c0.1-0.2,0.2-0.3,0.4-0.5
		c0.1,0,0.2-0.1,0.4-0.1l0.1-0.2c0.6-0.2,1.1-0.3,1.2-0.3c0.2,0,0.4,0,0.5,0.1l0.2,0l0.3,0.1c0.3,0.2,0.6,0.4,0.9,0.5l0.6,0.5v0.1
		c0.6,0.4,0.8,1,0.8,1.8l-0.1,0.4l0.1,1.2l-0.3,0.2l-0.4,0.9l-0.7,0.8l0,0.6c-0.8,0.6-1.5,1-2.1,1.3c-0.2,0.3-0.6,0.5-1,0.5h-0.1
		l-0.7,0.4H538l-0.9,0.4l-0.6-0.3h-0.1c0,0.2-0.1,0.5-0.1,0.9l-0.3,0.2l0,0.4l-0.2,0.6c0,0.6,0.1,1,0.1,1.1l-0.1,0.1
		c0,0.3,0,0.5,0,0.7c0,0,0,0.1,0,0.1c0,0,0,0.1,0,0.1c0,0.2,0.1,0.4,0.3,0.5c0.1,0.3,0.2,0.5,0.4,0.5l0.3,0.2l0.8,0.2v0.1l0.3,0.1
		h1.2l0.7-0.1l0.4-0.2l0.2-0.1l0.4-0.5l0.2,0l0.9-0.3c0.1-0.2,0.3-0.3,0.5-0.4l0.1-0.2c0.5-0.1,0.8-0.3,0.8-0.7
		c0.3-0.3,0.8-0.5,1.3-0.5h0.1C544.9,24.1,545.1,24.5,545.1,24.8z M541.5,14.5c0-0.1,0-0.2-0.1-0.4l-0.2,0l-0.1,0c0,0-0.1,0-0.1,0
		c0,0-0.1,0-0.1,0c0,0-0.1,0-0.1,0c0,0-0.1,0-0.1,0l-0.4,0.3l-0.3,0l-0.2,0.1l-0.6,0.8l-0.4,0.3l-0.6,1l-0.3,0.2
		c-0.1,0.4-0.2,0.8-0.5,1l-0.1,0.3c0.3-0.2,0.6-0.3,0.9-0.3l0.3-0.1l0.1-0.3l0.5,0l0.3-0.4h0.2l0.4,0.1l0.2-0.5h0.3v-0.4l0.5-0.1
		l0.1-0.1l0.1-0.3l0.5-0.7C541.5,14.8,541.5,14.6,541.5,14.5z"/>
	<path class="st2" d="M557.3,23.9c0,0.3-0.1,0.5-0.3,0.6c-0.2,0.3-0.5,0.6-0.9,0.9l-0.4,0.3l-0.3,0.4l-0.3,0.1l-0.5,0.3l-0.4,0
		l-0.1,0.1c-0.5,0.1-0.8,0.4-1.1,0.7c-0.2,0.1-0.3,0.2-0.5,0.2c-0.1,0-0.2,0-0.3,0c-0.4,0.2-0.9,0.4-1.6,0.4c-0.5,0-0.9,0-1.1-0.1
		l-0.6-0.4l-0.2-0.4V27c0-0.3-0.1-0.6-0.4-0.8l-0.1-0.7l-0.3-0.3l-0.2-1.3v-0.8v-0.6l0.1-0.2c-0.1-0.1-0.1-0.3-0.1-0.5
		c0.1-1,0.2-1.6,0.2-1.9l-0.3-0.6l0.3-0.5l0.1-0.9l-0.1-0.6l0.2-0.5l-0.2-0.7l0.4-0.5l0-0.3v-1.3v-0.3v-1.5l0.1-1.5l-0.1-0.3V9.2v-1
		V7.8l0.2-2.2c1-0.2,1.4-0.4,1.3-0.4c0.4,0,0.7,0.2,0.9,0.6l0.1,0.3l0.5,0.5l-0.1,0.8v0.1c-0.1,0.5-0.2,0.8-0.3,0.9l0.1,0.8l0.1,0.7
		l-0.3,0.8c0,0.4-0.1,0.8-0.2,1.1c0,0.1,0,0.3-0.1,0.6l0,0.2l0.3,0.4l-0.1,0.4c0.1,0.2,0.1,0.3,0.1,0.4c0,0.1-0.1,0.3-0.2,0.6
		l0.1,0.3l-0.2,1.2v0.8l-0.3,0.8l0.1,0.7l-0.1,1.6l0.1,0.2l-0.2,0.8l-0.1,1c0,0.1-0.1,0.2-0.1,0.3c0,0.4,0,0.7,0,1l0.1,0.5V24
		l0.2,0.5l0,0.2c0.1,0.1,0.3,0.3,0.4,0.6h0.3l0.5,0.1l0.2-0.3l0.3,0c0.1,0,0.3-0.1,0.3-0.1h0.1c0.2,0,0.4-0.2,0.6-0.4l0.2-0.1
		c0.2-0.3,0.4-0.4,0.8-0.5c0.1-0.1,0.3-0.3,0.7-0.6c0-0.3,0.2-0.6,0.6-0.8c0.4,0,0.6-0.1,0.7-0.2c0.5,0.1,0.8,0.2,0.9,0.4
		C557.2,23,557.3,23.3,557.3,23.9z"/>
	<path class="st2" d="M571.8,19.4l-0.2,0.6c0,0.6,0,1.1-0.1,1.5l-0.2,0.4v0.4l-0.2,0.3L571,23l-0.4,0.4l-0.3,0.9l-0.3,0.1l-0.1,0.4
		l-0.4,0.3l-0.3,0.6l-0.4,0.2l0,0.4l-0.7,0.3c-0.3,0.4-0.7,0.7-1.2,0.8l-0.1,0c-0.3,0.5-0.8,0.8-1.3,0.8c-0.2,0.1-0.5,0.2-0.8,0.2
		l-0.4,0.3l-0.4,0.1l-0.5,0.4h-0.5l-0.5,0.1l-0.6-0.3l-1.5-0.1l-0.5-0.8l-0.8-0.8l0.2-0.6l-0.5-1.2l0.2-0.5l-0.1-0.9l0.1-0.5
		c0-0.3,0-0.6,0-0.7c0-0.5,0.1-0.8,0.4-1c0-0.2,0.2-0.6,0.5-1.2h0.2l-0.1-0.3l0.1-0.5v-0.5c0.2-0.2,0.3-0.4,0.3-0.4l-0.1-0.5v-0.1
		c0.2-0.3,0.3-0.7,0.3-1l0.8-1c0.1-0.1,0.2-0.2,0.3-0.2l0-0.1h0.1l0.5-0.6l0-0.8l0.9-0.3c0.3-0.2,0.6-0.6,0.6-1.1h0.5
		c0.3-0.1,0.5-0.2,0.7-0.2s0.4,0,0.6,0.1l0.4,0l0.9-0.4l0.5,0.5l0.4,0.3h0.3l0.5,0.3h0.3c0.3,0.3,0.7,0.7,1.1,1.2l0.1,0.2l0.3,0.1
		l0.8,1l0.7,1.7v0.4L571.8,19.4z M569.4,20.2l0-0.2c-0.2-0.2-0.3-0.3-0.3-0.5l0.1-0.2l-0.3-0.7l0.1-0.7l-0.1-0.2
		c-0.3-0.2-0.5-0.4-0.5-0.6c-0.2-0.1-0.3-0.3-0.3-0.7l-0.2,0l-0.4-0.7l-0.3-0.3l-0.8-0.3l-0.3-0.1c-0.1,0-0.2,0-0.3-0.1l-0.7,0.8
		l-0.5,1l-0.8,0.4l-0.1,0.4l-0.4,0.2l-0.1,0.9l-0.4,0.2c-0.1,0.3-0.1,0.6-0.1,0.9l-0.6,0.5l0.2,0.1c0,0.3-0.1,0.5-0.4,0.8
		c-0.1,0.2-0.2,0.5-0.3,0.7v0.3v0.1v0.4l-0.4,1l0.1,0.2v1l-0.1,0.5l0,0.5l0.3,0.5l0.5,0.2l0.2,0.1h0.3h0.9l0.1-0.4h0.1
		c0.1,0,0.2,0,0.3,0.1l0.3-0.1l0.3,0.1l0.5-0.3l0.1-0.1l0.3-0.1c0.2-0.3,0.6-0.5,1.2-0.8l0.1-0.2l0.7-0.5l0.4-0.6l0.6-0.3l0-0.2
		l0.2-0.4v-0.5l0.4-0.4l0.1-0.3l0.2-0.2c-0.1-0.3-0.1-0.5-0.1-0.6c0-0.2,0.1-0.4,0.2-0.7L569.4,20.2z"/>
	<path class="st2" d="M597.3,13.2l-0.2,0.7l0.1,0.4l-0.4,1.4l-0.1,0.5l-0.5,0.5l-0.2,0.7l-0.4,0.6l-0.6,1.3l-0.7,1.2l-1,1.5
		l-0.2,0.5l-0.5,1l-0.6,1.3l-1.1,1.9l-0.2,0.9l-0.6,0.8l-1.1-0.4l-0.6-0.4l-0.6-1.7l-0.7-1.2l0-0.4l-0.4-1l-0.2-0.2l-1.5-3.2
		l-0.5-0.8l-0.4,0.6l-0.6,0.5l-0.8,1.2l-0.6,0.6l-0.3,0.9l-0.8,1l-0.1,0.3l-0.5,1.1v0.5l-0.4,0.5l0,0.5l-0.4,0.1l-0.8,0.8l0.1-0.1
		c-0.2,0.1-0.6,0.2-1,0.3l-0.3-0.3l-0.5-0.2v-0.4l-0.2-0.3l-0.2-1l-0.3-0.6v-0.5l0-0.1l-0.5-1.5l-0.1-1l-0.4-0.4l0.1-0.5l-0.4-0.9
		V20l-0.3-0.8l-0.5-0.7l0.1-0.8l0-0.3l-0.4-0.9L574,16l-0.2-0.4c-0.1-0.2-0.3-0.5-0.3-0.7l-0.6-1.5l0.5-0.6c0.1-0.3,0.4-0.4,0.9-0.5
		l0.8-0.1l0.3,0.4l0.5,0.2l0.3,0.6l0.3,0.3l-0.1,0.6l0.1,0.4l-0.1,0.3l0.4,0.6l-0.1,0.5l0.5,1.6l-0.1,0.4l0.2,1l0.5,1.1l0.2,1.4
		l0.4,0.4l0,0.9l0.3,0.8l0,0.3l0.5-0.3l0.8-1.3l0.3-0.6l0.3-0.5c0-0.2,0-0.4,0.1-0.5h0.2l0.1-0.6l0.4-0.1c0-0.2,0.2-0.3,0.3-0.4
		v-0.1c0-0.1,0.1-0.3,0.2-0.4l-0.1-0.3l0.2-0.1l0-0.2c0.2-0.4,0.5-0.7,0.7-0.9v-0.7l0.5-0.3l0.1-0.1l0.1-0.1
		c-0.1-0.2-0.2-0.5-0.2-0.8c0-0.4,0.2-0.9,0.6-1.3c0.2-0.1,0.5-0.1,0.8-0.1c0.2,0,0.3,0,0.4,0l0.7,0.6l0.4,0.5l0.2,0.9l0.3,0.6
		l-0.1,0.4l0.3,0.8v0.3l0.6,1.1v0.1l0.1,0.1l0.7,1.7l0,0.5l0.4,0.4l0.8,1.9l0.2-0.3l0.6-1.3l0.4-0.3l0.3-0.8l0.4-0.2v-0.5
		c0.1-0.1,0.3-0.2,0.6-0.4C592,20.1,592,20,592,20l0-0.8l0.4-0.4l0.2-0.1l0.5-0.9l0-0.1c0-0.3,0.2-0.6,0.5-0.9l-0.1-0.4l0.6-0.8
		l0.3-0.8c-0.3-0.7-0.4-1.3-0.4-1.8c0-0.7,0.4-1.2,1.2-1.3l1,0.3l0.1-0.3l0.3,0.3l0.4,0.3l-0.1,0.4L597.3,13.2z"/>
</g>
</svg>
