<?xml version="1.0" encoding="utf-8"?>
<!-- Generator: Adobe Illustrator 21.1.0, SVG Export Plug-In . SVG Version: 6.00 Build 0)  -->
<svg version="1.1" id="Layer_1" xmlns="http://www.w3.org/2000/svg" xmlns:xlink="http://www.w3.org/1999/xlink" x="0px" y="0px"
	 width="251.4px" height="300px" viewBox="0 0 251.4 300" style="enable-background:new 0 0 251.4 300;" xml:space="preserve">
<style type="text/css">
	.st0{fill:#BBBBBB;}
</style>
<g id="earache-recom">
	<path class="st0" d="M74.7,132.4c-3-0.5-5.8-0.8-8.5-1.3c-0.3,2.5-0.8,5.5-0.8,8.8c0,9.5,0.3,19.3-0.3,28.8c0,4.3-1.3,8.5-1.8,13
		c-0.5,4-1.3,8.3-1.3,12.3c0,7.8,0,15.3,0.5,23.1c0.3,5.3,1.8,10.3,2.5,15.3c1.8,13,3.3,26.1-0.8,38.9c-2.5,8-4.8,16.1-7,24.1
		c-0.5,1.3-0.8,2.8-1.3,4c-18.8,0-37.4,0-56.2,0c2-13.8,1.3-27.8,7-41.1c3-6.8,4.8-13.8,6.8-20.8c1.5-5.5,4.5-9.8,9.3-12.5
		c6.3-3.8,12.8-7.3,20.6-8.8c4.5-0.8,8.5-2.8,13-4.3c1.5-0.5,1.8-1.5,1.5-3.3c-0.5-1.8-0.5-3.8-0.5-5.8c-5-0.3-9.8-0.3-14.5-1.3
		c-2.3-0.5-4.8-2-5.8-4c-2-3.3-2.8-7-4.3-10.8c-1-2.3-1.5-4.8-3-6.8c-1.8-2.8-3-5.3-2.3-8.5c0.8-2.5,0-4.5-2.5-5.8
		c-4-2-5.3-5.8-5.5-9.5c0.3-2-0.3-3-2.8-3c-4.3-0.3-7.8-2.3-11-5c-2.3-2-2.8-4.5-1.5-7.3c3.3-7,6-14.3,9.5-21.3
		c2.8-5.5,0.5-10-1.5-15c-0.5-1.3-1.3-2.5-1.5-3.8c-0.3-7.8-0.5-15.8-0.3-23.6c0-4.5,1-9,1.3-13.5c0-3-1-6-1.3-9
		c-0.3-2.5-0.8-5,0-7.3c1-3.3,2.8-6.3,4.5-9c1.8-2.5,4.3-4.8,6.5-7c7.3-7.5,15.8-13,25.3-17.6c8-3.8,16.6-6.8,25.3-8.3
		c2-0.5,4.3-0.5,6.3-1.3c3.5-1,6.8-2.5,10.3-3C95.3,0.5,101.6,0,107.8,0s12.3,0.8,18.3,1.5c3,0.5,6.3,1.3,9,2.5
		c7.3,3.5,14.5,7,21.6,11c2.8,1.5,5.5,4,7.5,6.5c5.8,7.3,11.3,14.8,16.6,22.6c2.5,4,4,8.5,5.8,13c1.5,3.8,3.5,7.3,4.5,11
		c1.5,5,1.5,10.5,3.3,15.3c4.3,12.8,6.8,26.1,12,38.6c3.3,7.5,5,15.6,7.3,23.3c2.5,8.5,4.8,16.8,7.3,25.3c1.3,4.5,2.3,9.3,4.3,13.5
		c2.5,5.8,5.5,11.5,8.3,17.3c2.8,5.8,5.3,11.5,8,17.3c2.8,5.8,5.5,11.3,8,17.1c2.3,4.8,2.8,9.8-0.3,14.8c-0.8,1-0.8,2.5-0.8,4
		c0,5-0.3,10.3,0,15.3c0.3,8.3-1.8,16.1-4.5,23.6c-0.3,0.5-0.5,1-0.5,1.5c-1.8,4.8-1.8,4.8-7.3,4.3c0.5-1.5,1.3-2.8,1.8-4.3
		c1.8-4.8,4-9.5,4.8-14.3c1-5.8,1-11.5,1.3-17.3c0.3-5.5,0-11,0.5-16.3c0.5-7.5-3.5-13-7.8-18.6c-3.3-4.3-7.8-7.3-12.3-9.8
		c-2.5-1.3-5.8-1.8-8.5-1.8c-5.8,0.5-11.8,0.5-17.1,2.8c-17.6,7-32.4,17.8-42.6,33.9c-2.5,3.8-5.3,7.5-7.8,11.3
		c-4.5,6.8-7.3,14.3-7.5,22.3c0.3,0.3,0.5,0.3,0.8,0.5c3-4.3,6-8.5,9.3-12.5c2-3,4.3-5.8,6.3-8.8c0.5-0.5,1.8-0.8,2.5-1
		c0,1,0.5,2.3,0,3c-7,8.8-12.3,18.6-20.3,26.3c-4,3.8-7.8,5.3-12.8,5c-7.3-0.3-14.3,0-21.6,0c0.5-6,0.8-12,1.5-17.8
		c0.5-5.3,1.8-10.5,2.3-15.8c0.5-4.3,0.8-8.8,1-13c0.5-8.5,2.5-16.6,6.8-24.1c2-3.5,3-7.5,4.3-11.5c2-5.5,4.3-11,5.8-16.8
		c2.8-10,4.8-20.1,7.3-30.1c0.3-0.8,0.3-1.5,0-2.5c-0.3-3-0.3-6-0.8-8.8c-0.3-2-1.3-4-1.8-6.3c-0.3-0.8-0.3-1.8-0.5-2.5
		c-0.3-1-0.8-2.3-1-3.3c-0.5,0-1,0-1.5,0c-0.5,1.8-1,3.5-1.3,5.3c-0.5,3-1.3,6-1.5,9.3c-0.5,5-0.5,10-0.5,15c0,6,0.3,12,0.5,18.1
		c0,0.8-0.3,1.5-0.5,2.3c-0.3,0-0.8,0-1,0c-0.5-1.8-1.3-3.8-1.3-5.5c0-9.8,0.3-19.8,0.5-29.6c0.3-4.3,1.3-8.5,1.5-13
		c0.3-6-0.3-12.3-0.3-18.3c0-5.3,0-10.3,0-15.6c-4.3,1.5-6.3-1.3-9-3.8c-0.5,6.5-1.8,12.5-1,18.8c0.8,6.3,0.5,12.5-1,18.8
		c-1.3,6.3-2,12.5-3.3,18.6c0,0.8-0.8,1.3-1.3,2c-0.3-0.8-1-1.5-0.8-2.3c0.5-3.8,1.5-7.5,2-11.3c1.5-7.8,2.3-15.6,2.3-23.3
		c0-9,1-17.8,1.5-26.8c0-0.5,0-1,0-1.8c-3.8,2.3-7,1.3-10.3-0.8c-0.3,0.8-0.3,1.3-0.3,1.8c0,10.5-2.3,20.8-3,31.4
		c-0.8,10.5-4,20.3-5.3,30.9c0,0.5-0.8,1-1.3,1.5c-0.3-0.8-0.8-1.5-0.8-2c1.8-6.5,2.3-13.3,1.8-19.8c-0.3-4.5-1-9-1-13.5
		c0.3-7,1-14.3,1.8-21.3c-3-0.5-6-1.3-9.5-2c-0.3,4.5-0.5,9.5-1,14.5c-0.5,4.8-1.3,9.8-1.8,14.5c-0.5,5.3-0.5,10.3-1,15.6
		c-0.3,3.5-1,7.3-1.8,10.8c-1,3.8-2.3,7.3-1.3,11c0,0.5-0.5,1.3-0.8,1.8c-0.5-0.5-1.3-1-1.5-1.5c-0.3-0.5,0-1.5,0-2.3
		c-0.3-7.3-0.8-14.8-1-22.1c-0.3-4.5-0.8-8.8-1-13.3C74,136.7,74.5,134.2,74.7,132.4z M77.8,163c0.3,0,0.5,0,0.8,0
		c0.3-2,0.8-3.8,1-5.8c0.3-4.3,0.3-8.8,0.8-13.3c0.8-9.3,1.5-18.6,2.8-28.1c0.5-4.8,0.3-10,3.8-14.3c1.8-2.3,6.5-3,8.5-0.5
		c3,3.5,2,7.5,1.5,11.3c-1,9.8-1.8,19.6-1.5,29.6c0,1,0.5,2,0.8,3c0.8-0.8,0.8-1.5,0.8-2.3c0.5-5,1-10,1.5-15
		c0.3-3.3,0.8-6.5,1.3-9.8c0.5-6.3,1-12.5,1.8-19.1c0.3-3,1.5-5.8,4.8-7c0.3,0,0.3-0.5,0.5-1c-2-0.8-3.8-1.5-5.8-1.8
		C92.3,88,85,84.5,79,78.8c-2.3-2.3-4.8-4.3-7-6.3c-6.8-6.3-14.8-10.3-23.8-12c-5-1-9.8-2.8-14.5-4.3c-4.3-1.5-8.3-3.3-12.3-4.5
		c-2.8-1-4.8,0-5.5,3c-0.3,1.3-0.3,2.5-0.3,3.8C15,66.7,14.8,75,13.8,83c-1,7.8-0.8,15,3,22.1c2.3,4.3,3,9.3,1.3,13.8
		c-3,7.5-6.5,14.8-10,22.1c-0.8,1.8-1,3.5,0.5,5.3c2.3,2.8,5.8,3.8,9,4.3c2.8,0.5,5.8,0.3,6,4.3c0,0.3,0.3,0.5,0.3,0.5
		c1.3,0,2.5-0.5,3.5-0.3c6.5,1.8,12.8,3.3,19.3,5.3c1.5,0.5,3.5,2.3,1.8,4.3c-4,4.3-8,8.3-12.3,11.8c-3,2.3-3.5,3.3-0.5,5.5
		c1,0.8,2.8,0.5,4.3,0.5s2.8-0.5,4.3-0.8c0,0.3,0.3,0.5,0.3,0.8c-0.5,0.5-1.3,1.3-1.8,1.5c-1.3,0.5-2.5,1-3.8,1
		c-1.8,0.3-2.3,1.3-2,2.8c0.3,6,4.3,11,9.8,12c2.8,0.5,5.8,0.5,8.8,0.3c2.8-0.3,4.5-1.8,5-4.8c1-7.5,2.5-14.8,3-22.3
		c0.8-12,0.5-24.3,1-36.4c0.3-4.3,0-8.8,2.3-13c1-1.5,1.8-2.5,3.5-2.5c4-0.3,7,2.5,7,6.5c0,3-0.5,6-0.5,9c0.3,8.5,0.8,17.1,1,25.3
		C77.3,162,77.5,162.5,77.8,163z M111.1,264.1c1.8-1.3,3-1.8,4-2.5c6-5.3,12-10.5,18.1-15.8c5-4.5,9.8-8.8,15-13.3
		c3.8-3.3,7.5-6,11.3-9.3c6-5.5,12-11,17.8-16.8c1-1,1.8-2.3,2.8-3.3c-1.5-0.5-3-1-4.5-1.3c-0.5-0.3-1.3,0-1.8,0c-2-0.3-4-0.8-6-1.3
		c-3.3-0.8-6.8-1.3-10-2c-2-0.5-4-0.8-5.8-1.5c-6-3.3-10-8-12.8-14.3c-1-2.5-2.3-5-3.5-8c-2.3,9.3-3.8,17.8-6.5,26.1
		c-3.8,11.3-8,22.6-12.5,33.6C112.1,243.8,111.9,253.6,111.1,264.1z M63.5,253.8c-0.3-2.5-0.5-5-0.8-7.5c-0.8-6.3-1.5-12.5-2.5-18.8
		c0-0.8-1-2-1.5-2c-0.8,0-1.8,0.8-2.5,1.5c-0.5,0.5-0.5,1.5-1,2c-5.5,5.8-9,12.5-12.8,19.6c-2.5,4.8-5,10-6.5,15.3
		c-1.3,4.5-1,9.5-2,14.3c-2,9.5,5.8,21.3,17.1,20.3c1.5-0.3,2.3-0.5,2.8-2.3c1.8-7.3,3.5-14.5,5.5-21.8
		C61.2,267.4,63.7,260.8,63.5,253.8z M125.4,122.6c0,2.8,0.5,5.3,0,7.8c-0.5,2.8,1,3.5,2.8,3.5c3.8-0.3,8.5,1,10.3-4.5
		c0.3-0.5,1-1,1.5-1.5c4.3-3.8,5.5-8.8,4.8-13.8c-1-6-2.5-12-7.3-16.8c-1.8-1.8-3.5-2.8-6-2.8c-2.3,0-3.5,1-4,2.8
		c-0.8,2,1,2.8,2.5,3.5c4.8,1.8,7.3,5.8,8.5,10.5c1,3.5,0.3,6.8-2,8c-1.3,0.8-3,0.8-4.5,1.3C130.9,124.7,130.2,124.9,125.4,122.6z
		 M5.5,281.2c0.3,0,0.8,0.3,1,0.3c0.5-1.5,1-3,1.8-4.5c4.5-8.8,9-17.6,13.3-26.6c2-3.8,3.5-7.8,5.5-11.5c2.3-4.3,5-8.5,7.5-12.5
		c0.8-1.3,2-2.3,3.5-3.8c-1,0-1.5-0.3-1.8,0c-3.3,1.8-6.5,3.3-9.5,5.3c-6.5,4.3-10,10.3-11.8,17.8c-2.5,10.8-6,21.3-9,32.1
		C5.5,278.9,5.5,280.2,5.5,281.2z M128.9,122.1c0.3-0.8,0.8-1.3,0.8-2c0-1.8,1.3-2.3,2.8-2.3c3.5-0.3,5-2,4.3-5.3
		c-1.3-4.8-3.3-9-8.5-10.5c-1-0.3-1.8-1.3-2.8-2c-1,0.8-2.3,1.8-3.3,2.5c4.3,5.5,2.3,12,3.5,17.8
		C126.7,120.9,127.7,121.4,128.9,122.1z M113.1,101.6c-0.5-2.3-0.5-4.5-1.5-6.3c-1-2-3.3-2.5-5.3-1.5c-2,1-3.5,2.8-3.3,5
		c0.3,2.3,1.8,4,4,4C109.4,103.1,111.1,102.1,113.1,101.6z M132.7,146c0.5-2.3,1-5,1.5-7.5c0.5-1.5-0.3-2-1.8-2c-2,0-4-0.3-5.8,0
		c-0.8,0-1.8,1.3-1.8,1.8c0,2,0.5,4.3,0.5,5.5C128.2,144.7,130.4,145.2,132.7,146z M46.4,162.5c-1.5-0.8-2.5-1.5-3.5-1.5
		c-4,0.5-7.8,1.3-11.8,2.3c-0.8,0.3-1.8,2-1.5,2.5c0.5,1.3,1.3,2.5,3.5,1.8c3.5-1.3,7.3-2,11-3.3C44.9,164,45.4,163.3,46.4,162.5z
		 M123.1,110.6c-0.3-1.8-0.5-3.5-1.3-5.3c-1-2.8-2.8-2.8-4.8-1c-1.5,1.3-2.3,2.8-1.5,4.5c1,1.8,2.3,3.3,4,4.3
		C121.1,114.1,123.1,112.4,123.1,110.6z M95.1,106.6c0-3-1.8-5-3.8-5c-2.3,0-4.8,2.3-4.8,4.5c0,2,2.3,3.8,5.8,3.8
		C94.3,109.6,95.6,108.6,95.1,106.6z M74.5,126.9c0-2.5-2.3-5.5-4-4.5c-1.5,0.8-3,2.8-3.5,4.5c-0.8,1.8,2,4,4.3,4
		C73,130.7,74.5,128.9,74.5,126.9z M36.9,159.3c-1-0.5-2-1.3-3.3-1.8c-2.3-0.8-4.8-1.3-7.3-1.5c-0.8,0-2.3,1.3-2.5,2
		c0,1.3,0.5,2.5,1.5,3.5c0.5,0.5,2,0.8,2.8,0.5C31.1,161.3,33.9,160.3,36.9,159.3z M42.6,167.5c-0.3-0.3-0.5-0.5-0.5-0.8
		c-2.8,1-5.8,1.8-8.5,3c-1.3,0.8-2.3,2.5-2.8,4c-0.5,1.5,1.3,2.5,2.5,1.5C36.6,172.8,39.6,170.1,42.6,167.5z"/>
	<path class="st0" d="M18.8,82.8c0,1.3,0,2.5-0.3,3.8c-0.8,3.8-0.5,7.3,0.8,10.8c0.5,1.3,1.3,1.8,2.5,0.8c4.8-3.5,10.3-4.8,16.3-5
		c2,0,4.3,0,6.3,0.3c0.8,0.3,1.5,1.3,2.3,2c-0.8,0.5-1.5,1.3-2.3,1.3c-3,0.3-6.5-0.8-9.3,0.5c-3.8,1.3-6.8,4-10,6.3
		c-2.5,1.8-4.8,1.5-5.8-1.5c-1.3-3.5-2.5-7-3-10.8c-0.3-2.5,0.8-5.3,1.5-7.8c0-0.3,0.5-0.5,0.8-0.8C18.3,82.8,18.6,82.8,18.8,82.8z"
		/>
	<path class="st0" d="M47.7,107.3c-3,0.3-6,0.5-9.3,0.5c-2.8,0.3-5.3,2.3-8,2c2.8-3.3,6-4.3,9.8-4.5c3.5,0,7.3,0.5,10.8,1
		c0.5,0,1.8,0.8,1.8,1c0,0.8-0.5,1.5-1,2c-3.3,2.5-6.3,5-9.8,7c-1.3,0.8-3.5,1-5,0.8c-2-0.3-4-1-5.8-1.8c-0.5-0.3-1-1-1.5-1.3
		c0.5-0.5,1-1,1.5-1.3c4.8-2.8,10-3,15.3-3.8c0.5,0,1-0.5,1.3-0.5C47.9,108.1,47.9,107.6,47.7,107.3z"/>
	<path class="st0" d="M18.1,145.5c2.8,0,5.5-0.5,8.3-0.3c3.3,0.3,4.8-2,6.3-4.3c1.3-1.8,0.3-3.5-1-5c-0.3-0.5-0.3-1,0-2
		c9,10.8,19.6,20.1,24.6,33.6c-1.3,0-1.3-0.3-4.8-6.5c-1.5-2.8-3-5.3-4.8-7.8c-1.8-2.3-4-4.3-6-6.5c-2-2.3-3.8-4.5-6-7.3
		c-2.8,5.5-7.3,8.3-13.3,8c-1.3,0-2.3-0.8-3.5-1C17.8,146.5,17.8,146,18.1,145.5z"/>
</g>
</svg>
