<?xml version="1.0" encoding="utf-8"?>
<!-- Generator: Adobe Illustrator 21.1.0, SVG Export Plug-In . SVG Version: 6.00 Build 0)  -->
<svg version="1.1" id="Layer_1" xmlns="http://www.w3.org/2000/svg" xmlns:xlink="http://www.w3.org/1999/xlink" x="0px" y="0px"
	 viewBox="0 0 162.7 200" style="enable-background:new 0 0 162.7 200;" xml:space="preserve">
<style type="text/css">
	.st0{fill:#BBBBBB;}
</style>
<title>pharm-donald-red</title>
<g id="pharm-donald-red">
	<path class="st0" d="M0,183.7l1.6-1.2c1.1-1.1,2.2-2.1,3.4-3c2-1.3,4.2-2.4,6.3-3.6s5-2.9,7.5-4.3s4-1.8,5.9-2.7l7-3.5
		c2.4-1.2,4.5-2.7,7.1-3.6c2.2-0.9,4.4-2,6.4-3.3c0.5-0.3,1.1-0.6,1.7-0.9c1.1-0.4,1.9-1.4,2.1-2.6c0.5-1.7,0.9-3.5,1.2-5.3
		c0.2-1-0.1-2-0.9-2.7c-1.4-1.5-2.8-3.1-4-4.8c-1.7-2.1-3.2-4.4-5.1-6.4s-4.1-3.6-6-5.6c-1-1.1-1.9-2.3-2.7-3.5
		c-0.6-0.8-1-1.8-1.5-2.7s-2.5-4.3-3.7-6.5s-0.9-2.4-1.5-3.6c-1.3-2.3-2.1-4.9-2.5-7.5c-0.4-2.5-0.2-5.1-0.4-7.6s0-6.5-1-9.6
		S19.7,85.7,19,84c-0.4-1.3-0.5-2.6-0.3-3.9c0.2-1.6,0.7-3.3-0.2-4.8c-1.2-2-2.1-4.1-2.6-6.4c-0.5-1.8-1.2-3.5-2.2-5
		c-1.5-2.6-2.5-5.4-3-8.4c-0.4-2.2-0.5-4.4-0.4-6.6c0-2.3,0.3-4.6,0.8-6.8c0.1-0.5,0-1-0.1-1.5c-0.1-1.4-0.3-2.7-0.6-4.1
		c-0.7-2.3-0.4-4.8,0.7-6.9c0.7-1.2,1.6-2.4,2.6-3.4l4.3-4.4c1.5-1.5,2.9-2.9,4.5-4.3s4.6-3.7,6.9-5.5L35,7.6c0.6-0.5,1.2-1,1.7-1.6
		c0.6-0.7,1.3-1.2,2.2-1.5c1-0.3,1.9-1,2.9-1.3c0.9-0.3,1.9-0.5,2.9-0.6c3.5-0.6,7.2-0.3,10.6-1.4c2.1-0.7,4.3-1,6.5-1h5.3
		c4.7-0.1,9.4,0.9,13.6,3c3.8,1.9,7.5,4,11.1,6.4c1.4,0.9,2.6,2.1,3.9,3.1l1.9,1.7l2,2.3l2.7,2.9c0.8,0.9,1.6,1.9,2.3,2.9
		c0.9,1.3,1.6,2.7,2.5,4.1c0.8,1.6,1.4,3.2,1.7,4.9c0.3,1,0.6,1.9,0.8,2.9c0.3,1.3,0.4,2.7,0.6,4l0.6,4.6c0,0.3,0,0.5,0,0.8
		c0.1,1.8,0.1,3.7,0.2,5.5s0.4,4.1,0.4,6.2c0,0.9-0.1,1.8-0.4,2.7c-0.2,0.6-0.1,1.3,0.2,1.9l1.7,3.2c0.5,1.3,0.8,2.6,0.8,4l0.5,3.9
		c0,0.3,0.1,0.5,0.1,0.8c0,1.3,0,2.6,0,4c0.1,3.8-0.6,7.6-2,11.2c-0.4,0.9-1,1.8-1.7,2.5c-0.8,1-1.7,1.9-2.7,2.7
		c-0.8,0.7-1.2,1.7-1,2.7c0.1,1.7,0.3,3.3,0.3,5s0.5,3.6-0.1,5.4s0.2,2.2,0.2,3.3s0.1,2.6,0.2,3.9s0.4,2.7,0.6,4l0.3,1.7
		c0.8,0.2,1.5,0.3,2.3,0.3c1.1,0.1,2.1,0.4,3.1,0.9c1.7,0.6,2.3,2.2,3.2,3.5s2.1,3.4,3.2,5.1l5.5,8.1c0.4,0.5,0.8,1,1.3,1.4l4.4,4.1
		c1.2,1.3,2.7,2.4,4.4,3c2.2,0.6,3.9,2.2,5.8,3.3l2.3,1.2c2.5,1.3,5.1,2.4,7.8,3.2c2.2,0.7,4.4,1.4,6.5,2.3c1.5,0.7,3,1.6,4.3,2.6
		c0.2,0.5,0.3,1,0.3,1.5l-0.2,0.2l-3-2c-1.6-1-3.3-1.7-5.1-2.2c-3.1-1.1-6.2-2.1-9.3-3.4c-2.6-1-5.1-2.3-7.3-4h-0.1
		c-1.5-0.1-2.4-1.4-3.7-1.7c-0.9-0.3-1.7-0.9-2.4-1.5l-1.7-1.5c-0.2-0.1-0.5-0.1-0.7,0c-1.2,1.3-2.3,2.6-3.4,4c-2.2,3-4.2,6.1-6.4,9
		s-2.7,3.3-4.1,5c-1.4,1.8-3,3.4-4.6,5c-2.9,2.9-5.5,6-7.9,9.3l-2.4,3.1c-0.2,0.2-0.5,0.3-0.8,0.2l-3.3-1l-5-1.9l-8.7-3l-0.6-0.2
		c-1.8,2.2-3.5,4.3-5.4,6.4c-1,0.9-2,1.8-3.1,2.6l-3.6,3.1c-1.8,1.7-4,2.7-6,4.2c-0.8,0.6-1.5,1.3-2.2,2c-0.4,0.4-0.6,1-0.6,1.6
		c0,2.3-0.2,4.7-0.3,7c0,0.5-0.1,0.9-0.2,1.4h-1.4l0.6-7.9h-0.3c-0.2,0.4-0.4,0.8-0.7,1.2c-1.1,1.1-2.2,2.2-3.4,3.2
		c-1.6,1.3-3.4,2.4-5.1,3.5l-0.6,0.2h-7.3c3.8-4.4,7.9-8.3,13.4-10.7l-2.6-0.8l-2.3-0.6c-0.3-0.2-0.8-0.1-0.9,0.3c0,0,0,0.1-0.1,0.1
		c-0.1,0.2-0.3,0.3-0.5,0.4l-5.3,2.9c-1.7,1.1-3.1,2.6-4,4.5l-2.2,3.7l-0.5,0.3h-1.3c0.9-1.5,1.7-3,2.6-4.4s4-5.5,5.8-8.4
		c0.7-1.2,1.2-2.5,1.6-3.9c0.6-1.5,1.1-3,1.6-4.5s0.4-1.7,0.6-2.6h-0.1l-2.1,0.9c-0.3,0.2-0.6,0.4-1,0.4c-0.6,0-0.5-0.6-0.4-1
		s0.4-3.7,0.7-5.6s1.4-6.4,2.1-9.6c0.2-1.2,0.3-2.4,0.5-3.7l-3.7,2.1c-2,1.2-4.1,2.2-6.3,3c-1.2,0.5-2.4,1.1-3.5,1.8
		c-3.2,1.6-6.4,3.3-9.7,4.9c-3.3,1.4-6.4,3-9.5,4.8c-1.3,0.8-2.7,1.5-4.1,2.2c-2.7,1.3-5.3,2.9-7.5,4.9c-1.2,1.2-2.6,2.3-3.9,3.4v-2
		L0,183.7z M102.1,101.4c0,1.2,0,2.2,0,3.2c0.1,2.9,0.3,5.9,0.4,8.8c0,0.1,0,0.1,0,0.2c0.5,2.5,0.1,5.1-1.2,7.3
		c-0.8,1.4-1.7,2.8-2.6,4.1c-1.3,1.8-2.6,3.6-4.1,5.2c-1.6,1.7-3.4,3.1-5,4.6s-3.9,3.9-5.9,5.8c-1.9,1.9-4,3.7-6.2,5.2
		c-1.2,0.7-2.2,1.9-3.4,2.6s-3.9,2.2-5.9,3.2c-0.8,0.5-1.6,0.8-2.4,1.1c-2.1,0.6-4.3,1-6.5,1.3c-1.3,0-2.6-0.1-3.8-0.4
		c0.3,0.7,0.7,1.5,1,2.3c0.9,2.4,2.3,4.7,4.1,6.5c0.6,0.6,1.3,1,1.9,1.6s0.6,0.4,1.1,0.1l2.5-1.5c2.1-1.1,4.4-2,6.3-3.7
		c2.5-2,5.1-3.9,7.9-5.6c1.2-0.8,2.6-1.3,3.7-2.2s3.6-3.1,5.4-4.6l4.6-3.8l2.8-2.6l4.6-4.1l3.1-2.9l6-5.3c0.5-0.3,0.6-0.9,0.3-1.4
		c-0.1-0.1-0.2-0.2-0.3-0.3c-1.5-1.4-2.6-3.2-3.2-5.2c-0.4-1.5-0.6-3.1-0.8-4.6c-0.2-0.7-0.3-1.5-0.4-2.2c-0.1-2.2-0.3-4.4-0.3-6.7
		s0.1-2.8,0.1-4.2s-0.1-3.8-0.2-5.6s-0.2-2.4-0.3-3.6l-1.5,0.9l-1.6,0.5c-1.1,0.3-2.3-0.3-2.6-1.4c-0.1-0.2-0.1-0.4-0.1-0.6
		c-0.1-1.6-0.1-3.1-0.2-4.7c-0.1-1.6-0.3-3.2-0.6-4.8c-0.3-1.4-0.8-2.8-1.1-4.3c-0.6-2.6-1.7-5-3.2-7.2c-0.9-1.2-1.8-2.5-2.5-3.8
		c-0.8-1.9-2-3.5-3.6-4.8c-1.2-0.9-2.3-2-3.9-2.4c-0.5-0.2-0.9-0.4-1.3-0.8C81.5,58.8,79.7,57,78,55c-1.3-1.3-1.8-3.3-1.2-5.1
		c0.4-1.4,0.5-2.9,0.4-4.4c0-0.5-0.2-1-0.4-1.5c-0.2-0.8-1-1.4-1.8-1.4L70.8,43c-1.6,0.2-3.3,0.5-4.9,0.7c-1.3,0.1-2.6,0-3.9-0.1
		l-5.7-0.7c-1.6-0.1-3.3-0.1-4.9,0c-1.4,0.1-2.9,0.5-4.3,0.6c-2.1,0.2-4.1,0.9-5.9,2c-1.1,0.7-2.2,1.3-3.3,1.8c-2.4,0.9-5,1-7.6,1.3
		l-4.4,0.5c-1.3,0.2-2.5,0.6-3.8,0.6s-3.8,1.3-3.8,3.7s-0.3,5.2-0.4,7.8c-0.1,1.2-0.1,2.5,0,3.7c0.1,2,0.4,4.1,0.6,6.1
		c0,1.3,0.4,2.5,1,3.6c0.4,0.7,0.6,1.4,0.6,2.2c0.1,0.8,0.1,1.7,0,2.5h0.6c1.8-0.7,3.7-1.1,5.7-1l7.2,0.4c1.6,0.1,3.3,0.2,4.2,2.1
		c-0.2,0.3-0.5,0.5-0.8,0.7c-0.6,0-1.2-0.1-1.8-0.3c-2.3-0.4-4.6-0.4-6.8,0.1l-3.7,0.6l-3.7,1c-0.4,0.1-0.6,0.4-0.6,0.8
		c0,0.1,0,0.1,0.1,0.2c0.2,0.6,0.5,1.2,0.7,1.8c0.7,2.1,1.3,4.2,1.8,6.3c0.3,2.6,0.5,5.3,0.5,7.9c0.1,1.9,0.1,3.8,0.2,5.7
		s1.2,4.6,2,6.8s0.9,1.4,1.2,2.1s0.6,2.1,1.1,3.1c1.5,2.7,3.1,5.2,4.6,7.9c1.5,2.7,4.4,5.1,6.7,7.5s2,1.7,2.8,2.7s3.1,3.9,4.6,5.9
		c0.9,1.3,1.8,2.5,2.9,3.7c1.4,1.3,2.6,2.7,3.6,4.3c1.2,2,3.4,3.2,5.8,3.1c1.6-0.1,3.3-0.3,4.9-0.7c3.2-0.7,5.8-2.4,8.6-4
		c2.4-1.4,4.6-3,6.7-4.8c2.4-2,4.6-4.3,6.8-6.4l4.4-4.2c1.4-1.3,2.9-2.6,4.2-4c2.3-2.4,4.2-5.2,5.7-8.2c0.6-1.1,1-2.3,1.2-3.5
		c0.1-2.1,0-4.1-0.1-6.2c0-1-0.1-1.9-0.2-2.9s0-4,0-6L102.1,101.4z M46.2,175.6h0.3l0.5-0.5l2.7-3.9c1.4-2.4,3.6-4.1,6.3-4.8
		c1-0.2,2.1-0.4,3.1-0.4c1.2-0.1,2.4-0.2,3.4,0.6H63c1.3-0.6,2.7-0.4,4-0.5c1.2-0.2,2.5-0.1,3.7,0.1c1.5,0.4,2.9,0.8,4.3,1.4
		c2,0.7,3.9,1.5,5.9,2c4,1,8,2.4,11.8,4c2.1,0.9,4.3,1.6,6.5,2.1c0.2,0,0.4,0,0.6-0.2l3.6-4.5c1.3-1.6,2.5-3.3,3.9-4.8
		c3-2.9,5.9-6,8.6-9.2c1.9-2.4,3.7-5,5.5-7.4l3.8-5.1c1-1.3,2.1-2.5,3.2-3.8l-2.7-2.5c-0.4-0.4-0.8-0.8-1.1-1.2l-5.7-8.4L116,124
		l-1.5-2.1l-0.5,1.5c-0.5,0.9-0.9,1.8-1.3,2.8c-0.4,1.5-1.3,2.8-2.5,3.8c-2.2,1.9-4.5,3.6-6.7,5.5s-5.5,5.1-8.3,7.7l-2.4,2l-4.4,3.8
		c-1.7,1.4-3.3,3-5.1,4.2s-6.3,4-9.4,6.1c-2.3,1.7-4.8,3.2-7.4,4.5c-1.1,0.4-2,1-2.9,1.8c-0.3,0.4-0.9,0.4-1.3,0.1
		c0,0-0.1-0.1-0.1-0.1l-4.2-4c-0.6-0.6-1-1.2-1.4-1.9c-0.7-1.5-1.2-3.1-1.8-4.6c-0.6-1.9-1.7-3.6-3.2-4.9l-0.4,1.8c-0.5,2-1,4-1.4,6
		s-0.5,3.2-0.8,4.7s-1.3,5.4-1.9,8.1S46.5,174,46.2,175.6z M106.7,63.6l1.2,0.7l2.5,2.4c0.1,0.3,0.1,0.5,0,0.8c-0.3,0.1-0.7,0-1-0.1
		c-0.5-0.5-1-1-1.5-1.5l-0.9-0.8c-0.9-0.6-1.2-0.5-1.5,0.6c-0.6,1.6-0.8,3.4-0.7,5.1c0,0.6,0.2,1.2,0.6,1.7c1.3,1.3,2.7,2.5,4,3.8
		c0.4,0.3,0.7,0.7,0.9,1.2c0.5,1.8-0.2,3.7-1.7,4.8c-0.7,0.6-1.3,1.2-1.8,1.9l-0.9,1.1c-0.5,0.5-1.3,0.7-2,0.5
		c-0.7-0.2-1-0.9-0.9-1.6c0.1-2.4-0.6-4.8-2-6.7c-0.3-0.4-0.4-0.8,0.1-1.1c0.3-0.2,0.8-0.1,0.9,0.3c0,0,0,0.1,0.1,0.1
		c0.1,0.4,0.3,0.8,0.5,1.2c1.1,1.7,1.5,3.6,1.4,5.6c0,0.4,0.1,0.8,0.3,1.1l1-0.7l0.2-0.3c0.5-1,1.3-1.8,2.3-2.4
		c1.1-0.8,1.6-2.2,1.2-3.5c-0.1-0.2-0.3-0.4-0.5-0.6l-1.1-0.8c-0.8-0.8-1.6-1.6-2.5-2.3c-1.8-1.2-2.5-3.4-1.8-5.4l1.2-3.7
		c0.1-0.5,0.4-1,0.7-1.4l4-3.3c0.2-0.1,0.3-0.3,0.3-0.5c0-0.2-0.1-0.5-0.3-0.6c-0.9,0-1.8-0.3-2.5,0.3l-2.3,2.1
		c-0.6,0.6-1.1,1.2-1.6,1.8c-0.7,0.9-1.3,1.8-1.8,2.8c-0.6,1.2-1.1,2.5-1.4,3.8c-0.2,1.8-0.4,3.5-0.4,5.3c0,0.3,0,0.6-0.1,0.9
		c-0.4,1.1-0.4,2.3,0,3.4c1,3.4,1.6,6.9,1.6,10.4c0.1,1.1,0.1,2.1,0.2,3.2c0,0.4,0.4,0.8,0.8,0.8h0c1,0.1,2-0.2,2.8-0.9l1.2-0.9
		c1.5-0.8,2.8-1.9,3.8-3.3c0.7-0.8,1.2-1.6,1.7-2.5c1.2-3.3,1.9-6.8,1.9-10.3c0-1.5,0-3-0.2-4.6s-0.3-2.5-0.4-3.8
		c0-0.8-0.1-1.6-0.3-2.4c-0.5-1.4-1.1-2.7-1.7-4c-0.2,0.2-0.5,0.4-0.8,0.5C108.3,61.9,107.7,62.9,106.7,63.6z M64.1,186l0.7-0.4
		l1.6-1.1l4.3-3.4c0.2-0.1,0.3-0.4,0.3-0.6c-0.3-1.2-0.8-2.4-1.3-3.6c-1-2.4-2.6-4.5-4.5-6.2c-0.8-0.9-1.9-1.6-3-2
		c-0.2-0.1-0.4-0.3-0.5-0.5c-0.3-0.7-1-1-1.7-0.8c0,0-0.1,0-0.1,0.1l-1.2,0.3c-1.6,0.2-3.2,0-4.7,0.9c-0.9,0.5-1.7,1.2-2.3,2.1
		l2.4,1.9c2.2,1.5,4.1,3.3,5.9,5.3l0.8,1C62.2,181.2,63.3,183.5,64.1,186z M50,176.8l-2.9,8.4c2,1.1,4.2,1,6.3,1.4
		c1.1,0.1,2.1,0.4,3,0.9L59,189c0-0.2,0-0.3,0-0.5c-0.5-1.2-1-2.4-1.7-3.5c-0.9-1.1-1.9-2.2-2.9-3.2l-2.3-2.5L50,176.8z M80.3,171.3
		l-7.9-2.7l4,7.9L80.3,171.3z M108.5,119.9c0,0.1,0,0.2,0,0.3c0.6,1.7,1.6,3.2,2.8,4.5l0.5-0.2c0.5-0.9,0.9-1.8,1.3-2.8
		c0.2-0.5,0-1.1-0.5-1.3c0,0-0.1,0-0.1-0.1L108.5,119.9z"/>
	<path class="st0" d="M55.1,132.5c-2.6,0.2-5.2-0.5-7.4-2c-1-0.8-1.8-1.6-2.6-2.6l-2-2.3l-2.8-3.3l-3.1-3.3
		c-0.4-0.3-0.9-0.6-1.4-0.8c-0.2-0.2-0.4-0.4-0.5-0.7c0.2-0.1,0.5-0.2,0.7-0.2l0.8,0.4c1.8,1.1,4,1.7,6.1,1.7c1,0,2-0.2,3-0.4
		c2-0.4,4.1-0.5,6.2-0.3c0.5,0.1,1.1,0,1.6-0.1l10.1-2.6l6.7-1.4c1.7-0.4,3.3-1,4.9-1.6l3.1-1.3c0.2-0.2,0.5-0.3,0.8-0.4
		c0.6,0.2,0.6,0.8,0,1.4c-1.3,1.2-2.2,2.8-2.7,4.5l-0.7,1.7c-0.8,2.1-1.8,4.1-3.2,5.9c-3,3.6-6.5,6.2-11.2,7.1l-6.5,1v-0.2
		L55.1,132.5z M46.7,121.1c-0.9,0-1,0.2-0.8,1.2c0.1,0.8,0.6,1.5,1.3,1.9l0.4,0.4l3.4,2.2c1.3,0.6,2.8,0.8,4.2,0.6
		c2.3,0,4.6-0.4,6.8-1.2c1.2-0.4,2.4-1.1,3.6-1.6c1.3-0.7,2.5-1.6,3.5-2.6c0.7-0.7,1.4-1.3,2.2-1.9c1.3-0.6,1.9-2,1.4-3.3
		c-0.3-0.9-0.6-1.1-1.5-0.7l-3.2,1.2l-8.3,2.8l-4.8,1.4l-1.6,0.2L46.7,121.1z M39.8,120.4h-0.2l1.2,1.4l2.5,3.1l2.2,2.4
		c0.7,0.9,1.4,1.7,2.3,2.4c3.3,2.3,7,2.5,10.8,1.7l1.1-0.2c2-0.2,4-0.7,5.9-1.6c2.1-1.1,3.9-2.6,5.4-4.4c1.1-1.4,2.2-2.8,3.1-4.3
		c0.4-0.6,0.7-1.2,0.9-1.9l1.5-3.7c-0.2,0-0.4,0.1-0.5,0.3c-0.6,0.9-1.2,1.8-1.9,2.6c-1.6,1.6-3.3,3.1-4.9,4.7
		c-0.5,0.6-1.1,1.1-1.8,1.5l-3.7,2c-1.7,0.8-3.5,1.3-5.3,1.5c-1.7,0.3-3.5,0.4-5.2,0.3c-2.3-0.3-4.5-1.4-6.2-3
		c-0.7-0.8-1.5-1.5-2.4-2.2C42.9,122,41.3,121.3,39.8,120.4L39.8,120.4z M44.5,119.9l0.5,0.3l6,0.5c2.3,0.1,4.7-0.2,6.9-0.9l8.2-2.6
		l3.2-1.3c-1.8,0.2-3.5,0.5-5.2,0.9l-8.3,2.1c-1.4,0.3-2.7,1.2-4.2,0.7l-1.2-0.2l-3.7,0.3L44.5,119.9z"/>
	<path class="st0" d="M63,83.5c-1.2-0.1-2.5-0.4-3.6,0.4c-0.3,0-0.6-0.1-0.8-0.3c-0.2-0.2-0.3-0.6,0-0.8c0.1-0.1,0.1-0.1,0.2-0.2
		c1.6-1,3.1-2.3,4.3-3.8c1-1.4,2.5-2.4,4.1-2.9c1.7-0.4,3.5-0.4,5.2,0c1.7,0.4,3.3,1.1,4.6,2.3l1.7,1.2c0.2,0.1,0.4,0.4,0.4,0.6
		c-0.1,0.2-0.3,0.4-0.5,0.4l-6,1.3c-1.1,0.3-2.2,0.8-3.4,1S65,83.3,63,83.5z M71.7,81.2l5.5-1.5c-1.7-1.4-3.1-2.9-5.4-3
		C72.5,78.9,72.5,79.1,71.7,81.2z M65.1,78.1l-4.1,4c0.8,0.4,5.6,0.3,5.9-0.1C65.3,81.3,65.2,79.8,65.1,78.1z M68.3,79.5
		c0.8,0,1.2-0.3,1.1-0.8c-0.1-0.4-0.3-0.7-0.7-0.8c-0.4-0.1-0.8,0.3-0.9,0.7c0,0,0,0.1,0,0.1C67.9,79,68.1,79.3,68.3,79.5z"/>
	<path class="st0" d="M34.6,83.5c1.9-0.1,3.7,0.3,5.3,1.3c0.7,0.5,1.6,0.9,2.3,1.5s0.7,1.7-0.5,2.1l-4,1.1c-1.4,0.4-2.8,1-4.2,1.3
		c-1.9,0.4-3.9,0.2-5.6-0.6c-0.7-0.4-1.6-0.6-2.4-0.4c-0.4,0.1-0.8-0.5-0.5-1c1.7-2.7,3.8-5,7.3-5L34.6,83.5z M31.3,85
		c-1.4-0.2-4.5,2.3-4.4,3.6c1.9,0.5,3.6,1.6,5.7,1.2C31.8,88.4,30.6,87,31.3,85L31.3,85z M37.8,88.4c1.2,0,2.3-0.4,3.3-1.1
		c0.1-0.2,0.2-0.4,0.1-0.6c-0.9-0.9-2.1-1.5-3.3-1.8C38.6,86.3,38.2,87.3,37.8,88.4L37.8,88.4z M34.9,87c0.3-0.2,0.5-0.5,0.6-0.8
		c-0.2-0.3-0.4-0.6-0.8-0.7c-0.3-0.1-0.7,0-0.8,0.3c0,0.1-0.1,0.2,0,0.4C33.9,86.8,34.2,87,34.9,87L34.9,87z"/>
	<path class="st0" d="M74,69.7l1.6,0.2c0.9,0.3,1.4,1.2,1.1,2.1c-0.1,0.2-0.3,0.4-0.5,0.4c-3.1-0.3-6,0.5-8.9,1.4l-8.6,3
		c-0.8,0.2-1.7,0.3-2.6,0.3c-0.7,0-1.2-0.6-1.1-1.3c0,0,0-0.1,0-0.1c-0.1-0.5,0.3-1.1,0.8-1.2c2.7-1,5.5-2.1,8.2-2.9
		C67.2,70.5,70.6,69.9,74,69.7z"/>
	<path class="st0" d="M63.9,105c0.2,2.5-1.6,4.8-4.1,5.2h-1.6c-1.4-0.1-2.8,0.5-3.7,1.6l-2,2c-1.5,1.1-3.4,1.4-5.2,0.8
		c-0.9-0.3-1.7-0.6-2.5-1.1l-3.6-2l-1.3-0.8c-2.1-1.5-1.6-3.4-0.7-4.9c0.4-0.8,0.9-1.5,1.5-2.2c0.3-0.1,0.6-0.2,0.9-0.2
		c0,0.3,0,0.5-0.1,0.8c-0.5,0.8-1.1,1.5-1.5,2.3s-0.6,2.8,1,3.7c1.9,1.1,3.8,2.2,5.8,3.1c2,1,4.4,0.6,5.9-1l2-1.9
		c1.2-1,2.7-1.5,4.2-1.3c1.2,0.1,2.5-0.4,3.2-1.4c0.4-0.5,0.7-1.1,0.8-1.8c0.5-1.9-0.1-3.9-2.6-4.7c-0.3-0.1-0.6-0.4-0.6-0.8
		c0.2-0.5,0.5-0.2,0.9-0.1c1.4,0.3,2.5,1.3,3,2.6C63.8,103.6,63.9,104.3,63.9,105z"/>
</g>
</svg>
