<?xml version="1.0" encoding="utf-8"?>
<!-- Generator: Adobe Illustrator 21.1.0, SVG Export Plug-In . SVG Version: 6.00 Build 0)  -->
<svg version="1.1" id="Layer_1" xmlns="http://www.w3.org/2000/svg" xmlns:xlink="http://www.w3.org/1999/xlink" x="0px" y="0px"
	 width="144.1px" height="250px" viewBox="0 0 144.1 250" style="enable-background:new 0 0 144.1 250;" xml:space="preserve">
<style type="text/css">
	.st0{fill:#F79479;}
	.st1{fill:#BBBBBB;}
</style>
<g id="athletesfoot-foot">
	<path class="st0" d="M33.1,25.9c0.5,1.8,1.2,2.4,2.4,2.1c1.1-0.3,2-2.1,1.7-3.3c0-0.5-0.2-0.9-0.3-1.5c1.1-0.3,1.8-0.5,2.7-0.8
		c0,0.5,0.2,0.9,0,1.2c-0.5,0.9-0.2,1.2,0.9,1.4c0.6,0.2,1.2,0.9,2.1,1.7c-0.6,0.3-1.1,0.5-1.4,0.9c-0.3,0.6-0.5,1.2-0.6,1.8
		c-0.5,1.8,0.2,3,2.1,3.6c0.5,0.2,0.6,1.5,0.9,2.6c-1.8,0.2-3.8-0.5-3.2,2.1c-1.1-0.3-1.8-0.6-2.6-0.5c-0.6,0.2-1.1,0.9-1.7,1.4
		c-1.1,0.3-2.4,0.6-3.9,1.1c0.2-0.9-1.5-1.5-0.6-2.7c0,0-0.5-0.5-0.8-0.6c-0.5-0.2-0.9-0.2-1.4-0.2c0-1.7,2.7-3,0.5-4.7
		c0.2-1.7,0.9-3.5,0.3-4.7c-1.1-2.1,0.2-3.8,0.8-5.6c-1.1,0-2.1,1.2-2.3,2.6c-0.2,0.8-0.3,1.4-0.5,2.1c-0.2,0.6,0,1.2,0,1.8
		c0,0.3,0,0.6,0,0.9c0.2,0.3,0.3,0.8,0.3,1.2c0.2,0.5,0.2,0.9,0,1.4c-0.5,1.1-0.6,2,1.2,2.1c-0.6,1.2-1.4,2.4-2.1,3.8
		c0.8,0.2,1.4,0.5,2,0.8c-0.9,1.1-1.5,2.1,0.8,2.3c1.1,2.3,2.4,0.5,3.8,0.3c0.6-0.2,1.4-0.5,1.8-0.3c1.5,0.5,2-0.3,2.1-1.8
		c0.6,0.3,1.2,0.3,1.7,0.6c1.7,1.1,2.1,0.9,2.1-1.2c0-0.2,0-0.5,0-0.8c1.4,0.2,2.9,0.8,2.9-1.8c0.8,0.6,1.4,1.2,2,1.5
		c1.5,0.6,2.4,2.6,4.7,1.8c0.3,0,0.6,0.3,0.9,0.5c0.5,0.2,1.1,0.5,1.5,0.3c0.9-0.5,2.1-0.2,2.7-0.5c2.1-1.1,4.8-0.6,6.2-3
		c0.2-0.2,0.3-0.5,0.5-0.5c3,0.3,1.5-2.9,2.9-3.9c0,0-0.6-1.2-1.1-1.7c-0.6-0.6-1.4-0.8-2.1-1.2c0.6-0.6,1.4-1.1,1.5-1.7
		c0-0.5-0.8-1.1-1.4-1.8c0.6-0.9,0-1.1-1.1-1.7c-1.4-0.6-3-0.8-3.6-2.4c0-0.2-0.3-0.3-0.5-0.3c-1.7-0.3-3.3-0.8-5-1.2
		c-0.3,0-0.6-0.3-0.8-0.6c-0.1-0.5-0.3-1-0.5-1.5c-0.5-0.2-0.9-0.4-1.4-0.5c0.2,0.9,0.5,1.8,0.9,2.7c1.1,2.1,2,4.1,2.9,6.2
		c0.8,1.7-1.2,1.1-1.4,1.8c-0.3-0.2-0.9-0.3-1.1-0.6c-1-3.4-1.9-6.9-2.8-10.3c-0.8,0-1.6,0.1-2.5,0.4c-0.2,0.6-0.6,1.3-1.4,1.9
		c-1.1,0.8-1.7,2.7-0.8,4.5c0.2,0.3-0.6,1.1-1.1,1.7c-0.3-0.3-0.8-0.5-1.1-0.8c-0.5-0.2-0.9-0.5-1.7-0.9c0-0.6,0-1.2,0-2.3
		c-0.9,0.2-1.8,0.5-2.6,0.6c-0.9,0.1-1.5,0.1-1.8-1c-0.4,0.1-0.7,0.1-1.1,0.2c0.2,0.7,0.3,1.3,0.5,2c0.2,1.1,0,2.3,0,3.3
		c-0.2,0-0.5,0-0.6,0c-0.5-1.8-1-3.5-1.5-5.3c-0.6,0-1.2-0.1-1.9-0.3C32.2,22.5,32.6,24.2,33.1,25.9z M45.2,24.8
		c0.3-0.5,0.6-1.4,0.5-1.8c-0.9-2.1,0.5-3.5,1.2-5.1c0.2,0,0.3,0,0.5,0c0.8,2.7,1.5,5.6,2.4,8.5c0.2,0.9,0.8,2.3,1.4,2.3
		c1.4,0,2.7-0.3,3.8-0.9c0.5-0.3,0.3-2,0-2.9c-0.5-1.4-1.2-2.7-2-4.2c3.3,0.6,5.6,2.4,8,4.5c-0.5,0.9,0,1.5,1.2,1.5
		c-0.2,0.9-0.8,2-0.5,2.6c0.5,0.8,1.5,1.1,2.4,1.7c-0.2,1.1-0.2,2.1-0.3,2.7c-0.2-0.2-0.3-0.2-0.5-0.3c-0.6,0.6-1.2,1.4-2,1.8
		c-0.6,0.6-1.4,0.9-2.1,1.2c-0.9,0.3-1.7,0.6-2.7,0.9c-1.2-1.7-2,0.3-3.2,0.8c-0.6-0.9-1.2-1.4-2.6-1.1c-0.8,0.2-1.8-0.8-2.7-1.4
		c-1.4-0.9-2.6-2.1-3.8-3.2c-0.6-0.5-1.4-1.1-2-1.5c0-0.6,0-1.2,0-2c0-0.3,0.2-0.6,0.3-0.8C43.3,27,44.4,26.1,45.2,24.8z"/>
	<g>
		<path class="st1" d="M88.6,134.9c3.9,1.7,7.4,4.2,11.2,6.3c3.5,2,6.9,3.9,10.6,5.6c2.4,1.1,5.1,1.7,7.7,2.1
			c2.1,0.5,3.8,1.4,5.1,2.9c2.3,2.4,4.4,4.8,6.9,6.9c3.5,3,7.1,5.7,10.7,8.5c0.9,0.6,2,1.2,2.9,1.8c0.2-0.2,0.3-0.2,0.5-0.3
			c-0.3-0.8-0.3-1.8-0.9-2.3c-2.6-2.1-5.4-4.1-8.1-6.3c-3.5-2.9-6.8-5.9-10.1-8.9c-1.1-1.1-2.1-2-3.2-3c-2.3-2.1-4.7-3.9-6.5-6.3
			c-4.1-5.1-8.9-9.7-14-13.7c-1.5-1.2-2.7-2.6-4.4-3.9c1.4-0.6,2.4-0.9,3.3-1.4c0.5-0.2,0.8-0.8,1.1-1.1c-0.6-0.2-1.2-0.6-1.8-0.5
			c-2.3,0.5-4.4,1.1-6.6,1.5c-0.6,0.2-1.4,0-2-0.3c-1.5-0.6-2.9-1.2-4.2-2c-0.6-0.3-1.2-0.8-1.8-1.2c-3-2.6-4.8-5.7-6-9.5
			c-0.5-1.2-1.1-2.4-1.7-3.6c-0.8-1.7-2-3.3-2.1-5c-0.3-3.9,0-7.7,0.2-11.6c0-1.5,0.6-3,0.9-5c0.3,0.6,0.6,0.9,0.6,1.1
			c0.8,4.7,3.8,8.3,6.2,12.2c1.1,2,3.2,3.5,4.8,5c3.3,3,6.8,6,11.2,7.8c0.6,0.2,1.2,0,1.8,0c-0.3-0.5-0.5-1.2-0.9-1.4
			c-3.8-1.5-6.8-4.1-9.8-6.5c-4.8-3.9-8.1-9.1-10.4-14.8c-1.7-4.1-3-8-2.6-12.5c0-1.1-0.6-2.6-1.4-3.3c-2.6-2.3-5.4-4.2-8.1-6.3
			c-3.8-3-8-4.7-12.5-5.9c-4.7-1.2-7.7-4.5-10.7-8.6c1.1,0.2,2,0,2.6,0.3c2.4,1.1,4.8,1.4,7.4,1.2c2.3-0.2,4.4-2,4.7-4.2
			c0.2-1.4,0.6-2.7,0.9-4.2c3,0.5,5.9,1.1,8.8,1.5c2.4,0.5,2.6,0.8,2.6,3.2c0,1.2,0,2.4,0,3.6c0.2,0,0.3,0.2,0.5,0.2
			c1.8-1.2,0.5-3.5,1.2-5.3c2,1.4,3.8,2.4,5.4,3.8c3.2,2.4,6.5,4.8,9.5,7.5c2,1.8,3.5,3.9,5.3,5.7c1.2,1.4,2.7,2.6,3.9,3.8
			c1.5,1.5,2.9,3,4.4,4.4c0.2,0.2,0.9,0.2,1.4,0.2c0-0.6,0-1.2-0.3-1.5c-0.5-0.6-1.1-0.9-1.5-1.4c-5.6-5.4-11.2-10.9-16.8-16.4
			c-0.8-0.9-1.8-2-2-3c-0.3-4.5-1.7-8.6-3-12.8c-0.5-1.4-0.8-2.7-1.2-4.1c0.2-0.2,0.2-0.2,0.3-0.3c1.1,0.6,2.3,1.1,3.3,1.5
			c2.4,1.1,4.7,2.1,7.1,3.2c2.3,1.1,4.2,2.4,4.7,5.1c0.2,0.8,0.5,1.7,0.9,2.4c1.7,3,3.3,6.2,5,9.2c1.4,2.6,3,5.3,4.2,8
			c2,4.4,3.5,8.9,6.3,12.8c0.2,0.3,0.3,0.8,0.5,1.1c1.8,3.2,3.2,6.6,5.4,9.5c3,3.8,4.7,7.8,4.8,12.7c0,0.9,0.3,2,0.6,2.9
			c0.2,0.5,0.6,0.6,0.9,0.9c0.3-0.3,0.6-0.8,0.6-1.1c0-1.1,0-2.1-0.2-3.2c-0.2-1.8-0.5-3.6-0.8-5.7c6.8,6.5,13.7,12.4,22.3,16.3
			c-0.2-0.9-0.2-1.7-0.5-2c-1.8-1.2-3.5-2.3-5.3-3.3c-2-1.2-3.8-2.3-5.6-3.6c-1.1-0.8-1.8-1.8-2.9-2.6c-3.9-2.4-6.6-6-10-9.1
			c-5.1-5-7.4-11.8-11.2-17.7c-0.2-0.2-0.2-0.5-0.3-0.6c-1.5-3.5-2.7-6.8-4.4-10.1c-2-3.9-4.1-7.5-6.2-11.3
			c-0.8-1.4-1.8-2.7-2.1-4.2c-0.8-3.2-2.1-5.7-5-7.4c-1.1-0.6-2.1-0.9-3.2-1.4c-3.2-1.4-6.3-2.7-9.5-4.2c-0.5-0.2-0.8-0.8-0.8-1.2
			c-0.2-2.1-0.2-4.4-0.3-6.5c-0.2-2.3,0.2-4.7-0.5-6.8c-1.1-3.8-2.7-7.5-4.1-11.3c-0.2-0.3-0.3-0.6-0.6-0.8
			c-4.5-3.2-9.4-5.1-15.1-4.5c-2.6,0.2-5.9,3.3-6,5.7c-0.3,2.6-0.3,5.1-0.5,7.7c-0.1,1,0,1.9,0.1,2.8c0.5,0.1,0.9,0.3,1.4,0.5
			c-0.2-0.7-0.4-1.5-0.4-2.3c-0.2-2.1-0.2-4.4,0.3-6.5c0.3-1.7,1.1-3.3,2.1-4.7c0.8-0.9,2.1-1.4,3.3-1.8c1.2-0.3,2.4-0.3,3.6,0
			c3.6,0.8,7.4,1.5,9.8,4.8c1.1,1.5,1.5,3.3,2.1,5c1.1,3.2,2.3,6.2,2.3,9.5c-0.2,2.3,0,4.5-0.2,6.8c-0.2,3.3,1.2,6.3,2,9.5
			c0.8,3.3,1.7,6.5,2.4,9.8c0.3,0.8,0.2,1.5,0.3,2.6c-0.5-0.2-0.9-0.2-1.2-0.5c-4.1-3.5-8.8-5.1-13.9-6c-5.4-0.9-10.6-2.6-15.8-3.6
			c-5-1.1-7.1,0.5-8,5.9c-0.5,2.3,0.3,4.2,1.8,6.2c2.3,3,4.8,5.6,8,7.7c0.9,0.6,2.1,0.9,3.2,1.4c1.8,0.6,3.6,1.1,5.3,1.8
			c6,2.4,11,6.3,15.5,11c1.2,1.2,1.1,2.7,0.9,4.1c-0.2,1.7-0.5,3.3-1.1,4.8c-1.2,3.6-1.4,7.4-1.2,11c0.3,5.1-0.3,10-2,14.8
			c-1.4,3.8-1.2,7.7-1.1,11.6c0.2,4.1,0.3,8.1,0.8,12.1c0.3,2.4,0.9,5,1.4,7.4c1.8,9.2,2.6,18.4,2,27.6c-0.2,2.7-1.1,5.3-2.7,8
			c-2.1-2.6-4.1-4.8-5.9-7.2c-1.4-1.8-2.6-3.8-3.9-5.7c-0.8-1.1-1.5-1.8-2-2.9c-1.2-2.1-2.9-3.8-5.1-4.7c-0.5-0.2-0.9-0.5-1.7-0.9
			c2.4-2,4.8-3.6,6.9-5.4c1.2-1.2,2.3-2.4,3.3-3.8c0.6-0.9,1.1-2.1,1.5-3.2c0.2-0.3,0-0.8,0-1.2c-0.3,0.2-0.9,0.2-1.1,0.5
			c-0.6,0.8-0.9,1.7-1.4,2.6c-0.8,1.7-1.8,3-3.3,4.1c-2.6,2-4.8,4.1-7.2,6c-0.3,0.3-0.9,0.3-1.4,0.5c-1.5,0.3-3,0.5-4.4,0.9
			c-2.7,0.9-2.7,3.5-3,5.6c-0.8,5.7,0.5,11.2,3.9,15.8c2.1,2.9,4.1,5.7,6.2,8.6c1.7,2.3,3.6,4.4,5.4,6.6c1.1,1.4,0.9,1.8-0.8,2.4
			c-0.8,0.3-1.4,0.6-2.1,0.6c-4.4-0.3-8.6,0-12.7-2.1c-3-1.5-5.4-3.6-7.8-5.9c-1.2-1.1-2.6-2-3.8-3.2c-3.3-3.2-5.1-7.2-6.5-11.5
			c-1.7-5.3-3.2-10.6-4.5-15.8c-1.4-5.7-2.4-11.3-3.6-17.1c-0.5-2.1-0.9-4.4-1.7-6.5c-1.5-4.1-1.7-8.6-2.4-12.8
			c-0.6-3.3-0.9-6.8-1.5-10.1c-1.2-6.6-2.7-13.1-4.2-19.8c-0.8-3.2-1.8-6.3-2.6-9.7C2,71.5,1.5,62.9,1.7,54.3
			c0.2-4.7,0.2-9.5,0.5-14.2c0.3-3.9,2.3-6.9,4.8-9.7C7.3,30,8.3,30,9.1,30c0.6,0,1.1,0.2,1.7,0.3c2.1,0.5,3.6,1.5,4.4,3.8
			c0.8,2.3,1.8,4.4,0.6,6.6c-0.3,0.5-0.9,0.9-1.2,1.5c-0.2,0.3-0.5,0.9-0.3,1.1c1.2,1.5-0.3,2-1.1,2.6c-0.5,0.3-1.2,0.3-1.7,0.6
			c-0.8,0.3-1.5,0.8-2.1,1.2c-0.3,0.3-0.3,1.1-0.5,1.5C9.4,49,10,49,10.4,48.8c0.8-0.2,1.4-0.8,2-0.9c1.7-0.5,2.9-1.4,3.8-2.7
			c1.4-2.1,2.7-4.2,4.2-6.2c0.6-0.8,1.7-1.5,2.7-2c1.8-0.8,2.7-2,2.3-3.9c-0.8-3.2-1.4-6.3-2.3-9.4c-0.5-1.5-1.5-2.7-2.6-3.9
			c-2.3-2.7-2.1-5.6-0.9-8.3c0.9-2.3,3.3-3,5.7-2.9c1.7,0,3.2,1.2,3.8,3.2c0.9,3,1.7,6,2.5,8.9c0.6,0.2,1.2,0.3,1.9,0.3
			C32.4,17,31.3,13,30.2,9c-2.7-2.1-5.6-2.7-8.8-1.2c-3.5,1.7-3.6,4.8-4.1,7.8c-1.1,0.3-2,0.3-2.7,0.8c-3.8,2.3-5.9,5.6-6.2,10
			c-0.2,0.5-0.3,1.2-0.8,1.5c-3.5,2.1-5.4,5.3-6.3,8.9c-0.9,3.5-1.1,7.4-1.2,11C0,53.5,0.3,59.1,0.3,64.8c0,0.9-0.5,2.1-0.3,3
			c0.8,3.9,1.5,8,2.3,11.9c0.6,2.6,1.7,5.1,2.3,7.7c1.8,8.9,4.4,17.8,5.3,26.9c0.5,4.1,1.2,8.3,1.8,12.4c0.5,3.9,2.1,7.5,1.8,11.8
			c-0.3,6-0.6,11.9-1.5,18c-0.6,3.6-0.3,7.4-0.2,11c0.3,5.1,0.9,10.3,1.5,15.4c0,0.6,0.5,1.2,0.9,1.8c0.5,0.6,1.1,0.9,1.5,1.5
			c1.5,2,2.9,3.9,4.5,5.7c5.6,5.9,9.2,12.8,11.2,20.7c0.6,2.6,2.3,4.8,4.8,5.9c2.1,0.9,4.5,1.4,6.8,2.3c5.3,2,10.7,3.6,15.5,6.6
			c2.1,1.2,4.4,2.3,6.5,3.6c2.4,1.7,4.5,3.6,6.9,5.3c4.1,3,8.1,5.9,12.4,8.6c2.4,1.5,4.8,2.9,7.2,4.4c1.1,0,2,0,3.6,0.8
			c-2.1-2.1-5-3.2-7.5-4.7c-5-3-9.7-6.5-14.3-9.8c-2.9-2-5.3-4.5-8.1-6.2c-4.8-2.7-9.8-5.1-14.9-7.4c-3.6-1.7-7.4-2.7-11.2-4.1
			c-2.9-1.1-5-2.6-5.7-5.9c-1.1-5.1-3.3-9.8-6.2-14.2c-2.6-3.8-5.6-7.2-8.5-10.7c-2.7-3.3-3.9-7.2-4.1-11.5c-0.2-2.6-0.5-5-0.5-7.5
			c-0.2-3.8-0.3-7.4,0-11c0.3-3.5,1.1-6.8,1.4-10.3c0.2-1.7,0-3.2,0-4.8c0.5,0.2,0.6,0.5,0.6,0.6c1.1,4.7,1.8,9.2,3,13.7
			c1.5,5.9,3.2,11.6,5,17.4c1.5,4.7,3.8,9.1,7.7,12.5c3.5,3,7.1,5.9,10.3,9.4c1.8,2,4.4,3.3,6.8,4.7c2,1.1,4.1,1.8,6.2,2.6
			c0.5,0.2,0.9,0.2,1.4,0.2c-0.3-0.6-0.3-1.4-0.8-1.5c-0.9-0.5-2-0.8-3-1.1c-3.2-0.8-5.7-2.6-8-4.2c3.5,0.3,7.1,0.6,10.7,0.8
			c1.4,0,2.7-0.5,4.1-0.9c1.2-0.5,2.3,0.2,2.4,1.4c0.2,0.6,0.6,1.2,0.9,1.8c0.2,0.2,0.6,0.3,0.8,0.2c0.3-0.2,0.5-0.6,0.5-0.9
			c-0.5-1.8-1.5-3.3-2.3-5.1c-0.9-2.1-2.7-3.8-4.4-5.6c-3.9-4.2-7.5-8.6-10.3-13.7c-1.1-2-1.7-4.4-2.4-6.5c-0.2-0.5,0-1.1,0-1.7
			c0.8,0.5,1.1,1.1,1.5,1.7c2.1,3,5.9,3.8,8.9,1.8c2-1.2,3.8-2.7,5.7-4.1H61c2.7,3.6,5.3,7.2,7.8,10.9c0.2,0.2,0,0.5,0,0.8
			c-0.3,1.8-2.7,3.8-4.5,3.9c-0.5,0-0.9,0.5-1.2,0.6c0.3,0.3,0.8,0.8,1.1,0.8c1.1-0.3,2.1-0.5,3-1.1c1.2-0.8,2.3-1.8,3.5-2.9
			c0.3,0.6,0.8,1.1,1.1,1.7c1.8,2.9,4.1,5.3,7.5,6.3c0.8,0.3,1.4,0.9,2.1,1.5c0.9,0.6,1.7,1.4,2.6,2.1c2,1.7,3.8,3.3,5.7,5
			c0.9,0.9,1.8,1.7,2.7,2.6c2.7,2.6,5.6,4.8,8,7.7c2.6,3,4.4,6.5,6.8,9.5c2.6,3.2,5.3,6.3,8.3,9.2c1.8,1.8,4.2,2.7,6.5,4.1
			c4.5,2.7,9.2,5.4,13.7,8.1c2.4,1.5,4.8,3,7.4,4.5c0.3-2.1,0.3-2.1-1.2-3c-2-1.2-3.9-2.4-5.9-3.6c-3.3-2.1-6.6-4.5-10.3-6.3
			c-5-2.4-9.8-4.8-13.3-9.4c-1.8-2.4-4.1-4.4-4.7-7.4c0-0.3-0.5-0.8-0.8-1.1c-1.4-1.7-2.9-3.2-4.2-4.8c-0.6-0.8-1.1-1.7-1.8-2.3
			c-3-2.7-6-5.4-9.1-8.1c-3.3-2.9-6.6-6-10-8.9c-0.9-0.9-2.1-1.5-3.3-1.8c-1.8-0.5-2.9-1.7-3.8-3.2c-0.5-0.8-0.6-1.5-1.2-2.1
			c-0.8-0.9-0.6-1.5-0.2-2.4c0.6-1.5,1.5-2.9,1.8-4.5c1.5-7.7,1.5-15.5,0-23.2c-0.9-5.4-2-10.7-2.7-16.1c-0.5-4.1-0.6-8.3-0.8-12.5
			c0-1.1,0.2-2.1,0.2-3.3c2.6,2.1,2.6,4.8,2.9,7.4c0.3,3.6,0.6,7.2,1.1,10.9c0.2,0.5,0.8,0.9,1.1,1.4c0.2-0.5,0.6-1.1,0.6-1.5
			c-0.3-1.8-0.8-3.8-1.1-5.6c-0.3-2-0.3-3.9-0.5-6c1.4,1.8,2.3,3.5,3.6,5C82.3,130.6,85,133.2,88.6,134.9z M42,48.1
			c-0.3-2.3,0-4.4,1.4-6c0.9-1.1,2.4-1.4,3.9-1.1c3.2,0.8,6.3,1.7,9.5,2.6c0.3,0.2,0.8,0.9,0.8,1.4c-0.2,1.2-0.5,2.3-0.8,3.5
			c-0.5,2-2,2.7-4.8,3c-1.7-0.5-3.3-0.9-4.7-1.4c-1.2-0.2-2.3-0.5-3.5-0.5C42.6,49.6,42.1,49.1,42,48.1z M15.4,17.9
			c0.5-0.3,1.4-0.3,1.7,0c2.1,1.8,4.1,3.8,5,6.6c0.2,0.8,0.5,1.7,0.5,2.4c0.2,2.3,0.2,4.5,0.2,6.8c0,0.6-0.3,1.2-0.6,1.7
			c-1.2,1.2-2.6,2.3-3.6,3.3c-0.6-1.7-1.1-3.6-1.7-5.6c-0.9-2.4-2.7-3.8-5.3-4.2c-0.9-0.2-1.2-0.6-1.4-1.5
			C9.8,24.1,12.4,19.3,15.4,17.9z M57.8,164.4c-1.2,1.1-2.4,2-3.6,2.7c-0.9,0.6-2,0.9-3,1.4c-2.1-0.2-3.5-0.9-4.5-2.4
			c-0.6-1.1-1.4-1.8-2.1-2.7c-0.8-0.8-0.6-3,0-4.4c1.2-2.6,3.2-3.5,5.7-3.3c2.9,0.2,5.1,1.5,6.8,3.9c0.5,0.6,0.8,1.5,1.2,2.1
			C59.2,162.8,58.7,163.7,57.8,164.4z M72.5,114.5c-0.6-0.9-0.9-1.7-0.6-2.9c0.5-1.7,0.6-3.3,1.1-5c0.2-0.8,0.5-1.4,0.8-2
			c0.2-0.2,0.3-0.2,0.5-0.2c1.1,2.4,2.3,4.7,3.3,7.5c1.7,4.8,4.7,8.3,9.4,10.3c2.4,1.1,5,1.8,7.5,2.9c0.5,0.2,0.9,0.6,1.4,0.9
			c3.8,3.2,7.7,6.3,11.3,9.8c2.1,2.1,4.1,4.5,6,6.8c0.8,0.9,1.7,2,2.4,3c-3.6-0.2-6.8-1.5-9.8-3.2c-5.9-3.3-11.6-6.9-17.5-10
			c-3.3-1.7-5.9-3.8-8.1-6.5c-1.5-1.8-2.4-3.9-3.6-5.9C75.2,118.3,73.8,116.3,72.5,114.5z"/>
		<path class="st1" d="M36.2,20.8c-1.1-4.4-2.4-8.6-3.5-13c-0.3-1.1-0.2-2.4,0-3.6c0.2-1.5,1.5-2,2.7-2.3c3.5-0.8,5.6-0.2,7.7,2.4
			c2.1,2.6,2.6,5.6,3,8.6c0.2,1.3,0.8,2.7,0.3,4.1c0.8-0.2,1.7-0.4,2.5-0.4c0-0.1,0-0.2-0.1-0.3c-0.9-3.2-1.7-6.5-2.4-9.8
			c-1.2-5-5.4-7.1-10-6.5c-2.1,0.3-4.4,0.9-5,3.2c-0.5,1.7-0.3,3.6,0,5.4c0.2,1.1,1.1,2.1,1.4,3.2c0.7,3,1.5,6.1,2.2,9.2
			c0.4,0,0.7-0.1,1.1-0.2C36.3,20.8,36.3,20.8,36.2,20.8z"/>
		<path class="st1" d="M29.8,161.4c1.7-3.3,3.5-6.6,5.1-10c1.4-2.6,3.2-5,4.1-7.5c1.5-4.7,4.8-7.8,8.1-11c1.4-1.4,2.7-2.9,4.1-4.4
			c1.2-1.5,2.4-3,3.6-4.4c0.2-0.3,0.8-0.2,1.2-0.3c0,0.3,0,0.9-0.2,1.1c-3.2,2.7-4.8,6.8-8.3,9.5c-3.3,2.6-5.9,5.9-7.2,10
			c-0.8,2.4-2.3,4.5-3.5,6.8c-1.4,2.6-2.9,5.1-4.4,7.8c-0.5,0.8-0.6,1.5-1.1,2.1c-0.2,0.3-0.8,0.5-1.1,0.6
			C30.1,161.7,29.9,161.6,29.8,161.4z"/>
		<path class="st1" d="M31,126.1c0-3.6,1.2-6.3,2.7-8.9c1.4-2.3,2.7-4.5,2.9-7.2c0-0.9,0.5-1.8,0.8-2.7c0.5-1.7,0.8-3.5,1.2-5.1
			c0.5-1.5,1.1-3,1.7-4.5c0.8-2.1,1.5-4.1,2.4-6.2c0.2-0.5,0.8-0.8,1.1-1.2c0,0.5,0.3,1.1,0.2,1.5c-0.8,2.3-1.7,4.5-2.6,6.8
			c-0.5,1.5-0.9,3-1.4,4.5c-0.2,0.8-0.3,1.5-0.5,2.3c-0.6,2.4-1.1,4.7-1.8,6.9c-0.6,1.8-1.5,3.3-2.4,5c-1.4,2.4-2.9,4.8-2.7,7.7
			c0,0.3,0,0.6-0.2,0.8c-0.3,0.3-0.6,0.5-1.1,0.8C31.1,126.3,31,126,31,126.1z"/>
	</g>
</g>
</svg>
