<?xml version="1.0" encoding="utf-8"?>
<!-- Generator: Adobe Illustrator 21.1.0, SVG Export Plug-In . SVG Version: 6.00 Build 0)  -->
<svg version="1.1" id="Layer_1" xmlns="http://www.w3.org/2000/svg" xmlns:xlink="http://www.w3.org/1999/xlink" x="0px" y="0px"
	 width="200px" height="242.9px" viewBox="0 0 200 242.9" style="enable-background:new 0 0 200 242.9;" xml:space="preserve">
<style type="text/css">
	.st0{fill:#BBBBBB;}
	.st1{fill:#03A9F4;}
</style>
<g id="footpain">
	<g>
		<path class="st0" d="M194,12.8c-2-3.1-4.9-5.2-7.9-7c-1.5-1-3.5-1.5-5.2-1.4c-3.2,0.1-6.6,0.7-9.8,1.5c-5.2,1.3-10.2,2.9-15.3,4.5
			c-1.1,0.3-1.8,0.1-2.2-1c-1.4-3.2-2.8-6.3-4.3-9.5c-0.4,0-0.7,0-1.1,0c0.1,1.3,0.3,2.6,0.7,3.8c1.4,3.5,2.9,6.8,4.3,10.3
			c0.4,1,0.1,2.1,0.3,3.2c1,6.3,2,12.4,2.9,18.7c0.1,0.7,0.3,1.4,0.3,2c-0.3,3.8,1.3,7.2,2.4,10.7c1.4,5,3.3,9.6,5.6,14.2
			c2,4,4,7.9,6.4,11.7c1.7,2.8,2.2,5.6,1.3,8.6c-1,3.1-1.8,6.3-2.8,9.3c-0.4,1.3-1,2.5-1.5,3.8c-0.1,0-0.4-0.1-0.6-0.1
			c1-4,1.8-8.4,3.1-12.4c0.6-2,0.7-3.8,0.1-5.6c-0.1-0.6-0.7-1.1-1-1.7c-0.1,0.1-0.4,0.1-0.6,0.1c-0.1,0.6-0.3,1.1-0.1,1.5
			c0.4,2,0.3,3.6-0.3,5.6c-1.1,3.9-1.8,7.9-2.8,12c-0.1,0.8-0.3,1.5-0.6,2.2c-0.4,1.3-0.8,2.2-2.5,1.5c-0.3-0.1-0.8,0.1-1.8,0.3
			c1.1,0.7,1.8,1.3,2.6,1.8c-1.4,1.4-2.6,2.6-3.9,4c-1,1.1-2,2.4-2.9,3.5c-0.6,0.7-1.1,1.1-1.7,0.3c-0.3-0.4-0.3-1.3,0-1.7
			c1.1-1.7,2.6-3.1,3.6-4.7c1-1.8,2-3.9,2-5.9c-0.1-4.3,1.3-8.4,2.2-12.4c0-0.3,0.3-0.6,0.1-0.8c-0.1-0.4-0.4-0.8-0.7-1.3
			c-0.4,0.4-1.1,0.7-1.1,1c-0.1,4.5-2.9,8.4-2.1,13c0.1,1.1-0.4,2.2-0.6,3.5c-1-0.3-1.8-0.7-2.6-0.8c-0.4-0.1-1,0.3-1.4,0.4
			c0.3,0.3,0.6,0.7,1,0.8c0.7,0.3,1.4,0.6,2.6,1c-2.1,2.5-3.9,4.6-5.7,6.7c-0.3,0.1-0.7,0.1-1,0.1c-3.3-0.6-5.2,1.5-4.5,5.2
			c-0.4-0.4-1.1-0.8-1.1-1.3c0-1.1,0.1-2.1,0.6-3.1c1.1-2.2,2.2-4.5,3.5-6.6c1-1.7,1.1-3.5,1.1-5.3c0-1.1,0.3-2.4,0.1-3.5
			c-0.1-1.7-0.3-3.5-0.8-5.2c-0.4-1.4-0.3-2.2,0.8-3.1c1-0.7,1.5-1.5,0.1-2.4c-0.3,0.3-0.7,0.6-1,0.8c-2,2.1-4.7,2.4-7,0.8
			c-0.3-0.3-0.4-0.6-0.6-0.8c-2.5-6.3-2.9-12.8-1.3-19.4c1.4-5.7,0.8-11.6,0.4-17.4c-0.1-1.3-0.8-2.6-1.4-3.9c-2-4.3-3.8-8.6-5.9-13
			c-1.3-2.8-2.9-5.4-4.2-8.2c-0.7-1.4-0.8-2.9-1.3-4.5c-1.5-5.7-2.5-11.7-5.3-17c-0.4,0-0.7,0-1.1,0c0,0.3-0.1,0.7,0,1.1
			c1.1,3.6,2.2,7.2,3.6,10.7c0.6,2,1.1,3.8,1.5,5.7c0.1,0.6-0.3,1.5-0.8,1.8c-4,2-8.1,3.9-12.3,5.6c-3.6,1.5-7.4,0.1-9.3-3.3
			c-0.3-0.6-0.3-1.3-0.3-1.8c0.6-5.7,1.5-11.4,3.8-16.9c0.3-1,0.4-2.1,0.7-3.1c-0.4,0-1,0-1.4,0c-3.1,7-4.5,14.2-5.2,21.6
			c0,0.6-0.7,1.3-1.3,1.5c-6.4,3.5-13.2,4.7-20.3,4.6c-8.1-0.1-16-1.1-23.8-3.1c-2.8-0.7-5-2.1-5.4-5.3c-0.1-0.8-0.4-1.7-0.7-2.5
			c-0.1-0.6-0.7-1-1-1.4c-0.3,0.4-0.6,1-0.7,1.5c0,0.3,0,0.6,0.1,0.8c1.1,4.2,2.4,8.4,3.6,12.5c0.3,1,0.6,1.8,0.8,2.8
			c0.6,1.5-0.1,2-1.7,2.2c-2.5,0.4-4.9,1.1-7.4,1.7c-0.7,0.1-1.7,0.6-1,1.5c0.3,0.3,1.1,0.4,1.7,0.3c1.3-0.3,2.4-0.8,3.6-1.1
			c2.4-0.4,5-1.5,6.3,1.8c0.1,0.3,0.4,0.4,0.6,0.7c1.3,2.2,2.6,4.6,3.8,7c0.6,1.3,1.1,2.6,1.5,4c0.6,1.7,1.1,3.3,1.5,5
			c1.4,6.1,2.2,12.4,4,18.4c2.4,7.8,5.3,15.3,8.1,23c0.1,0.4,0.6,0.8,1,1.1c1.1,0.7,2.2,1.4,3.2,2c-0.6,1.3-1,2-1.3,2.8
			c1.5,0.8,2.4,0.3,2.9-1.1c1-2.1,3.9-4,5.6-4c2.4,0,4.9,0.3,7-0.4c4.2-1.4,8.2-3.5,12.1-5.6c1.5-0.8,2.5-1.3,3.8,0.1
			c1.5,1.7,2.4,1.7,4.3,0.3c0.3-0.1,0.6-0.1,0.8-0.3c0,1.5-0.6,2.2-1.7,2.9c-2.9,1.7-5.9,3.3-8.6,5.3c-3.1,2.1-5.2,4.9-5.4,8.6
			c0,0.7,0.4,1.5,0.7,2.2c0.3,0,0.4,0,0.6-0.1c0.4-1.5,0.7-3.1,1.1-4.9c1.5,2,2.8,3.5,4,5c0.1,0.3,0.1,0.8,0.1,1.3
			c0,0.3,0.1,0.7,0.1,1.1c0.4-0.1,1.1,0,1.3-0.3c0.8-1.4,2.1-1.3,3.3-1c1.8,0.3,3.6,0.3,5.3,0.8c2.1,0.7,4.2,1.8,6.1,2.6
			c0,0.3-0.1,0.4-0.1,0.7c-0.8,0.1-1.8,0.1-2.8,0.3c-1.5,0.3-3.3,0.1-4.7,0.7c-5.3,2.1-10.6,2.5-16,1.1c-0.3-0.1-0.8,0.3-1.3,0.4
			c0.3,0.4,0.4,1.1,0.7,1.1c2.1,0.4,4.3,0.7,6.6,1c1.3,0.1,2.4,0,3.8,0c-2.4,2.5-3.5,2.8-6.3,1.7c-1.3-0.6-2.4-1.3-3.6-1.4
			c-4.5-0.8-8.9-1.3-13.4-2.1c-3.9-0.7-7.9-1.7-11.8-2.5c-0.4-0.1-0.8-0.3-1.1-0.6c-3.2-2.6-6.1-5.4-7.7-9.3
			c-0.6-1.3-1.1-2.5-1.7-3.8c-3.6-7.5-7.4-14.9-11-22.3c-1.4-2.5-2.5-5.2-3.8-7.8c-1.3-2.5-2.8-4.9-4-7.4c-1.1-2.4-1.8-5-3.1-7.2
			c-2.8-5.2-5.2-10.6-6.8-16.2c-1.7-5.6-3.5-11-5.2-16.6c-0.6-2-1-4-1.7-6.1c-0.1-0.4-0.8-0.7-1.3-1.1c-0.1,0.6-0.4,1.1-0.3,1.5
			c1.5,7.5,3.5,14.9,6.1,22.2c1.7,4.9,3.1,9.9,5.7,14.5c1.4,2.4,2.4,5,3.3,7.7c0.3,0.7,0,1.7-0.3,2.2c-1,1.5-2.1,2.8-2.9,4.3
			c-2,3.8-3.8,7.5-5.7,11.6c-1-0.8-2.5-1.7-3.5-2.9c-3.5-4.6-5.2-9.9-6.6-15.5c-0.4-1.7-0.8-3.3-1.5-4.9c-1-2.1-2.2-4-3.1-6.1
			c-1.1-2.5-0.8-2.6,1.8-2.8c1.3,0,2.5-0.3,3.8-0.6c0.4-0.1,0.7-0.3,1.1-0.4c-0.1-0.3-0.3-0.4-0.4-0.7c-0.4,0-0.8,0-1.3,0
			c-1.3,0.1-2.4,0.3-3.6,0.4c-1.4,0.3-2-0.4-1.8-1.8c0.3-2.4,0.4-4.7,0.7-7.1c0.4-4.3,0.6-8.6,1.3-13c0.7-4.9,2-9.9,2.9-14.8
			c0.6-2.6,1.3-5.3,1.8-7.9c0.3-1.5,0.4-3.1,0.7-4.6c-0.7,0-1.3,0-1.8,0c-1.3,6.7-2.5,13.4-3.8,19.9c-0.1,1.1-0.4,2.2-0.8,3.2
			c-2,5-2,10.5-2.6,15.7c-0.4,3.5-0.4,7.1-0.7,10.6c-0.1,2.6,0.8,4.9,2,7.1c1.3,2.4,2.2,4.9,3.1,7.4c1.5,4.3,2.8,8.8,4.3,13.5
			c-0.1,0-0.2,0-0.3,0.1c0.3,0.6,0.7,1.2,1.1,1.7c1.7-0.4,2.5,0.5,3.5,1.8c1.3,1.4,3.2,2.2,4.5,3.6c1.8,2.1,3.6,2.2,5.7,1.1
			c1.8-1,3.5-0.6,5.2,0.3c3.3,1.7,7,3.1,10.5,4.6c0.4,0.1,1,0.4,1.3,0.8c1.1,2,2.5,3.8,3.5,5.7c1.4,2.6,2.6,5.4,3.9,8.4
			c-0.7,0.3-1.1,0.4-1.4,0.4c-0.4,0.1-0.8,0.1-1.2,0.2c0.2,0.5,0.4,0.9,0.7,1.4c0.6,0,1.2,0,1.7,0c0.3,0,0.8,0.1,1,0.4
			c1.5,2.1,2.8,4.5,4.6,6.4c1.5,1.7,3.3,3.3,5.4,4.2c3.3,1.3,7,2.1,10.6,2.6c4.7,0.8,9.6,1.4,14.4,2c1.4,0.1,1.7,0.7,1.3,2
			c-0.6,1.5-1.3,2.9-1.5,4.3c-0.1,1-0.6,1.5-1.5,1.8c-0.1,0-0.2,0.1-0.3,0.1c0,0.5-0.1,1-0.1,1.5c0.3-0.1,0.6-0.2,1-0.2
			c0.1,0.4,0.1,0.6,0.1,0.7c0,0.4-0.1,1-0.1,1.4c-0.8,8.8-1.1,17.6,0.8,26.3c2.2,10,3.6,20.1,3.6,30.4c0,1.1-0.1,2.5-0.7,3.5
			c-1.8,3.8-2,7.7-2,11.6c0,0.6,0.1,1.4,0.4,2c1.4,2.6,2.6,5.4,4.3,7.9c1.7,2.5,2.8,5,3.1,8.1c0.3,3.8,1.1,7.2,4.9,9.2
			c1,0.6,1.7,1.5,2.6,2.2c3.3,2.4,6.1,5.9,10.9,5.3c0.3,0,0.4,0,0.6,0.1c2.1,1.4,4.6,0.7,6.6,0.4c2.1-0.3,4.2-0.4,6.4-0.6
			c2.8-0.1,4-1.5,4.2-4.3c0.3-2.5-1.1-4.3-2.2-6.3c-1.5-2.5-3.2-5-2.9-8.2c0.1-1.7-1-2.9-2.4-4c-1.4-1.1-2.6-2.2-3.8-3.6
			c-1.4-1.7-2.5-3.5-3.8-5.3c-1.4-1.8-2.8-3.5-3.9-5.4c-1.3-2-2.2-4-2.1-6.6c0.1-1.8-0.1-3.6-0.6-5.4c-0.8-3.1-2.2-6-2.2-9.3
			c0-5,1.3-9.6,2.4-14.4c0.7-2.5,0.7-5,1.3-7.5c2.2-9.5,5.9-18.5,9.5-27.6c0.7-1.8,1.4-3.6,2-5.6c0.6-1.5,1.3-2.4,2.9-2.8
			c0.1,0,0.2,0,0.3-0.1c0.4-0.6,0.7-1.2,0.9-1.8c-0.4,0.1-0.9,0.2-1.3,0.3c-0.3,0-0.6-0.1-1-0.1c0.7-1.7,1.3-3.1,2-4.5
			c1.8-3.3,5.9-3.1,8.6-4.9c0-0.1,0.3,0.1,0.4,0.1c1.7,0.7,3.2,0.8,4.6-0.4c0.3-0.1,0.7-0.1,1-0.1c2.4,0.1,4.3-0.6,6-2.4
			c2.9-3.3,6.1-6.6,9.2-9.9c0.8-1.1,1.8-2.1,2.5-3.3c3.1-5.7,4.5-12,5.6-18.3c0-0.4,0.5-1,0.9-1.2c-0.2-0.5-0.4-1-0.5-1.5
			c-0.6,0-1-0.2-1.3-0.9c-0.6-1.1-1.3-2.1-1.8-3.2c-2.4-4.5-4.7-8.8-7-13.2c-0.7-1.3-0.3-2.2,0.8-3.1c2.1-1.7,4-3.5,6.1-5.2
			c0.5-0.4,1.1-0.8,1.8-1.1c1.3-1.1,3.1-2,4.4-3c-0.5,0.1-1.1,0.2-1.6,0.3c-0.1-0.1-0.1-0.4-0.3-0.6c0.6-0.7,1-1.4,1.5-2.1
			c2.4-2.8,4.9-5.4,7.2-8.2c3.3-4.2,6.8-8.2,7.9-13.7c0-0.6,0.4-1,0.7-1.5C196.1,19,195.8,15.7,194,12.8z M52.1,89.2
			c-0.4-0.1-1-0.1-1.4-0.3c-1.1-0.6-2.1-1.1-3.2-1.5c-3.3-1.4-6.7-2.8-10-4.2c-2.4-1-2.9-1.7-1.7-4c1.5-3.1,3.3-6,5-8.9
			c0.3-0.4,0.7-0.8,1.1-1.3c0.3,0,0.4,0,0.7,0c3.3,6.6,6.7,13.1,9.9,19.8C52.4,88.9,52.3,89.1,52.1,89.2z M145.6,105.4
			c1-1.3,1.4-3.1,3.2-3.5C148.2,104.7,146.9,105.9,145.6,105.4z M150.2,100.1c-0.1,0.3-0.7,0.6-1.1,0.8c-0.1-0.1-0.3-0.3-0.4-0.4
			c0.1-1.1,0.1-2.2,0.3-3.5C150.1,97.3,150.5,98.4,150.2,100.1z M140.6,83.8c-3.2,0.4-6,0.1-8.5-2.4c2.1-1.8,4.2-3.6,6.6-5.6
			C139.4,78.6,139.9,81.1,140.6,83.8z M114.8,30.4c0.4-1.8,1.7-2.9,3.5-3.8c3.1-1.3,5.9-2.8,8.8-4.3c1.3-0.7,1.7-0.3,2.2,1
			c0.7,1.7,1.7,3.2,2.5,4.7c0.8,1.7,1.7,3.5,2.5,5.3c0.1,0.4,0,1.1-0.1,1.5c-0.1,0.6-0.4,1.1-0.8,1.5c-3.1,3.6-4.6,7.8-6.3,12.1
			c-0.7,1.8-2,3.3-3.2,4.7c-1.3,1.4-2.9,2.6-4.5,4c-2.9-5-5.9-9.8-5.7-15.6C113.7,37.9,114.3,34.1,114.8,30.4z M62.6,47.9
			c-0.1-0.6-0.4-1.1-0.7-1.7c-0.8-1.7-1.8-3.3-2.6-5c-0.7-1.4-1.7-2.8-2.1-4.3c-1-3.1-1.8-6.3-2.6-9.5c-0.1-0.3-0.1-0.7-0.3-1.1
			c8.4,2.8,16.9,3.6,25.5,3.9c7.9,0.4,15.6-0.8,22.7-4.6c1.5-0.8,2.8-0.6,3.9,0.6c1.4,1.4,3.1,1.8,5,1.8c1.8,0,2,0.3,1.5,2.1
			c-2.1,8.1-2,16,2.4,23.6c0.8,1.4,1.4,2.6,2.1,4c0.6,1,0.4,2-0.4,2.8l-0.1,0.1c-4.5,4.5-2.9,4.6-9.1,1.7c-2.4-1.1-4.9-2.1-7.1-3.3
			c-4-2.4-7.9-4.9-11.8-7.4c-0.3-0.1-0.4-1-0.3-1.3c1.3-2.6,2.5-5.4,3.9-8.1c0.3-0.7,1.1-1.3,0.1-1.8c-0.4-0.1-1.5,0.3-1.8,0.7
			c-1.5,2.9-2.8,5.9-4.2,8.8c-0.1,0.3-0.1,0.6-0.4,1.4c-2.6-2-5-3.8-7.4-5.6c-1.1-0.8-2.4-1.4-3.6-2.1c-2.1-1.3-4.2-2.5-6.3-3.8
			c-0.6-0.3-1.3-0.1-1.8-0.3c0.3,0.6,0.4,1.4,0.8,1.8c1.3,1.1,2.6,2,3.9,2.9C68.9,45.4,65.8,46.7,62.6,47.9z M82.1,99
			c-0.3,0.1-0.7,0.3-1,0.1c-1.7-0.8-3.6-1.3-4.5-3.6c-2.4-7-5.2-13.8-7.2-20.9c-1.8-6.1-2.8-12.5-4.2-18.8c-0.1-0.8-0.4-1.7-0.7-2.5
			c-0.8-2.1-0.3-3.2,1.7-4.3c4.6-2.6,8.9-2.1,13.4,0.7c3.8,2.4,7.9,4.2,11.8,6.4c2.5,1.4,4.9,3.2,7.4,4.6c3.3,1.8,6.8,3.2,10.2,4.9
			c0.4,0.1,0.7,0.4,1.4,0.8c-3.3,2.8-5.6,6.4-9.5,8.2c-4.7,2.2-9.6,4.5-13.7,7.9c-3.9,3.5-5,9.1-2.2,13.5c0.1,0.1,0.3,0.4,0.4,0.8
			C84.2,97.6,83.1,98.3,82.1,99z M113.3,92.1c-1.5,1.3-2.1-0.1-3.1-1c0.8-0.7,1.3-2.1,2.6-1.1C113.6,90.5,114.4,91.3,113.3,92.1z
			 M139.4,237.4c-0.8,0-1.5,0-2.2,0c-0.4-0.1-0.8-0.4-1.3-0.7c0.4-0.6,0.7-1.4,1.1-1.5C138.3,234.7,139.2,235.5,139.4,237.4z
			 M131.6,126.6c-2.5,6.7-4.9,13.5-7.4,20.2c-1.4,3.8-3.1,7.5-4,11.4c-1.1,4.3-1.4,8.6-2.5,13c-1.3,5.2-2.2,10.2-2,15.5
			c0.1,1.8,0.6,3.6,1.3,5.3c1,2.4,2,4.9,1.5,7.5c-0.4,2.9,1,5.4,2.5,7.7c2.8,4,5.7,8.1,8.6,12c0.7,1,2,1.5,2.8,2.5
			c0.7,0.8,1.7,1.8,1.7,2.8c-0.1,3.3,1.5,6,3.2,8.8c0.3,0.4,0.4,0.7,0.7,1.3c-0.6,0.1-1.3,0.1-1.5,0.4c-0.6,0.7-1.4,1.4-1.4,2.2
			c-0.1,1.3,0.8,1.4,2,1.3c0.7,0,1.4,0.1,2.1,0.1c0,1.8-1.1,2.2-2.4,2.2c-1.3,0-2.2,0.1-2.6-1.7c-0.6-2.9-1.8-5.7-2.6-8.5
			c-0.3-1-1-1.1-1.4-0.7c-0.3,0.3-0.4,1.3-0.3,1.8c0.6,2.5,1.4,4.9,2.1,7.4c-1.1,0.3-1.8,0.4-2.6,0.7c-0.6-1.8-1-3.6-1.5-5.4
			c-0.3-0.8-0.6-1.7-1-2.4c-0.3-0.4-1-0.4-1.4-0.7c0,0.6-0.3,1.1-0.1,1.5c0.6,2,1.3,3.9,1.8,5.9c-0.8,0.6-1.4,1-2.1,1.4
			c-0.4-1.4-1-3.1-1.5-4.7c-0.4-1.3-0.8-2.4-1.5-3.5c-0.3-0.4-1-0.4-1.5-0.7c0,0.6-0.1,1.1,0,1.7c0.1,0.8,0.7,1.5,1,2.4
			c0.7,1.7,1,3.3-1.7,4.3c-0.3-0.7-0.8-1.5-1.1-2.5c-0.6-1.8-1.1-3.8-1.7-5.7c-0.1-0.3-0.7-0.7-1-0.6c-0.4,0.1-0.8,0.7-0.8,1
			c0.3,1.1,0.6,2.2,0.8,3.2c0.3,0.7,0.6,1.3,0.8,2c-0.1,0-0.3,0.1-0.4,0.3c-0.7-0.6-1.5-1.1-2.4-1.7c-0.7-0.7-1.4-1.5-2.2-2
			c-3.3-1.7-3.9-4.9-4.2-8.1c-0.3-3.2-1.5-5.9-3.2-8.5c-1.7-2.5-3.3-5-4.2-7.7c-0.7-2.1-0.1-4.5-0.1-6.7c0.3,0.1,0.3,0.1,0.4,0.1
			c0.7,0.4,1.7,1.4,2.1,1.3c1.3-0.6,0.1-1.5,0-2.4c-0.1-2-0.3-3.9-0.3-5.9c0-2,0.3-3.9,0.1-5.9c-0.7-6.3-1.3-12.5-2.1-18.8
			c-0.7-4.7-1.7-9.3-2.5-14.1c-1-6.4-0.4-12.7,0.1-19.1c0.3-3.8,0.7-7.5,2.2-11c0.6-1.1,1-1.5,2.1-1.1c3.1,1.1,5.7,0.1,7.5-2.4
			c1.7-2.5,4-2.9,6.6-3.3c2.8-0.6,5.4-1.1,8.2-1.5c0.3-0.1,0.8-0.1,1.1,0c2.4,1.1,4.7,0.7,7.1,0c0.8-0.1,1.5-0.3,2.8-0.6
			C134.1,121,132.8,123.5,131.6,126.6z M137.4,113.7c-0.8,2.8-3.5,2.6-5.6,3.5c-2.4,0.8-4.5,0.6-6.6-0.6c-4-2.1-8.2-4.2-12.4-6.1
			c-2-1-3.9-1.8-5.9-2.6c-0.4-0.1-1-0.3-1.4-0.6c-2.4-1.4-2.5-2.6-0.3-4.3c0.4-0.4,1-0.6,1.3-1c1-1,1.8-0.7,3.1-0.3
			c5.4,1.7,11,3.3,16.9,2.6c2.9-0.4,5-2.2,7.2-3.8c1.3-1,2.5-2,3.6-2.9c0.4-0.3,0.4-1,0.7-1.4c-0.6,0.1-1.3,0-1.7,0.3
			c-2.1,1.4-3.9,3.2-6.1,4.5c-1.5,1-3.5,1.5-5.3,1.8c-4.2,0.6-7.9-0.4-11.8-1.7c-1-0.4-2.2-0.6-3.8-1c2.1-1.3,3.8-2.1,5-2.9
			c2.6-1.7,3.8-7.2,1.1-9.5c-1.7-1.5-2.6-1.4-4.6-0.1c-3.3,2.1-6.7,4.2-10.2,6.1c-2,1.1-4,2-6.1,2.6c-1.3,0.6-2.8,0.7-4.2,0.7
			c-3.2-0.1-5.3-2.5-5.3-5.7c0-2.9,0.8-5.6,3.5-7.4c1.1-0.8,2.2-1.7,3.3-2.5c0.4-0.4,1-0.7,1.4-0.7c4.9,0,9.9-1.4,14.8,0.3
			c0,0.1,0.1,0.1,0.3,0.1c0.6,0,1.1-0.1,1.7-0.3c-0.4-0.4-0.8-1-1.3-1.1c-2.2-0.4-4.5-0.7-6.7-1c-1.4-0.1-2.8,0-4.3-0.4
			c0.8-0.4,1.7-1.1,2.5-1.4c2.8-1,4.9-2.8,6.8-4.7c3.8-3.6,7.5-7,11.3-10.6c2.5-2.4,5-5,7.4-7.5c2.5-2.5,3.3-6,4.7-9.2
			c1.3-2.8,2.9-5.3,4.6-8.1c0.6,0.8,0.8,1.1,1,1.4c1.1,2.2,2.5,4.5,3.1,7c0.7,3.5,1.3,7.1,1.3,10.7c-0.1,3.9-1,7.8-1.5,11.7
			c-0.1,0.6-0.4,1.1-0.3,1.7c0.4,3.1-1.4,4.9-3.5,6.6c-1.5,1.3-3.3,2.4-4.9,3.6c-1.3,1-2.6,1-3.6-0.3c-1-1.4-1.5-3.2-2.4-4.7
			c-0.1-0.4-0.6-1-0.8-1.4c-0.3,0.4-1,1-1,1.4c-0.1,3.1,1.5,5.3,3.9,7c1.5,1.1,3.3,1.7,5.2,2.6c-0.7,1.8,0.4,2.1,1.8,2.1
			c0.7,0,1.5,0,2.4-0.1c2.1-0.3,4.2,0,6.1,0.8c1.7,0.7,3.5,1.3,5.3,1.5c1.4,0.3,2.1,0.8,2.2,2.1c0.3,1.5,0.3,3.1,0.4,4.6
			c-0.3-0.1-0.4-0.1-0.7-0.3c-0.4,0.4-1,0.8-1.1,1.4c-1.7,6.7-4.6,12.5-10,17C137.7,113.4,137.4,113.6,137.4,113.7z M144.3,113.4
			c-0.8,1.4-4.3,2.8-6.1,2.4c0.3-0.6,0.6-1.1,0.8-1.3c0.7-0.7,1.4-1.4,2.2-2c0.7-0.4,1.5-0.7,2.4-0.7
			C144.8,111.9,144.7,112.8,144.3,113.4z M142.9,110c1.5-1,1.4-2.9,3.6-2.9c-0.7,1.4-1.1,2.4-1.7,3.3
			C144.3,110.2,143.8,110.2,142.9,110z M150.8,111.2c-0.4,0.6-1,1-1.5,1.4c-0.1-0.4-0.4-0.8-0.3-1.3c0.3-1,0.7-1.8,2.1-1
			C150.9,110.8,150.9,111.1,150.8,111.2z M152.5,113.4c-0.3-0.1-0.4-0.3-0.6-0.4c0.4-0.7,0.7-1.5,1.3-2.6c0.6,0.6,1,1,1.5,1.4
			C153.9,112.3,153.2,112.9,152.5,113.4z M192.9,20.1c-1.1,2.9-2,6-3.5,8.6c-2.4,3.8-5.2,7.4-8.1,10.9c-2.9,3.6-6.3,7.1-9.6,10.5
			c-2.2,2.1-4.6,4-7,6c-1.4,1.1-1.8,1-2.5-0.7c-0.6-1.8-1-3.6-1.7-5.4c-1.4-3.8-2.6-7.4-2.8-11.4c-0.1-3.5-1.3-6.8-1.8-10.3
			c-0.6-4-1-8.2-1.5-13c-0.3-1.3,0.6-2,2.5-2.4c6.4-1.7,12.8-3.3,19.2-5.2c5.9-1.7,10,1,13.9,4.9c1.8,1.8,2.8,3.9,2.8,6.6
			C192.9,19.4,193,19.8,192.9,20.1z"/>
		<path class="st0" d="M118.3,66.1c-1.4,2.1-2.5,4-4,5.7c-1,1.1-2.5,1.8-3.8,2.6c-0.3,0.1-0.7-0.3-1.1-0.4c0.3-0.3,0.4-0.8,0.7-0.8
			c2.2-0.8,3.5-2.5,4.6-4.5c0.4-0.8,1.3-1.7,2.1-2.2C117.1,66.1,117.8,66.1,118.3,66.1z"/>
	</g>
	<g>
		<path class="st1" d="M0,84.3c0,0.4,0,1,0,1.4c3.5-0.7,7.1-1.4,11.7-2.2c0.7-0.1,1.4-0.4,2.1-0.6c3.3-0.8,6.7-1.4,9.8-2.6
			c0.3-0.1,0.6-0.2,0.9-0.3c-0.4-0.5-0.7-1.1-1.1-1.7C15.7,80.2,7.9,82.3,0,84.3z"/>
		<path class="st1" d="M50.3,108.7c-3.6,0.7-7.2,1.4-10.9,2.1c-5.6,1.1-11.3,2.1-16.9,3.2c-5.3,1-10.7,2.1-16.2,3.2
			c-0.7,0.1-1.5,0.7-2.2,1.1c0.8,1.3,1.8,0.4,2.8,0.3c7.2-1.4,14.5-2.8,21.7-4.2c5-0.8,10-1.5,15.1-2.5c5-1,9.9-2.2,14.9-3.3
			c0.6-0.1,1.2-0.2,1.9-0.2c-0.3-0.4-0.5-0.9-0.7-1.4C56.7,107.6,53.5,108.1,50.3,108.7z"/>
		<path class="st1" d="M86.8,134.6c-9.5,2.2-18.8,4.5-28.3,6.7c-5.2,1.1-10.3,2.2-15.5,3.6c-5.6,1.4-11,3.1-16.4,4.6
			c-4,1.1-8.2,2.1-12.4,3.2c-0.4,0-0.7,0.6-1.1,1c0.6,0.1,1.3,0.6,1.7,0.4c2.6-0.6,5.3-1.1,7.8-1.8c3.6-1,7.2-2.1,10.9-3.1
			c7-1.8,13.9-3.6,20.9-5.3c9.8-2.5,19.7-4.7,29.5-7.1c2.5-0.7,4.9-1.4,7.4-2.1c1.6-0.3,3.1-0.8,4.7-1.2c0-0.5,0.1-1,0.1-1.5
			C93,132.9,89.9,133.8,86.8,134.6z"/>
		<path class="st1" d="M162.4,119.3c5.6-1.4,11.1-3.1,16.6-4.7c3.5-1,7-2.2,10.5-3.3c0.4-0.1,0.7-0.8,1.1-1.3
			c-0.6-0.1-1.3-0.4-1.7-0.3c-5.6,1.7-10.9,3.6-16.4,5.2c-11.4,3.1-22.8,5.9-34.4,8.9c-0.2,0.6-0.5,1.2-0.9,1.8
			C145.6,123.6,154,121.5,162.4,119.3z"/>
		<path class="st1" d="M176.6,79c1.7-0.6,3.3-0.8,5-1.3c1.5-0.3,3.2-0.6,4.9-1c0.3,0,0.4-0.7,0.7-1c-0.4,0-0.8-0.3-1.1-0.3
			c-3.1,0.6-6.3,1.3-9.3,2c-0.3,0-0.5,0.1-0.7,0.1C176.2,78.1,176.3,78.6,176.6,79C176.5,79.1,176.6,79,176.6,79z"/>
		<path class="st1" d="M198,41.4c-5.6,2-11.3,4-16.9,6c-0.6,0.2-1.3,0.4-2,0.5c-1.4,1-3.1,1.8-4.4,3c0,0,0,0,0,0
			c2.2-0.7,4.7-1.1,7-2c5.6-2,11.1-3.9,16.7-6c0.6-0.3,1-1,1.5-1.4C199.3,41.5,198.6,41.3,198,41.4z"/>
	</g>
</g>
</svg>
