<?xml version="1.0" encoding="utf-8"?>
<!-- Generator: Adobe Illustrator 21.1.0, SVG Export Plug-In . SVG Version: 6.00 Build 0)  -->
<svg version="1.1" id="Layer_1" xmlns="http://www.w3.org/2000/svg" xmlns:xlink="http://www.w3.org/1999/xlink" x="0px" y="0px"
	 width="200px" height="235.2px" viewBox="0 0 200 235.2" style="enable-background:new 0 0 200 235.2;" xml:space="preserve">
<style type="text/css">
	.st0{fill:#BBBBBB;}
</style>
<g id="acne-man">
	<path class="st0" d="M124.1,197c-2.1,3.9-4.4,7.9-6.7,12c-1.2,2-2.1,4.1-3.7,6c-5.2,6.2-10.4,12.3-16.7,17.5
		c-0.4,0.3-1.1,0.1-1.6,0.3c0.1-0.5,0.3-1.2,0.5-1.6c2.4-2.1,4.9-4.1,7.2-6.3c1.9-1.9,3.5-4,5.2-6.2c1.7-2.1,3.7-4.1,5.2-6.4
		c1.9-2.9,3.2-6.3,4.9-9.4c3.1-5.5,6.3-10.8,9.5-16.2c1.9-3.1,4.5-5.3,8.2-6.6c6.8-2.3,13.1-5.8,18.6-10.6c0.9-0.8,1.5-2.3,2.4-3.2
		c1.9-2,4.1-3.7,6-5.9c2.4-2.5,4.9-4.9,5.8-8.7c0.4-2.1,1.9-4.1,2.7-6.3c0.3-0.8,0.1-1.9,0.3-2.7c-0.3,0-0.4-0.1-0.7-0.1
		c-0.3,0.5-0.5,1.2-0.8,1.7c-1.9,3.7-3.5,7.5-5.6,11c-0.8,1.5-2.5,2.4-3.9,3.6c-2.3,1.9-4.5,3.9-6.8,5.6c-0.4,0.4-1.2,0.4-1.7,0.5
		c0.1-0.5,0.3-1.3,0.7-1.7c2.5-2.3,5.2-4.3,7.6-6.6c1.5-1.3,3.2-2.7,4-4.3c2.3-4.4,4.1-9,6-13.5c0.3-0.7,0.1-1.6,0-2.4
		c-0.1-0.5-0.5-1.3-0.9-1.3c-0.7,0-1.6,0.3-1.9,0.7c-2.8,4-5.5,8.3-8.4,12.3c-1.7,2.4-4,4.5-5.9,6.8c-0.7,0.7-1.2,1.5-2,2.1
		c-0.4,0.4-1.1,0.7-1.6,0.9c-0.1-0.3-0.4-0.4-0.5-0.7c0.8-1.1,1.5-2.1,2.4-3.1c2.8-3.5,5.8-7,8.6-10.4c2.8-3.7,5.5-7.6,8.2-11.5
		c1.2-1.6,1.2-2.4-0.1-3.6c-1.2-1.2-2.4-0.7-3.6,0.3c-1.7,1.3-3.7,2.5-5.2,4.3c-3.6,4-7,8.4-10.4,12.6c-1.9,2.3-4.1,4.1-6.3,6.2
		c-0.5,0.4-1.5,0.3-2.3,0.4c-0.1-0.1-0.3-0.3-0.4-0.4c0.8-1.5,1.3-2.9,2.3-4.4c1.6-2.3,3.2-4.4,4.9-6.7c4.3-5.3,8.6-10.6,12.8-15.8
		c0.5-0.7,1.2-1.2,1.5-1.9c0.3-0.8,0.7-1.9,0.3-2.4s-1.6-1.1-2.3-0.9c-2.4,0.5-4.7,1.3-6.6,3.2c-2.8,2.8-5.9,5.2-8.6,8
		c-2.1,2.3-4,4.8-5.8,7.4c-2.8,4.1-6.4,7.8-11.4,9.8c-1.9,0.8-3.3,2.7-4.9,4.3c-2.5,2.7-4,6-4.9,9.5c-0.4,1.6,0,3.3,0.1,5.1
		c0,0.8,0.1,1.5,0.1,2.3c-0.3,0-0.5,0.1-0.8,0.1c-0.5-1.3-1.1-2.5-1.6-4.1c-1.6,1.9-3.3,3.3-4.5,5.3c-3.3,5.2-6.3,10.6-9.8,15.6
		c-2.9,4.4-6.2,8.7-9.6,12.7c-2.4,2.8-5.2,5.5-8.2,7.9c-2.5,2.1-5.5,4-8.3,5.9c-0.5,0.4-1.2,0.5-1.9,0.8c-2.9-7.9-5.8-15.6-8.6-23.7
		c-1.3,0.8-2.5,1.5-3.6,2.3c-6.8,4.7-13.8,9-21.1,12.7c-2.5,1.2-5.3,2.1-8,2.9c-0.7,0.3-1.6,0-2.8,0c2.1,3.9,4.1,7.5,6.2,11.1
		c0.8,1.5,1.6,2.8,2.3,4.3c0.1,0.3-0.3,0.9-0.3,1.3c-0.4-0.3-1.1-0.4-1.2-0.7c-1.7-3.1-3.3-6.2-4.9-9.2c-1.1-2-2.3-3.9-3.5-5.8
		c-0.3-0.4-0.9-0.5-1.6-0.8c1.1-3.1-1.7-4.9-2.4-7.6c-0.1,0-0.3,0-0.5,0c0,0.7-0.1,1.3-0.1,2c0,5.5,0.1,11.1,0,16.6
		c-0.1,4.4-0.4,9-0.8,13.4c0,0.5-0.3,1.1-0.5,1.5c-0.1,0.1-0.7,0.3-0.9,0.1c-0.1,0-0.3-0.4-0.3-0.7c0.1-5.6,0.3-11.1,0.4-16.7
		c0.1-6.3,0.4-12.6,0.5-18.9c0-3.3-0.7-6.6-2.5-9.5c-1.2-1.7-2-3.9-2.8-5.8c-2.5-5.9-5.1-11.8-7.8-17.7c-1.1-2.4-2.1-4.9-3.3-7.4
		c-0.9-1.9-1.9-3.9-2.7-5.8c-1.9-4.8-1.3-10-1.9-15c-0.4-4-0.3-8.2-0.3-12.2c0-4.3,1.3-7.8,5.1-10.2c0.5-0.3,0.9-0.8,1.3-1.1
		c2.9-2.4,5.6-5.1,8.7-7.2c4-2.7,7.9-5.2,11.5-8.6c2.7-2.4,6.3-4.1,9.5-5.8c6-2.9,11.8-6.2,15.6-11.8c0.4-0.5,0.8-1.1,1.1-1.6
		c1.5-3.1,3.3-6.2,4.4-9.4c0.5-1.9,0-4.3-0.4-6.3c-1.1-4.9-2.5-9.8-3.5-14.7c-0.8-4.3-1.1-8.7-1.5-13c-0.1-1.5-0.5-2.8-0.7-4.3
		c-0.3-5.1,2.1-9.2,5.1-13.1c2.7-3.5,5.6-6.6,8.4-9.9c3.1-3.6,7.2-5.2,11.8-6.3c4.3-0.9,8.4-2.4,12.8-2c3.9,0.4,7.6,1.1,11.4,1.9
		c3.6,0.8,7.2,1.9,10.7,2.9c2,1.1,4.3,2.3,6.4,3.3c2.5,1.2,5.2,2.4,7.5,3.9c2.1,1.5,4.5,2.9,6,4.9c1.2,1.6,1.3,4,1.6,6
		c0.3,2.1,0,4.3,0,6.3c0,2.3,0.3,4.4,0.4,6.7c0.3,2.8,0.4,5.6,0.7,8.4c0.1,1.6-0.4,2.8-1.3,4.1c-0.5,0.7-0.8,1.7-0.7,2.5
		c1.3,4.7,2.7,9.5,4.1,14.2c0.9,2.8-0.1,4.9-2.9,5.8c-0.4,0.1-0.9,0.1-1.5,0c-1.6-0.4-2.1,0.3-1.9,1.9c0.1,0.8,0.4,1.7,0,2.3
		c-0.5,0.9-1.5,1.7-2.3,2.7c0.9,0.9,0.4,1.7-1.1,2.5c-1.5,0.8-2.4,1.6-2,3.6c0.5,3.2-1.7,5.3-4.1,7.2c0.8,1.2,1.6,2.3,2.4,3.5
		c2.9,4.4,3.7,9.5,4.9,14.4c0.4,1.6,0.5,3.3,1.1,4.9c1.5,4.5,2.5,9.2,2.8,13.9c0.1,2,1.2,4,1.7,6c0.1,0.5,0,1.3,0.3,1.9
		c0.3,0.7,0.7,1.9,1.1,1.9c1.1,0,2.4-0.3,3.1-0.9c2.9-3.2,5.6-6.8,8.7-9.9c2.8-2.7,6-4.9,9.1-7.4c0.3-0.3,0.5-0.4,0.7-0.7
		c2.3-5.3,6.2-9.6,9.6-14c1.1-1.3,2.7-2.4,4-3.5c3.5-2.8,7-5.3,11.4-6.7c3.2-0.9,6.3-1.5,9.6-0.9c2.9,0.5,4.4,2.9,6.3,4.9
		c0.8,0.8,1.5,1.7,1.9,2.8c0.4,0.9,0.7,2.1,0.5,3.2c-0.1,2.1-0.5,4.1,0.3,6.3c0.4,0.9,0.1,2.3-0.3,3.2c-1.9,4-2.1,8.3-3.1,12.4
		c-0.5,2.7-1.1,5.3-1.5,8.2c-0.1,0.8,0,1.7-0.1,2.5c-0.5,2.5-2.1,4.4-4.4,5.3c-3.7,1.7-7.6,3.5-11.5,4.9c-2.4,0.9-4.9,1.6-7.5,2.5
		c-0.5,0.3-1.1,0.9-1.2,1.5c-1.2,4.4-4,7.5-7.4,10.4c-2.1,1.9-4.4,3.9-5.5,6.8c-0.1,0.4-0.5,0.8-0.9,1.1c-2.3,1.9-4.5,3.9-7.1,5.3
		c-2.5,1.5-3.3,3.3-3.5,6c-0.3,2.8-0.1,5.9-1.1,8.4c-1.2,3.1-3.1,6-5.1,8.7c-0.8,1.2-2.5,2-4,2.4c-2,0.7-2.9,2.1-3.5,3.9
		c-1.2,4.1-0.9,8.4-0.5,12.7c0.7,5.3,1.5,10.7,2,16c0,0.5-0.4,1.1-0.7,1.6c-0.3-0.4-0.8-0.9-0.9-1.3c-0.8-5.2-1.5-10.3-2.1-15.5
		c-0.7-4.8-0.9-9.8,0.7-14.6c0.7-1.7,0.1-2.5-1.6-3.5C127.7,199.6,126.1,198.4,124.1,197z M88.9,40.5c-0.3-1.2-0.7-2.4-2.1-2.4
		c-2.1,0-4.3-0.3-5.9,1.7c-2.4,3.1-3.2,6.4-2.8,10.4c0.4,4.4,2.3,8,5.6,10.8c0.8,0.7,2.3,0.8,3.3,0.5c1.1-0.3,1.6-1.3,1.6-2.8
		c0-2.1-1.1-3.1-2.8-3.7c-2.3-0.9-4-2.5-4.1-5.2c0-0.8,0.4-1.7,0.5-2.5c0.3,0,0.4,0,0.7,0c-0.3,2.1-0.3,4,1.1,5.2
		c1.6-0.5,2.8-1.1,4.4-1.6c0.3,0.7,0.5,1.2,0.5,1.7c0.3,1.5,0.5,3.1,0.7,4.5c0.1,1.1,0.4,2.1,0.1,3.1c-0.7,2.4-4.5,3.6-6.4,1.9
		c-1.5-1.3-2.7-2.9-3.9-4.4c-1.9-2.3-2.3-4.9-2.7-7.9c-0.5,0.8-0.8,1.6-1.1,2.4c-0.7,1.7-1.2,3.6-2.3,5.2c-1.3,2-3.1,3.7-4.4,5.8
		c-1.9,2.8-4.4,4.4-7.8,4.7c-0.5,0-1.5,0.4-1.6,0.8c-1.5,2.8-2.9,5.8-4.1,8.7c-2.9,7.4-8.8,11.9-15.2,15.9c0-0.1,0,0,0.1,0.1
		s0.4,0.3,0.5,0.4c2.7,0.7,4.4,2.7,6.3,4.4c4,3.7,8.2,7.2,12.3,10.7c1.9,1.6,3.7,3.5,5.8,4.9c1.9,1.3,4.1,2.3,5.9,3.7
		c3.5,2.8,6.8,5.8,10.2,8.6c1.5,1.2,1.9,1.1,2.7-0.5c1.5-2.9,2.9-6,4.3-9c1.1-2.3,0.9-2.7-0.8-4.4c-1.6-1.7-2.9-3.6-4.5-5.6
		c-0.7,1.9-1.5,3.7-2.3,5.6c-0.1,0.4-0.7,0.5-1.1,0.8c-0.1-0.4-0.4-0.9-0.3-1.3c0.7-1.9,1.6-3.7,2.3-5.8c0.3-0.7,0.4-1.3,0.3-2
		c-0.4-1.5-1.1-2.9-1.6-4.3c-0.7-1.7-0.3-3.6,1.2-4.8c0.9-0.7,1.9-1.1,2.7,0.1c1.1,1.3,2,2.8,2.9,4c0.8-1.3,1.7-2.8,2.7-4.3
		c0.1-0.3,0.3-0.7,0.3-0.9c-0.1-1.6-0.3-3.1-0.3-4.7c0-3.5,2.4-4.9,5.5-3.5c0.1,0,0.3,0,0.1,0c0.5-1.6,1.1-3.1,1.6-4.5
		c-2.1-1.3-4.4-2.8-6.6-4.3c-3.7-2.8-5.5-6.6-4.1-11.2c0.1-0.3,0.5-0.4,1.1-1.1c-0.4,3.9-0.4,7.4,2.4,9.8c2.5,2,5.3,3.7,8.3,5.8
		c-0.3-2.4,0.1-3.9,2.3-4.4c2.3-0.5,3.2-0.4,4.7,1.7c1.6,2.3,3.2,4.5,4.8,6.7c1.7,2.4,3.6,4.8,5.5,7.1c0.5-0.3,1.1-0.5,1.5-0.5
		c4-0.1,7-3.6,6.2-7.5c-0.1-0.5,0-1.3,0.3-1.9c0.8-1.7,0.5-2.5-1.2-3.5c-0.7-0.4-1.3-0.8-2.1-1.3c0-0.3,0-0.4,0-0.7
		c2.8-0.8,5.6-1.6,8.4-2.4c0-0.8,0.1-1.6,0-2.5c-0.1-0.4-0.5-1.1-1.1-1.2c-1.3-0.4-2.5-1.2-2.7-2.5c-0.3-1.9-0.1-3.7,1.5-5.1
		c0.3-0.1,0.7-0.1,1.1-0.1c-1.5,1.7-2,3.5-1.2,5.5c0.5,1.3,1.5,1.5,2.7,0.7c0.7-0.4,1.7-0.5,2.4-0.3c0.5,0.1,0.7,1.1,1.2,1.9
		c1.9,0,3.3-1.6,2.8-3.5c-1.3-4.7-2.7-9.4-4.3-13.9c-0.5-1.9-0.5-3.3,0.8-4.8c-1.6-0.8-3.2-1.6-4.7-2.5c-0.1-0.1-0.3-0.4-0.4-0.5
		c-0.9-1.2-2.3-1.6-3.7-1.5c-0.7,0-1.5,0-2.1-0.1c-0.3,0-0.5-0.5-0.5-0.8c0.1-0.3,0.4-0.8,0.7-0.8c2.1-0.5,4.3-0.7,6.4,0.3
		c2.3,1.1,4,2.7,5.1,5.1c0.1-1.2,0.1-2.4,0-3.6c-0.1-0.7-0.7-1.2-0.7-1.7c-0.3-3.7-0.5-7.4-0.8-11.1c0-0.9-0.3-1.7-0.3-2.3
		c-1.7,0.1-3.3,0.3-4.8,0.3c-3.9,0-7.8-0.7-11.8,0.4c-1.9,0.5-3.9,0.7-4.9,2.7c-0.5,0.9-1.3,1.7-2.1,2.5c-2.1,2-4.5,3.9-6.7,6
		c-0.7,0.7-0.9,1.9-1.3,2.8c0,1.6-0.3,3.2-1.1,4.5c-0.8,1.5-2.5,1.1-3.7,0.9c-0.7-0.1-1.6-0.8-2-1.5c-0.8-1.5-1.5-3.2-2.1-4.8
		C89.5,41.1,89.2,40.9,88.9,40.5z M25.6,202.1c0.7,1.2,1.6,2.3,2.1,3.6c0.5,1.3,1.6,1.6,2.7,1.2c2.9-0.9,6-1.7,9-2.9
		c8.6-3.9,16.3-9.2,23.9-14.4c0.4-0.3,0.8-0.7,0.8-0.9c-0.3-1.6-0.8-3.2-1.3-5.1c-1.2,1.1-2,1.9-2.9,2.4c-5.3,3.2-10.3,7-16.3,9.1
		c-5.1,1.9-10.2,4-15.1,5.9C27.4,201.5,26.5,201.9,25.6,202.1c0.4-0.5,0.7-1.5,1.3-1.7c2-1.1,4.1-1.9,6.3-2.7
		c5.2-2.1,10.6-4,15.6-6.6c4-2,7.8-4.8,11.5-7.2c0.9-0.5,1.9-1.6,1.2-2.5c-1.6-2.4-1.9-5.6-4.4-7.4c-0.4-0.3-0.5-0.8-0.7-1.3
		c-0.5-1.2-0.9-2.5-1.7-3.6c-1.5-1.9-3.2-3.7-4.9-5.3c-1.5-1.3-3.2-2.4-4.9-3.5c-0.8-0.5-1.7-0.7-2.5-1.1c-0.5-0.3-0.8-0.8-1.2-1.3
		c0.7-0.1,1.3-0.4,2-0.3c1.7,0.5,3.3,1.2,4.9,1.9c0.1-0.1,0.3-0.3,0.4-0.4c-2.7-3.9-5.2-7.8-7.9-11.8c0.1-0.1,0.3-0.3,0.4-0.4
		c0.7,0.5,1.6,0.8,2.1,1.5c2.1,2.9,4.5,5.8,6,9c1.9,4.1,4.9,7.2,7.4,10.7c0.9,1.3,2.1,2.7,2.9,4c1.2,2.3,2.3,4.7,3.2,7.1
		c2.3,6.3,4.4,12.6,6.7,18.9c0.5,1.3,0.9,2.7,1.3,3.7c3.3-2.3,6.4-4.5,9.8-6.3c3.7-1.9,6.7-4.4,9-7.8c2.9-4.3,4.1-9.1,4-14.2
		c0-5.5,2-10.2,4.4-15c0.3-0.5,0.7-1.1,1.2-1.2c0.5-0.1,1.1,0.1,1.7,0.3c-0.3,0.4-0.5,0.8-0.8,1.1c-0.3,0.4-0.7,0.7-0.9,0.9
		c-2.7,4.9-4,10.3-4.1,16c-0.3,7.6-3.6,13.8-9.2,18.6c-1.2,0.9-2.5,1.9-4,2.3c-3.6,1.2-6.3,3.7-9,6.3c-0.7,0.7-1.1,1.5-0.4,2.5
		c0.9,1.7,1.6,3.5,2.5,5.5c1.5-1.2,2.9-2.5,4.5-3.3c4-2.3,7.5-5.1,10.6-8.6c1.2-1.5,2.4-2.9,3.6-4.4c2.8-3.3,5.3-6.8,7.5-10.6
		c3.1-5.3,6.7-10.3,10-15.4c0.7-1.1,1.1-2,0.8-3.3c-0.3-1.9-0.4-3.7-0.7-5.6c-0.5-3.7-0.8-7.6-1.7-11.2c-1.5-5.8-3.5-11.5-5.2-17.3
		c-1.5-4.8-4.1-8.6-8.6-11.1c-0.9,2-1.7,4-2.7,5.9c-1.7,3.2-3.3,6.6-5.2,9.6c-2,3.5-4.8,3.2-7.6,0.8c-0.8-0.8-1.7-1.5-2.7-2.3
		c-2.5-2-5.2-3.9-7.6-6.2c-3.6-3.3-7.6-6.2-11.8-9c-3.6-2.5-6.8-5.6-9.8-9c-2.4-2.8-4.5-6-7.9-8c-2.3-1.3-4.3-3.3-6.3-5.2
		c-0.9-0.8-1.7-0.5-2.7-0.3c-2.8,0.8-4,3.6-6.6,4.9c-2.7,1.3-4.9,3.6-7.5,5.3c-3.6,2.4-7.2,4.5-9.9,7.9c-0.5,0.5-1.1,1.1-1.7,1.5
		c-3.2,2-4.5,5.1-4.5,8.7c0,4.1,0.1,8.4,0.3,12.6c0.1,3.6,0.3,7.2,1.1,10.7c0.9,3.9,2.7,7.5,4.1,11.2c1.2,2.8,2.5,5.5,3.7,8.3
		c3.3,7.5,6.2,15.1,10.4,22.1c0.4,0.7,0.5,1.3,0.8,2.1C23,195.4,24.4,198.8,25.6,202.1z M113.4,165.1c0.3,0,0.5,0.1,0.8,0.1
		c0.7-1.3,1.6-2.5,2-3.9c1.3-3.6,2.9-7.1,5.6-9.9c2.7-2.8,4.9-6,7.4-9.1c0.4-0.4,0.5-1.3,0.3-1.9c-0.7-2-1.7-4-2.4-6
		c-1.2-3.9-2.3-7.8-3.3-11.8c-1.5-5.3-3.2-10.6-3.3-16.2c0-2-0.4-4-0.9-6c-0.9-3.3-2.9-6.2-5.1-8.8c-3.6-4.7-7.1-9.6-10.6-14.4
		c-0.8-1.1-2.7-1.3-3.6-0.4c-1.3,1.1-1.1,3.5,0.7,4.5c2.4,1.3,3.2,3.6,4.3,5.9c0.9,2,2.1,3.7,3.3,5.6c0.8,1.5,2,2.8,2.5,4.3
		c1.1,2.7,2,5.3,2.8,8c0.4,1.1,0.5,2.1,0.8,3.3c-0.3,0.1-0.5,0.1-0.8,0.3c-0.3-0.5-0.5-1.1-0.7-1.6c-0.3-0.7-0.3-1.5-0.4-2.1
		c-0.9-2.5-1.7-5.1-2.8-7.5c-0.4-1.1-1.1-2-1.7-2.9c-1.3-2.4-2.8-4.7-4.3-7.1c-0.9-1.5-1.6-3.2-2.8-4.4c-0.7-0.7-2.4-1.2-3.2-0.8
		c-1.1,0.5-1.7,2-0.9,3.5c1.1,2.4,2.1,4.9,3.2,7.4c0.8,1.9,1.5,3.7,2.3,5.6c1.2,2.9,2.5,5.9,3.9,8.7c0.1,0.3,0,0.7,0,1.5
		c-0.9-1.1-1.3-2-2-2.4c-2.4-1.5-3.5-4-4.7-6.3c-1.3-2.4-2.1-5.2-3.1-7.8c-0.5-1.6-0.9-3.2-1.6-4.8c-0.3-0.7-1.1-1.5-1.9-1.6
		c-0.5-0.1-1.7,0.7-1.7,1.2c-0.3,2-0.3,4.1,0,6.2c0.1,1.5,0.8,2.9,1.3,4.4c1.2,2.9,1.7,6.3,4.1,8.7c1.2,1.2,1.9,2.9,2.9,4.5
		c-2.5,0.8-7.2-0.9-8.8-3.3c-2.1-3.3-4-7-6-10.4c-0.5-1.1-1.2-2.1-2.5-1.5c-1.2,0.5-1.5,1.7-1.1,3.1c0.5,1.3,0.8,2.9,1.5,4.1
		c1.7,2.9,2.7,6.4,5.8,8.6c2.4,1.6,4.4,3.7,6.4,5.8c1.2,1.1,2,2.4,3.2,3.6c2,2,4.4,3.3,7.5,2.9c0.3,0,0.5,0.1,0.8,0.3
		c0.4,0.3,0.7,0.5,0.9,0.8c-0.4,0.3-0.7,0.8-1.1,0.9c-0.8,0.1-1.6,0-2.4,0c0,0.3,0,0.4,0,0.5c2.1,6.7,4.5,13.4,6.4,20.1
		c1.2,4.3,1.6,8.7,2.3,13.1C113,161.3,113.1,163.2,113.4,165.1z M34.4,95.7c2.7,2.1,5.2,4,7.8,6c0.8,0.5,1.6,1.1,2.3,1.9
		c3.2,3.5,6.2,7.2,9.5,10.4c2.7,2.5,5.8,4.8,8.7,7.1c1.1,0.8,2.4,1.3,3.5,2.1c5.2,4.3,10.3,8.6,15.4,12.8c0.9,0.8,2.1,1.6,3.5,0.5
		c0.8-0.7,1.5-1.3,1.9-2.1c2.1-3.9,4.4-7.8,6.2-11.9c1.9-4.4,1.7-4.4-2.1-7.5c0,0-0.1,0-0.3,0c-0.1,0.1-0.1,0.3-0.3,0.4
		c-1.7,3.7-3.5,7.5-5.2,11.2c-0.9,1.9-2.5,2.5-3.9,1.5c-1.9-1.5-3.5-3.1-5.2-4.5c-2.8-2.3-5.8-4.4-8.7-6.6c-2.5-1.9-5.2-3.6-7.6-5.6
		c-3.3-2.8-6-6.3-9.6-8.8c-3.5-2.4-5.9-6.3-10.2-7.9C37.7,93.9,36.9,93.5,34.4,95.7z M197.1,117.7c-2.4,2.9-4.8,5.9-7.2,8.8
		c-1.6,1.7-3.3,3.3-4.9,5.1c-3.2,3.6-7.1,6.2-11.6,7.5c-1.2,0.4-1.6,1.5-0.8,2.4c1.2,1.5,1.6,3.1,0.8,4.8c-0.4,0.8-0.7,1.6-0.9,2.5
		c0.1,0.1,0.1,0.3,0.3,0.4c2.1-0.8,4.4-1.6,6.6-2.5c3.9-1.7,7.9-3.5,11.8-5.2c1.5-0.7,2.5-1.9,2.5-3.7c0-1.9,0.4-3.9,0.8-5.8
		C195,127.2,196.2,122.6,197.1,117.7z M161.2,118.8c1.1-1.5,1.9-2.7,2.8-3.9c1.6-2,2.9-4.4,4.9-6c3.6-3.1,7.4-6.3,11.9-8.2
		c2.5-1.1,5.1-1.7,7.9-1.5c2,0.3,4.1,0.4,5.5,2.5c2.9,4.5,2,9-0.1,13.2c-2.3,4.4-5.1,8.3-8.8,11.6c-3.9,3.5-7.9,6.8-12.7,8.8
		c-0.1,2.4,0.4,2.8,2.4,1.7c2.1-1.2,4.3-2.3,6.2-3.7c2.9-2.5,5.6-5.5,8.4-8.3c3.2-3.3,5.9-7.1,7.4-11.5c1.6-4.4,2.5-9-0.3-13.2
		c-1.3-2.1-2.8-4.3-5.8-4.8c-3.1-0.5-6,0.1-9,0.9c-5.9,1.7-10.6,5.6-14.7,9.9c-2.9,3.1-5.2,7-7.6,10.6c-0.3,0.4-0.5,0.9-0.8,1.6
		C159.7,118.8,160.6,118.8,161.2,118.8z M125.6,194.9c0.5,0.7,1.1,1.3,1.6,2.1c0.9,1.5,5.2,3.5,6.7,2.9c2-0.8,4.4-1.6,5.8-3.2
		c1.9-2.4,2.8-5.5,4-8.3c0.3-0.5,0-1.3,0.1-1.9c0.1-1.5,0.4-2.9,0.7-4.4c0.1-0.9,0.3-1.7,0.4-2.5
		C135.5,181.4,128.8,185.9,125.6,194.9z M130.9,140.2c0.3,0,0.4,0,0.7,0c0.3-0.4,0.7-0.9,0.7-1.3c0-1.2-0.3-2.3-0.5-3.3
		c-0.5-2.3-1.3-4.4-1.9-6.6c-0.7-3.5-1.1-7-1.7-10.3c-0.7-3.6-1.5-7.2-2.7-10.7c-1.3-4-1.7-8.4-4.3-12c-0.8-1.1-1.5-2.3-2.3-3.6
		c-0.7,0.1-1.5,0.4-2.4,0.5c1.5,2.3,3.2,4.3,4,6.6c0.9,2.4,0.8,5.2,1.3,7.8c0.7,3.7,1.3,7.5,2.1,11.2c0.5,2.1,1.3,4.3,2,6.4
		C127.7,129.9,129.3,135,130.9,140.2z M92.2,107.8c1.2-2.1,1.9-3.7,0.7-5.8c-0.9-1.5-1.5-3.2-2.1-4.9c-2,0.5-1.6,2.8-2.5,4.1
		c-0.1,0.3,0.7,1.3,1.1,2c0.3,0.5,0.5,1.1,0.9,1.6C90.7,105.7,91.4,106.6,92.2,107.8z M160.2,130.6c1.6-0.9,3.1-1.7,4.4-2.7
		c0.4-0.3,0.5-0.9,0.5-1.3c-0.1-0.3-0.7-0.7-1.1-0.7C161.7,125.6,159.8,127.8,160.2,130.6z M128.7,146.2c0.1,0.1,0.3,0.3,0.4,0.4
		c2.4-2.1,4.8-4.3,7.2-6.4c-0.1-0.1-0.3-0.4-0.5-0.5C132.1,140.5,130.5,143.4,128.7,146.2z M99.8,95.7c-0.3,0.1-0.5,0.3-0.8,0.4
		c1.5,2.8,2.8,5.6,4.3,8.4c0.3-0.1,0.5-0.3,0.7-0.4C102.6,101.3,101.1,98.5,99.8,95.7z M95.1,106.1c-0.1,0-0.4,0-0.5,0.1
		c-0.1,0.9-0.8,2.3-0.5,2.5c0.8,0.7,2.1,0.9,3.2,1.3c0.1-0.1,0.1-0.3,0.3-0.4C96.7,108.5,95.9,107.3,95.1,106.1z M144.4,148.2
		c0.1,0.1,0.3,0.3,0.5,0.5c1.6-1.6,3.1-3.3,4.7-4.9c-0.1-0.1-0.4-0.4-0.5-0.5C146.6,144,146.2,146.6,144.4,148.2z M96.7,88.5
		c-0.7,2.5,1.3,4.1,2,6.2C99.2,92.2,97.8,90.3,96.7,88.5z M150.2,141.3c0.1,0.1,0.3,0.1,0.4,0.3c1.3-1.5,2.7-2.8,4.3-4.5
		c-0.8,0-1.5-0.1-1.7,0.1C152.1,138.5,151.1,139.9,150.2,141.3z M157,134.2c1.7-1.6,1.7-1.6,0.9-3.6
		C156.2,132.2,155.9,133,157,134.2z M128.7,74.6c-1.6,0.5-2.8,0.9-4.4,1.5C126.3,76.8,128.1,76.3,128.7,74.6z M126.8,78.8
		c-1.2-0.7-2.1-1.2-3.2-1.7C125.3,79.9,125.3,79.9,126.8,78.8z"/>
	<path class="st0" d="M89.7,41.5c0,0.4-0.1,0.7,0,1.1c0.7,2.1,0.5,3.9-1.6,5.2c-0.7,0.4-1.1,1.2-1.6,1.7c-0.1,0-0.4-0.1-0.5-0.1
		c0-0.4-0.1-0.9,0.1-1.2c0.4-0.5,0.9-1.2,1.5-1.5c1.6-0.8,1.7-2,1.3-3.6c-0.4-1.5-0.7-2.5-2.3-2.8c-2.1-0.3-3.3,0.3-4.3,1.9
		c-2,3.2-2.5,6.6-1.2,10c0.7,1.6,1.6,3.1,2.3,4.5c0.1,0.3,0.3,0.7,0.1,1.2c-2-1.9-3.1-4.1-3.9-6.7c-0.8-2.4-0.5-4.9,0.4-7.1
		c0.9-2,1.9-4.3,4.5-5.1c1.7-0.5,3.1,0.1,4.5,1.2C89.2,40.9,89.5,41.1,89.7,41.5z"/>
	<path class="st0" d="M116.8,48.9c2.3,0.7,4,1.3,5.8,1.7c0.3,0.1,0.9-0.4,1.1-0.7c0.5-0.9,0.9-2,1.3-3.1c0.1,0,0.4,0,0.5,0.1
		c0,0.5,0,1.1-0.1,1.6c-0.3,1.1-1.6,1.9-0.9,3.2c-0.8,0.1-1.5,0.1-2.5,0.4c-0.1,0.3-0.3,1.2-0.8,1.6c-0.5,0.4-1.5,0.4-2.1,0.3
		c-1.6-0.5-3.2-3.6-2.9-5.2c0-0.3,0.4-0.7,0.7-0.8c1.9-0.5,3.7-1.1,5.6-1.6c0.1,0,0.4,0.3,0.8,0.5C120.9,47.7,119,48.2,116.8,48.9z"
		/>
	<path class="st0" d="M102.7,74.4c-1.1,0-2-0.4-1.7-1.6c0.1-0.7,1.1-1.5,1.6-1.5c0.5,0,1.6,0.8,1.7,1.3
		C104.6,73.6,103.9,74.4,102.7,74.4z"/>
</g>
</svg>
