<?xml version="1.0" encoding="utf-8"?>
<!-- Generator: Adobe Illustrator 21.1.0, SVG Export Plug-In . SVG Version: 6.00 Build 0)  -->
<svg version="1.1" id="Layer_1" xmlns="http://www.w3.org/2000/svg" xmlns:xlink="http://www.w3.org/1999/xlink" x="0px" y="0px"
	 width="200.3px" height="219.6px" viewBox="0 0 200.3 219.6" style="enable-background:new 0 0 200.3 219.6;" xml:space="preserve"
	>
<style type="text/css">
	.st0{fill:none;stroke:#BBBBBB;stroke-width:0.7433;stroke-miterlimit:10;}
</style>
<g id="burn-water">
	<path class="st0" d="M199.6,19.4c-4.4,1.2-8.2,3.7-11.6,6.7s-6.2,6.4-8.7,10.1c-6.7,9.7-11.4,20.5-15.1,31.8
		c-0.3,1.2-1.2,1.8-2.2,2.2c-2,0.7-3.9,0.7-5.9,0.3c-3.4-0.5-6.2-1.7-8.6-4.2c-1.5-1.7-2.2-3.7-1.2-5.9c0.5-1.5,1-3,1.5-4.5
		c1.3-3.5,2.7-6.9,4-10.3c-0.3,0-0.5,0.2-0.7,0.3c-0.2,0.3-0.3,0.7-0.5,1.2c-3.4,7.9-6.2,15.8-8.4,24c-0.7,2.2-0.7,4.4,0.7,6.4
		c0.5,0.8,1,1.7,1.3,2.7c0.7,3.2,1.3,6.6,2,9.7c0.2,0.7,0.2,1.3,0.2,2.2c-0.5-0.3-0.8-0.7-1.2-0.8c-2.3-1.3-4.7-2.7-6.9-4.2
		c-2.9-1.7-5.7-3.5-8.6-5.4c-2.2-1.3-4.5-2.7-7.2-1.3h-0.2c-1.7,0.3-3.5,0.5-5,0.8c-6,1.7-12.1,3.5-18.1,4.7
		c-2.2,0.3-4.5,0.7-6.7,0.2c-1.3-0.3-2.5-0.7-3.9-0.7c-2.2-0.2-4.4-0.8-6.2-2c-4-2.5-8.1-5-12.1-7.6c-0.7-0.3-1.3-0.7-1.8-1
		c0,0.2-0.2,0.2-0.2,0.3c0.2,0.2,0.3,0.3,0.7,0.5c3.4,2,6.5,4.2,9.9,6.2c2,1.2,4.2,2.5,6.4,3.4c1.5,0.7,3.4,0.7,5,1
		c2.2,0.5,4.5,1,6.7,0.7c3.4-0.5,6.5-1.2,9.7-2c3.5-0.8,6.9-2,10.4-3c2.3-0.7,4.7-0.8,7.2-1.3c0.5,0,1-0.2,1.3,0
		c1.3,0.5,2.7,1,3.9,1.7c2.9,1.7,5.7,3.5,8.4,5.2c2.5,1.5,5,3,7.6,4.5c0.8,0.5,1.2,1.2,1.2,2.2c0,1.7,0.2,3.4,0.3,5
		c0,2.2,0,4.4,0,6.6c-0.3,0-0.7,0-0.8,0c-2-0.5-4-0.8-6-1.3c-1.8-0.5-3.2-1.7-3.7-3.5c0.5-0.3,1.2-0.7,1.7-1.2
		c0.5-0.5,1.2-1,1.7-1.5s0.8-1,1.3-1.5c-0.2,0-0.3,0-0.3,0c-0.2,0-0.2,0.2-0.2,0.2c-1,1.5-2.5,2.7-4,3.5c-1.2,0.5-2,0.5-2.7,0.5
		c-0.8,0-1.5-0.3-2.3-0.5c-0.3-0.2-0.8-0.3-1.3-0.5c2-0.7,4.5-4.9,4.4-6.7c-0.5,1.2-1,2.4-1.5,3.5c-1,1.8-1.7,2.7-2.7,2.9
		c0.3-1.2,0.7-2.4,1-3.4c0.3-0.8,0.2-1.8-0.5-2.7c0.7,1.7,0.5,3-0.3,4.4c-0.2,0.2-0.2,0.3-0.2,0.5c0.2,1.2-0.5,2-1.2,3
		c-0.3,0.5-0.8,1-1.2,1.5l0.2,0.2c0.7-0.8,1.3-1.5,2-2.4c2,1.3,1,3,0.3,4.5c0.2-0.3,0.5-0.7,0.7-0.8h0.2c0,0.8,0.3,1.7,0,2.4
		c-0.8,1.7-1.8,3.5-3.2,4.9c-1.3,1.5-3.2,2.5-4.7,4c-1.2,1.2-2.2,2.5-3.2,3.9l0.2,0.2c0.2-0.3,0.5-0.5,0.7-0.8c1-1.7,2.3-3,3.9-4.2
		c2.3-1.5,4-3.5,5.5-5.9c0.8-1.5,1.5-2.9,0.8-4.7c-0.2-0.2,0-0.5,0-0.8c0-0.7,0-1.3,0-2c0.2,0,0.5,0.2,0.8,0.2
		c0.8,0.2,1.8,0.5,2.7,0.5c0.5,0,0.8,0.2,1,0.7c0.7,1.5,1.8,2.4,3.4,2.9c0.7,0.2,1.3,0.3,1.7,0.5c0.2,1.7,0,3.4,0.3,5
		c0.5,2.7,0,5-2.3,6.7c-1.5,1-1.7,2.4-1.3,4c0.2-0.5,0.2-1.2,0.2-1.7c0-1,0.7-1.5,1.3-2c0.3-0.2,0.8,0,1.2,0c0.2,0,0.5,0.2,0.7,0.2
		c1.7,0.3,3.5,0.8,5.2,1.3c0.3,0,0.7,0.5,0.7,0.8c0,3.5,0,7.1,0,10.8c-1-0.7-2.3-0.8-3-2c-0.2-0.2-0.2-0.3-0.3-0.5
		c0,0.2-0.2,0.3-0.3,0.5c0.2,0,0.2,0.2,0.3,0.3c-0.7,0.2-1.2,0.3-1.7,0.3c-0.3,0-0.7-0.3-0.8-0.5c-0.2-0.2,0-0.5,0.2-0.7h0.2
		c0-0.2-0.2-0.3-0.2-0.3c-0.2,0-0.5,0.2-0.7,0.3l-0.2,0.2c-1.2-0.2-2.3-0.3-3.5-0.5c-0.2-1.3-0.3-2.7-0.7-4
		c-0.2,0.3-0.2,0.7-0.2,0.8c0.2,0.7,0.2,1.3,0.3,1.8c0.3,1.2,0,1.8-1,2c-1,0.2-1.8,0.2-2.9,0.2c-1,0-2-0.2-3.2,0.2c-1,0.5-2,1-3,1.2
		c-1.2,0.2-2.5,0.5-3.7-0.2c-2.5-1.5-5.2-2.9-7.9-4c-6.4-3-12.6-6.6-20-7.2c-1.8-0.2-3.9-0.2-5.7,0c-2.2,0.2-4.4,0.5-6.5,0.7
		c-1.7,0.2-3.4,0.3-4.9,1c-1.3,0.5-2.9,1.3-4.2,1.7c-2.9,0.8-5.7,1.3-8.4,2c-1,0.2-1.8,0.5-2.9,0.3c-4.5-1.3-8.4-3.9-12.4-6.2
		c-5.4-2.9-10.6-6-15.9-8.9c-7.2-3.9-14.8-7.2-22.5-10.3C8.1,98,4.7,96.7,1.2,95.5c-0.2-0.2-0.5,0-0.8,0c0,0.2,0,0.2,0,0.3
		c0.5,0.2,1,0.3,1.5,0.7c14.9,5.4,29.5,11.9,43.3,20c3.9,2.2,7.6,4.4,11.6,6.6c1.7,0.8,3.5,1.5,5.4,2.4l-0.2,0.2
		c-5.4,1.5-10.1,4.5-14.9,7.2c-4.9,2.9-9.7,5.9-14.4,8.6c-5.7,2.7-11.4,5.9-17.5,8.2c-0.2,0-0.2,0.3-0.3,0.5
		c5.2-1.8,9.9-4.4,14.6-7.1c7.4-4.2,14.6-8.6,22-13.1c5.4-3.2,11.2-5.2,17.3-6.6c2.9-0.5,5.9-1.2,8.4-2.5c1.7-0.8,3.4-1.2,5.2-1.3
		c2.3-0.2,4.5-0.3,6.9-0.5c3.5-0.3,7-0.3,10.6,0.8c8.9,2.9,17.1,7.1,25.2,11.6c0.8,0.5,1.7,1,2.7,1.5l0.2-0.2
		c-0.5-1-1.8-1.2-2.5-1.8c0.3,0,0.7-0.2,1-0.2c1.2-0.3,2.3-0.7,3.5-1c0.7-0.2,1.3-0.5,2-0.5c1.2,0,2.3,0.3,3.4,0
		c1.7-0.5,3.2,0,4.9,0.3c2,0.5,4,1,6.2,1.5c0.7,0.2,1.3,0.3,1.3,1c0,0.3-0.3,0.8-0.5,1.2c-0.5,0.7-1,0.7-1.5-0.2
		c-0.5-0.5-0.8-1.2-1.3-1.5c-0.5-0.5-1.2-0.7-1.8-0.2s-0.8,1.2-0.5,1.8c0.3,0.5,0.8,1,1.2,1.5c0.3,0.3,1,0.7,0.8,1.5
		c-0.7,0-1.7-0.5-1.8,0.5c-0.2,0.5,0.2,1,0.3,1.5c0.2,0,0.3,0,0.3-0.2c0-0.2,0-0.3-0.2-0.7c0-0.3,0-0.5-0.2-0.8c0.2,0,0.5,0,0.7,0
		c0.3,0,0.8,0,0.8-0.2c0.2-0.3,0.2-0.8,0-1.2c0-0.3-0.3-0.5-0.7-0.7c-0.5-0.5-1-0.8-1.3-1.2c-0.3-0.5-0.3-1,0.2-1.3
		c0.5-0.5,1-0.2,1.3,0.2c0.5,0.5,0.8,1,1.3,1.5c0.7,0.8,1.5,1,2,0.5c0.5-0.5,1-1.2,1.3-1.7c-0.2-0.2-0.5-0.3-0.5-0.5
		c0-0.5,0-1,0-1.5c0-4.7-0.2-9.4-0.2-14.3c0-2.5,0-5,0-7.7c0-2.5-0.3-4.9-0.3-7.4c0.2-2.9-0.2-5.7-0.5-8.4c-0.2-2.4-0.5-4.7-0.8-7.1
		c-0.3-2-0.8-3.9-1.2-5.7c3.4,2.5,7.4,3.2,11.4,2.7c-0.5,1-1.2,1.8-1.7,2.9c-1.2,2.5-1.8,5.4-2,8.1c-0.2,3-0.3,6-0.5,9.1
		c0,1,0,1.8,0,2.9c0,1.2-0.2,2.4-0.3,3.5c-0.2,3.2-0.3,6.2-0.3,9.4c-0.2,4.5-0.2,8.9-0.3,13.4c0,0.7,0.2,1.2,0.8,1.7s0.7,0.5,1-0.2
		c-1.3-0.5-1.3-0.5-1.3-2s0.2-3,0.2-4.5c0-0.8,0.2-1.5,0.7-2c0,0,0-0.2,0-0.3c-0.2,0.2-0.3,0.3-0.7,0.5c0.2-1.2,0.2-2.2,0.3-3.2
		c0.2,0,0.3,0,0.5,0.2c3.9,1.5,7.9,2.9,11.7,4.4c3.4,1.2,6.7,2.5,10.2,3.7c2.5,0.8,5.2,1.3,7,3.5c0,0,0.2,0,0.3,0
		c-0.7-1.5-2-2-3.2-2.9c0.5-0.3,1.2-0.5,1.5-1c0.7-1,1.3-2.2,1.8-3.4c0.3-0.7,0.3-1.3,0.2-2c-0.2-1.7-1.3-2.7-2.7-3.5
		c-2-1.3-4-2.5-6-3.5c-2.9-1.5-5.9-2.7-8.6-4.2c-3.5-2-7-3.9-11.1-5.2c-0.5-0.2-1-0.3-1.7-0.7c1.2-0.5,2.5-0.7,3.2-1.8
		c-1,0.3-1.8,0.8-3,1.2c0.2-2.9,0.3-5.4,0.5-8.2c1.2,0.8,2.2,1.3,3,2.2c1,0.8,1.8,1.7,1,3c0,0,0,0.3,0.2,0.5c0.2,0,0.3-0.2,0.5-0.2
		c0.7-0.8,0.5-2-0.3-2.9c-1.2-1-2.3-1.8-3.5-2.9c-0.3-0.2-0.5-0.5-0.5-0.8c0-1,0.2-2,0.2-3c0.2-2.4,0.5-4.7,1.5-7.1
		c0.8-2,1.7-4,3.9-5c1.8-0.8,2.9-2.4,3.5-4.2c1.2-3.7,2.2-7.6,3.4-11.3c4.4-12.3,9.6-24,18.1-34.3c2.5-3,5.2-5.5,8.4-7.7
		c2.3-1.7,4.9-2.9,7.6-3.7c0.2,0,0.3-0.3,0.5-0.5C199.7,19.5,199.6,19.5,199.6,19.4z M140.7,129.3c-1.3-0.3-2.7-0.7-4-0.8
		c0-0.2,0-0.2,0-0.3c1.3,0.2,2.7,0.2,4,0.3V129.3z M145.9,130.6c-0.8-0.2-1.7-0.3-2.7-0.7c1.2-0.7,1.8,0.3,2.7,0.3
		C145.9,130.4,145.9,130.4,145.9,130.6z M147,107.4c0,2.7,0,5.2,0,7.9c0,1.2,0,2.4,0,3.7c-2.3-0.5-4.7-1.2-7.4-1.7
		c2.5-2.2,2.3-4.7,2-7.4c-0.2-1.5-0.3-3,0-4.2c1.7,0.3,3.2,0.5,4.9,0.8C146.7,106.6,147,107.1,147,107.4z M152.3,108.6
		c0-0.5,0.2-1,0.2-1.5c3.4,1.3,6.9,2.4,10.1,4.2c3.9,2.4,8.1,4,12.1,6.2c1.8,1,3.7,2,5.4,3.4c2,1.7,2.5,2.9,1.3,5.4
		c-1.2,2.7-2.2,3.4-4.4,3.2c-0.8,0-1.8-0.2-2.5-0.5c-3.4-1.2-6.5-2.4-9.9-3.5c-3.9-1.3-7.7-2.9-11.7-4.2c-0.7-0.2-0.8-0.5-0.8-1
		C152.1,116.3,152.1,112.5,152.3,108.6z M162.2,74.1c-0.3,0.8-0.5,1.8-0.7,2.7c-0.7,2.9-2.7,4.4-5.4,4.9c-3.9,0.7-7.4,0-10.6-2.4
		c-2.3-1.7-3.5-4-2.9-7.1s1.7-5.9,2.3-8.9c2,6.7,12.4,9.6,18.3,6.7C162.8,71.6,162.5,72.8,162.2,74.1z"/>
	<path class="st0" d="M166.3,147.4c1,1,2,2,2.9,3c1.7,2.2,1.3,5.9-0.3,8.1c-0.2,0.2-0.5,0.5-0.7,0.7c-1.8,0.8-3.5,2.5-5.7,2.9
		c-1.5,0.2-3,0.3-4.4,0.5c0-0.2,0-0.2-0.2-0.3c0.2-0.2,0.5-0.3,0.7-0.3c1.3-0.2,2.7-0.3,4-0.5c1-0.3,2-0.8,3-1.2c0,0,0-0.2-0.2-0.2
		c-1.7-0.3-3.4-0.5-5-0.8c-1.5-0.3-1.5-0.3-1.2-1.8c0.5-2.5,0.7-4.9,0.5-7.4c0-0.7,0.2-0.8,0.8-1c1.8-0.7,3.9-0.5,5.9,0
		c-1.7-1.3-3.4-2.5-5.2-3c-3.2-0.8-6.4-1.7-9.7-2.2c-2-0.3-4-0.2-6.2,0c-1.3,0-2.5-0.3-3.5-1.2c-3.5-2.4-7.2-4.5-10.7-6.9
		c-0.7-0.5-1.5-0.8-2.2-1.3c-0.2-0.2-0.3-0.2-0.5-0.3c0,0,0-0.2,0.2-0.2c0.3,0.2,0.7,0.2,1,0.3c3.2,2,6.5,4,9.7,6
		c1.2,0.8,2.3,1.7,3.7,2.4c0.7,0.3,1.5,0.5,2.2,0.5c2,0,3.9,0,5.9,0c0.5,0,0.8,0,1.3,0.2c1,0.3,2,0.3,3-0.3c0.3-0.3,0.8-0.3,1.3-0.5
		c1-0.3,2-0.8,2.7-1.8c1.2-1.5,2.7-2.9,4-4.4c-1.3-0.5-2.9-0.2-4.2-1.2c1.7,0.3,3.2,0.5,4.9,0.8c0.2,0,0.5,0,0.8-0.2
		c1.7-1,3.5-1.5,5.4-1.3c2,0.2,3.9,0.7,5,2.7c2.2-0.8,4.4-0.7,6.4,0.5c0.3-1.3,0.3-2.5,0-3.9c0.2,0.2,0.3,0.3,0.3,0.3
		c0.2,1,0.3,2.2,0.2,3.2c-0.2,1,0.3,1.2,1,1.5c1.2,0.5,2.3,1,3.4,2c1.7,1.8,1.8,3.5,0,5.4c-2.3,2.4-4.7,4.7-6.9,7.2
		c-2.2,2.4-4.4,4.9-5.4,8.1c-0.5,1.7-0.7,3.4-0.8,5.2c-0.2,2.2-0.2,4.4-0.2,6.6c0,0.7-0.5,1.3-0.8,2c-0.2,0.2-1,0.2-1.3-0.2
		c-0.7-0.5-1-0.2-1.2,0.5c-0.2,0.8-0.3,1.8-0.3,2.9c0,2,0,4,0,6c0,0.8-0.3,1.7-0.5,2.5c-0.3,1-1.2,1.2-2,0.5
		c-0.2-0.2-0.3-0.3-0.8-0.5c-0.2,0.7-0.2,1.3-0.2,1.8c0,0.5,0,1,0,1.3c0,1-0.7,1.8-1.5,1.8c-0.8,0-1.7-0.7-1.7-1.8
		c0-1,0.2-2.2,0.2-3.2c0-0.8-0.2-1.7-0.5-2.5c-0.2-0.5-0.7-0.8-1.3-0.5c-1.3,0.5-1.7,0.5-2.3-1c-1.2-2.5-3-4.5-5.7-5.7
		c-2.9-1.3-5.7-0.5-7.4,2c-0.2,0.2-0.3,0.5-0.5,0.7c-0.8,1-1.3,1.2-2.5,0.7c-1.2-0.5-2.5-0.7-3.9-0.2c-0.7,0.2-1.2,0.7-1.7,1.2
		c-2.5,1.8-4.7,3.9-6,6.7c-0.5,1-1.2,2.2-1.7,3.4c-0.3,0.7-0.7,1.2-1.3,1.7c1.3-3.2,2.7-6.4,5.2-9.2c-0.7,0-1.2,0.2-1.8,0.2
		c-1,0-2-0.2-2.9-0.3c-0.3,0-0.7-0.2-1,0c-2.3,1.5-4.9,1.3-7.4,0.7c-2.7-0.8-4.9-2.5-7.4-3.9c-3.9-2.2-7.6-4.4-11.4-6.4l0,0
		c1.2,1.5,2.2,3.2,3.4,4.7c0.5,0.7,0.7,1.3,1.2,2c0.2,0.3,0.8,0.7,1.2,0.5c2.3-0.3,3.7,0.7,4.2,3c0.3,2,0.5,4,0.7,6
		c0.2,3.2,0.3,6.4,0.5,9.4c0.2,1.3,0.5,2.5,0.8,3.9c0.3,1.2,0.8,1.3,2,1c0.8-0.2,1.3,0.3,1.5,1c0.5,1.3,0.8,2.7,1.2,4
		c0.2,0.7,0.5,1.3,0.8,2.2c1.2-1.2,1.3-2.4,1.5-3.5c0.5-3.2,0.7-6.6,1.2-9.7c0.2-1.2,0.5-2.4,0.7-3.5c0.2,0,0.2,0,0.3,0
		c0,0.3,0.2,0.5,0,0.8c-0.3,2.2-0.5,4.5-0.8,6.7c-0.3,2.5-0.7,5-1,7.6c0,0.5-0.2,1-0.5,1.3s-0.8,0.8-1,0.8c-0.3,0-0.8-0.5-1-1
		c-0.3-1.2-0.7-2.4-1-3.7c-0.2-0.5-0.2-0.8-0.3-1.2c-0.5-1.2-0.7-1.2-1.8-1c-0.5,0-1.3-0.3-1.5-0.7c-0.5-1.2-1-2.5-1.2-3.7
		c-0.3-3.5-0.5-7.2-0.8-10.8c-0.2-1.8-0.3-3.9-0.7-5.7c-0.2-0.7-0.5-1.3-0.8-1.8c-0.7-0.8-1.5-1.2-2.5-0.8c-1,0.3-1.7-0.2-2.2-1.3
		c-0.7-1.3-1.3-2.5-2.2-3.7c-1.3-2-3.2-3.7-5.4-4.7c-4.4-2.2-8.7-4.2-13.1-6.2c-2.3-1-4.9-1.5-7.6-1.7c-0.8,0-1.8-0.3-2.7-0.5
		c-0.8-0.2-1.8-0.3-2.7-0.3c-0.2,0-0.5,0.3-0.7,0.5c-0.3,0.3-0.8,0.8-1.2,1.2c-0.2,0.2-0.3,0-0.5,0c1-1.3,2.2-2.7,3.2-4
		c1.7-2.5,2-5.4,1.7-8.2c0-0.5,0-1,0-1.3c0-0.2,0.2-0.3,0.3-0.5c0.7,4.4,0.5,8.4-2.5,11.9c1.5,1,3.2,0,4.2-1.3
		c1-1.5,1.5-3.2,1.7-4.9c0.2-1.2,0.2-2.4,0.2-3.7c-0.2-2.2-0.5-4.5-0.8-6.7c0-0.5-0.2-1.2-0.3-1.7h0.2c0.2,0.8,0.3,1.5,0.3,2.4
		c0.3,2.4,0.7,4.5,0.8,6.9c0,1.7-0.3,3.5-0.7,5.2c-0.3,1.8-1.2,3.4-3.2,4.5c1,0.2,1.8,0.3,2.5,0.3c4.4,0.2,8.4,1.7,12.3,3.7
		c6.4,3.4,12.9,6.6,19.3,9.9c3,1.5,5.7,3.5,8.6,5.2c2,1.2,4.2,2,6.5,2c1.3,0,2.9-0.3,4.2-1.3c-5.5-2.7-10.9-5.2-16.3-7.7v-0.2
		c0.7,0.3,1.3,0.5,2,0.8c4.7,2.2,9.2,4.4,13.9,6.7c2.2,1,4.4,1.3,6.5,0.3c0.8-0.3,1.8-1,2.5-1.7c3.7-3.9,8.7-5.4,13.6-6.9
		c1.7-0.5,3.5-1,5.2-1.7c1.7-0.8,3.2-1.8,4.7-2.9c0.8-0.5,1.5-1.2,2.3-1.7c2.5-1.2,4.5-2.9,6-5.2c0.2-0.3,0.5-0.5,0.7-0.7
		c1-0.8,2-1.7,3-2.7c2-1.8,4-3.7,6-5.7c1.7-1.7,3.5-3.5,5.2-5.2c1-1,2-2.2,3-3.2c1.8-2,0.8-3.7-0.8-4.9c-2-1.5-4.4-1.7-6.9-1.2
		c-2.9,0.7-5,2.4-7.2,4C169.9,144.4,168,146.1,166.3,147.4z M139.8,178.5c0,0.2,0.2,0.2,0.2,0.3c0.7,0,1.3,0,1.8,0
		c0.7,0.2,1.2,0.5,1.8,0.5c0.3,0,0.8,0,1-0.2c0.3-0.3,0.7-0.7,1-1.2c1.5-2.7,5.2-3.4,7.9-2.2c2.9,1.2,4.7,3.4,6,6
		c0.5,1.2,0.7,1.2,1.8,0.7c0.8-0.3,1.5,0,1.8,0.7c0.5,1,0.8,2,0.5,3.2c-0.2,0.8-0.2,1.8-0.2,2.9c0,0.7,0.7,1.3,1.2,1.3
		c0.7-0.2,1-0.7,1-1.3c0-0.8,0-1.7,0-2.5c0-0.3,0.3-0.8,0.7-1c0.3-0.2,0.8,0.2,1,0.3c0.7,0.5,1,0.5,1.3-0.3c0.3-0.7,0.5-1.5,0.5-2.2
		c0-2,0-4,0-6.2c0-1,0.2-1.8,0.3-2.9c0.3-1.2,0.8-1.3,1.8-0.8c0.5,0.3,1,0.2,1.2-0.5c0.2-0.3,0.2-0.7,0.2-1.2
		c0.2-2.7,0.2-5.5,0.3-8.2c0.2-1.5,0.7-3.2,1.2-4.7c0.3-1,1-2,1.7-2.9c-0.2-0.2-0.2-0.2-0.3-0.3c-0.8,1-1.7,2-2.7,2.9
		c-1,1-2,1.8-3.2,2.9c-0.5,0.5-1,0.8-1.3,1.3c-1.3,1.8-3,3.4-5,4.4c-1,0.5-2,1-2.9,1.8c-1.7,1.5-3.4,2.7-5.5,3.4
		c-3.5,1.2-7,2.4-10.6,3.5C143,177,141.3,177.8,139.8,178.5z M165,159.7c1.7-0.2,2.3-0.3,3.2-1.2c1.7-1.7,1.8-3.7,1.3-5.9
		c-0.3-1.5-1-2.9-2.5-3.4c-2-0.7-4-1-6.2-0.2c-0.5,0.2-0.8,0.5-0.8,1c0.2,2.5,0.2,5-0.5,7.4c-0.2,0.8,0,1.2,0.8,1.3
		C162,159,163.5,159.4,165,159.7z M155.3,143.6c1.8,0.5,3.4,0.8,4.9,1.2c0.7,0.2,1.2,0.3,1.7-0.3c0.5-0.5,1-0.8,1.7-1.2
		c1.5-0.8,3-1.7,4.5-2.4c2-1.2,4-2.2,6-3.4c0.3-0.2,0.7-0.3,1.3-0.5c-0.7-0.7-1.2-1.3-1.8-1.7c-1.7-0.8-3.4-1-5.2-0.5
		c-3,0.8-5.5,2.5-7.4,5c-1.2,1.5-2.3,2.7-4.2,3C156.1,143,155.8,143.2,155.3,143.6z M182.5,138.3c-1.7-1.2-3.2-1.8-5.2-1.5
		c-2.7,0.5-4.9,1.7-7.2,3c-1.5,0.8-3.2,1.7-4.7,2.7c-1.3,0.8-2.5,1.7-3.9,2.5c1.5,0.8,2.7,1.5,4,2.2c0.2,0,0.3,0,0.5,0
		c0.5-0.3,1-0.7,1.5-1c1.8-1.5,3.7-3.2,5.7-4.7C175.9,139.4,178.9,138.2,182.5,138.3z"/>
	<path class="st0" d="M128.4,158.7c-0.5,0.8-1,1.5-1.5,2.4l-0.2-0.2c0.3-0.5,0.7-1,1-1.5c0-0.2,0-0.2-0.2-0.3
		c-2.5,0.5-5,1.5-7.6,0.3c0.5,0.2,1.2,0.2,1.7,0.3c1.5,0.3,2.9,0,4.2-0.5c0.5-0.2,1-0.2,1.5-0.2c0.2,0,0.3-0.2,0.5-0.3
		c0,0,0-0.3-0.2-0.3c-1.7-1-3.2-1.7-5.4-1.3c-1.3,0.2-2.5,0.7-3.9,1c-1.5,0.5-3,0-4.5-0.3c-0.5-0.2-1-0.3-1.5-0.7
		c0.5,0.2,1.2,0.2,1.7,0.3c2,0.7,3.9,0.8,5.7-0.3c0.7-0.3,1.5-0.3,2.5-0.5c-0.5-0.2-0.8-0.3-1.2-0.5c-0.2,0-0.2-0.2-0.2-0.3
		c0.2,0,0.3-0.2,0.3-0.2c3.9,0.8,7.9,1.5,11.7,2.4c3.4,0.7,6.4,2.4,9.2,3.9c1.2,0.7,2.5,1.2,4,1.2c0.2,0,0.3,0.2,0.5,0.2
		c0,0.2,0,0.2,0,0.3c-0.3,0-0.8,0-1.2,0c-1.2-0.2-2,0.2-2.5,1.2c-0.5,1-0.7,2-1,3.2c-0.2,0.5-0.3,1.2-0.7,1.7
		c-0.5,0.8-1.3,0.8-1.8,0c-0.2-0.2-0.3-0.3-0.5-0.5c-0.2,0.2-0.5,0.5-0.7,0.7c-0.3,0.8-0.5,1.7-0.7,2.5c0,0.3-0.2,0.7-0.3,0.8
		c-0.3,0.5-0.8,1.2-1.2,1c-0.5,0-1-0.7-1.2-1.2c-0.3-1-0.5-2.2-0.7-3.2c-0.3-1.7-0.3-3.4-0.7-4.9c-0.2-1-0.5-1-1.2-0.3
		c-0.7,0.7-1.7,0.5-2-0.5c-0.3-0.8-0.3-1.8-0.5-2.7C129.6,160,129.3,159.2,128.4,158.7z M143.9,163.2c-5-3.2-10.6-5.2-16.6-6
		c0.3,0.2,0.5,0.3,0.8,0.5c1.2,0.8,2.2,1.8,2.3,3.4c0.2,0.7,0.2,1.3,0.3,2c0.2,1,0.8,1.2,1.5,0.5c0.7-0.5,1.3-0.5,1.7,0.3
		c0.3,0.7,0.5,1.3,0.5,2.2c0.3,1.8,0.5,3.9,0.8,5.7c0.2,0.5,0.7,1.2,1,1.7c0.3-0.5,0.7-1,1-1.5c0.3-1,0.5-2,0.8-2.9
		c0.3-0.8,1.2-0.8,1.8-0.2c0.2,0.3,0.3,0.5,0.7,0.8c0.2,0,0.2,0,0.3,0c0.3-0.7,0.7-1.3,0.8-2C142.2,165.9,142.4,164.2,143.9,163.2z"
		/>
	<path class="st0" d="M65.5,73.8c-0.3,0-0.5-0.2-0.8-0.2c-6.2-3.5-12.4-6.9-18.3-10.8C38,57.5,29.9,52,21.9,46.3
		c-3.5-2.5-6.7-5.4-10.1-8.1c-1-0.8-2-1.5-2.9-2.4c-0.3-0.3-0.5-0.7-0.5-1c17.6,15,36.9,27.6,57.2,38.7
		C65.7,73.5,65.5,73.6,65.5,73.8z M152.3,44.9c0.3-0.8,0.7-1.7,1.2-2.4c2.5-4.5,4.9-9.2,7.6-13.6c3-5,6.5-9.6,10.7-13.8
		c1.8-1.8,3.9-3.7,5.9-5.4c3.2-2.7,6.7-4.9,10.6-6.6c2-0.8,4-1.5,6-2.4c0.2,0,0.3-0.2,0.5-0.3c-0.2,0-0.3-0.2-0.7-0.2
		c0,0-0.2,0-0.2,0.2c-7.4,2.2-13.8,6-19.3,11.3c-4,3.7-7.6,7.7-10.7,12.1c-4.7,6.6-8.6,13.8-12.1,21.3
		C151.7,45.1,152.1,45.1,152.3,44.9z M38.6,193.3c0.3-0.3,0.7-0.7,1-1c4.9-4.7,9.9-9.4,14.8-14.1c4.7-4.5,9.4-9.2,14.8-13.3
		c-0.3,0-0.5,0-0.7,0c-3.7,2.7-7.2,5.7-10.4,8.9c-2.2,2.2-4.5,4.4-6.7,6.6c-4.2,3.9-8.2,7.9-12.4,11.8c-0.2,0.2-0.3,0.5-0.5,0.8
		C38.5,193.1,38.5,193.1,38.6,193.3z M36.6,194.8c-0.3,0.2-0.7,0.3-1,0.7c-2.7,2.7-5.4,5.5-8.1,8.2c-2.3,2.4-4.9,4.5-7.2,6.9
		c0.3,0.7,0.7,0.3,1,0c3.7-3.7,7.6-7.4,11.2-11.1c1.5-1.5,3-2.7,4.5-4.2C37,195.1,36.8,195,36.6,194.8z M119.9,214.8
		c0-0.2-0.7-0.2-0.7-0.2c-0.5,0.7-1,1.5-1.2,2.4c-0.2,0.7-0.3,1.7,0.5,2c0.3,0.2,1.2,0.3,1.5,0.2c0.5-0.3,0.7-0.8,1-1.3
		C120.7,216.7,120.4,215.6,119.9,214.8z M120.2,217.8c0,0.5-0.2,0.8-0.8,0.8s-0.8-0.3-1-0.8c-0.2-1,0.5-1.8,1-2.5c0.2,0,0.2,0,0.3,0
		C119.9,216.2,120.2,217,120.2,217.8z M163.3,196.8c0.2,0.8,0.7,1.2,1.5,1.2s1.3-0.7,1.3-1.3c0-0.3-0.2-0.8-0.2-1.2
		c-0.3-0.7-0.7-1.5-1.2-2.2C163.7,193.8,163,195.6,163.3,196.8z M165.3,196c0.2,0.3-0.2,0.8-0.3,1.3c0,0.2-0.7,0.2-0.7,0
		c-0.3-0.3-0.7-0.8-0.7-1.3c0-0.7,0.3-1.2,0.5-1.8h0.2C164.8,194.8,165.3,195.3,165.3,196z M153.1,136.2c0,0.5,0.2,1.2,0.8,1.2
		c0.5,0,0.8-0.2,1.3-0.3c1-0.5,1.3-0.5,2,0.5c-0.7,0.7-2.2,0.7-2.5,2c0.3-0.2,0.5-0.2,0.7-0.3c0.3-0.3,0.8-0.7,1.2-0.8
		c0.7-0.2,1.2-0.5,1-1.3c-0.2-0.8-0.8-1-1.5-1c-0.5,0-1,0.3-1.7,0.5c-0.2,0-0.7,0.2-0.7,0c-0.2-0.2-0.2-0.5-0.2-0.8
		c0-0.2,0-0.3,0.2-0.5C153.1,135.2,153.1,135.7,153.1,136.2z M131.8,117.3c-1.5,0.3-3,0.5-4.5,1c-0.7,0.2-1.5,0.7-2,1.3
		c-1.3,1.2-2.5,2.7-3.7,3.9c-0.5,0.7-1,1.2-1.5,1.8c0.8-0.7,1.5-1.3,2.2-2.2c0.8-1,1.8-1.8,2.7-2.9c1.2-1.7,2.9-2,4.7-2.4
		c0.8-0.2,1.5-0.3,2.3-0.7C131.8,117.3,131.8,117.3,131.8,117.3z M110.6,116.5c0.7,0.2,1.2,0.2,1.8,0.3c1.7,0.2,3.2-0.2,4.7-1
		c1.5-0.7,3-1.3,4.5-1.8c0,0,0-0.2-0.2-0.2c-1.2,0.5-2.3,1-3.5,1.3c-1.7,0.7-3.2,1.7-5,1.5c-0.8,0-1.7-0.2-2.5-0.3
		C110.8,116.3,110.6,116.5,110.6,116.5z M149.6,135.2c0.2,0.3,0.2,0.8,0.5,1c0.3,0.5,1.5,0.2,2.2-0.7c0.3-0.3,0.8-0.5,0.2-1
		c-0.3,0.3-0.5,0.7-0.8,1c-0.2-0.3-0.3-0.5-0.5-0.7l-0.2,0.2c0,0.3-0.2,0.5-0.2,1.2c-0.3-0.5-0.7-0.7-0.8-1
		C149.7,135.2,149.6,135.2,149.6,135.2z M147,155.5c0.2-1.3,0.5-2.7,0.7-4c-1.2,1.8-1.5,6.2-0.5,8.2
		C147.2,158.2,147,156.8,147,155.5z M155.8,133.3c0-0.3,0-0.8-0.2-1c-0.2-0.3-0.8-0.7-1-0.5c-0.5,0.3-1,0.7-1.5,1.2
		c0.2,0.2,0.2,0.2,0.3,0.3c0.3-0.2,0.5-0.5,0.8-0.7c0.3-0.5,0.7-0.3,1,0.2c0.2,0.2,0.2,0.5,0.2,0.7
		C155.6,133.3,155.6,133.3,155.8,133.3z M157.6,162c-1.3,0.2-2.5,0.3-4,0.7C154.9,163.2,157.3,162.7,157.6,162z M126.4,110.3
		c1.7-1.3,2.9-3.2,3.7-5C128.9,106.9,127.7,108.6,126.4,110.3z M141.5,98.3c-1.3,1.5-2.9,2.5-4.7,3C138.2,101.5,141,99.9,141.5,98.3
		z M123.7,192.6c0.8,0,1.7,0.2,2.3,0.2C125.1,192,124.6,192,123.7,192.6z M164,133.5c0.5-1.3,1-2.7,1.5-4.2h-0.2
		c-0.5,1.3-1,2.7-1.5,4.2C163.8,133.5,163.8,133.5,164,133.5z M155.4,134c0.5,1,1.7,0.3,2.2,1C157.6,134.5,157.6,134.5,155.4,134z
		 M67.7,75.2c0-0.8-1-1.5-2-1.2C66.3,74.5,67,74.8,67.7,75.2z M36.8,194.5c0.7-0.2,1.3-0.3,1.3-1.5
		C37.6,193.6,37.1,194.1,36.8,194.5z M166.7,116.5c-1.3,2.2-2.3,4.4-2.7,6.7C164.8,121,165.7,118.7,166.7,116.5z M152.8,114.5
		c0.3-1,1.2-2,1.7-3c-2.2,1.7-2.2,4.2-2,6.6C152.6,116.8,152.4,115.5,152.8,114.5z M160.8,150.8c0.8,2.5,0,4.9-0.7,7.1
		C161,155.7,161.6,153.3,160.8,150.8z"/>
</g>
</svg>
