<?xml version="1.0" encoding="utf-8"?>
<!-- Generator: Adobe Illustrator 21.1.0, SVG Export Plug-In . SVG Version: 6.00 Build 0)  -->
<svg version="1.1" id="Layer_1" xmlns="http://www.w3.org/2000/svg" xmlns:xlink="http://www.w3.org/1999/xlink" x="0px" y="0px"
	 width="200px" height="327.2px" viewBox="0 0 200 327.2" style="enable-background:new 0 0 200 327.2;" xml:space="preserve">
<style type="text/css">
	.st0{fill:#BBBBBB;}
	.st1{fill:#00BCD4;}
</style>
<g id="insect-bites-lady">
	<g>
		<path class="st0" d="M171.5,326.8c-0.4-7.4-0.7-14.9-1.1-22.1c-0.2-1.8-0.2-3.6-0.4-5.6c-0.5-4.3-0.7-8.9-1.6-13
			c-2.5-10.7-5.4-21.2-8.2-31.9c-0.2-0.4-0.2-0.7-0.2-1.1c-0.4-3.1-1.6-5.3-4.9-6c-2.7-0.7-5.3-2-7.8-3.1c-1.8,3.6-5.1,5.8-8.7,7.6
			c-3.6,2-7.1,4.3-10.7,6.3c-5.6,3.1-10.9,6.7-17.2,8.2c-0.7,0.2-1.4-0.4-2.2-0.7c0.5-0.5,0.9-1.3,1.4-1.4c1.1-0.5,2.4-0.9,3.4-1.3
			c4.9-1.4,8.7-4.5,12.9-7.1c1.6-0.9,3.3-1.6,4.9-2.5c2.9-1.4,5.8-2.9,8.5-4.7c1.8-1.3,3.3-3.3,4.7-4.9c-4.2-2.4-8-4.7-12-6.9
			c-5.3-3.1-10.5-5.6-16.3-7.4c-5.1-1.6-10-4-14.9-6.5c-3.3-1.8-6.9-2-10.3-2.4c-0.2,0-0.7,0.2-0.7,0.4c-1.6,2-3.4,3.8-4.9,6
			c-4.5,6.5-8.3,13.6-14.5,19c-1.1,1.1-2.4,1.8-3.6,2.7c-1.1,0.9-2.2,1.6-3.3,2.5c0,0.2,0.2,0.4,0.2,0.5c0.7,0,1.3-0.2,2-0.2
			c-0.4,1.3-2.4,2.5-3.6,2c-1.1-0.4-1.1-1.3-0.5-2c0.9-1.3,2-2.7,3.3-3.4c5.8-3.4,9.8-8.7,13.4-14.1c2-2.9,4-5.8,5.8-8.7
			c1.1-1.6,1.8-3.6,2.9-5.6c-2.5-0.9-4.9-2-7.2-2.7c-6.3-2-11.4-6-16.3-10.1c0,0,0,0-0.2-0.2c-2.7-2.4-3.1-2.2-3.8,1.3
			c-1.4,7.1-3.1,14-6.7,20.3c-5.3,9.2-8.2,19.2-11.2,29.4c-0.7,2.5-2,4.9-3.3,7.1c-1.8,3.4-2.5,7.1-3.1,10.9
			c-0.2,0.9-0.4,1.6-0.7,2.5c-0.5,1.3-0.4,2.4,0.2,3.8c0.5,1.6,0.5,3.4,0.4,5.3c-0.4,3.3-0.9,6.7-1.3,10c-0.2,1.1,0,2.4-0.4,3.4
			c-0.5,1.6,0,2.7,0.9,3.6c1.8,2.4,2.5,5.1,2.5,8c-0.2,3.3-1.3,6.3-4.3,8.3c-1.1,0.7-1.4,1.4-1.6,2.7c-0.4,1.4-1.1,2.9-1.8,4.3
			c-0.5,0-1.3,0-1.8,0c0.5-1.1,1.1-2.4,1.3-3.6c0.2-0.4-0.4-1.1-0.7-1.3c-2.7-0.7-5.3-1.4-8-1.8c-1.3-0.2-2.9,0.2-4,0.9
			c-3.4,2.2-10.1,0.5-11.8-3.6c-1.1-2.9-2.9-5.4-3.8-8.3c-1.3-4.2-0.2-8.5,1.3-12.3c1.8-7.2,4.5-14.1,8.2-20.7c1.1-2,1.4-4.7,2-7.1
			c0.5-2.7,1.1-5.4,1.6-8.2c0.4-2,0.4-4,0.7-5.8c0.5-3.4,1.3-6.9,1.8-10.5c0.4-2.5,0.2-5.1,0.5-7.6c0.7-6.7,1.4-13.4,2.2-20.1
			c0.4-2.7,1.1-5.3,2-8c1.1-3.4,2.4-6.7,3.3-10c0.9-3.3,0.9-6.7,0.4-10.3c-0.4-2.5-0.7-5.3-0.7-7.8c0-5.3-0.9-10.1-2-15.2
			c-0.7-2.9-1.6-5.4-3.4-7.8c-0.9-1.1-0.9-3.3-0.5-4.9c1.4-8.2,2.7-16.5,4.9-24.5c2.2-7.8,7.4-13.4,14.7-17.4
			c6-3.1,12.5-4.7,18.8-6.7c5.1-1.4,10.3-2.5,15.4-3.8c1.6-0.4,3.3-1.1,5.1-1.8c-2.9-3.6-5.8-6.7-8.2-10.3c-4-6-6.2-12.5-7.6-19.6
			c-1.1-5.1-1.8-10.3-4-15c-1.8-4-3.3-8.2-4.3-12.3c-0.5-2.2-0.2-4.9,0.4-7.1c1.6-7.2,5.3-13.8,9.6-19.8c4.2-6,9.8-10,16.1-13.4
			c1.3-0.7,2.7-1.1,4-1.1c6-0.2,12.1-0.5,18.1-0.4c5.3,0.2,10,2,14,5.6c2.5,2.4,5.1,4.9,7.2,7.6c1.6,2,2.5,4.5,3.8,6.7
			c2.2,3.8,4.7,7.4,5.4,12c0.5,3.3,0.9,6.7,1.3,10c0.4,2.7,0.5,5.4,0.7,8.2c0.2,1.4,0,2.9,0,4.3c0,4,0.2,8.2-3.3,11.1
			c-0.2,0.2-0.2,0.5-0.2,0.4c4.9,6.5,9.6,12.9,14,19.4c2.5,3.8,4.3,8.2,6.3,12.3c0.5,1.3,0.7,2.7,1.1,4.2c0.4,1.8,0.9,3.1,2.7,3.8
			c4.2,1.4,8.5,2.7,12.5,4.5c4.9,2,10.1,2.9,14.5,6c2.5,1.8,4.2,4.5,5.6,7.2c1.8,3.4,3.4,6.7,5.3,10.1c2.5,4.9,5.3,9.8,7.8,14.9
			c0.2,0.4,0.4,0.7,0.4,1.1c0.2,5.3,0.4,10.3-2.9,14.9c-1.1,1.6-1.6,3.4-1.6,5.6c0.2,4,0,8,0,12c0.2,6,0.7,12.1,0.7,18.1
			c0,3.4-0.7,6.9-1.1,10.3c-0.4,3.4-1.1,7.1-1.4,10.5c-0.4,5.6-2,11.1-3.6,16.5c-1.1,3.8-2.4,7.4-3.6,11.1c-0.5,1.3-1.3,2.7-2.2,3.4
			c-1.1,0.9-2.7,1.3-4.2,1.4c-4.2,0.5-8-1.1-12-2.4c-2.2-0.7-4.5-1.3-7.1-2c0.5,2.2,0.9,4.2,1.4,6c2.4,8.5,5.1,17,7.1,25.7
			c1.6,6.9,3.3,14,2.9,21.2c-0.2,4.7,0,9.2,0.4,14c0.4,3.8,1.3,7.4,1.8,11.2C173.5,326.8,172.4,326.8,171.5,326.8z M136.8,203.6
			c3.6-0.2,7.1-0.2,10.5-0.5c2.5-0.4,4.9-1.3,7.4-2c3.1-0.7,3.6-1.4,3.4-4.7c-0.2-4-0.5-7.8-0.4-11.8c0-5.1,0.4-10,0.7-15
			c0.2-3.3,0.5-6.5,0.9-9.8c0.2-2,0.9-4,0.5-6c-0.7-4.5-2-9.1-2.9-13.6c-0.5-2.9-0.9-6-1.3-9.1c0-0.5,0.4-1.1,0.7-2
			c1.8,9.2,3.8,17.9,5.6,26.6c0.2,0,0.4,0,0.5,0c1.3-8.9,2.5-17.6,3.8-26.5c1.1,2.5,1.4,5.1,0.9,7.8c-0.7,3.4-1.8,6.9-2.5,10.5
			c-0.2,0.9-0.2,2-0.2,3.1c3.3-7.6,7.8-14.3,12.9-20.7c0.2,0.5,0.2,0.9,0,1.3c-1.3,2.2-2.2,4.3-3.6,6.2c-4.5,5.6-7.2,12-9.4,18.7
			c-0.2,0.5-0.2,1.1-0.5,2.2c11.2-6.3,23.4-5.6,35.2-6.9c-2.5-4.7-4.9-9.4-7.2-14.1c-2.5-4.9-5.1-9.6-7.6-14.5
			c-1.4-2.9-3.4-5.4-6.5-6.9c-3.8-1.6-7.6-3.3-11.4-4.3c-5.6-1.6-11.2-3.1-16.3-6.2c-0.4-0.2-0.7-0.2-0.9-0.2
			c-0.5,1.3-1.1,2.5-1.4,3.6c-1.6,3.4-3.3,6.7-4.7,10.1c-2.5,6.7-5.6,13.2-11.4,17.8c-3.4,2.7-6.7,5.6-10.1,8.3
			c-3.1,2.5-6.3,4.9-9.4,7.2c-1.3,0.9-2.5,1.6-4,0.7c-1.3-0.9-2.7-1.6-4-2.5c-2.7-2.2-5.8-4.3-8.2-6.7c-3.3-3.3-6.2-6.7-9.2-10.1
			c-2.2-2.5-4.5-4.9-6.3-7.4c-2.4-3.3-4.3-6.9-6.3-10.3c-2-3.4-4-7.1-6-10.5c-0.4-0.5-0.9-1.3-1.4-1.3c-1.4,0-2.9,0.2-4.2,0.5
			c-6.5,1.8-12.9,3.6-19.2,6c-8.7,3.3-15.6,8.5-18.5,17.8c-2,6.2-3.6,12.7-4,19.4c0.5-0.4,0.9-0.4,1.3-0.7c2.7-2.7,5.8-4.9,9.8-5.3
			c2.2-0.2,4.7-0.7,6.5,0c4.9,1.8,10.5,1.4,14.7,5.4c-3.4-7.1-0.9-14.7-1.8-22.1c0.5,0.7,1.1,1.4,1.1,2.4c0.2,1.8,0.2,3.8,0,5.6
			c-0.4,5.4,0.9,10.5,2.9,15.4c0.2,0.5,0.4,1.3,0.5,1.8c0.2,0.5,0.5,0.9,0.9,1.4c0.2,0,0.4,0,0.5-0.2c-2.9-6.9-2.4-14.1-2-21.4
			c0.4,0.9,0.7,1.8,0.7,2.9c0.4,4.2,0.2,8.3,1.1,12.3c0.9,4.3,1.8,8.3,0.5,12.9c-0.7,2.4-0.7,5.1,1.4,7.2c3.1,3.1,6.3,6.2,9.4,9.1
			c1.1,1.1,2.4,1.8,3.6,2.9c2.9,2.7,6.3,5.1,8.7,8.2c2,2.5,3.8,5.1,6.5,6.5c4.5,2.5,8.3,6.3,13.4,7.6c4,1.1,8,2.2,12.1,3.3
			c0.5,0.2,1.3,0,1.8-0.4c1.8-1.4,3.8-3.1,5.6-4.5c1.4-1.3,2.7-2.5,4.2-3.8c0.4-0.4,1.3,0,1.8,0c-0.2,0.5-0.2,1.3-0.5,1.6
			c-2.9,2.7-5.8,5.3-8.7,7.8c-0.4,0.2-0.4,0.7-0.5,1.3c2.9,0.9,5.6,1.8,8.5,2.7c1.3,0.4,2.5,0.7,3.8,1.1c3.3,0.7,6.3,1.8,9.6,2.4
			c2.7,0.4,5.6,0.4,8.5,0.4c3.3,0,6.3,0,9.6-0.2c0.5,0,1.6-0.7,1.6-1.4c0.4-1.4,0.4-2.9,0.2-4.2c-0.2-2.4-1.1-2.9-3.4-2.2
			c-5.1,1.4-10.3,2.4-15.8,2C137.8,205.2,136.5,205.2,136.8,203.6z M53.3,194.2c-3.3,0-6.2,0-9.2,0c-0.4,0-1.1,0.4-1.3,0.5
			c-0.2,0.5-0.2,1.4,0.2,1.6c0.5,0.5,1.4,1.3,2.4,1.4c2,0.4,4,0.5,6,0.7c4.7,0.5,8.7,2.4,12.5,5.4c3.3,2.7,6.2,6,10.3,7.4
			c0.9,0.4,2,0.5,2.7,1.1c4.7,2.7,9.8,3.8,15,4.7c2.4,0.4,4.9,1.1,7.1,2c3.1,1.1,6,2.5,9.1,3.8c2.7,1.3,5.3,2.9,8,4
			c4.7,2,9.6,3.8,14.3,5.6c1.1,0.5,2.2,1.3,3.1,2c2.9,1.6,5.6,3.6,8.5,4.9s6,2,8.9,3.3c2.9,1.1,5.4,2.7,8.5,3.4
			c5.3,1.4,10.7,2.7,16.1,4c1.3,0.4,2.7,0.5,4,0.4c2.4-0.4,3.8-2.2,4.7-4.2c1.3-2.9,2.2-5.8,3.1-8.9c1.8-5.6,3.4-11.4,4-17.4
			c0.4-3.3,1.1-6.5,1.3-9.8c0.4-4.3,1.6-8.5,1.3-13c-0.5-8-0.4-15.8-0.5-23.7c0-1.8,0-3.8,0-5.6c0-1.3-0.2-2.7,0-4
			c0.4-3.3-0.4-6.3-2-9.1c-0.4-0.5-1.1-0.9-1.6-0.9c-3.3,0-6.5-0.2-9.8,0.4c-4.9,0.7-9.4,2-14,4.2c-2.5,1.1-4,2.4-4.9,5.3
			c-2.2,6.5-1.4,13.2-1.6,19.8c0,3.8,0.7,7.4,0.7,11.2c0,5.4-0.5,10.7-0.7,16.1c0,0.9,0.2,1.4,1.3,1.4c5.3-0.2,10.3,1.1,15.4,2.5
			c0.4,0.2,0.7,0.7,1.1,1.1c0,0.2-0.2,0.4-0.2,0.4c-0.5,0-0.9-0.2-1.4-0.2c-3.6-0.7-7.1-2-10.7-2.4c-9.2-0.7-18.5-0.7-27.5-1.6
			c-5.4-0.5-10.9-2.2-16.1-3.8c-6.3-2-12.7-4-19-6.5c-4-1.6-7.8-4-11.6-5.6c-4.3-2-7.4-5.1-10.1-8.9c-2.2-3.1-4.9-5.8-8-8.2
			c-2.9-2.2-5.6-4.5-8.3-6.9c-1.8-1.4-3.3-3.1-5.1-4.7c-0.9,1.1-1.8,2-2.7,2.9c-0.2,0.2-0.7,0-1.1,0c0.2-0.4,0.2-0.7,0.4-1.1
			c0.5-0.7,1.3-1.4,1.8-2.2c-1.1-0.4-1.6,0-2.4-0.2c-3.3-0.5-5.3,1.1-6.9,3.6c-0.5,0.9-0.9,1.6,0.5,1.6c5.6,0.7,10.3,3.6,15,6.3
			c0.4,0.2,0.7,0.7,0.9,1.3c-0.2,0.2-0.4,0.2-0.4,0.4c-2.7-1.4-5.4-2.7-8-4.2c-4.2-2.4-8.2-3.6-12.5-0.4c-1.4,1.1-2.7,2-3.1,3.6
			c-0.2,0.7,0.2,1.6,0.5,2c0.4,0.5,1.1,0.9,2.2,0.4c1.4-0.7,3.1-0.7,4.7-1.3c0.7-0.2,1.3-0.7,1.8-1.3c0.7-0.7,1.3-1.8,2-2.5
			c0.2,0.2,0.4,0.4,0.7,0.5c-0.5,0.9-1.1,2-1.4,2.7c1.3,0.4,2.4,0.5,3.4,1.1c3.3,1.6,6.5,3.3,9.8,4.9c0.4,0.2,0.7,0.9,0.9,1.4
			c-0.2,0.2-0.4,0.4-0.5,0.5c-3.8-2-7.6-4.2-11.4-6.2c-0.7,1.4-1.3,2.7-2,4.2c-0.2,0-0.4-0.2-0.5-0.2c0.4-1.4,0.5-2.7,1.1-4.7
			c-3.1,0.7-5.6,1.1-8.2,2.2c-0.9,0.4-1.6,2-2.2,3.1c-0.4,0.7-0.2,1.6,0,2.4c0.2,0.4,1.3,0.5,1.8,0.4c1.3-0.2,2.5-0.7,3.8-1.1
			c3.4-1.1,6.3-0.4,9.1,2c2.2,1.8,3.8,4.3,6.7,5.1c0.2,0,0.5,0.2,0.5,0.4c0.2,0.5,0.2,1.1,0.4,1.8c-2.7-3.3-6.3-1.6-9.2-2.7
			c-0.9,3.6-0.9,3.6-1.8,3.6C53.1,196.5,53.3,195.4,53.3,194.2z M129.6,52.1c0-0.2,0.4-0.4,0.5-0.9c1.1-2.4-0.4-4.5-2.9-4.5
			c-1.8,0-2.9,1.3-3.3,3.1c-0.4,1.6-0.5,3.3-1.1,4.9c-0.2,0.5-1.1,0.7-1.3,1.1c-0.5,1.3-0.7,2.5-1.3,3.6c-0.4,0.7-1.3,1.3-2,1.6
			c-0.4,0.2-1.1-0.7-1.4-1.3c-1.1-2.2-2.4-4.2-4.7-5.1c-1.4-0.5-3.3-0.9-4.7-1.4c-2.9-1.1-5.8-2-7.8-5.1c-1.6-2.5-3.4-5.4-6.3-7.1
			c-2-1.1-3.4-2.9-5.1-4.5c-1.8-1.6-1.8-4-0.4-6c0.4-0.5,0.7-1.3,0.9-2c0.4-2,0.5-4,1.3-5.8c0.9-2.7,2-5.3,3.3-8
			c0.7-1.8,2-3.4,2.9-5.1c0.2-0.5-0.2-1.4-0.2-2.2c-0.5,0.4-1.4,0.4-1.8,0.9c-1.8,2.7-3.6,5.3-4.9,8.2c-1.3,2.7-2.2,5.6-3.1,8.5
			c-0.5,1.6-1.1,3.3-1.4,5.1c-0.4,1.8-0.5,3.6-0.9,5.3c0,0.4-0.5,0.9-0.9,1.1c-2,0.9-4,2-6,2.5c-4,1.1-8,2.2-12,3.1
			c-4.2,0.9-7.6,3.3-6.2,8.3c0.7,2.9,1.4,5.8,2.2,8.7c0.4,1.4,1.1,1.6,2.4,1.8c2.5,0.4,4.9,0.9,7.2,1.4c0.4,0.2,0.7,0.9,1.1,1.4
			c-0.7,0.2-1.3,0.4-2,0.4c-2.2-0.4-4.3-0.7-6.3-1.1c-0.9-0.2-1.3,0.2-1.1,1.3c0.5,2.2,0.7,4.3,1.3,6.5c1.4,6.5,3.6,12.7,7.8,17.8
			c4.3,5.4,9.2,10.3,14,15.4c4.5,4.7,12.5,5.4,17.6,2c3.6-2.5,7.1-5.1,9.2-9.1c2.9-5.6,7.2-10.3,7.6-17.2c0.2-1.8,1.1-3.6,1.6-5.4
			c0.2,0,0.5,0,0.7,0.2c0,0.9,0,2-0.2,2.9c-0.4,1.6-0.7,3.3-1.3,4.9c-0.5,1.6-0.7,3.4-1.4,5.1c-1.1,2.4-2.5,4.5-3.6,6.7
			c-2,4.3-4.9,8.2-8.3,11.2c-4.7,4.2-10.5,5.3-16.5,3.8c-4.5-1.1-7.4-4.5-10.7-7.8c-0.4-0.4-1.1-0.9-1.6-0.7
			c-0.9,0.2-1.6,0.5-2.5,0.9c3.6,14,23.4,36.6,33.7,42.4c2.5-2,5.1-4,7.4-6c3.3-2.9,6.7-5.6,9.8-8.7c3.4-3.3,6.3-6.9,8.5-11.2
			c2.4-5.1,4.7-10.3,7.2-15.6c-7.1-2.5-13-6.2-15.6-13c-2.4-6.5-2.7-13.2-1.4-20.3c-3.3-0.7-3.3-3.3-2.2-6.3c0.5-1.4,0.9-2.7,0-4
			c1.1-0.5,2.2-0.7,2.9-1.3c0.7-0.5,0.5-5.4,0-6.3c2.7,0.9,3.1,1.3,3.3,4c0,0.5,0.2,1.3,0.2,1.6c-0.4,0.9-0.7,1.8-1.3,2.7
			c-0.5,0.9-1.3,1.8-1.8,2.7c-0.4,0.7-0.7,1.6-0.7,2.4c-0.2,0.5,0,1.3,0.2,2c0.7-0.4,1.4-0.4,2-0.9c0.5-0.5,0.9-1.6,1.4-2.4
			c2.4-2.2,2.2-4.9,1.8-7.8C130.5,54.6,130.1,53.5,129.6,52.1z M22.9,298c2.2-2,4.5-2.2,6,1.1c0.9-0.2,1.8-0.2,2.4-0.4
			c0.5-3.8,0.7-7.6,1.4-11.4c0.4-2,0.7-4,0-5.8c-0.2-0.5-0.4-1.3-0.4-2c0.2-1.6,0.7-3.1,0.7-4.7c0-3.8,1.4-7.4,3.1-10.7
			c2.7-5.4,4.7-11.1,6.3-16.9c1.3-5.1,2.9-10,5.6-14.5c2.4-4,4.2-8.3,5.8-12.7c0.9-2,1.1-4.3,1.6-6.7c0.5-2.7,1.4-5.4,1.8-8.3
			c0.4-3.6-0.2-4.3-4-4.9c-3.1-0.4-6.2-0.7-9.2-1.1c-2.2-0.4-3.4-2.2-3.3-4.3c0.2-1.8,1.4-2.7,4-2.5c3.4,0.2,6.7,0.5,10.1,0.7
			c0.5,0,1.1-0.4,1.6-0.5c-0.2-0.5-0.4-1.1-0.5-1.4c-2-2.5-7.8-2.9-11.1-0.9c-1.6,1.1-3.3,0.9-4.5-0.2c-1.1-1.1-1.3-3.3-0.4-4.7
			c0.5-0.9,1.3-1.8-0.2-2.7c-0.5-0.4-0.9-1.6-0.9-2.4c0.2-2.7,1.4-4.7,4-6c1.6-0.9,3.6-1.4,3.6-3.8c0-0.4,0.4-0.5,0.5-0.9
			c2-2.9,4.3-4.9,8.3-4.2c-0.2-3.3,0-6.3-0.7-9.4c-0.5-2.5-0.9-5.1-3.3-7.1c-2.2-1.8-4.3-3.1-7.1-3.4c-3.6-0.5-6.9-2.7-10.7-2.2
			c-4.2,0.4-8,1.4-10.7,4.9c-0.4,0.5-0.9,1.3-0.9,2c0,5.3-0.4,10.5,1.1,15.6c1.3,4.7,2,9.4,2,14.1c0,2.5,0.5,5.1,0.7,7.8
			c0.4,4.2,0.7,8.5-0.4,12.7c-1.3,4.5-2.7,9.1-4.2,13.6c-2.4,6.7-2,13.8-2.9,20.7c-0.7,6.3-0.7,12.7-2.2,19c-0.7,3.3-0.7,6.7-1.3,10
			c-0.4,2.4-0.9,4.7-1.4,7.1c-0.5,2.5-1.1,5.1-2,7.2c-2.2,4.9-4.5,9.4-6.7,14c0.7,0.5,1.4,0.7,1.6,1.3c0.9,1.6,1.3,3.4,0.9,5.4
			c-0.5,2.9-0.5,5.8-0.9,8.3c1.8,0,3.8-0.4,4.7,0.4c1.1,0.9,1.1,2.9,1.6,4.5c0.4-0.2,0.5-0.4,0.5-0.4c2.4-3.1,1.3-6.5,1.4-9.8
			c0-0.9,0.2-2,0.5-2.9c0.5-1.4,1.3-2.7,1.6-4.2c0.5-2.2,0-4.3-0.9-6.3c-0.2-0.4-0.5-0.7-0.5-1.1c0-0.2,0.7-0.5,0.7-0.5
			c0.4,0.2,0.9,0.5,0.9,0.9c1.4,3.8,1.8,7.6,0,11.4c-0.4,0.7-0.7,1.6-1.1,2.5c0.2,0.2,0.4,0.4,0.5,0.5C18.1,298.5,19.4,296,22.9,298
			z M73.4,102.3c-1.3,0.4-3.3,0.9-5.1,1.4c0.4,0.9,0.7,1.4,1.1,2.2c3.4,6.2,6.7,12.7,10.7,18.7c2.7,4.2,6.3,7.8,9.8,11.6
			c3.8,4.2,7.8,8.3,12,12.3c1.8,1.6,4.2,2.7,6.3,4.2c0-0.9,0.2-1.4,0.2-2.2c0.4-2.4,1.1-4.7-2.2-5.6c-0.2,0-0.4-0.2-0.4-0.4
			c-4.9-4.7-10.1-9.2-14.5-14.1c-4.3-4.9-8.3-10.3-12-15.8C76.9,110.8,75.4,106.6,73.4,102.3z M143.9,102.6
			c-0.4,1.1-0.9,2.2-1.1,3.1c-2.7,9.1-7.1,17.2-13.8,23.9c-0.7,0.7-1.6,1.4-2.5,2.2c-5.4,4.7-10.9,9.2-16.3,14
			c-0.4,0.4-0.5,0.9-0.5,1.4c-0.2,1.4-0.2,2.9-0.4,4.3c0,0.4,0.2,0.7,0.4,1.1c2.4-1.6,4.7-3.3,6.9-4.9c4.3-3.4,8.5-7.2,13-10.5
			c4-3.1,7.2-6.7,9.2-11.2c3.3-7.1,6.3-14.3,9.4-21.4C146.6,103.9,145.4,103.4,143.9,102.6z M10.7,317.6c-0.4-0.9-0.4-1.4-0.5-1.8
			c-0.2-0.5-0.5-1.1-1.1-1.3c-1.8-0.7-3.1-2.2-3.1-4c-0.2-3.4,0-6.9,0.2-10.3c0.2-2.7,0.9-5.4-1.1-8.2c-1.8,4.2-3.6,8.2-3.6,12.7
			c0,2.2-0.2,4.3,1.1,6.2s2.2,3.8,3.3,5.8c1.1,2,2.7,3.1,4.9,2.9c2.4-0.2,4.5-1.1,6.7-1.6c0.2,0,0.4-0.4,0.5-0.7
			c1.6-2.7,3.1-5.6,4.7-8.3c0.7-1.3,0.2-3.6-1.1-4.2c-1.4-0.7-2.5,0.2-3.4,1.4C15.8,310,13.4,313.6,10.7,317.6z M19.4,299.8
			c0.7,1.3,1.3,2.2,2,3.1c0.4,0.4,0.7,0.9,1.1,1.3c1.6,1.4,2.4,3.4,1.4,5.3c-0.7,2-1.6,3.8-2.5,5.8c-0.4,0.9-1.1,2.2,0.2,2.5
			c1.1,0.4,2.4,0.5,2.9-1.3c0.5-2.2,1.6-4.3,2.2-6.5c0.4-1.4,0.7-2.9,0.5-4.2c-0.5-3.8-4-5.1-6.5-7.4
			C20.1,299.1,19.6,299.6,19.4,299.8z M31.6,312.3c-0.2-2.2-0.2-3.8-0.7-5.1c-1.1-2.9-2.4-5.8-3.6-8.5c-0.2-0.5-0.9-0.9-1.4-0.9
			c-0.4,0-1.1,0.5-1.1,0.9s0.5,0.9,0.9,1.3c1.8,1.8,3.1,3.8,3.3,6.5c0,3.4-1.4,6.3-2.4,9.4c-0.4,1.1-0.9,2.2,0.7,2.7
			c1.3,0.4,2.5,0,3.1-1.3C30.8,315.6,31.2,313.6,31.6,312.3z M32.6,316.3c2.7-4.3,2.7-6.9,0-11.8c-0.5-1.1-0.7-2.2-1.3-3.3
			c-0.2-0.4-0.7-0.7-1.1-1.1c-0.2,0.2-0.4,0.4-0.5,0.4C32.3,305.6,33.2,310.7,32.6,316.3z M11.4,310.1c0-2-0.5-2.9-1.8-2.7
			s-2.5,0.4-2.5,2.2c0,1.6,1.1,3.4,2.2,3.4C10,313,11.6,311,11.4,310.1z"/>
		<path class="st0" d="M77.9,95.2c0.7-0.4,1.3-0.9,2-0.9c3.1-0.2,6-0.2,9.1-0.4c2.2-0.2,4.5-0.5,6.7-0.7c0.9,0,2.5-0.4,2.9,0.2
			c0.9,1.3-0.7,1.8-1.3,2.4c-1.6,1.4-3.3,2.9-5.1,4c-3.1,1.8-6.2,1.6-9.1-0.7C81.6,97.7,79.9,96.6,77.9,95.2z M92.6,97.7
			c-3.3,0-6.3,0-9.6,0C86.3,100.5,90.5,100.5,92.6,97.7z M95.9,95.2c-5.1,0-10,0-14.7,0c0,0.2,0,0.5,0,0.7
			C85.9,95.9,90.6,97,95.9,95.2z"/>
		<path class="st0" d="M86.3,80.3c1.4-0.4,2.9-0.9,4.2,0.5c1.1,1.3,2.9,2.7,2,4.2c-0.9,1.4-2.9,2.2-4.7,2.9
			c-1.3,0.5-2.5,0.5-3.8,0.9c-2.5,0.5-4.5-0.4-6.3-1.8c-1.3-1.1-1.1-2.7-0.7-4.3c0.5-3.6,0.9-7.4,1.1-11.1c0.2-2.7-1.6-4.5-3.4-6.5
			c0.4,0.2,0.9,0.4,1.3,0.5c3.3,2.9,3.3,6.7,2.9,10.5c-0.4,2.5-0.9,5.1-1.3,7.8c-0.2,1.3,0.2,2.5,1.4,3.1c1.6,0.7,3.3,1.6,5.1,0.9
			c1.6-0.7,3.1-2.2,5.3-1.6c0.4,0.2,1.4-1.1,1.6-2c0.2-1.1-1.3-2.7-2.4-2.7c-0.5,0-1.3,0-1.8-0.2C86.3,80.7,86.3,80.5,86.3,80.3z"/>
		<path class="st0" d="M83.4,62.2c0.5-0.4,0.9-0.9,1.4-1.1c2.5-1.6,5.4-2.2,8.3-2.2c1.4,0,2.9-0.2,4.3,0c0.5,0,0.9,0.7,1.3,1.3
			c-0.5,0.4-1.1,0.9-1.6,0.9c-3.4-0.5-6.5,0.7-9.6,1.6c-1.3,0.4-2.5,0.4-3.8,0.5C83.6,62.8,83.4,62.4,83.4,62.2z"/>
		<path class="st0" d="M87.6,68.4c0-0.7,0.2-1.4,0.2-2.4c1.1,0.7,1.8,1.3,2.7,1.6c2.5,1.1,4.9-0.2,7.1-1.3c1.4-0.7,2.9-1.1,4.5-1.4
			c-1.6,2.4-3.6,3.8-6.3,4.5C92.8,70.2,90.3,68.9,87.6,68.4z"/>
		<path class="st0" d="M74.7,69.1c-0.9,0.5-1.8,1.1-2.7,1.4c-2.4,0.7-4.5,0.9-6.7-0.7c-0.2-0.2-0.4-0.5-0.4-0.9c0.4,0,0.7-0.2,0.9,0
			c1.4,1.1,2.9,0.7,4.3,0.2c1.3-0.5,2.7-0.7,4-0.9C74.5,68.6,74.5,68.9,74.7,69.1z"/>
		<path class="st0" d="M23,294.6c0.2-2.2,1.3-4.2,2.7-5.6c2.7-2.5,2.2-5.4,1.3-8.3c-0.2-0.9-0.5-1.8-0.5-2.7
			c3.1,3.3,3.1,8.5,0.5,11.8c-1.1,1.3-1.6,2.9-2.5,4.2c-0.2,0.4-0.7,0.7-1.1,1.1C23.4,294.7,23.2,294.7,23,294.6z"/>
		<path class="st0" d="M35.7,202.5c1.1,0,1.6-0.4,2-0.2c2.5,1.6,5.3,3.3,7.6,4.7C43.9,208.1,42.2,207.4,35.7,202.5z"/>
	</g>
	<g>
		<path class="st1" d="M37.9,227.1c1.3,0,2.4,0.9,2.4,2.4c0,1.3-0.5,2.4-2,2.4c-1.4,0-2.2-0.7-2.2-2.2
			C35.7,228.2,36.6,227.1,37.9,227.1z"/>
		<path class="st1" d="M27.4,230.2c0-1.6,0.5-2.5,2-2.5c1.3,0,2.2,0.7,2.2,2s-0.7,2.2-2,2.2C27.9,232,27.4,231.1,27.4,230.2z"/>
		<path class="st1" d="M31.9,220.8c1.1-0.9,1.6-1.8,2.4-1.8c1.3-0.2,2.2,0.7,2,2c-0.2,0.9-1.1,1.4-1.8,2.2
			C33.7,222.4,33,221.7,31.9,220.8z"/>
	</g>
</g>
</svg>
