<?xml version="1.0" encoding="utf-8"?>
<!-- Generator: Adobe Illustrator 21.1.0, SVG Export Plug-In . SVG Version: 6.00 Build 0)  -->
<svg version="1.1" id="Layer_1" xmlns="http://www.w3.org/2000/svg" xmlns:xlink="http://www.w3.org/1999/xlink" x="0px" y="0px"
	 width="200px" height="144.1px" viewBox="0 0 200 144.1" style="enable-background:new 0 0 200 144.1;" xml:space="preserve">
<style type="text/css">
	.st0{fill:#BBBBBB;}
	.st1{fill:#F789B5;}
</style>
<g id="ringworm-leg">
	<path class="st0" d="M98.2,0.7c0.9,0,1.9,0,2.7,0c-1.1,1.7-2.3,3.5-3.1,5.3c-5,10.5-12.1,19.5-20.3,27.7c-1.9,1.9-1.5,3.2,0.8,4.4
		c1.6,0.9,3.1,2.1,4.5,3.3c2.9,2.5,5.7,5.6,10.2,4.8c3.1-0.5,6.1-0.8,9.3-1.1c2.5-0.3,5-0.5,7.6-0.7c1.7,0,3.5,0.4,5,0.3
		c0.5,0,1.5-0.9,1.6-1.5c0.5-1.6,0.7-3.3,0.9-4.9c0.4-2.4,1.1-4.9,1.3-7.3c0.7-5.7,1.3-11.5,1.7-17.3c0.1-2.4-0.4-4.8-0.8-7.2
		c-0.3-2-0.8-3.8-1.3-5.7c19.5,0,39,0,58.5,0c0.3,1.6,0.5,3.3,0.7,5c2.9-2,2.9-2,3.3-5c0.7,0,1.2,0,1.9,0c0.1,1.9,0.1,3.8-1.5,5.2
		c-3.6,2.8-7.3,5.3-10.7,8.2c-3.2,2.7-6.1,5.4-9,8.2c-4.9,4.8-9.6,9.8-14.7,14.3c-4.5,3.8-9.4,7.2-14.2,10.7
		c2.1,2.9,2.1,2.9,1.1,4.1c-2.4-2.3-4.9-4.2-8.6-3.7c-1.1,0.1-2.4-0.8-3.6-1.1c-0.9-0.3-2-0.8-2.8-0.4c-3.3,1.2-6.5,0.8-9.8,0.4
		c-2-0.3-4-0.3-6,1.6c0.7,0.4,1.1,0.8,1.5,0.9c2.9,0.9,6,2,9,2.8c2.9,0.7,4.9,2.9,3.6,5c-2,3.3-4,6.6-6.6,9.4
		c-4.1,4.2-6.4,9.2-7.8,14.6c1.6,1.5,2.7,1.5,3.7-0.5c1.2-2.1,2.7-4.1,4.1-6c0.9-1.2,2.1-2,3.3-3.1c0.3,0.3,0.5,0.4,0.8,0.7
		c-0.7,1.3-1.3,2.7-2.1,3.8c-1.5,2.7-3.3,5.2-4.5,7.8c-0.5,1.1-0.5,3.3,0.1,3.8c1.6,1.2,2.5-0.7,3.3-1.7c2.5-3.3,4.9-6.9,7.3-10.4
		c0.4-0.5,1.1-0.7,1.6-0.9c0,0.7,0.4,1.6,0,2.1c-1.6,2.9-3.5,5.7-5.2,8.5c-0.1,0.3-0.5,0.5-0.7,0.9c-0.3,0.4-0.4,1.1-0.5,1.7
		c0.9,0,2,0.5,2.7,0.1c1.2-0.8,2.3-2,3.1-3.2c1.7-2.7,3.3-5.4,5-8.1c0.4-0.5,1.3-0.7,2-1.1c0,0.8,0.1,1.6-0.1,2.3
		c-0.7,1.3-1.5,2.5-2.3,3.8c-0.7,1.2-1.3,2.4-2,3.7c2.9,0.3,4.1-1.6,5.2-3.2c2.4-3.3,4.5-6.9,6.8-10.4c1.1-1.6,2.9-2.9,3.7-4.6
		c2-4.1,4.4-7.8,7.7-10.9c5.8-5.4,12.2-10.2,19-14.3c7.6-4.5,14.6-9.6,20.4-16.1c3.5-3.8,7-7.6,10.4-11.4c0.7-0.8,1.2-2.1,1.1-3.1
		c-0.9-4.2,1.3-7.7,2.4-11.4c0.4,0,0.9,0,1.3,0c0,1.5,0.1,2.9-0.1,4.2c-0.3,1.7-1.2,3.5-1.2,5.2c0,3.2-0.4,5.8-2.8,8.4
		c-4.5,4.6-8.8,9.6-13.3,14.2c-1.9,1.9-4.2,3.3-4.1,6.2c0.1,2.7-0.1,5.7,1.2,7.7c1.9,2.9,2.4,6,2.7,9.2c0.7,8-0.7,15.8-2.7,23.5
		c-3.1,12.7-11.1,20.6-23.2,24.7c-2,0.7-2.5,1.5-2.5,3.5c0,6.5,0.8,13-1.2,19.2c-0.4,1.2-0.4,2.7-0.5,4c-0.1,4.5-0.3,9-0.4,13.7
		c-0.7,0-1.2,0-1.9,0c0-2.8-0.1-5.7,0-8.5c0-3.3-0.3-6.8,0.4-10c1.7-6.9,1.6-13.7,0.8-20.2c-13.8-2.4-27.6-4.6-41.4-7
		c0.1,1.2,0.3,2.7,0.5,4.1c1.1,7.2,1.7,14.5,4,21.4c2.1,6.5,3.2,13.3,3.6,20c-0.8,0-1.5,0-2.3,0c-0.3-1.9-0.7-3.6-0.9-5.4
		c-0.1-1.1,0.1-2.1-0.3-3.1c-3.5-11.9-6.1-24-7.3-36.4c-0.1-1.5-0.9-1.9-2-2.3c-3.1-0.9-6.2-1.7-9.3-2.9c-9-3.5-18.3-5.4-28-5.7
		c-2.9-0.1-6-0.3-8.9-0.4c-3.6-0.3-3.8-0.1-4.1,2.9c-0.4,6.8-2.1,13.1-4.6,19.2c-1.7,4.1-4.4,7.7-6.5,11.5c-2.4,4.2-4.6,8.8-7,13
		c-1.9,3.2-3.7,6.4-5.7,9.6c-0.7,0-1.2,0-1.9,0c0.3-0.9,0.3-1.9,0.7-2.7c1.1-2,2.3-3.8,3.3-5.7c2.4-4.4,4.5-8.8,7-13
		c2.9-5.3,7.3-9.8,8.6-15.9c1.2-4.9,2.8-9.7,3.6-14.6c0.8-4.6-0.1-9.3-2.5-13.5c-0.3-0.5-0.4-1.5-0.1-2c0.3-0.4,1.2-0.4,1.9-0.5
		c0.4,0,0.8-0.1,1.1,0c2.7,0.5,5.2,0.9,7.8,1.6c0.5,0.1,0.8,1.2,1.2,1.7c-0.1,0.1-0.3,0.4-0.5,0.5c-2.7-0.5-5.3-1.2-8.2-1.7
		c0.4,4.4,2.1,6.5,5.7,7c2,0.3,4.1,0.3,6.2,0.4c6.4,0.7,12.6,1.5,19,2.3c8.8,1.1,16.3,6.8,25.5,6.9c3.7,0,7.4,1.1,11.1,1.7
		c6.6,1.2,13.4,2.5,20,3.8c3.2,0.7,6.5,1.2,9.7,1.7c-6.5-8.8-11.1-18.2-15.1-28.5c-2.3,3.6-4.2,6.8-6.4,10c-1.7,2.7-3.6,5-7.4,4.8
		c-0.8,0-2,0-2.4,0.5c-2.3,2.4-4.4,2.9-7.8,0.4c-4,2-6.1,0.5-6.5-4.8c-0.5-0.1-1.1-0.4-1.6-0.7c-3.2-1.1-3.8-2.3-2.8-5.3
		c1.5-4.1,3.2-8,6-11.4c3.1-3.7,6-7.7,9.2-11.8c-0.9-0.5-1.6-0.9-2.3-1.2c-2.3-0.7-4.5-1.2-6.8-1.9s-4.5-1.3-5.4-4
		c-0.1-0.4-1.1-0.9-1.6-0.9c-1.6,0.3-3.3,0.7-4.9,1.1c1.1,1.1,2.1,1.7,3.3,1.9c1.7,0.3,2,1.2,2,2.7c-0.1,2-1.7,2.8-3.3,3.1
		c-4.1,0.7-8,0.1-11.3-2.9c-0.5-0.5-1.3-0.9-2-1.5c-1.6-1.1-2.7-0.1-3.2,1.1c-0.4,0.9-0.7,2.1-0.5,3.1c1.2,5,2.4,10.2,4,15.1
		c1.5,4.2-1.1,8.9-5.6,8.9c-2.3,0-4.6-1.2-7-0.1c-0.3,0.1-0.9-0.1-1.2-0.4c-1.6-1.1-3.1-2.3-4.6-3.3c-0.3-0.3-0.8-0.5-1.2-0.4
		c-2.8,0.9-4.1-0.9-5-2.9c-3.2-6.4-5-13.1-3.1-20.3c0.3-1.2,0-2.5,0-3.8c-0.8,0-1.6-0.1-2.1,0c-3.8,0.9-7.7,1.9-11.7,2.7
		c-2.3,0.5-4.6,1.2-5.8,3.3s-2.4,4.5-3.3,6.8c-1.9,4.8-3.5,9.6-5.3,14.3c-2.9,7.3-6.4,14.5-9,21.9c-4.8,13.8-8.5,28.1-14.9,41.4
		c-0.8,1.7-1.9,3.3-2.8,4.9c-0.1,0-0.3,0-0.4,0c0-0.9-0.3-2,0-2.8C2,136,4.2,131.1,6,126.1c3.2-9.3,5.7-18.7,9.2-27.9
		c5-13.5,10.5-27.1,15.9-40.5c2-4.9,5-8.5,10.9-9.2c3.7-0.4,7.4-1.6,11.1-2.5c0.8-0.3,1.9-1.1,2.1-1.9c0.8-1.9,1.2-3.7,1.6-5.7
		c0.4-1.7,0.3-3.8,1.2-5.4c2.5-4.4,3.3-9.4,5.2-14.1c2.7-6.6,6.5-12.7,9.8-19c1.1,0,2.1,0,3.2,0c-1.7,2.9-3.3,5.8-5,8.9
		c-1.9,3.3-3.8,6.6-5.4,10.1c-0.9,2.1-1.5,4.5-1.9,6.8c-0.8,4.5-3.6,8.1-4.6,12.6c-1.2,5.6-0.9,11.1-2.3,16.7s1.5,10.5,2.9,15.7
		c0.3,0.7,0.7,1.3,1.2,1.9c0.3,0.3,0.8,0.4,1.1,0.4c0.3,0,0.5-0.5,0.5-0.8c-0.4-2.1-0.3-4.6-1.6-6.1c-1.6-1.9-0.9-3.5-1.1-5.3
		c2.3,0.4,2.5,2.1,3.1,3.6c0.8,2.5,1.6,5.2,2.3,7.8c0.8,3.3,3.3,4.1,6.1,5.4c0-0.7,0.3-1.1,0-1.3c-1.2-2.1-2.8-4.1-3.7-6.4
		c-0.9-2.3-1.3-4.6-1.9-7c-0.1-0.4,0.5-1.1,0.8-1.6c0.3,0.4,0.8,0.8,0.9,1.3c1.2,4.5,2.8,8.8,5.8,12.5c1.3,1.6,3.1,2.5,4.6,2
		c-1.6-3.1-4-5.8-4.8-9c-0.8-3.2-2.7-6.5-1.3-10.1c2.9,5.7,3.3,12.7,8.5,17.4c1.5-0.8,1.3-2,0.8-3.5c-2.4-5.7-3.8-11.5-4.1-17.6
		c-0.1-2.3,1.2-4,2.9-4.8c0.9-0.5,2.7,0.4,4,0.8c0.7,0.3,1.3,1.1,2,1.5c1.6,0.9,3.2,2,4.9,2.4c2.1,0.5,4.4,0.7,6.2-1.6
		c-0.7-0.3-1.1-0.5-1.6-0.7c-6.2-2.3-11.9-5.4-16.5-10.5c-0.5-0.7-1.5-1.1-2.3-1.3c-2-0.5-3.2-2-3.8-3.8c-0.8-2.1-3.2-3.2-5.3-2.5
		c-0.7,0.3-1.5-0.3-2.3-0.4c0.5-0.5,0.8-1.3,1.5-1.7c2.5-1.3,4.6,0,7,1.6c4.5-5.3,9-10.4,13.3-15.3c-2-2.8-3.8-5.2-5.4-7.6
		c-0.3-0.5-0.1-1.3-0.1-2c0.7,0.1,1.6,0,1.9,0.4c1.2,1.5,2.3,3.2,3.2,4.8c1.1,1.6,2,1.9,2.8,0.5C93,9.7,95.5,5.2,98.2,0.7z"/>
	<path class="st1" d="M90,67.5c0-3.6,1.5-5,4.8-4.9c2.8,0,5.7,2,5.7,3.7c0,2.5-3.5,6-6,6C92.1,72.3,90,70.1,90,67.5z M91.2,67.5
		c0,1.7,1.9,3.7,3.5,3.6c1.3,0,4.5-3.2,4.5-4.4c0-1.6-2.3-2.7-5.3-2.8C92.1,64,91.2,65.2,91.2,67.5z"/>
</g>
</svg>
