<?xml version="1.0" encoding="utf-8"?>
<!-- Generator: Adobe Illustrator 18.1.1, SVG Export Plug-In . SVG Version: 6.00 Build 0)  -->
<!DOCTYPE svg PUBLIC "-//W3C//DTD SVG 1.1//EN" "http://www.w3.org/Graphics/SVG/1.1/DTD/svg11.dtd">
<svg version="1.1" id="Layer_1" xmlns="http://www.w3.org/2000/svg" xmlns:xlink="http://www.w3.org/1999/xlink" x="0px" y="0px"
	 viewBox="0 0 99.2 63.9" enable-background="new 0 0 99.2 63.9" xml:space="preserve">
<g>
	
		<radialGradient id="SVGID_1_" cx="95.7415" cy="2009.2281" r="48.3299" gradientTransform="matrix(1.3428 0 0 0.1661 -94.2426 -277.7926)" gradientUnits="userSpaceOnUse">
		<stop  offset="5.494510e-03" style="stop-color:#817E7A"/>
		<stop  offset="0.3901" style="stop-color:#D0D1D7"/>
		<stop  offset="0.4748" style="stop-color:#D8D9DE"/>
		<stop  offset="0.8076" style="stop-color:#F4F5F6"/>
		<stop  offset="1" style="stop-color:#FFFFFF"/>
	</radialGradient>
	<path fill="url(#SVGID_1_)" d="M34.3,47.9c-11.8,0-22.8,0.4-32.4,1.1c-0.6,1.3-1.2,2.5-1.9,3.7c0.7,0.3,1.5,0.7,2.2,1.3
		c0.1,0.1,0.2,0.2,0.3,0.2c8.3,2.4,16.1,6.1,23.9,9.7c2.6,0,5.2,0.1,7.9,0.1c35.8,0,64.9-3.6,64.9-8C99.2,51.5,70.2,47.9,34.3,47.9z
		"/>
	<g>
		
			<radialGradient id="SVGID_2_" cx="229.719" cy="-670.5558" r="57.4641" gradientTransform="matrix(0.2295 -0.9733 0.9733 0.2295 599.6393 412.5225)" gradientUnits="userSpaceOnUse">
			<stop  offset="0" style="stop-color:#F9E3FF"/>
			<stop  offset="0.2802" style="stop-color:#FF8DF3"/>
			<stop  offset="0.6429" style="stop-color:#D600B6"/>
			<stop  offset="1" style="stop-color:#AD0083"/>
		</radialGradient>
		<path fill="url(#SVGID_2_)" d="M44.7,7.7L12.5,0.1C11.3,3.9,10,7.6,8.7,11.4c0.1,1.2,0.2,2.4,0.2,3.6c0,10.9-2,24.1-7.3,34.8
			L33,57.2c14.5,3.4,29-4.9,32.2-18.6C68.5,25,59.2,11.1,44.7,7.7z"/>
		
			<radialGradient id="SVGID_3_" cx="223.9397" cy="-708.1154" r="68.7571" gradientTransform="matrix(0.2295 -0.9733 0.9733 0.2295 599.6393 412.5225)" gradientUnits="userSpaceOnUse">
			<stop  offset="0" style="stop-color:#FFC0EB"/>
			<stop  offset="0.2802" style="stop-color:#FF0DED"/>
			<stop  offset="0.6429" style="stop-color:#EC00A6"/>
			<stop  offset="1" style="stop-color:#9D006B"/>
		</radialGradient>
		<path fill="url(#SVGID_3_)" d="M8.7,11.4c0.1,1.2,0.2,2.4,0.2,3.6c0,2.5-0.1,5.1-0.3,7.8l5.3-22.5l-1.3-0.3
			C11.3,3.9,10,7.6,8.7,11.4z"/>
		<g>
			
				<linearGradient id="SVGID_4_" gradientUnits="userSpaceOnUse" x1="241.2774" y1="-669.0241" x2="241.2774" y2="-661.6187" gradientTransform="matrix(0.2295 -0.9733 0.9733 0.2295 599.6393 412.5225)">
				<stop  offset="1.098900e-02" style="stop-color:#7A007A"/>
				<stop  offset="0.1695" style="stop-color:#A121A2"/>
				<stop  offset="0.3557" style="stop-color:#C843CA"/>
				<stop  offset="0.526" style="stop-color:#E45BE7"/>
				<stop  offset="0.6731" style="stop-color:#F56AF9"/>
				<stop  offset="0.7802" style="stop-color:#FB6FFF"/>
			</linearGradient>
			<path fill="url(#SVGID_4_)" d="M8.7,11.4c0.1,1.2,0.2,2.4,0.2,3.6c0,10.9-2,24.1-7.3,34.8l3.7,0.9L16.9,1l-4.4-1
				C11.4,3.8,10,7.6,8.7,11.4z"/>
			
				<rect x="10.6" y="0.3" transform="matrix(-0.9728 -0.2317 0.2317 -0.9728 15.3534 53.4328)" fill="#FFFBD4" width="0.5" height="51"/>
		</g>
	</g>
</g>
</svg>
