<?xml version="1.0" encoding="utf-8"?>
<!-- Generator: Adobe Illustrator 18.1.1, SVG Export Plug-In . SVG Version: 6.00 Build 0)  -->
<!DOCTYPE svg PUBLIC "-//W3C//DTD SVG 1.1//EN" "http://www.w3.org/Graphics/SVG/1.1/DTD/svg11.dtd">
<svg version="1.1" id="Layer_1" xmlns="http://www.w3.org/2000/svg" xmlns:xlink="http://www.w3.org/1999/xlink" x="0px" y="0px"
	 viewBox="0 0 427.7 217.3" enable-background="new 0 0 427.7 217.3" xml:space="preserve">
<g>
	
		<radialGradient id="SVGID_1_" cx="325.9039" cy="2255.3643" r="98.2187" gradientTransform="matrix(1 0 0 0.1661 0 -178.5885)" gradientUnits="userSpaceOnUse">
		<stop  offset="5.494510e-03" style="stop-color:#817E7A"/>
		<stop  offset="0.3901" style="stop-color:#D0D1D7"/>
		<stop  offset="0.4459" style="stop-color:#D8D9DE"/>
		<stop  offset="0.6405" style="stop-color:#EDEEF0"/>
		<stop  offset="0.8282" style="stop-color:#FBFBFB"/>
		<stop  offset="1" style="stop-color:#FFFFFF"/>
	</radialGradient>
	<ellipse fill="url(#SVGID_1_)" cx="325.9" cy="196" rx="98.2" ry="16.3"/>
	<g>
		
			<radialGradient id="SVGID_2_" cx="257.585" cy="87.1577" r="182.6717" gradientTransform="matrix(0.6789 0.7343 -0.7343 0.6789 224.9514 -217.9204)" gradientUnits="userSpaceOnUse">
			<stop  offset="0.3297" style="stop-color:#FFAB91"/>
			<stop  offset="0.4644" style="stop-color:#FFA78C"/>
			<stop  offset="0.6334" style="stop-color:#FF9B7C"/>
			<stop  offset="0.8197" style="stop-color:#FF8863"/>
			<stop  offset="1" style="stop-color:#FF7043"/>
		</radialGradient>
		<path fill-rule="evenodd" clip-rule="evenodd" fill="url(#SVGID_2_)" d="M427,82c-1.3,0.7-2.7,1.2-4.1,1.7
			c-10.5,3.7-21.4,4.7-32.5,5.1c-6.6,0.2-12.5,2.6-18.8,4.5c-2.8,0.8-5.7,1.4-8.6,1.4c-3.3,0.1-6.5-0.7-9.7-0.9
			c-6.8-0.4-13.6,0.6-20.4,0.8c-7.9,0.2-15.8,0.2-23.7,1c-4,0.4-7.8,1-11.5,2.6c-3.1,1.2-6,2.7-9.2,3.7c-3.7,1.3-7.2,2.6-10.8,4.2
			c-2.8,1.2-5.6,2.1-8.6,2c-2.9-0.1-5.6-1.1-8.5-1.6c-3-0.6-6.3-0.4-9.4,0c-6.3,0.8-12.4,2.3-18.8,2.2c2.8,18.8,11.1,37,24.9,52
			c36.7,39.7,99.1,42.2,138.8,5.4C420.3,143.9,430.6,112.3,427,82z"/>
		
			<linearGradient id="SVGID_3_" gradientUnits="userSpaceOnUse" x1="275.1752" y1="78.3033" x2="388.1252" y2="281.6133" gradientTransform="matrix(0.6789 0.7343 -0.7343 0.6789 224.9514 -217.9204)">
			<stop  offset="0" style="stop-color:#FFCCBC"/>
			<stop  offset="0.3297" style="stop-color:#FFAB91"/>
			<stop  offset="0.6319" style="stop-color:#FF7043"/>
			<stop  offset="0.7127" style="stop-color:#FD6D3F"/>
			<stop  offset="0.7873" style="stop-color:#F66334"/>
			<stop  offset="0.8592" style="stop-color:#EB5222"/>
			<stop  offset="0.8846" style="stop-color:#E64A19"/>
			<stop  offset="0.9464" style="stop-color:#EA4C1A"/>
			<stop  offset="1" style="stop-color:#F4511E"/>
		</linearGradient>
		<path fill-rule="evenodd" clip-rule="evenodd" fill="url(#SVGID_3_)" d="M422.8,87.4L278.1,106c-0.1,0.1-0.2,0.1-0.4,0.2
			c-2.8,1.2-5.6,2.1-8.6,2c-1.2,0-2.4-0.2-3.5-0.5l-28,3.6c3.1,16.8,10.8,32.9,23.3,46.3c35.1,37.9,94.2,40.2,132.1,5.2
			C414.7,142.6,424.7,114.7,422.8,87.4z"/>
		<path fill-rule="evenodd" clip-rule="evenodd" fill="#FBE2EA" d="M260.7,106.4c-0.9-0.2-1.8-0.3-2.7-0.3l-20.8,2.4l0.5,2.6l28-3.6
			C264,107.2,262.3,106.8,260.7,106.4z"/>
		<path fill-rule="evenodd" clip-rule="evenodd" fill="#FBE2EA" d="M422.8,87.4l-50.6,5.8c-0.2,0.1-0.4,0.1-0.6,0.2
			c-2.8,0.8-5.7,1.4-8.6,1.4c-1.1,0-2.3-0.1-3.4-0.2l-74.2,8.5c-2.5,0.9-4.8,1.9-7.3,2.9L422.8,87.4z"/>
	</g>
</g>
<g>
	
		<radialGradient id="SVGID_4_" cx="100.0851" cy="2283.7156" r="99.9171" gradientTransform="matrix(1 0 0 0.1661 0 -178.5885)" gradientUnits="userSpaceOnUse">
		<stop  offset="5.494510e-03" style="stop-color:#817E7A"/>
		<stop  offset="0.3901" style="stop-color:#D0D1D7"/>
		<stop  offset="0.4459" style="stop-color:#D8D9DE"/>
		<stop  offset="0.6405" style="stop-color:#EDEEF0"/>
		<stop  offset="0.8282" style="stop-color:#FBFBFB"/>
		<stop  offset="1" style="stop-color:#FFFFFF"/>
	</radialGradient>
	<ellipse fill="url(#SVGID_4_)" cx="100.1" cy="200.7" rx="99.9" ry="16.6"/>
	<radialGradient id="SVGID_5_" cx="56.7268" cy="51.305" r="185.8304" gradientUnits="userSpaceOnUse">
		<stop  offset="0.3297" style="stop-color:#FFAB91"/>
		<stop  offset="0.4644" style="stop-color:#FFA78C"/>
		<stop  offset="0.6334" style="stop-color:#FF9B7C"/>
		<stop  offset="0.8197" style="stop-color:#FF8863"/>
		<stop  offset="1" style="stop-color:#FF7043"/>
	</radialGradient>
	<path fill-rule="evenodd" clip-rule="evenodd" fill="url(#SVGID_5_)" d="M99.9,199.8c55,0,99.9-44.9,99.9-99.9
		c0-55-44.9-99.9-99.9-99.9C44.9,0,0,44.9,0,99.9C0,155,44.9,199.8,99.9,199.8z"/>
	<linearGradient id="SVGID_6_" gradientUnits="userSpaceOnUse" x1="69.4848" y1="45.151" x2="184.3879" y2="251.9766">
		<stop  offset="0" style="stop-color:#FFCCBC"/>
		<stop  offset="0.3297" style="stop-color:#FFAB91"/>
		<stop  offset="0.6319" style="stop-color:#FF7043"/>
		<stop  offset="0.7127" style="stop-color:#FD6D3F"/>
		<stop  offset="0.7873" style="stop-color:#F66334"/>
		<stop  offset="0.8592" style="stop-color:#EB5222"/>
		<stop  offset="0.8846" style="stop-color:#E64A19"/>
		<stop  offset="0.9464" style="stop-color:#EA4C1A"/>
		<stop  offset="1" style="stop-color:#F4511E"/>
	</linearGradient>
	<path fill-rule="evenodd" clip-rule="evenodd" fill="url(#SVGID_6_)" d="M99.9,4.8c18.6,0,36,5.4,50.7,14.6L40.5,174.2
		C18.7,156.7,4.8,129.9,4.8,99.9C4.8,47.4,47.4,4.8,99.9,4.8L99.9,4.8z M159.4,25.7C181.1,43.1,195,69.9,195,99.9
		c0,52.5-42.6,95.1-95.1,95.1c-18.6,0-36-5.4-50.7-14.6L159.4,25.7z"/>
	<polygon fill-rule="evenodd" clip-rule="evenodd" fill="#D17971" points="150.6,19.4 40.5,174.2 42.9,177.1 154,23 	"/>
	<linearGradient id="SVGID_7_" gradientUnits="userSpaceOnUse" x1="65.8515" y1="22.7507" x2="81.1724" y2="63.6065">
		<stop  offset="0.1484" style="stop-color:#FAEBDD"/>
		<stop  offset="1" style="stop-color:#EEC2B9"/>
	</linearGradient>
	<path fill-rule="evenodd" clip-rule="evenodd" fill="url(#SVGID_7_)" d="M5.3,90.4C39.9,81.3,92.7,64.4,138,37l12.6-17.6
		c-14.7-9.2-32-14.6-50.7-14.6C50.6,4.8,10,42.4,5.3,90.4z"/>
	<polygon fill-rule="evenodd" clip-rule="evenodd" fill="#FBE2EA" points="49.3,180.4 159.4,25.7 47,178.9 	"/>
</g>
</svg>
