<?xml version="1.0" encoding="utf-8"?>
<!-- Generator: Adobe Illustrator 18.1.1, SVG Export Plug-In . SVG Version: 6.00 Build 0)  -->
<!DOCTYPE svg PUBLIC "-//W3C//DTD SVG 1.1//EN" "http://www.w3.org/Graphics/SVG/1.1/DTD/svg11.dtd">
<svg version="1.1" id="Layer_1" xmlns="http://www.w3.org/2000/svg" xmlns:xlink="http://www.w3.org/1999/xlink" x="0px" y="0px"
	 viewBox="0 0 319.5 108.6" enable-background="new 0 0 319.5 108.6" xml:space="preserve">
<g>
	
		<radialGradient id="SVGID_1_" cx="-123.1236" cy="-1587.3763" r="10.3976" gradientTransform="matrix(4.8 0 0 -0.7973 753.16 -1165.2712)" gradientUnits="userSpaceOnUse">
		<stop  offset="5.494510e-03" style="stop-color:#817E7A"/>
		<stop  offset="0.3901" style="stop-color:#D0D1D7"/>
		<stop  offset="0.4459" style="stop-color:#D8D9DE"/>
		<stop  offset="0.6405" style="stop-color:#EDEEF0"/>
		<stop  offset="0.8282" style="stop-color:#FBFBFB"/>
		<stop  offset="1" style="stop-color:#FFFFFF"/>
	</radialGradient>
	<ellipse fill="url(#SVGID_1_)" cx="162.2" cy="100.3" rx="49.9" ry="8.3"/>
	
		<radialGradient id="SVGID_2_" cx="-127.6331" cy="289.302" r="19.3458" gradientTransform="matrix(4.8 0 0 -4.8 753.16 1414.2869)" gradientUnits="userSpaceOnUse">
		<stop  offset="0.3297" style="stop-color:#FFAB91"/>
		<stop  offset="0.4644" style="stop-color:#FFA78C"/>
		<stop  offset="0.6334" style="stop-color:#FF9B7C"/>
		<stop  offset="0.8197" style="stop-color:#FF8863"/>
		<stop  offset="1" style="stop-color:#FF7043"/>
	</radialGradient>
	<path fill="url(#SVGID_2_)" d="M162.1,99.9c27.5,0,49.9-22.5,49.9-49.9S189.5,0,162.1,0s-49.9,22.5-49.9,49.9
		C112.2,77.4,134.6,99.9,162.1,99.9z"/>
	
		<linearGradient id="SVGID_3_" gradientUnits="userSpaceOnUse" x1="-126.3083" y1="289.9408" x2="-114.3464" y2="268.4093" gradientTransform="matrix(4.8 0 0 -4.8 753.16 1414.2869)">
		<stop  offset="0" style="stop-color:#FFCCBC"/>
		<stop  offset="0.3297" style="stop-color:#FFAB91"/>
		<stop  offset="0.6319" style="stop-color:#FF7043"/>
		<stop  offset="0.7127" style="stop-color:#FD6D3F"/>
		<stop  offset="0.7873" style="stop-color:#F66334"/>
		<stop  offset="0.8592" style="stop-color:#EB5222"/>
		<stop  offset="0.8846" style="stop-color:#E64A19"/>
		<stop  offset="0.9464" style="stop-color:#EA4C1A"/>
		<stop  offset="1" style="stop-color:#F4511E"/>
	</linearGradient>
	<path fill="url(#SVGID_3_)" d="M162.1,2.4c9.3,0,18,2.7,25.3,7.3l-55,77.3c-10.8-8.7-17.8-22.1-17.8-37
		C114.6,23.7,135.8,2.4,162.1,2.4L162.1,2.4z M191.8,12.8c10.8,8.7,17.8,22.1,17.8,37.1c0,26.2-21.3,47.6-47.6,47.6
		c-9.3,0-18-2.7-25.3-7.3L191.8,12.8z"/>
	<polygon fill="#D17971" points="187.5,9.7 132.4,87 133.6,88.4 189.1,11.6 	"/>
	
		<linearGradient id="SVGID_4_" gradientUnits="userSpaceOnUse" x1="-126.6764" y1="292.2772" x2="-125.0814" y2="288.0239" gradientTransform="matrix(4.8 0 0 -4.8 753.16 1414.2869)">
		<stop  offset="0.1484" style="stop-color:#FAEBDD"/>
		<stop  offset="1" style="stop-color:#EEC2B9"/>
	</linearGradient>
	<path fill="url(#SVGID_4_)" d="M114.8,45.2c17.4-4.6,43.7-13,66.4-26.6l6.2-8.8c-7.3-4.6-16-7.3-25.3-7.3
		C137.5,2.4,117.2,21.1,114.8,45.2z"/>
	<polygon fill="#FBE2EA" points="136.8,90.1 191.8,12.8 135.6,89.4 	"/>
</g>
<g>
	
		<radialGradient id="SVGID_5_" cx="-146.4808" cy="-1587.3763" r="10.3976" gradientTransform="matrix(4.8 0 0 -0.7973 753.16 -1165.2712)" gradientUnits="userSpaceOnUse">
		<stop  offset="5.494510e-03" style="stop-color:#817E7A"/>
		<stop  offset="0.3901" style="stop-color:#D0D1D7"/>
		<stop  offset="0.4459" style="stop-color:#D8D9DE"/>
		<stop  offset="0.6405" style="stop-color:#EDEEF0"/>
		<stop  offset="0.8282" style="stop-color:#FBFBFB"/>
		<stop  offset="1" style="stop-color:#FFFFFF"/>
	</radialGradient>
	<ellipse fill="url(#SVGID_5_)" cx="50.1" cy="100.3" rx="49.9" ry="8.3"/>
	
		<radialGradient id="SVGID_6_" cx="-150.9904" cy="289.302" r="19.3458" gradientTransform="matrix(4.8 0 0 -4.8 753.16 1414.2869)" gradientUnits="userSpaceOnUse">
		<stop  offset="0.3297" style="stop-color:#FFAB91"/>
		<stop  offset="0.4644" style="stop-color:#FFA78C"/>
		<stop  offset="0.6334" style="stop-color:#FF9B7C"/>
		<stop  offset="0.8197" style="stop-color:#FF8863"/>
		<stop  offset="1" style="stop-color:#FF7043"/>
	</radialGradient>
	<path fill="url(#SVGID_6_)" d="M49.9,99.9c27.5,0,49.9-22.5,49.9-49.9S77.4,0,49.9,0S0,22.5,0,49.9C0.1,77.4,22.5,99.9,49.9,99.9z"
		/>
	
		<linearGradient id="SVGID_7_" gradientUnits="userSpaceOnUse" x1="-149.6656" y1="289.9408" x2="-137.7037" y2="268.4093" gradientTransform="matrix(4.8 0 0 -4.8 753.16 1414.2869)">
		<stop  offset="0" style="stop-color:#FFCCBC"/>
		<stop  offset="0.3297" style="stop-color:#FFAB91"/>
		<stop  offset="0.6319" style="stop-color:#FF7043"/>
		<stop  offset="0.7127" style="stop-color:#FD6D3F"/>
		<stop  offset="0.7873" style="stop-color:#F66334"/>
		<stop  offset="0.8592" style="stop-color:#EB5222"/>
		<stop  offset="0.8846" style="stop-color:#E64A19"/>
		<stop  offset="0.9464" style="stop-color:#EA4C1A"/>
		<stop  offset="1" style="stop-color:#F4511E"/>
	</linearGradient>
	<path fill="url(#SVGID_7_)" d="M49.9,2.4c9.3,0,18,2.7,25.3,7.3L20.2,87C9.4,78.3,2.4,64.9,2.4,49.9C2.5,23.7,23.7,2.4,49.9,2.4
		L49.9,2.4z M79.7,12.8c10.8,8.7,17.8,22.1,17.8,37.1c0,26.2-21.3,47.6-47.6,47.6c-9.3,0-18-2.7-25.3-7.3L79.7,12.8z"/>
	<polygon fill="#D17971" points="75.3,9.7 20.3,87 21.4,88.4 77,11.6 	"/>
	
		<linearGradient id="SVGID_8_" gradientUnits="userSpaceOnUse" x1="-150.0337" y1="292.2772" x2="-148.4387" y2="288.0239" gradientTransform="matrix(4.8 0 0 -4.8 753.16 1414.2869)">
		<stop  offset="0.1484" style="stop-color:#FAEBDD"/>
		<stop  offset="1" style="stop-color:#EEC2B9"/>
	</linearGradient>
	<path fill="url(#SVGID_8_)" d="M2.7,45.2c17.4-4.6,43.7-13,66.4-26.6l6.2-8.8c-7.3-4.6-16-7.3-25.3-7.3C25.4,2.4,5.1,21.1,2.7,45.2
		z"/>
	<polygon fill="#FBE2EA" points="24.7,90.1 79.7,12.8 23.5,89.4 	"/>
</g>
<g>
	
		<radialGradient id="SVGID_9_" cx="-101.2631" cy="-1918.8934" r="11.4207" gradientTransform="matrix(4.2978 0 0 -0.7139 703.8414 -1274.8032)" gradientUnits="userSpaceOnUse">
		<stop  offset="5.494510e-03" style="stop-color:#817E7A"/>
		<stop  offset="0.3901" style="stop-color:#D0D1D7"/>
		<stop  offset="0.4459" style="stop-color:#D8D9DE"/>
		<stop  offset="0.6405" style="stop-color:#EDEEF0"/>
		<stop  offset="0.8282" style="stop-color:#FBFBFB"/>
		<stop  offset="1" style="stop-color:#FFFFFF"/>
	</radialGradient>
	<ellipse fill="url(#SVGID_9_)" cx="268.6" cy="95" rx="49.1" ry="8.2"/>
	<g>
		
			<radialGradient id="SVGID_10_" cx="-51.3082" cy="273.6902" r="21.252" gradientTransform="matrix(2.9178 3.1559 3.1559 -2.9178 -440.4175 972.6785)" gradientUnits="userSpaceOnUse">
			<stop  offset="0.3297" style="stop-color:#FFAB91"/>
			<stop  offset="0.4644" style="stop-color:#FFA78C"/>
			<stop  offset="0.6334" style="stop-color:#FF9B7C"/>
			<stop  offset="0.8197" style="stop-color:#FF8863"/>
			<stop  offset="1" style="stop-color:#FF7043"/>
		</radialGradient>
		<path fill="url(#SVGID_10_)" d="M319.2,38c-0.7,0.4-1.4,0.6-2.1,0.9c-5.3,1.9-10.7,2.4-16.3,2.6c-3.3,0.1-6.3,1.3-9.4,2.3
			c-1.4,0.4-2.9,0.7-4.3,0.7c-1.7,0-3.3-0.4-4.9-0.5c-3.4-0.2-6.8,0.3-10.2,0.4c-4,0.1-7.9,0.1-11.9,0.5c-2,0.2-3.9,0.5-5.8,1.3
			c-1.6,0.6-3,1.4-4.6,1.9c-1.9,0.7-3.6,1.3-5.4,2.1c-1.4,0.6-2.8,1.1-4.3,1c-1.4,0-2.8-0.6-4.3-0.8c-1.5-0.3-3.2-0.2-4.7,0
			c-3.2,0.4-6.2,1.2-9.4,1.1c1.4,9.4,5.6,18.5,12.5,26c18.4,19.9,49.6,21.1,69.4,2.7C315.8,69,321,53.2,319.2,38z"/>
		
			<linearGradient id="SVGID_11_" gradientUnits="userSpaceOnUse" x1="-49.2629" y1="274.7197" x2="-36.1223" y2="251.0667" gradientTransform="matrix(2.9178 3.1559 3.1559 -2.9178 -440.4175 972.6785)">
			<stop  offset="0" style="stop-color:#FFCCBC"/>
			<stop  offset="0.3297" style="stop-color:#FFAB91"/>
			<stop  offset="0.6319" style="stop-color:#FF7043"/>
			<stop  offset="0.7127" style="stop-color:#FD6D3F"/>
			<stop  offset="0.7873" style="stop-color:#F66334"/>
			<stop  offset="0.8592" style="stop-color:#EB5222"/>
			<stop  offset="0.8846" style="stop-color:#E64A19"/>
			<stop  offset="0.9464" style="stop-color:#EA4C1A"/>
			<stop  offset="1" style="stop-color:#F4511E"/>
		</linearGradient>
		<path fill="url(#SVGID_11_)" d="M317.1,40.7L244.7,50c-0.1,0.1-0.1,0.1-0.2,0.1c-1.4,0.6-2.8,1.1-4.3,1c-0.6,0-1.2-0.1-1.8-0.2
			l-14,1.8c1.6,8.4,5.5,16.4,11.7,23.1c17.6,19,47.1,20.1,66.1,2.6C313,68.3,318.1,54.4,317.1,40.7z"/>
		<path fill="#FBE2EA" d="M236,50.2c-0.4-0.1-0.9-0.2-1.3-0.2l-10.4,1.2l0.2,1.3l14-1.8C237.7,50.6,236.8,50.4,236,50.2z"/>
		<path fill="#FBE2EA" d="M317.1,40.7l-25.3,2.9c-0.1,0-0.2,0-0.3,0.1c-1.4,0.4-2.9,0.7-4.3,0.7c-0.6,0-1.2-0.1-1.7-0.1l-37.1,4.3
			c-1.2,0.5-2.4,1-3.7,1.5L317.1,40.7z"/>
	</g>
</g>
</svg>
