<?xml version="1.0" encoding="utf-8"?>
<!-- Generator: Adobe Illustrator 18.1.1, SVG Export Plug-In . SVG Version: 6.00 Build 0)  -->
<!DOCTYPE svg PUBLIC "-//W3C//DTD SVG 1.1//EN" "http://www.w3.org/Graphics/SVG/1.1/DTD/svg11.dtd">
<svg version="1.1" id="Layer_1" xmlns="http://www.w3.org/2000/svg" xmlns:xlink="http://www.w3.org/1999/xlink" x="0px" y="0px"
	 viewBox="0 0 143.2 64.3" enable-background="new 0 0 143.2 64.3" xml:space="preserve">
<g>
	
		<radialGradient id="SVGID_1_" cx="-60.5725" cy="85.4987" r="15.5143" gradientTransform="matrix(6.4454 0 0 -2.4494 471.9167 245.127)" gradientUnits="userSpaceOnUse">
		<stop  offset="0.1429" style="stop-color:#817E7A"/>
		<stop  offset="0.6868" style="stop-color:#D0D1D7"/>
		<stop  offset="0.7154" style="stop-color:#D8D9DE"/>
		<stop  offset="0.8154" style="stop-color:#EDEEF0"/>
		<stop  offset="0.9118" style="stop-color:#FBFBFB"/>
		<stop  offset="1" style="stop-color:#FFFFFF"/>
	</radialGradient>
	<path display="none" fill="url(#SVGID_1_)" d="M181.5,35.7c0,21-44.8,38-100,38s-100-17-100-38s44.8-38,100-38
		S181.5,14.7,181.5,35.7z"/>
	<g>
		
			<linearGradient id="SVGID_2_" gradientUnits="userSpaceOnUse" x1="-152.1875" y1="263.353" x2="-122.3542" y2="263.353" gradientTransform="matrix(4.8 0 0 -4.8 730.5 1300.6472)">
			<stop  offset="0" style="stop-color:#FFEBEE"/>
			<stop  offset="0.1374" style="stop-color:#EF9A9A"/>
			<stop  offset="0.3023" style="stop-color:#F7B4B6"/>
			<stop  offset="0.4602" style="stop-color:#FDC6CB"/>
			<stop  offset="0.5659" style="stop-color:#FFCDD2"/>
			<stop  offset="1" style="stop-color:#EF9A9A"/>
		</linearGradient>
		<path fill="url(#SVGID_2_)" d="M129.7,12.8c-2-0.8-4-1.8-6-2.6l-47.4,3.2L0,8.8v31.4c0,13.3,32.1,24.1,71.6,24.1
			s71.6-10.8,71.6-24.1l0,0V16.4C138.6,16.7,133.8,14.5,129.7,12.8z"/>
		
			<radialGradient id="SVGID_3_" cx="-139.2515" cy="269.3649" r="22.6668" gradientTransform="matrix(4.8 0 0 -4.8 730.5 1300.6472)" gradientUnits="userSpaceOnUse">
			<stop  offset="0" style="stop-color:#FFEBEE"/>
			<stop  offset="0.3297" style="stop-color:#FFCDD2"/>
			<stop  offset="0.8242" style="stop-color:#E57373"/>
			<stop  offset="0.8824" style="stop-color:#E67777"/>
			<stop  offset="0.9361" style="stop-color:#E98282"/>
			<stop  offset="0.9879" style="stop-color:#EE9494"/>
			<stop  offset="1" style="stop-color:#EF9A9A"/>
		</radialGradient>
		<path fill="url(#SVGID_3_)" d="M129.7,12.8c-4.9-2.1-9.6-4.5-14.7-6c-0.3,0.2-0.7,0.3-1.2,0.1c-3.9-1.2-7.9-1.6-11.9-2.3
			c-7.1-1.4-14.2-2.8-21.5-3.3c-6.6-0.4-13.2-0.4-19.9-0.4c-0.3,0.3-0.7,0.5-1.1,0.5c-4.7-0.4-9.4-0.6-14.1-1
			C41.1-0.1,37,0,32.9,0.3c-4.2,0.4-8.3,1-12.5,1.2c-3.8,0.2-7.6,0.6-11.3,1.3C6.4,3.4,3.5,3.5,1,4.7C0.4,6,0,7.4,0,8.8
			c0,13.3,32.1,24.1,71.6,24.1c31.8,0,58.9-7,68.2-16.7C136.3,15.7,132.8,14.1,129.7,12.8z"/>
		
			<linearGradient id="SVGID_4_" gradientUnits="userSpaceOnUse" x1="-149.5417" y1="265.8928" x2="-122.3542" y2="265.8928" gradientTransform="matrix(4.8 0 0 -4.8 730.5 1300.6472)">
			<stop  offset="0" style="stop-color:#FFEBEE"/>
			<stop  offset="0.5" style="stop-color:#FFCDD2"/>
			<stop  offset="1" style="stop-color:#FFEBEE"/>
		</linearGradient>
		<path fill="url(#SVGID_4_)" d="M137.9,15.8C127,25,100.4,31.4,69.4,31.4c-22.8,0-43.2-3.5-56.7-8.9c12.9,6.3,34.5,10.4,58.9,10.4
			c31.8,0,58.9-7,68.2-16.7C139.1,16.1,138.5,16,137.9,15.8z"/>
		<path fill="#FFCDD2" d="M115,6.7c-0.3,0.2-0.7,0.3-1.2,0.1c-3.9-1.2-7.9-1.6-11.9-2.3c-7.1-1.4-14.2-2.8-21.5-3.3
			c-6.6-0.4-13.2-0.4-19.9-0.4c-0.3,0.3-0.7,0.5-1.1,0.5c-4.7-0.4-9.4-0.6-14.1-1C41.1-0.1,37,0,32.9,0.3c-4.2,0.4-8.3,1-12.5,1.2
			c-0.5,0-1,0.1-1.5,0.1c18.8-1,69.7-2.2,107.1,9.5C122.4,9.6,118.8,7.9,115,6.7z"/>
	</g>
</g>
</svg>
