<?xml version="1.0" encoding="utf-8"?>
<!-- Generator: Adobe Illustrator 18.1.1, SVG Export Plug-In . SVG Version: 6.00 Build 0)  -->
<!DOCTYPE svg PUBLIC "-//W3C//DTD SVG 1.1//EN" "http://www.w3.org/Graphics/SVG/1.1/DTD/svg11.dtd">
<svg version="1.1" id="Layer_1" xmlns="http://www.w3.org/2000/svg" xmlns:xlink="http://www.w3.org/1999/xlink" x="0px" y="0px"
	 viewBox="0 0 200 89" enable-background="new 0 0 200 89" xml:space="preserve">
<g>
	
		<radialGradient id="SVGID_1_" cx="163.6694" cy="234.04" r="74.4726" gradientTransform="matrix(1.3428 0 0 0.5103 -119.7703 -68.4099)" gradientUnits="userSpaceOnUse">
		<stop  offset="0.1429" style="stop-color:#817E7A"/>
		<stop  offset="0.6868" style="stop-color:#D0D1D7"/>
		<stop  offset="0.7154" style="stop-color:#D8D9DE"/>
		<stop  offset="0.8154" style="stop-color:#EDEEF0"/>
		<stop  offset="0.9118" style="stop-color:#FBFBFB"/>
		<stop  offset="1" style="stop-color:#FFFFFF"/>
	</radialGradient>
	<path fill="url(#SVGID_1_)" d="M200,51c0,21-44.8,38-100,38S0,72,0,51c0-21,44.8-38,100-38S200,30,200,51z"/>
	<linearGradient id="SVGID_2_" gradientUnits="userSpaceOnUse" x1="18.5301" y1="51.8749" x2="161.7253" y2="51.8749">
		<stop  offset="0" style="stop-color:#E0E0E0"/>
		<stop  offset="0.1374" style="stop-color:#EEEEEE"/>
		<stop  offset="0.3257" style="stop-color:#F8F8F8"/>
		<stop  offset="0.5659" style="stop-color:#FFFFFF"/>
		<stop  offset="1" style="stop-color:#E0E0E0"/>
	</linearGradient>
	<path fill="url(#SVGID_2_)" d="M161.7,55.5c0,13.3-32.1,24.1-71.6,24.1c-39.5,0-71.6-10.8-71.6-24.1V24.1l76.3,4.5l66.9-4.5V55.5z"
		/>
	<radialGradient id="SVGID_3_" cx="80.5926" cy="22.9926" r="108.8005" gradientUnits="userSpaceOnUse">
		<stop  offset="0" style="stop-color:#E0E0E0"/>
		<stop  offset="0.3297" style="stop-color:#FAFAFA"/>
		<stop  offset="0.8242" style="stop-color:#F5F5F5"/>
		<stop  offset="0.954" style="stop-color:#F1F1F1"/>
		<stop  offset="1" style="stop-color:#EEEEEE"/>
	</radialGradient>
	<path fill="url(#SVGID_3_)" d="M161.7,24.1c0,13.3-32.1,24.1-71.6,24.1c-39.5,0-71.6-10.8-71.6-24.1C18.5,10.8,50.6,0,90.1,0
		C129.7,0,161.7,10.8,161.7,24.1z"/>
	<linearGradient id="SVGID_4_" gradientUnits="userSpaceOnUse" x1="31.1839" y1="35.6111" x2="161.7253" y2="35.6111">
		<stop  offset="0" style="stop-color:#FFFFFF"/>
		<stop  offset="0.5" style="stop-color:#FFFFFF"/>
		<stop  offset="1" style="stop-color:#FFFFFF"/>
	</linearGradient>
	<path fill="url(#SVGID_4_)" d="M87.9,46.7c-22.8,0-43.2-3.5-56.7-8.9c12.9,6.3,34.5,10.4,58.9,10.4c39.5,0,71.6-10.8,71.6-24.1
		c0-0.4,0-0.7-0.1-1.1C159.9,36.2,127.5,46.7,87.9,46.7z"/>
	<path fill="#F1F5FF" d="M30.1,17.4c0,0,75.7-6.2,122.3,11.8l1.3-0.6c0,0-42.4-23.6-120.6-12.3L30.1,17.4z"/>
</g>
</svg>
