<?xml version="1.0" encoding="utf-8"?>
<!-- Generator: Adobe Illustrator 18.1.1, SVG Export Plug-In . SVG Version: 6.00 Build 0)  -->
<!DOCTYPE svg PUBLIC "-//W3C//DTD SVG 1.1//EN" "http://www.w3.org/Graphics/SVG/1.1/DTD/svg11.dtd">
<svg version="1.1" id="Layer_1" xmlns="http://www.w3.org/2000/svg" xmlns:xlink="http://www.w3.org/1999/xlink" x="0px" y="0px"
	 viewBox="0 0 109.7 89.5" enable-background="new 0 0 109.7 89.5" xml:space="preserve">
<g>
	
		<radialGradient id="SVGID_1_" cx="54.9638" cy="1657.4075" r="54.7824" gradientTransform="matrix(1 0 0 0.2077 0 -266.11)" gradientUnits="userSpaceOnUse">
		<stop  offset="5.494510e-03" style="stop-color:#817E7A"/>
		<stop  offset="0.511" style="stop-color:#D0D1D7"/>
		<stop  offset="0.5557" style="stop-color:#D8D9DE"/>
		<stop  offset="0.7117" style="stop-color:#EDEEF0"/>
		<stop  offset="0.8622" style="stop-color:#FBFBFB"/>
		<stop  offset="1" style="stop-color:#FFFFFF"/>
	</radialGradient>
	<ellipse fill="url(#SVGID_1_)" cx="55" cy="78.1" rx="54.8" ry="11.4"/>
	<g>
		
			<linearGradient id="SVGID_2_" gradientUnits="userSpaceOnUse" x1="25.7778" y1="-25.659" x2="25.7778" y2="80.1565" gradientTransform="matrix(-0.7916 -0.611 -0.611 0.7916 102.5095 34.3045)">
			<stop  offset="0" style="stop-color:#FAFBFB"/>
			<stop  offset="0.1923" style="stop-color:#E7E7E9"/>
			<stop  offset="0.5385" style="stop-color:#C8C9CA"/>
			<stop  offset="0.6085" style="stop-color:#C5C5C6"/>
			<stop  offset="0.6731" style="stop-color:#BABBBB"/>
			<stop  offset="0.7198" style="stop-color:#AEAEAE"/>
			<stop  offset="0.7897" style="stop-color:#ABABAB"/>
			<stop  offset="0.8374" style="stop-color:#A2A2A2"/>
			<stop  offset="0.8782" style="stop-color:#939393"/>
			<stop  offset="0.8956" style="stop-color:#8A8A8A"/>
		</linearGradient>
		<path fill="url(#SVGID_2_)" d="M81.1,54.5c-2.3-2.2-4.9-3.9-7.4-5.7c-2.2,0.5-4.1-1.4-4.8-3.6c-3.1-2.5-6.2-5-9.5-7.2
			c-0.1,0-0.2,0.1-0.2,0.1c-3,0.9-5.2-1.4-5.5-4.1c-4.8-3.4-9.4-6.9-13.8-10.7c-0.1,0-0.3-0.1-0.4-0.1C21.2,40.9,6.3,60.1,15.8,68.5
			c8.3,7.2,16.3,10.4,16.3,10.4c30.3,10.5,52.1-9.8,52.1-9.8c2.1-2.2,4-4.3,5.7-6.5C86.6,60.3,83.8,57,81.1,54.5z"/>
		
			<linearGradient id="SVGID_3_" gradientUnits="userSpaceOnUse" x1="26.3782" y1="-19.9317" x2="67.6083" y2="83.404" gradientTransform="matrix(-0.7916 -0.611 -0.611 0.7916 102.5095 34.3045)">
			<stop  offset="0" style="stop-color:#F9F9FA"/>
			<stop  offset="0.3297" style="stop-color:#E7E7E9"/>
			<stop  offset="0.6319" style="stop-color:#C8C9CA"/>
			<stop  offset="0.7296" style="stop-color:#C5C5C6"/>
			<stop  offset="0.8195" style="stop-color:#BABBBB"/>
			<stop  offset="0.8846" style="stop-color:#AEAEAE"/>
			<stop  offset="0.9249" style="stop-color:#AAAAAA"/>
			<stop  offset="0.9607" style="stop-color:#A0A0A0"/>
			<stop  offset="0.9947" style="stop-color:#8E8E8E"/>
			<stop  offset="1" style="stop-color:#8A8A8A"/>
		</linearGradient>
		<path fill="url(#SVGID_3_)" d="M73.7,48.8c-2.2,0.5-4.1-1.4-4.8-3.6c-3.1-2.5-6.2-5-9.5-7.2c-0.1,0-0.2,0.1-0.2,0.1
			c-3,0.9-5.2-1.4-5.5-4.1c-4.8-3.4-9.4-6.9-13.8-10.7c-1.3-0.4-2.7-1.4-3.1-2.7c-0.7-0.7-1.5-1.3-2.2-2C27.4,11.7,18.5,7.5,11.8,0
			c-17.1,23-15.4,53.5,4,68.5C35,83.3,64.5,77.6,82.5,55.8c-0.5-0.5-0.9-0.9-1.4-1.3C78.8,52.3,76.2,50.6,73.7,48.8z"/>
		<path fill="#E7E7E9" d="M77.1,51.2c-1.1-0.8-2.3-1.6-3.4-2.4c-2.2,0.5-4.1-1.4-4.8-3.6c-3.1-2.5-6.2-5-9.5-7.2
			c-0.1,0-0.2,0.1-0.2,0.1c-3,0.9-5.2-1.4-5.5-4.1c-4.8-3.4-9.4-6.9-13.8-10.7c-1.3-0.4-2.7-1.4-3.1-2.7c-0.7-0.7-1.5-1.3-2.2-2
			C28.7,13,21.7,9.1,15.7,3.8c3.9,5,22.5,27,64.3,49.6c0,0,0,0,0,0L77.1,51.2z"/>
	</g>
</g>
</svg>
