<?xml version="1.0" encoding="utf-8"?>
<!-- Generator: Adobe Illustrator 18.1.1, SVG Export Plug-In . SVG Version: 6.00 Build 0)  -->
<!DOCTYPE svg PUBLIC "-//W3C//DTD SVG 1.1//EN" "http://www.w3.org/Graphics/SVG/1.1/DTD/svg11.dtd">
<svg version="1.1" id="Layer_1" xmlns="http://www.w3.org/2000/svg" xmlns:xlink="http://www.w3.org/1999/xlink" x="0px" y="0px"
	 viewBox="0 0 200 104.4" enable-background="new 0 0 200 104.4" xml:space="preserve">
<g>
	
		<radialGradient id="SVGID_1_" cx="48.0621" cy="2132.4238" r="47.9814" gradientTransform="matrix(1 0 0 0.1661 0 -257.7859)" gradientUnits="userSpaceOnUse">
		<stop  offset="5.494510e-03" style="stop-color:#817E7A"/>
		<stop  offset="0.3901" style="stop-color:#D0D1D7"/>
		<stop  offset="0.4459" style="stop-color:#D8D9DE"/>
		<stop  offset="0.6405" style="stop-color:#EDEEF0"/>
		<stop  offset="0.8282" style="stop-color:#FBFBFB"/>
		<stop  offset="1" style="stop-color:#FFFFFF"/>
	</radialGradient>
	<ellipse fill="url(#SVGID_1_)" cx="48.1" cy="96.4" rx="48" ry="8"/>
	<radialGradient id="SVGID_2_" cx="27.2409" cy="24.6373" r="89.2381" gradientUnits="userSpaceOnUse">
		<stop  offset="0.3297" style="stop-color:#FFAB91"/>
		<stop  offset="0.4644" style="stop-color:#FFA78C"/>
		<stop  offset="0.6334" style="stop-color:#FF9B7C"/>
		<stop  offset="0.8197" style="stop-color:#FF8863"/>
		<stop  offset="1" style="stop-color:#FF7043"/>
	</radialGradient>
	<path fill-rule="evenodd" clip-rule="evenodd" fill="url(#SVGID_2_)" d="M48,96c26.4,0,48-21.6,48-48C96,21.6,74.4,0,48,0
		C21.5,0,0,21.6,0,48C0,74.4,21.5,96,48,96z"/>
	<linearGradient id="SVGID_3_" gradientUnits="userSpaceOnUse" x1="33.3675" y1="21.6821" x2="88.5454" y2="121.0023">
		<stop  offset="0" style="stop-color:#FFCCBC"/>
		<stop  offset="0.3297" style="stop-color:#FFAB91"/>
		<stop  offset="0.6319" style="stop-color:#FF7043"/>
		<stop  offset="0.7127" style="stop-color:#FD6D3F"/>
		<stop  offset="0.7873" style="stop-color:#F66334"/>
		<stop  offset="0.8592" style="stop-color:#EB5222"/>
		<stop  offset="0.8846" style="stop-color:#E64A19"/>
		<stop  offset="0.9464" style="stop-color:#EA4C1A"/>
		<stop  offset="1" style="stop-color:#F4511E"/>
	</linearGradient>
	<path fill-rule="evenodd" clip-rule="evenodd" fill="url(#SVGID_3_)" d="M48,2.3c8.9,0,17.3,2.6,24.3,7L19.4,83.6
		C9,75.3,2.3,62.4,2.3,48C2.3,22.8,22.8,2.3,48,2.3L48,2.3z M76.5,12.3C87,20.7,93.7,33.6,93.7,48c0,25.2-20.5,45.7-45.7,45.7
		c-8.9,0-17.3-2.6-24.3-7L76.5,12.3z"/>
	<polygon fill-rule="evenodd" clip-rule="evenodd" fill="#D17971" points="72.3,9.3 19.4,83.6 20.6,85 74,11.1 	"/>
	<linearGradient id="SVGID_4_" gradientUnits="userSpaceOnUse" x1="31.6227" y1="10.9252" x2="38.98" y2="30.5446">
		<stop  offset="0.1484" style="stop-color:#FAEBDD"/>
		<stop  offset="1" style="stop-color:#EEC2B9"/>
	</linearGradient>
	<path fill-rule="evenodd" clip-rule="evenodd" fill="url(#SVGID_4_)" d="M2.5,43.4c16.7-4.4,42-12.5,63.8-25.6l6-8.5
		c-7-4.4-15.4-7-24.3-7C24.3,2.3,4.8,20.3,2.5,43.4z"/>
	<polygon fill-rule="evenodd" clip-rule="evenodd" fill="#FBE2EA" points="23.7,86.6 76.5,12.3 22.6,85.9 	"/>
</g>
<g>
	
		<radialGradient id="SVGID_5_" cx="152.0196" cy="2132.4238" r="47.9814" gradientTransform="matrix(1 0 0 0.1661 0 -257.7859)" gradientUnits="userSpaceOnUse">
		<stop  offset="5.494510e-03" style="stop-color:#817E7A"/>
		<stop  offset="0.3901" style="stop-color:#D0D1D7"/>
		<stop  offset="0.4459" style="stop-color:#D8D9DE"/>
		<stop  offset="0.6405" style="stop-color:#EDEEF0"/>
		<stop  offset="0.8282" style="stop-color:#FBFBFB"/>
		<stop  offset="1" style="stop-color:#FFFFFF"/>
	</radialGradient>
	<ellipse fill="url(#SVGID_5_)" cx="152" cy="96.4" rx="48" ry="8"/>
	<radialGradient id="SVGID_6_" cx="131.1984" cy="24.6373" r="89.2381" gradientUnits="userSpaceOnUse">
		<stop  offset="0.3297" style="stop-color:#FFAB91"/>
		<stop  offset="0.4644" style="stop-color:#FFA78C"/>
		<stop  offset="0.6334" style="stop-color:#FF9B7C"/>
		<stop  offset="0.8197" style="stop-color:#FF8863"/>
		<stop  offset="1" style="stop-color:#FF7043"/>
	</radialGradient>
	<path fill-rule="evenodd" clip-rule="evenodd" fill="url(#SVGID_6_)" d="M151.9,96c26.4,0,48-21.6,48-48c0-26.4-21.6-48-48-48
		c-26.4,0-48,21.6-48,48C104,74.4,125.5,96,151.9,96z"/>
	<linearGradient id="SVGID_7_" gradientUnits="userSpaceOnUse" x1="137.325" y1="21.6821" x2="192.5029" y2="121.0023">
		<stop  offset="0" style="stop-color:#FFCCBC"/>
		<stop  offset="0.3297" style="stop-color:#FFAB91"/>
		<stop  offset="0.6319" style="stop-color:#FF7043"/>
		<stop  offset="0.7127" style="stop-color:#FD6D3F"/>
		<stop  offset="0.7873" style="stop-color:#F66334"/>
		<stop  offset="0.8592" style="stop-color:#EB5222"/>
		<stop  offset="0.8846" style="stop-color:#E64A19"/>
		<stop  offset="0.9464" style="stop-color:#EA4C1A"/>
		<stop  offset="1" style="stop-color:#F4511E"/>
	</linearGradient>
	<path fill-rule="evenodd" clip-rule="evenodd" fill="url(#SVGID_7_)" d="M151.9,2.3c8.9,0,17.3,2.6,24.3,7l-52.9,74.3
		c-10.4-8.4-17.1-21.2-17.1-35.6C106.3,22.8,126.7,2.3,151.9,2.3L151.9,2.3z M180.5,12.3c10.4,8.4,17.1,21.2,17.1,35.7
		c0,25.2-20.5,45.7-45.7,45.7c-8.9,0-17.3-2.6-24.3-7L180.5,12.3z"/>
	<polygon fill-rule="evenodd" clip-rule="evenodd" fill="#D17971" points="176.3,9.3 123.4,83.6 124.5,85 177.9,11.1 	"/>
	<linearGradient id="SVGID_8_" gradientUnits="userSpaceOnUse" x1="135.5802" y1="10.9252" x2="142.9375" y2="30.5446">
		<stop  offset="0.1484" style="stop-color:#FAEBDD"/>
		<stop  offset="1" style="stop-color:#EEC2B9"/>
	</linearGradient>
	<path fill-rule="evenodd" clip-rule="evenodd" fill="url(#SVGID_8_)" d="M106.5,43.4c16.7-4.4,42-12.5,63.8-25.6l6-8.5
		c-7-4.4-15.4-7-24.3-7C128.3,2.3,108.8,20.3,106.5,43.4z"/>
	<polygon fill-rule="evenodd" clip-rule="evenodd" fill="#FBE2EA" points="127.6,86.6 180.5,12.3 126.5,85.9 	"/>
</g>
</svg>
