<?xml version="1.0" encoding="utf-8"?>
<!-- Generator: Adobe Illustrator 18.1.1, SVG Export Plug-In . SVG Version: 6.00 Build 0)  -->
<!DOCTYPE svg PUBLIC "-//W3C//DTD SVG 1.1//EN" "http://www.w3.org/Graphics/SVG/1.1/DTD/svg11.dtd">
<svg version="1.1" id="Layer_1" xmlns="http://www.w3.org/2000/svg" xmlns:xlink="http://www.w3.org/1999/xlink" x="0px" y="0px"
	 viewBox="0 0 303.4 111.3" enable-background="new 0 0 303.4 111.3" xml:space="preserve">
<g>
	
		<radialGradient id="SVGID_1_" cx="-206.0741" cy="-1583.5856" r="10.3976" gradientTransform="matrix(4.8 0 0 -0.7973 1242.6 -1162.249)" gradientUnits="userSpaceOnUse">
		<stop  offset="5.494510e-03" style="stop-color:#817E7A"/>
		<stop  offset="0.3901" style="stop-color:#D0D1D7"/>
		<stop  offset="0.4459" style="stop-color:#D8D9DE"/>
		<stop  offset="0.6405" style="stop-color:#EDEEF0"/>
		<stop  offset="0.8282" style="stop-color:#FBFBFB"/>
		<stop  offset="1" style="stop-color:#FFFFFF"/>
	</radialGradient>
	<ellipse fill="url(#SVGID_1_)" cx="253.4" cy="100.3" rx="49.9" ry="8.3"/>
	
		<radialGradient id="SVGID_2_" cx="-210.5836" cy="291.3339" r="19.3458" gradientTransform="matrix(4.8 0 0 -4.8 1242.6 1424.04)" gradientUnits="userSpaceOnUse">
		<stop  offset="0.3297" style="stop-color:#FFAB91"/>
		<stop  offset="0.4644" style="stop-color:#FFA78C"/>
		<stop  offset="0.6334" style="stop-color:#FF9B7C"/>
		<stop  offset="0.8197" style="stop-color:#FF8863"/>
		<stop  offset="1" style="stop-color:#FF7043"/>
	</radialGradient>
	<path fill="url(#SVGID_2_)" d="M253.3,99.9c27.5,0,49.9-22.5,49.9-49.9S280.8,0,253.3,0c-27.5,0-49.9,22.5-49.9,49.9
		C203.5,77.4,225.9,99.9,253.3,99.9z"/>
	
		<linearGradient id="SVGID_3_" gradientUnits="userSpaceOnUse" x1="-209.2589" y1="291.9727" x2="-197.297" y2="270.4413" gradientTransform="matrix(4.8 0 0 -4.8 1242.6 1424.04)">
		<stop  offset="0" style="stop-color:#FFCCBC"/>
		<stop  offset="0.3297" style="stop-color:#FFAB91"/>
		<stop  offset="0.6319" style="stop-color:#FF7043"/>
		<stop  offset="0.7127" style="stop-color:#FD6D3F"/>
		<stop  offset="0.7873" style="stop-color:#F66334"/>
		<stop  offset="0.8592" style="stop-color:#EB5222"/>
		<stop  offset="0.8846" style="stop-color:#E64A19"/>
		<stop  offset="0.9464" style="stop-color:#EA4C1A"/>
		<stop  offset="1" style="stop-color:#F4511E"/>
	</linearGradient>
	<path fill="url(#SVGID_3_)" d="M253.3,2.4c9.3,0,18,2.7,25.3,7.3l-55,77.3c-10.8-8.7-17.8-22.1-17.8-37
		C205.9,23.7,227.1,2.4,253.3,2.4L253.3,2.4z M283.1,12.8c10.8,8.7,17.8,22.1,17.8,37.1c0,26.2-21.3,47.6-47.6,47.6
		c-9.3,0-18-2.7-25.3-7.3L283.1,12.8z"/>
	<polygon fill="#D17971" points="278.7,9.7 223.7,87 224.8,88.4 280.4,11.6 	"/>
	
		<linearGradient id="SVGID_4_" gradientUnits="userSpaceOnUse" x1="-209.627" y1="294.3091" x2="-208.032" y2="290.0558" gradientTransform="matrix(4.8 0 0 -4.8 1242.6 1424.04)">
		<stop  offset="0.1484" style="stop-color:#FAEBDD"/>
		<stop  offset="1" style="stop-color:#EEC2B9"/>
	</linearGradient>
	<path fill="url(#SVGID_4_)" d="M206.1,45.2c17.4-4.6,43.7-13,66.4-26.6l6.2-8.8c-7.3-4.6-16-7.3-25.3-7.3
		C228.8,2.4,208.5,21.1,206.1,45.2z"/>
	<polygon fill="#FBE2EA" points="228.1,90.1 283.1,12.8 226.9,89.4 	"/>
</g>
<g>
	
		<radialGradient id="SVGID_5_" cx="-227.1442" cy="-1583.985" r="10.3976" gradientTransform="matrix(4.8 0 0 -0.7973 1242.6 -1162.249)" gradientUnits="userSpaceOnUse">
		<stop  offset="5.494510e-03" style="stop-color:#817E7A"/>
		<stop  offset="0.3901" style="stop-color:#D0D1D7"/>
		<stop  offset="0.4459" style="stop-color:#D8D9DE"/>
		<stop  offset="0.6405" style="stop-color:#EDEEF0"/>
		<stop  offset="0.8282" style="stop-color:#FBFBFB"/>
		<stop  offset="1" style="stop-color:#FFFFFF"/>
	</radialGradient>
	<ellipse fill="url(#SVGID_5_)" cx="152.3" cy="100.6" rx="49.9" ry="8.3"/>
	
		<radialGradient id="SVGID_6_" cx="-231.6538" cy="291.2676" r="19.3458" gradientTransform="matrix(4.8 0 0 -4.8 1242.6 1424.04)" gradientUnits="userSpaceOnUse">
		<stop  offset="0.3297" style="stop-color:#FFAB91"/>
		<stop  offset="0.4644" style="stop-color:#FFA78C"/>
		<stop  offset="0.6334" style="stop-color:#FF9B7C"/>
		<stop  offset="0.8197" style="stop-color:#FF8863"/>
		<stop  offset="1" style="stop-color:#FF7043"/>
	</radialGradient>
	<path fill="url(#SVGID_6_)" d="M152.2,100.2c27.5,0,49.9-22.5,49.9-49.9S179.7,0.3,152.2,0.3s-49.9,22.5-49.9,49.9
		C102.4,77.7,124.7,100.2,152.2,100.2z"/>
	
		<linearGradient id="SVGID_7_" gradientUnits="userSpaceOnUse" x1="-230.329" y1="291.9063" x2="-218.3671" y2="270.3749" gradientTransform="matrix(4.8 0 0 -4.8 1242.6 1424.04)">
		<stop  offset="0" style="stop-color:#FFCCBC"/>
		<stop  offset="0.3297" style="stop-color:#FFAB91"/>
		<stop  offset="0.6319" style="stop-color:#FF7043"/>
		<stop  offset="0.7127" style="stop-color:#FD6D3F"/>
		<stop  offset="0.7873" style="stop-color:#F66334"/>
		<stop  offset="0.8592" style="stop-color:#EB5222"/>
		<stop  offset="0.8846" style="stop-color:#E64A19"/>
		<stop  offset="0.9464" style="stop-color:#EA4C1A"/>
		<stop  offset="1" style="stop-color:#F4511E"/>
	</linearGradient>
	<path fill="url(#SVGID_7_)" d="M152.2,2.7c9.3,0,18,2.7,25.3,7.3l-55,77.3c-10.8-8.7-17.8-22.1-17.8-37C104.8,24,126,2.7,152.2,2.7
		L152.2,2.7z M182,13.1c10.8,8.7,17.8,22.1,17.8,37.1c0,26.2-21.3,47.6-47.6,47.6c-9.3,0-18-2.7-25.3-7.3L182,13.1z"/>
	<polygon fill="#D17971" points="177.6,10 122.5,87.3 123.7,88.8 179.3,11.9 	"/>
	
		<linearGradient id="SVGID_8_" gradientUnits="userSpaceOnUse" x1="-230.6971" y1="294.2427" x2="-229.1021" y2="289.9895" gradientTransform="matrix(4.8 0 0 -4.8 1242.6 1424.04)">
		<stop  offset="0.1484" style="stop-color:#FAEBDD"/>
		<stop  offset="1" style="stop-color:#EEC2B9"/>
	</linearGradient>
	<path fill="url(#SVGID_8_)" d="M105,45.5c17.4-4.6,43.7-13,66.4-26.6l6.2-8.8c-7.3-4.6-16-7.3-25.3-7.3
		C127.6,2.7,107.4,21.4,105,45.5z"/>
	<polygon fill="#FBE2EA" points="126.9,90.4 182,13.1 125.8,89.7 	"/>
</g>
<g>
	
		<radialGradient id="SVGID_9_" cx="-248.4475" cy="-1586.9868" r="10.3976" gradientTransform="matrix(4.8 0 0 -0.7973 1242.6 -1162.249)" gradientUnits="userSpaceOnUse">
		<stop  offset="5.494510e-03" style="stop-color:#817E7A"/>
		<stop  offset="0.3901" style="stop-color:#D0D1D7"/>
		<stop  offset="0.4459" style="stop-color:#D8D9DE"/>
		<stop  offset="0.6405" style="stop-color:#EDEEF0"/>
		<stop  offset="0.8282" style="stop-color:#FBFBFB"/>
		<stop  offset="1" style="stop-color:#FFFFFF"/>
	</radialGradient>
	<ellipse fill="url(#SVGID_9_)" cx="50.1" cy="103" rx="49.9" ry="8.3"/>
	
		<radialGradient id="SVGID_10_" cx="-252.957" cy="290.769" r="19.3458" gradientTransform="matrix(4.8 0 0 -4.8 1242.6 1424.04)" gradientUnits="userSpaceOnUse">
		<stop  offset="0.3297" style="stop-color:#FFAB91"/>
		<stop  offset="0.4644" style="stop-color:#FFA78C"/>
		<stop  offset="0.6334" style="stop-color:#FF9B7C"/>
		<stop  offset="0.8197" style="stop-color:#FF8863"/>
		<stop  offset="1" style="stop-color:#FF7043"/>
	</radialGradient>
	<path fill="url(#SVGID_10_)" d="M49.9,102.6c27.5,0,49.9-22.5,49.9-49.9S77.4,2.7,49.9,2.7S0,25.2,0,52.7
		C0.1,80.1,22.5,102.6,49.9,102.6z"/>
	
		<linearGradient id="SVGID_11_" gradientUnits="userSpaceOnUse" x1="-251.6323" y1="291.4077" x2="-239.6704" y2="269.8763" gradientTransform="matrix(4.8 0 0 -4.8 1242.6 1424.04)">
		<stop  offset="0" style="stop-color:#FFCCBC"/>
		<stop  offset="0.3297" style="stop-color:#FFAB91"/>
		<stop  offset="0.6319" style="stop-color:#FF7043"/>
		<stop  offset="0.7127" style="stop-color:#FD6D3F"/>
		<stop  offset="0.7873" style="stop-color:#F66334"/>
		<stop  offset="0.8592" style="stop-color:#EB5222"/>
		<stop  offset="0.8846" style="stop-color:#E64A19"/>
		<stop  offset="0.9464" style="stop-color:#EA4C1A"/>
		<stop  offset="1" style="stop-color:#F4511E"/>
	</linearGradient>
	<path fill="url(#SVGID_11_)" d="M49.9,5.1c9.3,0,18,2.7,25.3,7.3l-55,77.3C9.4,81,2.4,67.6,2.4,52.7C2.5,26.4,23.7,5.1,49.9,5.1
		L49.9,5.1z M79.7,15.5c10.8,8.7,17.8,22.1,17.8,37.1c0,26.2-21.3,47.6-47.6,47.6c-9.3,0-18-2.7-25.3-7.3L79.7,15.5z"/>
	<polygon fill="#D17971" points="75.3,12.4 20.3,89.7 21.4,91.2 77,14.3 	"/>
	
		<linearGradient id="SVGID_12_" gradientUnits="userSpaceOnUse" x1="-252.0004" y1="293.7441" x2="-250.4054" y2="289.4909" gradientTransform="matrix(4.8 0 0 -4.8 1242.6 1424.04)">
		<stop  offset="0.1484" style="stop-color:#FAEBDD"/>
		<stop  offset="1" style="stop-color:#EEC2B9"/>
	</linearGradient>
	<path fill="url(#SVGID_12_)" d="M2.7,47.9c17.4-4.6,43.7-13,66.4-26.6l6.2-8.8c-7.3-4.6-16-7.3-25.3-7.3
		C25.4,5.1,5.1,23.8,2.7,47.9z"/>
	<polygon fill="#FBE2EA" points="24.7,92.8 79.7,15.5 23.5,92.1 	"/>
</g>
</svg>
